<svg xmlns="http://www.w3.org/2000/svg" viewBox="0 0 161.51 161.51"><title>circle-05</title><g id="Objects_path-filder"><path d="M122,80.8l.11-.16a5.61,5.61,0,0,1,4.21-1.83,5.41,5.41,0,0,1,4.18,1.83l.13.16-.13.17a5.86,5.86,0,0,1-8.39,0Zm8,0a4.94,4.94,0,0,0-3.69-1.52,5.21,5.21,0,0,0-3.72,1.52,5.27,5.27,0,0,0,3.72,1.49A5,5,0,0,0,130,80.8Z"/><path d="M121.21,78.38a5.38,5.38,0,0,1,.13-1.14,4.69,4.69,0,0,1,2.29-3l.17-.05.1.13a4.23,4.23,0,0,1,.62,3.67,5.09,5.09,0,0,1-1,2.07l-.35-.3a4.58,4.58,0,0,0,.95-1.86,3.93,3.93,0,0,0-.41-3.14,4.33,4.33,0,0,0-1.86,2.57,4,4,0,0,0,.54,3.21l0,0v.09h-.08l.19.16-.16.13h-.19L122,81c0-.06-.08-.11-.13-.22A4.43,4.43,0,0,1,121.21,78.38Z"/><path d="M121.18,83.12a4.25,4.25,0,0,1,.46-1.89l.4.22a4,4,0,0,0-.27,2.59,4.2,4.2,0,0,0,1.92,2.56A2.65,2.65,0,0,0,124,86l0,0a3.89,3.89,0,0,0,.09-2.48,4.4,4.4,0,0,0-.6-1.41.26.26,0,0,1-.13-.27h.46a.17.17,0,0,0-.17-.16h.17l0,.11a4.94,4.94,0,0,1,.65,1.65,4.21,4.21,0,0,1-.06,2.72v0a5.52,5.52,0,0,1-.51.92l-.08.16-.19-.08a4.56,4.56,0,0,1-2.32-3A4.78,4.78,0,0,1,121.18,83.12Z"/><path d="M122.15,80.75v-.16c.08,0,.14,0,.14.11"/><path d="M109.85,51.08h0a5.56,5.56,0,0,1,1.68-3.89,5.64,5.64,0,0,1,4.28-1.67l.19,0v.15A5.26,5.26,0,0,1,114.33,50a5.38,5.38,0,0,1-4.23,1.67h-.22v-.2A1.71,1.71,0,0,1,109.85,51.08ZM115.57,46a5.15,5.15,0,0,0-3.67,1.59,5,5,0,0,0-1.59,3.54h0v.11A5.13,5.13,0,0,0,114,49.66a5.26,5.26,0,0,0,1.54-3.55Z"/><path d="M106.27,47.08a4.88,4.88,0,0,1,.21-1.23l.08-.16h.19a4.38,4.38,0,0,1,3,2.16,4.71,4.71,0,0,1,.68,2.21l-.43,0a4.19,4.19,0,0,0-.68-2,3.89,3.89,0,0,0-2.48-1.9,4.09,4.09,0,0,0,.51,3.15A3.94,3.94,0,0,0,110,51.19l0,.06h.05l-.05,0h.24v.2l-.13.15-.08,0a.46.46,0,0,1-.25,0A4.29,4.29,0,0,1,107,49.57,5,5,0,0,1,106.27,47.08Z"/><path d="M109.21,51l.75.09a.21.21,0,0,1,.14,0v.06l.08.11v.14A4,4,0,0,0,112.06,54a4.46,4.46,0,0,0,3.16.54A4,4,0,0,0,113.31,52a3.68,3.68,0,0,0-1.62-.59l0-.46a4.19,4.19,0,0,1,1.81.66,4.5,4.5,0,0,1,2.18,3l0,.21-.19,0a4.71,4.71,0,0,1-3.75-.51,4.42,4.42,0,0,1-2-2.87l0,0v-.08Z"/><path d="M78.79,35.27h0a5.66,5.66,0,0,1,1.8-4.22l.16-.15.17.15a5.76,5.76,0,0,1,0,8.37l-.17.16-.13-.16A5.47,5.47,0,0,1,78.79,35.27Zm2-3.74a5.4,5.4,0,0,0,0,7.43,5.11,5.11,0,0,0,1.52-3.69A4.94,4.94,0,0,0,80.75,31.53Z"/><path d="M74.17,37.74l.17-.17A4.28,4.28,0,0,1,78,37a5.66,5.66,0,0,1,2.08,1l-.3.37a4.15,4.15,0,0,0-1.88-.93,4,4,0,0,0-3.13.39,4.28,4.28,0,0,0,2.56,1.84,3.82,3.82,0,0,0,3.18-.54l.08,0h.08v0l.19-.15.06.07.08.08,0,.18,0,.11s-.06.1-.17.13a4.56,4.56,0,0,1-3.53.54,4.43,4.43,0,0,1-3-2.27Z"/><path d="M79.89,39.56l.54-.42s0-.07.06-.12l.08.08h.1l.14.06A3.77,3.77,0,0,0,84,39.7a4.22,4.22,0,0,0,2.62-1.84,4.1,4.1,0,0,0-3.13-.41,3.53,3.53,0,0,0-1.54.69l-.32-.36a4.78,4.78,0,0,1,1.75-.8,4.36,4.36,0,0,1,3.64.59l.22.17-.11.14a4.61,4.61,0,0,1-3,2.27,4.54,4.54,0,0,1-3.53-.54s-.06,0-.08,0Z"/><path d="M45.48,46h0v-.51h.22a5.82,5.82,0,0,1,6,5.57,1.8,1.8,0,0,1,0,.39l0,.15-.16,0A5.63,5.63,0,0,1,47.18,50,5.73,5.73,0,0,1,45.48,46Zm.49-.08V46a5.36,5.36,0,0,0,1.53,3.63,5,5,0,0,0,3.64,1.56v-.13a5.11,5.11,0,0,0-1.51-3.54A5,5,0,0,0,46,45.92Z"/><path d="M45.64,55l.06-.18a4.16,4.16,0,0,1,2.15-3A5.2,5.2,0,0,1,50.07,51l0,.46a4.24,4.24,0,0,0-2,.66,3.82,3.82,0,0,0-1.94,2.47,4,4,0,0,0,3.13-.48,3.68,3.68,0,0,0,1.83-2.65l.06,0,0-.06,0,.06.08-.26-.08.26.08-.26h.13l.14.15,0,.11a.39.39,0,0,1,0,.2,4.4,4.4,0,0,1-2.08,2.89,4.59,4.59,0,0,1-3.72.51Z"/><path d="M51,49.75A4.56,4.56,0,0,1,51.6,48a4.43,4.43,0,0,1,3.08-2.21h.19l0,.15a4.5,4.5,0,0,1-.48,3.73,4.36,4.36,0,0,1-2.89,2.08v0h-.11l-.37.33,0-.56v-.11h.08v-.06l.09,0,.13,0A4,4,0,0,0,54,49.44a4.21,4.21,0,0,0,.54-3.13A4,4,0,0,0,52,48.21a3.94,3.94,0,0,0-.57,1.59Z"/><path d="M30.92,80.75l.08-.14a5.55,5.55,0,0,1,4.23-1.83,5.35,5.35,0,0,1,4.18,1.83l.16.14-.16.16a5.55,5.55,0,0,1-4.18,1.83A5.79,5.79,0,0,1,31,80.91Zm8,0a5.18,5.18,0,0,0-3.7-1.5,5.24,5.24,0,0,0-3.72,1.5,5.13,5.13,0,0,0,3.72,1.51A5,5,0,0,0,38.93,80.75Z"/><path d="M36.82,84.74A5,5,0,0,1,37,83.5a4.33,4.33,0,0,1,1-2l.35.3a4.19,4.19,0,0,0-1,1.86,4,4,0,0,0,.41,3.13,4.27,4.27,0,0,0,1.83-2.59A3.62,3.62,0,0,0,39.14,81l0-.08v0h.05L39,80.67l.08-.06,0,0h.19l.14,0c.05.06.1.09.1.14a4.61,4.61,0,0,1-1.69,6.53l-.19,0-.11-.14A4.07,4.07,0,0,1,36.82,84.74Z"/><path d="M36.82,77a4.08,4.08,0,0,1,.76-2.49l.11-.15.19.11a4.64,4.64,0,0,1,2.29,3,4.78,4.78,0,0,1-.6,3.56v.53l-.45-.4S39,81.05,39,81l.08,0h0v-.11l0-.11a4,4,0,0,0,.54-3.2,4.13,4.13,0,0,0-1.83-2.61,3.91,3.91,0,0,0-.41,3.13,3.62,3.62,0,0,0,.68,1.55l-.35.29a5.42,5.42,0,0,1-.84-1.74A10.26,10.26,0,0,1,36.82,77Z"/><path d="M45.45,115.48h0a5.66,5.66,0,0,1,1.73-3.91,5.5,5.5,0,0,1,4.23-1.7h.19v.22A5.71,5.71,0,0,1,45.7,116h-.22l0-.19Zm5.69-5.15a5.19,5.19,0,0,0-3.66,1.54,5.35,5.35,0,0,0-1.54,3.61h0v.11A5.12,5.12,0,0,0,49.63,114a5.07,5.07,0,0,0,1.51-3.48Z"/><path d="M51,111.46l.45,0a4.09,4.09,0,0,0,.68,2,3.87,3.87,0,0,0,2.48,1.89,4.33,4.33,0,0,0-.51-3.13,4.27,4.27,0,0,0-2.65-1.86l-.08,0,0-.06h0l-.27,0V110l.17-.17.13,0c.08,0,.14,0,.16,0A4.42,4.42,0,0,1,54.52,112,4.64,4.64,0,0,1,55,115.7l-.08.19-.19-.06a4.34,4.34,0,0,1-3-2.15A5,5,0,0,1,51,111.46Z"/><path d="M45.75,106.67l.22-.06a4.63,4.63,0,0,1,3.72.49A4.27,4.27,0,0,1,51.74,110a.29.29,0,0,0,0,.08l.36.35h-.71v-.11h0l0,0-.08-.17a3.9,3.9,0,0,0-1.83-2.64,4.22,4.22,0,0,0-3.16-.48,4,4,0,0,0,1.91,2.48,3.84,3.84,0,0,0,1.6.59l-.06.46a4.26,4.26,0,0,1-1.8-.62,4.43,4.43,0,0,1-2.14-3.08Z"/><path d="M78.79,126.32h0a5.38,5.38,0,0,1,1.78-4.2l.18-.14.17.14a5.47,5.47,0,0,1,1.8,4.15,5.67,5.67,0,0,1-1.8,4.24l-.17.13-.18-.13A5.51,5.51,0,0,1,78.79,126.32Zm2-3.72a5.28,5.28,0,0,0,0,7.39,5.33,5.33,0,0,0,0-7.39Z"/><path d="M80.51,122.28v-.11l.06-.11a.25.25,0,0,1,.18-.1,4.51,4.51,0,0,1,3.51-.6,4.57,4.57,0,0,1,3,2.27l.11.16-.16.13a4.24,4.24,0,0,1-3.67.6,4.41,4.41,0,0,1-2.07-1l.29-.35a4.86,4.86,0,0,0,1.89,1,4.06,4.06,0,0,0,3.1-.43,4.31,4.31,0,0,0-2.59-1.88,4,4,0,0,0-3.18.56l0,0h-.08v-.06l-.22.14.22-.14-.22.11-.05-.08Z"/><path d="M74.34,123.79l.1-.16a4.63,4.63,0,0,1,3-2.27,4.31,4.31,0,0,1,3.51.6s0,0,.08,0h.51l-.4.38c-.09.11-.11.11-.11.13l0,0v0h-.11l-.16-.11a4,4,0,0,0-3.18-.56A4.23,4.23,0,0,0,75,123.68a4,4,0,0,0,3.08.43,4.15,4.15,0,0,0,1.56-.72l.27.35a4.55,4.55,0,0,1-1.7.81,4.45,4.45,0,0,1-3.72-.63Z"/><path d="M109.83,110.5c0-.17,0-.25,0-.41l0-.16.19,0a5.37,5.37,0,0,1,4.23,1.67,5.49,5.49,0,0,1,1.7,4.26V116h-.19a5.77,5.77,0,0,1-6-5.52Zm.48-.17v.17a5.22,5.22,0,0,0,1.57,3.53,5.07,5.07,0,0,0,3.69,1.56v-.11a5.37,5.37,0,0,0-1.56-3.61A5.31,5.31,0,0,0,110.31,110.33Z"/><path d="M109.83,110.09a.44.44,0,0,1,0-.16,4.47,4.47,0,0,1,2.08-2.91,4.62,4.62,0,0,1,3.75-.54l.16,0,0,.22a4.23,4.23,0,0,1-2.18,3,4.31,4.31,0,0,1-2.21.73V110a4.2,4.2,0,0,0,2-.68,3.83,3.83,0,0,0,1.89-2.45,4,4,0,0,0-3.13.48,3.94,3.94,0,0,0-1.89,2.65v0l0,0,0,0-.11.24H110l-.17-.13Z"/><path d="M106.4,114.32a5.12,5.12,0,0,1,.68-2.5,4.38,4.38,0,0,1,2.88-2c.06,0,.08,0,.11-.06l.32-.35V110a.29.29,0,0,1,.06.14h-.11l0,.11-.19,0a3.81,3.81,0,0,0-2.61,1.84,4.2,4.2,0,0,0-.54,3.13,4,4,0,0,0,2.51-1.89,4.28,4.28,0,0,0,.59-1.62l.46.05a4.52,4.52,0,0,1-.65,1.81,4.3,4.3,0,0,1-3,2.18h-.16l-.11-.21A5.8,5.8,0,0,1,106.4,114.32Z"/><path d="M116.49,57.41a.31.31,0,0,1,.08-.26c5.39-6.63,17.12.8,17.58,1.14a.35.35,0,0,1,.11.53.43.43,0,0,1-.57.13c-.08-.07-11.54-7.35-16.5-1.29a.38.38,0,0,1-.57.06A.35.35,0,0,1,116.49,57.41Z"/><path d="M123.63,71.7v-.39h.08c7.12-.08,9.85-12.59,9.85-12.71a.37.37,0,0,1,.46-.31.38.38,0,0,1,.32.45c-.11.57-2.83,13.29-10.63,13.37Z"/><path d="M89.33,38c0-7.91,12.73-10.77,13.3-10.89a.36.36,0,0,1,.45.31c.09.2-.08.4-.29.46S90.17,30.71,90.17,38c0,.26,0,.46,0,.69a.37.37,0,0,1-.35.43.44.44,0,0,1-.46-.35A4.09,4.09,0,0,1,89.33,38Z"/><path d="M102.33,27.5a.37.37,0,0,1,.19-.31.39.39,0,0,1,.56.14c.3.43,7.37,11.38,1.92,17l-.32-.23-.3-.31.05,0c5-5.07-1.94-15.83-2.05-15.94A1.09,1.09,0,0,1,102.33,27.5Z"/><path d="M54.41,38.71c0-5.3,3.61-11,3.83-11.36a.41.41,0,0,1,.7.43c-.11.14-7.36,11.61-1.27,16.58a.38.38,0,0,1,0,.54.46.46,0,0,1-.6.05A7.89,7.89,0,0,1,54.41,38.71Z"/><path d="M58.24,27.56V27.5a.45.45,0,0,1,.48-.31c.54.11,13.3,2.86,13.38,10.64l-.41.05h-.43v-.05C71.21,30.71,58.67,28,58.59,28A.4.4,0,0,1,58.24,27.56Z"/><path d="M27.09,58.82a.39.39,0,0,1,.3-.41.41.41,0,0,1,.45.33c.06.17,3.05,13.39,10.79,12.6a.45.45,0,0,1,.49.36.41.41,0,0,1-.38.43C30.27,73,27.2,59.49,27.09,58.91Z"/><path d="M27.12,58.8a.36.36,0,0,1,.18-.37c.46-.31,11.41-7.37,17-1.9l-.25.31-.29.26h0c-5.1-5-15.88,1.95-16,2a.43.43,0,0,1-.57-.13A.3.3,0,0,1,27.12,58.8Z"/><path d="M27.14,102.94a.46.46,0,0,1,.08-.24.42.42,0,0,1,.54-.11c.14.11,11.6,7.34,16.53,1.27a.5.5,0,0,1,.6,0,.38.38,0,0,1,0,.56c-5.34,6.64-17.07-.75-17.58-1.1A.41.41,0,0,1,27.14,102.94Z"/><path d="M27.14,102.86v-.08c.11-.51,2.89-13.29,10.68-13.35l.08.41v.4h-.08c-7.14.06-9.87,12.57-9.87,12.7a.37.37,0,0,1-.48.3A.4.4,0,0,1,27.14,102.86Z"/><path d="M58.4,134.09a.42.42,0,0,1,.32-.43c.11,0,12.62-2.86,12.62-10.11,0-.25,0-.46,0-.68a.45.45,0,0,1,.35-.46.4.4,0,0,1,.46.36c0,.27,0,.53,0,.8,0,7.88-12.7,10.77-13.27,10.87a.38.38,0,0,1-.48-.29Z"/><path d="M54.46,122.77a7.68,7.68,0,0,1,2-5.56l.35.27.24.32-.05.06c-4.93,5,2,15.8,2.05,15.93a.38.38,0,0,1-.11.55c-.21.13-.46.1-.54-.11S54.46,128.05,54.46,122.77Z"/><path d="M102.52,134a.3.3,0,0,1,.08-.25c.05-.13,7.31-11.62,1.27-16.53a.44.44,0,0,1-.08-.59.42.42,0,0,1,.56-.06c6.61,5.45-.78,17.13-1.1,17.64a.34.34,0,0,1-.54.08A.36.36,0,0,1,102.52,134Z"/><path d="M89.41,123.68a.39.39,0,0,1,.38-.38.33.33,0,0,1,.43.3v.08c0,7.18,12.57,9.87,12.7,9.87a.39.39,0,0,1,.33.49.46.46,0,0,1-.46.35c-.57-.16-13.3-2.89-13.38-10.71Z"/><path d="M122.39,89.81a.46.46,0,0,1,.38-.43c8.5-.81,11.54,12.67,11.68,13.27a.4.4,0,0,1-.35.43.33.33,0,0,1-.43-.3c-.06-.13-3-13.4-10.85-12.59a.44.44,0,0,1-.43-.35Z"/><path d="M117.11,104.7a.32.32,0,0,1,.11-.27.33.33,0,0,1,.51-.06l0,.06c5.1,5,15.91-2,16-2a.39.39,0,0,1,.56.11.37.37,0,0,1-.1.54c-.46.32-11.41,7.36-17,1.91A.33.33,0,0,1,117.11,104.7Z"/><path d="M112.25,60.59c0-2.41,1.08-4.37,2.57-4.57a2.45,2.45,0,0,1,1.78.54,6.38,6.38,0,0,1,2.07,4.31v.4l.38-.21c2.7-1.29,5.34-1.05,6.12.57s-.73,3.87-3.32,5.14a1.19,1.19,0,0,1-.35.2,1.05,1.05,0,0,0,.27.2A6.59,6.59,0,0,1,124,71.39a2.35,2.35,0,0,1-.62,1.79,2.22,2.22,0,0,1-1.67.68,6.59,6.59,0,0,1-4.29-2,6,6,0,0,1-1.16-1.49l.57-.33a5.88,5.88,0,0,0,1.08,1.34,5.76,5.76,0,0,0,3.8,1.76,1.61,1.61,0,0,0,1.21-.43,1.79,1.79,0,0,0,.43-1.26v-.06a5.67,5.67,0,0,0-2-3.72c-.11-.08-.21-.2-.32-.28s-.24-.21-.38-.31l-.4-.3.45-.27c.09,0,.22-.07.33-.12a4.86,4.86,0,0,0,.51-.23c2.27-1.08,3.61-3,3-4.27s-2.91-1.38-5.23-.26a3.37,3.37,0,0,0-.54.28c-.11.08-.25.14-.33.19l-.48.26V60.9a5.84,5.84,0,0,0-1.81-3.8,1.66,1.66,0,0,0-1.27-.41c-1.35.15-2.26,2.39-1.94,4.83,0,.15,0,.2.06.23l-.62.31a.92.92,0,0,1-.11-.48C112.28,61.24,112.25,60.9,112.25,60.59Z"/><path d="M86.93,40.55a2.19,2.19,0,0,1,.43-1.41A2.51,2.51,0,0,1,89,38.29a6.51,6.51,0,0,1,4.5,1.6l.3.29a1.14,1.14,0,0,1,.16-.42c1-2.83,3-4.49,4.69-3.93s2.24,3.24,1.3,6a.92.92,0,0,1-.11.39.76.76,0,0,0,.35-.06,6.55,6.55,0,0,1,4.56,1.39,2.44,2.44,0,0,1,.81,1.7v.08a2.43,2.43,0,0,1-.68,1.62,6.49,6.49,0,0,1-4.42,1.62,7.05,7.05,0,0,1-1.91-.22l.19-.63a8.36,8.36,0,0,0,1.69.15,5.63,5.63,0,0,0,3.94-1.39,1.62,1.62,0,0,0,.54-1.15v-.05a1.69,1.69,0,0,0-.62-1.24,5.89,5.89,0,0,0-4.07-1.2,1.3,1.3,0,0,1-.46,0,2.73,2.73,0,0,1-.38,0l-.54.08.14-.51a2,2,0,0,1,.13-.34,1.5,1.5,0,0,0,.19-.48c.78-2.39.43-4.75-.89-5.22s-3,1.13-3.85,3.55c-.06.2-.11.39-.17.56s-.05.26-.1.39l-.19.49-1-1a5.73,5.73,0,0,0-4-1.45,1.55,1.55,0,0,0-1.19.62c-.86,1.05.11,3.29,2,4.8.14.08.14.08.16.14l-.19.63a1.11,1.11,0,0,1-.43-.28A6.07,6.07,0,0,1,86.93,40.55Z"/><path d="M56,46.42a2.46,2.46,0,0,1,.54-1.5,6.6,6.6,0,0,1,4.34-2.05h.41c-.08-.13-.16-.28-.25-.42-1.24-2.66-1-5.28.6-6.1s3.88.71,5.15,3.3A3.44,3.44,0,0,1,67,40a.74.74,0,0,1,.22-.28,7.13,7.13,0,0,1,3.16-2.08,2.79,2.79,0,0,1,2.83.43,2.23,2.23,0,0,1,.67,1.68v.1a6.55,6.55,0,0,1-2,4.21,10,10,0,0,1-1.48,1.16l-.3-.59a7.2,7.2,0,0,0,1.3-1.06,6,6,0,0,0,1.78-3.72v-.08a1.52,1.52,0,0,0-.46-1.21,2.23,2.23,0,0,0-2.19-.31,6.66,6.66,0,0,0-2.83,1.89,1.67,1.67,0,0,1-.32.37l-.24.31-.35.46-.25-.51a1,1,0,0,1-.1-.31c-.09-.2-.14-.35-.22-.51-1.13-2.25-3.1-3.64-4.32-3s-1.37,2.94-.24,5.25a4.73,4.73,0,0,0,.27.51c.06.11.14.2.19.31l.27.51H60.88a5.88,5.88,0,0,0-3.83,1.81,1.78,1.78,0,0,0-.4,1.25c.18,1.37,2.45,2.27,4.88,2,.16,0,.16,0,.21,0l.33.57a1.1,1.1,0,0,1-.54.09c-2.81.37-5.29-.77-5.53-2.5A.77.77,0,0,1,56,46.42Z"/><path d="M35.69,63.57a2.12,2.12,0,0,1,.14-.69c.56-1.67,3.21-2.24,6-1.3.13.05.27.09.37.14v-.66c0-2.83,1.3-5,3.05-5.09a2.15,2.15,0,0,1,1.67.72,6.52,6.52,0,0,1,1.68,4.41A7,7,0,0,1,48.31,63l-.62-.16a7.43,7.43,0,0,0,.16-1.7,5.92,5.92,0,0,0-1.43-4,1.55,1.55,0,0,0-1.18-.51c-1.38,0-2.4,2-2.4,4.4v.25a5.06,5.06,0,0,1,0,.54.84.84,0,0,0,.06.38l0,.54-.54-.2a.86.86,0,0,0-.25-.1,1.16,1.16,0,0,0-.54-.21c-2.42-.83-4.71-.41-5.17.87a1.21,1.21,0,0,0-.08.46c0,1.24,1.45,2.68,3.58,3.43.25.08.38.12.6.17s.24,0,.35,0l.51.18-.38.39-.65.66a5.92,5.92,0,0,0-1.43,4,1.64,1.64,0,0,0,.62,1.15c1.08.85,3.27-.1,4.81-2.05l.13-.14.59.14a.51.51,0,0,1-.21.43c-1.78,2.24-4.37,3.25-5.77,2.16a2.51,2.51,0,0,1-.84-1.64A6.34,6.34,0,0,1,39.9,68a2.23,2.23,0,0,1,.27-.28,1.46,1.46,0,0,1-.43-.15C37.31,66.77,35.69,65.12,35.69,63.57Z"/><path d="M36.12,99a3.34,3.34,0,0,1,.65-1.83,7.34,7.34,0,0,1,2.89-2.4,1,1,0,0,1,.35-.19,3.44,3.44,0,0,0-.27-.27,7.31,7.31,0,0,1-2.11-3.13,3,3,0,0,1,.46-2.81,2.29,2.29,0,0,1,1.7-.67,6.45,6.45,0,0,1,4.29,2,7.72,7.72,0,0,1,1.16,1.46l-.59.32a6.65,6.65,0,0,0-1.06-1.3,5.69,5.69,0,0,0-3.8-1.78,1.61,1.61,0,0,0-1.21.46,2.24,2.24,0,0,0-.3,2.16,6.18,6.18,0,0,0,1.89,2.83c.13.11.21.22.38.35a1.56,1.56,0,0,1,.29.25l.43.32-.48.27c-.08.05-.19.05-.33.11a2.14,2.14,0,0,0-.45.24,6.61,6.61,0,0,0-2.7,2.18,2,2,0,0,0-.38,2.08c.6,1.27,2.91,1.38,5.23.24a1.82,1.82,0,0,0,.54-.27,2.19,2.19,0,0,1,.3-.16l.49-.27v1.46c.35,2.48,1.67,4.45,3.1,4.26s2.23-2.38,1.91-4.86v-.16l.54-.4a.81.81,0,0,1,.16.51c.33,2.83-.83,5.34-2.53,5.56s-3.48-1.89-3.81-4.86a2.49,2.49,0,0,1,0-.37c-.14,0-.27.16-.43.21-2.65,1.27-5.29,1-6.07-.59A1.89,1.89,0,0,1,36.12,99Z"/><path d="M55.94,116.24a2.44,2.44,0,0,1,.71-1.62A6.32,6.32,0,0,1,61.1,113a7.89,7.89,0,0,1,1.88.19l-.19.65a7,7,0,0,0-1.69-.19,6.11,6.11,0,0,0-4,1.4,2.14,2.14,0,0,0-.51,1.19h0a2,2,0,0,0,.62,1.27,6.27,6.27,0,0,0,4,1.21,4.11,4.11,0,0,1,.54-.08,2.25,2.25,0,0,0,.4,0l.49-.08-.17.51a1.08,1.08,0,0,1-.13.33,2.51,2.51,0,0,0-.16.54,6.57,6.57,0,0,0-.33,3.45,2.15,2.15,0,0,0,1.19,1.72c1.32.44,3-1.13,3.88-3.55a3.38,3.38,0,0,0,.17-.54c0-.14,0-.27.1-.38l.19-.54.41.43a3.1,3.1,0,0,0,.62.65,5.63,5.63,0,0,0,4,1.4,1.73,1.73,0,0,0,1.19-.57c.83-1.08-.14-3.31-2-4.88-.11,0-.11,0-.14,0l.14-.68a1.43,1.43,0,0,1,.43.25c2.29,1.83,3.21,4.37,2.13,5.74a2,2,0,0,1-1.62.84A6.39,6.39,0,0,1,68,121.63a.85.85,0,0,0-.24-.27,1.9,1.9,0,0,0-.14.44c-1,2.77-3,4.47-4.71,3.91a2.68,2.68,0,0,1-1.62-2.27,6.87,6.87,0,0,1,.32-3.72,1.2,1.2,0,0,1,.11-.41c-.11,0-.24.06-.32.06A6.52,6.52,0,0,1,56.75,118a2.55,2.55,0,0,1-.81-1.7Z"/><path d="M87.63,121.69a6.78,6.78,0,0,1,2-4.26,7.57,7.57,0,0,1,1.48-1.14l.32.57a8.31,8.31,0,0,0-1.32,1,6,6,0,0,0-1.8,3.78h0a1.73,1.73,0,0,0,.45,1.24,2.18,2.18,0,0,0,2.19.27,6.51,6.51,0,0,0,2.86-1.84c.08-.13.21-.21.29-.37a1.31,1.31,0,0,0,.27-.33l.35-.4.25.46a.75.75,0,0,1,.1.32,1.89,1.89,0,0,0,.25.49c1.1,2.26,3.05,3.66,4.26,3s1.37-2.94.27-5.2l-.27-.49a1.9,1.9,0,0,1-.19-.38l-.3-.51.6,0a4.4,4.4,0,0,0,.89,0,5.89,5.89,0,0,0,3.83-1.84,1.59,1.59,0,0,0,.43-1.24c-.16-1.34-2.4-2.23-4.88-1.94h-.11l-.41-.54a.69.69,0,0,1,.52-.16c2.83-.32,5.31.81,5.52,2.56a2.22,2.22,0,0,1-.53,1.76,6.45,6.45,0,0,1-4.35,2,2,2,0,0,1-.37,0,1.38,1.38,0,0,1,.24.38c1.27,2.67,1,5.31-.59,6.12s-3.83-.67-5.16-3.34c-.08,0-.1-.22-.18-.32a.89.89,0,0,0-.22.27,7.65,7.65,0,0,1-3.16,2.1,2.82,2.82,0,0,1-2.83-.49,2.29,2.29,0,0,1-.7-1.67Z"/><path d="M113,100.44a5.93,5.93,0,0,1,.22-1.87l.62.19a5.5,5.5,0,0,0-.19,1.68,5.79,5.79,0,0,0,1.43,3.93,1.74,1.74,0,0,0,1.21.54,1.7,1.7,0,0,0,1.22-.64,5.55,5.55,0,0,0,1.18-4c0-.17,0-.33,0-.49v-.43l-.08-.54.51.16.35.16.46.16c2.43.81,4.74.41,5.2-.86s-1.1-3.07-3.53-3.88a1.1,1.1,0,0,0-.54-.16,1.15,1.15,0,0,0-.4-.11l-.52-.19.41-.38.54-.54.11-.11a5.83,5.83,0,0,0,1.43-4,1.68,1.68,0,0,0-.6-1.14c-1.08-.86-3.29.11-4.83,2L117,90l-.68-.11a.72.72,0,0,1,.3-.38c1.78-2.26,4.34-3.24,5.69-2.1a2.2,2.2,0,0,1,.89,1.56,6.59,6.59,0,0,1-1.62,4.53l-.11.11-.16.16a1,1,0,0,1,.41.16c2.83.92,4.47,3,3.93,4.7s-3.18,2.21-6,1.29a.87.87,0,0,1-.38-.11c0,.11,0,.22,0,.38v.3a6.33,6.33,0,0,1-1.38,4.23,2.73,2.73,0,0,1-1.7.84,2.51,2.51,0,0,1-1.64-.7A6.61,6.61,0,0,1,113,100.44Z"/><path d="M136.93,59.67a.66.66,0,0,1-.22-.16"/><path d="M136.63,57.72a6.15,6.15,0,0,1,3.64-1.13,5.28,5.28,0,0,1,1.57.2,5.35,5.35,0,0,1,3,1.81l.14.14-.14.17a6.15,6.15,0,0,1-4.61,2,1.36,1.36,0,0,1-.43,0l.11-.46h.32a5.75,5.75,0,0,0,4.13-1.65,5.33,5.33,0,0,0-2.67-1.51,5.16,5.16,0,0,0-1.46-.19,5.51,5.51,0,0,0-3.34,1Z"/><path d="M140.3,53.61a5.82,5.82,0,0,1,3.53.33L144,54l-.08.21a5.42,5.42,0,0,1-2,3l-.3-.37a5.19,5.19,0,0,0,1.84-2.56,5.43,5.43,0,0,0-3.08-.24Z"/><path d="M136.36,56.84a5.6,5.6,0,0,0,3-2,6.4,6.4,0,0,0,.73-1.18,5.87,5.87,0,0,0,.62-3,5.39,5.39,0,0,0-2.78,1v.11l-.24,0,0-.23h-.21v-.11l.08-.11A5.63,5.63,0,0,1,141,50.22h.21l0,.18a6.09,6.09,0,0,1-.65,3.52,4.48,4.48,0,0,1-.81,1.28,6.34,6.34,0,0,1-3.29,2.09Z"/><path d="M133.37,53.66a7.08,7.08,0,0,1,.22-1.7,4.24,4.24,0,0,1,.62-1.48,5.79,5.79,0,0,1,2.5-2.47l.22-.11.08.2a5.72,5.72,0,0,1,1,3.2v.23l0,.23a5.14,5.14,0,0,1-.19,1.33,5.62,5.62,0,0,1-2.16,3.29l-.24-.41a5.35,5.35,0,0,0,1.94-3,4.93,4.93,0,0,0,.19-1.4V51.3h0a5.42,5.42,0,0,0-.73-2.75,5.6,5.6,0,0,0-2.7,3.52,5.49,5.49,0,0,0,.14,3.67l-.44.19A7.32,7.32,0,0,1,133.37,53.66Z"/><path d="M130.7,51.56a1.18,1.18,0,0,1,.05-.42A5.5,5.5,0,0,1,132,47.85l.11-.15.19.09a6,6,0,0,1,2.35,2.73l-.43.19a5.3,5.3,0,0,0-2-2.39,4.73,4.73,0,0,0-1,2.85,5.14,5.14,0,0,0,.06,1.47A6.23,6.23,0,0,0,133,55.93l-.32.29a6.38,6.38,0,0,1-1.89-3.52A6.48,6.48,0,0,1,130.7,51.56Z"/><path d="M127.44,51a4.76,4.76,0,0,1,.19-1.28l.05-.21.16,0A5.57,5.57,0,0,1,131.1,51l-.29.35A5.15,5.15,0,0,0,128,50a5.27,5.27,0,0,0,.35,3.06,7.35,7.35,0,0,0,.65,1.28,6.72,6.72,0,0,0,.65.78,4.85,4.85,0,0,0,.51.49.69.69,0,0,1,.19.12.23.23,0,0,1,.11.11l.1,0a4.58,4.58,0,0,1,.49.31h0a5.85,5.85,0,0,0,.89.35l-.1.47a6.8,6.8,0,0,1-.92-.36.27.27,0,0,1-.11,0l-.54-.31-.11-.1c-.08,0-.1-.08-.16-.11s-.08-.1-.13-.1-.43-.3-.57-.57a3.87,3.87,0,0,1-.73-.8,6.75,6.75,0,0,1-.72-1.37A6.91,6.91,0,0,1,127.44,51Z"/><path d="M124.34,53l.21-.07a6.26,6.26,0,0,1,3.64,0l.11.06,0,.09a7.26,7.26,0,0,0,.62,1.28l.08.08a6.92,6.92,0,0,0,.6.65l0,.05a2,2,0,0,0,.46.46.61.61,0,0,1,.32.31c.22.1.35.2.52.26l.21,0v0a6.27,6.27,0,0,0,.73.31l-.11.47a4.7,4.7,0,0,1-.86-.36.2.2,0,0,1-.16-.11,1.1,1.1,0,0,1-.57-.31h-.08l0-.08c-.06-.11-.08-.11-.19-.16a1.82,1.82,0,0,1-.57-.57,4.18,4.18,0,0,1-.65-.72l-.1-.09A6,6,0,0,1,128,53.3a6.31,6.31,0,0,0-3,0,6.33,6.33,0,0,0,.81,1.67l-.38.28a7.11,7.11,0,0,1-.94-2Z"/><path d="M129.67,68.13l.46-.11a2.13,2.13,0,0,0,.17.39,5.18,5.18,0,0,0,2.29-2,4.32,4.32,0,0,0,.59-1.22,5.62,5.62,0,0,0,.14-3.79l.43-.15a5.85,5.85,0,0,1-.11,4.06,3.9,3.9,0,0,1-.68,1.36,5.58,5.58,0,0,1-2.66,2.26l-.19.1-.14-.15C129.86,68.61,129.76,68.41,129.67,68.13Z"/><path d="M132.53,66.63l.46-.15A5.43,5.43,0,0,0,134.72,69,4.79,4.79,0,0,0,136,66.25l.48.07a5.69,5.69,0,0,1-1.53,3.21l-.14.11-.13-.11A5.87,5.87,0,0,1,132.53,66.63Z"/><path d="M134.26,62.11c0-.28,0-.53.05-.79l.46.07a5.46,5.46,0,0,0,.81,3.62,12.11,12.11,0,0,0,.78,1.14,5,5,0,0,0,2.7,1.56,5.22,5.22,0,0,0,0-3l.46-.12a6,6,0,0,1-.05,3.51l-.06.18-.21,0A5.91,5.91,0,0,1,136,66.43a7.46,7.46,0,0,1-.86-1.21A6.22,6.22,0,0,1,134.26,62.11Z"/><path d="M135.42,61l.46-.14a5.82,5.82,0,0,0,2.21,2.92,6.57,6.57,0,0,0,1.24.66,4.92,4.92,0,0,0,3.07.31A5.53,5.53,0,0,0,140,61a.57.57,0,0,0-.16-.11l-.08-.06a5.57,5.57,0,0,0-2.83-.91l-.11,0h-.16v-.46h.3a6.3,6.3,0,0,1,3.1,1l.05.06c.11,0,.11,0,.16.09a6.05,6.05,0,0,1,2.65,4.28l0,.2-.19.05a5.62,5.62,0,0,1-3.58-.28,10.84,10.84,0,0,1-1.35-.73A6.14,6.14,0,0,1,135.42,61Z"/><path d="M133.13,61.39l.19-.44c.05.06.1.06.13.09s.08.05.11.05h.08a.82.82,0,0,0,.46.07.67.67,0,0,0,.35-.06h.08a1.92,1.92,0,0,0,1-.39,2.3,2.3,0,0,0,.91-1.13l.46.18a3.7,3.7,0,0,1-1.1,1.35,2.31,2.31,0,0,1-1.19.42,1,1,0,0,1-.51.11.92.92,0,0,1-.57-.11,1.06,1.06,0,0,1-.35-.08Z"/><path d="M131.43,57.21a1.83,1.83,0,0,1,.29-.6,2.34,2.34,0,0,1,1.11-.74,2.39,2.39,0,0,1,1.16-.28h.11a3.61,3.61,0,0,1,1.48.38h0a3.86,3.86,0,0,1,1,1,4.39,4.39,0,0,1,.43.9l0,.07a1.1,1.1,0,0,0,0,.26c0,.13,0,.25,0,.42a2.67,2.67,0,0,1-.19,1l-.46-.2a1.7,1.7,0,0,0,.19-.82,1.57,1.57,0,0,0,0-.37s0-.15,0-.23a4.49,4.49,0,0,0-.35-.82,3.93,3.93,0,0,0-.86-.82,3,3,0,0,0-1.24-.29H134a1.88,1.88,0,0,0-1,.21,2.45,2.45,0,0,0-1,.62,4.34,4.34,0,0,0-.21.43Z"/><path d="M131.94,57.52a2.38,2.38,0,0,1,2.05-1.3,2.41,2.41,0,0,1,2.43,2.38A2.38,2.38,0,0,1,134,61a2.16,2.16,0,0,1-.67-.08l.18-.43a1.4,1.4,0,0,0,.49.06,1.92,1.92,0,0,0,2-1.9,1.89,1.89,0,0,0-2-1.85,1.75,1.75,0,0,0-1.62,1Z"/><path d="M105.51,26.14a.52.52,0,0,1-.24,0"/><path d="M104,25a5.9,5.9,0,0,1,1.78-3.38,5.41,5.41,0,0,1,1.22-1,5.55,5.55,0,0,1,3.42-.86h.22V20c0,.15,0,.28,0,.4a6.16,6.16,0,0,1-1.89,4.28,1.28,1.28,0,0,1-.32.28l-.21-.42a1.2,1.2,0,0,0,.21-.2,5.79,5.79,0,0,0,1.73-3.94v-.14a5,5,0,0,0-3,.82,4.7,4.7,0,0,0-1.13.88A5.33,5.33,0,0,0,104.43,25Z"/><path d="M103.68,19.44a5.43,5.43,0,0,1,2.72-2.21l.16-.11.11.21a5.43,5.43,0,0,1,.65,3.52l-.46-.08a5.15,5.15,0,0,0-.49-3.06,5.57,5.57,0,0,0-2.34,2Z"/><path d="M100.14,19.75a5.94,5.94,0,0,1,1.54-3.14l.16-.15.17.09a6.32,6.32,0,0,1,2,2.94,6,6,0,0,1,.32,1.49,6.49,6.49,0,0,1-.84,3.8l-.37-.26a5.75,5.75,0,0,0,.75-3.49,4.73,4.73,0,0,0-.3-1.39,5.15,5.15,0,0,0-1.75-2.55,5.47,5.47,0,0,0-1.27,2.66l.11.12-.19.16-.13-.21-.22.16,0-.08Z"/><path d="M96.85,19.84a5,5,0,0,1,.33-1.79l0-.2.22,0a5.62,5.62,0,0,1,3.1,1.74l.11.18a5,5,0,0,1,.81,1.06,6,6,0,0,1,.81,3.87l-.46-.07a5.75,5.75,0,0,0-.73-3.54,7.3,7.3,0,0,0-.92-1.14l-.19-.2h0a4.63,4.63,0,0,0-2.43-1.39,5.35,5.35,0,0,0,0,3,5,5,0,0,0,.57,1.37,5.73,5.73,0,0,0,2.72,2.44l-.21.44A5.76,5.76,0,0,1,97.77,23a5.67,5.67,0,0,1-.65-1.47A6.49,6.49,0,0,1,96.85,19.84Z"/><path d="M93.7,21.06l.16-.06a6,6,0,0,1,3.59.29l-.16.45a5.14,5.14,0,0,0-3.11-.32,5.23,5.23,0,0,0,1.3,2.74,5.63,5.63,0,0,0,1.11,1,5.84,5.84,0,0,0,3.55,1.08v.46a6,6,0,0,1-3.8-1.17,7.72,7.72,0,0,1-1.21-1,5.56,5.56,0,0,1-1.43-3.21Z"/><path d="M91.78,25.48l.14-.14a5.92,5.92,0,0,1,3.4-1.22v.43a5.76,5.76,0,0,0-2.94,1,5.48,5.48,0,0,0,2.4,1.93,5.75,5.75,0,0,0,1.4.46,8.12,8.12,0,0,0,1,.08,2.48,2.48,0,0,0,.67,0,1.76,1.76,0,0,1,.27-.05h.16a.79.79,0,0,0,.22,0,3.26,3.26,0,0,0,.4-.11l.14,0a5.66,5.66,0,0,0,.81-.35l.24.4a8.16,8.16,0,0,1-.86.39.36.36,0,0,1-.14,0,2.88,2.88,0,0,1-.48.15.89.89,0,0,0-.24.05.58.58,0,0,1-.22,0,.36.36,0,0,0-.19,0,2.54,2.54,0,0,1-.78,0,3.2,3.2,0,0,1-1.08-.09A7.83,7.83,0,0,1,94.62,28a6.11,6.11,0,0,1-2.75-2.3Z"/><path d="M91.87,30.28,92,30.1a6.53,6.53,0,0,1,2.56-2.6l.14-.05.13.05a4.2,4.2,0,0,0,1.32.46,4.53,4.53,0,0,0,1,.05h0a2.12,2.12,0,0,0,.62,0,1.21,1.21,0,0,1,.46-.05,1.07,1.07,0,0,0,.57-.18L99,27.7l.08.06a4.27,4.27,0,0,0,.7-.31l.17.16.08.23-.08-.23,0,.23a2.91,2.91,0,0,1-.81.39.24.24,0,0,1-.16,0,1.7,1.7,0,0,1-.62.22l0,0-.11,0a.28.28,0,0,0-.22,0,2.11,2.11,0,0,1-.83,0,3.33,3.33,0,0,1-1.11-.09A3.75,3.75,0,0,1,94.7,28a6.33,6.33,0,0,0-2.19,2.14,6.37,6.37,0,0,0,1.81.61l-.08.47a7.92,7.92,0,0,1-2.13-.78Z"/><path d="M104.24,29.86l.19-.38a6,6,0,0,1,2.78,3,4.44,4.44,0,0,1,.49,1.47,5.79,5.79,0,0,1-.27,3.49l-.11.17-.16,0a1.8,1.8,0,0,1-.73-.28l.24-.41a1.31,1.31,0,0,0,.38.18,5.14,5.14,0,0,0,.21-3,6.32,6.32,0,0,0-.45-1.36A5.75,5.75,0,0,0,104.24,29.86Z"/><path d="M107.37,34.16l.22-.44a5.28,5.28,0,0,0,3,.62,4.94,4.94,0,0,0-1.08-2.87l.38-.29a5.58,5.58,0,0,1,1.18,3.31v.21l-.21,0A5.8,5.8,0,0,1,107.37,34.16Z"/><path d="M104.89,29.12l.35-.28a5.39,5.39,0,0,0,3.13,2,4.89,4.89,0,0,0,1.35.22,5,5,0,0,0,3-.76,5.26,5.26,0,0,0-2.13-2.13l.19-.42a5.77,5.77,0,0,1,2.45,2.52l.11.2-.16.11a5.61,5.61,0,0,1-3.48.94,6.25,6.25,0,0,1-1.48-.23A5.88,5.88,0,0,1,104.89,29.12Z"/><path d="M105.19,26.11c0-.05.13-.09.21-.17a6.26,6.26,0,0,1,2.89-1.47.48.48,0,0,1,.22-.06h.08a5.83,5.83,0,0,1,4.85,1.14l.16.16-.08.15a5.57,5.57,0,0,1-2.72,2.34,6.8,6.8,0,0,1-1.49.43,6.5,6.5,0,0,1-3.91-.51l.19-.44a5.86,5.86,0,0,0,3.64.5,6.4,6.4,0,0,0,1.38-.42,5.51,5.51,0,0,0,2.43-2,5.75,5.75,0,0,0-4.35-.94l-.1,0a1.05,1.05,0,0,0-.19.05,5.42,5.42,0,0,0-2.73,1.37.5.5,0,0,0-.16.17Z"/><path d="M103.92,29.6l.11,0c.11,0,.11,0,.13,0l.08,0a2,2,0,0,0,.33-.28l.08-.05a1,1,0,0,0,.16-.26l0-.08a2.18,2.18,0,0,0,.46-1,2.42,2.42,0,0,0-.19-1.42l.46-.2a3.11,3.11,0,0,1,.19,1.73,2.38,2.38,0,0,1-.54,1.14,1.31,1.31,0,0,1-.27.37l0,.05a1.17,1.17,0,0,1-.46.35,1,1,0,0,1-.27.14.75.75,0,0,1-.11,0Z"/><path d="M99.71,27.61a3.58,3.58,0,0,1,.25-1.3,2.21,2.21,0,0,1,.64-1l.06-.05a4.8,4.8,0,0,1,1.32-.8l.08,0a5.87,5.87,0,0,1,1.32,0l.22,0c.21.09.43.19.72.29l.09,0a.38.38,0,0,0,.18.15,3.75,3.75,0,0,1,.33.26,3.25,3.25,0,0,1,.56.87l-.43.2a1.94,1.94,0,0,0-.48-.71c-.11-.09-.19-.18-.25-.23a.74.74,0,0,1-.18-.17c-.27-.11-.52-.17-.73-.26l-.14,0a3.47,3.47,0,0,0-1.16,0,2.05,2.05,0,0,0-1.08.69l-.08,0a1.72,1.72,0,0,0-.54.87,2.26,2.26,0,0,0-.24,1.11,1.1,1.1,0,0,0,.16.46l-.4.23a1.52,1.52,0,0,1-.22-.64Z"/><path d="M100.41,27.45a2.19,2.19,0,0,1,.68-1.67,2.34,2.34,0,0,1,1.7-.72,2.22,2.22,0,0,1,1.64.67,2.2,2.2,0,0,1,.7,1.62v.06a2.53,2.53,0,0,1-1.26,2.1l-.19-.42a1.12,1.12,0,0,0,.35-.31,1.86,1.86,0,0,0-1.24-3.27,2,2,0,0,0-1.38.6A1.85,1.85,0,0,0,101,28l-.43.16A3.34,3.34,0,0,1,100.41,27.45Z"/><path d="M59.67,24.63l-.19.2"/><path d="M56.56,21.23a4.59,4.59,0,0,1,.25-1.54,5.06,5.06,0,0,1,1.78-3l.08-.12.19.12a6,6,0,0,1,2,4.57,1.41,1.41,0,0,1-.05.45l-.44-.11v-.34a5.57,5.57,0,0,0-1.72-4.11,5.66,5.66,0,0,0-1.46,2.68,4.8,4.8,0,0,0-.16,1.46,5.52,5.52,0,0,0,1.05,3.37l-.4.28A6.26,6.26,0,0,1,56.56,21.23Z"/><path d="M53.44,20a5.43,5.43,0,0,1,.48-2.29l.08-.21.22.08a5.44,5.44,0,0,1,2.94,2.08l-.35.26a4.9,4.9,0,0,0-2.54-1.82,5.7,5.7,0,0,0-.27,3l-.43.09A6.08,6.08,0,0,1,53.44,20Z"/><path d="M50.17,20.57v-.19l.19,0a5.86,5.86,0,0,1,3.56.6,6.4,6.4,0,0,1,1.27.85,6,6,0,0,1,2.08,3.29l-.46.11a5.68,5.68,0,0,0-1.92-3.07,11.28,11.28,0,0,0-1.18-.76,5.63,5.63,0,0,0-3.05-.6,5.65,5.65,0,0,0,1,2.81l.19,0-.08.26-.16-.05-.06.2h-.11l-.1-.08A5.88,5.88,0,0,1,50.17,20.57Z"/><path d="M47.91,24.63l.16-.14a6,6,0,0,1,3.45-.94l.16.05a5.66,5.66,0,0,1,1.41.18A6,6,0,0,1,56.38,26l-.41.26a5.7,5.7,0,0,0-3-2,6.69,6.69,0,0,0-1.37-.15H51.2l0,0a5.22,5.22,0,0,0-2.73.77,5.29,5.29,0,0,0,2.21,2.13,5.05,5.05,0,0,0,1.35.59,6.07,6.07,0,0,0,3.64-.17l.19.37a5.85,5.85,0,0,1-3.94.22,4.91,4.91,0,0,1-1.45-.59A5.58,5.58,0,0,1,48,24.78Z"/><path d="M47.67,29.4l.1-.17a6.16,6.16,0,0,1,2.73-2.35l.16.47a5.53,5.53,0,0,0-2.37,2,5.09,5.09,0,0,0,2.85,1,5,5,0,0,0,1.46-.08,5.86,5.86,0,0,0,3.29-1.74l.35.32a6.65,6.65,0,0,1-3.53,1.9,11.92,11.92,0,0,1-1.59.08,6.15,6.15,0,0,1-3.32-1.23Z"/><path d="M49.45,33.88l0-.22A5.93,5.93,0,0,1,51,30.4l.35.31A5.35,5.35,0,0,0,50,33.52,5.82,5.82,0,0,0,53,33.21a7.41,7.41,0,0,0,1.3-.69,6.62,6.62,0,0,0,.75-.65,2.25,2.25,0,0,0,.46-.54c.05-.08.13-.12.19-.2l.11-.08a.35.35,0,0,1,.1-.2c.06-.14.14-.23.19-.37h0v-.05l0,0a2.69,2.69,0,0,0,.32-.85l.46.12a3.45,3.45,0,0,1-.35.88.26.26,0,0,1-.06.14c-.08.11-.13.26-.24.39l-.13.23-.11.17a.62.62,0,0,0-.14.14,2.29,2.29,0,0,1-.53.57,4.4,4.4,0,0,1-.84.71,5.71,5.71,0,0,1-1.38.73,6.06,6.06,0,0,1-3.56.31Z"/><path d="M52.6,35.21a9.12,9.12,0,0,1,.24-1.87l.08-.13.11-.06a4.53,4.53,0,0,0,2-1.28l0-.05a2.14,2.14,0,0,0,.46-.49.52.52,0,0,1,.3-.28,3.39,3.39,0,0,0,.29-.57l0-.15h.05a1.76,1.76,0,0,0,.27-.73l0,0,.46.1v.11a8.6,8.6,0,0,1-.35.79.26.26,0,0,1-.11.15,1.66,1.66,0,0,1-.32.62l-.06.08c-.1.06-.16.1-.16.15-.19.23-.38.42-.56.62s-.52.46-.87.74a8.2,8.2,0,0,1-1.24.68,5.88,5.88,0,0,0,0,3,5.91,5.91,0,0,0,1.67-.82l.32.4a7.87,7.87,0,0,1-2.07,1l-.25.07L52.87,37A6.21,6.21,0,0,1,52.6,35.21Z"/><path d="M61.26,27.76a5.8,5.8,0,0,1,4,.13,4.77,4.77,0,0,1,1.38.69,5.85,5.85,0,0,1,2.24,2.67l.08.19-.16.09a2,2,0,0,1-.76.31L68,31.36a4,4,0,0,0,.46-.11,5.6,5.6,0,0,0-2-2.28,4.63,4.63,0,0,0-1.27-.65,5.39,5.39,0,0,0-3.75-.12Z"/><path d="M66.27,25.55l0-.46a5.55,5.55,0,0,1,3.21,1.51l.13.16-.1.15A6.42,6.42,0,0,1,66.62,29l-.16-.47A5.32,5.32,0,0,0,69,26.79,4.91,4.91,0,0,0,66.27,25.55Z"/><path d="M61.31,27.19l.06-.46A5.69,5.69,0,0,0,65,26a12.12,12.12,0,0,0,1.13-.82,5.12,5.12,0,0,0,1.59-2.67,5.08,5.08,0,0,0-3,0L64.55,22a5.65,5.65,0,0,1,3.48,0l.21.08,0,.2a5.43,5.43,0,0,1-1.75,3.12,7,7,0,0,1-1.25.89A5.77,5.77,0,0,1,61.31,27.19Z"/><path d="M59.4,24.86a1.9,1.9,0,0,1,0-.31,6.14,6.14,0,0,1,1-3.06.69.69,0,0,0,.17-.26,5.94,5.94,0,0,1,4.28-2.61l.19,0,.06.17a6.13,6.13,0,0,1-1,4.94,6.18,6.18,0,0,1-3.16,2.39l-.13-.44a5.81,5.81,0,0,0,2.91-2.23,6.83,6.83,0,0,0,.68-1.26,5.5,5.5,0,0,0,.29-3.06A5.4,5.4,0,0,0,61,21.51c-.08.09-.11.17-.16.23a5.79,5.79,0,0,0-.92,2.89.63.63,0,0,0,0,.23Z"/><path d="M59.53,25.09l.22-.43a3.07,3.07,0,0,1,1.32,1.05,2.23,2.23,0,0,1,.46,1.22,1.29,1.29,0,0,1,.08.52,1.46,1.46,0,0,1-.08.56.68.68,0,0,1-.11.31.1.1,0,0,0,0,.08L61,28.2s0-.08,0-.13.06-.08.06-.11v-.07a1.32,1.32,0,0,0,0-.44,1.83,1.83,0,0,0,0-.35l0-.11a2.06,2.06,0,0,0-.38-1A2.94,2.94,0,0,0,59.53,25.09Z"/><path d="M55.57,27.5v-.09A3,3,0,0,1,55.94,26a4.09,4.09,0,0,1,1-1l.18-.11c.25-.11.49-.2.76-.34h0l.25,0a2,2,0,0,1,.43-.06,2.35,2.35,0,0,1,1,.25l-.19.43a2.26,2.26,0,0,0-.83-.18c-.14,0-.25,0-.35,0s-.19,0-.25,0a6.21,6.21,0,0,0-.67.27l-.16.1a3.35,3.35,0,0,0-.84.88A2.9,2.9,0,0,0,56,27.41v.09a2.18,2.18,0,0,0,.24,1,2.29,2.29,0,0,0,.65.93,1.36,1.36,0,0,0,.4.2l-.16.44a5.92,5.92,0,0,1-.57-.28,3,3,0,0,1-.75-1.13A2.25,2.25,0,0,1,55.57,27.5Z"/><path d="M56.24,27.5a2.38,2.38,0,0,1,2.35-2.41,2.32,2.32,0,0,1,2.34,2.41v.18a1.69,1.69,0,0,1-.08.52L60.39,28a1.43,1.43,0,0,0,.06-.51h0a1.88,1.88,0,0,0-1.86-1.95,2,2,0,0,0-1.92,1.95,1.93,1.93,0,0,0,1,1.65l-.19.41A2.29,2.29,0,0,1,56.24,27.5Z"/><path d="M19.7,51.56c0-.11,0-.31,0-.45l0-.2H20a6,6,0,0,1,4.61,1.82.81.81,0,0,1,.3.34l-.41.23a.47.47,0,0,0-.19-.23,5.62,5.62,0,0,0-4.09-1.73v.22a5.41,5.41,0,0,0,.8,2.75,5.61,5.61,0,0,0,.92,1.14A5.68,5.68,0,0,0,25,57.1l0,.47a6,6,0,0,1-3.37-1.81,4.18,4.18,0,0,1-1-1.22A5.78,5.78,0,0,1,19.7,51.56Z"/><path d="M17.11,54.94l.19-.09a5.41,5.41,0,0,1,3.53-.65l0,.43a5.87,5.87,0,0,0-3.1.51,5.59,5.59,0,0,0,2,2.35l-.27.38a6,6,0,0,1-2.21-2.74Z"/><path d="M16.44,59.67l.1-.16a6.24,6.24,0,0,1,2.94-2A9.44,9.44,0,0,1,21,57.1a6.56,6.56,0,0,1,3.78.9l-.24.39A6.34,6.34,0,0,0,21,57.58a7.46,7.46,0,0,0-1.4.34,5.33,5.33,0,0,0-2.53,1.7,5.21,5.21,0,0,0,2.69,1.28l.3-.17v.4l-.24,0,.13.16-.08.07h-.11a5.73,5.73,0,0,1-3.15-1.57Z"/><path d="M17.81,64.3l.06-.2A5.62,5.62,0,0,1,19.65,61l.1-.08a6.5,6.5,0,0,1,1.14-.85,6,6,0,0,1,3.88-.79l-.11.44a5.25,5.25,0,0,0-3.53.74,5.8,5.8,0,0,0-1.13.88l-.41.4v0A5.15,5.15,0,0,0,18.38,64a5.38,5.38,0,0,0,3.05-.06,4,4,0,0,0,1.34-.56,5.63,5.63,0,0,0,2.49-2.73l.4.21A6.17,6.17,0,0,1,23,63.79a4.11,4.11,0,0,1-1.46.6,5.56,5.56,0,0,1-3.56,0Z"/><path d="M20.83,66.29a6.26,6.26,0,0,1,.43-2.22l.46.17a5.07,5.07,0,0,0-.32,3.09A5.87,5.87,0,0,0,24.18,66a11.18,11.18,0,0,0,.94-1.12,5.79,5.79,0,0,0,1.08-3.45v-.08h.48v.08a6.42,6.42,0,0,1-1.16,3.71,5.39,5.39,0,0,1-1.07,1.2,5.93,5.93,0,0,1-3.21,1.44l-.19,0L21,67.63A5.66,5.66,0,0,1,20.83,66.29Z"/><path d="M24.07,66.2h.46a5.79,5.79,0,0,0,1,2.93,5.26,5.26,0,0,0,1.92-2.39,5.5,5.5,0,0,0,.45-1.42,8.91,8.91,0,0,0,.14-1.18c0-.15,0-.31,0-.46a1.15,1.15,0,0,1-.06-.41l0-.1a2.59,2.59,0,0,0-.16-.57l0-.11a3,3,0,0,0-.35-.82l.37-.26a3.37,3.37,0,0,1,.41.88.37.37,0,0,1,.08.2c0,.16.08.37.13.57l0,.11a1.84,1.84,0,0,0,0,.4,4.26,4.26,0,0,1,0,.8,6.08,6.08,0,0,1-.08,1.06,5.15,5.15,0,0,1-.46,1.48,5.74,5.74,0,0,1-2.29,2.73l-.16.11-.13-.17A6,6,0,0,1,24.07,66.2Z"/><path d="M27.39,61.72l.37-.25a2.67,2.67,0,0,1,.43.85c0,.08.06.1.06.17a3.38,3.38,0,0,1,.16.6l0,.16,0,0v.24a2.42,2.42,0,0,1,0,.84c0,.33,0,.7,0,1.09A5.16,5.16,0,0,1,28,66.82,6.38,6.38,0,0,0,30.08,69a6.21,6.21,0,0,0,.62-1.76l.46.06a8.36,8.36,0,0,1-.75,2.16l-.14.2-.19-.11a6.51,6.51,0,0,1-2.56-2.59l-.08-.11.08-.12A5.77,5.77,0,0,0,28,65.38a6.17,6.17,0,0,0,.06-1v-.7a.69.69,0,0,1-.06-.43v0a1.21,1.21,0,0,0-.19-.52l-.05-.13,0-.07A1.84,1.84,0,0,0,27.39,61.72Z"/><path d="M29.46,57.1a5.64,5.64,0,0,1,3-2.78,4.14,4.14,0,0,1,1.43-.51,6,6,0,0,1,3.56.31l.13.08,0,.17a1.69,1.69,0,0,1-.3.73l-.38-.25a1.76,1.76,0,0,0,.17-.37,5.14,5.14,0,0,0-3-.2,3.66,3.66,0,0,0-1.35.46,5.32,5.32,0,0,0-2.75,2.55Z"/><path d="M31.16,51.6a5.8,5.8,0,0,1,3.34-1.18h.19l.06.21a6.57,6.57,0,0,1-.6,3.52l-.43-.21a5.45,5.45,0,0,0,.57-3A5.07,5.07,0,0,0,31.43,52Z"/><path d="M27.74,50.71a5.54,5.54,0,0,1,2.56-2.44l.16-.11.11.17a5.53,5.53,0,0,1,1,3.23c0,.06,0,.14,0,.25a5.7,5.7,0,0,1-.21,1.49,6.1,6.1,0,0,1-2.22,3.34l-.27-.39a5.26,5.26,0,0,0,2-3.08,5.68,5.68,0,0,0,.21-1.38v-.26a5,5,0,0,0-.75-2.75,4.74,4.74,0,0,0-2.13,2.16Z"/><path d="M24.28,51.7a5.93,5.93,0,0,1,1.24-3.64l.14-.16.19.11a5.67,5.67,0,0,1,2.32,2.72,5.38,5.38,0,0,1,.43,1.43,6.06,6.06,0,0,1-.54,4l-.38-.2a6.44,6.44,0,0,0,.49-3.66,5.7,5.7,0,0,0-.43-1.36,5.28,5.28,0,0,0-1.95-2.39,5.27,5.27,0,0,0-.91,4.32V53a.49.49,0,0,0,.05.19,5.56,5.56,0,0,0,1.35,2.67.5.5,0,0,0,.16.15l-.32.36c-.08-.08-.14-.12-.16-.23a5.65,5.65,0,0,1-1.51-2.86V53L24.39,53A10.55,10.55,0,0,1,24.28,51.7Z"/><path d="M26.2,55.93a3.63,3.63,0,0,1,1.72-.19,2.46,2.46,0,0,1,1.16.54,1.69,1.69,0,0,1,.41.31c.13.16.3.25.38.45a1.87,1.87,0,0,1,.1.26s.06.08.06.11l-.43.17s0-.06-.06-.12,0-.08,0-.11l-.06-.06a1,1,0,0,0-.29-.34,1.17,1.17,0,0,0-.27-.23l-.11-.08a1.86,1.86,0,0,0-1-.43,2.62,2.62,0,0,0-1.43.17Z"/><path d="M24.39,58.74a2.25,2.25,0,0,1,.06-.62,5.49,5.49,0,0,1,.32-.94l.05-.08L25,57c.05-.11.13-.2.21-.34a3.37,3.37,0,0,1,.92-.59l.16.42a2.3,2.3,0,0,0-.73.51c-.05.09-.13.15-.21.26a1.15,1.15,0,0,0-.14.2c-.11.25-.21.54-.32.82a6.42,6.42,0,0,0,0,1.24,3.06,3.06,0,0,0,.65,1.08l.06,0a1.94,1.94,0,0,0,.91.54l.06,0a2.39,2.39,0,0,0,1,.21l.46-.16.19.42a4,4,0,0,1-.59.2,3,3,0,0,1-1.3-.25,2.33,2.33,0,0,1-1.08-.68l0,0a3.33,3.33,0,0,1-.81-1.3A3.87,3.87,0,0,1,24.39,58.74Z"/><path d="M25,58.69A2.45,2.45,0,0,1,25.71,57a2.35,2.35,0,0,1,1.62-.66,2.47,2.47,0,0,1,1.75.72l.06,0c.13.14.24.31.38.49l-.44.21a1,1,0,0,0-.29-.36l0-.05a1.94,1.94,0,0,0-1.43-.6,1.77,1.77,0,0,0-1.29.57,2,2,0,0,0,.05,2.7,1.81,1.81,0,0,0,1.86.44l.16.46a2.34,2.34,0,0,1-2.37-.57A2.44,2.44,0,0,1,25,58.69Z"/><path d="M24.58,101.87a1.25,1.25,0,0,0,.24.18"/><path d="M16.49,102.78l.16-.13a6.16,6.16,0,0,1,4.56-2,1.3,1.3,0,0,1,.46.05l-.14.46a.67.67,0,0,0-.27,0,5.92,5.92,0,0,0-4.15,1.67,5.22,5.22,0,0,0,2.7,1.54,6.08,6.08,0,0,0,1.4.16,5.8,5.8,0,0,0,3.37-1l.3.35a6,6,0,0,1-3.67,1.13,6,6,0,0,1-1.54-.19,5.29,5.29,0,0,1-3-1.81Z"/><path d="M17.49,107.5l.05-.19a5.66,5.66,0,0,1,2.05-3l.3.38A5.63,5.63,0,0,0,18,107.23a5.25,5.25,0,0,0,3,.27l.11.43a5.42,5.42,0,0,1-3.5-.35Z"/><path d="M20.29,110.31a6.13,6.13,0,0,1,.65-2.7,8.4,8.4,0,0,1,.81-1.3,6.35,6.35,0,0,1,3.29-2l.13.43a5.84,5.84,0,0,0-3,1.94,5,5,0,0,0-.76,1.19,5.57,5.57,0,0,0-.62,3,5.27,5.27,0,0,0,2.81-1l.08-.45.32.4-.13.16.18,0-.05.08-.05.11a5.87,5.87,0,0,1-3.32,1.13h-.22l0-.16A4.4,4.4,0,0,1,20.29,110.31Z"/><path d="M23.53,110.25V110l0-.24a4.84,4.84,0,0,1,.19-1.35A6,6,0,0,1,26,105.13l.21.38a5.73,5.73,0,0,0-1.94,3.07A4.13,4.13,0,0,0,24,110v.67h0a4.88,4.88,0,0,0,.76,2.32,5.29,5.29,0,0,0,2.13-2.21,4.45,4.45,0,0,0,.57-1.32,5.72,5.72,0,0,0-.17-3.64l.41-.19a6.42,6.42,0,0,1,.21,3.91,5.48,5.48,0,0,1-.62,1.51,5.88,5.88,0,0,1-2.53,2.48l-.19.08-.11-.19A5.82,5.82,0,0,1,23.53,110.25Z"/><path d="M26.87,111l.43-.16a5.84,5.84,0,0,0,2,2.4,5.34,5.34,0,0,0,1-2.92,4.82,4.82,0,0,0-.08-1.42,5.91,5.91,0,0,0-1.76-3.27l.35-.35a6.1,6.1,0,0,1,1.87,3.53,5.72,5.72,0,0,1,.1,1.57,5.81,5.81,0,0,1-1.26,3.29l-.14.16-.16-.11A5.67,5.67,0,0,1,26.87,111Z"/><path d="M29.52,105l.1-.43a3.5,3.5,0,0,1,.89.33.3.3,0,0,1,.17.08c.16.08.29.13.43.21a1.12,1.12,0,0,0,.19.17l.1.05c.06,0,.11.11.19.19a2.23,2.23,0,0,1,.6.54,7.54,7.54,0,0,1,.67.83,5.05,5.05,0,0,1,.75,1.38,5.62,5.62,0,0,1,.27,3.53l-.05.19h-.16a6,6,0,0,1-3.26-1.51l.29-.35a5.73,5.73,0,0,0,2.78,1.37,5.16,5.16,0,0,0-.32-3.1,6.39,6.39,0,0,0-.68-1.27,8.32,8.32,0,0,0-.64-.78,2.77,2.77,0,0,0-.54-.46c-.09,0-.14-.13-.25-.24s-.13,0-.21-.11a1.62,1.62,0,0,0-.38-.21l-.05-.05h-.06A2.16,2.16,0,0,0,29.52,105Z"/><path d="M29.57,105l.08-.43a4,4,0,0,1,.89.33.47.47,0,0,1,.16.1,1.17,1.17,0,0,1,.46.24l.24.12v.05a.38.38,0,0,0,.14.16,1.75,1.75,0,0,1,.62.62,3.31,3.31,0,0,1,.75.78,9.62,9.62,0,0,1,.68,1.27,6.19,6.19,0,0,0,3,0,8.3,8.3,0,0,0-.78-1.69l.38-.28a7.66,7.66,0,0,1,.91,2l.08.24-.24,0a5.85,5.85,0,0,1-3.61,0l-.16,0v-.11a6.83,6.83,0,0,0-.62-1.24,7.62,7.62,0,0,0-.7-.75,2.49,2.49,0,0,0-.49-.52.46.46,0,0,1-.32-.29l-.08,0a1.85,1.85,0,0,0-.46-.24h-.17v-.11A3.9,3.9,0,0,0,29.57,105Z"/><path d="M27.44,98.47a7.33,7.33,0,0,1,1.11-3.64,6,6,0,0,1,2.69-2.27l.19,0,.08.16a2.36,2.36,0,0,1,.3.75l-.46.11a1.86,1.86,0,0,0-.11-.43,5.45,5.45,0,0,0-2.29,2,4.86,4.86,0,0,0-.65,1.29,5.37,5.37,0,0,0-.13,3.72l-.43.17A5,5,0,0,1,27.44,98.47Z"/><path d="M25,95.23a5.43,5.43,0,0,1,1.56-3.18l.11-.16.16.13A5.85,5.85,0,0,1,29,94.88l-.46.16a5.53,5.53,0,0,0-1.75-2.53,5.21,5.21,0,0,0-1.25,2.78Z"/><path d="M21.75,95.29a5.18,5.18,0,0,1,.32-1.81l.06-.22.19.06A5.63,5.63,0,0,1,25.5,95.1a10.74,10.74,0,0,1,.86,1.21,5.89,5.89,0,0,1,.78,3.91l-.46,0A5.48,5.48,0,0,0,26,96.55a6.26,6.26,0,0,0-.84-1.13,5.07,5.07,0,0,0-2.67-1.62,5.65,5.65,0,0,0,0,3.08L22,97A6.21,6.21,0,0,1,21.75,95.29Z"/><path d="M18.59,96.5l.17,0a5.19,5.19,0,0,1,3.56.27,5.51,5.51,0,0,1,1.37.72,6.26,6.26,0,0,1,2.37,3.13l-.43.14a6,6,0,0,0-2.24-2.92,4.89,4.89,0,0,0-1.24-.64,5.13,5.13,0,0,0-3.07-.33,5.37,5.37,0,0,0,2.4,3.72c.11.06.16.14.24.17a5.38,5.38,0,0,0,2.86.91l.08,0h.16l.06.24v.27a.7.7,0,0,1-.33,0,6,6,0,0,1-3.07-1,1.13,1.13,0,0,1-.27-.19,5.85,5.85,0,0,1-2.62-4.26Z"/><path d="M24.61,101.78a3.63,3.63,0,0,1,1.1-1.34A2.26,2.26,0,0,1,26.9,100a1.32,1.32,0,0,1,.51-.08,1.63,1.63,0,0,1,.6.08c.13,0,.21.08.27.08a.13.13,0,0,0,.1,0l-.19.43s-.08,0-.13-.05,0,0-.11,0h-.08a1.07,1.07,0,0,0-.46-.06c-.11,0-.27,0-.32.06H27a2.35,2.35,0,0,0-1,.37A2.77,2.77,0,0,0,25,102Z"/><path d="M24.45,102.89a2.73,2.73,0,0,1,.16-1l.43.22a2.09,2.09,0,0,0-.16.78,3.62,3.62,0,0,0,.05.4c0,.09,0,.19,0,.27a6.59,6.59,0,0,0,.35.81,3.33,3.33,0,0,0,.86.81,3.18,3.18,0,0,0,1.24.3h.06a1.84,1.84,0,0,0,1-.25,2.38,2.38,0,0,0,1-.59,1.4,1.4,0,0,0,.21-.48l.43.19a1.6,1.6,0,0,1-.27.56,3.53,3.53,0,0,1-1.1.76,2,2,0,0,1-1.24.27h-.06a3.07,3.07,0,0,1-1.45-.35,3.65,3.65,0,0,1-1-1,4.35,4.35,0,0,1-.43-.92l0,0c0-.11,0-.16,0-.24Z"/><path d="M25.09,102.94a2.38,2.38,0,0,1,2.38-2.37,2.13,2.13,0,0,1,.7.08l-.16.43a4.52,4.52,0,0,0-.54,0,1.94,1.94,0,0,0-1.95,1.88,2,2,0,0,0,.57,1.33,2.09,2.09,0,0,0,1.38.59,1.82,1.82,0,0,0,1.64-1l.43.21a2.25,2.25,0,0,1-2.07,1.27,2.48,2.48,0,0,1-1.73-.7A2.42,2.42,0,0,1,25.09,102.94Z"/><path d="M56,135.41a.52.52,0,0,1,.27,0"/><path d="M50.87,141.16a6.15,6.15,0,0,1,1.84-4.26l0-.06c.08-.05.16-.16.3-.19l.24.38a.72.72,0,0,0-.21.19h0a5.69,5.69,0,0,0-1.7,3.94v.16a5.07,5.07,0,0,0,2.94-.81,7.17,7.17,0,0,0,1.13-.86,5.49,5.49,0,0,0,1.62-3.16l.49.06a6.28,6.28,0,0,1-1.76,3.37,7.78,7.78,0,0,1-1.26,1,5.69,5.69,0,0,1-3.46.9l-.19-.06v-.59Z"/><path d="M54.14,141.51c0-.3,0-.54,0-.84l.49.06a4.86,4.86,0,0,0,.49,3.07,5,5,0,0,0,2.31-2l.41.3a5.66,5.66,0,0,1-2.72,2.21l-.22,0-.08-.16A5.13,5.13,0,0,1,54.14,141.51Z"/><path d="M57.08,140a6.1,6.1,0,0,1,.91-3.23l.35.24a6,6,0,0,0-.75,3.53,4.32,4.32,0,0,0,.32,1.38,5,5,0,0,0,1.73,2.56,5,5,0,0,0,1.24-2.64l-.14-.3.38,0v.24l.19-.11.06,0v.11a5.53,5.53,0,0,1-1.57,3.18l-.13.16-.17-.1a6.17,6.17,0,0,1-2-2.92,7.14,7.14,0,0,1-.35-1.51A5.72,5.72,0,0,1,57.08,140Z"/><path d="M59.18,137.54c0-.21,0-.51,0-.75l.44.05a5.5,5.5,0,0,0,.75,3.56,8,8,0,0,0,.89,1.14l.38.4h0A5,5,0,0,0,64,143.15a6,6,0,0,0,0-3.07,6.92,6.92,0,0,0-.57-1.32,5.4,5.4,0,0,0-2.7-2.46l.17-.46a6.46,6.46,0,0,1,2.91,2.67,4.15,4.15,0,0,1,.59,1.46,5.16,5.16,0,0,1,0,3.51l-.08.21-.16-.05A6,6,0,0,1,61,141.89l-.08-.08a11.15,11.15,0,0,1-.84-1.19A5.69,5.69,0,0,1,59.18,137.54Z"/><path d="M61.39,134.82a6.28,6.28,0,0,1,3.8,1.21,5.25,5.25,0,0,1,1.16,1,5.31,5.31,0,0,1,1.43,3.21l.06.19-.22,0a5.53,5.53,0,0,1-3.56-.27l.16-.4a5.58,5.58,0,0,0,3.11.24,5.18,5.18,0,0,0-1.33-2.7,4.13,4.13,0,0,0-1.1-1,5.62,5.62,0,0,0-3.51-1.1Z"/><path d="M61.39,133.71a4.87,4.87,0,0,1,.86-.35.51.51,0,0,1,.22-.05,1.65,1.65,0,0,1,.57-.16l.1,0h.44l.13-.05a2.36,2.36,0,0,1,.62-.06c.41.06.76.11,1.08.14a5.48,5.48,0,0,1,1.48.46,5.85,5.85,0,0,1,2.73,2.26l.11.19-.17.13a6.37,6.37,0,0,1-3.34,1.3l0-.51a5.49,5.49,0,0,0,2.91-1A5.25,5.25,0,0,0,66.7,134a4.39,4.39,0,0,0-1.37-.43,5.42,5.42,0,0,0-1-.11,1.45,1.45,0,0,0-.51,0l-.21.05h-.33l-.16.06c-.16,0-.35,0-.48.1l-.14.06a5.9,5.9,0,0,0-.81.38Z"/><path d="M61.45,133.71a2.29,2.29,0,0,1,.86-.4h.19a1.21,1.21,0,0,1,.48-.19h.14l.08-.05,0,.05h.22a1.5,1.5,0,0,1,.86,0,4.21,4.21,0,0,1,1.13,0,4.46,4.46,0,0,1,1.35.43,6.05,6.05,0,0,0,2.16-2.1,7.58,7.58,0,0,0-1.78-.65l.08-.43a6.76,6.76,0,0,1,2.13.78l.19.08-.08.22A6.73,6.73,0,0,1,66.89,134l0,.05-.16-.05a4.91,4.91,0,0,0-1.35-.49,3.34,3.34,0,0,0-1,0,1.56,1.56,0,0,0-.73-.05.9.9,0,0,1-.4.05h-.14l-.45.16-.11.08,0,0h0a1.9,1.9,0,0,0-.78.38Z"/><path d="M53.68,126.32a5.51,5.51,0,0,1,.43-2.21l0-.16.19.06a2.25,2.25,0,0,1,.76.32l-.24.38c-.17-.08-.3-.16-.41-.22a4.94,4.94,0,0,0-.19,3.07,5.07,5.07,0,0,0,.43,1.33,5.62,5.62,0,0,0,2.57,2.78l-.22.4a6.12,6.12,0,0,1-2.75-3,3.85,3.85,0,0,1-.49-1.41A8.1,8.1,0,0,1,53.68,126.32Z"/><path d="M50.44,127v-.19l.16,0a5.78,5.78,0,0,1,3.54.59l-.22.38a5.61,5.61,0,0,0-3.05-.54A5.28,5.28,0,0,0,52,130.07l-.35.3A5.64,5.64,0,0,1,50.44,127Z"/><path d="M48.18,131l.13-.08a5.32,5.32,0,0,1,3.48-1,6.44,6.44,0,0,1,1.46.22,6,6,0,0,1,3.37,2.21l-.35.27a6.05,6.05,0,0,0-3.13-2,7.33,7.33,0,0,0-1.4-.22,5.59,5.59,0,0,0-3,.76,5.17,5.17,0,0,0,2.19,2.15l-.27.41a5.68,5.68,0,0,1-2.43-2.54Z"/><path d="M47.91,135.82l.11-.16a5.43,5.43,0,0,1,2.69-2.3,6.07,6.07,0,0,1,1.46-.45,6.51,6.51,0,0,1,3.91.48l-.19.46a5.73,5.73,0,0,0-3.64-.46,3.78,3.78,0,0,0-1.38.38,5.62,5.62,0,0,0-2.37,1.94,5.24,5.24,0,0,0,4.34.94.7.7,0,0,0,.3-.05,5.36,5.36,0,0,0,2.64-1.37c.11-.06.16-.11.19-.11l.19.16.16.13c-.08.11-.16.17-.24.17a6.12,6.12,0,0,1-2.86,1.48.9.9,0,0,1-.3.05A5.61,5.61,0,0,1,48.07,136Z"/><path d="M55.67,134.09a2,2,0,0,1,.09-.54,2.54,2.54,0,0,1,.51-1.13c.11-.14.21-.3.29-.38a2.11,2.11,0,0,1,.49-.37c.05-.09.16-.11.24-.14a.2.2,0,0,1,.11,0l.19.43c-.05,0-.11.06-.14.06s-.08,0-.1,0l-.08,0a.69.69,0,0,0-.35.24c-.06.11-.19.22-.25.32l-.05.09a2.61,2.61,0,0,0-.43.94,2.46,2.46,0,0,0,.19,1.51l-.46.14A4.14,4.14,0,0,1,55.67,134.09Z"/><path d="M56,135.41l.43-.18a1.52,1.52,0,0,0,.46.72,1.61,1.61,0,0,0,.29.24,1.62,1.62,0,0,0,.19.17c.27.08.51.19.84.29a4.09,4.09,0,0,0,1.21,0,3.71,3.71,0,0,0,1-.7l.06-.08a1.94,1.94,0,0,0,.54-.84l0-.08a2.07,2.07,0,0,0,.25-1,3.56,3.56,0,0,0-.19-.49l.43-.18a3.06,3.06,0,0,1,.19.62v.05a2.11,2.11,0,0,1-.27,1.24,2.21,2.21,0,0,1-.65,1.08l-.05.05a3,3,0,0,1-1.3.79,3.81,3.81,0,0,1-1.43,0c-.35-.11-.65-.25-.94-.35l-.06-.06a1.22,1.22,0,0,0-.18-.13c-.11-.06-.19-.14-.36-.25A6.15,6.15,0,0,1,56,135.41Z"/><path d="M56.38,134.2a2.53,2.53,0,0,1,.72-1.78,1.79,1.79,0,0,1,.52-.38l.19.38c-.14.05-.22.21-.36.32a1.91,1.91,0,0,0-.05,2.73,1.72,1.72,0,0,0,1.27.56,2,2,0,0,0,1.45-.62,1.93,1.93,0,0,0,.44-1.86l.43-.16a2.38,2.38,0,0,1-.57,2.37,2.33,2.33,0,0,1-4-1.56Z"/><path d="M101.84,136.9c.11-.06.11-.11.22-.22"/><path d="M100.6,140.27a.73.73,0,0,1,.06-.38l.46.08c0,.05,0,.22,0,.33a5.57,5.57,0,0,0,1.7,4.09,5.17,5.17,0,0,0,1.48-2.64,6.9,6.9,0,0,0,.19-1.48,5.7,5.7,0,0,0-1-3.37l.38-.25a6.07,6.07,0,0,1,1.13,3.62,5.1,5.1,0,0,1-.19,1.56,5.5,5.5,0,0,1-1.81,3l-.13.16-.16-.16A6.21,6.21,0,0,1,100.6,140.27Z"/><path d="M104.32,141.94l.38-.3a5.34,5.34,0,0,0,2.51,1.84,5.32,5.32,0,0,0,.27-3.08l.46-.1a6.24,6.24,0,0,1-.35,3.55l-.08.19-.19,0A6.17,6.17,0,0,1,104.32,141.94Z"/><path d="M104.22,136.44l.46-.08a5.55,5.55,0,0,0,1.91,3c.38.29.78.54,1.21.81a5.55,5.55,0,0,0,3,.56,5.31,5.31,0,0,0-1-2.77l-.37-.11.29-.3.19.16.06-.21h.08l.08.1a5.85,5.85,0,0,1,1.16,3.35v.13l-.19.06a5.53,5.53,0,0,1-3.53-.6,9.31,9.31,0,0,1-1.3-.78A6.53,6.53,0,0,1,104.22,136.44Z"/><path d="M105.13,135.58l.38-.27a5.75,5.75,0,0,0,3,2,6.4,6.4,0,0,0,1.43.16h.57v0a5,5,0,0,0,2.51-.78,5.83,5.83,0,0,0-2.24-2.11,3.94,3.94,0,0,0-1.35-.54,5.49,5.49,0,0,0-3.67.14l-.19-.41a6.27,6.27,0,0,1,4-.21,6,6,0,0,1,1.48.62,5.53,5.53,0,0,1,2.48,2.51l.08.16-.16.13A5.83,5.83,0,0,1,110,138l-.19-.06a4.18,4.18,0,0,1-1.32-.19A5.47,5.47,0,0,1,105.13,135.58Z"/><path d="M105.27,132.69a6.38,6.38,0,0,1,3.5-1.83,4.86,4.86,0,0,1,1.6-.11,5.27,5.27,0,0,1,3.29,1.29l.16.08-.08.16a5.66,5.66,0,0,1-2.75,2.35l-.19-.43a5.23,5.23,0,0,0,2.42-2,5.13,5.13,0,0,0-2.88-1,5.75,5.75,0,0,0-1.46.08,6.15,6.15,0,0,0-3.29,1.72Z"/><path d="M104.51,131.88c.08-.24.22-.54.38-.89a.13.13,0,0,1,.08-.13,1.4,1.4,0,0,1,.27-.49l.16-.3a.52.52,0,0,0,.17-.16l.08-.08a3.52,3.52,0,0,1,.45-.48,3.67,3.67,0,0,1,.81-.65,4.8,4.8,0,0,1,1.41-.78,5.89,5.89,0,0,1,3.53-.3l.19,0,0,.19a5.72,5.72,0,0,1-1.48,3.29l-.35-.29a5.69,5.69,0,0,0,1.35-2.86,5.24,5.24,0,0,0-3,.37,4.15,4.15,0,0,0-1.27.68,5.45,5.45,0,0,0-.78.62c-.16.16-.27.3-.41.43l-.08.11a.89.89,0,0,0-.16.22l-.11,0-.08.16c-.08.16-.16.27-.21.4l-.06.14a3.46,3.46,0,0,0-.35.86Z"/><path d="M104.51,131.88a3.53,3.53,0,0,1,.38-.89.27.27,0,0,1,.08-.19,1.75,1.75,0,0,1,.22-.43c0-.05,0-.11.11-.16l0-.06.08,0c.08-.06.08-.11.14-.19a2.89,2.89,0,0,1,.62-.59,3.43,3.43,0,0,1,.75-.71,5.36,5.36,0,0,1,1.33-.67,6.17,6.17,0,0,0,0-3,6.57,6.57,0,0,0-1.68.84l-.24-.4a6.27,6.27,0,0,1,2-.92l.19-.11.11.24a6.71,6.71,0,0,1,0,3.64l0,.11-.11.05a5,5,0,0,0-1.27.63,5.47,5.47,0,0,0-.73.67,2.49,2.49,0,0,0-.54.54.46.46,0,0,1-.29.27c0,.05-.06.11-.06.16a.82.82,0,0,0-.19.4l0,.14-.08,0a2.07,2.07,0,0,0-.3.78Z"/><path d="M92.51,130.1l.14-.11a1.87,1.87,0,0,1,.75-.27l.08.43c-.13.06-.29.06-.4.11a5.13,5.13,0,0,0,2,2.32,4.16,4.16,0,0,0,1.24.62,5.59,5.59,0,0,0,3.8.14l.14.43a5.71,5.71,0,0,1-4.07-.11,6.14,6.14,0,0,1-1.38-.7,5.46,5.46,0,0,1-2.24-2.7Z"/><path d="M91.87,134.79l.13-.16a6,6,0,0,1,2.89-2.1l.18.48a5.57,5.57,0,0,0-2.58,1.73A5.08,5.08,0,0,0,95.26,136l-.05.46A5.4,5.4,0,0,1,92,134.93Z"/><path d="M93.27,139.38l0-.19a5.4,5.4,0,0,1,1.77-3.13,6.59,6.59,0,0,1,1.19-.89,6.23,6.23,0,0,1,3.94-.83l-.06.45a5.88,5.88,0,0,0-3.64.79,5.67,5.67,0,0,0-1.1.83,5,5,0,0,0-1.59,2.65,4.87,4.87,0,0,0,3,0l.13.43a5.19,5.19,0,0,1-3.5-.06Z"/><path d="M96.23,141.37a6.16,6.16,0,0,1,.46-2.21,8,8,0,0,1,.73-1.35,6.74,6.74,0,0,1,3.13-2.4l.16.46a6,6,0,0,0-2.91,2.24,5.39,5.39,0,0,0-.68,1.27,4.82,4.82,0,0,0-.29,3,5.44,5.44,0,0,0,3.72-2.4c0-.1.11-.13.16-.21a6.28,6.28,0,0,0,.92-2.91v-.25h.48V137a6.44,6.44,0,0,1-1,3,.58.58,0,0,1-.16.28,6,6,0,0,1-4.29,2.64h-.16l-.06-.16A5.26,5.26,0,0,1,96.23,141.37Z"/><path d="M99.9,134.09a4.71,4.71,0,0,1,.06-.59,1.18,1.18,0,0,1,.1-.3l.06,0,.43.16,0,.08a.44.44,0,0,0,0,.16h0l0,.11a1.05,1.05,0,0,0,0,.43,1.73,1.73,0,0,0,0,.35l.06.08a2,2,0,0,0,.35,1.06,3,3,0,0,0,1.13.86l-.21.46a3.1,3.1,0,0,1-1.3-1.08,2.44,2.44,0,0,1-.48-1.19A1.82,1.82,0,0,1,99.9,134.09Z"/><path d="M101.9,136.9l.21-.46a1.53,1.53,0,0,0,.81.21.76.76,0,0,0,.35-.05c.08,0,.16,0,.25,0a2.78,2.78,0,0,0,.62-.25l.18-.11a3.3,3.3,0,0,0,.87-.88,2.85,2.85,0,0,0,.27-1.22V134a2,2,0,0,0-.22-1,2.14,2.14,0,0,0-.65-.94,2.69,2.69,0,0,0-.43-.19l.16-.43a1.22,1.22,0,0,1,.57.3,2.81,2.81,0,0,1,.76,1.1,2,2,0,0,1,.29,1.14v.1a3.4,3.4,0,0,1-.35,1.49,4.26,4.26,0,0,1-1,1l-.22.14a2.32,2.32,0,0,1-.64.26l-.08,0c-.11,0-.19,0-.25,0a1.88,1.88,0,0,1-.43.05A2.54,2.54,0,0,1,101.9,136.9Z"/><path d="M100.55,134a3.26,3.26,0,0,1,0-.68l.49.14a1.57,1.57,0,0,0-.06.54,1.89,1.89,0,0,0,1.89,1.94,1.92,1.92,0,0,0,1.89-1.94,1.88,1.88,0,0,0-1-1.67L104,132a2.19,2.19,0,0,1,1.27,2,2.36,2.36,0,0,1-2.35,2.4A2.4,2.4,0,0,1,100.55,134Z"/><path d="M135.36,105.56a1.52,1.52,0,0,1,0-.33"/><path d="M136.44,104.43l.11-.43a5.81,5.81,0,0,1,3.37,1.78,4.52,4.52,0,0,1,1,1.24,5.66,5.66,0,0,1,.92,3c0,.16,0,.33,0,.46l0,.19h-.19a6,6,0,0,1-4.64-1.83.29.29,0,0,1-.11-.11c0-.06-.16-.11-.21-.22l.4-.24.11.16c.08,0,.08,0,.11.08a5.6,5.6,0,0,0,4.07,1.73V110a5.12,5.12,0,0,0-.81-2.75,6.23,6.23,0,0,0-.86-1.16A6.33,6.33,0,0,0,136.44,104.43Z"/><path d="M140.68,107.34l0-.43a5.22,5.22,0,0,0,3.08-.54,5.54,5.54,0,0,0-2-2.32l.24-.38a5.83,5.83,0,0,1,2.24,2.7l.08.22-.19.1A5.54,5.54,0,0,1,140.68,107.34Z"/><path d="M136.71,103.56l.25-.43a5.52,5.52,0,0,0,3.53.81,10.06,10.06,0,0,0,1.37-.27,5.56,5.56,0,0,0,2.59-1.78,5.23,5.23,0,0,0-2.69-1.26l-.3.16,0-.41h.25l-.11-.16.05,0h.14a6.15,6.15,0,0,1,3.15,1.53l.16.17-.1.13a5.56,5.56,0,0,1-2.94,2,5.11,5.11,0,0,1-1.49.38A6.43,6.43,0,0,1,136.71,103.56Z"/><path d="M135.88,100.68a6,6,0,0,1,2.64-2.94,4.49,4.49,0,0,1,1.46-.59,5.51,5.51,0,0,1,3.5,0l.19,0,0,.19a5.63,5.63,0,0,1-1.78,3.1l-.08.09a9.78,9.78,0,0,1-1.16.89,6.22,6.22,0,0,1-3.85.78l.08-.46a5.32,5.32,0,0,0,3.53-.76,5.21,5.21,0,0,0,1.13-.86l.41-.38h0a5.68,5.68,0,0,0,1.21-2.26,4.94,4.94,0,0,0-3,0,5.53,5.53,0,0,0-1.4.59,5.84,5.84,0,0,0-2.46,2.7Z"/><path d="M134.77,100.06A6.14,6.14,0,0,1,136,96.37a4.74,4.74,0,0,1,1-1.22,5.84,5.84,0,0,1,3.21-1.43l.19,0,.05.22a5.61,5.61,0,0,1-.27,3.56l-.43-.19a5.22,5.22,0,0,0,.32-3.07,5,5,0,0,0-2.75,1.32,4.83,4.83,0,0,0-1,1.08,6.18,6.18,0,0,0-1.08,3.45v0l-.51.06Z"/><path d="M133,97.33v-.18a6,6,0,0,1,.11-1,6.31,6.31,0,0,1,.46-1.51,5.77,5.77,0,0,1,2.29-2.72l.13-.08.16.13a5.9,5.9,0,0,1,1.27,3.4l-.48,0a5.14,5.14,0,0,0-1-3A5.36,5.36,0,0,0,134,94.8a6.57,6.57,0,0,0-.4,1.4,9.25,9.25,0,0,0-.11,1,2.47,2.47,0,0,0,.05.65v.05a.83.83,0,0,1,0,.27v.11s0,.13,0,.19a1.68,1.68,0,0,1,.1.45l.06.11a4.3,4.3,0,0,0,.35.81l-.41.27c-.13-.27-.27-.59-.37-.86a.53.53,0,0,1,0-.22.84.84,0,0,1-.14-.46s0-.13-.05-.21l0-.14V97.9A2.09,2.09,0,0,1,133,97.33Z"/><path d="M130.35,94.26a6.84,6.84,0,0,1,.75-2.13l.11-.22.24.11A6.53,6.53,0,0,1,134,94.61l.08.08-.08.14a5,5,0,0,0-.43,1.34,5.76,5.76,0,0,0,0,1,2.34,2.34,0,0,0,0,.75.91.91,0,0,1,0,.43v.14c.05.19.11.29.13.43l.06.08v.11a3.74,3.74,0,0,0,.35.75l-.41.22a3.24,3.24,0,0,1-.37-.81,1.06,1.06,0,0,1-.06-.22h0a1.17,1.17,0,0,1-.13-.46,1.91,1.91,0,0,1-.06-.21l0,0,0-.11a.26.26,0,0,0,0-.21,2.48,2.48,0,0,1,0-.86,5.15,5.15,0,0,1,0-1.08,5.33,5.33,0,0,1,.46-1.35,6.57,6.57,0,0,0-2.13-2.16,6.34,6.34,0,0,0-.62,1.73Z"/><path d="M123.93,107.34l0-.19a3.46,3.46,0,0,1,.32-.73l.43.25a2.76,2.76,0,0,0-.24.37,5,5,0,0,0,3.07.22,3.62,3.62,0,0,0,1.33-.46,5.41,5.41,0,0,0,2.75-2.53l.43.16a5.88,5.88,0,0,1-3,2.8,4.54,4.54,0,0,1-1.43.49,5.57,5.57,0,0,1-3.53-.33Z"/><path d="M126.71,110a5.79,5.79,0,0,1,.65-2.65l.43.19a5.6,5.6,0,0,0-.57,3,5,5,0,0,0,2.83-1.08l.3.38a5.93,5.93,0,0,1-3.32,1.18h-.21l0-.21A4.82,4.82,0,0,1,126.71,110Z"/><path d="M130,110v-.27a11.31,11.31,0,0,1,.22-1.48,6,6,0,0,1,2.24-3.34l.24.34a5.76,5.76,0,0,0-2,3.16,6.66,6.66,0,0,0-.24,1.38,5.15,5.15,0,0,0,.78,3,4.73,4.73,0,0,0,2.11-2.15l.43.27a5.87,5.87,0,0,1-2.54,2.42l-.16.11-.11-.16A5.66,5.66,0,0,1,130,110Z"/><path d="M132.78,108.15a6.22,6.22,0,0,1,.64-2.75l.41.24a5.89,5.89,0,0,0-.46,3.62,4.45,4.45,0,0,0,.38,1.32,5,5,0,0,0,2,2.42,5.35,5.35,0,0,0,.94-4.31,1.52,1.52,0,0,0-.08-.27,5.57,5.57,0,0,0-1.35-2.7c-.08-.11-.13-.13-.16-.21l.29-.33a1.14,1.14,0,0,1,.22.22,6.17,6.17,0,0,1,1.46,2.88.85.85,0,0,1,.05.25,6,6,0,0,1-1.13,5l-.14.13-.16-.08a5.68,5.68,0,0,1-2.34-2.75,7.57,7.57,0,0,1-.44-1.48A8.63,8.63,0,0,1,132.78,108.15Z"/><path d="M131.51,104.1l.43-.16v.11l.05.11.06.11a1.48,1.48,0,0,0,.27.32,3.21,3.21,0,0,0,.29.27l.09,0a3,3,0,0,0,1,.46,2.81,2.81,0,0,0,1.43-.22l.16.48a3.17,3.17,0,0,1-1.69.17,2.15,2.15,0,0,1-1.16-.55.59.59,0,0,1-.38-.29,1.41,1.41,0,0,1-.41-.46.71.71,0,0,1-.13-.27Z"/><path d="M133.26,99.9a1.86,1.86,0,0,1,.59-.19,2.8,2.8,0,0,1,1.3.24,2.51,2.51,0,0,1,1.08.68l.05.05a3.33,3.33,0,0,1,.78,1.32,3.44,3.44,0,0,1,0,1.43l-.1.24a2.12,2.12,0,0,1-.25.68v.08a.48.48,0,0,0-.16.16,3.63,3.63,0,0,0-.3.35,2.14,2.14,0,0,1-.89.57l-.13-.44a1.89,1.89,0,0,0,.7-.48,2.18,2.18,0,0,0,.24-.27c.06,0,.08-.16.17-.22s.1-.37.21-.59l.08-.22a3.58,3.58,0,0,0,0-1.18,3.08,3.08,0,0,0-.68-1.08l-.05-.11a1.85,1.85,0,0,0-.87-.48l-.08-.06a2.21,2.21,0,0,0-1-.16.71.71,0,0,0-.46.16Z"/><path d="M132,103.86l.44-.13a3.07,3.07,0,0,0,.32.37,1.86,1.86,0,0,0,2.72,0,1.67,1.67,0,0,0,.54-1.29h0a2,2,0,0,0-.59-1.4,1.82,1.82,0,0,0-1.86-.43l-.14-.46a2.33,2.33,0,0,1,2.35.56,2.64,2.64,0,0,1,.67,1.73h0a2.24,2.24,0,0,1-.64,1.64,2.33,2.33,0,0,1-3.37,0A1.81,1.81,0,0,1,132,103.86Z"/><path d="M123.93,75a7.57,7.57,0,0,1,12.7,5.61,7.62,7.62,0,0,1-7.58,7.63,7.44,7.44,0,0,1-5.07-2l.46-.43a6.7,6.7,0,0,0,4.61,1.86,7,7,0,0,0,0-14,6.75,6.75,0,0,0-4.69,1.82Z"/><path d="M135,80.21a.32.32,0,0,0-.33.35.31.31,0,0,0,.33.3.31.31,0,0,0,.29-.3A.33.33,0,0,0,135,80.21Z"/><path d="M134.34,78a.3.3,0,0,0-.13.42.31.31,0,0,0,.4.14.32.32,0,0,0,.16-.4A.34.34,0,0,0,134.34,78Z"/><path d="M132.78,76.16a.35.35,0,0,0,.05.44.33.33,0,0,0,.46,0,.31.31,0,0,0-.06-.42A.35.35,0,0,0,132.78,76.16Z"/><path d="M130.67,75.25c-.08.12,0,.27.22.32s.32,0,.35-.23A.29.29,0,0,0,131,75C130.86,74.94,130.7,75,130.67,75.25Z"/><path d="M128.3,75.25c0,.15.19.25.35.23a.3.3,0,0,0,.24-.34.3.3,0,0,0-.35-.26A.29.29,0,0,0,128.3,75.25Z"/><path d="M126.17,76.27a.3.3,0,0,0,.43.06.35.35,0,0,0,.08-.42.31.31,0,0,0-.46-.06A.28.28,0,0,0,126.17,76.27Z"/><path d="M125.9,84.58a.21.21,0,0,0,0-.38.28.28,0,1,0,0,.38Z"/><path d="M128,85.77c0-.19,0-.36-.19-.41a.28.28,0,0,0-.38.22c-.11.13,0,.29.19.35S127.9,85.93,128,85.77Z"/><path d="M130.32,85.93c0-.16-.16-.33-.32-.27a.28.28,0,0,0-.27.32c0,.22.16.32.32.27S130.32,86.12,130.32,85.93Z"/><path d="M132.53,85.12a.29.29,0,0,0-.43-.11.28.28,0,0,0,0,.4c0,.17.21.19.38.11A.28.28,0,0,0,132.53,85.12Z"/><path d="M134.21,83.39a.37.37,0,0,0-.46.11.33.33,0,0,0,.08.43.25.25,0,0,0,.4-.11A.33.33,0,0,0,134.21,83.39Z"/><path d="M107.21,46.14a7.38,7.38,0,0,1,2.21-5,7.61,7.61,0,0,1,10.76,10.76,7.24,7.24,0,0,1-5,2.14v-.59a6.64,6.64,0,0,0,4.56-2,7,7,0,0,0-9.92-9.91,6.92,6.92,0,0,0-2,4.62Z"/><path d="M118.73,42.05a.28.28,0,0,0,0,.4.27.27,0,0,0,.43,0,.28.28,0,0,0,0-.4A.32.32,0,0,0,118.73,42.05Z"/><path d="M116.68,40.89a.27.27,0,0,0,.16.38.3.3,0,0,0,.4-.2.25.25,0,0,0-.19-.35A.28.28,0,0,0,116.68,40.89Z"/><path d="M114.3,40.72a.3.3,0,0,0,.35.25.25.25,0,0,0,.25-.31.29.29,0,0,0-.3-.28A.34.34,0,0,0,114.3,40.72Z"/><path d="M112.12,41.54a.27.27,0,0,0,.38.12.25.25,0,0,0,.1-.39.23.23,0,0,0-.37-.15A.27.27,0,0,0,112.12,41.54Z"/><path d="M110.45,43.22a.31.31,0,0,0,.43-.06.3.3,0,0,0-.08-.42.28.28,0,0,0-.43.08A.27.27,0,0,0,110.45,43.22Z"/><path d="M109.66,45.46a.29.29,0,0,0,.36-.25.26.26,0,0,0-.25-.34c-.16-.06-.29.08-.32.23A.26.26,0,0,0,109.66,45.46Z"/><path d="M115.41,51.56a.33.33,0,0,0-.32-.31.32.32,0,0,0-.33.31.34.34,0,0,0,.35.31A.35.35,0,0,0,115.41,51.56Z"/><path d="M117.67,50.91a.27.27,0,0,0-.4-.12.26.26,0,0,0-.16.38.33.33,0,0,0,.43.13A.28.28,0,0,0,117.67,50.91Z"/><path d="M119.45,49.37a.28.28,0,0,0-.43,0,.41.41,0,0,0,0,.46.33.33,0,0,0,.46-.06A.3.3,0,0,0,119.45,49.37Z"/><path d="M120.45,47.21c-.21,0-.35,0-.38.23a.24.24,0,0,0,.22.35.27.27,0,0,0,.35-.2A.28.28,0,0,0,120.45,47.21Z"/><path d="M120.4,44.87a.27.27,0,0,0-.24.36.29.29,0,0,0,.35.23.3.3,0,0,0,.24-.36A.26.26,0,0,0,120.4,44.87Z"/><path d="M73,32.46a7.62,7.62,0,1,1,13.19,5.06l-.38-.43a6.9,6.9,0,0,0,1.8-4.63,7,7,0,0,0-14,0,6.85,6.85,0,0,0,1.84,4.71l-.44.4A7.38,7.38,0,0,1,73,32.46Z"/><path d="M80.22,26.53a.32.32,0,0,0,.29.31.33.33,0,0,0,.33-.31.31.31,0,1,0-.62,0Z"/><path d="M78,27.16a.3.3,0,0,0,.4.19.34.34,0,0,0,.14-.42c-.08-.14-.24-.25-.38-.14A.26.26,0,0,0,78,27.16Z"/><path d="M76.12,28.74c.21.07.37.07.48,0a.36.36,0,0,0,0-.45.31.31,0,0,0-.43.06A.37.37,0,0,0,76.12,28.74Z"/><path d="M75.2,30.85a.28.28,0,0,0,.35-.21.28.28,0,0,0-.19-.36c-.19-.05-.38,0-.38.2S75,30.85,75.2,30.85Z"/><path d="M75.2,33.21a.25.25,0,0,0,.27-.34.32.32,0,0,0-.38-.26.34.34,0,0,0-.21.37C74.93,33.15,75,33.26,75.2,33.21Z"/><path d="M76.22,35.36a.33.33,0,0,0,.11-.43.31.31,0,0,0-.43-.08.3.3,0,0,0-.08.44A.27.27,0,0,0,76.22,35.36Z"/><path d="M84.61,35.62a.29.29,0,0,0-.46,0,.4.4,0,0,0,0,.42.3.3,0,0,0,.46,0A.31.31,0,0,0,84.61,35.62Z"/><path d="M85.74,33.54a.36.36,0,0,0-.4.18.37.37,0,0,0,.19.42.31.31,0,0,0,.38-.19A.29.29,0,0,0,85.74,33.54Z"/><path d="M85.91,31.21a.26.26,0,0,0-.25.3.26.26,0,0,0,.3.28.29.29,0,0,0,.3-.31A.28.28,0,0,0,85.91,31.21Z"/><path d="M85.07,29a.26.26,0,0,0-.08.4.29.29,0,0,0,.4.14.35.35,0,0,0,.11-.45A.29.29,0,0,0,85.07,29Z"/><path d="M83.42,27.35a.27.27,0,0,0,.06.41.29.29,0,0,0,.43-.08.26.26,0,0,0-.11-.38A.23.23,0,0,0,83.42,27.35Z"/><path d="M38.9,46.77a7.61,7.61,0,0,1,13-5.45,7.44,7.44,0,0,1,2.13,5l-.62,0a6.6,6.6,0,0,0-1.94-4.6,7,7,0,0,0-9.92,9.91,6.78,6.78,0,0,0,4.61,2v.61a7.38,7.38,0,0,1-5-2.2A7.62,7.62,0,0,1,38.9,46.77Z"/><path d="M42,42.79a.3.3,0,0,0,.43,0,.32.32,0,0,0,0-.43.28.28,0,0,0-.4,0A.27.27,0,0,0,42,42.79Z"/><path d="M40.84,44.84a.34.34,0,0,0,.43-.17.27.27,0,0,0-.18-.37c-.17,0-.36,0-.38.16A.29.29,0,0,0,40.84,44.84Z"/><path d="M40.71,47.21a.31.31,0,0,0-.06-.62.36.36,0,0,0-.32.34A.37.37,0,0,0,40.71,47.21Z"/><path d="M41.52,49.4c.16-.11.24-.26.13-.42a.34.34,0,0,0-.4-.11.27.27,0,0,0-.11.42A.25.25,0,0,0,41.52,49.4Z"/><path d="M43.22,51a.3.3,0,0,0-.06-.41.33.33,0,0,0-.46.1.3.3,0,0,0,.11.41A.28.28,0,0,0,43.22,51Z"/><path d="M45.43,51.84a.26.26,0,0,0-.22-.34.28.28,0,0,0-.35.23.29.29,0,0,0,.24.37A.29.29,0,0,0,45.43,51.84Z"/><path d="M51.52,46.14a.28.28,0,0,0-.29.29c0,.16.13.29.35.29a.25.25,0,0,0,.24-.29A.26.26,0,0,0,51.52,46.14Z"/><path d="M50.93,43.84a.26.26,0,0,0-.16.42.29.29,0,0,0,.37.15.32.32,0,0,0,.14-.42A.24.24,0,0,0,50.93,43.84Z"/><path d="M49.36,42.08a.26.26,0,0,0,.06.4c.08.14.27.11.4,0s.11-.31,0-.43A.28.28,0,0,0,49.36,42.08Z"/><path d="M47.21,41.07a.34.34,0,0,0,.21.41.36.36,0,0,0,.38-.21.38.38,0,0,0-.24-.41C47.42,40.81,47.26,40.94,47.21,41.07Z"/><path d="M44.83,41.12a.39.39,0,0,0,.38.26.31.31,0,0,0,.22-.37c0-.17-.19-.25-.33-.23A.32.32,0,0,0,44.83,41.12Z"/><path d="M24.88,81a7.61,7.61,0,0,1,7.6-7.65,7.31,7.31,0,0,1,5,2l-.38.42a7,7,0,1,0-4.61,12.16,6.87,6.87,0,0,0,4.67-1.8l.4.43a7.44,7.44,0,0,1-5.07,2,7.68,7.68,0,0,1-5.39-2.21A7.5,7.5,0,0,1,24.88,81Z"/><path d="M26.52,81.29a.31.31,0,0,0,.3-.3.32.32,0,0,0-.3-.29.34.34,0,0,0-.32.29A.33.33,0,0,0,26.52,81.29Z"/><path d="M27.14,83.55a.28.28,0,0,0,.16-.4.33.33,0,0,0-.4-.14c-.13.11-.22.25-.16.38A.31.31,0,0,0,27.14,83.55Z"/><path d="M28.71,85.36a.3.3,0,0,0-.06-.43.29.29,0,0,0-.43,0,.32.32,0,0,0,0,.4C28.41,85.52,28.6,85.52,28.71,85.36Z"/><path d="M30.84,86.36a.32.32,0,0,0-.22-.41.29.29,0,0,0-.35.25c-.05.16,0,.29.22.35A.3.3,0,0,0,30.84,86.36Z"/><path d="M33.21,86.3a.28.28,0,0,0-.35-.21.3.3,0,0,0-.27.3.31.31,0,0,0,.38.27A.38.38,0,0,0,33.21,86.3Z"/><path d="M35.31,85.28a.32.32,0,0,0-.43,0c-.11,0-.13.29-.08.37a.35.35,0,0,0,.49.11A.36.36,0,0,0,35.31,85.28Z"/><path d="M35.61,76.93a.3.3,0,0,0,0,.42.31.31,0,0,0,.44,0,.24.24,0,0,0,0-.42A.28.28,0,0,0,35.61,76.93Z"/><path d="M33.53,75.79a.33.33,0,0,0,.17.37.29.29,0,0,0,.4-.2c.08-.13,0-.31-.19-.36S33.61,75.6,33.53,75.79Z"/><path d="M31.16,75.6a.38.38,0,0,0,.35.28.34.34,0,0,0,.3-.34.31.31,0,0,0-.35-.25A.29.29,0,0,0,31.16,75.6Z"/><path d="M29,76.42a.31.31,0,0,0,.54-.28.31.31,0,0,0-.44-.12A.3.3,0,0,0,29,76.42Z"/><path d="M27.3,78.12a.31.31,0,0,0,.46-.08.33.33,0,0,0-.08-.43.29.29,0,0,0-.43.09A.29.29,0,0,0,27.3,78.12Z"/><path d="M39.12,115a7.47,7.47,0,0,1,7.17-7.5l.05.65a6.35,6.35,0,0,0-4.55,1.94,6.67,6.67,0,0,0-2,4.91h0a6.92,6.92,0,0,0,7,7,6.9,6.9,0,0,0,4.94-2,7.05,7.05,0,0,0,2.05-4.63l.59,0a7.9,7.9,0,0,1-2.18,5,7.75,7.75,0,0,1-5.4,2.21,7.63,7.63,0,0,1-7.6-7.66Z"/><path d="M42.78,119.48a.28.28,0,0,0,0-.44c-.13-.05-.32-.11-.43,0a.3.3,0,0,0,0,.44A.35.35,0,0,0,42.78,119.48Z"/><path d="M44.83,120.66a.29.29,0,0,0-.18-.4.31.31,0,0,0-.38.19.27.27,0,0,0,.16.37A.28.28,0,0,0,44.83,120.66Z"/><path d="M47.21,120.82a.3.3,0,0,0-.35-.27.33.33,0,0,0-.27.33.28.28,0,0,0,.32.27A.33.33,0,0,0,47.21,120.82Z"/><path d="M49.42,120a.36.36,0,0,0-.46-.16.36.36,0,0,0-.08.46.29.29,0,0,0,.43.08C49.45,120.34,49.47,120.09,49.42,120Z"/><path d="M51.06,118.29a.4.4,0,0,0-.46.11.25.25,0,0,0,.11.37c.16.11.33.11.41,0A.42.42,0,0,0,51.06,118.29Z"/><path d="M51.82,116.08c-.16-.06-.3,0-.33.24s.09.35.19.35a.29.29,0,0,0,.38-.24A.26.26,0,0,0,51.82,116.08Z"/><path d="M46.13,110a.29.29,0,0,0,.27.33.3.3,0,0,0,.32-.33.26.26,0,0,0-.32-.27A.22.22,0,0,0,46.13,110Z"/><path d="M43.84,110.58c.08.21.24.27.4.16s.24-.19.16-.41a.27.27,0,0,0-.4-.08C43.84,110.31,43.78,110.5,43.84,110.58Z"/><path d="M42.06,112.19c.1.11.29.06.4,0s.11-.32-.05-.48-.3,0-.38,0A.29.29,0,0,0,42.06,112.19Z"/><path d="M41.09,114.32a.32.32,0,0,0,.35-.24c.08-.16-.06-.3-.19-.35a.34.34,0,0,0-.41.19A.36.36,0,0,0,41.09,114.32Z"/><path d="M41.09,116.67a.28.28,0,0,0,.26-.35.26.26,0,0,0-.35-.24c-.18,0-.27.21-.24.35S40.92,116.73,41.09,116.67Z"/><path d="M73.31,129.08h0a7.39,7.39,0,0,1,2-5.07l.43.43a6.74,6.74,0,0,0-1.83,4.64h0A6.72,6.72,0,0,0,76,134a7.16,7.16,0,0,0,5,2.07,7.09,7.09,0,0,0,7-7h0a6.62,6.62,0,0,0-1.84-4.7l.44-.43a7.51,7.51,0,0,1,2,5.13h0a7.56,7.56,0,0,1-2.24,5.36A7.7,7.7,0,0,1,81,136.65a7.8,7.8,0,0,1-5.42-2.21A7.44,7.44,0,0,1,73.31,129.08Z"/><path d="M81.29,135a.3.3,0,0,0-.29-.32.33.33,0,0,0-.33.32.31.31,0,0,0,.3.3A.32.32,0,0,0,81.29,135Z"/><path d="M83.56,134.39a.29.29,0,0,0-.4-.16.3.3,0,0,0-.17.4.45.45,0,0,0,.43.16A.31.31,0,0,0,83.56,134.39Z"/><path d="M85.34,132.83a.28.28,0,0,0-.43,0,.34.34,0,0,0,0,.46.34.34,0,0,0,.44-.05A.27.27,0,0,0,85.34,132.83Z"/><path d="M86.31,130.67a.31.31,0,0,0-.4.24c-.06.13,0,.3.27.32a.26.26,0,0,0,.35-.19A.32.32,0,0,0,86.31,130.67Z"/><path d="M86.28,128.32c-.16,0-.27.16-.24.38s.19.24.35.21a.31.31,0,0,0,.24-.37A.28.28,0,0,0,86.28,128.32Z"/><path d="M85.29,126.19a.29.29,0,0,0-.09.43.34.34,0,0,0,.44.06.26.26,0,0,0,0-.41A.25.25,0,0,0,85.29,126.19Z"/><path d="M76.93,125.89a.25.25,0,0,0,.4.06c.13-.16.13-.35,0-.43a.23.23,0,0,0-.4,0A.22.22,0,0,0,76.93,125.89Z"/><path d="M75.74,128c.21,0,.35,0,.38-.16a.33.33,0,0,0-.14-.41.37.37,0,0,0-.43.22A.29.29,0,0,0,75.74,128Z"/><path d="M75.58,130.32a.27.27,0,0,0,.27-.33c0-.16-.14-.27-.33-.27a.38.38,0,0,0-.27.33C75.28,130.26,75.42,130.37,75.58,130.32Z"/><path d="M76.44,132.53a.28.28,0,0,0,.08-.41.31.31,0,0,0-.43-.08c-.11,0-.16.24-.11.38A.33.33,0,0,0,76.44,132.53Z"/><path d="M78.11,134.2a.28.28,0,0,0-.11-.43c-.1-.11-.29-.08-.4.11a.28.28,0,0,0,.11.4A.27.27,0,0,0,78.11,134.2Z"/><path d="M107.48,115.22l.62-.06A6.89,6.89,0,0,0,115,121.8a7.05,7.05,0,0,0,7.07-7,7,7,0,0,0-2-4.93,6.7,6.7,0,0,0-4.62-2v-.63a7.84,7.84,0,0,1,5.05,2.22,7.54,7.54,0,0,1,0,10.73,7.72,7.72,0,0,1-5.45,2.24,7.62,7.62,0,0,1-5.31-2.21A7.39,7.39,0,0,1,107.48,115.22Z"/><path d="M119.48,118.72a.32.32,0,0,0-.43,0,.41.41,0,0,0,0,.46.33.33,0,0,0,.43,0A.41.41,0,0,0,119.48,118.72Z"/><path d="M120.64,116.67a.3.3,0,0,0-.4.19.26.26,0,0,0,.21.35c.14.11.3,0,.38-.11A.37.37,0,0,0,120.64,116.67Z"/><path d="M120.78,114.32a.31.31,0,0,0,.1.62.32.32,0,0,0,.27-.32A.34.34,0,0,0,120.78,114.32Z"/><path d="M120,112.14a.27.27,0,0,0-.11.4c.08.17.24.19.43.11a.28.28,0,0,0,.11-.4A.29.29,0,0,0,120,112.14Z"/><path d="M118.29,110.5a.26.26,0,0,0,.09.4c.1.11.29,0,.37-.11a.24.24,0,0,0,0-.4A.28.28,0,0,0,118.29,110.5Z"/><path d="M116.06,109.71a.26.26,0,0,0,.24.33.31.31,0,0,0,.38-.22.29.29,0,0,0-.27-.35C116.27,109.42,116.11,109.5,116.06,109.71Z"/><path d="M110,115.4a.3.3,0,0,0,.32-.29.32.32,0,0,0-.32-.3.28.28,0,0,0-.3.3A.27.27,0,0,0,110,115.4Z"/><path d="M110.61,117.69a.38.38,0,0,0,.16-.43c0-.16-.27-.18-.43-.16a.29.29,0,0,0-.11.43A.28.28,0,0,0,110.61,117.69Z"/><path d="M112.15,119.48a.32.32,0,0,0,0-.44.36.36,0,0,0-.43,0,.26.26,0,0,0,0,.41A.26.26,0,0,0,112.15,119.48Z"/><path d="M114.3,120.45c0-.16-.08-.36-.19-.38a.33.33,0,0,0-.43.22.34.34,0,0,0,.25.37C114.11,120.72,114.22,120.61,114.3,120.45Z"/><path d="M116.68,120.45a.3.3,0,0,0-.38-.27c-.16,0-.3.19-.24.32s.21.32.35.27S116.7,120.55,116.68,120.45Z"/><polygon points="106.56 39.76 134.66 26.56 123.12 55.13 122.5 54.89 133.42 27.86 106.86 40.38 106.56 39.76"/><polygon points="106.05 41.12 112.44 39.16 113.68 38.81 126.76 34.73 126.2 36.6 124.95 40.24 124.52 41.48 124.06 42.77 123.69 44.02 122.77 46.62 121.96 49.09 121.5 50.37 121.1 51.6 119.7 55.67 119.05 55.45 125.77 35.75 113.87 39.48 112.55 39.81 106.27 41.79 106.05 41.12"/><line x1="121.37" y1="36.75" x2="119.02" y2="34.34"/><line x1="127.63" y1="43.28" x2="124.6" y2="40.15"/><line x1="120.1" y1="37.17" x2="117.89" y2="34.85"/><line x1="127.14" y1="44.46" x2="124.23" y2="41.38"/><line x1="118.78" y1="37.57" x2="116.7" y2="35.36"/><line x1="126.63" y1="45.64" x2="123.74" y2="42.66"/><line x1="117.62" y1="37.96" x2="115.65" y2="35.9"/><line x1="126.14" y1="46.82" x2="123.36" y2="43.92"/><line x1="116.27" y1="38.34" x2="114.44" y2="36.44"/><line x1="125.66" y1="48.01" x2="122.88" y2="45.18"/><line x1="115.03" y1="38.76" x2="113.31" y2="36.95"/><line x1="125.14" y1="49.26" x2="122.42" y2="46.51"/><line x1="113.76" y1="39.14" x2="112.2" y2="37.49"/><line x1="124.71" y1="50.45" x2="122.04" y2="47.75"/><line x1="124.17" y1="51.65" x2="121.67" y2="49.04"/><line x1="112.5" y1="39.48" x2="111.04" y2="38.03"/><line x1="123.71" y1="52.84" x2="121.18" y2="50.26"/><line x1="111.26" y1="39.89" x2="109.91" y2="38.56"/><line x1="109.91" y1="40.27" x2="108.75" y2="39.1"/><line x1="123.23" y1="54.09" x2="120.78" y2="51.5"/><line x1="132.37" y1="31.33" x2="130.19" y2="29.02"/><line x1="131.91" y1="32.54" x2="128.97" y2="29.6"/><line x1="131.37" y1="33.77" x2="127.84" y2="30.14"/><polygon points="126.57 30.84 126.87 30.54 131.05 34.8 130.75 35.16 126.57 30.84"/><polygon points="125.47 31.36 125.79 31.05 130.59 36.01 130.29 36.35 125.47 31.36"/><polygon points="124.31 31.92 124.66 31.56 130.11 37.21 129.76 37.52 124.31 31.92"/><polygon points="123.2 32.44 123.53 32.13 129.62 38.4 129.3 38.71 123.2 32.44"/><polygon points="122.07 32.95 122.39 32.64 129.16 39.58 128.81 39.89 122.07 32.95"/><line x1="123.71" y1="36.04" x2="121.13" y2="33.34"/><line x1="128.46" y1="41.01" x2="125.41" y2="37.83"/><line x1="122.42" y1="36.44" x2="119.94" y2="33.88"/><line x1="128" y1="42.2" x2="124.98" y2="39.1"/><polygon points="70 33.52 80.51 4.31 92.59 32.69 91.97 32.95 80.59 6.13 70.64 33.74 70 33.52"/><polygon points="70.64 34.88 73.74 28.94 74.39 27.81 80.75 15.69 81.64 17.4 83.34 20.88 83.96 22.03 84.5 23.27 85.12 24.41 86.31 26.91 87.52 29.25 88.06 30.48 88.66 31.64 90.54 35.47 89.95 35.78 80.75 17.12 74.98 28.12 74.31 29.28 71.18 35.16 70.64 34.88"/><line x1="78.35" y1="20.92" x2="74.98" y2="20.88"/><line x1="87.36" y1="21.11" x2="83.07" y2="21.03"/><line x1="77.76" y1="22.08" x2="74.5" y2="22.05"/><line x1="87.87" y1="22.26" x2="83.67" y2="22.19"/><line x1="77.09" y1="23.32" x2="74.04" y2="23.24"/><line x1="88.33" y1="23.5" x2="84.23" y2="23.39"/><line x1="76.55" y1="24.41" x2="73.69" y2="24.4"/><line x1="88.85" y1="24.68" x2="84.8" y2="24.58"/><line x1="75.87" y1="25.65" x2="73.23" y2="25.6"/><line x1="89.33" y1="25.86" x2="85.37" y2="25.78"/><line x1="75.28" y1="26.81" x2="72.8" y2="26.79"/><line x1="89.87" y1="27.12" x2="85.99" y2="27.07"/><line x1="74.66" y1="27.99" x2="72.39" y2="27.95"/><line x1="90.38" y1="28.27" x2="86.61" y2="28.23"/><line x1="90.84" y1="29.51" x2="87.23" y2="29.4"/><line x1="91.38" y1="30.67" x2="87.77" y2="30.62"/><line x1="91.92" y1="31.87" x2="88.39" y2="31.79"/><line x1="82.29" y1="9.31" x2="79.14" y2="9.2"/><line x1="83.32" y1="11.75" x2="78.25" y2="11.67"/><polygon points="77.84 13.06 77.84 12.6 83.86 12.71 83.83 13.17 77.84 13.06"/><polygon points="77.41 14.25 77.44 13.79 84.34 13.88 84.34 14.35 77.41 14.25"/><polygon points="77.01 15.43 77.01 14.96 84.8 15.07 84.8 15.55 77.01 15.43"/><polygon points="76.6 16.55 76.63 16.09 85.34 16.26 85.31 16.71 76.6 16.55"/><polygon points="76.17 17.74 76.17 17.28 85.85 17.4 85.85 17.9 76.17 17.74"/><line x1="79.49" y1="18.76" x2="75.74" y2="18.67"/><line x1="86.36" y1="18.93" x2="81.97" y2="18.82"/><line x1="78.87" y1="19.95" x2="75.28" y2="19.9"/><line x1="86.88" y1="20.07" x2="82.53" y2="20.03"/><polygon points="26.55 26.84 55.13 38.4 54.87 39.02 27.84 28.12 40.33 54.69 39.74 54.94 26.55 26.84"/><polygon points="34.69 34.73 37.9 35.78 39.17 36.24 41.49 36.98 42.76 37.47 44 37.83 46.59 38.76 49.09 39.56 50.36 40.04 51.6 40.43 55.65 41.81 55.43 42.45 35.74 35.75 39.47 47.65 39.79 48.93 41.79 55.25 41.14 55.45 39.14 49.09 38.82 47.85 34.69 34.73"/><polygon points="34.15 42.36 36.55 39.99 36.91 40.3 34.48 42.68 34.15 42.36"/><polygon points="39.95 36.72 43.05 33.77 43.41 34.08 40.3 37.06 39.95 36.72"/><polygon points="34.69 43.48 36.99 41.23 37.31 41.58 34.99 43.82 34.69 43.48"/><polygon points="41.22 37.14 44.27 34.23 44.59 34.54 41.52 37.47 41.22 37.14"/><line x1="37.53" y1="42.71" x2="35.37" y2="44.81"/><polygon points="42.46 37.57 45.45 34.74 45.78 35.08 42.81 37.94 42.46 37.57"/><line x1="37.96" y1="43.92" x2="35.91" y2="45.89"/><polygon points="43.73 37.99 46.67 35.21 46.99 35.52 44.02 38.31 43.73 37.99"/><line x1="38.36" y1="45.23" x2="36.39" y2="47.08"/><polygon points="44.99 38.45 47.8 35.67 48.18 36.01 45.32 38.81 44.99 38.45"/><line x1="38.74" y1="46.49" x2="36.93" y2="48.21"/><polygon points="46.29 38.91 49.09 36.21 49.45 36.55 46.64 39.25 46.29 38.91"/><line x1="39.12" y1="47.75" x2="37.47" y2="49.35"/><polygon points="47.58 39.33 50.28 36.64 50.6 37.01 47.91 39.65 47.58 39.33"/><polygon points="48.83 39.7 51.49 37.21 51.79 37.52 49.15 40.04 48.83 39.7"/><line x1="39.47" y1="49.04" x2="38.01" y2="50.45"/><polygon points="50.09 40.18 52.66 37.68 52.98 37.99 50.44 40.5 50.09 40.18"/><line x1="39.87" y1="50.26" x2="38.55" y2="51.58"/><line x1="40.25" y1="51.58" x2="39.09" y2="52.76"/><polygon points="51.36 40.55 53.92 38.11 54.27 38.45 51.66 40.92 51.36 40.55"/><polygon points="28.84 31.18 31.16 29 31.51 29.32 29.16 31.51 28.84 31.18"/><polygon points="29.43 32.36 32.35 29.46 32.67 29.77 29.79 32.69 29.43 32.36"/><polygon points="29.97 33.46 33.62 29.97 33.94 30.33 30.3 33.83 29.97 33.46"/><polygon points="30.51 34.62 34.77 30.45 35.13 30.79 30.84 34.96 30.51 34.62"/><polygon points="31.03 35.73 35.99 30.9 36.34 31.25 31.35 36.06 31.03 35.73"/><polygon points="31.54 36.86 37.17 31.44 37.47 31.76 31.89 37.21 31.54 36.86"/><polygon points="32.08 37.99 38.39 31.92 38.69 32.23 32.43 38.31 32.08 37.99"/><polygon points="32.62 39.11 39.58 32.36 39.9 32.69 32.97 39.48 32.62 39.11"/><polygon points="33.16 40.22 35.85 37.63 36.18 37.99 33.48 40.55 33.16 40.22"/><polygon points="37.63 35.93 40.82 32.9 41.14 33.2 38.01 36.29 37.63 35.93"/><polygon points="33.67 41.43 36.26 38.91 36.55 39.25 34.02 41.77 33.67 41.43"/><polygon points="38.9 36.39 42.03 33.37 42.35 33.69 39.2 36.72 38.9 36.39"/><polygon points="4.3 80.99 32.67 68.92 32.94 69.53 6.11 80.97 33.72 90.89 33.51 91.51 4.3 80.99"/><polygon points="15.65 80.75 17.38 79.86 20.86 78.17 22.02 77.55 23.26 77.01 24.39 76.42 26.9 75.25 29.22 74.01 30.46 73.44 31.59 72.82 35.48 70.97 35.8 71.57 29.52 74.6 27.2 75.83 24.69 76.99 23.56 77.61 22.29 78.17 20.16 79.28 17.08 80.75 28.14 86.55 29.27 87.22 35.15 90.3 34.83 90.89 28.95 87.81 27.82 87.14 15.65 80.75"/><polygon points="20.64 86.55 20.67 83.15 21.16 83.15 21.07 86.55 20.64 86.55"/><polygon points="20.75 78.48 20.86 74.16 21.32 74.16 21.24 78.48 20.75 78.48"/><polygon points="21.8 86.95 21.86 83.74 22.29 83.77 22.26 87.01 21.8 86.95"/><polygon points="21.96 77.86 22.05 73.64 22.5 73.67 22.4 77.89 21.96 77.86"/><line x1="23.31" y1="84.39" x2="23.26" y2="87.49"/><polygon points="23.18 77.3 23.26 73.19 23.75 73.19 23.64 77.3 23.18 77.3"/><line x1="24.45" y1="85.01" x2="24.39" y2="87.82"/><polygon points="24.34 76.68 24.45 72.67 24.9 72.67 24.77 76.68 24.34 76.68"/><line x1="25.63" y1="85.6" x2="25.58" y2="88.3"/><polygon points="25.52 76.14 25.58 72.16 26.06 72.16 26.01 76.14 25.52 76.14"/><line x1="26.82" y1="86.25" x2="26.77" y2="88.7"/><polygon points="26.82 75.5 26.85 71.65 27.3 71.65 27.25 75.52 26.82 75.5"/><line x1="27.95" y1="86.84" x2="27.92" y2="89.14"/><polygon points="27.95 74.94 28.01 71.14 28.46 71.14 28.44 74.94 27.95 74.94"/><polygon points="29.14 74.29 29.25 70.66 29.7 70.66 29.6 74.32 29.14 74.29"/><polygon points="30.38 73.75 30.41 70.15 30.89 70.15 30.84 73.75 30.38 73.75"/><polygon points="31.54 73.13 31.59 69.58 32.08 69.58 32.02 73.13 31.54 73.13"/><polygon points="8.99 82.37 9.07 79.23 9.56 79.25 9.45 82.42 8.99 82.37"/><rect x="10.26" y="78.74" width="0.46" height="4.11"/><polygon points="11.42 83.26 11.5 78.17 11.96 78.2 11.91 83.26 11.42 83.26"/><polygon points="12.61 83.66 12.69 77.66 13.15 77.69 13.06 83.66 12.61 83.66"/><polygon points="13.74 84.09 13.85 77.16 14.31 77.16 14.22 84.09 13.74 84.09"/><polygon points="14.93 84.53 15.09 76.68 15.52 76.68 15.38 84.53 14.93 84.53"/><polygon points="16.11 84.9 16.22 76.19 16.71 76.19 16.54 84.96 16.11 84.9"/><polygon points="17.27 85.36 17.38 75.65 17.87 75.68 17.73 85.36 17.27 85.36"/><polygon points="18.43 85.77 18.51 82.04 19 82.04 18.89 85.77 18.43 85.77"/><polygon points="18.57 79.56 18.65 75.14 19.16 75.14 19.02 79.56 18.57 79.56"/><polygon points="19.65 86.25 19.7 82.64 20.16 82.64 20.1 86.25 19.65 86.25"/><polygon points="19.75 78.97 19.86 74.63 20.29 74.66 20.27 79 19.75 78.97"/><polygon points="26.82 134.98 38.39 106.37 39.01 106.64 28.11 133.66 54.65 121.15 54.92 121.74 26.82 134.98"/><polygon points="34.75 126.78 35.31 124.92 37.45 118.78 37.82 117.53 38.77 114.92 39.58 112.47 40.01 111.17 40.38 109.93 41.79 105.88 42.41 106.07 35.74 125.79 47.64 122.06 48.91 121.69 50.15 121.34 51.49 120.93 55.24 119.74 55.43 120.39 49.09 122.36 47.8 122.71 34.75 126.78"/><line x1="40.14" y1="124.76" x2="42.51" y2="127.19"/><line x1="33.88" y1="118.29" x2="36.88" y2="121.39"/><line x1="41.38" y1="124.38" x2="43.62" y2="126.68"/><line x1="34.4" y1="117.1" x2="37.31" y2="120.15"/><line x1="42.7" y1="123.95" x2="44.83" y2="126.16"/><line x1="34.88" y1="115.92" x2="37.77" y2="118.88"/><line x1="43.92" y1="123.6" x2="45.86" y2="125.6"/><line x1="35.34" y1="114.7" x2="38.12" y2="117.64"/><line x1="45.21" y1="123.2" x2="47.07" y2="125.08"/><line x1="35.85" y1="113.54" x2="38.6" y2="116.35"/><line x1="46.51" y1="122.77" x2="48.2" y2="124.57"/><line x1="36.34" y1="112.25" x2="39.09" y2="115"/><line x1="47.75" y1="122.39" x2="49.31" y2="124.06"/><line x1="36.82" y1="111.09" x2="39.47" y2="113.78"/><line x1="37.36" y1="109.87" x2="39.84" y2="112.54"/><line x1="48.99" y1="122.06" x2="50.5" y2="123.49"/><line x1="37.82" y1="108.69" x2="40.3" y2="111.28"/><line x1="50.23" y1="121.63" x2="51.58" y2="122.98"/><line x1="51.58" y1="121.25" x2="52.74" y2="122.44"/><line x1="38.28" y1="107.45" x2="40.73" y2="110.04"/><line x1="29.14" y1="130.21" x2="31.35" y2="132.47"/><line x1="29.6" y1="129" x2="32.54" y2="131.93"/><line x1="30.14" y1="127.76" x2="33.67" y2="131.39"/><polygon points="30.43 126.73 30.78 126.38 34.94 130.69 34.59 130.99 30.43 126.73"/><polygon points="30.92 125.52 31.24 125.19 36.07 130.16 35.74 130.48 30.92 125.52"/><polygon points="31.43 124.33 31.75 124 37.2 129.67 36.85 129.97 31.43 124.33"/><polygon points="31.89 123.14 32.24 122.82 38.31 129.07 37.96 129.45 31.89 123.14"/><polygon points="32.35 121.96 32.7 121.63 39.44 128.59 39.12 128.89 32.35 121.96"/><line x1="37.82" y1="125.52" x2="40.38" y2="128.21"/><line x1="33.05" y1="120.5" x2="36.07" y2="123.74"/><line x1="39.09" y1="125.08" x2="41.57" y2="127.67"/><line x1="33.51" y1="119.31" x2="36.55" y2="122.47"/><polygon points="68.92 128.86 69.54 128.59 80.92 155.4 90.84 127.78 91.49 128 80.97 157.2 68.92 128.86"/><polygon points="70.97 126.06 71.56 125.76 80.75 144.39 86.53 133.39 87.2 132.26 90.28 126.38 90.87 126.67 87.79 132.58 87.12 133.72 80.75 145.85 79.84 144.13 78.17 140.67 77.55 139.49 77.01 138.27 76.39 137.11 75.2 134.63 73.99 132.28 73.42 131.04 72.83 129.91 70.97 126.06"/><line x1="83.16" y1="140.62" x2="86.53" y2="140.67"/><line x1="74.17" y1="140.4" x2="78.46" y2="140.51"/><line x1="83.72" y1="139.43" x2="86.96" y2="139.49"/><line x1="73.64" y1="139.24" x2="77.84" y2="139.35"/><line x1="84.4" y1="138.22" x2="87.44" y2="138.27"/><line x1="73.18" y1="138.03" x2="77.3" y2="138.11"/><line x1="84.96" y1="137.09" x2="87.79" y2="137.14"/><line x1="72.66" y1="136.84" x2="76.68" y2="136.95"/><line x1="85.64" y1="135.87" x2="88.28" y2="135.93"/><line x1="86.23" y1="134.69" x2="88.71" y2="134.74"/><line x1="71.61" y1="134.44" x2="75.52" y2="134.47"/><line x1="71.13" y1="133.26" x2="74.93" y2="133.31"/><line x1="70.64" y1="132.04" x2="74.28" y2="132.12"/><line x1="69.56" y1="129.67" x2="73.12" y2="129.78"/><line x1="79.24" y1="152.21" x2="82.4" y2="152.32"/><line x1="78.19" y1="149.79" x2="83.24" y2="149.84"/><polygon points="77.68 148.82 77.68 148.36 83.67 148.47 83.67 148.93 77.68 148.82"/><polygon points="77.17 147.69 77.17 147.2 84.1 147.31 84.07 147.79 77.17 147.69"/><polygon points="76.68 146.44 76.68 146.01 84.5 146.12 84.5 146.6 76.68 146.44"/><polygon points="76.12 145.28 76.17 144.82 84.91 144.93 84.91 145.42 76.12 145.28"/><polygon points="75.63 144.13 75.66 143.64 85.34 143.8 85.31 144.26 75.63 144.13"/><line x1="82.02" y1="142.78" x2="85.74" y2="142.83"/><line x1="75.12" y1="142.61" x2="79.54" y2="142.72"/><line x1="82.62" y1="141.59" x2="86.23" y2="141.64"/><line x1="74.63" y1="141.46" x2="78.98" y2="141.51"/><polygon points="106.38 123.14 106.62 122.52 133.67 133.39 121.15 106.91 121.75 106.58 134.99 134.69 106.38 123.14"/><polygon points="105.83 119.72 106.05 119.1 125.77 125.79 122.04 113.86 121.72 112.6 121.29 111.39 120.91 110.04 119.7 106.26 120.34 106.07 122.34 112.41 122.72 113.68 126.76 126.78 124.93 126.22 118.75 124.11 117.48 123.68 114.9 122.77 112.44 121.98 111.15 121.53 109.88 121.15 105.83 119.72"/><polygon points="124.58 121.2 127.03 118.83 127.36 119.21 124.95 121.53 124.58 121.2"/><polygon points="118.11 127.46 121.21 124.46 121.53 124.81 118.43 127.78 118.11 127.46"/><polygon points="124.2 119.96 126.49 117.69 126.82 118.07 124.5 120.31 124.2 119.96"/><polygon points="116.92 126.97 119.97 124.06 120.29 124.38 117.24 127.32 116.92 126.97"/><line x1="123.96" y1="118.83" x2="126.11" y2="116.73"/><polygon points="115.73 126.49 118.7 123.6 119.02 123.92 116.06 126.78 115.73 126.49"/><line x1="123.58" y1="117.59" x2="125.58" y2="115.65"/><polygon points="114.55 126 117.43 123.2 117.78 123.57 114.81 126.38 114.55 126"/><line x1="123.18" y1="116.29" x2="125.09" y2="114.46"/><polygon points="113.36 125.52 116.19 122.77 116.49 123.09 113.66 125.84 113.36 125.52"/><line x1="122.77" y1="115" x2="124.55" y2="113.33"/><polygon points="112.06 125 114.87 122.28 115.19 122.61 112.44 125.36 112.06 125"/><line x1="122.34" y1="113.78" x2="124.01" y2="112.19"/><polygon points="110.88 124.52 113.6 121.9 113.93 122.23 111.23 124.87 110.88 124.52"/><polygon points="109.72 124 112.36 121.47 112.66 121.8 110.02 124.33 109.72 124"/><line x1="122.04" y1="112.54" x2="123.47" y2="111.06"/><polygon points="108.5 123.55 111.09 121.04 111.42 121.36 108.8 123.9 108.5 123.55"/><line x1="121.64" y1="111.28" x2="122.96" y2="109.95"/><line x1="121.23" y1="109.95" x2="122.42" y2="108.77"/><polygon points="107.27 123.09 109.83 120.61 110.18 120.99 107.59 123.41 107.27 123.09"/><polygon points="130.03 132.18 132.34 130.02 132.64 130.37 130.32 132.53 130.03 132.18"/><polygon points="128.81 131.77 131.75 128.83 132.07 129.18 129.16 132.07 128.81 131.77"/><polygon points="127.57 131.21 131.21 127.7 131.54 128.05 127.87 131.56 127.57 131.21"/><polygon points="126.39 130.75 130.67 126.59 131 126.92 126.71 131.07 126.39 130.75"/><polygon points="125.17 130.26 130.13 125.46 130.46 125.79 125.52 130.64 125.17 130.26"/><polygon points="123.98 129.78 129.62 124.33 129.92 124.68 124.33 130.1 123.98 129.78"/><polygon points="122.83 129.29 129.08 123.2 129.38 123.57 123.12 129.67 122.83 129.29"/><polygon points="121.61 128.83 128.54 122.06 128.89 122.41 121.96 129.18 121.61 128.83"/><polygon points="125.33 123.55 128 120.99 128.35 121.31 125.63 123.9 125.33 123.55"/><polygon points="120.34 128.29 123.53 125.3 123.88 125.6 120.67 128.64 120.34 128.29"/><polygon points="124.95 122.28 127.49 119.74 127.81 120.09 125.25 122.61 124.95 122.28"/><polygon points="119.16 127.83 122.29 124.81 122.61 125.14 119.48 128.16 119.16 127.83"/><polygon points="127.76 70.66 128 70.03 157.21 80.56 128.81 92.61 128.57 92 155.4 80.61 127.76 70.66"/><polygon points="125.77 89.97 144.4 80.75 133.37 74.98 132.24 74.32 126.36 71.23 126.68 70.66 132.59 73.72 133.69 74.4 145.86 80.75 144.08 81.67 138.22 84.53 137.09 85.12 134.61 86.31 132.29 87.52 131.05 88.08 129.89 88.7 126.06 90.57 125.77 89.97"/><polygon points="140.35 78.38 140.38 74.98 140.87 74.98 140.84 78.38 140.35 78.38"/><polygon points="140.22 87.38 140.25 83.07 140.76 83.07 140.65 87.38 140.22 87.38"/><polygon points="139.19 77.76 139.22 74.55 139.68 74.57 139.65 77.76 139.19 77.76"/><polygon points="139.01 87.87 139.11 83.66 139.57 83.66 139.46 87.87 139.01 87.87"/><line x1="138.17" y1="77.12" x2="138.22" y2="74.12"/><polygon points="137.79 88.35 137.9 84.23 138.33 84.23 138.28 88.35 137.79 88.35"/><line x1="137.09" y1="76.53" x2="137.12" y2="73.72"/><polygon points="136.61 88.84 136.71 84.82 137.2 84.85 137.09 88.84 136.61 88.84"/><line x1="135.88" y1="75.91" x2="135.9" y2="73.24"/><polygon points="135.45 89.38 135.5 85.42 135.96 85.42 135.91 89.38 135.45 89.38"/><line x1="134.69" y1="75.29" x2="134.74" y2="72.82"/><polygon points="134.21 89.89 134.23 86.03 134.69 86.03 134.66 89.89 134.21 89.89"/><line x1="133.56" y1="74.68" x2="133.59" y2="72.42"/><polygon points="133.02 90.4 133.07 86.6 133.56 86.6 133.5 90.4 133.02 90.4"/><polygon points="131.81 90.86 131.91 87.22 132.37 87.22 132.26 90.86 131.81 90.86"/><polygon points="130.62 91.38 130.67 87.76 131.13 87.76 131.08 91.38 130.62 91.38"/><polygon points="129.38 91.94 129.49 88.41 129.97 88.41 129.89 91.94 129.38 91.94"/><polygon points="151.95 82.29 152.06 79.14 152.49 79.14 152.44 82.31 151.95 82.29"/><rect x="150.79" y="78.74" width="0.46" height="4.11"/><polygon points="149.52 83.36 149.6 78.3 150.06 78.3 150.01 83.36 149.52 83.36"/><polygon points="148.36 83.88 148.44 77.86 148.9 77.89 148.82 83.88 148.36 83.88"/><polygon points="147.18 84.34 147.28 77.45 147.77 77.45 147.66 84.34 147.18 84.34"/><polygon points="145.96 84.82 146.13 77.01 146.58 77.01 146.45 84.85 145.96 84.82"/><polygon points="144.78 85.36 144.94 76.6 145.42 76.6 145.26 85.36 144.78 85.36"/><polygon points="143.64 85.87 143.75 76.17 144.24 76.19 144.08 85.87 143.64 85.87"/><polygon points="142.51 79.51 142.62 75.76 143.08 75.76 142.97 79.51 142.51 79.51"/><polygon points="142.38 86.39 142.46 81.99 142.94 81.99 142.86 86.39 142.38 86.39"/><polygon points="141.32 78.89 141.38 75.29 141.84 75.29 141.84 78.89 141.32 78.89"/><polygon points="141.19 86.9 141.24 82.53 141.73 82.58 141.65 86.9 141.19 86.9"/><path d="M125.58,47.08a.32.32,0,0,1,.13-.26c10-10.5,30.34,2.36,31.23,2.9a.46.46,0,0,1,.13.54.39.39,0,0,1-.56.14c-.24-.14-20.69-13.06-30.23-3a.37.37,0,0,1-.57,0A.39.39,0,0,1,125.58,47.08Z"/><path d="M137.85,74.21a.39.39,0,0,1,.37-.38h.14l0-.08h.14c12.89-.93,17.72-23.38,17.77-23.64a.41.41,0,0,1,.48-.31.38.38,0,0,1,.3.46c-.19,1-4.93,23.23-18.42,24.29a.83.83,0,0,1-.46.08A.42.42,0,0,1,137.85,74.21Z"/><path d="M136.93,48.47c0-.14,0-.23.16-.23,5.58-.14,11.81,3.78,12.06,3.92s.18.22.08.37a.25.25,0,0,1-.33,0c-.05,0-6.33-4-11.78-3.85-.14,0-.19-.11-.19-.26Z"/><path d="M142.38,64.5a.31.31,0,0,1,.05-.17h0l.11-.09c4.45-3.43,6.26-11.71,6.28-11.77a.21.21,0,0,1,.27-.17.22.22,0,0,1,.16.28c-.08.31-1.83,8.43-6.31,12v.17h-.29C142.48,64.73,142.38,64.64,142.38,64.5Z"/><path d="M134.07,45.34a31,31,0,0,1,9.12,1.34,29.38,29.38,0,0,1,5.9,2.5c1.49,1,2.51,1.61,2.51,1.61a.4.4,0,0,1,.08.55.36.36,0,0,1-.54.11h0s-1-.66-2.32-1.67A28.24,28.24,0,0,0,143.08,47,31.3,31.3,0,0,0,134.07,45.34Z"/><path d="M144.32,69.1a31,31,0,0,0,5-7.73,29.34,29.34,0,0,0,1.94-6c.24-1.73.38-2.81.38-2.81v-.11a.44.44,0,0,1,.48-.31c.22,0,.35.22.33.48h0s-.25,1.14-.54,2.87a30.22,30.22,0,0,1-2.21,6A31.46,31.46,0,0,1,144.32,69.1Z"/><path d="M88.55,24.63c0-14.24,23.14-19.49,24.11-19.69a.38.38,0,0,1,.46.31.37.37,0,0,1-.27.49c-.25,0-23.55,5.3-23.55,18.89a1.51,1.51,0,0,0,0,.34.35.35,0,0,1-.35.37.35.35,0,0,1-.43-.36Z"/><path d="M112.47,5.46a.42.42,0,0,1,.13-.36.46.46,0,0,1,.6.13c.51.79,12.89,19.91,4.15,30.13a1.05,1.05,0,0,1-.32.42.39.39,0,0,1-.54-.57c.08-.1.08-.1.08-.13l0-.12.08,0c8.46-9.73-4.08-29.06-4.18-29.26A.51.51,0,0,1,112.47,5.46Z"/><path d="M97.58,18.1c0-.1,0-.16,0-.19,3.86-4,11-5.67,11.3-5.73a.25.25,0,0,1,.3.19c0,.15-.08.23-.19.29S101.68,14.3,98,18.25a.23.23,0,0,1-.35,0A.25.25,0,0,1,97.58,18.1Z"/><path d="M108.8,12.52a.29.29,0,0,1,.14-.2.19.19,0,0,1,.29.08c.19.26,4.08,6.27,4.08,11.72,0,.4-.06.82-.09,1.22l.22.11-.32.23c-.08.1-.19.1-.3,0a.19.19,0,0,1-.08-.16h0V25.4c.75-5.58-3.83-12.69-3.86-12.74A.16.16,0,0,1,108.8,12.52Z"/><path d="M93.4,18a30.44,30.44,0,0,1,7.42-5.51,28.52,28.52,0,0,1,6-2.41c1.7-.35,2.86-.61,2.86-.61a.42.42,0,0,1,.48.3.4.4,0,0,1-.32.5h-.08s-1.11.22-2.81.47A25.07,25.07,0,0,0,101,12.86,30.36,30.36,0,0,0,93.4,18Z"/><path d="M117.46,27.56a31.72,31.72,0,0,0-1.94-9A27.33,27.33,0,0,0,112.6,13c-1-1.34-1.69-2.27-1.69-2.27l0-.08a.43.43,0,0,1,.08-.54.4.4,0,0,1,.57.08v0s.7,1,1.67,2.41a24.77,24.77,0,0,1,2.67,5.85A31.78,31.78,0,0,1,117.46,27.56Z"/><path d="M42.7,25.29c0-9.57,6.61-20.09,7-20.71a.41.41,0,0,1,.56-.1.35.35,0,0,1,.14.54c-.14.21-13.08,20.69-3,30.22a.39.39,0,0,1,0,.54.41.41,0,0,1-.59,0A14,14,0,0,1,42.7,25.29Z"/><path d="M49.77,4.79s0,0,0,0a.39.39,0,0,1,.45-.31c1,.2,23.22,4.94,24.25,18.39.21.42,0,.85-.33.85a.37.37,0,0,1-.37-.38v-.16L73.72,23l0-.06C72.83,10.05,50.34,5.25,50.09,5.2A.45.45,0,0,1,49.77,4.79Z"/><path d="M48.23,24.12c0-5.48,3.78-11.52,3.94-11.75a.21.21,0,0,1,.32-.08.22.22,0,0,1,.08.31c0,.06-3.88,6.16-3.88,11.52v.28h0a.22.22,0,0,1-.24.23.27.27,0,0,1-.22-.23Z"/><path d="M52.25,12.49v0a.32.32,0,0,1,.3-.21c.32.11,8.41,1.84,12,6.35h.13v.31c0,.12,0,.23-.13.23s-.22,0-.25-.06h0L64.22,19c-3.42-4.42-11.7-6.27-11.78-6.27A.21.21,0,0,1,52.25,12.49Z"/><path d="M45.32,27.45a31.07,31.07,0,0,1,1.35-9.14,26.77,26.77,0,0,1,2.51-5.88c1-1.5,1.59-2.5,1.59-2.5a.37.37,0,0,1,.54-.11.38.38,0,0,1,.13.57h0l0,0s-.7.93-1.67,2.31a28.52,28.52,0,0,0-2.69,5.66A31.73,31.73,0,0,0,45.32,27.45Z"/><path d="M69.1,17.17a32.65,32.65,0,0,0-7.73-5,30.14,30.14,0,0,0-6-1.9c-1.67-.25-2.8-.4-2.8-.4h-.06a.4.4,0,1,1,.11-.8h0l2.89.54a28.85,28.85,0,0,1,6,2.21A32.39,32.39,0,0,1,69.1,17.17Z"/><path d="M4.92,48.78a.44.44,0,0,1,.32-.42.46.46,0,0,1,.49.31c0,.26,5.37,23.89,19.2,23.52a.38.38,0,0,1,.41.37h0A.4.4,0,0,1,25,73c-14.51.37-19.8-23.12-20-24.12Z"/><path d="M5,48.67a.54.54,0,0,1,.16-.34c.84-.54,19.93-12.91,30.18-4.12a1.78,1.78,0,0,1,.32.2.42.42,0,0,1,.06.59.36.36,0,0,1-.52,0,.51.51,0,0,1-.16-.11h-.13l-.06-.08c-9.73-8.47-29,4-29.23,4.2a.39.39,0,0,1-.54-.14A.34.34,0,0,1,5,48.67Z"/><path d="M12.15,52.58a.21.21,0,0,1,.19-.23.19.19,0,0,1,.27.18c.05,0,1.67,7.29,5.61,11,.08.11.1.26,0,.31a.21.21,0,0,1-.33,0c-4-3.8-5.66-11-5.71-11.24Z"/><path d="M12.26,52.47c0-.09.05-.14.13-.2.27-.2,7.2-4.68,12.92-4l.19-.16.16.23a.24.24,0,0,1,0,.34.21.21,0,0,1-.11.08h-.13c-5.58-.72-12.7,3.86-12.78,3.88a.21.21,0,0,1-.3-.08S12.26,52.53,12.26,52.47Z"/><path d="M18,68.16a32.23,32.23,0,0,1-5.5-7.46,29.2,29.2,0,0,1-2.37-6c-.38-1.7-.65-2.87-.65-2.87a.44.44,0,0,1,.3-.48.43.43,0,0,1,.51.31v.09s.19,1.13.46,2.81a30.2,30.2,0,0,0,2.1,5.95A32.36,32.36,0,0,0,18,68.16Z"/><path d="M27.55,44.05a31.9,31.9,0,0,0-9,2A28.9,28.9,0,0,0,13,48.87l-2.27,1.7,0,.06a.4.4,0,1,1-.46-.65h0s.94-.69,2.43-1.66a28.81,28.81,0,0,1,5.82-2.68A31.29,31.29,0,0,1,27.55,44.05Z"/><path d="M4.35,111.46c0-.08.06-.13.11-.18a.39.39,0,0,1,.54-.17c.22.17,20.66,13.11,30.23,3a.38.38,0,0,1,.57,0,.57.57,0,0,1,0,.59c-10,10.52-30.37-2.37-31.23-3A.39.39,0,0,1,4.35,111.46Z"/><path d="M4.41,111.33v0C4.6,110.31,9.34,88,22.8,87a1.48,1.48,0,0,1,.41-.11.47.47,0,0,1,.43.43.35.35,0,0,1-.33.4h-.19l-.13.09,0-.06c-12.89.94-17.7,23.41-17.75,23.65a.39.39,0,0,1-.46.3A.37.37,0,0,1,4.41,111.33Z"/><path d="M12.23,109.17a.58.58,0,0,1,0-.16.29.29,0,0,1,.33-.05c.05.05,6.36,4,11.78,3.88.11,0,.19.06.22.22h0a.23.23,0,0,1-.22.21c-5.58.16-11.78-3.77-12-3.91A.29.29,0,0,1,12.23,109.17Z"/><path d="M12.23,109l0-.05c.08-.33,1.83-8.42,6.33-12v-.16h.27a.24.24,0,0,1,.19.38v0l-.08,0c-4.45,3.43-6.26,11.73-6.28,11.79a.22.22,0,0,1-.24.19A.25.25,0,0,1,12.23,109Z"/><path d="M27.47,116.18a32,32,0,0,1-9.2-1.32,28.53,28.53,0,0,1-5.88-2.5l-2.48-1.62a.39.39,0,0,1-.11-.54c.11-.16.38-.25.51-.11h0l.06,0s1,.65,2.34,1.62a27,27,0,0,0,5.69,2.75A32.22,32.22,0,0,0,27.47,116.18Z"/><path d="M17.14,92.4a32.73,32.73,0,0,0-5,7.77,28,28,0,0,0-1.92,6c-.24,1.7-.4,2.81-.4,2.81v.11a.49.49,0,0,1-.49.35.45.45,0,0,1-.3-.49h0s.19-1.16.52-2.91a31.51,31.51,0,0,1,2.26-6A31.18,31.18,0,0,1,17.14,92.4Z"/><path d="M48.37,156.18a.36.36,0,0,1,.29-.35c.25-.06,23.49-5.34,23.49-18.93v-.3a.38.38,0,0,1,.41-.41.4.4,0,0,1,.4.36v.35c0,14.24-23.14,19.47-24.14,19.68a.39.39,0,0,1-.45-.32Z"/><path d="M41.06,135.41a13.72,13.72,0,0,1,3.1-9.25,1.15,1.15,0,0,1,.22-.32.41.41,0,0,1,.67.48l-.08.06v.11l-.14.13c-8.46,9.79,4.05,29.07,4.16,29.26a.35.35,0,0,1-.08.54.41.41,0,0,1-.54-.11C47.91,155.72,41.06,145.09,41.06,135.41Z"/><path d="M52.3,149.14a.21.21,0,0,1,.19-.24c.08,0,7.31-1.65,11.09-5.64a.29.29,0,0,1,.29,0c.11.11.14.27,0,.35-3.86,4-11,5.69-11.3,5.75s-.27-.06-.3-.17Z"/><path d="M48.18,136.06l.19-.22a.23.23,0,0,1,.37.19h0l0,.11c-.78,5.56,3.86,12.68,3.91,12.76a.25.25,0,0,1-.08.35.25.25,0,0,1-.32-.11c-.13-.27-4-6.31-4-11.7a5.71,5.71,0,0,1,.09-1.25Z"/><path d="M68.13,143.53a31,31,0,0,1-7.44,5.5,28.57,28.57,0,0,1-6,2.43l-2.86.59a.39.39,0,0,1-.48-.29.47.47,0,0,1,.29-.52h.06s1.13-.16,2.83-.45a27.16,27.16,0,0,0,6-2.08A31.8,31.8,0,0,0,68.13,143.53Z"/><path d="M44,134a32.3,32.3,0,0,0,2,9,27,27,0,0,0,2.89,5.6l1.7,2.3h0a.45.45,0,0,1-.08.59.39.39,0,0,1-.56-.11h0s-.65-1-1.65-2.43a27.06,27.06,0,0,1-2.69-5.82A30.4,30.4,0,0,1,44,134Z"/><path d="M111,156.75a.4.4,0,0,1,0-.25c.17-.19,13.11-20.68,3-30.18a.41.41,0,0,1,0-.56.39.39,0,0,1,.54,0c10.52,10-2.35,30.34-2.88,31.23a.39.39,0,0,1-.54.11A.34.34,0,0,1,111,156.75Z"/><path d="M86.9,138.3a.44.44,0,0,1,.41-.43.39.39,0,0,1,.38.38v.16l.1.1,0,.09c.89,12.91,23.4,17.66,23.65,17.71a.43.43,0,0,1,.32.49.42.42,0,0,1-.48.3c-1-.19-23.22-4.94-24.3-18.34A.92.92,0,0,1,86.9,138.3Z"/><path d="M108.91,149a.17.17,0,0,1,0-.11s3.88-6.14,3.88-11.48v-.3a.22.22,0,1,1,.43,0v.3c0,5.44-3.77,11.48-3.94,11.75a.19.19,0,0,1-.27.06A.22.22,0,0,1,108.91,149Z"/><path d="M96.77,142.94v-.3a.25.25,0,0,1,.27-.24s.14,0,.14,0h0l.11.11c3.42,4.42,11.67,6.26,11.75,6.26a.27.27,0,0,1,.19.27.18.18,0,0,1-.27.16c-.35-.06-8.44-1.78-12-6.31Z"/><path d="M116.19,134.09a30.54,30.54,0,0,1-1.37,9.12,26.44,26.44,0,0,1-2.49,5.93c-1,1.48-1.61,2.48-1.61,2.48a.38.38,0,0,1-.54.08.39.39,0,0,1-.14-.54l0,0,0,0s.67-1,1.64-2.35a29.56,29.56,0,0,0,2.75-5.63A31.1,31.1,0,0,0,116.19,134.09Z"/><path d="M92.41,144.34a31.4,31.4,0,0,0,7.76,5,29.22,29.22,0,0,0,6,1.88c1.67.27,2.8.41,2.8.41H109a.4.4,0,0,1,.3.46.41.41,0,0,1-.43.37l0,0s-1.13-.19-2.88-.54a27.63,27.63,0,0,1-6-2.18A31.1,31.1,0,0,1,92.41,144.34Z"/><path d="M136.17,89a.39.39,0,0,1,.38-.38c14.48-.38,19.8,23.09,20,24.14a.38.38,0,0,1-.32.46.4.4,0,0,1-.46-.33c-.05-.24-5.37-23.84-19.2-23.49a.4.4,0,0,1-.41-.4Z"/><path d="M125.66,116.78a.47.47,0,0,1,.1-.22.35.35,0,0,1,.52-.08l.16.14h.13l0,0c9.76,8.47,29.07-4,29.26-4.13a.41.41,0,0,1,.57.11.38.38,0,0,1-.16.52c-.79.56-19.91,12.94-30.13,4.15a.48.48,0,0,1-.32-.22C125.71,117.08,125.66,116.91,125.66,116.78Z"/><path d="M143.19,97.79a.19.19,0,0,1,.1-.16c.08-.11.19-.11.3,0,4,3.89,5.69,11,5.77,11.3,0,.14-.08.24-.21.3a.23.23,0,0,1-.25-.22c0-.05-1.7-7.31-5.61-11.05A.2.2,0,0,1,143.19,97.79Z"/><path d="M135.8,113a.17.17,0,0,1,.08-.16s.05,0,.08-.11h.16c5.56.76,12.7-3.8,12.78-3.82a.18.18,0,0,1,.3,0c.08.11.05.27,0,.3-.3.21-7.29,4.66-13,4l-.13.13-.19-.21A.17.17,0,0,1,135.8,113Z"/><path d="M143.48,93.37a33,33,0,0,1,5.56,7.44,30.32,30.32,0,0,1,2.37,6l.65,2.86a.42.42,0,0,1-.35.48.4.4,0,0,1-.46-.32v0s-.16-1.14-.51-2.81a24.82,24.82,0,0,0-2.05-5.93A31.29,31.29,0,0,0,143.48,93.37Z"/><path d="M134,117.48a31.59,31.59,0,0,0,9-1.94,27.09,27.09,0,0,0,5.59-2.89c1.42-1,2.29-1.7,2.29-1.7l.05,0a.42.42,0,0,1,.49.67h0s-1,.68-2.46,1.65a27.05,27.05,0,0,1-5.82,2.7A32.41,32.41,0,0,1,134,117.48Z"/><path d="M131.21,102.59a1,1,0,0,1-1-1,1.05,1.05,0,1,1,2.1,0A1,1,0,0,1,131.21,102.59Z"/><path d="M129.78,98.87a1.07,1.07,0,0,1-1-1.08,1,1,0,0,1,2.07,0A1.07,1.07,0,0,1,129.78,98.87Z"/><path d="M127.81,104.43a1.05,1.05,0,0,1-1-1,1.07,1.07,0,0,1,2.13,0A1.05,1.05,0,0,1,127.81,104.43Z"/><path d="M127.81,95.47a1.08,1.08,0,1,1,1.08-1.07A1.07,1.07,0,0,1,127.81,95.47Z"/><path d="M124.17,105.18a1.06,1.06,0,0,1-1-1.08,1.06,1.06,0,1,1,2.11,0A1.06,1.06,0,0,1,124.17,105.18Z"/><path d="M124.58,93.26a1,1,0,0,1-1-1,1.05,1.05,0,0,1,1-1.08,1.08,1.08,0,0,1,1,1.08A1,1,0,0,1,124.58,93.26Z"/><path d="M120.88,104.91a1,1,0,0,1-1-1,1.06,1.06,0,0,1,1-1.08,1,1,0,0,1,1,1.08A1,1,0,0,1,120.88,104.91Z"/><path d="M131.91,60.5a1,1,0,0,1-1.51,0,1,1,0,0,1,0-1.5,1.06,1.06,0,0,1,1.51,1.5Z"/><path d="M128.25,58.91a1.07,1.07,0,1,1-1.54-1.5,1.08,1.08,0,0,1,1.51,0A1.12,1.12,0,0,1,128.25,58.91Z"/><path d="M130.81,64.22a1.06,1.06,0,0,1-1.51,0,1,1,0,0,1,0-1.51,1.07,1.07,0,0,1,1.51,1.51Z"/><path d="M124.44,57.87a1.06,1.06,0,0,1-1.51,0,1,1,0,0,1,0-1.51,1.12,1.12,0,0,1,1.51,0A1.08,1.08,0,0,1,124.44,57.87Z"/><path d="M128.73,67.33a1.08,1.08,0,0,1-1.51,0,1,1,0,0,1,0-1.49,1.08,1.08,0,0,1,1.51,0A1.06,1.06,0,0,1,128.73,67.33Z"/><path d="M120.64,58.62a1.08,1.08,0,0,1-1.54,0,1.11,1.11,0,0,1,0-1.52,1.15,1.15,0,0,1,1.49,0A1.1,1.1,0,0,1,120.64,58.62Z"/><path d="M126.2,69.44a1,1,0,0,1-1.49,0,1,1,0,0,1,0-1.5,1.09,1.09,0,0,1,1.49,0A1,1,0,0,1,126.2,69.44Z"/><path d="M102.6,30.28a1.07,1.07,0,0,1-1,1,1,1,0,1,1,0-2.1A1.07,1.07,0,0,1,102.6,30.28Z"/><path d="M98.88,31.75a1.11,1.11,0,0,1-1.11,1,1.1,1.1,0,0,1-1-1,1.05,1.05,0,0,1,1-1.07A1.1,1.1,0,0,1,98.88,31.75Z"/><path d="M104.41,33.69a1,1,0,0,1-1,1.05,1.05,1.05,0,1,1,0-2.1A1,1,0,0,1,104.41,33.69Z"/><path d="M95.43,33.69a1,1,0,0,1-1.06,1.05,1.05,1.05,0,1,1,0-2.1A1,1,0,0,1,95.43,33.69Z"/><path d="M105.13,37.34a1,1,0,0,1-1,1.06,1.06,1.06,0,1,1,0-2.11A1,1,0,0,1,105.13,37.34Z"/><path d="M93.27,36.91a1.06,1.06,0,1,1-1-1A1.05,1.05,0,0,1,93.27,36.91Z"/><path d="M104.89,40.63a1.06,1.06,0,0,1-1.08,1.06,1.06,1.06,0,1,1,1.08-1.06Z"/><path d="M60.5,29.6a1.17,1.17,0,0,1,0,1.53A1.06,1.06,0,0,1,59,29.6,1.13,1.13,0,0,1,60.5,29.6Z"/><path d="M58.88,33.31a1.07,1.07,0,0,1,0,1.49,1,1,0,0,1-1.46,0,1.05,1.05,0,1,1,1.48-1.49Z"/><path d="M64.22,30.74a1,1,0,0,1,0,1.49,1.06,1.06,0,0,1-1.49,0,1.06,1.06,0,0,1,1.51-1.49Z"/><path d="M57.86,37.09a1.14,1.14,0,0,1,0,1.51,1.13,1.13,0,0,1-1.54,0,1.14,1.14,0,0,1,0-1.51A1.16,1.16,0,0,1,57.86,37.09Z"/><path d="M67.33,32.83a1.06,1.06,0,1,1-1.54,0A1,1,0,0,1,67.33,32.83Z"/><path d="M58.61,40.92a1,1,0,0,1,0,1.48,1.06,1.06,0,0,1-1.51,0,1,1,0,0,1,0-1.46A1,1,0,0,1,58.61,40.92Z"/><path d="M69.46,35.31a1.07,1.07,0,0,1-1.54,1.5,1.13,1.13,0,0,1,0-1.5A1.12,1.12,0,0,1,69.46,35.31Z"/><path d="M30.27,59a1.06,1.06,0,1,1,0,2.11A1.05,1.05,0,0,1,29.22,60,1,1,0,0,1,30.27,59Z"/><path d="M31.73,62.65a1.06,1.06,0,0,1,1.05,1.08,1,1,0,0,1-1.05,1.08,1.05,1.05,0,0,1-1.05-1.08A1.08,1.08,0,0,1,31.73,62.65Z"/><path d="M33.67,57.1a1.06,1.06,0,0,1,1.08,1,1.08,1.08,0,0,1-1.08,1.08,1.05,1.05,0,1,1,0-2.1Z"/><path d="M33.67,66.09a1.06,1.06,0,0,1,1.08,1,1.08,1.08,0,1,1-1.08-1Z"/><path d="M37.36,56.36a1.07,1.07,0,0,1,1,1,1.06,1.06,0,1,1-1-1Z"/><path d="M36.91,68.25a1.05,1.05,0,1,1,0,2.1,1.05,1.05,0,1,1,0-2.1Z"/><path d="M40.6,56.64a1.05,1.05,0,1,1,0,2.1,1.05,1.05,0,0,1,0-2.1Z"/><path d="M29.62,101a1.07,1.07,0,0,1,1.51,0,1.12,1.12,0,0,1,0,1.51,1.08,1.08,0,0,1-1.49,0A1.1,1.1,0,0,1,29.62,101Z"/><path d="M33.29,102.65a1,1,0,0,1,1.48,0,1,1,0,0,1,0,1.45,1,1,0,0,1-1.48,0A1,1,0,0,1,33.29,102.65Z"/><path d="M30.7,97.31a1.12,1.12,0,0,1,1.51,0,1.06,1.06,0,0,1,0,1.49,1,1,0,0,1-1.51,0A1.14,1.14,0,0,1,30.7,97.31Z"/><path d="M37,103.67a1.08,1.08,0,0,1,1.54,1.51,1.08,1.08,0,0,1-1.51,0A1.11,1.11,0,0,1,37,103.67Z"/><ellipse cx="33.53" cy="94.95" rx="1.07" ry="1.04"/><path d="M40.9,102.94a1,1,0,0,1,1.48,0,1.07,1.07,0,0,1,0,1.51,1,1,0,0,1-1.51,0A1.06,1.06,0,0,1,40.9,102.94Z"/><path d="M35.29,92.08a1.05,1.05,0,0,1,1.53,0,1.07,1.07,0,0,1,0,1.48,1.1,1.1,0,0,1-1.53,0A1,1,0,0,1,35.29,92.08Z"/><path d="M58.91,131.23a1.05,1.05,0,0,1,1.05-1,1,1,0,1,1,0,2.07A1,1,0,0,1,58.91,131.23Z"/><path d="M62.66,129.78a1,1,0,0,1,1.05-1,1,1,0,0,1,1.05,1,1.08,1.08,0,0,1-1.05,1.08A1.06,1.06,0,0,1,62.66,129.78Z"/><path d="M57.05,127.84a1.08,1.08,0,0,1,1.08-1.06,1.1,1.1,0,0,1,1.08,1.06,1.11,1.11,0,0,1-1.08,1.07A1.13,1.13,0,0,1,57.05,127.84Z"/><path d="M66.06,127.86a1.07,1.07,0,1,1,1.08,1A1.06,1.06,0,0,1,66.06,127.86Z"/><path d="M56.32,124.22a1.08,1.08,0,1,1,1.08,1A1.07,1.07,0,0,1,56.32,124.22Z"/><path d="M68.24,124.6a1,1,0,0,1,1.05-1,1,1,0,0,1,1.06,1,1.06,1.06,0,0,1-2.11,0Z"/><path d="M56.59,120.9a1,1,0,0,1,1.08-1.05,1,1,0,0,1,1,1.05,1.07,1.07,0,0,1-1,1.06A1.08,1.08,0,0,1,56.59,120.9Z"/><path d="M101,131.93a1,1,0,0,1,0-1.5,1,1,0,0,1,1.46,0,1,1,0,0,1,0,1.5A1.15,1.15,0,0,1,101,131.93Z"/><path d="M102.63,128.21a1,1,0,0,1,0-1.48,1.14,1.14,0,0,1,1.51,0,1.13,1.13,0,0,1,0,1.48A1,1,0,0,1,102.63,128.21Z"/><path d="M97.29,130.8a1.08,1.08,0,0,1,0-1.51,1.13,1.13,0,0,1,1.53,0,1.07,1.07,0,1,1-1.53,1.51Z"/><path d="M103.68,124.44a1,1,0,0,1,0-1.51,1,1,0,0,1,1.45,0,1,1,0,0,1,0,1.51A1,1,0,0,1,103.68,124.44Z"/><path d="M94.16,128.75a1.15,1.15,0,0,1,0-1.51,1.11,1.11,0,0,1,1.52,0,1.1,1.1,0,0,1,0,1.51A1.18,1.18,0,0,1,94.16,128.75Z"/><path d="M102.92,120.61a1,1,0,0,1,0-1.48,1.08,1.08,0,0,1,1.51,0,1,1,0,0,1,0,1.48A1,1,0,0,1,102.92,120.61Z"/><path d="M92.05,126.22a1.07,1.07,0,0,1,0-1.51,1.12,1.12,0,0,1,1.49,0,1,1,0,0,1,0,1.51A1.08,1.08,0,0,1,92.05,126.22Z"/><path d="M42.86,80.75a37.88,37.88,0,1,1,37.89,37.89A37.93,37.93,0,0,1,42.86,80.75Zm74.57,0a36.71,36.71,0,1,0-36.68,36.7A36.7,36.7,0,0,0,117.43,80.75Z"/></g></svg>