<svg xmlns="http://www.w3.org/2000/svg" viewBox="0 0 161.51 161.51"><title>circle-09</title><g id="Objects_path-filder"><path d="M48.91,80.75a31.85,31.85,0,1,1,31.85,31.84A31.88,31.88,0,0,1,48.91,80.75Zm62.88,0a31.05,31.05,0,1,0-31,31.07A31,31,0,0,0,111.79,80.75Z"/><path d="M59.69,80.75a21.08,21.08,0,1,1,21.07,21.07A21.1,21.1,0,0,1,59.69,80.75Zm41.53,0a20.47,20.47,0,1,0-20.46,20.48A20.49,20.49,0,0,0,101.22,80.75Z"/><path d="M61.74,80.75a19,19,0,1,1,19,19A19,19,0,0,1,61.74,80.75Zm37.46,0A18.43,18.43,0,1,0,80.76,99.18,18.47,18.47,0,0,0,99.2,80.75Z"/><polygon points="101.33 77.85 111.9 76.53 112.01 77.11 101.39 78.44 101.33 77.85"/><polygon points="100.82 75.29 111.15 72.65 111.28 73.23 100.95 75.86 100.82 75.29"/><polygon points="98.8 70.47 108.18 65.32 108.45 65.85 99.09 70.99 98.8 70.47"/><polygon points="97.37 68.29 106.02 62.02 106.35 62.49 97.69 68.76 97.37 68.29"/><polygon points="95.69 66.31 103.46 58.99 103.87 59.42 96.07 66.74 95.69 66.31"/><polygon points="93.73 64.56 100.55 56.33 101.01 56.71 94.19 64.92 93.73 64.56"/><polygon points="91.57 63.05 97.34 54.04 97.83 54.35 92.08 63.37 91.57 63.05"/><polygon points="89.28 61.83 93.83 52.16 94.38 52.42 89.82 62.06 89.28 61.83"/><polygon points="86.88 60.9 90.17 50.75 90.73 50.94 87.44 61.09 86.88 60.9"/><polygon points="84.34 60.31 86.34 49.8 86.91 49.9 84.94 60.42 84.34 60.31"/><polygon points="81.73 60.01 82.4 49.34 83 49.39 82.32 60.05 81.73 60.01"/><polygon points="78.44 49.39 79.03 49.34 79.7 60.01 79.11 60.05 78.44 49.39"/><polygon points="74.55 49.9 75.12 49.8 77.12 60.31 76.55 60.42 74.55 49.9"/><polygon points="70.75 50.94 71.29 50.76 74.58 60.91 74.04 61.12 70.75 50.94"/><polygon points="67.06 52.43 67.59 52.18 72.15 61.84 71.61 62.1 67.06 52.43"/><polygon points="63.63 54.35 64.12 54.06 69.86 63.07 69.35 63.4 63.63 54.35"/><polygon points="60.48 56.72 60.91 56.33 67.7 64.58 67.24 64.96 60.48 56.72"/><polygon points="57.59 59.46 57.99 59.03 65.79 66.35 65.36 66.78 57.59 59.46"/><polygon points="55.08 62.52 55.46 62.05 64.12 68.33 63.74 68.82 55.08 62.52"/><polygon points="53.03 65.88 53.3 65.36 62.66 70.53 62.39 71.04 53.03 65.88"/><polygon points="51.36 69.48 51.6 68.92 61.55 72.86 61.31 73.41 51.36 69.48"/><polygon points="50.17 73.25 50.34 72.69 60.67 75.34 60.5 75.92 50.17 73.25"/><polygon points="49.5 77.14 49.58 76.54 60.15 77.9 60.07 78.53 49.5 77.14"/><polygon points="49.28 81.09 49.28 80.49 59.96 80.52 59.96 81.09 49.28 81.09"/><polygon points="49.5 84.43 60.07 83.15 60.18 83.7 49.58 85.02 49.5 84.43"/><polygon points="50.2 88.31 60.56 85.66 60.69 86.28 50.36 88.89 50.2 88.31"/><polygon points="51.39 92.09 61.34 88.18 61.55 88.75 51.63 92.63 51.39 92.09"/><polygon points="53.03 95.68 62.39 90.54 62.66 91.05 53.36 96.2 53.03 95.68"/><polygon points="55.11 99.02 63.77 92.75 64.12 93.26 55.49 99.51 55.11 99.02"/><polygon points="57.62 102.11 65.41 94.81 65.82 95.25 58.02 102.51 57.62 102.11"/><polygon points="60.48 104.83 67.3 96.63 67.73 97 60.93 105.18 60.48 104.83"/><polygon points="63.66 107.19 69.38 98.17 69.89 98.51 64.17 107.5 63.66 107.19"/><polygon points="67.08 109.09 71.64 99.47 72.18 99.75 67.62 109.35 67.08 109.09"/><polygon points="70.75 110.59 74.07 100.46 74.61 100.64 71.34 110.77 70.75 110.59"/><polygon points="74.58 111.61 76.6 101.12 77.17 101.29 75.15 111.71 74.58 111.61"/><polygon points="78.46 112.15 79.17 101.49 79.76 101.54 79.06 112.18 78.46 112.15"/><polygon points="81.78 101.54 82.37 101.49 83.02 112.15 82.43 112.18 81.78 101.54"/><polygon points="84.37 101.29 84.94 101.12 86.93 111.61 86.36 111.71 84.37 101.29"/><polygon points="86.91 100.61 87.47 100.46 90.73 110.59 90.17 110.77 86.91 100.61"/><polygon points="89.33 99.72 89.87 99.44 94.38 109.09 93.83 109.35 89.33 99.72"/><polygon points="91.63 98.48 92.14 98.14 97.85 107.19 97.37 107.5 91.63 98.48"/><polygon points="93.75 96.97 94.24 96.61 101.01 104.83 100.55 105.18 93.75 96.97"/><polygon points="95.69 95.22 96.1 94.76 103.87 102.08 103.46 102.51 95.69 95.22"/><polygon points="97.42 93.22 97.74 92.72 106.35 99.02 106.02 99.48 97.42 93.22"/><polygon points="98.82 91.01 99.15 90.51 108.45 95.68 108.18 96.2 98.82 91.01"/><polygon points="99.96 88.69 100.2 88.13 110.1 92.09 109.91 92.63 99.96 88.69"/><polygon points="100.85 86.22 100.95 85.63 111.26 88.31 111.15 88.89 100.85 86.22"/><polygon points="101.36 83.66 101.41 83.04 111.99 84.43 111.9 85.02 101.36 83.66"/><path d="M109.91,68.88c13.59-5.17,26.53,11.44,26.64,11.61l.06,0-.46.47-.08,0c-.16-.22-12.81-16.44-25.95-11.42Z"/><path d="M109.91,92.49l.21-.62c13.08,5,25.79-11.21,25.95-11.4l.08-.07.46.43-.06.11C136,81.57,123.45,97.63,109.91,92.49Z"/><path d="M111.07,72.42l1.05-.39c9.2-3.4,17.85,6.54,19.47,8.54l0,.06-.27.25-.08,0c-1.61-2-10.08-11.73-19-8.44l-1,.4Z"/><path d="M111.07,89l.13-.35,1,.4c8.07,3,15.89-4.77,18.91-8.22l.08-.1v-.05l.13-.16.22.21h0v.15l-.19.2c-3,3.5-11,11.38-19.33,8.34Z"/><path d="M96.29,53.43l.49-1c4.07-8.91,17.2-8,19.82-7.73l0,0,0,.39-.08,0c-2.59-.27-15.45-1.17-19.47,7.5l-.46,1Z"/><path d="M107.83,64.77l1-.46c7.79-3.6,7.9-14.63,7.55-19.17V45l-.06,0v-.19h.27l.06-.05.11.11v.28c.35,4.67.24,15.86-7.8,19.54l-1,.47Z"/><path d="M71.34,45.52c0-7.62,7.53-14.18,9.25-15.6l0-.05.3.26-.06.05c-2,1.66-11.73,10.17-8.44,19.07l.38,1-.38.16L72,49.4A11.76,11.76,0,0,1,71.34,45.52Z"/><path d="M80.51,30.14l.19-.22v-.05h.14l.24.21c3.48,3,11.33,11,8.28,19.32l-.43,1.06-.35-.16.4-1c3-8-4.72-15.88-8.2-18.89l-.1-.08h-.06Z"/><path d="M44.57,48.09c0-1.44.08-2.56.13-3.13v-.09h.38l0,.1c-.27,2.56-1.1,15.47,7.5,19.42l1,.49-.19.36-1-.49C45.56,61.6,44.57,53,44.57,48.09Z"/><path d="M44.73,44.83l0-.06h.06l0,0,.27,0c4.64-.34,15.89-.26,19.58,7.79l.46,1-.35.15-.48-1c-3.59-7.81-14.62-7.88-19.15-7.54H45l-.05,0h-.19Z"/><path d="M29.89,80.88l.25-.28.1.11c2.3,2.76,10.42,11.58,19,8.4l1.07-.36.11.36-1,.35c-8.87,3.29-17.15-5.7-19.47-8.52Z"/><path d="M29.87,80.78l0-.06v0l.17-.19c3-3.54,11-11.42,19.36-8.34l1,.4-.13.37-1.05-.4c-8.07-3-15.91,4.75-18.88,8.23l-.11.08v0l-.11.15Z"/><path d="M44.86,116.44l.11,0,.05,0c3.59.34,15.54.82,19.37-7.52l.45-1,.41.16-.49,1c-3.93,8.54-16.12,8.07-19.76,7.74l-.11,0Z"/><path d="M44.62,113.66c0-5.39,1.19-13.71,7.87-16.8l1-.48.19.38-1,.44c-7.85,3.6-7.87,14.62-7.58,19.16l0,.14,0,0v.17l-.35.06-.08,0v0l0,0v-.26C44.67,115.65,44.62,114.72,44.62,113.66Z"/><path d="M80.62,131.37l.11-.12c2.78-2.3,11.54-10.49,8.38-19l-.4-1,.38-.13.38,1c3.26,8.79-5.67,17.11-8.47,19.44l-.11.11Z"/><path d="M71.48,116a11,11,0,0,1,.67-3.88l.41-1.08.37.15-.4,1c-3,8,4.75,15.91,8.2,18.89l.11.11h0l.14.09-.27.31,0,0h0l-.2-.17C77.52,128.87,71.48,122.82,71.48,116Z"/><path d="M107.91,96.66l.17-.36,1,.46c8.58,3.91,8.12,16.14,7.77,19.76v.1l-.41,0v-.14c.36-3.6.81-15.58-7.49-19.38Z"/><path d="M96.4,108l.35-.18.46,1c3.61,7.83,14.58,7.88,19.17,7.55h.13l0-.06h.19l.06.37h0v0h0l0,0-.25,0c-4.66.33-15.88.25-19.55-7.8Z"/><path d="M92.92,51.76C99,38.4,119.83,41.07,120.05,41.12l0,.65H120c-.22,0-20.55-2.66-26.43,10.26Z"/><path d="M109.42,67.9c12.81-5.8,10.28-26.2,10.25-26.42v-.17h.65v.13c.05.17,2.61,21.05-10.65,27.05Z"/><path d="M67.89,46.16c0-10.29,10-19.12,12.54-21.15a.37.37,0,0,1,.33-.21v.67a.27.27,0,0,0,.27-.25v.15l-.11.1c-2.73,2.19-16,13.71-11.41,25.91l-.62.24A15.35,15.35,0,0,1,67.89,46.16Z"/><path d="M80.38,25.37v-.15a.26.26,0,0,0,.24.25V24.8A.42.42,0,0,1,81,25c2.91,2.38,16.24,14.11,11.54,26.61l-.62-.24c4.59-12.15-8.68-23.72-11.38-25.91Z"/><path d="M40.9,45.85a37.73,37.73,0,0,1,.24-4.38l.65,0v.14C41.79,41.75,39.2,62.11,52,68l-.25.61C42.27,64.23,40.9,52.35,40.9,45.85Z"/><path d="M41.33,41.85v-.68h.13C43.59,41,62.74,39.3,68.51,51.83l-.59.27C62.34,40,43.62,41.61,41.46,41.85Z"/><path d="M24.93,81l.46-.47.06,0C25.61,80.78,38.28,97,51.39,92l.24.59C38.09,97.79,25.5,81.71,25,81Z"/><path d="M24.93,80.66,25,80.6C25.5,79.93,38.12,63.87,51.63,69l-.24.62c-13-5-25.38,10.74-25.92,11.4l-.08.08Z"/><path d="M41.46,119.73h.11c.22,0,20.55,2.59,26.4-10.27l.62.28C62.52,123,41.68,120.42,41.46,120.39Z"/><path d="M41,115.88C41,109.3,42.35,97.35,51.82,93l.3.59C40,99.18,41.6,117.91,41.87,120v.15h-.68v-.12C41.14,119.53,41,118,41,115.88Z"/><path d="M80.51,136.3v-.14l.11-.11c2.7-2.19,16-13.7,11.38-25.93l.59-.23c4.78,12.51-8.57,24.23-11.46,26.59a.57.57,0,0,1-.37.21V136A.26.26,0,0,0,80.51,136.3Z"/><path d="M68,115.34a15.16,15.16,0,0,1,1-5.45l.63.23c-4.56,12.2,8.68,23.74,11.38,25.93l.13.11v.14a.26.26,0,0,0-.27-.28v.67a.35.35,0,0,1-.32-.21C78.06,134.48,68,125.66,68,115.34Z"/><path d="M109.5,93.57l.25-.62C123.12,99,120.42,119.81,120.4,120l-.65,0v-.14C119.78,119.73,122.42,99.38,109.5,93.57Z"/><path d="M93,109.66l.6-.26c5.8,12.85,26.21,10.28,26.4,10.28h.16v.64h-.11C119.89,120.35,99,123,93,109.66Z"/><rect x="131.43" y="80.55" width="4.93" height="0.39"/><polygon points="129.68 78.67 132.67 76.68 132.91 77 129.89 78.98 129.68 78.67"/><polygon points="127.57 76.64 130.54 74.75 130.75 75.09 127.79 76.96 127.57 76.64"/><polygon points="124.5 74.32 127.22 72.27 127.49 72.58 124.77 74.64 124.5 74.32"/><polygon points="126.03 75.44 128.68 73.29 128.92 73.62 126.3 75.73 126.03 75.44"/><line x1="124.61" y1="71.19" x2="122.31" y2="73.13"/><polygon points="119.94 72.01 122.74 69.76 122.99 70.08 120.18 72.31 119.94 72.01"/><polygon points="116.68 71.36 119.97 69.05 120.18 69.37 116.89 71.69 116.68 71.36"/><polygon points="112.93 71.78 116.62 68.2 116.92 68.49 113.25 72.07 112.93 71.78"/><polygon points="110.96 71.84 112.93 68.28 113.28 68.47 111.31 72.03 110.96 71.84"/><polygon points="130.59 79.6 134.66 78.62 134.75 79.04 130.7 79.95 130.59 79.6"/><line x1="132.78" y1="84.48" x2="129.78" y2="82.42"/><line x1="130.65" y1="86.45" x2="127.68" y2="84.51"/><line x1="127.36" y1="89" x2="124.61" y2="86.9"/><line x1="128.81" y1="87.98" x2="126.17" y2="85.77"/><line x1="124.61" y1="90.31" x2="122.31" y2="88.29"/><line x1="122.88" y1="91.59" x2="120.07" y2="89.28"/><line x1="120.07" y1="92.35" x2="116.79" y2="89.93"/><line x1="116.79" y1="93.22" x2="113.09" y2="89.51"/><line x1="113.09" y1="93.17" x2="111.15" y2="89.51"/><line x1="134.72" y1="82.42" x2="130.65" y2="81.5"/><polygon points="116.46 44.77 116.51 44.72 119.91 41.3 120.24 41.58 120.13 41.66 116.73 45.06 116.46 44.77"/><polygon points="113.9 44.69 114.57 41.16 114.98 41.26 114.28 44.77 113.9 44.69"/><polygon points="110.96 44.73 111.72 41.31 112.12 41.39 111.34 44.83 110.96 44.73"/><polygon points="107.16 45.26 107.62 41.88 107.99 41.96 107.53 45.33 107.16 45.26"/><polygon points="108.99 44.96 109.37 41.59 109.75 41.63 109.42 45 108.99 44.96"/><line x1="105" y1="42.97" x2="104.76" y2="45.99"/><polygon points="102.28 46.85 102.68 43.3 103.06 43.36 102.68 46.91 102.28 46.85"/><polygon points="99.53 48.71 100.2 44.76 100.61 44.83 99.9 48.79 99.53 48.71"/><polygon points="97.18 51.64 97.26 46.49 97.64 46.49 97.58 51.64 97.18 51.64"/><line x1="94.86" y1="49.13" x2="95.99" y2="53.04"/><polygon points="115.17 44.67 117.38 41.15 117.7 41.34 115.52 44.87 115.17 44.67"/><polygon points="116.6 47.08 120.16 46.41 120.24 46.8 116.65 47.47 116.6 47.08"/><polygon points="116.54 50.03 120.02 49.3 120.13 49.71 116.62 50.42 116.54 50.03"/><polygon points="116.08 53.9 119.54 53.47 119.59 53.85 116.14 54.29 116.08 53.9"/><polygon points="116.41 52.02 119.83 51.69 119.86 52.08 116.43 52.41 116.41 52.02"/><line x1="118.51" y1="56.51" x2="115.46" y2="56.71"/><polygon points="114.57 58.8 118.19 58.45 118.21 58.85 114.63 59.19 114.57 58.8"/><polygon points="112.71 61.58 116.73 60.93 116.78 61.35 112.8 61.98 112.71 61.58"/><line x1="112.39" y1="66.67" x2="108.45" y2="65.49"/><polygon points="116.46 45.83 120.02 43.63 120.24 43.97 116.65 46.16 116.46 45.83"/><polygon points="80.59 30.06 80.59 29.98 80.59 25.13 80.97 25.14 80.97 25.28 80.97 30.08 80.59 30.06"/><line x1="76.85" y1="28.74" x2="78.87" y2="31.74"/><line x1="74.96" y1="30.87" x2="76.82" y2="33.84"/><line x1="72.42" y1="34.16" x2="74.5" y2="36.9"/><line x1="73.47" y1="32.71" x2="75.58" y2="35.35"/><line x1="71.18" y1="36.9" x2="73.15" y2="39.21"/><line x1="69.91" y1="38.64" x2="72.18" y2="41.43"/><line x1="69.21" y1="41.43" x2="71.53" y2="44.72"/><line x1="68.32" y1="44.72" x2="71.91" y2="48.42"/><line x1="68.38" y1="48.42" x2="71.94" y2="50.38"/><line x1="78.87" y1="26.8" x2="79.78" y2="30.87"/><polygon points="82.29 31.61 84.34 28.62 84.64 28.85 82.62 31.83 82.29 31.61"/><polygon points="84.37 33.72 86.31 30.75 86.64 30.98 84.69 33.95 84.37 33.72"/><polygon points="86.77 36.77 88.87 34.04 89.2 34.27 87.07 37.01 86.77 36.77"/><polygon points="85.64 35.23 87.8 32.57 88.12 32.83 85.96 35.47 85.64 35.23"/><line x1="90.3" y1="36.9" x2="88.28" y2="39.18"/><polygon points="89.14 41.31 91.46 38.53 91.73 38.79 89.41 41.58 89.14 41.31"/><polygon points="89.79 44.6 92.16 41.32 92.49 41.58 90.11 44.84 89.79 44.6"/><polygon points="89.39 48.27 93.08 44.59 93.35 44.85 89.66 48.55 89.39 48.27"/><polygon points="89.41 50.21 93.08 48.25 93.24 48.6 89.63 50.56 89.41 50.21"/><polygon points="81.29 30.82 82.24 26.75 82.64 26.84 81.67 30.9 81.29 30.82"/><polygon points="41.3 41.58 41.57 41.3 41.68 41.38 45.08 44.81 44.75 45.04 44.73 44.99 41.3 41.58"/><line x1="41.22" y1="46.74" x2="44.73" y2="47.44"/><line x1="41.38" y1="49.6" x2="44.78" y2="50.36"/><line x1="41.95" y1="53.7" x2="45.29" y2="54.17"/><line x1="41.62" y1="51.93" x2="45" y2="52.3"/><line x1="42.97" y1="56.52" x2="45.99" y2="56.73"/><line x1="43.32" y1="58.65" x2="46.88" y2="59.03"/><line x1="44.78" y1="61.13" x2="48.77" y2="61.79"/><line x1="46.51" y1="64.06" x2="51.69" y2="64.14"/><polygon points="49.09 66.46 53.01 65.32 53.11 65.72 49.17 66.83 49.09 66.46"/><line x1="41.25" y1="43.95" x2="44.78" y2="46.18"/><line x1="46.61" y1="41.32" x2="47.29" y2="44.88"/><line x1="49.55" y1="41.44" x2="50.23" y2="44.92"/><line x1="53.68" y1="41.97" x2="54.11" y2="45.38"/><line x1="51.9" y1="41.69" x2="52.22" y2="45.08"/><line x1="56.51" y1="42.98" x2="56.7" y2="46.04"/><line x1="58.67" y1="43.3" x2="58.99" y2="46.92"/><line x1="61.15" y1="44.77" x2="61.8" y2="48.77"/><rect x="63.9" y="46.46" width="0.38" height="5.23"/><polygon points="65.3 53.01 66.49 49.03 66.89 49.17 65.68 53.15 65.3 53.01"/><line x1="43.78" y1="41.42" x2="45.99" y2="44.96"/><polygon points="25.15 80.94 25.15 80.55 25.31 80.55 30.03 80.55 30.11 80.57 30.06 80.94 30 80.94 25.31 80.94 25.15 80.94"/><polygon points="28.65 84.48 31.65 82.5 31.84 82.84 28.87 84.83 28.65 84.48"/><polygon points="30.76 86.41 33.75 84.53 33.94 84.86 30.97 86.74 30.76 86.41"/><polygon points="34.08 88.89 36.77 86.87 37.01 87.21 34.29 89.23 34.08 88.89"/><polygon points="32.59 87.9 35.23 85.77 35.48 86.08 32.83 88.21 32.59 87.9"/><line x1="36.91" y1="90.31" x2="39.23" y2="88.33"/><polygon points="38.55 91.42 41.33 89.18 41.57 89.49 38.77 91.73 38.55 91.42"/><polygon points="41.35 92.13 44.62 89.82 44.83 90.13 41.55 92.47 41.35 92.13"/><polygon points="44.59 93.03 48.29 89.43 48.56 89.72 44.86 93.32 44.59 93.03"/><polygon points="48.23 93.03 50.2 89.46 50.58 89.68 48.61 93.22 48.23 93.03"/><polygon points="26.77 82.48 30.81 81.55 30.92 81.96 26.85 82.87 26.77 82.48"/><line x1="28.76" y1="77.01" x2="31.73" y2="79.06"/><line x1="30.89" y1="75.05" x2="33.83" y2="76.99"/><line x1="34.18" y1="72.48" x2="36.91" y2="74.59"/><line x1="32.72" y1="73.55" x2="35.34" y2="75.72"/><line x1="36.91" y1="71.2" x2="39.23" y2="73.23"/><line x1="38.66" y1="69.91" x2="41.46" y2="72.23"/><line x1="41.46" y1="69.17" x2="44.73" y2="71.55"/><line x1="44.73" y1="68.28" x2="48.42" y2="71.97"/><line x1="48.45" y1="68.3" x2="50.39" y2="71.97"/><line x1="26.79" y1="79.06" x2="30.87" y2="80.01"/><polygon points="41.3 119.93 41.41 119.84 44.81 116.44 45.05 116.75 45 116.81 41.57 120.22 41.3 119.93"/><polygon points="46.56 120.24 47.29 116.72 47.64 116.81 46.94 120.35 46.56 120.24"/><polygon points="49.42 120.1 50.17 116.67 50.55 116.75 49.8 120.19 49.42 120.1"/><polygon points="53.52 119.58 53.98 116.19 54.38 116.24 53.92 119.62 53.52 119.58"/><polygon points="51.77 119.85 52.12 116.5 52.52 116.55 52.17 119.88 51.77 119.85"/><line x1="56.54" y1="118.55" x2="56.76" y2="115.5"/><polygon points="58.45 118.19 58.86 114.59 59.23 114.65 58.86 118.22 58.45 118.19"/><polygon points="60.96 116.7 61.58 112.75 61.99 112.79 61.34 116.75 60.96 116.7"/><polygon points="63.85 115 63.95 109.86 64.33 109.86 64.28 115 63.85 115"/><line x1="66.65" y1="112.38" x2="65.52" y2="108.47"/><polygon points="43.78 120.14 46.02 116.62 46.34 116.86 44.16 120.35 43.78 120.14"/><polygon points="41.3 114.69 44.86 114.03 44.91 114.43 41.41 115.05 41.3 114.69"/><polygon points="41.46 111.76 44.86 111.08 44.97 111.45 41.49 112.18 41.46 111.76"/><polygon points="41.95 107.65 45.35 107.22 45.43 107.61 42 108.04 41.95 107.65"/><polygon points="41.68 109.46 45.08 109.09 45.1 109.51 41.7 109.81 41.68 109.46"/><line x1="43.03" y1="104.98" x2="46.05" y2="104.83"/><polygon points="43.3 102.67 46.88 102.31 46.94 102.73 43.35 103.05 43.3 102.67"/><polygon points="44.75 100.15 48.74 99.53 48.83 99.92 44.81 100.54 44.75 100.15"/><line x1="49.09" y1="94.81" x2="53.09" y2="96.01"/><polygon points="41.3 117.55 44.86 115.34 45.08 115.67 41.52 117.89 41.3 117.55"/><line x1="84.67" y1="132.76" x2="82.7" y2="129.75"/><line x1="86.58" y1="130.65" x2="84.69" y2="127.67"/><line x1="89.09" y1="127.34" x2="87.04" y2="124.61"/><line x1="88.04" y1="128.78" x2="85.93" y2="126.15"/><line x1="90.33" y1="124.61" x2="88.33" y2="122.31"/><line x1="91.57" y1="122.86" x2="89.33" y2="120.07"/><line x1="92.3" y1="120.07" x2="89.98" y2="116.81"/><line x1="93.16" y1="116.78" x2="89.57" y2="113.1"/><line x1="93.11" y1="113.1" x2="89.57" y2="111.13"/><line x1="82.7" y1="134.71" x2="81.75" y2="130.65"/><polygon points="76.87 132.65 78.92 129.7 79.25 129.91 77.2 132.89 76.87 132.65"/><polygon points="74.88 130.52 76.82 127.59 77.17 127.77 75.2 130.72 74.88 130.52"/><polygon points="72.34 127.2 74.44 124.48 74.74 124.75 72.64 127.48 72.34 127.2"/><polygon points="73.39 128.67 75.58 126.06 75.87 126.31 73.72 128.93 73.39 128.67"/><line x1="71.21" y1="124.61" x2="73.26" y2="122.32"/><polygon points="69.75 122.74 72.07 119.93 72.4 120.19 70.08 122.97 69.75 122.74"/><polygon points="69.03 119.93 71.37 116.67 71.72 116.9 69.35 120.16 69.03 119.93"/><polygon points="68.16 116.64 71.86 112.95 72.13 113.23 68.43 116.93 68.16 116.64"/><polygon points="68.22 112.89 71.88 110.94 72.07 111.3 68.43 113.26 68.22 112.89"/><polygon points="78.89 134.66 79.84 130.6 80.22 130.71 79.25 134.74 78.89 134.66"/><polygon points="116.43 116.7 116.76 116.47 116.78 116.52 120.24 119.93 119.91 120.22 119.83 120.12 116.43 116.7"/><line x1="120.29" y1="114.74" x2="116.79" y2="114.05"/><line x1="120.16" y1="111.92" x2="116.73" y2="111.16"/><line x1="119.59" y1="107.81" x2="116.22" y2="107.33"/><line x1="119.89" y1="109.55" x2="116.54" y2="109.2"/><line x1="118.56" y1="104.98" x2="115.52" y2="104.78"/><line x1="118.21" y1="102.85" x2="114.63" y2="102.46"/><line x1="116.73" y1="100.38" x2="112.77" y2="99.72"/><line x1="115" y1="97.43" x2="109.85" y2="97.38"/><polygon points="108.43 95.78 112.31 94.65 112.44 95.07 108.51 96.2 108.43 95.78"/><line x1="120.29" y1="117.52" x2="116.73" y2="115.31"/><line x1="114.9" y1="120.16" x2="114.22" y2="116.62"/><line x1="111.99" y1="120.04" x2="111.26" y2="116.59"/><line x1="107.86" y1="119.53" x2="107.4" y2="116.13"/><line x1="109.64" y1="119.81" x2="109.32" y2="116.41"/><line x1="105" y1="118.49" x2="104.84" y2="115.47"/><line x1="102.87" y1="118.22" x2="102.52" y2="114.59"/><line x1="100.36" y1="116.72" x2="99.74" y2="112.75"/><rect x="97.21" y="109.81" width="0.41" height="5.25"/><polygon points="94.64 112.36 95.86 108.38 96.23 108.47 95.02 112.46 94.64 112.36"/><line x1="117.7" y1="120.1" x2="115.52" y2="116.55"/><path d="M112.25,80.47c8.93-.21,10.68-6.89,10.68-7l.57.15c0,.06-1.86,7.17-11.25,7.37Z"/><path d="M112.25,81.19V80.6c9.39.18,11.25,7.17,11.25,7.22l-.57.16C122.88,87.72,121.15,81.34,112.25,81.19Z"/><path d="M119.16,80.55c4.64-.06,6.77-2.39,7.77-4.36l.35.18c-1,2-3.27,4.51-8.12,4.57Z"/><path d="M119.16,81v-.4c5.07.12,7.22,2.82,8,4.43l-.32.19C126.06,83.73,124,81.14,119.16,81Z"/><path d="M117.73,102.11c.43-.46,4.34-4.65,11.57-1.73l-.19.57c-6.88-2.81-10.55,1.1-10.92,1.56Z"/><path d="M122.34,91.52h.59c0,2.19.81,6.25,6.4,8.74l-.25.57C123.2,98.14,122.34,93.86,122.34,91.52Z"/><path d="M115.81,98.45c1.25-.85,3.89-2,7.77-.4l-.16.35c-3.67-1.54-6.2-.4-7.36.39Z"/><path d="M118.48,92.83l.41-.11c.37,1.58,1.53,3.74,4.74,5.28l-.16.36C120.07,96.71,118.89,94.45,118.48,92.83Z"/><path d="M122,69.4c0-1.42.48-6.34,7-9.09l.25.55c-6.83,2.87-6.64,8.19-6.64,8.82l-.56,0Z"/><path d="M117.75,59l.46-.41c1.54,1.53,5,3.8,10.68,1.65l.22.56C123.1,63,119.43,60.6,117.75,59Z"/><path d="M118.08,68.49c.24-1.49,1.27-4.2,5.18-5.76l.16.34c-3.75,1.51-4.72,4.07-5,5.49Z"/><path d="M116,62.6l.19-.34c1.38.84,3.7,1.55,7.07.37l.13.37C119.86,64.23,117.43,63.46,116,62.6Z"/><path d="M99.36,37.12a13.18,13.18,0,0,1,1-4.93l.54.23c-2.77,6.88,1.11,10.52,1.57,10.9l-.41.46A9.14,9.14,0,0,1,99.36,37.12Z"/><path d="M91.51,39.18v-.59c2.19,0,6.23-.83,8.77-6.41l.57.24C98.07,38.53,93.4,39.18,91.51,39.18Z"/><path d="M97.23,41.66A9.66,9.66,0,0,1,98.07,38l.35.15c-1.59,3.71-.43,6.2.35,7.38l-.27.21A6.76,6.76,0,0,1,97.23,41.66Z"/><path d="M92.73,42.63A8.13,8.13,0,0,0,98,37.87l.32.18c-1.62,3.37-3.91,4.55-5.53,5Z"/><path d="M60.31,32.52l.54-.23c2.89,6.79,8.23,6.66,8.82,6.61l.06.59C69.08,39.54,63.36,39.69,60.31,32.52Z"/><path d="M58.56,43.32c1.54-1.55,3.8-5,1.65-10.71l.56-.21c2.35,6.24-.46,10-1.78,11.34Z"/><path d="M62.71,38.25l.38-.15c1.49,3.75,4,4.69,5.48,4.94l-.08.4C67,43.17,64.28,42.15,62.71,38.25Z"/><path d="M62.28,45.33c.81-1.36,1.54-3.7.35-7.08L63,38.1c1.24,3.53.46,6-.4,7.43Z"/><path d="M32.21,61.09l.22-.54C39.28,63.33,43,59.46,43.35,59l.43.4C43.35,59.88,39.44,64,32.21,61.09Z"/><path d="M32.21,61.24l.22-.55C38.52,63.44,39.2,68,39.2,70h0l-.6,0v0C38.6,68.18,38,63.84,32.21,61.24Z"/><path d="M38,63.45l.16-.35c3.69,1.58,6.18.44,7.34-.37l.24.3C44.48,63.91,41.81,65.11,38,63.45Z"/><path d="M37.88,63.52l.16-.35a8.43,8.43,0,0,1,5,5.51l-.41.08C42.27,67.23,41.11,65.07,37.88,63.52Z"/><path d="M32.29,100.64c6.83-2.87,6.69-8.2,6.64-8.78l.57,0c.08.66.24,6.33-7,9.37Z"/><path d="M32.4,100.75c6.29-2.36,10,.48,11.33,1.76l-.43.45c-1.51-1.58-5-3.83-10.66-1.67Z"/><path d="M38.12,98.4a7.35,7.35,0,0,0,5-5.45l.38.06c-.3,1.49-1.3,4.22-5.21,5.78Z"/><path d="M38.12,98.51c3.53-1.23,6-.46,7.42.42l-.22.29c-1.35-.82-3.7-1.53-7.09-.32Z"/><path d="M59,118.19l.38-.47c.48.45,4.66,4.34,1.7,11.57l-.54-.2C63.31,122.23,59.45,118.55,59,118.19Z"/><path d="M60.72,129.09c2.75-6.12,7.36-6.77,9.28-6.77v.59c-2.22,0-6.26.83-8.74,6.41Z"/><path d="M62.71,116l.33-.25c.86,1.27,2.07,3.94.43,7.77l-.38-.16C64.68,119.7,63.52,117.21,62.71,116Z"/><path d="M63.17,123.48c1.62-3.38,3.89-4.57,5.5-5l.08.39c-1.51.39-3.66,1.51-5.23,4.76Z"/><path d="M91.79,122c.64-.06,6.36-.22,9.41,7l-.57.23c-2.89-6.84-8.2-6.65-8.79-6.61Z"/><path d="M99.82,124.41a9.36,9.36,0,0,1,2.7-6.63l.43.41c-1.54,1.54-3.8,5-1.65,10.68l-.53.23A12.83,12.83,0,0,1,99.82,124.41Z"/><path d="M92.92,118.45l.1-.36c1.46.25,4.24,1.28,5.75,5.16l-.32.15A7.35,7.35,0,0,0,92.92,118.45Z"/><path d="M97.88,119.84a7.47,7.47,0,0,1,1-3.86l.33.21a8.19,8.19,0,0,0-.35,7.09l-.35.12A10.91,10.91,0,0,1,97.88,119.84Z"/><path d="M107.78,53.47c3.26-3.36,3.1-6.51,2.4-8.59l.38-.12c.62,1.78,1.07,5.31-2.51,9Z"/><path d="M107.83,53.51C111.47,50,115,50.42,116.62,51l-.08.38c-1.64-.51-4.93-.87-8.46,2.48Z"/><path d="M76.2,34.58l.19-.34c1.67.83,4.5,3,4.58,8.12h-.38C80.51,37.71,78.17,35.56,76.2,34.58Z"/><path d="M80.62,42.36c.14-5.07,2.86-7.23,4.42-8l.19.34c-1.51.79-4.07,2.86-4.2,7.74Z"/><path d="M44.75,51c1.81-.59,5.37-1.05,9,2.52l-.27.28c-3.31-3.26-6.49-3.11-8.55-2.42Z"/><path d="M50.63,47.17A7,7,0,0,1,51,44.86l.35.12c-.51,1.61-.86,4.9,2.51,8.45l-.32.27A9.41,9.41,0,0,1,50.63,47.17Z"/><path d="M34.26,85.12c1-2,3.27-4.49,8.12-4.55v.37c-4.67.09-6.79,2.41-7.77,4.37Z"/><path d="M34.32,76.42l.35-.16c.81,1.51,2.86,4.11,7.74,4.21l0,.41C37.31,80.72,35.15,78,34.32,76.42Z"/><path d="M50.55,114.23a9.2,9.2,0,0,1,2.91-6.45l.3.29c-3.23,3.32-3.07,6.47-2.43,8.52l-.35.16A7.46,7.46,0,0,1,50.55,114.23Z"/><path d="M44.86,110.54l.11-.37c1.64.51,4.93.88,8.44-2.47l.32.29C50,111.45,46.59,111.1,44.86,110.54Z"/><path d="M80.59,119.17H81c.06,4.62,2.38,6.78,4.37,7.75l-.22.34C83.48,126.41,80.62,124.25,80.59,119.17Z"/><path d="M76.25,126.85c1.54-.79,4.13-2.86,4.26-7.74h.38c-.13,5.1-2.86,7.26-4.45,8.09Z"/><path d="M107.78,108.07l.27-.31c3.31,3.23,6.5,3.09,8.57,2.41l.11.37C115,111.16,111.42,111.61,107.78,108.07Z"/><path d="M107.7,108.07l.27-.26c3.5,3.64,3.12,7.15,2.59,8.83l-.41-.09C110.66,114.9,111.07,111.61,107.7,108.07Z"/><path d="M102.81,58.27c6.18-6.44,2.7-12.4,2.67-12.44l.49-.33c0,.08,3.78,6.42-2.72,13.2Z"/><path d="M102.92,58.38c6.75-6.5,13-2.9,13.08-2.85l-.29.49c-.25-.12-6-3.4-12.38,2.78Z"/><path d="M73.53,38.59l.13-.58c.08,0,7.2,1.87,7.42,11.24l-.6,0C80.27,40.35,73.8,38.64,73.53,38.59Z"/><path d="M80.59,49.25C80.78,39.88,87.74,38,87.82,38l.16.58c-.29,0-6.6,1.76-6.79,10.69Z"/><path d="M45.51,55.53c.08,0,6.42-3.76,13.19,2.74l-.41.43c-6.47-6.19-12.4-2.71-12.48-2.65Z"/><path d="M54.49,50a8.93,8.93,0,0,1,1.08-4.43l.48.31c-.16.24-3.4,5.93,2.75,12.35l-.43.42C55.32,55.41,54.49,52.34,54.49,50Z"/><path d="M38,87.82s1.86-7.16,11.25-7.35l0,.56c-8.93.22-10.69,6.87-10.69,7Z"/><path d="M38,73.67l.59-.15c.06.27,1.76,6.62,10.69,6.8l0,.62C39.87,80.72,38,73.74,38,73.67Z"/><path d="M54.49,111.41a12.22,12.22,0,0,1,3.8-8.61l.41.44c-6.18,6.45-2.67,12.38-2.65,12.43l-.48.34A9.69,9.69,0,0,1,54.49,111.41Z"/><path d="M45.51,106l.3-.51c.24.15,6,3.44,12.4-2.72l.38.4C51.82,109.63,45.59,106,45.51,106Z"/><path d="M80.48,112.25l.6,0c.16,8.92,6.61,10.63,6.9,10.68l-.13.6C87.74,123.48,80.65,121.63,80.48,112.25Z"/><path d="M73.53,122.91c.27,0,6.6-1.76,6.79-10.68l.6,0c-.19,9.38-7.18,11.23-7.23,11.26Z"/><path d="M102.81,103.24l.44-.44c6.42,6.18,12.4,2.69,12.46,2.67l.29.49C116,106,109.58,109.71,102.81,103.24Z"/><path d="M102.71,103.34l.46-.44c6.47,6.79,2.85,13,2.8,13.11l-.49-.34C105.62,115.44,108.88,109.74,102.71,103.34Z"/><path d="M119.64,52.69l0,.31,0-.31a11.77,11.77,0,0,1,1.62-.14A11.51,11.51,0,0,1,132.8,64.06a11.2,11.2,0,0,1-4.53,9.12l-.38-.52a10.69,10.69,0,0,0,4.29-8.6,10.86,10.86,0,0,0-10.86-10.84,15.32,15.32,0,0,0-1.54.1l-.11-.32Z"/><path d="M88.39,33.42l.11-.16c.29-.38.61-.74,1-1.13a11.55,11.55,0,0,1,16.29,0A11.31,11.31,0,0,1,109,41.81l-.62-.11a10.63,10.63,0,0,0-3.07-9.09,10.83,10.83,0,0,0-15.35,0A8.4,8.4,0,0,0,89,33.68l-.13.15Z"/><path d="M52.55,40.2A11.55,11.55,0,0,1,64.09,28.69a11.36,11.36,0,0,1,9.12,4.54l-.55.39a10.59,10.59,0,0,0-8.57-4.27A10.88,10.88,0,0,0,53.22,40.2a12.22,12.22,0,0,0,.14,1.59l-.65.07A12.47,12.47,0,0,1,52.55,40.2Z"/><path d="M28.81,63.87a11.48,11.48,0,0,1,3.35-8.13,11.32,11.32,0,0,1,9.68-3.27l-.11.68a10.69,10.69,0,0,0-9.11,3.07,10.83,10.83,0,0,0,0,15.33,9.33,9.33,0,0,0,1.21,1l-.4.51A14.45,14.45,0,0,1,32.16,72,11.37,11.37,0,0,1,28.81,63.87Z"/><path d="M28.71,97.43a11.27,11.27,0,0,1,4.56-9.12l.37.54a10.7,10.7,0,0,0-4.28,8.58,10.92,10.92,0,0,0,10.86,10.89l1.59-.16.09.65a11,11,0,0,1-1.68.13A11.49,11.49,0,0,1,28.71,97.43Z"/><path d="M52.36,121.3a11.06,11.06,0,0,1,.13-1.62l.65.11a10.68,10.68,0,0,0,3.07,9.11,10.83,10.83,0,0,0,15.35,0,8.75,8.75,0,0,0,1-1.23l.51.41a11.52,11.52,0,0,1-20.76-6.78Z"/><path d="M88.28,128.28l.54-.4a10.86,10.86,0,0,0,19.5-6.58,13.23,13.23,0,0,0-.14-1.6l.65-.08c0,.52.13,1.08.13,1.68a11.52,11.52,0,0,1-20.68,7Z"/><path d="M119.7,109l.11-.63A10.85,10.85,0,0,0,128.92,90c-.4-.4-.83-.74-1.24-1.08l.41-.51c.43.37.86.68,1.29,1.11A11.5,11.5,0,0,1,119.7,109Z"/><path d="M88.82,34a11.74,11.74,0,0,1,15.88.62,11.09,11.09,0,0,1,3.32,7.3l-.43,0a11,11,0,0,0-3.18-7,11.31,11.31,0,0,0-15.27-.59Z"/><path d="M53.41,42a11.73,11.73,0,0,1,11.65-10.8A11.1,11.1,0,0,1,72.56,34l-.3.33a10.8,10.8,0,0,0-7.2-2.69A11.3,11.3,0,0,0,53.84,42Z"/><path d="M31.16,65.09a11.57,11.57,0,0,1,3.45-8.29,11.06,11.06,0,0,1,7.29-3.33l.05.45a11,11,0,0,0-7,3.18,11.31,11.31,0,0,0-.59,15.28l-.35.31A11.77,11.77,0,0,1,31.16,65.09Z"/><path d="M31.16,96.46A11.33,11.33,0,0,1,34,89l.37.28a10.84,10.84,0,0,0-2.69,7.23A11.3,11.3,0,0,0,42,107.68l0,.44A11.78,11.78,0,0,1,31.16,96.46Z"/><path d="M53.46,119.62l.49,0a10.66,10.66,0,0,0,3.18,7,11.36,11.36,0,0,0,15.29.58l.27.34a11.77,11.77,0,0,1-15.91-.62A11.48,11.48,0,0,1,53.46,119.62Z"/><path d="M88.93,127.54l.32-.35a10.71,10.71,0,0,0,7.23,2.72,11.34,11.34,0,0,0,11.22-10.38l.46,0a11.75,11.75,0,0,1-11.68,10.76A11.18,11.18,0,0,1,88.93,127.54Z"/><path d="M119.59,107.56a10.64,10.64,0,0,0,7-3.17,11.29,11.29,0,0,0,.62-15.28l.35-.26a11.74,11.74,0,0,1-.64,15.87,11.06,11.06,0,0,1-7.29,3.32Z"/><path d="M119.54,53.85l0-.47A11.76,11.76,0,0,1,130.35,65a11.22,11.22,0,0,1-2.81,7.52l-.37-.31A10.69,10.69,0,0,0,129.89,65,11.28,11.28,0,0,0,119.54,53.85Z"/><path d="M128.57,70.3c.84-.51,1.75-1,2.7-1.56l.21.39c-.94.54-1.83,1-2.67,1.56Z"/><path d="M132.18,66.74c-.35.2-.67.4-1,.62-.54.31-1.06.65-1.57.9"/><path d="M132.4,64.91c-.62.4-1.3.81-1.94,1.18-.14.06-.33.22-.46.26"/><path d="M130.05,64.65c.79-.47,1.67-.92,2.35-1.38"/><path d="M130,63c.78-.47,1.56-.93,2.29-1.32"/><path d="M129.51,61.49c.73-.45,1.54-.86,2.27-1.32"/><path d="M129,60.17c.7-.44,1.43-.91,2.16-1.3"/><path d="M128.27,58.8c.76-.39,1.46-.87,2.11-1.26"/><path d="M127.38,57.61a15.14,15.14,0,0,0,2-1.2"/><path d="M126.33,56.61c.62-.37,1.3-.77,1.94-1.17"/><path d="M125.06,55.58A17.43,17.43,0,0,0,127,54.46"/><path d="M125.44,53.66c-.51.35-1.1.67-1.7,1,0,0-.08,0-.08.07"/><path d="M123.55,53.07c-.18.15-.35.2-.51.35a8.36,8.36,0,0,0-1.13.66"/><path d="M119.75,53.59a8.86,8.86,0,0,0,1.24-.71"/><path d="M88.82,34a11.74,11.74,0,0,1,15.88.62,11.09,11.09,0,0,1,3.32,7.3l-.43,0a11,11,0,0,0-3.18-7,11.31,11.31,0,0,0-15.27-.59Z"/><path d="M107.16,39.56c.21-.93.48-1.89.81-3l.46.12c-.35,1.12-.6,2.07-.81,3Z"/><path d="M107.21,34.51c-.11.37-.19.74-.29,1.11a15.33,15.33,0,0,1-.46,1.77"/><path d="M106.08,33c-.16.72-.35,1.48-.54,2.23a3.07,3.07,0,0,0-.14.52"/><path d="M104.24,34.5c.22-.88.49-1.81.71-2.64"/><path d="M102.92,33.38c.25-.88.49-1.75.7-2.55"/><path d="M101.63,32.65c.19-.85.46-1.67.65-2.51"/><path d="M100.31,32.07c.18-.82.4-1.66.62-2.45"/><path d="M98.82,31.63c.27-.8.43-1.65.63-2.38"/><path d="M97.37,31.44c.21-.72.43-1.48.59-2.28"/><path d="M95.91,31.49c.19-.77.38-1.51.57-2.24"/><path d="M94.27,31.63a15.48,15.48,0,0,0,.56-2.15"/><path d="M93.19,30a13.43,13.43,0,0,1-.52,1.92.07.07,0,0,0,0,.1"/><path d="M91.46,30.93c0,.23-.11.36-.16.59A11,11,0,0,0,91,32.77"/><path d="M89.11,34a7.18,7.18,0,0,0,.36-1.38"/><path d="M53.41,42a11.73,11.73,0,0,1,11.65-10.8A11.1,11.1,0,0,1,72.56,34l-.3.33a10.8,10.8,0,0,0-7.2-2.69A11.3,11.3,0,0,0,53.84,42Z"/><path d="M68.73,30.24l.4-.22c.52.91,1.05,1.84,1.59,2.69l-.43.25C69.78,32.1,69.21,31.16,68.73,30.24Z"/><path d="M66.76,29.35c.22.31.38.66.59,1a13.25,13.25,0,0,1,.92,1.56"/><path d="M64.74,29.2l.4-.24c.38.67.78,1.32,1.16,2a1.06,1.06,0,0,0,.16.23c0,.08.08.17.08.24l-.37.22a1.54,1.54,0,0,0-.14-.22.57.57,0,0,1-.11-.24C65.52,30.52,65.14,29.86,64.74,29.2Z"/><path d="M63.09,29.21l.38-.25c.32.52.67,1.12,1,1.67a4.24,4.24,0,0,1,.4.71l-.4.23c-.11-.23-.24-.47-.38-.7C63.74,30.29,63.42,29.71,63.09,29.21Z"/><path d="M61.45,29.39l.4-.23c.24.49.54,1,.81,1.5l.49.81-.41.22-.46-.82C62,30.36,61.69,29.87,61.45,29.39Z"/><path d="M61.5,32c-.46-.73-.86-1.5-1.32-2.23"/><path d="M58.67,30.44l.4-.21c.33.62.76,1.26,1.14,1.87l.18.28-.4.23-.16-.27A21.39,21.39,0,0,1,58.67,30.44Z"/><path d="M58.8,33.23c-.4-.73-.86-1.44-1.24-2.11"/><path d="M57.62,34.16a12.23,12.23,0,0,0-1.19-2"/><path d="M56.65,35.2c-.44-.66-.81-1.31-1.19-2"/><path d="M55.6,36.45c-.36-.66-.73-1.32-1.11-1.91"/><path d="M53.68,36.06c.32.53.67,1.12,1,1.72,0,0,0,0,.08,0"/><path d="M53.09,38a5.29,5.29,0,0,1,.32.5c.22.4.48.74.65,1.13"/><path d="M53.63,41.77a13.61,13.61,0,0,0-.76-1.26"/><path d="M31.16,65.09a11.57,11.57,0,0,1,3.45-8.29,11.06,11.06,0,0,1,7.29-3.33l.05.45a11,11,0,0,0-7,3.18,11.31,11.31,0,0,0-.59,15.28l-.35.31A11.77,11.77,0,0,1,31.16,65.09Z"/><path d="M36.53,53.54l.13-.43c1,.27,2.05.55,3,.77l-.1.47Z"/><path d="M34.45,54.52l.11-.44a4.29,4.29,0,0,1,.57.15l.56.12c.59.16,1.22.28,1.78.48l-.16.43a17.28,17.28,0,0,0-1.72-.44L35,54.66C34.86,54.62,34.64,54.58,34.45,54.52Z"/><path d="M33,55.64l.11-.44,1.05.25,1.18.3.17,0a2.42,2.42,0,0,1,.35.11l-.14.43a1,1,0,0,0-.32-.08l-.16,0c-.41-.11-.81-.23-1.19-.32S33.32,55.74,33,55.64Z"/><path d="M31.81,56.82l.08-.46c.59.13,1.19.29,1.81.46.27.09.59.16.89.24l-.14.43-.89-.23A17.92,17.92,0,0,0,31.81,56.82Z"/><path d="M30.76,58.11l.16-.45c.51.15,1,.3,1.59.45a9.68,9.68,0,0,1,.94.27l-.13.43c-.3-.09-.62-.16-1-.25Z"/><path d="M32.67,59.89c-.83-.2-1.67-.47-2.51-.65"/><path d="M29.57,60.79l.11-.46c.81.27,1.64.44,2.48.63l-.11.45C31.22,61.22,30.38,61,29.57,60.79Z"/><path d="M31.65,62.68c-.78-.24-1.62-.43-2.38-.62"/><path d="M29.14,63.79l.05-.46a17.53,17.53,0,0,1,2.32.61l-.13.43A17.42,17.42,0,0,0,29.14,63.79Z"/><path d="M31.51,65.59c-.75-.16-1.48-.36-2.24-.54"/><path d="M31.65,67.23c-.7-.23-1.49-.41-2.16-.56"/><path d="M30,68.29c.59.15,1.21.34,1.89.53,0,0,0,0,.08,0"/><path d="M31,70.07l.59.14c.4.14.83.18,1.24.32"/><path d="M34,72.39A12.35,12.35,0,0,0,32.62,72"/><path d="M31.16,96.46A11.33,11.33,0,0,1,34,89l.37.28a10.84,10.84,0,0,0-2.69,7.23A11.3,11.3,0,0,0,42,107.68l0,.44A11.78,11.78,0,0,1,31.16,96.46Z"/><path d="M30,92.4c.94-.54,1.86-1.08,2.69-1.6l.25.41c-.86.52-1.75,1-2.7,1.54Z"/><path d="M29.36,94.73c.32-.17.67-.39,1-.59.52-.31,1-.62,1.59-.9"/><path d="M29.08,96.61c.68-.41,1.33-.83,2-1.19l.46-.28"/><path d="M31.46,96.86l-2.38,1.36"/><path d="M31.62,98.59c-.81.43-1.59.89-2.32,1.28"/><path d="M32,100c-.76.44-1.51.85-2.24,1.32"/><path d="M32.51,101.34c-.73.43-1.43.92-2.16,1.28"/><path d="M33.24,102.7c-.73.41-1.46.85-2.11,1.26"/><path d="M34.15,103.87a21.5,21.5,0,0,0-2,1.22"/><path d="M35.21,104.89c-.65.4-1.33.76-1.94,1.17"/><path d="M36.47,105.91A19.24,19.24,0,0,0,34.56,107"/><path d="M36,107.84c.54-.34,1.14-.65,1.73-1a.06.06,0,0,0,.08,0"/><path d="M38,108.43a4.66,4.66,0,0,1,.51-.31c.4-.21.76-.5,1.16-.67"/><path d="M41.79,107.91a6.32,6.32,0,0,0-1.24.72"/><path d="M53.46,119.62l.49,0a10.66,10.66,0,0,0,3.18,7,11.36,11.36,0,0,0,15.29.58l.27.34a11.77,11.77,0,0,1-15.91-.62A11.48,11.48,0,0,1,53.46,119.62Z"/><path d="M53.11,124.84l.09-.34c.21-.86.48-1.79.72-2.66l.43.1c-.21.88-.46,1.8-.72,2.67l-.09.37Z"/><path d="M54.33,127c.08-.38.16-.74.27-1.13.13-.58.27-1.2.45-1.77"/><path d="M55.43,128.5c.17-.76.35-1.5.57-2.24a4.26,4.26,0,0,0,.13-.51"/><path d="M57.27,127c-.22.88-.49,1.81-.68,2.64"/><path d="M58.59,128.13c-.24.88-.46,1.78-.7,2.55"/><path d="M59.91,128.85c-.22.85-.49,1.67-.67,2.49"/><path d="M61.2,129.39a25.16,25.16,0,0,1-.62,2.49"/><path d="M62.66,129.91c-.22.77-.4,1.59-.57,2.33"/><path d="M64.17,130.06a17,17,0,0,0-.59,2.29"/><path d="M65.63,130c-.22.77-.38,1.49-.57,2.23"/><path d="M67.24,129.91a13.35,13.35,0,0,0-.56,2.11"/><path d="M68.3,131.5c.13-.62.32-1.24.51-1.9,0,0,0,0,0-.08"/><path d="M70.08,130.57c0-.23.1-.36.13-.59.13-.43.19-.85.33-1.25"/><path d="M72.42,127.54a9.9,9.9,0,0,0-.4,1.36"/><path d="M88.93,127.54l.32-.35a10.71,10.71,0,0,0,7.23,2.72,11.34,11.34,0,0,0,11.22-10.38l.46,0a11.75,11.75,0,0,1-11.68,10.76A11.18,11.18,0,0,1,88.93,127.54Z"/><path d="M90.82,128.78l.37-.22c.49.79,1,1.62,1.43,2.47l.14.22-.38.23-.16-.23C91.79,130.42,91.3,129.6,90.82,128.78Z"/><path d="M93.05,129.7l.41-.21c.24.52.59,1.06.86,1.54.14.22.24.37.38.57a1.5,1.5,0,0,0,.21.42l-.37.25a2.16,2.16,0,0,0-.27-.44,3.57,3.57,0,0,0-.33-.54C93.65,130.78,93.3,130.24,93.05,129.7Z"/><path d="M94.91,130.09l.43-.18a.47.47,0,0,1,.14.2.79.79,0,0,1,.14.23l.4.69c.27.42.51.85.78,1.27l-.4.23c-.27-.42-.49-.82-.76-1.26l-.43-.7a.58.58,0,0,0-.13-.2A2.29,2.29,0,0,0,94.91,130.09Z"/><path d="M96.67,130.17l.37-.24c.17.28.33.56.52.85a14.38,14.38,0,0,0,.89,1.52l-.38.23a16.26,16.26,0,0,1-.92-1.5C97,130.72,96.83,130.45,96.67,130.17Z"/><path d="M98.61,129.91c.43.81.89,1.59,1.27,2.31"/><path d="M100,129.55c.43.71.84,1.48,1.32,2.21"/><path d="M101.14,129.13l.35-.26a22.32,22.32,0,0,1,1.35,2.19l-.4.23C102,130.57,101.57,129.86,101.14,129.13Z"/><path d="M102.71,128.28c.4.73.86,1.47,1.24,2.09"/><path d="M103.89,127.36a17.24,17.24,0,0,0,1.19,2"/><path d="M104.89,126.31c.38.66.78,1.28,1.19,2"/><path d="M105.94,125.07c.33.65.73,1.3,1.11,1.9"/><path d="M107.83,125.44c-.32-.52-.65-1.11-1-1.7,0,0,0-.06,0-.06"/><path d="M108.43,123.53a2.93,2.93,0,0,0-.33-.51c-.19-.39-.46-.71-.67-1.13"/><path d="M107.91,119.73c.19.41.46.82.7,1.23"/><path d="M119.59,107.56a10.64,10.64,0,0,0,7-3.17,11.29,11.29,0,0,0,.62-15.28l.35-.26a11.74,11.74,0,0,1-.64,15.87,11.06,11.06,0,0,1-7.29,3.32Z"/><path d="M121.83,107.61l.13-.42c.84.18,1.76.42,2.67.68l.33.09-.11.45-.35-.09C123.63,108.07,122.69,107.84,121.83,107.61Z"/><path d="M124,106.68l.16-.46a16.27,16.27,0,0,0,1.73.46,3.19,3.19,0,0,0,.59.15l.54.16-.11.43-.57-.12-.53-.16C125.23,107,124.61,106.85,124,106.68Z"/><path d="M125.69,105.6l.16-.42.24.06a1.12,1.12,0,0,1,.24.08l.84.2c.46.13.92.23,1.37.34l-.1.46c-.44-.13-.92-.23-1.35-.36l-.87-.21a.8.8,0,0,0-.27,0A1.56,1.56,0,0,0,125.69,105.6Z"/><path d="M127,104.47l.11-.46c.32.08.62.15,1,.26.54.14,1.13.33,1.67.45l-.08.42c-.54-.11-1.13-.25-1.73-.42A9.41,9.41,0,0,0,127,104.47Z"/><path d="M128.14,102.9c.89.26,1.75.49,2.53.75"/><path d="M128.87,101.62c.83.18,1.67.46,2.5.66"/><path d="M129.38,100.54l.08-.44c.83.2,1.7.36,2.48.62l-.11.43C131.05,100.92,130.19,100.72,129.38,100.54Z"/><path d="M129.89,98.84c.78.23,1.62.41,2.37.6"/><path d="M130.08,97.35a13.19,13.19,0,0,0,2.29.59"/><path d="M130,95.89c.72.2,1.48.38,2.23.57"/><path d="M129.89,94.3c.7.2,1.43.41,2.13.54"/><path d="M131.51,93.22c-.62-.16-1.27-.33-1.89-.52a.09.09,0,0,0-.11,0"/><path d="M130.59,91.44c-.24,0-.38-.11-.59-.15-.43-.13-.86-.18-1.3-.28"/><path d="M127.54,89.11a7.15,7.15,0,0,0,1.38.38"/><path d="M131.13,59.53c0-.88,1.35-2.13,3.32-3s4.21-1.16,4.64-.13-1,2.34-3.24,3.33c-1.94.85-4.21,1.17-4.66.15A.67.67,0,0,1,131.13,59.53Zm7.58-2.81s0-.11,0-.13c-.27-.57-2-.53-4.07.39s-3.26,2.17-3,2.69,1.94.53,4-.37S138.71,57.34,138.71,56.72Z"/><path d="M101,28.71a9.3,9.3,0,0,1,.65-3,6.25,6.25,0,0,1,2.46-3.35.92.92,0,0,1,.72,0c.33.14.7.52.7,1.62a9.52,9.52,0,0,1-.64,3c-.76,1.94-2.13,3.78-3.21,3.39C101.2,30.14,101,29.59,101,28.71ZM105,23.9c0-.65-.14-1.09-.41-1.19a.5.5,0,0,0-.4.05A6.16,6.16,0,0,0,102,25.83a8.48,8.48,0,0,0-.64,2.88c0,.64.16,1.08.46,1.18.53.23,1.72-1,2.56-3.12A8.26,8.26,0,0,0,105,23.9Z"/><path d="M55.76,23.89c0-1,.37-1.35.64-1.47,1-.46,2.48,1.35,3.35,3.25a8.75,8.75,0,0,1,.75,3.18c0,1-.32,1.33-.62,1.48a1.08,1.08,0,0,1-.75,0,6.27,6.27,0,0,1-2.57-3.24A8.46,8.46,0,0,1,55.76,23.89Zm4.28,5a8.38,8.38,0,0,0-.72-3c-.92-2-2.19-3.27-2.73-3-.21.11-.38.51-.38,1.07a8.31,8.31,0,0,0,.76,3,6.19,6.19,0,0,0,2.32,3,.48.48,0,0,0,.4,0C59.94,29.81,60,29.42,60,28.85Z"/><path d="M22.24,57a.44.44,0,0,1,.08-.31c.37-1,2.67-.79,4.64,0s3.42,2,3.42,2.87a.61.61,0,0,1-.06.33.91.91,0,0,1-.53.5,6,6,0,0,1-4.1-.48C23.64,59.13,22.24,57.93,22.24,57ZM30,59.55c0-.6-1.19-1.67-3.18-2.45s-3.83-.77-4.08-.22V57c0,.58,1.19,1.69,3.16,2.44,1.51.6,3.07.81,3.75.49a.42.42,0,0,0,.29-.27A.18.18,0,0,0,30,59.55Z"/><path d="M22.37,104.78c0-.91,1.35-2.13,3.32-3a6.51,6.51,0,0,1,4.1-.62,1.08,1.08,0,0,1,.53.5.57.57,0,0,1,.09.32c0,.91-1.38,2.13-3.32,3a6.33,6.33,0,0,1-4.13.67.79.79,0,0,1-.59-.82ZM30,102a.16.16,0,0,0,0-.12.56.56,0,0,0-.32-.28,5.74,5.74,0,0,0-3.72.63c-1.92.83-3.05,2-3.05,2.58a.36.36,0,0,0,0,.15.55.55,0,0,0,.3.25,6.14,6.14,0,0,0,3.75-.66C28.81,103.7,30,102.57,30,102Z"/><path d="M56.05,137.61a9.09,9.09,0,0,1,.62-3,6.1,6.1,0,0,1,2.46-3.33.78.78,0,0,1,.75-.06c.43.15.68.72.68,1.62a9.13,9.13,0,0,1-.62,3c-.68,1.7-1.65,3-2.48,3.36a.89.89,0,0,1-.73,0C56.27,139.05,56.05,138.49,56.05,137.61Zm4.07-4.8c0-.65-.16-1.1-.4-1.19a.56.56,0,0,0-.4,0,5.64,5.64,0,0,0-2.19,3.09,8.26,8.26,0,0,0-.62,2.87c0,.65.14,1.08.41,1.19a.34.34,0,0,0,.37-.06c.71-.28,1.59-1.53,2.19-3.08A8.38,8.38,0,0,0,60.12,132.81Z"/><path d="M101,132.68c0-1,.38-1.39.67-1.49a.92.92,0,0,1,.73,0,6.08,6.08,0,0,1,2.57,3.24,8,8,0,0,1,.81,3.18c0,1-.36,1.34-.63,1.5-1,.43-2.5-1.34-3.34-3.26A8.86,8.86,0,0,1,101,132.68Zm4.29,4.93a7.85,7.85,0,0,0-.73-3,6.1,6.1,0,0,0-2.32-3,.44.44,0,0,0-.37,0c-.25.11-.38.51-.38,1.08a7.71,7.71,0,0,0,.75,2.95c.92,2.09,2.19,3.26,2.73,3C105.19,138.6,105.27,138.18,105.27,137.61Z"/><path d="M131.13,102a.64.64,0,0,1,.08-.3.88.88,0,0,1,.51-.53,6.33,6.33,0,0,1,4.1.48c2.05.82,3.48,2,3.48,2.87a1.44,1.44,0,0,1-.05.31c-.43,1-2.73.79-4.69,0S131.13,102.85,131.13,102Zm7.69,2.52c0-.6-1.19-1.7-3.18-2.44a5.87,5.87,0,0,0-3.73-.49.57.57,0,0,0-.29.26s0,.11,0,.15c0,.62,1.19,1.7,3.13,2.46,2.13.8,3.88.76,4.1.22Z"/><path d="M130,90.59l.21-.4c9.79,5.54,9.11,14.44,9.09,14.53l-.43,0v-.4C138.82,102.51,138.28,95.35,130,90.59Z"/><path d="M122.58,109l.11-.46c10.63,2.67,16.13-4,16.15-4l.35.25C139.14,104.89,133.48,111.76,122.58,109Z"/><path d="M122.39,52.5c10.82-3,16.62,3.76,16.67,3.83l-.35.3c-.05-.07-5.66-6.6-16.21-3.68Z"/><path d="M130.11,70.77c9.38-5.61,8.55-14.18,8.55-14.25l.43-.06c0,.07.91,9-8.74,14.7Z"/><path d="M90.22,31.34c5.56-9.77,14.43-9.08,14.48-9.07l0,.44c-.08,0-8.66-.66-14.08,8.86Z"/><path d="M104.57,22.66l.27-.35c.08.05,7,5.68,4.18,16.6l-.43-.11C111.26,28.18,104.65,22.71,104.57,22.66Z"/><path d="M51.77,33.74a15.29,15.29,0,0,1,4.58-11.3l.3.37c-.06,0-6.61,5.65-3.73,16.19l-.43.12A20,20,0,0,1,51.77,33.74Z"/><path d="M56.48,22.39c.11,0,8.9-.88,14.7,8.78l-.4.24c-5.61-9.4-14.16-8.56-14.24-8.56Z"/><path d="M22.26,57.22V56.8l.49,0c0,.1-.68,8.68,8.84,14.07l-.24.41C22.83,66.46,22.26,59.08,22.26,57.22Z"/><path d="M22.32,56.67c.05-.07,5.69-6.93,16.61-4.2l-.14.46c-10.57-2.67-16,4-16.12,4Z"/><path d="M22.45,105.17l.38-.28s5.63,6.56,16.21,3.66l.11.46C28.33,112,22.5,105.24,22.45,105.17Z"/><path d="M22.4,104.41c0-2.15.62-9.19,8.76-14.07l.24.41c-7.9,4.72-8.55,11.59-8.55,13.64V105l-.43,0S22.4,104.78,22.4,104.41Z"/><path d="M56.78,139.26l.06-.46c.08,0,8.65.63,14.07-8.87l.41.24C65.76,139.93,56.89,139.26,56.78,139.26Z"/><path d="M51.82,127.59a21,21,0,0,1,.67-5l.43.11c-2.69,10.64,4,16.09,4,16.14l-.3.35A15.61,15.61,0,0,1,51.82,127.59Z"/><path d="M104.89,138.69c.06-.05,6.58-5.65,3.67-16.18l.43-.14c3,10.87-3.78,16.63-3.8,16.68Z"/><path d="M90.36,130.34l.4-.23c5.61,9.4,14.16,8.53,14.24,8.53l0,.47C105,139.11,96.1,140,90.36,130.34Z"/><rect x="101.55" y="80.47" width="10.68" height="0.57"/><polygon points="99.93 72.69 109.45 68.56 109.67 69.1 100.17 73.23 99.93 72.69"/><polygon points="131.94 76.03 138.71 72.28 139.01 72.81 132.24 76.54 131.94 76.03"/><polygon points="131.83 85.51 132.1 84.97 139.01 88.8 138.71 89.28 131.83 85.51"/><polygon points="136.28 81.11 136.31 80.26 143.48 80.32 143.48 81.19 136.28 81.11"/><path d="M138.87,73.66a1.14,1.14,0,0,1-1.1-1.11,1.11,1.11,0,1,1,1.1,1.11Z"/><circle cx="138.87" cy="89.03" r="1.11"/><polygon points="113.63 41.22 115.76 33.77 116.33 33.95 114.19 41.38 113.63 41.22"/><polygon points="120.02 47.4 127.63 45.23 127.79 45.8 120.24 47.98 120.02 47.4"/><polygon points="119.7 41.12 124.79 36.1 125.42 36.7 120.29 41.74 119.7 41.12"/><path d="M116.79,34.63a1.06,1.06,0,0,1-1.54,0,1.13,1.13,0,0,1,0-1.55,1.09,1.09,0,1,1,1.54,1.55Z"/><path d="M128.49,46.31a1.11,1.11,0,0,1-1.56-1.58,1.14,1.14,0,0,1,1.56,0A1.13,1.13,0,0,1,128.49,46.31Z"/><polygon points="72.29 22.8 72.8 22.5 76.55 29.28 76.06 29.58 72.29 22.8"/><polygon points="84.96 29.39 88.76 22.5 89.28 22.8 85.47 29.69 84.96 29.39"/><polygon points="80.27 25.2 80.33 18.02 81.19 18.04 81.13 25.22 80.27 25.2"/><path d="M73.64,22.63a1.1,1.1,0,0,1-1.08,1.11,1.08,1.08,0,0,1-1.11-1.09,1.05,1.05,0,0,1,1.11-1.1A1.09,1.09,0,0,1,73.64,22.63Z"/><path d="M90.14,22.63a1.11,1.11,0,1,1-2.21,0A1.07,1.07,0,0,1,89,21.55,1.09,1.09,0,0,1,90.14,22.63Z"/><polygon points="33.78 45.74 33.94 45.18 41.41 47.31 41.22 47.89 33.78 45.74"/><polygon points="45.24 33.89 45.81 33.72 47.99 41.3 47.42 41.47 45.24 33.89"/><polygon points="36.12 36.68 36.72 36.1 41.73 41.23 41.14 41.82 36.12 36.68"/><path d="M34.64,44.69a1.12,1.12,0,0,1,0,1.57,1.1,1.1,0,0,1-1.56,0,1.13,1.13,0,0,1,0-1.57A1.15,1.15,0,0,1,34.64,44.69Z"/><path d="M46.32,33a1.1,1.1,0,0,1,0,1.56,1.12,1.12,0,0,1-1.59,0,1.09,1.09,0,0,1,0-1.56A1.14,1.14,0,0,1,46.32,33Z"/><polygon points="22.5 88.72 29.27 84.97 29.54 85.46 22.8 89.2 22.5 88.72"/><polygon points="22.5 72.74 22.8 72.23 29.68 76.03 29.44 76.54 22.5 72.74"/><polygon points="18.05 81.19 18.05 80.32 25.23 80.37 25.2 81.25 18.05 81.19"/><path d="M22.64,87.87A1.07,1.07,0,0,1,23.74,89a1.09,1.09,0,1,1-2.18,0A1.1,1.1,0,0,1,22.64,87.87Z"/><path d="M22.64,71.36a1.11,1.11,0,0,1,0,2.22,1.11,1.11,0,0,1,0-2.22Z"/><polygon points="45.21 127.59 47.34 120.14 47.91 120.3 45.78 127.74 45.21 127.59"/><polygon points="33.75 115.73 41.3 113.52 41.46 114.08 33.91 116.29 33.75 115.73"/><polygon points="36.12 124.81 41.22 119.76 41.84 120.38 36.72 125.38 36.12 124.81"/><path d="M44.7,126.88a1.12,1.12,0,0,1,1.56,0,1.09,1.09,0,1,1-1.56,0Z"/><path d="M33,115.21a1.12,1.12,0,0,1,1.59,0,1.14,1.14,0,0,1,0,1.57A1.12,1.12,0,0,1,33,115.21Z"/><polygon points="84.96 132.22 85.47 131.96 89.22 138.74 88.71 139 84.96 132.22"/><polygon points="72.23 138.74 76.04 131.81 76.55 132.11 72.75 139 72.23 138.74"/><polygon points="80.33 143.48 80.41 136.28 81.24 136.33 81.19 143.48 80.33 143.48"/><path d="M87.85,138.85A1.11,1.11,0,1,1,89,140,1.13,1.13,0,0,1,87.85,138.85Z"/><path d="M71.37,138.85a1.11,1.11,0,0,1,2.21,0,1.11,1.11,0,1,1-2.21,0Z"/><polygon points="120.16 114.18 120.29 113.61 127.73 115.75 127.57 116.32 120.16 114.18"/><polygon points="113.52 120.22 114.06 120.04 116.27 127.59 115.73 127.77 113.52 120.22"/><polygon points="119.78 120.3 120.4 119.68 125.42 124.81 124.79 125.38 119.78 120.3"/><path d="M126.9,116.81a1,1,0,0,1,0-1.55,1.09,1.09,0,0,1,1.54,0,1.13,1.13,0,0,1,0,1.58A1.09,1.09,0,0,1,126.9,116.81Z"/><path d="M115.19,128.5a1.19,1.19,0,0,1,0-1.58,1.11,1.11,0,1,1,1.6,1.55A1.15,1.15,0,0,1,115.19,128.5Z"/><path d="M111.71,77c4.37-4.34,9.39-.06,9.44,0l-.32.42c-.21-.18-4.75-4-8.71,0Z"/><path d="M115.25,75.94a6.23,6.23,0,0,1,1.91-4.44l.41.38c-2.94,3-1.62,6.28-.57,8l-.43.26A8.18,8.18,0,0,1,115.25,75.94Z"/><path d="M112.07,84.77l.37-.39c4,4,8.53.15,8.71,0l.35.41S116.43,89.11,112.07,84.77Z"/><path d="M115.6,85.6a7.74,7.74,0,0,1,1.29-3.92l.43.28a6.68,6.68,0,0,0-1.13,4.34,5.55,5.55,0,0,0,1.51,3.35l-.4.32a6,6,0,0,1-1.65-3.61C115.63,86.1,115.6,85.85,115.6,85.6Z"/><path d="M105.73,61.45v-.54c5.63,0,6.12-5.9,6.15-6.14l.51,0C112.39,54.87,111.85,61.45,105.73,61.45Z"/><path d="M106.94,55.86l.51-.12a6.9,6.9,0,0,0,2.3,3.88,5.2,5.2,0,0,0,3.42,1.29l0,.53a6,6,0,0,1-3.73-1.4A7.38,7.38,0,0,1,106.94,55.86Z"/><path d="M84.4,40.37l.4-.36c0,.07,4.31,5.09,0,9.44l-.37-.37C88.39,45.06,84.56,40.55,84.4,40.37Z"/><path d="M81.67,44.61l.27-.43a6.8,6.8,0,0,0,4.37,1.15,5.53,5.53,0,0,0,3.32-1.53l.35.39a6,6,0,0,1-3.62,1.66A7.22,7.22,0,0,1,81.67,44.61Z"/><path d="M54.76,49.63l.05-.51c.06,0,6.66.51,6.66,6.66h-.54C60.93,50.14,55,49.63,54.76,49.63Z"/><path d="M55.73,54.06a6.76,6.76,0,0,0,3.91-2.29,5.45,5.45,0,0,0,1.29-3.44l.52,0A6,6,0,0,1,60,52.11a7,7,0,0,1-4.16,2.45Z"/><path d="M40,76.72c.08,0,5.09-4.33,9.44,0l-.38.38c-4-4-8.5-.16-8.71,0Z"/><path d="M43.81,71.85l.41-.35a5.9,5.9,0,0,1,1.64,3.67,7.28,7.28,0,0,1-1.21,4.69l-.46-.28a6.56,6.56,0,0,0,1.13-4.36A5.53,5.53,0,0,0,43.81,71.85Z"/><path d="M49.09,106.73c0-.1.54-6.68,6.69-6.68v.51c-5.63,0-6.15,5.92-6.15,6.2Z"/><path d="M48.34,100.56l0-.51a6,6,0,0,1,3.75,1.44,7,7,0,0,1,2.4,4.16l-.48.13a6.44,6.44,0,0,0-2.27-3.87A5.61,5.61,0,0,0,48.34,100.56Z"/><path d="M74.8,116.44a5.94,5.94,0,0,1,2-4.37l.35.37c-4,4-.14,8.51,0,8.71l-.4.33A8.79,8.79,0,0,1,74.8,116.44Z"/><path d="M71.53,117.32a5.91,5.91,0,0,1,3.62-1.67,7.47,7.47,0,0,1,4.69,1.22l-.27.45a6.63,6.63,0,0,0-4.37-1.13,5.27,5.27,0,0,0-3.32,1.51Z"/><path d="M100.06,105.72h.52c0,5.69,5.93,6.12,6.17,6.15l0,.54S100.06,111.87,100.06,105.72Z"/><path d="M100.06,113.12a6,6,0,0,1,1.43-3.72,7.17,7.17,0,0,1,4.18-2.46l.09.51a6.7,6.7,0,0,0-3.86,2.26,5.43,5.43,0,0,0-1.29,3.44Z"/><path d="M100,56.18c0-6.15,6.58-6.67,6.66-6.67l0,.52c-.27,0-6.18.52-6.18,6.15v0H100Z"/><path d="M100,48.44h.53c.06,4.21,3.3,5.58,5.24,6l-.11.51C103.54,54.51,100,53,100,48.44Z"/><path d="M75.06,45.39a8.73,8.73,0,0,1,1.92-5l.38.34c-.14.2-4,4.72,0,8.72l-.38.37A6.17,6.17,0,0,1,75.06,45.39Z"/><path d="M71.5,44.33l.38-.38c3,2.93,6.29,1.59,8,.55l.27.46C78.3,46.1,74.77,47.52,71.5,44.33Z"/><path d="M49.53,54.87l.51,0c0,.23.51,6.15,6.15,6.14v.54C50,61.51,49.55,54.91,49.53,54.87Z"/><path d="M48.48,61c4.17-.05,5.55-3.3,6-5.24l.48.12C54.49,58,53,61.49,48.48,61.55Z"/><path d="M40.36,84.53l.35-.41c.19.2,4.72,4,8.71,0l.38.36C45.43,88.85,40.38,84.58,40.36,84.53Z"/><path d="M44,89.65c2.91-3,1.59-6.3.57-7.94L45,81.4c1.13,1.79,2.56,5.34-.65,8.57Z"/><path d="M54.84,111.45c.24,0,6.18-.48,6.18-6.11v0h.53v0c0,6.11-6.6,6.64-6.68,6.65Z"/><path d="M55.78,107l.11-.51c2.11.46,5.61,1.94,5.66,6.53H61C61,108.84,57.75,107.47,55.78,107Z"/><path d="M84.13,120.81c.19-.2,4-4.73,0-8.71l.38-.39c4.34,4.37.06,9.41,0,9.44Z"/><path d="M81.4,116.55c1.48-.93,5.23-2.67,8.58.61l-.35.39c-3-3-6.26-1.62-7.93-.54Z"/><path d="M105.32,100c6.15,0,6.69,6.57,6.69,6.65l-.54,0c0-.26-.48-6.16-6.15-6.16Z"/><path d="M106.54,105.6c.48-2.1,1.94-5.58,6.49-5.62v.51c-4.17,0-5.55,3.32-6,5.23Z"/><path d="M17.08,80.75a63.66,63.66,0,1,1,63.68,63.64A63.75,63.75,0,0,1,17.08,80.75Zm126.35,0a62.68,62.68,0,1,0-62.67,62.67A62.75,62.75,0,0,0,143.43,80.75Z"/><path d="M11.07,80.75a69.69,69.69,0,1,1,69.69,69.68A69.75,69.75,0,0,1,11.07,80.75Zm138.37,0a68.67,68.67,0,1,0-68.68,68.69A68.77,68.77,0,0,0,149.44,80.75Z"/><rect x="143.48" y="80.43" width="6.45" height="0.66"/><polygon points="142.94 72.56 149.34 71.74 149.44 72.42 143.03 73.23 142.94 72.56"/><polygon points="141.41 64.84 147.69 63.23 147.85 63.87 141.62 65.46 141.41 64.84"/><polygon points="138.95 57.34 144.94 54.95 145.21 55.58 139.19 57.96 138.95 57.34"/><polygon points="135.58 50.25 141.22 47.12 141.54 47.71 135.88 50.81 135.58 50.25"/><polygon points="131.29 43.63 136.52 39.81 136.9 40.34 131.67 44.14 131.29 43.63"/><polygon points="126.25 37.59 130.94 33.15 131.4 33.62 126.68 38.05 126.25 37.59"/><polygon points="120.45 32.22 124.58 27.22 125.09 27.64 120.97 32.61 120.45 32.22"/><polygon points="114.06 27.64 117.51 22.16 118.08 22.5 114.63 27.97 114.06 27.64"/><polygon points="107.16 23.87 109.91 18.01 110.5 18.28 107.75 24.14 107.16 23.87"/><polygon points="99.8 21.02 101.79 14.85 102.44 15.06 100.42 21.19 99.8 21.02"/><polygon points="92.14 19.09 93.35 12.74 94 12.86 92.78 19.21 92.14 19.09"/><polygon points="84.37 18.14 84.75 11.69 85.39 11.71 84.99 18.18 84.37 18.14"/><rect x="76.26" y="11.7" width="0.65" height="6.47" transform="translate(-0.79 4.83) rotate(-3.59)"/><polygon points="67.46 12.86 68.08 12.75 69.3 19.09 68.65 19.21 67.46 12.86"/><polygon points="59.02 15.07 59.67 14.87 61.66 21.02 61.04 21.19 59.02 15.07"/><polygon points="50.98 18.3 51.58 18.02 54.33 23.87 53.73 24.16 50.98 18.3"/><polygon points="43.38 22.54 43.92 22.2 47.4 27.64 46.86 27.99 43.38 22.54"/><polygon points="36.37 27.68 36.88 27.26 41 32.22 40.49 32.65 36.37 27.68"/><polygon points="30.06 33.68 30.54 33.18 35.23 37.6 34.8 38.07 30.06 33.68"/><polygon points="24.58 40.39 24.99 39.87 30.16 43.64 29.79 44.17 24.58 40.39"/><polygon points="19.94 47.74 20.27 47.17 25.93 50.26 25.63 50.84 19.94 47.74"/><polygon points="16.3 55.63 16.52 55.01 22.56 57.37 22.32 57.96 16.3 55.63"/><polygon points="13.66 63.88 13.79 63.27 20.05 64.85 19.89 65.49 13.66 63.88"/><polygon points="12.1 72.43 12.12 71.78 18.54 72.58 18.49 73.23 12.1 72.43"/><polygon points="11.56 80.47 18.03 80.44 18.03 81.09 11.56 81.11 11.56 80.47"/><polygon points="12.1 89.11 18.49 88.31 18.57 88.95 12.15 89.77 12.1 89.11"/><polygon points="13.66 97.69 19.89 96.04 20.05 96.69 13.82 98.31 13.66 97.69"/><polygon points="16.33 105.96 22.32 103.55 22.53 104.16 16.55 106.54 16.33 105.96"/><polygon points="20 113.83 25.63 110.68 25.93 111.28 20.29 114.39 20 113.83"/><polygon points="24.61 121.17 29.79 117.37 30.16 117.91 24.99 121.69 24.61 121.17"/><polygon points="30.08 127.88 34.8 123.45 35.23 123.94 30.57 128.36 30.08 127.88"/><polygon points="36.42 133.86 40.49 128.87 41 129.29 36.91 134.27 36.42 133.86"/><polygon points="43.41 139 46.86 133.55 47.4 133.89 43.97 139.34 43.41 139"/><polygon points="51.01 143.22 53.73 137.38 54.33 137.66 51.6 143.48 51.01 143.22"/><polygon points="59.07 146.46 61.04 140.31 61.66 140.51 59.69 146.66 59.07 146.46"/><polygon points="67.49 148.67 68.67 142.34 69.3 142.44 68.11 148.76 67.49 148.67"/><polygon points="76.09 149.79 76.5 143.31 77.14 143.37 76.74 149.81 76.09 149.79"/><polygon points="84.37 143.37 84.99 143.31 85.45 149.79 84.75 149.81 84.37 143.37"/><polygon points="92.16 142.44 92.81 142.29 94.03 148.64 93.35 148.76 92.16 142.44"/><polygon points="99.82 140.51 100.42 140.31 102.44 146.46 101.82 146.66 99.82 140.51"/><polygon points="107.16 137.66 107.75 137.38 110.5 143.22 109.91 143.48 107.16 137.66"/><polygon points="114.06 133.89 114.63 133.55 118.08 139 117.51 139.34 114.06 133.89"/><polygon points="120.45 129.29 120.97 128.87 125.09 133.84 124.58 134.27 120.45 129.29"/><polygon points="126.22 123.94 126.68 123.45 131.37 127.88 130.94 128.36 126.22 123.94"/><polygon points="131.29 117.91 131.67 117.37 136.88 121.17 136.5 121.69 131.29 117.91"/><polygon points="135.56 111.28 135.85 110.68 141.51 113.83 141.22 114.39 135.56 111.28"/><polygon points="138.92 104.16 139.19 103.55 145.18 105.91 144.91 106.53 138.92 104.16"/><polygon points="141.41 96.69 141.57 96.04 147.8 97.63 147.64 98.28 141.41 96.69"/><polygon points="142.92 88.95 143.03 88.31 149.39 89.11 149.31 89.77 142.92 88.95"/><path d="M65.44,80.75A15.32,15.32,0,1,1,80.76,96,15.32,15.32,0,0,1,65.44,80.75Zm30.31,0a15,15,0,1,0-15,15A15,15,0,0,0,95.75,80.75Z"/><path d="M64,80.75A16.75,16.75,0,1,1,80.76,97.51,16.78,16.78,0,0,1,64,80.75Zm33.14,0A16.41,16.41,0,1,0,80.76,97.17,16.41,16.41,0,0,0,97.15,80.75Z"/><line x1="97.21" y1="78.67" x2="95.67" y2="78.88"/><line x1="96.83" y1="76.64" x2="95.29" y2="77"/><line x1="96.18" y1="74.64" x2="94.73" y2="75.22"/><line x1="95.26" y1="72.77" x2="93.92" y2="73.51"/><line x1="94.16" y1="70.99" x2="92.92" y2="71.93"/><line x1="92.81" y1="69.4" x2="91.7" y2="70.45"/><line x1="91.33" y1="67.97" x2="90.33" y2="69.15"/><line x1="89.63" y1="66.74" x2="88.79" y2="68.06"/><line x1="87.79" y1="65.73" x2="87.12" y2="67.14"/><line x1="85.88" y1="64.99" x2="85.39" y2="66.46"/><line x1="83.86" y1="64.46" x2="83.56" y2="65.98"/><line x1="81.78" y1="64.19" x2="81.7" y2="65.76"/><line x1="79.7" y1="64.19" x2="79.81" y2="65.76"/><line x1="77.63" y1="64.46" x2="77.92" y2="65.98"/><line x1="75.61" y1="64.99" x2="76.12" y2="66.46"/><line x1="73.69" y1="65.76" x2="74.37" y2="67.14"/><line x1="71.88" y1="66.77" x2="72.69" y2="68.06"/><line x1="70.18" y1="67.97" x2="71.18" y2="69.15"/><line x1="68.65" y1="69.41" x2="69.78" y2="70.45"/><line x1="67.35" y1="71.01" x2="68.59" y2="71.93"/><line x1="66.22" y1="72.77" x2="67.57" y2="73.51"/><line x1="65.33" y1="74.65" x2="66.79" y2="75.22"/><line x1="64.68" y1="76.64" x2="66.19" y2="77.01"/><line x1="64.28" y1="78.67" x2="65.84" y2="78.88"/><line x1="64.28" y1="82.84" x2="65.84" y2="82.62"/><line x1="64.71" y1="84.89" x2="66.19" y2="84.48"/><line x1="65.33" y1="86.84" x2="66.76" y2="86.3"/><line x1="66.22" y1="88.75" x2="67.57" y2="87.98"/><line x1="67.35" y1="90.5" x2="68.59" y2="89.6"/><line x1="68.67" y1="92.12" x2="69.78" y2="91.05"/><line x1="70.18" y1="93.52" x2="71.18" y2="92.35"/><line x1="71.88" y1="94.76" x2="72.69" y2="93.42"/><line x1="73.69" y1="95.78" x2="74.37" y2="94.37"/><line x1="75.66" y1="96.53" x2="76.12" y2="95.07"/><line x1="77.65" y1="97.04" x2="77.92" y2="95.53"/><line x1="79.7" y1="97.29" x2="79.81" y2="95.78"/><line x1="81.78" y1="97.29" x2="81.7" y2="95.78"/><line x1="83.86" y1="97.04" x2="83.56" y2="95.53"/><line x1="85.88" y1="96.53" x2="85.39" y2="95.07"/><line x1="87.79" y1="95.78" x2="87.12" y2="94.37"/><line x1="89.63" y1="94.73" x2="88.79" y2="93.42"/><line x1="91.33" y1="93.52" x2="90.33" y2="92.35"/><line x1="92.81" y1="92.12" x2="91.7" y2="91.05"/><line x1="94.16" y1="90.5" x2="92.92" y2="89.6"/><line x1="95.26" y1="88.75" x2="93.92" y2="87.98"/><line x1="96.18" y1="86.84" x2="94.73" y2="86.3"/><line x1="96.8" y1="84.89" x2="95.29" y2="84.48"/><line x1="97.18" y1="82.84" x2="95.67" y2="82.62"/><path d="M73.34,80.75a7.42,7.42,0,1,1,7.42,7.4A7.42,7.42,0,0,1,73.34,80.75Zm14.7,0A7.27,7.27,0,1,0,80.76,88,7.29,7.29,0,0,0,88,80.75Z"/><path d="M75.85,80.75a4.92,4.92,0,1,1,4.91,4.91A4.91,4.91,0,0,1,75.85,80.75Zm9.68,0a4.79,4.79,0,1,0-4.77,4.81A4.78,4.78,0,0,0,85.53,80.75Z"/><line x1="88.04" y1="79.86" x2="85.58" y2="80.14"/><line x1="87.85" y1="78.93" x2="85.47" y2="79.55"/><line x1="87.2" y1="77.22" x2="84.99" y2="78.42"/><line x1="86.69" y1="76.42" x2="84.69" y2="77.9"/><line x1="86.12" y1="75.72" x2="84.32" y2="77.45"/><line x1="85.45" y1="75.09" x2="83.86" y2="77"/><line x1="84.69" y1="74.53" x2="83.35" y2="76.66"/><line x1="83.88" y1="74.1" x2="82.83" y2="76.37"/><line x1="83.02" y1="73.76" x2="82.24" y2="76.14"/><line x1="82.16" y1="73.52" x2="81.67" y2="75.99"/><line x1="81.21" y1="73.41" x2="81.08" y2="75.91"/><line x1="80.27" y1="73.41" x2="80.46" y2="75.91"/><line x1="79.38" y1="73.52" x2="79.84" y2="75.99"/><line x1="78.46" y1="73.76" x2="79.24" y2="76.14"/><line x1="77.63" y1="74.1" x2="78.71" y2="76.37"/><line x1="76.79" y1="74.53" x2="78.17" y2="76.66"/><line x1="76.06" y1="75.09" x2="77.68" y2="77.01"/><line x1="75.41" y1="75.72" x2="77.22" y2="77.45"/><line x1="74.82" y1="76.45" x2="76.82" y2="77.9"/><line x1="74.34" y1="77.22" x2="76.49" y2="78.42"/><line x1="73.93" y1="78.05" x2="76.25" y2="78.98"/><line x1="73.64" y1="78.93" x2="76.06" y2="79.58"/><line x1="73.5" y1="79.86" x2="75.96" y2="80.17"/><line x1="73.5" y1="81.71" x2="75.96" y2="81.37"/><line x1="73.64" y1="82.58" x2="76.06" y2="81.96"/><line x1="73.93" y1="83.45" x2="76.25" y2="82.56"/><line x1="74.34" y1="84.32" x2="76.49" y2="83.1"/><line x1="74.82" y1="85.09" x2="76.82" y2="83.64"/><line x1="75.41" y1="85.79" x2="77.22" y2="84.09"/><line x1="76.09" y1="86.43" x2="77.68" y2="84.51"/><line x1="76.82" y1="86.97" x2="78.17" y2="84.86"/><line x1="77.63" y1="87.41" x2="78.71" y2="85.15"/><line x1="78.49" y1="87.77" x2="79.24" y2="85.35"/><line x1="79.41" y1="87.98" x2="79.87" y2="85.51"/><line x1="80.3" y1="88.07" x2="80.48" y2="85.6"/><line x1="81.21" y1="88.07" x2="81.08" y2="85.6"/><line x1="82.16" y1="87.98" x2="81.67" y2="85.51"/><line x1="83.02" y1="87.77" x2="82.27" y2="85.35"/><line x1="83.88" y1="87.41" x2="82.83" y2="85.15"/><line x1="84.69" y1="86.97" x2="83.37" y2="84.86"/><line x1="85.45" y1="86.43" x2="83.86" y2="84.48"/><line x1="86.12" y1="85.79" x2="84.32" y2="84.09"/><line x1="86.71" y1="85.06" x2="84.69" y2="83.61"/><line x1="87.2" y1="84.32" x2="85.02" y2="83.1"/><line x1="87.58" y1="83.45" x2="85.29" y2="82.56"/><line x1="87.85" y1="82.58" x2="85.47" y2="81.96"/><line x1="88.04" y1="81.71" x2="85.58" y2="81.34"/><path d="M87.55,78c3.21-1.21,6.18,2.66,6.2,2.71l0,.07h0c0-.06-2.94-3.85-6.05-2.67Z"/><path d="M87.55,83.5l0-.15c3,1.16,6-2.52,6.05-2.64l.13.07h0C93.65,80.94,90.68,84.66,87.55,83.5Z"/><path d="M87.82,78.78l.24-.11c2.16-.77,4.21,1.54,4.56,2l-.05.07c-.41-.46-2.4-2.73-4.45-2l-.27.08Z"/><path d="M87.82,82.68l0-.1.27.07c1.86.7,3.69-1.1,4.39-1.9l0,0,.11.07h0l0,0c-1.51,1.75-3.18,2.47-4.53,2Z"/><path d="M84.37,74.36l.11-.24c1-2.16,4.26-1.85,4.63-1.81l0,.12c-.4,0-3.58-.32-4.53,1.77l-.13.23Z"/><path d="M87.07,77l.24-.09c1.83-.85,1.83-3.46,1.75-4.48l0-.07.17,0v.09c.08,1.07.08,3.71-1.84,4.57l-.24.12Z"/><path d="M78.54,72.5c0-1.78,1.76-3.31,2.16-3.66l.11.08,0,.06c-.46.36-2.72,2.32-1.94,4.41l.08.27h-.11l-.1-.23A2.88,2.88,0,0,1,78.54,72.5Z"/><path d="M80.7,69l0,0v-.06h.08l0,0c.83.7,2.67,2.59,1.94,4.56l-.08.23h-.11l.11-.27c.65-1.86-1.14-3.7-1.94-4.38Z"/><path d="M72.29,73.12c0-.33,0-.6,0-.73l.14,0c0,.62-.27,3.63,1.72,4.55l.25.1,0,.13-.25-.1C72.5,76.3,72.29,74.28,72.29,73.12Z"/><path d="M72.31,72.36l0,0h.11c1.35-.08,3.75,0,4.58,1.85l.09.23-.11.08-.11-.27c-.78-1.73-3.13-1.84-4.45-1.77l0,0,0-.09Z"/><path d="M68.86,80.83l.11-.11h0c.54.65,2.43,2.69,4.42,2l.25-.1,0,.15-.24.08C71.37,83.55,69.43,81.48,68.86,80.83Z"/><path d="M68.84,80.75v0l.08,0c.89-1,2.64-2.65,4.53-2l.24.09,0,.11-.25-.08c-1.8-.66-3.5.9-4.37,1.93h0Z"/><path d="M72.4,89.06c.59,0,3.61.25,4.53-1.76l.1-.2.11.05-.11.23c-.94,2.08-4,1.88-4.61,1.82Z"/><path d="M72.31,88.41c0-1.26.25-3.18,1.81-3.93l.27-.1.06.13-.25.07c-1.8.88-1.78,3.45-1.75,4.5v.06h-.11l0,0Z"/><path d="M80.7,92.55h0c.56-.46,2.13-1.9,2.13-3.55a3.57,3.57,0,0,0-.16-.87l-.08-.26.1-.05.08.25c.79,2.06-1.32,4-2,4.59Z"/><path d="M78.54,89a3.08,3.08,0,0,1,.19-.93l.11-.25.11.05-.08.26c-.7,1.84,1.1,3.7,1.89,4.39l0,0,0,.11H80.7C80,92,78.54,90.59,78.54,89Z"/><path d="M87.12,84.48v-.1l.3.1c2,.92,1.86,4.06,1.78,4.63l-.11,0c0-.63.22-3.64-1.75-4.57Z"/><path d="M84.4,87.13l.1-.06.11.23c.84,1.76,3.13,1.85,4.45,1.76h.08v0l.06,0v0l-.11,0c-1.38.08-3.75,0-4.59-1.84Z"/><path d="M83.61,74c1.41-3.1,6.26-2.48,6.29-2.48v.13c-.06,0-4.8-.6-6.15,2.4Z"/><path d="M87.47,77.74c3-1.37,2.37-6.12,2.37-6.16v0H90c0,.08.65,4.93-2.48,6.35Z"/><path d="M77.79,72.69c0-2.42,2.29-4.47,2.89-4.94v0l.08,0v.07h0v0h0c-.65.51-3.75,3.22-2.67,6.08l-.1,0A3.34,3.34,0,0,1,77.79,72.69Z"/><path d="M80.68,67.76h0v-.08l0,.06,0,0c.57.47,2.94,2.56,2.94,5a4.31,4.31,0,0,1-.21,1.25l-.14,0c1-2.86-2-5.57-2.67-6.08h0Z"/><path d="M71.45,72.59a9.46,9.46,0,0,1,0-1h.14c0,.09-.62,4.82,2.4,6.2L74,77.9C71.8,76.89,71.45,74.12,71.45,72.59Z"/><path d="M71.53,71.66v-.15c.89-.08,5.07-.36,6.34,2.48l-.08.06c-1.3-2.82-5.72-2.44-6.23-2.39Z"/><path d="M67.73,80.78l.11-.06c0,.06,3,3.83,6.07,2.69l0,.09C70.78,84.74,67.76,80.83,67.73,80.78Z"/><path d="M67.73,80.72c.13-.15,3.07-3.91,6.23-2.72l0,.13C70.83,77,68,80.66,67.84,80.83Z"/><path d="M71.56,89.88c.08,0,4.85.59,6.23-2.42l.11.06C76.49,90.62,71.61,90,71.56,90Z"/><path d="M71.48,88.89c0-1.53.35-4.26,2.53-5.25l.06.12c-2.83,1.29-2.48,5.66-2.4,6.17v0h-.14A5.68,5.68,0,0,1,71.48,88.89Z"/><path d="M80.7,93.73v0l0,0c.35-.26,2.88-2.39,2.88-4.83a3.41,3.41,0,0,0-.21-1.24l.11,0c1.13,3-2.19,5.81-2.67,6.2v0l-.08,0v-.07Z"/><path d="M77.82,88.85A4,4,0,0,1,78,87.56l.16,0a2.93,2.93,0,0,0-.25,1.24c0,2.44,2.56,4.57,2.89,4.83l0,0v0h-.06v.07l0,0h0C80.4,93.52,77.82,91.33,77.82,88.85Z"/><path d="M87.47,83.73l0-.12C90.6,85,90,89.88,90,89.93h-.14C89.84,89.88,90.44,85.09,87.47,83.73Z"/><path d="M83.64,87.52l.14-.06c1.32,3,6,2.42,6.12,2.42h0V90C89.76,90,85,90.57,83.64,87.52Z"/><line x1="92.92" y1="79.86" x2="92.19" y2="80.32"/><line x1="92.41" y1="79.39" x2="91.7" y2="79.86"/><line x1="91.62" y1="78.81" x2="90.98" y2="79.29"/><line x1="92" y1="79.04" x2="91.35" y2="79.55"/><line x1="90.98" y1="78.52" x2="90.44" y2="78.98"/><line x1="90.57" y1="78.21" x2="89.9" y2="78.78"/><line x1="89.9" y1="78.05" x2="89.2" y2="78.57"/><line x1="89.2" y1="77.85" x2="88.31" y2="78.67"/><line x1="88.31" y1="77.85" x2="87.85" y2="78.67"/><line x1="93.35" y1="80.32" x2="92.41" y2="80.52"/><line x1="92.92" y1="81.6" x2="92.19" y2="81.14"/><line x1="92.41" y1="82.07" x2="91.7" y2="81.63"/><line x1="91.62" y1="82.68" x2="90.98" y2="82.17"/><line x1="92" y1="82.42" x2="91.35" y2="81.91"/><line x1="90.98" y1="82.99" x2="90.44" y2="82.5"/><line x1="90.57" y1="83.3" x2="89.9" y2="82.76"/><line x1="89.9" y1="83.45" x2="89.2" y2="82.91"/><line x1="89.2" y1="83.66" x2="88.31" y2="82.81"/><line x1="88.31" y1="83.66" x2="87.85" y2="82.81"/><line x1="93.35" y1="81.14" x2="92.41" y2="80.94"/><polyline points="89.95 71.57 89.9 71.58 89.14 72.36 89.14 72.38"/><line x1="88.71" y1="71.51" x2="88.55" y2="72.32"/><line x1="88.04" y1="71.53" x2="87.85" y2="72.34"/><line x1="87.07" y1="71.69" x2="86.99" y2="72.47"/><line x1="87.47" y1="71.61" x2="87.42" y2="72.39"/><line x1="86.42" y1="71.93" x2="86.36" y2="72.63"/><line x1="85.93" y1="72.01" x2="85.83" y2="72.83"/><line x1="85.34" y1="72.34" x2="85.2" y2="73.28"/><line x1="84.67" y1="72.74" x2="84.64" y2="73.94"/><line x1="84.07" y1="73.37" x2="84.32" y2="74.28"/><line x1="89.33" y1="71.51" x2="88.82" y2="72.34"/><line x1="89.95" y1="72.79" x2="89.14" y2="72.93"/><line x1="89.9" y1="73.45" x2="89.14" y2="73.63"/><line x1="89.82" y1="74.44" x2="89.01" y2="74.52"/><line x1="89.87" y1="74.01" x2="89.09" y2="74.09"/><line x1="89.57" y1="75.07" x2="88.87" y2="75.13"/><line x1="89.49" y1="75.59" x2="88.66" y2="75.67"/><line x1="89.17" y1="76.18" x2="88.2" y2="76.33"/><line x1="88.15" y1="77.46" x2="87.23" y2="77.19"/><line x1="89.95" y1="72.11" x2="89.11" y2="72.63"/><line x1="79.87" y1="68.6" x2="80.32" y2="69.3"/><line x1="79.41" y1="69.1" x2="79.84" y2="69.79"/><line x1="78.81" y1="69.85" x2="79.3" y2="70.5"/><line x1="79.03" y1="69.53" x2="79.54" y2="70.12"/><line x1="78.52" y1="70.5" x2="78.97" y2="71.04"/><line x1="78.22" y1="70.92" x2="78.76" y2="71.57"/><line x1="78.06" y1="71.57" x2="78.6" y2="72.32"/><line x1="77.87" y1="72.32" x2="78.71" y2="73.18"/><line x1="77.87" y1="73.18" x2="78.71" y2="73.66"/><line x1="80.32" y1="68.14" x2="80.54" y2="69.1"/><line x1="81.67" y1="68.6" x2="81.16" y2="69.3"/><line x1="82.1" y1="69.1" x2="81.67" y2="69.79"/><line x1="82.7" y1="69.85" x2="82.21" y2="70.5"/><line x1="82.45" y1="69.53" x2="81.94" y2="70.12"/><line x1="82.97" y1="70.5" x2="82.54" y2="71.04"/><line x1="83.32" y1="70.92" x2="82.75" y2="71.57"/><line x1="83.48" y1="71.57" x2="82.91" y2="72.32"/><line x1="83.67" y1="72.32" x2="82.8" y2="73.18"/><line x1="83.67" y1="73.18" x2="82.8" y2="73.66"/><line x1="81.16" y1="68.14" x2="80.94" y2="69.1"/><polyline points="71.56 71.57 71.59 71.58 72.4 72.36 72.4 72.38"/><line x1="71.53" y1="72.81" x2="72.37" y2="72.97"/><line x1="71.56" y1="73.45" x2="72.37" y2="73.66"/><line x1="71.7" y1="74.47" x2="72.45" y2="74.53"/><line x1="71.61" y1="74.03" x2="72.42" y2="74.1"/><line x1="71.91" y1="75.09" x2="72.64" y2="75.14"/><line x1="72.02" y1="75.59" x2="72.85" y2="75.68"/><line x1="72.37" y1="76.18" x2="73.29" y2="76.33"/><line x1="73.39" y1="77.46" x2="74.28" y2="77.19"/><line x1="71.53" y1="72.16" x2="72.37" y2="72.69"/><line x1="72.8" y1="71.53" x2="72.96" y2="72.38"/><line x1="73.47" y1="71.57" x2="73.64" y2="72.38"/><line x1="74.42" y1="71.69" x2="74.55" y2="72.48"/><line x1="74.04" y1="71.62" x2="74.07" y2="72.42"/><line x1="75.09" y1="71.93" x2="75.15" y2="72.65"/><line x1="75.61" y1="72.01" x2="75.69" y2="72.85"/><line x1="76.2" y1="72.34" x2="76.31" y2="73.28"/><line x1="77.47" y1="73.37" x2="77.2" y2="74.28"/><line x1="72.13" y1="71.57" x2="72.64" y2="72.39"/><polyline points="67.76 80.75 67.78 80.75 68.92 80.75 68.92 80.78"/><line x1="68.62" y1="81.65" x2="69.3" y2="81.19"/><line x1="69.13" y1="82.11" x2="69.81" y2="81.68"/><line x1="69.89" y1="82.68" x2="70.51" y2="82.22"/><line x1="69.56" y1="82.48" x2="70.16" y2="81.96"/><line x1="70.51" y1="82.99" x2="71.05" y2="82.53"/><line x1="70.94" y1="83.3" x2="71.56" y2="82.79"/><line x1="71.56" y1="83.45" x2="72.37" y2="82.91"/><line x1="72.37" y1="83.66" x2="73.21" y2="82.81"/><line x1="73.21" y1="83.64" x2="73.66" y2="82.81"/><line x1="68.16" y1="81.19" x2="69.13" y2="80.99"/><line x1="68.62" y1="79.86" x2="69.3" y2="80.37"/><line x1="69.13" y1="79.41" x2="69.81" y2="79.86"/><line x1="69.89" y1="78.82" x2="70.51" y2="79.32"/><line x1="69.56" y1="79.09" x2="70.16" y2="79.6"/><line x1="70.51" y1="78.52" x2="71.05" y2="78.98"/><line x1="70.94" y1="78.21" x2="71.56" y2="78.78"/><line x1="71.56" y1="78.05" x2="72.34" y2="78.62"/><line x1="72.37" y1="77.82" x2="73.21" y2="78.67"/><line x1="73.21" y1="77.85" x2="73.66" y2="78.67"/><line x1="68.14" y1="80.37" x2="69.13" y2="80.57"/><polyline points="71.56 89.93 71.59 89.93 72.4 89.14 72.42 89.11"/><line x1="72.83" y1="89.97" x2="72.99" y2="89.15"/><line x1="73.5" y1="89.97" x2="73.66" y2="89.15"/><line x1="74.45" y1="89.85" x2="74.58" y2="89.06"/><line x1="74.04" y1="89.88" x2="74.09" y2="89.11"/><line x1="75.12" y1="89.6" x2="75.15" y2="88.89"/><line x1="75.58" y1="89.49" x2="75.69" y2="88.69"/><line x1="76.2" y1="89.15" x2="76.33" y2="88.23"/><line x1="76.85" y1="88.75" x2="76.87" y2="87.56"/><line x1="77.47" y1="88.13" x2="77.22" y2="87.24"/><line x1="72.15" y1="89.97" x2="72.69" y2="89.15"/><line x1="71.56" y1="88.75" x2="72.4" y2="88.6"/><line x1="71.56" y1="88.06" x2="72.4" y2="87.87"/><line x1="71.7" y1="87.07" x2="72.5" y2="86.97"/><line x1="71.61" y1="87.52" x2="72.42" y2="87.41"/><line x1="71.91" y1="86.43" x2="72.66" y2="86.39"/><line x1="72.02" y1="85.91" x2="72.85" y2="85.82"/><line x1="72.37" y1="85.31" x2="73.29" y2="85.2"/><line x1="73.37" y1="84.04" x2="74.31" y2="84.32"/><line x1="71.56" y1="89.39" x2="72.42" y2="88.89"/><line x1="81.67" y1="92.91" x2="81.21" y2="92.24"/><line x1="82.13" y1="92.4" x2="81.67" y2="91.73"/><line x1="82.72" y1="91.62" x2="82.21" y2="91.01"/><line x1="82.45" y1="91.98" x2="81.97" y2="91.36"/><line x1="83" y1="91.01" x2="82.54" y2="90.44"/><line x1="83.29" y1="90.59" x2="82.78" y2="89.93"/><line x1="83.48" y1="89.93" x2="82.91" y2="89.15"/><line x1="83.67" y1="89.15" x2="82.83" y2="88.31"/><line x1="83.64" y1="88.31" x2="82.83" y2="87.87"/><line x1="81.21" y1="93.37" x2="81" y2="92.4"/><line x1="79.89" y1="92.91" x2="80.38" y2="92.24"/><line x1="79.46" y1="92.4" x2="79.89" y2="91.73"/><line x1="78.84" y1="91.62" x2="79.33" y2="91.01"/><line x1="79.08" y1="91.98" x2="79.57" y2="91.36"/><line x1="78.52" y1="91.01" x2="78.97" y2="90.47"/><line x1="78.22" y1="90.59" x2="78.79" y2="89.93"/><line x1="78.06" y1="89.93" x2="78.6" y2="89.15"/><line x1="77.84" y1="89.15" x2="78.71" y2="88.31"/><line x1="77.87" y1="88.31" x2="78.71" y2="87.87"/><line x1="80.38" y1="93.37" x2="80.59" y2="92.4"/><polyline points="89.95 89.93 89.9 89.93 89.14 89.15 89.14 89.11"/><line x1="89.98" y1="88.69" x2="89.2" y2="88.54"/><line x1="89.95" y1="88.03" x2="89.17" y2="87.87"/><line x1="89.82" y1="87.07" x2="89.03" y2="86.97"/><line x1="89.9" y1="87.49" x2="89.11" y2="87.41"/><line x1="89.57" y1="86.43" x2="88.87" y2="86.39"/><line x1="89.49" y1="85.91" x2="88.68" y2="85.82"/><line x1="89.17" y1="85.35" x2="88.23" y2="85.2"/><line x1="88.74" y1="84.66" x2="87.55" y2="84.63"/><line x1="88.15" y1="84.07" x2="87.23" y2="84.32"/><line x1="89.98" y1="89.37" x2="89.17" y2="88.85"/><line x1="88.74" y1="89.97" x2="88.58" y2="89.14"/><line x1="88.04" y1="89.93" x2="87.87" y2="89.11"/><line x1="87.12" y1="89.82" x2="87.01" y2="89"/><line x1="87.5" y1="89.88" x2="87.44" y2="89.08"/><line x1="86.42" y1="89.57" x2="86.39" y2="88.85"/><line x1="85.93" y1="89.49" x2="85.85" y2="88.66"/><line x1="85.34" y1="89.15" x2="85.2" y2="88.23"/><line x1="84.07" y1="88.13" x2="84.34" y2="87.21"/><line x1="89.39" y1="89.93" x2="88.87" y2="89.11"/><path d="M88.12,80.68a2.38,2.38,0,0,0,2.48-1.62l.13,0a2.57,2.57,0,0,1-2.61,1.74Z"/><path d="M88.12,80.83v-.11a2.55,2.55,0,0,1,2.61,1.67l-.13,0A2.38,2.38,0,0,0,88.12,80.83Z"/><path d="M91.57,79.7a1.91,1.91,0,0,1-1.83,1"/><path d="M89.74,80.78a1.8,1.8,0,0,1,1.8,1"/><path d="M89.41,85.79a2.35,2.35,0,0,1,2.65-.39"/><path d="M90.52,83.24a2.26,2.26,0,0,0,1.54,2.11"/><path d="M89,84.92a1.82,1.82,0,0,1,1.78-.08"/><path d="M90.76,84.84a1.82,1.82,0,0,1-1.13-1.29"/><path d="M90.44,78.16A2.3,2.3,0,0,1,92,76"/><path d="M89.41,75.6A2.29,2.29,0,0,0,92,76"/><path d="M89.52,77.9a1.7,1.7,0,0,1,1.19-1.32"/><path d="M90.71,76.57a1.92,1.92,0,0,1-1.7-.09"/><path d="M85.1,70.56a3.33,3.33,0,0,1,.24-1.15l.13,0A2.17,2.17,0,0,0,85.83,72l-.08.1A2.1,2.1,0,0,1,85.1,70.56Z"/><path d="M83.29,71a2.24,2.24,0,0,0,2.1-1.54"/><path d="M84.94,72.55a1.76,1.76,0,0,1-.09-1.78"/><path d="M84.85,70.76a2,2,0,0,1-1.29,1.13"/><path d="M76,69.48l.11-.06A2.11,2.11,0,0,0,78.19,71v.15A2.24,2.24,0,0,1,76,69.48Z"/><path d="M75.63,72.05A2.32,2.32,0,0,0,76,69.48"/><path d="M77.9,72a1.73,1.73,0,0,1-1.3-1.2"/><path d="M76.57,70.8a2.1,2.1,0,0,1-.08,1.7"/><path d="M69.4,76.15l.06-.11A2.21,2.21,0,0,0,72,75.68l.11.08A2.34,2.34,0,0,1,69.4,76.15Z"/><path d="M69.4,76.18l.06-.1A2.28,2.28,0,0,1,71,78.24h-.11A2.22,2.22,0,0,0,69.4,76.18Z"/><path d="M72.56,76.58a1.8,1.8,0,0,1-1.78.1"/><path d="M70.78,76.68a1.91,1.91,0,0,1,1.1,1.25"/><path d="M71.05,83.35a2.24,2.24,0,0,1-1.59,2.11"/><path d="M72.07,85.89a2.26,2.26,0,0,0-2.59-.38"/><path d="M72,83.61a1.72,1.72,0,0,1-1.19,1.31"/><path d="M70.8,84.94a1.89,1.89,0,0,1,1.7.11"/><path d="M75.71,89.46a2.19,2.19,0,0,1,.41,2.63"/><path d="M78.25,90.54a2.29,2.29,0,0,0-2.11,1.55"/><path d="M76.57,89a1.84,1.84,0,0,1,.11,1.8"/><path d="M76.68,90.75A1.86,1.86,0,0,1,78,89.62"/><path d="M83.35,90.39A2.34,2.34,0,0,1,85.53,92l-.11,0a2.18,2.18,0,0,0-2.07-1.55Z"/><path d="M85.91,89.46A2.27,2.27,0,0,0,85.5,92"/><path d="M83.61,89.51a1.89,1.89,0,0,1,1.33,1.22"/><path d="M84.94,90.73A2.06,2.06,0,0,1,85,89"/><path d="M87.66,72.36a2,2,0,0,1-.54,2"/><path d="M87.12,74.44a2,2,0,0,1,2-.61"/><path d="M79.7,69.94a1.88,1.88,0,0,1,1.06,1.84"/><path d="M80.76,71.78a2,2,0,0,1,1-1.83"/><path d="M72.37,73.83a1.93,1.93,0,0,1,2,.58"/><path d="M74.42,74.41a2,2,0,0,1-.57-2"/><path d="M69.94,81.8a1.85,1.85,0,0,1,1.86-1"/><path d="M71.8,80.72a2,2,0,0,1-1.86-1"/><path d="M73.85,89.15a1.91,1.91,0,0,1,.57-2.05"/><path d="M74.42,87.07a2.07,2.07,0,0,1-2,.6"/><path d="M81.78,91.58a2,2,0,0,1-1-1.86"/><path d="M80.73,89.72a2.05,2.05,0,0,1-1,1.86"/><path d="M89.14,87.67a1.86,1.86,0,0,1-2-.57"/><path d="M87.12,87.1a2,2,0,0,1,.54,2"/><path d="M85.93,75.5a2.49,2.49,0,0,0,.62-2.92l.08-.06A2.53,2.53,0,0,1,86,75.6Z"/><path d="M86,75.52a2.48,2.48,0,0,1,3-.66L88.9,75a2.34,2.34,0,0,0-2.89.63Z"/><path d="M79.08,70.89v-.12a2.59,2.59,0,0,1,1.76,2.62H80.7A2.47,2.47,0,0,0,79.08,70.89Z"/><path d="M80.7,73.39a2.55,2.55,0,0,1,1.7-2.62l0,.12a2.4,2.4,0,0,0-1.57,2.5Z"/><path d="M72.53,74.86a2.59,2.59,0,0,1,3.08.64l-.09.1A2.47,2.47,0,0,0,72.61,75Z"/><path d="M74.61,73.56a2.12,2.12,0,0,1,.27-1l.1.07a2.42,2.42,0,0,0,.63,2.9l-.09.07A2.9,2.9,0,0,1,74.61,73.56Z"/><path d="M70.78,82.39a2.56,2.56,0,0,1,2.61-1.71v.15a2.47,2.47,0,0,0-2.5,1.59Z"/><path d="M70.78,79.09h.11a2.45,2.45,0,0,0,2.5,1.57v.12A2.56,2.56,0,0,1,70.78,79.09Z"/><path d="M74.61,87.9a2.9,2.9,0,0,1,.91-2l.09.08a2.42,2.42,0,0,0-.63,2.9l-.1.11A2.37,2.37,0,0,1,74.61,87.9Z"/><path d="M72.53,86.64l.08-.11c0,.06,1.38.8,2.89-.64l.08.08A2.53,2.53,0,0,1,72.53,86.64Z"/><path d="M80.7,88.1h.14a2.41,2.41,0,0,0,1.61,2.52l0,.13A2.55,2.55,0,0,1,80.7,88.1Z"/><path d="M79.08,90.62a2.43,2.43,0,0,0,1.57-2.52h.13a2.56,2.56,0,0,1-1.7,2.65Z"/><path d="M85.93,86l.08-.08a2.41,2.41,0,0,0,2.89.62l.08.11A2.54,2.54,0,0,1,85.93,86Z"/><path d="M85.91,86l.08-.11A2.65,2.65,0,0,1,86.66,89l-.11-.11A2.39,2.39,0,0,0,85.91,86Z"/><path d="M89.82,74.2h.4a2.68,2.68,0,0,1,2.7,2.67A2.59,2.59,0,0,1,91.84,79l0-.1a2.51,2.51,0,0,0,1-2,2.56,2.56,0,0,0-2.54-2.57c-.11,0-.21,0-.32,0h-.08Z"/><path d="M82.56,69.69c.08-.11.16-.17.24-.29a2.68,2.68,0,0,1,3.81,0,2.61,2.61,0,0,1,.73,2.25l-.14,0a2.43,2.43,0,0,0-.67-2.11,2.57,2.57,0,0,0-3.65,0,1.61,1.61,0,0,0-.21.3Z"/><path d="M74.17,71.28a2.69,2.69,0,0,1,2.68-2.68A2.61,2.61,0,0,1,79,69.67l-.08.06a2.56,2.56,0,0,0-4.55,1.93H74.2A1.75,1.75,0,0,1,74.17,71.28Z"/><path d="M68.62,76.81a2.74,2.74,0,0,1,.78-1.9,2.65,2.65,0,0,1,2.27-.75l-.06.12a2.57,2.57,0,0,0-2.1.73,2.6,2.6,0,0,0,0,3.61c.08,0,.16.16.27.23l0,.11a3.14,3.14,0,0,1-.33-.23A2.8,2.8,0,0,1,68.62,76.81Z"/><path d="M68.62,84.66a2.66,2.66,0,0,1,1-2.13l.06.09a2.63,2.63,0,0,0-1,2,2.58,2.58,0,0,0,2.56,2.55,1.76,1.76,0,0,0,.38,0l0,.12c-.17,0-.3,0-.41,0A2.67,2.67,0,0,1,68.62,84.66Z"/><path d="M74.12,90.23a1.34,1.34,0,0,1,0-.35h.16a1.34,1.34,0,0,0,0,.35A2.72,2.72,0,0,0,75,92a2.62,2.62,0,0,0,3.62,0,2.09,2.09,0,0,1,.24-.31l.08.08a1.18,1.18,0,0,1-.24.31,2.66,2.66,0,0,1-3.78,0A2.73,2.73,0,0,1,74.12,90.23Z"/><path d="M82.54,91.86l.1-.08a2.67,2.67,0,0,0,2,1,2.55,2.55,0,0,0,2.53-2.55.92.92,0,0,0,0-.38h.16a2.66,2.66,0,0,1-2.64,3.06A2.73,2.73,0,0,1,82.54,91.86Z"/><path d="M89.84,87.36v-.12A2.44,2.44,0,0,0,92,86.48a2.51,2.51,0,0,0,0-3.59l-.27-.24.08-.09a.88.88,0,0,1,.27.25,2.66,2.66,0,0,1,0,3.78A2.54,2.54,0,0,1,89.84,87.36Z"/><path d="M82.64,69.81a2.74,2.74,0,0,1,3.72.15,2.35,2.35,0,0,1,.76,1.71l-.11,0a2.37,2.37,0,0,0-.73-1.63,2.63,2.63,0,0,0-3.56-.15Z"/><path d="M74.37,71.69a2.74,2.74,0,0,1,2.75-2.54,2.69,2.69,0,0,1,1.75.66l-.11.1a2.49,2.49,0,0,0-1.64-.64A2.62,2.62,0,0,0,74.5,71.7Z"/><path d="M69.19,77.08a2.79,2.79,0,0,1,.75-1.94,2.89,2.89,0,0,1,1.73-.78l0,.15a2.37,2.37,0,0,0-1.65.72,2.63,2.63,0,0,0-.14,3.55l-.1.1A2.78,2.78,0,0,1,69.19,77.08Z"/><path d="M69.19,84.43a2.76,2.76,0,0,1,.62-1.78l.1.11a2.47,2.47,0,0,0-.61,1.67,2.63,2.63,0,0,0,2.42,2.62l0,.1A2.7,2.7,0,0,1,69.19,84.43Z"/><path d="M74.39,89.85l.11,0a2.76,2.76,0,0,0,.73,1.65,2.69,2.69,0,0,0,3.58.12l.08.11a2.81,2.81,0,0,1-3.74-.12A2.56,2.56,0,0,1,74.39,89.85Z"/><path d="M82.67,91.67l.08-.09a2.43,2.43,0,0,0,1.67.66A2.64,2.64,0,0,0,87,89.82h.11a2.75,2.75,0,0,1-2.73,2.53A2.47,2.47,0,0,1,82.67,91.67Z"/><path d="M89.82,87a2.75,2.75,0,0,0,1.64-.74,2.6,2.6,0,0,0,.11-3.55l.11-.11a2.74,2.74,0,0,1-1.86,4.53Z"/><path d="M89.82,74.47v-.14a2.78,2.78,0,0,1,2.53,2.74,2.69,2.69,0,0,1-.67,1.75l-.11,0a2.46,2.46,0,0,0,.65-1.71A2.65,2.65,0,0,0,89.82,74.47Z"/><path d="M92,78.36l.62-.36"/><path d="M92.76,77.49a1,1,0,0,0-.22.14l-.38.19"/><path d="M92.81,77.05c-.16.09-.27.18-.43.29a.38.38,0,0,0-.14,0"/><path d="M92.27,77l.54-.31"/><path d="M92.22,76.58c.21-.1.37-.21.54-.31"/><path d="M92.14,76.26c.18-.12.37-.2.51-.31"/><path d="M92,76c.19-.12.38-.22.54-.31"/><path d="M91.84,75.61c.16-.07.35-.2.51-.28"/><path d="M91.62,75.34a1.49,1.49,0,0,0,.49-.28"/><path d="M91.41,75.13a1.91,1.91,0,0,1,.43-.29"/><path d="M91.08,74.87a1.38,1.38,0,0,0,.43-.27"/><path d="M91.19,74.44l-.37.21a0,0,0,0,0,0,0"/><path d="M90.76,74.28a.46.46,0,0,1-.13.08,2.14,2.14,0,0,0-.27.16"/><path d="M89.84,74.41l.33-.17"/><path d="M82.64,69.81a2.74,2.74,0,0,1,3.72.15,2.35,2.35,0,0,1,.76,1.71l-.11,0a2.37,2.37,0,0,0-.73-1.63,2.63,2.63,0,0,0-3.56-.15Z"/><path d="M87,71.15c.05-.23.13-.49.16-.72"/><path d="M86.93,70c0,.08,0,.17-.05.26s-.08.28-.11.41"/><path d="M86.66,69.58c0,.21-.08.37-.11.54s0,.09,0,.11"/><path d="M86.23,70a6.55,6.55,0,0,0,.19-.63"/><path d="M86,69.68c.05-.2.11-.41.14-.59"/><path d="M85.64,69.52a4.62,4.62,0,0,0,.13-.6"/><path d="M85.34,69.4a4.29,4.29,0,0,0,.13-.6"/><path d="M85,69.27a4.33,4.33,0,0,0,.13-.55"/><path d="M84.64,69.22c0-.17.11-.34.16-.51"/><path d="M84.32,69.25a4.38,4.38,0,0,0,.1-.53"/><path d="M83.91,69.27c0-.17.11-.33.16-.51"/><path d="M83.67,68.88a3.84,3.84,0,0,1-.11.46s0,0,0,0"/><path d="M83.29,69.1a.33.33,0,0,0-.05.16l-.08.28"/><path d="M82.72,69.84a1.72,1.72,0,0,0,.06-.32"/><path d="M74.37,71.69a2.74,2.74,0,0,1,2.75-2.54,2.69,2.69,0,0,1,1.75.66l-.11.1a2.49,2.49,0,0,0-1.64-.64A2.62,2.62,0,0,0,74.5,71.7Z"/><path d="M78.38,69.57l-.4-.65"/><path d="M77.49,68.74a1,1,0,0,0,.14.24,1.88,1.88,0,0,1,.21.36"/><path d="M77,68.68a4,4,0,0,1,.3.46s0,.07,0,.12"/><path d="M77,69.25c-.11-.2-.19-.41-.3-.57"/><path d="M76.6,69.27c-.11-.18-.21-.37-.32-.53"/><path d="M76.25,69.36c-.11-.17-.19-.35-.29-.53"/><path d="M76,69.48c-.11-.18-.22-.34-.3-.5"/><path d="M75.66,69.64c-.11-.16-.25-.34-.33-.49"/><path d="M75.36,69.85a3.2,3.2,0,0,0-.3-.45"/><path d="M75.12,70.11a2.05,2.05,0,0,0-.3-.47"/><path d="M74.88,70.39a1.53,1.53,0,0,0-.27-.44"/><path d="M74.42,70.33a2.38,2.38,0,0,1,.24.37v0"/><path d="M74.31,70.76s0,.07.06.11a1.28,1.28,0,0,1,.16.28"/><path d="M74.42,71.63l-.19-.28"/><path d="M69.19,77.08a2.79,2.79,0,0,1,.75-1.94,2.89,2.89,0,0,1,1.73-.78l0,.15a2.37,2.37,0,0,0-1.65.72,2.63,2.63,0,0,0-.14,3.55l-.1.1A2.78,2.78,0,0,1,69.19,77.08Z"/><path d="M71.13,74.53l-.7-.2"/><path d="M69.94,74.57c.11,0,.19.06.3.07l.4.1"/><path d="M69.62,74.82l.51.15.13,0"/><path d="M69.94,75.28a3.74,3.74,0,0,0-.62-.17"/><path d="M69.7,75.59l-.6-.18"/><path d="M69.51,75.87c-.19,0-.38-.1-.57-.15"/><path d="M69.4,76.18a5.09,5.09,0,0,1-.59-.14"/><path d="M69.27,76.53l-.54-.16"/><path d="M69.21,76.87a2.64,2.64,0,0,0-.51-.14"/><path d="M69.24,77.22l-.51-.15"/><path d="M69.27,77.59a3,3,0,0,0-.52-.13"/><path d="M68.92,77.85a3,3,0,0,1,.43.11h0"/><path d="M69.13,78.27h.14a2.16,2.16,0,0,1,.29.08"/><path d="M69.81,78.81a.88.88,0,0,0-.3-.08"/><path d="M69.19,84.43a2.76,2.76,0,0,1,.62-1.78l.1.11a2.47,2.47,0,0,0-.61,1.67,2.63,2.63,0,0,0,2.42,2.62l0,.1A2.7,2.7,0,0,1,69.19,84.43Z"/><path d="M69.56,83.15a6.15,6.15,0,0,1-.64.35"/><path d="M68.75,84c.06-.07.17-.09.22-.15s.24-.16.38-.23"/><path d="M68.67,84.48l.49-.31s0,0,.11,0"/><path d="M69.24,84.51a4.48,4.48,0,0,1-.57.33"/><path d="M69.27,84.92c-.19.1-.35.23-.54.31"/><path d="M69.38,85.25l-.54.31"/><path d="M69.48,85.56c-.18.1-.32.21-.51.31"/><path d="M69.67,85.87a3.13,3.13,0,0,0-.48.3"/><path d="M69.89,86.17a1.75,1.75,0,0,0-.49.28"/><path d="M70.13,86.41a1.64,1.64,0,0,0-.46.29"/><path d="M70.4,86.64a2.76,2.76,0,0,0-.46.26"/><path d="M70.29,87.07a2.55,2.55,0,0,0,.43-.23h0"/><path d="M70.78,87.21s0,0,.11-.06l.24-.16"/><path d="M71.64,87.1l-.27.15"/><path d="M74.39,89.85l.11,0a2.76,2.76,0,0,0,.73,1.65,2.69,2.69,0,0,0,3.58.12l.08.11a2.81,2.81,0,0,1-3.74-.12A2.56,2.56,0,0,1,74.39,89.85Z"/><path d="M74.55,90.36c0,.23-.13.46-.18.69"/><path d="M74.58,91.58c0-.11,0-.19,0-.29a2.24,2.24,0,0,1,.14-.39"/><path d="M74.82,91.9c.06-.17.11-.32.16-.51,0,0,0-.1,0-.12"/><path d="M75.28,91.58a2.67,2.67,0,0,0-.16.6"/><path d="M75.58,91.83c-.06.21-.11.41-.17.57"/><path d="M75.87,92a3,3,0,0,1-.16.56"/><path d="M76.2,92.13c-.06.22-.08.39-.14.57"/><path d="M76.55,92.24c-.06.16-.11.36-.16.54"/><path d="M76.87,92.29c-.05.15-.08.34-.13.51"/><path d="M77.22,92.24c0,.2-.08.36-.1.54"/><path d="M77.6,92.24a3.13,3.13,0,0,0-.13.48"/><path d="M77.84,92.6c0-.13.06-.25.11-.42,0,0,0,0,0-.05"/><path d="M78.28,92.4c0-.05,0-.11,0-.16a1.71,1.71,0,0,0,.08-.29"/><path d="M78.81,91.67a1.46,1.46,0,0,1-.1.34"/><path d="M82.67,91.67l.08-.09a2.43,2.43,0,0,0,1.67.66A2.64,2.64,0,0,0,87,89.82h.11a2.75,2.75,0,0,1-2.73,2.53A2.47,2.47,0,0,1,82.67,91.67Z"/><path d="M83.18,92c.11.18.22.4.33.62"/><path d="M84,92.75c-.06,0-.08-.15-.14-.2a1.32,1.32,0,0,0-.21-.37"/><path d="M84.45,92.83c-.08-.17-.16-.31-.24-.48-.06,0-.08-.06-.08-.11"/><path d="M84.5,92.29a3.11,3.11,0,0,1,.35.54"/><path d="M84.94,92.24a5.61,5.61,0,0,1,.29.54"/><path d="M85.26,92.13c.13.22.21.36.3.53"/><path d="M85.56,92a2.48,2.48,0,0,1,.32.51"/><path d="M85.91,91.87a3.87,3.87,0,0,0,.27.48"/><path d="M86.18,91.62a1.93,1.93,0,0,0,.27.51"/><path d="M86.42,91.39a3.39,3.39,0,0,0,.24.47"/><path d="M86.63,91.11c.08.16.19.31.28.47"/><path d="M87.12,91.21a1.46,1.46,0,0,1-.24-.41h0"/><path d="M87.23,90.75s0-.08-.11-.13-.08-.18-.11-.26"/><path d="M87.12,89.88a.53.53,0,0,0,.14.25"/><path d="M89.82,87a2.75,2.75,0,0,0,1.64-.74,2.6,2.6,0,0,0,.11-3.55l.11-.11a2.74,2.74,0,0,1-1.86,4.53Z"/><path d="M90.36,87a5.53,5.53,0,0,0,.7.18"/><path d="M91.51,87c-.05,0-.13,0-.21-.08a1.34,1.34,0,0,1-.4-.13"/><path d="M91.92,86.7a3.34,3.34,0,0,1-.51-.17c-.06,0-.11,0-.16,0"/><path d="M91.51,86.22l.65.19"/><path d="M91.81,85.91a4.62,4.62,0,0,0,.6.19"/><path d="M92,85.6a4.11,4.11,0,0,0,.57.17"/><path d="M92.11,85.31a3.47,3.47,0,0,1,.56.15"/><path d="M92.22,85c.19,0,.37.06.56.12"/><path d="M92.27,84.63a4,4,0,0,0,.54.16"/><path d="M92.27,84.27l.51.16"/><path d="M92.22,83.92l.51.12"/><path d="M92.59,83.66c-.1,0-.27-.08-.43-.11,0,0,0,0,0,0"/><path d="M92.41,83.24h-.17c-.1,0-.18,0-.26-.09"/><path d="M91.68,82.7c.11,0,.21.09.32.11"/><path d="M93.62,75.79c-.51.2-1,.24-1.05.06s.24-.48.73-.71.94-.23,1-.07S94.1,75.59,93.62,75.79Z"/><path d="M86.34,68.17c-.22.48-.51.82-.68.75s-.19-.52,0-1,.49-.85.67-.78S86.53,67.66,86.34,68.17Z"/><path d="M75.79,67.91c.22.47.27.92.06,1s-.49-.24-.7-.72-.22-1-.06-1S75.58,67.41,75.79,67.91Z"/><path d="M68.16,75.18c.49.19.84.49.76.67s-.52.18-1,0-.84-.5-.78-.66S67.68,75,68.16,75.18Z"/><path d="M67.92,85.71c.48-.2.92-.2,1,0s-.25.51-.73.7-1,.23-1,.07S67.46,85.91,67.92,85.71Z"/><path d="M75.17,93.37c.22-.51.52-.85.68-.77s.19.51,0,1-.52.85-.7.77S75,93.83,75.17,93.37Z"/><path d="M85.72,93.6c-.22-.49-.25-.94-.06-1s.49.26.7.72.25,1,.06,1S85.93,94.09,85.72,93.6Z"/><path d="M93.35,86.33c-.49-.2-.84-.51-.78-.67s.54-.15,1.05,0,.81.51.73.7S93.83,86.48,93.35,86.33Z"/><path d="M92.22,83,92.3,83a3.86,3.86,0,0,1,2.13,3.32v.08h-.14v-.11A3.72,3.72,0,0,0,92.22,83Z"/><path d="M90.49,87.36l.06-.11a3.55,3.55,0,0,0,3.74-1l.11.11A3.79,3.79,0,0,1,90.49,87.36Z"/><path d="M90.44,74.16a3.83,3.83,0,0,1,3.94.86l-.11.11a3.65,3.65,0,0,0-3.78-.87Z"/><path d="M92.27,78.42a3.72,3.72,0,0,0,2-3.19v-.14l.11,0a3.71,3.71,0,0,1-2.06,3.45Z"/><path d="M83,69.21a3.72,3.72,0,0,1,3.39-2.12v.11a3.7,3.7,0,0,0-3.28,2.07Z"/><path d="M86.34,67.17l.08-.08A3.84,3.84,0,0,1,87.36,71l-.13,0A3.79,3.79,0,0,0,86.34,67.17Z"/><path d="M74,69.79A3.61,3.61,0,0,1,75,67.13l.11.1A3.54,3.54,0,0,0,74.28,71l-.16,0A7.48,7.48,0,0,1,74,69.79Z"/><path d="M75.09,67.1a3.75,3.75,0,0,1,3.43,2.05l-.11.1a3.67,3.67,0,0,0-3.29-2Z"/><path d="M67.08,75.28v-.14l.14,0a3.65,3.65,0,0,0,2,3.27l-.06.13A3.9,3.9,0,0,1,67.08,75.28Z"/><path d="M67.08,75.13a3.79,3.79,0,0,1,3.91-1l0,.09a3.79,3.79,0,0,0-3.75.94Z"/><path d="M67.11,86.48l.13-.09a3.64,3.64,0,0,0,3.75.86l0,.11A3.88,3.88,0,0,1,67.11,86.48Z"/><path d="M67.08,86.28A3.9,3.9,0,0,1,69.19,83l0,.11a3.73,3.73,0,0,0-2,3.33h-.13A.27.27,0,0,1,67.08,86.28Z"/><path d="M75.15,94.45V94.3a3.68,3.68,0,0,0,3.29-2.06l.1.05A3.78,3.78,0,0,1,75.15,94.45Z"/><path d="M74,91.73a6.19,6.19,0,0,1,.13-1.19l.16,0a3.84,3.84,0,0,0-.16,1.16,3.38,3.38,0,0,0,1.08,2.58l-.08.09A3.57,3.57,0,0,1,74,91.73Z"/><path d="M86.42,94.3a3.81,3.81,0,0,0,.81-3.8l.13,0a3.86,3.86,0,0,1-.89,3.93Z"/><path d="M83,92.35l.13-.06a3.67,3.67,0,0,0,3.29,2l0,.13A3.83,3.83,0,0,1,83,92.35Z"/><line x1="87.47" y1="77.96" x2="85.29" y2="78.93"/><path d="M90.17,79.9a1.6,1.6,0,0,0-2.13,0"/><path d="M89.28,78.62a1.48,1.48,0,0,0-.08,1.95"/><path d="M88,81.71l.11-.11a1.49,1.49,0,0,0,2,0l.08.11A1.7,1.7,0,0,1,88,81.71Z"/><path d="M89.33,82.89a1.62,1.62,0,0,1-.38-.82,1.72,1.72,0,0,1,.3-1.08"/><path d="M86.61,76.25V76.1c1.29,0,1.4-1.36,1.4-1.42l.14,0S88,76.25,86.61,76.25Z"/><path d="M88.31,76.18a1.32,1.32,0,0,1-.84-.33,1.64,1.64,0,0,1-.54-.94"/><path d="M81.67,71.28a1.57,1.57,0,0,1,0,2.11"/><path d="M82.88,72.16a1.35,1.35,0,0,1-.83.39,1.7,1.7,0,0,1-1-.28"/><path d="M74.69,73.41s1.51.11,1.51,1.5"/><path d="M76.2,73.18a1.07,1.07,0,0,1-.35.83,1.54,1.54,0,0,1-.92.56"/><path d="M71.29,79.86a1.55,1.55,0,0,1,2.1,0"/><path d="M72.18,78.62a1.82,1.82,0,0,1,.38.82,1.67,1.67,0,0,1-.3,1.08"/><path d="M73.42,86.82s.11-1.51,1.51-1.51"/><path d="M73.18,85.31a1.51,1.51,0,0,1,.86.32,1.64,1.64,0,0,1,.54,1"/><path d="M79.87,90.23a1.58,1.58,0,0,1,0-2.13"/><path d="M78.65,89.34a1.42,1.42,0,0,1,1.89-.08"/><path d="M85.29,86.59h.1A1.49,1.49,0,0,0,86.82,88v.12A1.61,1.61,0,0,1,85.29,86.59Z"/><path d="M85.34,88.33a1.35,1.35,0,0,1,.3-.84,1.57,1.57,0,0,1,.94-.54"/><path d="M86.82,73.51s-1.48.12-1.48,1.5"/><path d="M85.34,73.2a1.48,1.48,0,0,0,1.24,1.48"/><path d="M80,71.35a1.53,1.53,0,0,0,0,2.1"/><path d="M78.65,72.21a1.49,1.49,0,0,0,1.94.11"/><path d="M73.53,74.71A1.56,1.56,0,0,0,75,76.19"/><path d="M73.21,76.19a1.44,1.44,0,0,0,1.45-1.27"/><path d="M71.37,81.6a1.58,1.58,0,0,0,2.13,0"/><path d="M72.21,82.89a1.54,1.54,0,0,0,.16-2"/><path d="M74.72,88s1.48-.11,1.48-1.5"/><path d="M76.2,88.31A1.48,1.48,0,0,0,75,86.84"/><path d="M81.62,90.13a1.56,1.56,0,0,0,0-2.1"/><path d="M82.88,89.31a1.57,1.57,0,0,0-1.94-.16"/><path d="M86.53,85.35v-.1c1.4,0,1.51,1.54,1.51,1.54l-.11,0C87.9,86.74,87.79,85.35,86.53,85.35Z"/><path d="M88.28,85.31a1.43,1.43,0,0,0-1.43,1.28"/></g></svg>