<svg xmlns="http://www.w3.org/2000/svg" viewBox="0 0 161.51 161.51"><title>circle-02</title><g id="Objects_path-filder"><path d="M54.6,80.76a26.15,26.15,0,1,1,26.16,26.1A26.21,26.21,0,0,1,54.6,80.76Zm50.83,0a24.68,24.68,0,1,0-24.67,24.67A24.75,24.75,0,0,0,105.43,80.76Z"/><path d="M64.09,80.76A16.68,16.68,0,1,1,80.76,97.4,16.68,16.68,0,0,1,64.09,80.76Zm31.5,0A14.84,14.84,0,1,0,80.76,95.59,14.86,14.86,0,0,0,95.59,80.76Z"/><path d="M41.73,80.76a39,39,0,1,1,39,39A39.07,39.07,0,0,1,41.73,80.76Zm76.24,0A37.2,37.2,0,1,0,80.76,118,37.26,37.26,0,0,0,118,80.76Z"/><path d="M100.77,81.89a1.15,1.15,0,1,1,0-2.29,1.15,1.15,0,1,1,0,2.29Z"/><path d="M99.69,74.15a1.2,1.2,0,0,1-1.54-.62,1.13,1.13,0,0,1,.6-1.48,1.16,1.16,0,0,1,1.53.59A1.21,1.21,0,0,1,99.69,74.15Z"/><path d="M95.67,67.41a1.05,1.05,0,0,1-1.56,0,1.13,1.13,0,1,1,1.56-1.62A1.08,1.08,0,0,1,95.67,67.41Z"/><path d="M89.44,62.72a1.09,1.09,0,0,1-1.48.59,1.12,1.12,0,0,1-.62-1.46,1.15,1.15,0,0,1,1.48-.62A1.12,1.12,0,0,1,89.44,62.72Z"/><path d="M81.89,60.75a1.16,1.16,0,0,1-1.13,1.16,1.12,1.12,0,0,1-1.14-1.16,1.14,1.14,0,1,1,2.27,0Z"/><path d="M74.15,61.85a1.11,1.11,0,0,1-.62,1.46,1.06,1.06,0,0,1-1.46-.59,1.13,1.13,0,0,1,.6-1.49A1.08,1.08,0,0,1,74.15,61.85Z"/><path d="M67.41,65.79a1.09,1.09,0,0,1,0,1.62,1,1,0,0,1-1.57,0,1.13,1.13,0,0,1,0-1.62A1.11,1.11,0,0,1,67.41,65.79Z"/><path d="M62.72,72.07a1,1,0,0,1,.59,1.46,1.06,1.06,0,0,1-1.46.62,1.21,1.21,0,0,1-.64-1.51A1.13,1.13,0,0,1,62.72,72.07Z"/><path d="M60.77,79.62a1.12,1.12,0,0,1,1.14,1.14,1.11,1.11,0,0,1-1.14,1.13,1.17,1.17,0,0,1-1.16-1.13A1.16,1.16,0,0,1,60.77,79.62Z"/><path d="M61.85,87.36a1,1,0,0,1,1.46.63,1,1,0,0,1-.59,1.45,1.14,1.14,0,0,1-1.49-.57A1.17,1.17,0,0,1,61.85,87.36Z"/><path d="M65.84,94.08a1.07,1.07,0,0,1,1.57,0,1.13,1.13,0,1,1-1.57,1.62A1.09,1.09,0,0,1,65.84,94.08Z"/><path d="M72.07,98.77a1.06,1.06,0,0,1,1.46-.56,1,1,0,0,1,.62,1.45,1.13,1.13,0,1,1-2.08-.89Z"/><path d="M79.62,100.71a1.14,1.14,0,0,1,2.27,0,1.2,1.2,0,0,1-1.13,1.19A1.14,1.14,0,0,1,79.62,100.71Z"/><path d="M87.34,99.61a1,1,0,0,1,.62-1.4,1,1,0,0,1,1.45.59,1.11,1.11,0,1,1-2.07.81Z"/><path d="M94.05,95.64a1.08,1.08,0,0,1,.06-1.56,1.05,1.05,0,0,1,1.56,0,1.15,1.15,0,0,1,0,1.62A1.11,1.11,0,0,1,94.05,95.64Z"/><path d="M98.75,89.44a1.14,1.14,0,0,1,.91-2.08,1.15,1.15,0,0,1,.65,1.46A1.19,1.19,0,0,1,98.75,89.44Z"/><path d="M105.35,80.73a7.11,7.11,0,1,1,7.12,7.12A7.12,7.12,0,0,1,105.35,80.73Zm12.38,0A5.26,5.26,0,1,0,112.47,86,5.25,5.25,0,0,0,117.73,80.73Z"/><path d="M103,68.59a7.1,7.1,0,0,1,13.67-2.72,7.42,7.42,0,0,1,.52,2.72,7.06,7.06,0,0,1-4.37,6.56,7.11,7.11,0,0,1-9.28-3.86A7.07,7.07,0,0,1,103,68.59Zm12.35,0a5.12,5.12,0,0,0-.37-2A5.28,5.28,0,0,0,108,63.74a5.36,5.36,0,0,0-2.83,6.88,5.15,5.15,0,0,0,2.83,2.8,4.89,4.89,0,0,0,4,0A5.19,5.19,0,0,0,115.3,68.59Z"/><path d="M96.08,58.29a7.33,7.33,0,0,1,2-5,7.1,7.1,0,0,1,10.06,10,7.09,7.09,0,0,1-12.1-5Zm12.37,0a5.28,5.28,0,0,0-9-3.69,5.41,5.41,0,0,0,0,7.41,5.22,5.22,0,0,0,7.44,0A5.14,5.14,0,0,0,108.45,58.29Z"/><path d="M85.8,51.41a6.4,6.4,0,0,1,.54-2.66A7.09,7.09,0,0,1,100,51.44a7.71,7.71,0,0,1-.54,2.73A7.13,7.13,0,0,1,90.17,58,7.1,7.1,0,0,1,85.8,51.41Zm12.35,0a5.19,5.19,0,0,0-3.29-4.88,5.25,5.25,0,1,0-4,9.71,5.12,5.12,0,0,0,4,0,5.06,5.06,0,0,0,2.89-2.83A4.4,4.4,0,0,0,98.15,51.44Z"/><path d="M73.67,49h0A7.07,7.07,0,1,1,87.8,49a7,7,0,0,1-7,7.15A7.15,7.15,0,0,1,73.67,49ZM86,49a5.25,5.25,0,1,0-5.25,5.26A5.33,5.33,0,0,0,86,49Z"/><path d="M61.5,51.44a7.11,7.11,0,0,1,13.68-2.72,7.34,7.34,0,0,1,.51,2.69A7.09,7.09,0,0,1,71.35,58a7.18,7.18,0,0,1-9.28-3.83A6.82,6.82,0,0,1,61.5,51.44Zm12.41,0a5.36,5.36,0,0,0-.41-2,5.25,5.25,0,0,0-6.87-2.86,5.41,5.41,0,0,0-2.89,6.91,5.31,5.31,0,0,0,6.9,2.8A5.24,5.24,0,0,0,73.91,51.41Z"/><path d="M51.23,58.29a7.1,7.1,0,1,1,12.1,5,7.1,7.1,0,0,1-12.1-5Zm12.38,0a5.17,5.17,0,0,0-1.54-3.69,5.33,5.33,0,0,0-7.47,0,5.42,5.42,0,0,0,0,7.44,5.28,5.28,0,0,0,9-3.72Z"/><path d="M44.35,68.57a7,7,0,0,1,.57-2.73,7.09,7.09,0,0,1,13.64,2.73A7.36,7.36,0,0,1,58,71.32a7.11,7.11,0,0,1-13.67-2.75Zm12.38,0a5.18,5.18,0,0,0-3.27-4.83,5.26,5.26,0,0,0-6.87,2.81,5.83,5.83,0,0,0-.38,2A5.25,5.25,0,0,0,56.3,70.62,4.67,4.67,0,0,0,56.73,68.57Z"/><path d="M42,80.7v0A7.1,7.1,0,1,1,49,87.85,7.14,7.14,0,0,1,42,80.68Zm12.35,0A5.23,5.23,0,0,0,49,75.47,5.26,5.26,0,1,0,49,86,5.29,5.29,0,0,0,54.3,80.73Z"/><path d="M44.35,92.92a7.08,7.08,0,0,1,9.87-6.58A6.87,6.87,0,0,1,58,90.17a7.6,7.6,0,0,1,.52,2.72,7.11,7.11,0,0,1-13.68,2.7A7.63,7.63,0,0,1,44.35,92.92Zm12.38,0a5,5,0,0,0-.43-2A4.94,4.94,0,0,0,53.52,88a5.18,5.18,0,0,0-4.07,0,5.28,5.28,0,0,0-3.24,4.91,5.33,5.33,0,0,0,.35,1.94,5.24,5.24,0,0,0,6.85,2.86A5.15,5.15,0,0,0,56.73,92.89Z"/><path d="M51.25,103.17a7.09,7.09,0,0,1,12.11-5,7.27,7.27,0,0,1,0,10,7.06,7.06,0,0,1-12.08-5Zm12.36,0a5.4,5.4,0,0,0-1.54-3.75,5.12,5.12,0,0,0-3.72-1.54,5,5,0,0,0-3.75,1.54,5.49,5.49,0,0,0,0,7.47,5.29,5.29,0,0,0,9-3.72Z"/><path d="M61.56,110a7.08,7.08,0,0,1,.51-2.7,7.1,7.1,0,0,1,9.28-3.86A7.11,7.11,0,0,1,65.9,116.6,7.11,7.11,0,0,1,61.56,110Zm12.35,0a5.37,5.37,0,0,0-3.27-4.91,5.26,5.26,0,0,0-6.9,2.86,5.41,5.41,0,0,0,2.83,6.9,5.33,5.33,0,0,0,7.34-4.85Z"/><path d="M73.67,112.47v0a7.18,7.18,0,0,1,2.07-5,7.29,7.29,0,0,1,5-2,7.11,7.11,0,1,1-7.09,7.12Zm12.34,0a5.28,5.28,0,0,0-5.25-5.28,5.21,5.21,0,0,0-5.24,5.23h-.94l.94,0a5.25,5.25,0,1,0,10.49,0Z"/><path d="M85.8,110a7,7,0,0,1,4.37-6.56,7.11,7.11,0,1,1-3.83,9.28A6.67,6.67,0,0,1,85.8,110Zm12.35,0a4.15,4.15,0,0,0-.4-2,5.28,5.28,0,0,0-6.88-2.89A5.29,5.29,0,1,0,98.15,110Z"/><path d="M96.08,103.17a6.93,6.93,0,0,1,2.1-5,7,7,0,0,1,10,0,7.22,7.22,0,0,1,0,10,7.13,7.13,0,0,1-10,0A7,7,0,0,1,96.08,103.17Zm12.37,0a5.28,5.28,0,0,0-9-3.75,5.46,5.46,0,0,0,0,7.47,5.28,5.28,0,0,0,7.44,0A5.36,5.36,0,0,0,108.45,103.17Z"/><path d="M103,92.89a6.67,6.67,0,0,1,.57-2.75A7.08,7.08,0,0,1,117.14,93a7.86,7.86,0,0,1-.49,2.67,7.19,7.19,0,0,1-9.3,3.8A7.06,7.06,0,0,1,103,92.89ZM115.3,93a5.26,5.26,0,0,0-10.11-2.13A5.29,5.29,0,0,0,115,94.91,5.41,5.41,0,0,0,115.3,93Z"/><path d="M130.75,32.3c-.18,5.34-1.1,19.82-5.36,23.43-4.56,3.86-12.08,4.59-17.88-1.24-.16-.13-.3-.3-.49-.46-5.82-5.85-5.09-13.32-1.24-17.91,4.13-4.82,22-5.31,24-5.36M108.08,52.44c.35.33.64.7,1,1h0c5,4.74,11.32,4.12,15.18.86,3-2.54,4.34-13,4.67-21.71-5.86.19-18.83,1.3-21.69,4.69-3.31,3.88-3.94,10.14.84,15.16Z"/><path d="M124.26,38.18c-.14,3.82-.76,14.48-3.86,17.09-3.32,2.81-8.68,3.32-12.92-.91a1.26,1.26,0,0,1-.32-.33c-4.24-4.18-3.72-9.6-.89-12.89,3-3.59,16.85-3.86,17.42-3.88m-16,15.8a8.2,8.2,0,0,0,.72.73h0a8.27,8.27,0,0,0,11.25.62c2.21-1.84,3.23-9.68,3.42-16-4.23.11-13.91.92-16,3.45a8.18,8.18,0,0,0,.63,11.22Z"/><path d="M107.32,53.71c2.54,2.86,6,2.8,8.23.94S118,43.51,118,43.54s-9.22.16-11.14,2.37-1.94,5.72,1,8.31Z"/><path d="M81.84,11.15C85.48,15,95.08,25.93,94.62,31.51c-.51,6-5.31,11.79-13.48,11.79h-.71c-8.25,0-13-5.83-13.51-11.84-.51-6.31,11.79-19.28,13.19-20.77m0,30.72c.45,0,.94,0,1.4,0v0c6.87-.16,10.92-5,11.3-10.12.35-3.88-6.1-12.32-12-18.66-4,4.29-12.38,14.27-12,18.69.43,5,4.42,9.93,11.33,10.09Z"/><path d="M81.4,19.89c2.62,2.83,9.69,10.79,9.36,14.83A9.35,9.35,0,0,1,81,43.22a2.58,2.58,0,0,1-.49,0,9.25,9.25,0,0,1-9.73-8.47c-.38-4.66,9.22-14.64,9.6-15.13m-.16,22.5a9.73,9.73,0,0,0,1.08,0v0a8.25,8.25,0,0,0,8.36-7.5c.21-2.88-4.53-9.11-8.9-13.78-2.89,3.08-9.2,10.49-8.88,13.78a8.23,8.23,0,0,0,8.34,7.5Z"/><path d="M80.41,42.87c3.85.21,6.25-2.32,6.5-5.21s-6.15-9.54-6.15-9.54-6.37,6.63-6.15,9.54,2.67,5.42,6.53,5.21Z"/><path d="M32.3,30.79c5.34.18,19.84,1.07,23.43,5.33,3.88,4.59,4.61,12.06-1.24,17.89a4.08,4.08,0,0,1-.46.48c-5.82,5.83-13.29,5.1-17.93,1.21-4.8-4.09-5.29-22-5.34-24M52.44,53.41c.35-.27.67-.64,1-1h0c4.75-5,4.16-11.25.87-15.13-2.54-3-13-4.39-21.68-4.69.16,5.88,1.26,18.85,4.66,21.71,3.86,3.26,10.17,3.86,15.13-.86Z"/><path d="M38.2,37.26c3.8.13,14.48.78,17.07,3.88,2.81,3.29,3.32,8.71-.89,12.89a1.21,1.21,0,0,1-.35.33,9.32,9.32,0,0,1-12.89.91c-3.56-3.05-3.85-16.85-3.88-17.47m15.8,16a8.73,8.73,0,0,0,.73-.76l.05,0a8.29,8.29,0,0,0,.62-11.22c-1.88-2.21-9.73-3.26-16.07-3.48.14,4.24.92,13.92,3.45,16a8.27,8.27,0,0,0,11.22-.62Z"/><path d="M53.68,54.22c2.94-2.59,2.86-6.07.94-8.31s-11.08-2.4-11-2.4.16,9.23,2.37,11.14,5.72,1.92,8.28-.94Z"/><path d="M11.15,79.68C15,76,25.93,66.44,31.51,66.87c6,.54,11.79,5.28,11.79,13.56v.65c0,8.28-5.8,13-11.81,13.54-6.34.48-19.31-11.81-20.77-13.21m30.74,0v-1.4c-.18-6.91-5.06-10.93-10.13-11.36-3.89-.29-12.3,6.18-18.67,12.06,4.32,4,14.27,12.38,18.69,12,5-.43,9.93-4.42,10.11-11.35Z"/><path d="M19.89,80.11c2.81-2.62,10.81-9.68,14.83-9.33a9.23,9.23,0,0,1,8.47,9.71,3.09,3.09,0,0,1,0,.51c0,6-4.18,9.39-8.5,9.76-4.69.38-14.64-9.22-15.07-9.63m22.43.14a4.64,4.64,0,0,0,0-1h0a8.19,8.19,0,0,0-7.47-8.39c-2.88-.21-9.14,4.56-13.78,8.93,3.11,2.91,10.5,9.17,13.78,8.9a8.17,8.17,0,0,0,7.47-8.39Z"/><path d="M42.87,81.13c.21-3.88-2.32-6.28-5.21-6.55s-9.54,6.18-9.54,6.18,6.63,6.39,9.54,6.17,5.42-2.69,5.21-6.55Z"/><path d="M150.42,81.84c-3.86,3.64-14.73,13.26-20.31,12.78-6-.51-11.81-5.26-11.81-13.51v-.68c0-8.28,5.85-13,11.84-13.56,6.31-.49,19.28,11.84,20.73,13.24m-30.69,0v1.43l0,0c.21,6.93,5.09,10.92,10.11,11.35,3.86.33,12.33-6.17,18.64-12-4.24-4.05-14.25-12.38-18.67-12.06-5,.43-9.87,4.45-10.08,11.36Z"/><path d="M141.7,81.41c-2.8,2.61-10.76,9.68-14.77,9.35A9.31,9.31,0,0,1,118.4,81a4.1,4.1,0,0,1,0-.51,9.29,9.29,0,0,1,8.55-9.71c4.63-.38,14.61,9.19,15.07,9.6m-22.49-.13a4.14,4.14,0,0,0,0,1h0A8.22,8.22,0,0,0,127,89.68c2.89.25,9.17-4.56,13.81-8.92-3.1-2.91-10.52-9.17-13.78-8.9a8.2,8.2,0,0,0-7.5,8.39Z"/><path d="M118.76,80.38c-.25,3.86,2.26,6.28,5.17,6.55s9.55-6.17,9.55-6.17-6.64-6.39-9.55-6.18-5.42,2.67-5.17,6.55Z"/><path d="M30.76,129.19c.22-5.29,1.08-19.79,5.37-23.41,4.61-3.85,12.08-4.61,17.88,1.24a5.22,5.22,0,0,1,.48.46c5.85,5.83,5.12,13.32,1.24,17.94-4.13,4.8-22,5.28-24,5.34m21.71-21.71c-.3-.33-.62-.65-1-1h0c-5-4.77-11.27-4.16-15.13-.84-3,2.51-4.39,13-4.66,21.66,5.85-.16,18.82-1.27,21.7-4.69,3.27-3.83,3.86-10.12-.89-15.13Z"/><path d="M37.26,123.34c.16-3.86.81-14.51,3.88-17.1A9.32,9.32,0,0,1,54,107.1c.14.14.24.25.35.38,4.21,4.21,3.67,9.6.89,12.89-3,3.56-16.88,3.86-17.47,3.91m16-15.85a5.09,5.09,0,0,0-.76-.7l0,0a8.26,8.26,0,0,0-11.25-.62c-2.18,1.88-3.2,9.71-3.45,16.07,4.26-.16,14-.94,16.08-3.45a8.3,8.3,0,0,0-.65-11.27Z"/><path d="M54.22,107.81c-2.56-2.89-6.09-2.81-8.28-1S43.57,118,43.54,118s9.22-.18,11.08-2.4,2-5.71-.94-8.28Z"/><path d="M79.68,150.36c-3.61-3.88-13.24-14.78-12.79-20.36.52-6,5.29-11.78,13.54-11.78h.68c8.2,0,13,5.8,13.51,11.81.48,6.33-11.81,19.31-13.22,20.79m.06-30.72h-1.4v0c-6.91.16-10.9,5-11.33,10.11-.33,3.86,6.15,12.3,12,18.66,4-4.29,12.37-14.26,12-18.72-.38-5-4.43-9.89-11.3-10Z"/><path d="M80.11,141.62c-2.64-2.8-9.71-10.78-9.33-14.83a9.31,9.31,0,0,1,9.73-8.49H81a9.31,9.31,0,0,1,9.73,8.49c.38,4.67-9.16,14.64-9.59,15.08m.13-22.47a6.28,6.28,0,0,0-1,.06v-.06a8.24,8.24,0,0,0-8.36,7.5c-.25,2.88,4.56,9.14,8.87,13.81,2.94-3.13,9.17-10.52,8.9-13.81a8.26,8.26,0,0,0-8.36-7.5Z"/><path d="M81.14,118.65c-3.86-.22-6.29,2.32-6.53,5.2s6.17,9.55,6.12,9.55,6.39-6.66,6.18-9.55-2.65-5.42-6.5-5.2Z"/><path d="M129.22,130.7c-5.34-.16-19.8-1-23.46-5.28-3.83-4.62-4.56-12.11,1.24-17.91l.48-.49c5.83-5.85,13.35-5.09,17.94-1.24,4.77,4.13,5.28,22,5.33,24.06m-21.7-21.74c-.33.3-.62.62-1,1l0,0c-4.78,5-4.15,11.3-.84,15.18,2.48,3,13,4.37,21.69,4.64-.22-5.83-1.33-18.8-4.67-21.68-3.86-3.3-10.17-3.91-15.18.86Z"/><path d="M123.31,124.28c-3.8-.18-14.45-.81-17-3.91-2.83-3.29-3.35-8.68.86-12.92a2.81,2.81,0,0,0,.33-.35c4.23-4.17,9.62-3.64,12.91-.86,3.56,3,3.86,16.88,3.86,17.45m-15.78-16a3.43,3.43,0,0,0-.72.75h0a8.23,8.23,0,0,0-.68,11.22c1.89,2.21,9.74,3.18,16.07,3.45-.1-4.23-.91-13.94-3.45-16.05a8.21,8.21,0,0,0-11.22.63Z"/><path d="M107.83,107.29c-2.91,2.57-2.83,6.07-1,8.28S118,118,118,118s-.19-9.25-2.42-11.14-5.69-1.94-8.23,1Z"/><path d="M128,46.43V44.57a16.49,16.49,0,0,1,12,28l-1.29-1.26A14.69,14.69,0,0,0,128,46.43Z"/><path d="M143,69a3.34,3.34,0,0,1-2.27.08,14.19,14.19,0,0,0-10.22-22.6A2.87,2.87,0,0,1,132,45.1c1.86-.8,4,.36,5,2.46,1-2.29,3.18-3.61,5.07-2.89s2.54,3.11,1.81,5.32c2.32-1,4.77-.25,5.55,1.62s-.35,3.88-2.42,5c2.21.92,3.58,3.1,2.83,4.94s-3,2.61-5.34,1.83C145.51,65.71,144.83,68.22,143,69Z"/><path d="M127.68,49.45,128,48.4a15.57,15.57,0,0,1,11.41,15,13.68,13.68,0,0,1-1.94,7.2l-.92-.54a13.26,13.26,0,0,0,1.75-6.66A14.41,14.41,0,0,0,127.68,49.45Z"/><path d="M88.61,21.72a16.56,16.56,0,0,1,28.31,11.36l-1.86,0A14.67,14.67,0,0,0,89.9,23.05Z"/><path d="M116.46,28.47a3.26,3.26,0,0,1-1.53,1.64,14.24,14.24,0,0,0-23.25-8.76,2.81,2.81,0,0,1,.08-2.05c.73-1.86,3.08-2.56,5.28-1.81-.88-2.32-.32-4.77,1.57-5.61s4,.38,5,2.51c1-2.37,3.16-3.56,5-2.86s2.53,3.07,1.86,5.31c2.24-.94,4.69-.35,5.53,1.51s-.3,4-2.48,5C115.92,24.31,117.16,26.61,116.46,28.47Z"/><path d="M91.25,24.5a15.46,15.46,0,0,1,18.66,2.59,13.7,13.7,0,0,1,3.78,6.45l-1,.26a13.22,13.22,0,0,0-3.53-5.95,14.5,14.5,0,0,0-17.37-2.4Z"/><path d="M44.59,33.46a16.54,16.54,0,0,1,28-12l-1.24,1.32A14.68,14.68,0,0,0,46.43,33.46Z"/><path d="M69,18.54a3.2,3.2,0,0,1,.1,2.24A14.21,14.21,0,0,0,46.51,31a2.86,2.86,0,0,1-1.38-1.48c-.83-1.81.33-4,2.43-5-2.29-1-3.61-3.18-2.86-5s3-2.62,5.31-1.86c-.94-2.32-.26-4.72,1.57-5.56s3.93.38,5,2.48c.92-2.26,3.1-3.58,5-2.85s2.65,3,1.81,5.31C65.71,16,68.22,16.71,69,18.54Z"/><path d="M48.37,33.56A15.59,15.59,0,0,1,63.44,22.18a14.23,14.23,0,0,1,7.23,1.89l-.54,1a13,13,0,0,0-6.69-1.75,14.42,14.42,0,0,0-14,10.54Z"/><path d="M16.87,61.1a16.49,16.49,0,0,1,4.8-11.68,16.7,16.7,0,0,1,11.38-4.83l.05,1.84a14.7,14.7,0,0,0-10,25.19l-1.33,1.26A16.64,16.64,0,0,1,16.87,61.1Z"/><path d="M28.46,45.08a3,3,0,0,1,1.65,1.51,14.18,14.18,0,0,0-8.74,23.19,3,3,0,0,1-2.07,0c-1.84-.7-2.57-3-1.78-5.29-2.35.89-4.8.32-5.61-1.51s.32-4,2.45-5.09c-2.32-1-3.5-3.13-2.8-5s3-2.51,5.28-1.81c-.94-2.26-.35-4.75,1.51-5.55s4,.29,5,2.48C24.34,45.62,26.61,44.32,28.46,45.08Z"/><path d="M22.48,62.69a15.67,15.67,0,0,1,4.61-11.08,13.34,13.34,0,0,1,6.47-3.78l.27,1.08a12.7,12.7,0,0,0-6,3.42,14.51,14.51,0,0,0-2.4,17.4l-1,.56A15.4,15.4,0,0,1,22.48,62.69Z"/><path d="M16.82,100.39a16.53,16.53,0,0,1,4.63-11.46l1.35,1.26a14.67,14.67,0,0,0,10.68,24.9v1.83A16.61,16.61,0,0,1,16.82,100.39Z"/><path d="M18.54,92.46a3.81,3.81,0,0,1,2.27-.08A14.19,14.19,0,0,0,31,115a2.66,2.66,0,0,1-1.48,1.37c-1.81.84-4-.32-5-2.42-1,2.31-3.15,3.61-5,2.88s-2.56-3.07-1.83-5.37c-2.32,1-4.75.3-5.53-1.53s.32-3.94,2.4-5c-2.24-.94-3.54-3.13-2.83-5s3.07-2.64,5.33-1.78C16,95.81,16.68,93.3,18.54,92.46Z"/><path d="M22.21,98.07a14.23,14.23,0,0,1,1.86-7.25l1,.59a12.6,12.6,0,0,0-1.78,6.66,14.36,14.36,0,0,0,10.57,14l-.27,1.08A15.48,15.48,0,0,1,22.21,98.07Z"/><path d="M44.59,128.44l1.84,0A14.69,14.69,0,0,0,71.61,138.5l1.27,1.29a16.55,16.55,0,0,1-28.29-11.35Z"/><path d="M45.05,133.05a3.46,3.46,0,0,1,1.51-1.65,14.24,14.24,0,0,0,23.22,8.77,3.13,3.13,0,0,1,0,2.05c-.73,1.86-3.11,2.56-5.32,1.81.92,2.31.35,4.77-1.51,5.55s-4-.3-5.1-2.43c-1,2.32-3.13,3.54-5,2.83s-2.54-3-1.84-5.31c-2.24,1-4.72.35-5.53-1.48s.3-4.05,2.48-5.07C45.59,137.2,44.32,134.91,45.05,133.05Z"/><path d="M47.83,128l1.08-.24a12.83,12.83,0,0,0,3.45,5.93,14.51,14.51,0,0,0,17.37,2.43l.54.94a15.53,15.53,0,0,1-18.67-2.56A14.23,14.23,0,0,1,47.83,128Z"/><path d="M88.9,140.06l1.27-1.35a14.66,14.66,0,0,0,24.89-10.65H117a16.56,16.56,0,0,1-28,12Z"/><path d="M92.46,143a3.32,3.32,0,0,1-.08-2.24A14.22,14.22,0,0,0,115,130.51a3.27,3.27,0,0,1,1.4,1.49c.81,1.83-.35,4-2.46,5,2.27,1,3.62,3.21,2.86,5.05s-3,2.58-5.31,1.83c1,2.32.27,4.75-1.54,5.55s-3.94-.34-5-2.45c-.94,2.27-3.1,3.56-5,2.86s-2.61-3.07-1.81-5.31C95.8,145.56,93.3,144.81,92.46,143Z"/><path d="M90.84,137.44l.57-1a12.56,12.56,0,0,0,6.69,1.79,14.43,14.43,0,0,0,14-10.58l1.08.3A15.56,15.56,0,0,1,98.1,139.31,14.34,14.34,0,0,1,90.84,137.44Z"/><path d="M128.41,115.09a14.94,14.94,0,0,0,10.17-4.29,14.75,14.75,0,0,0-.11-20.87l1.32-1.33a16.55,16.55,0,0,1-11.35,28.32Z"/><path d="M133,116.46a3.58,3.58,0,0,1-1.64-1.51,14.21,14.21,0,0,0,8.76-23.22,2.92,2.92,0,0,1,2,.06c1.92.67,2.64,3,1.86,5.26,2.32-.87,4.8-.3,5.61,1.56s-.37,4-2.51,5.1c2.35.91,3.56,3.1,2.84,5s-3,2.5-5.29,1.8c.92,2.27.33,4.72-1.48,5.53s-4.05-.27-5.07-2.45C137.2,115.9,134.91,117.19,133,116.46Z"/><path d="M127.68,112.61a12.77,12.77,0,0,0,6-3.48,14.45,14.45,0,0,0,2.43-17.34l.94-.54a15.43,15.43,0,0,1-2.59,18.66,13.75,13.75,0,0,1-6.47,3.77Z"/><path d="M116.6,93.59a.48.48,0,0,1,.19-.45,8.25,8.25,0,0,1,6.14-2,8.13,8.13,0,0,1,5.62,2.92,6.74,6.74,0,0,1,1.61,4.39,5.72,5.72,0,0,1,0,.6,6.88,6.88,0,0,1-2.4,4.61,5.56,5.56,0,0,1-7.85-.68,4.64,4.64,0,0,1-1.11-2.94,1,1,0,0,1,.06-.4,4.38,4.38,0,0,1,1.61-3.07,3.72,3.72,0,0,1,2.75-.92,3.76,3.76,0,0,1,2.59,1.35,3.44,3.44,0,0,1,.71,2.34,3.16,3.16,0,0,1-1.11,2.08,2.62,2.62,0,0,1-1.89.65,2.65,2.65,0,0,1-1.83-1,.58.58,0,0,1,.08-.8.51.51,0,0,1,.83,0,1.79,1.79,0,0,0,1,.49,1.39,1.39,0,0,0,1-.33,2.08,2.08,0,0,0,.7-1.29,2,2,0,0,0-.49-1.43,2.59,2.59,0,0,0-1.72-.92,2.62,2.62,0,0,0-1.84.62,3.18,3.18,0,0,0-.4,4.69,4,4,0,0,0,2.88,1.57,4.38,4.38,0,0,0,3.19-1,5.61,5.61,0,0,0,2-3.77,5.5,5.5,0,0,0-1.32-4.08,6.93,6.93,0,0,0-4.83-2.53,7.3,7.3,0,0,0-5.2,1.65.64.64,0,0,1-.89,0A1,1,0,0,1,116.6,93.59Z"/><path d="M115,64.09v0a8.32,8.32,0,0,1,9-7.61,6.77,6.77,0,0,1,4.64,2.37,6.58,6.58,0,0,1,1.54,4.94,5.42,5.42,0,0,1-1.94,3.8,5.57,5.57,0,0,1-4.07,1.3A4.54,4.54,0,0,1,120,63.9a3.81,3.81,0,0,1,4.07-3.48,3.28,3.28,0,0,1,2.19,1.14,3,3,0,0,1,.67,2.29,2.58,2.58,0,0,1-.92,1.81,2.88,2.88,0,0,1-1.91.61.62.62,0,0,1,.11-1.24,1.34,1.34,0,0,0,1-.32,1.76,1.76,0,0,0,.51-1,2,2,0,0,0-.48-1.4,1.86,1.86,0,0,0-1.3-.68,2.73,2.73,0,0,0-1.94.62,2.45,2.45,0,0,0-.81,1.73,3,3,0,0,0,.78,2.43,3.1,3.1,0,0,0,2.24,1.16,4.46,4.46,0,0,0,3.21-1,4.52,4.52,0,0,0,1.49-3,5.6,5.6,0,0,0-1.27-4,5.51,5.51,0,0,0-3.83-2,7,7,0,0,0-5.15,1.62,7.17,7.17,0,0,0-2.54,4.86.57.57,0,0,1-.67.54A.55.55,0,0,1,115,64.09Z"/><path d="M128.9,44a.93.93,0,0,1,.08-.38.88.88,0,0,1,1.21-.43,7.05,7.05,0,0,0,5.23.19,6.92,6.92,0,0,0,3.8-3.56,5.18,5.18,0,0,0-2.59-7,4.11,4.11,0,0,0-3.12-.11,4,4,0,0,0-2.21,2.1,2.92,2.92,0,0,0-.11,2.35,2.87,2.87,0,0,0,1.59,1.69,2.33,2.33,0,0,0,1.72.09,2.06,2.06,0,0,0,1.24-1.19,1.57,1.57,0,0,0-.75-2.13,1,1,0,0,0-.89,0,1,1,0,0,0-.62.56.91.91,0,0,1-1.22.46.93.93,0,0,1-.43-1.21A2.84,2.84,0,0,1,135.69,34a3.13,3.13,0,0,1,1.81,1.89,3.42,3.42,0,0,1-.08,2.66,4,4,0,0,1-5.4,2,4.83,4.83,0,0,1-2.56-2.72,4.71,4.71,0,0,1,.16-3.72A5.64,5.64,0,0,1,132.89,31a5.87,5.87,0,0,1,4.47.16,7.11,7.11,0,0,1,3.73,4,7,7,0,0,1-.22,5.44,8.34,8.34,0,0,1-4.8,4.5,8.65,8.65,0,0,1-6.66-.24A.92.92,0,0,1,128.9,44Z"/><path d="M81.94,11.15a6.24,6.24,0,0,1,.49-2.43,6,6,0,0,1,3.34-3.07,7.08,7.08,0,0,1,9.07,4.18,8.52,8.52,0,0,1-.2,6.61A8.86,8.86,0,0,1,89.79,21a.91.91,0,0,1-1.18-.54,1,1,0,0,1,.53-1.19A6.87,6.87,0,0,0,93,15.74a7,7,0,0,0,.16-5.26,5.21,5.21,0,0,0-2.75-3,5.35,5.35,0,0,0-4-.16A4.19,4.19,0,0,0,84.1,9.48,4.17,4.17,0,0,0,84,12.55a3,3,0,0,0,1.59,1.73,2.73,2.73,0,0,0,2.29.06,2.2,2.2,0,0,0,1.27-1.14,2.53,2.53,0,0,0,.08-1.78,1.6,1.6,0,0,0-.89-.86,1.33,1.33,0,0,0-1.21-.05,1.1,1.1,0,0,0-.59.59,1,1,0,0,0,0,.84A.91.91,0,0,1,86,13.09a.87.87,0,0,1-1.16-.51,2.86,2.86,0,0,1,.06-2.26,3.17,3.17,0,0,1,1.7-1.54,3.41,3.41,0,0,1,2.58.08,3.28,3.28,0,0,1,1.78,2A3.87,3.87,0,0,1,90.84,14a3.8,3.8,0,0,1-2.29,2.07,4.59,4.59,0,0,1-3.72-.13A4.82,4.82,0,0,1,82.3,13.2,5.79,5.79,0,0,1,81.94,11.15Z"/><path d="M30.65,26.58a6.05,6.05,0,0,1,.54-2.45,7,7,0,0,1,9.41-3.48,8.61,8.61,0,0,1,4.26,11.43.88.88,0,0,1-1.21.46.91.91,0,0,1-.43-1.22,6.85,6.85,0,0,0-3.37-9,5.44,5.44,0,0,0-4.08-.13,5.2,5.2,0,0,0-2.94,2.72A4.09,4.09,0,0,0,32.75,28a3.85,3.85,0,0,0,2.11,2.21,3,3,0,0,0,4-1.46A2.15,2.15,0,0,0,39,27a2.29,2.29,0,0,0-1.22-1.3,1.39,1.39,0,0,0-1.21,0,1.43,1.43,0,0,0-.89.84,1,1,0,0,0,0,.88,1,1,0,0,0,.59.6.92.92,0,0,1,.43,1.24.91.91,0,0,1-1.19.43,3,3,0,0,1-1.56-1.62A3.16,3.16,0,0,1,34,25.74,3.41,3.41,0,0,1,35.88,24a3.48,3.48,0,0,1,2.65.08,4.08,4.08,0,0,1,2,5.42,4.67,4.67,0,0,1-2.72,2.56,4.8,4.8,0,0,1-3.72-.16,5.78,5.78,0,0,1-3-3.24A5.72,5.72,0,0,1,30.65,26.58Z"/><path d="M5.19,73.29a7,7,0,0,1,.68-2.94,7.08,7.08,0,0,1,4-3.7,8.49,8.49,0,0,1,6.58.19A8.84,8.84,0,0,1,21,71.72a1,1,0,0,1-.57,1.16.92.92,0,0,1-1.19-.54,6.7,6.7,0,0,0-8.73-4,5.18,5.18,0,0,0-3,2.75,5.34,5.34,0,0,0-.13,4,4.07,4.07,0,0,0,5.2,2.4,3.07,3.07,0,0,0,1.7-1.62,2.66,2.66,0,0,0,.05-2.32,2.07,2.07,0,0,0-1.13-1.26,2.17,2.17,0,0,0-1.75,0,1.45,1.45,0,0,0-.89.84,1.47,1.47,0,0,0-.05,1.18,1.22,1.22,0,0,0,.59.68,1,1,0,0,0,.83,0,.92.92,0,0,1,1.19.56.87.87,0,0,1-.54,1.14,2.55,2.55,0,0,1-2.21-.06A2.73,2.73,0,0,1,8.83,75a3.2,3.2,0,0,1,.06-2.59,3.27,3.27,0,0,1,2-1.81,3.88,3.88,0,0,1,3.15.11,3.77,3.77,0,0,1,2,2.27,4.55,4.55,0,0,1-.14,3.72,4.72,4.72,0,0,1-2.75,2.59,5.67,5.67,0,0,1-4.39-.16,6,6,0,0,1-3.13-3.32A8,8,0,0,1,5.19,73.29Z"/><path d="M20,123.9a7.18,7.18,0,0,1,.64-3,8.63,8.63,0,0,1,4.83-4.53,8.74,8.74,0,0,1,6.64.27.93.93,0,0,1,.43,1.22.94.94,0,0,1-1.21.43,6.78,6.78,0,0,0-9,3.37,5.4,5.4,0,0,0-.17,4.1,5.47,5.47,0,0,0,2.73,2.91,4.34,4.34,0,0,0,3.13.11,4.2,4.2,0,0,0,2.24-2.11,3.06,3.06,0,0,0-1.49-4,2,2,0,0,0-1.72-.06,2.42,2.42,0,0,0-1.3,1.16,1.69,1.69,0,0,0,0,1.27,1.61,1.61,0,0,0,.86.86,1.06,1.06,0,0,0,.87.06,1.14,1.14,0,0,0,.61-.57.87.87,0,0,1,1.19-.46.82.82,0,0,1,.49,1.19A2.88,2.88,0,0,1,28,127.65a3.18,3.18,0,0,1-2.29-.1A3.47,3.47,0,0,1,24,125.63,3.21,3.21,0,0,1,24.1,123a4.1,4.1,0,0,1,2.32-2.16,4.27,4.27,0,0,1,3.1.14,5,5,0,0,1,2.53,2.72,5.1,5.1,0,0,1-.13,3.78,6.17,6.17,0,0,1-3.24,3,6.1,6.1,0,0,1-4.56-.14,7.2,7.2,0,0,1-3.69-4A7.76,7.76,0,0,1,20,123.9Z"/><path d="M66.09,148.64a9.07,9.07,0,0,1,.78-3.57,8.67,8.67,0,0,1,4.83-4.52.9.9,0,0,1,1.18.53.94.94,0,0,1-.51,1.16,6.85,6.85,0,0,0-3.83,3.62,6.51,6.51,0,0,0-.16,5.18,5.2,5.2,0,0,0,2.75,3,5.07,5.07,0,0,0,4,.14A4,4,0,0,0,77.44,152a3.92,3.92,0,0,0,0-3.08,2.93,2.93,0,0,0-1.56-1.7,3.08,3.08,0,0,0-2.35,0,2.19,2.19,0,0,0-1.26,1.13,2.35,2.35,0,0,0-.06,1.73,1.62,1.62,0,0,0,.86.94,1.89,1.89,0,0,0,1.22,0,1.36,1.36,0,0,0,.65-.57,1,1,0,0,0,0-.86,1,1,0,0,1,.53-1.19,1,1,0,0,1,1.22.54,3.09,3.09,0,0,1-.08,2.24,3.16,3.16,0,0,1-1.7,1.56,3.43,3.43,0,0,1-4.42-2,4.25,4.25,0,0,1,.16-3.16,3.93,3.93,0,0,1,2.26-2.1,4.76,4.76,0,0,1,3.72.16,4.53,4.53,0,0,1,2.51,2.72,5.53,5.53,0,0,1-.1,4.42,5.59,5.59,0,0,1-3.35,3.11,6.79,6.79,0,0,1-5.39-.17,7.22,7.22,0,0,1-3.7-4A9,9,0,0,1,66.09,148.64Z"/><path d="M115.84,133a9.3,9.3,0,0,1,.78-3.58.93.93,0,0,1,1.68.78,6.78,6.78,0,0,0,3.37,9,5.36,5.36,0,0,0,4.12.16,5.11,5.11,0,0,0,2.86-2.75,4,4,0,0,0,.14-3.1,4.12,4.12,0,0,0-2.08-2.24,3.14,3.14,0,0,0-2.37-.08,3.2,3.2,0,0,0-1.73,1.59,2.32,2.32,0,0,0,0,1.7,2.4,2.4,0,0,0,1.18,1.29,1.69,1.69,0,0,0,1.25,0,1.56,1.56,0,0,0,.88-.81,1.26,1.26,0,0,0,.06-.89,1.12,1.12,0,0,0-.59-.62,1,1,0,0,1-.44-1.21.91.91,0,0,1,1.19-.46,3,3,0,0,1,1.46,3.94,3.5,3.5,0,0,1-4.53,1.69,4.07,4.07,0,0,1-2.16-2.34A4,4,0,0,1,121,132a5,5,0,0,1,2.75-2.54,4.88,4.88,0,0,1,3.75.14,5.8,5.8,0,0,1,3,3.26,5.68,5.68,0,0,1-.19,4.53,6.83,6.83,0,0,1-3.91,3.69,7.06,7.06,0,0,1-5.45-.21,8.5,8.5,0,0,1-4.53-4.83A9,9,0,0,1,115.84,133Z"/><path d="M140.49,89.47a1,1,0,0,1,.57-.87.92.92,0,0,1,1.18.55,6.85,6.85,0,0,0,8.79,4,5.16,5.16,0,0,0,3-2.75,5.1,5.1,0,0,0,.14-4A4,4,0,0,0,149,84a3,3,0,0,0-1.73,1.62,3.31,3.31,0,0,0-.11,2.32,2.32,2.32,0,0,0,1.16,1.24,2.19,2.19,0,0,0,1.79.06,1.55,1.55,0,0,0,.91-2,1,1,0,0,0-.59-.67,1,1,0,0,0-.81,0,.93.93,0,0,1-1.19-.54.89.89,0,0,1,.54-1.16,3,3,0,0,1,2.24,0,3,3,0,0,1,1.54,1.73,3.39,3.39,0,0,1-2,4.39,4,4,0,0,1-3.15-.13,3.74,3.74,0,0,1-2.1-2.24,4.95,4.95,0,0,1,2.91-6.31,5.7,5.7,0,0,1,4.42.16,5.91,5.91,0,0,1,3.08,3.32,6.91,6.91,0,0,1-.14,5.39,7.2,7.2,0,0,1-4,3.72,8.69,8.69,0,0,1-11.14-5.07C140.52,89.68,140.49,89.6,140.49,89.47Z"/><path d="M91.17,39.36v-.75a8.32,8.32,0,0,1,3-5.64,6.76,6.76,0,0,1,5-1.59,6.67,6.67,0,0,1,4.58,2.37,5.36,5.36,0,0,1,1.3,4.1,5.5,5.5,0,0,1-2,3.78,4.62,4.62,0,0,1-3.32,1,4.49,4.49,0,0,1-3.12-1.59,3.36,3.36,0,0,1-.89-2.72A4,4,0,0,1,97,35.75a3.11,3.11,0,0,1,2.3-.73,3,3,0,0,1,2.1,1.1,2.6,2.6,0,0,1-.27,3.73.61.61,0,0,1-.86-.08.66.66,0,0,1,0-.84,1.44,1.44,0,0,0,.16-2,1.8,1.8,0,0,0-1.29-.68,1.91,1.91,0,0,0-1.4.46A2.42,2.42,0,0,0,97,38.44a2.21,2.21,0,0,0,.57,1.81,3.31,3.31,0,0,0,2.27,1.19,3.17,3.17,0,0,0,2.42-.73,4.46,4.46,0,0,0,1.54-3,4.32,4.32,0,0,0-1-3.21A5.56,5.56,0,0,0,99,32.59a5.82,5.82,0,0,0-4.18,1.33,7.07,7.07,0,0,0-2.48,4.79A7,7,0,0,0,94.05,44a.61.61,0,0,1-.11.83.57.57,0,0,1-.83-.05A8.42,8.42,0,0,1,91.17,39.36Z"/><path d="M56.38,38.26a4,4,0,0,1,0-.76,6.72,6.72,0,0,1,2.4-4.64,6.57,6.57,0,0,1,4.91-1.54,5.52,5.52,0,0,1,5.07,6,4.38,4.38,0,0,1-1.57,3.07,4.32,4.32,0,0,1-3.34,1.06,3.72,3.72,0,0,1-2.56-1.27,3.59,3.59,0,0,1-.86-2.78,2.9,2.9,0,0,1,1.1-2.16,3.08,3.08,0,0,1,2.27-.73,2.7,2.7,0,0,1,1.8.92,2.36,2.36,0,0,1,.6,1.94.57.57,0,0,1-.65.54.58.58,0,0,1-.56-.56v-.19a1.48,1.48,0,0,0-.33-1,1.36,1.36,0,0,0-1-.46,1.85,1.85,0,0,0-1.4.44,1.8,1.8,0,0,0-.68,1.29,3,3,0,0,0,.63,1.92,2.39,2.39,0,0,0,1.72.83,3.3,3.3,0,0,0,2.45-.78A3.16,3.16,0,0,0,67.6,37.2a4.39,4.39,0,0,0-1-3.15,4.21,4.21,0,0,0-3-1.51,5.51,5.51,0,0,0-6,5.07,6.74,6.74,0,0,0,1.64,5.2,7,7,0,0,0,4.85,2.51.61.61,0,0,1,.57.68.65.65,0,0,1-.67.54,8.38,8.38,0,0,1-7.66-8.28Z"/><path d="M31.35,63a1.82,1.82,0,0,1,.06-.59,6.55,6.55,0,0,1,2.37-4.61,5.59,5.59,0,0,1,4.07-1.27,5.66,5.66,0,0,1,3.78,1.94,4.12,4.12,0,0,1,1,3.32,4.67,4.67,0,0,1-1.62,3.13,3.78,3.78,0,0,1-5.29-.46,3.22,3.22,0,0,1-.78-2v-.3A3.17,3.17,0,0,1,36.13,60a2.67,2.67,0,0,1,3.72.28.65.65,0,0,1-.06.88.63.63,0,0,1-.86-.05,1.45,1.45,0,0,0-2-.19,2,2,0,0,0-.68,1.3,2.34,2.34,0,0,0,.43,1.43,3,3,0,0,0,1.81.91A2.4,2.4,0,0,0,40.28,64a3.43,3.43,0,0,0,.43-4.75,4.39,4.39,0,0,0-3-1.51,4.32,4.32,0,0,0-3.18,1,5.62,5.62,0,0,0-2,3.75,5,5,0,0,0,1.32,4.1,7.14,7.14,0,0,0,10,.86.63.63,0,0,1,.86.08.64.64,0,0,1-.08.87,8.35,8.35,0,0,1-11.76-1A6.69,6.69,0,0,1,31.35,63Z"/><path d="M31.3,98.39a4,4,0,0,1,0-.61,5.64,5.64,0,0,1,2-3.81,5.16,5.16,0,0,1,4-1.26,4.51,4.51,0,0,1,4.15,4.9,3.56,3.56,0,0,1-1.24,2.57,3.91,3.91,0,0,1-2.8.88,3.14,3.14,0,0,1-2.89-3.4,2.7,2.7,0,0,1,2.89-2.42c.3,0,.48.38.54.67a.62.62,0,0,1-.65.57,1.41,1.41,0,0,0-1.54,1.3,2,2,0,0,0,.41,1.37,2.25,2.25,0,0,0,1.32.73,2.62,2.62,0,0,0,1.91-.65,2.31,2.31,0,0,0,.87-1.7,3.34,3.34,0,0,0-.78-2.45,3.07,3.07,0,0,0-2.27-1.16,4.16,4.16,0,0,0-3.15,1,4.31,4.31,0,0,0-1.54,3c0,.21,0,.35,0,.51a5.55,5.55,0,0,0,5.13,5.5,7,7,0,0,0,5.15-1.62,7.14,7.14,0,0,0,2.53-4.88.6.6,0,0,1,.65-.54.59.59,0,0,1,.56.59v.06a8.51,8.51,0,0,1-2.93,5.74,8.26,8.26,0,0,1-6.1,1.86,6.74,6.74,0,0,1-6.2-6.69Z"/><path d="M56.54,124.15v-.49a5.53,5.53,0,0,1,2-3.77,4.49,4.49,0,0,1,3.29-1.08,4.59,4.59,0,0,1,3.13,1.64,3.57,3.57,0,0,1,.89,2.7,3.65,3.65,0,0,1-1.33,2.62,3.39,3.39,0,0,1-2.37.75,3.22,3.22,0,0,1-2.1-1.1,2.72,2.72,0,0,1,.35-3.75.6.6,0,0,1,.78.91,1.5,1.5,0,0,0-.19,2,2.08,2.08,0,0,0,1.27.7,2.19,2.19,0,0,0,1.46-.49,2.42,2.42,0,0,0,.91-1.75v-.24a2.55,2.55,0,0,0-.59-1.59,3.36,3.36,0,0,0-2.32-1.19,3.09,3.09,0,0,0-2.37.78,4.22,4.22,0,0,0-1.57,2.94,4.6,4.6,0,0,0,1,3.21,5.32,5.32,0,0,0,3.78,1.91,5.44,5.44,0,0,0,4.1-1.26,7.19,7.19,0,0,0,.86-10.06.59.59,0,1,1,.91-.76,8.32,8.32,0,0,1-1,11.73,6.82,6.82,0,0,1-9.58-.81A5.47,5.47,0,0,1,56.54,124.15Z"/><path d="M92.65,124.66v-.48a4.54,4.54,0,0,1,1.59-3.08A4.68,4.68,0,0,1,97.61,120a3.72,3.72,0,0,1,2.56,1.3,3.89,3.89,0,0,1,.9,2.78,3.07,3.07,0,0,1-1.14,2.15,3,3,0,0,1-2.26.73,2.69,2.69,0,0,1-2.4-2.88.61.61,0,1,1,1.21.13s0,.08,0,.11a1.48,1.48,0,0,0,1.32,1.43,2.18,2.18,0,0,0,1.41-.43,2.13,2.13,0,0,0,.67-1.35,2.54,2.54,0,0,0-2.32-2.75A3.48,3.48,0,0,0,95,122a3.24,3.24,0,0,0-1.13,2.26,4.27,4.27,0,0,0,1,3.13,4.45,4.45,0,0,0,3,1.56,5.41,5.41,0,0,0,4.05-1.26,5.63,5.63,0,0,0,2-3.81v-.61a7.15,7.15,0,0,0-6.5-7.1.59.59,0,0,1-.57-.62v0a.6.6,0,0,1,.65-.54,8.38,8.38,0,0,1,7.66,8.28,3,3,0,0,1-.06.73,6.65,6.65,0,0,1-2.37,4.66,6.75,6.75,0,0,1-5,1.54,5.65,5.65,0,0,1-3.81-2A5.52,5.52,0,0,1,92.65,124.66Z"/><path d="M143.54,71a6.66,6.66,0,0,1,1.18-3.88,5.69,5.69,0,0,1,8-1.62A4.78,4.78,0,0,1,154,72.1a3.92,3.92,0,0,1-5.39,1.08.64.64,0,0,1-.19-.86.62.62,0,0,1,.84-.17,2.69,2.69,0,0,0,2.05.41A2.81,2.81,0,0,0,153,71.43a3.51,3.51,0,0,0-1-4.88,4.49,4.49,0,0,0-3.4-.71,4.89,4.89,0,0,0-2.91,2,5.87,5.87,0,0,0,1.67,8.09.63.63,0,0,1,.16.81.58.58,0,0,1-.86.16A6.93,6.93,0,0,1,143.54,71Z"/><path d="M146.86,75.58a.87.87,0,0,0-.65,1,.78.78,0,0,0,.91.62.8.8,0,0,0,.68-.94A.85.85,0,0,0,146.86,75.58Z"/><path d="M143.38,70.18a6.9,6.9,0,0,1,1-3.58.63.63,0,0,1,.83-.22.65.65,0,0,1,.22.87,5.79,5.79,0,0,0,2,8,4.3,4.3,0,0,0,3.45.51,4.45,4.45,0,0,0,2.75-2,3.49,3.49,0,0,0-1.19-4.82,2.86,2.86,0,0,0-2-.33,3,3,0,0,0-1.64,1.22.64.64,0,0,1-.84.27.65.65,0,0,1-.21-.87,3.84,3.84,0,0,1,2.4-1.78,3.79,3.79,0,0,1,3,.44,4.71,4.71,0,0,1,1.62,6.5,5.73,5.73,0,0,1-7.88,2A7,7,0,0,1,143.38,70.18Z"/><path d="M145.05,67.73a.85.85,0,0,1-1-.62.8.8,0,0,1,1.56-.38A.83.83,0,0,1,145.05,67.73Z"/><path d="M116.19,24.74a5.71,5.71,0,0,1,1-3.15,5.81,5.81,0,0,1,3.7-2.48,4.75,4.75,0,0,1,5.55,3.72,3.72,3.72,0,0,1-.56,2.91,3.88,3.88,0,0,1-2.48,1.67.68.68,0,0,1-.76-.45.62.62,0,0,1,.51-.73,2.54,2.54,0,0,0,1.7-1.19,2.65,2.65,0,0,0,.43-2,3.58,3.58,0,0,0-4.17-2.75,4.31,4.31,0,0,0-2.87,1.94,4.37,4.37,0,0,0-.69,3.38,5.87,5.87,0,0,0,6.9,4.58.57.57,0,0,1,.7.46.59.59,0,0,1-.46.73,7.08,7.08,0,0,1-8.33-5.51A5.66,5.66,0,0,1,116.19,24.74Z"/><path d="M123.83,30.38a.85.85,0,0,0,.21,1.13.91.91,0,0,0,1.16-.24.86.86,0,0,0-.27-1.13A.76.76,0,0,0,123.83,30.38Z"/><path d="M115.71,25.61a.57.57,0,0,1,.46-.57.59.59,0,0,1,.72.46,5.89,5.89,0,0,0,7.1,4.23,4.66,4.66,0,0,0,2.77-2.1,4.37,4.37,0,0,0,.49-3.4,3.5,3.5,0,0,0-1.62-2.18,3.31,3.31,0,0,0-2.61-.38,2.42,2.42,0,0,0-1.65,1.19,2.78,2.78,0,0,0-.35,2.07.54.54,0,0,1-.43.71.59.59,0,0,1-.73-.44,3.87,3.87,0,0,1,.43-2.94,3.82,3.82,0,0,1,2.4-1.78,4.58,4.58,0,0,1,3.59.54,4.81,4.81,0,0,1,2.16,2.89,5.83,5.83,0,0,1-4.18,7,7.1,7.1,0,0,1-8.55-5.18Z"/><path d="M117,26.07a.77.77,0,0,1-1.1.26.82.82,0,0,1,.84-1.4A.78.78,0,0,1,117,26.07Z"/><path d="M64.55,12a5.42,5.42,0,0,1,1-3.15A4.75,4.75,0,0,1,72.1,7.51,3.86,3.86,0,0,1,73.75,10a4.19,4.19,0,0,1-.57,3,.61.61,0,0,1-1-.67,2.66,2.66,0,0,0-.72-3.72,3.51,3.51,0,0,0-4.88,1,4.58,4.58,0,0,0,1.24,6.28,5.82,5.82,0,0,0,8.08-1.67.66.66,0,0,1,.87-.13.58.58,0,0,1,.16.83,7.1,7.1,0,0,1-9.79,2A5.78,5.78,0,0,1,64.55,12Z"/><path d="M75.61,14.66a.84.84,0,0,0,.94.65.87.87,0,0,0,.65-1,.81.81,0,1,0-1.59.32Z"/><path d="M66.33,16.66a.55.55,0,0,1,.08-.35.59.59,0,0,1,.81-.2,5.84,5.84,0,0,0,8-2,4.53,4.53,0,0,0-1.56-6.23A3.39,3.39,0,0,0,71,7.51a3.55,3.55,0,0,0-2.16,1.62,2.71,2.71,0,0,0-.27,2,2.66,2.66,0,0,0,1.22,1.64.58.58,0,0,1,.21.81.55.55,0,0,1-.81.24,3.62,3.62,0,0,1-1.81-2.42,3.79,3.79,0,0,1,.44-2.92,4.73,4.73,0,0,1,6.47-1.64,5.79,5.79,0,0,1,2,7.9,7.06,7.06,0,0,1-9.65,2.43A.67.67,0,0,1,66.33,16.66Z"/><path d="M67.7,16.44a.79.79,0,0,1-.62,1,.76.76,0,0,1-.94-.6.82.82,0,0,1,.57-1A.83.83,0,0,1,67.7,16.44Z"/><path d="M19,39.74a4.73,4.73,0,0,1,3.8-4.64,3.94,3.94,0,0,1,4.59,3,.58.58,0,0,1-.46.72.6.6,0,0,1-.73-.45,2.66,2.66,0,0,0-3.16-2.13,3.61,3.61,0,0,0-2.78,4.15A4.62,4.62,0,0,0,25.69,44a6,6,0,0,0,4.53-6.9c-.11-.25.16-.65.48-.7a.59.59,0,0,1,.71.48,7,7,0,0,1-5.5,8.28,5.71,5.71,0,0,1-6.77-4.48A5,5,0,0,1,19,39.74Z"/><path d="M30.41,37.69a.83.83,0,0,0,1.1-.24.77.77,0,0,0-.27-1.11.82.82,0,0,0-1.1.19A.88.88,0,0,0,30.41,37.69Z"/><path d="M20.35,37.64A4.45,4.45,0,0,1,21,35.26a4.74,4.74,0,0,1,2.91-2.15,5.74,5.74,0,0,1,7,4.15,7.16,7.16,0,0,1-5.15,8.55.58.58,0,0,1-.7-.46.56.56,0,0,1,.43-.73,5.79,5.79,0,0,0,4.23-7.07,4.59,4.59,0,0,0-5.5-3.31A3.73,3.73,0,0,0,22,35.88a3.27,3.27,0,0,0-.35,2.64,2.75,2.75,0,0,0,1.19,1.65,2.64,2.64,0,0,0,2.07.3.65.65,0,0,1,.76.4.66.66,0,0,1-.49.78,3.86,3.86,0,0,1-3-.46,3.82,3.82,0,0,1-1.73-2.37A4.64,4.64,0,0,1,20.35,37.64Z"/><path d="M26.07,44.51a.83.83,0,0,1,.27,1.14.82.82,0,0,1-1.14.26.85.85,0,0,1-.27-1.13A.9.9,0,0,1,26.07,44.51Z"/><path d="M6.73,92a4.55,4.55,0,0,1,.78-2.59A3.89,3.89,0,0,1,10,87.77a3.8,3.8,0,0,1,3,.57.66.66,0,0,1,.19.83.59.59,0,0,1-.86.19,2.58,2.58,0,0,0-2-.38,2.53,2.53,0,0,0-1.7,1.13,3.48,3.48,0,0,0,1,4.86,4.52,4.52,0,0,0,6.26-1.24,5.87,5.87,0,0,0-1.59-8.09.6.6,0,0,1-.19-.86.55.55,0,0,1,.81-.14,7.06,7.06,0,0,1,2,9.76,5.76,5.76,0,0,1-8,1.59A4.74,4.74,0,0,1,6.73,92Z"/><path d="M14.69,85.91a.89.89,0,0,0,.64-1,.84.84,0,0,0-1-.62.79.79,0,0,0-.61,1A.8.8,0,0,0,14.69,85.91Z"/><path d="M6.19,89.66a4.61,4.61,0,0,1,.67-2.4,5.76,5.76,0,0,1,7.91-2,7,7,0,0,1,2.37,9.65.59.59,0,0,1-.81.19.57.57,0,0,1-.21-.8,5.83,5.83,0,0,0-2-8,4.53,4.53,0,0,0-6.23,1.57,3.49,3.49,0,0,0,1.21,4.83,3,3,0,0,0,2,.29,2.65,2.65,0,0,0,1.64-1.24.64.64,0,0,1,.86-.24.64.64,0,0,1,.19.86,3.65,3.65,0,0,1-2.37,1.78,3.72,3.72,0,0,1-2.94-.43A4.69,4.69,0,0,1,6.19,89.66Z"/><path d="M16.44,93.78a.84.84,0,0,1,.43,1.62.9.9,0,0,1-1-.62A1,1,0,0,1,16.44,93.78Z"/><path d="M35,137.93a3.94,3.94,0,0,1,3.21-3.83.56.56,0,0,1,.68.46.59.59,0,0,1-.49.73,2.67,2.67,0,0,0-2.1,3.15,3.57,3.57,0,0,0,4.15,2.78A4.58,4.58,0,0,0,44,135.85a5.87,5.87,0,0,0-6.91-4.53.61.61,0,0,1-.21-1.21,7.08,7.08,0,0,1,8.31,5.53,5.85,5.85,0,0,1-4.48,6.77,4.74,4.74,0,0,1-5.61-3.75A3.47,3.47,0,0,1,35,137.93Z"/><path d="M37.69,131.13a.91.91,0,0,0-.22-1.13.84.84,0,0,0-1.13.27.78.78,0,0,0,.22,1.11A.82.82,0,0,0,37.69,131.13Z"/><path d="M32.92,136.2a5.88,5.88,0,0,1,4.34-5.63,7.15,7.15,0,0,1,8.55,5.18.53.53,0,0,1-.46.69.52.52,0,0,1-.7-.43,5.88,5.88,0,0,0-7.07-4.23,4.53,4.53,0,0,0-3.29,5.53,3.39,3.39,0,0,0,1.62,2.16,3.26,3.26,0,0,0,2.64.37,2.52,2.52,0,0,0,1.62-1.18,2.47,2.47,0,0,0,.27-2,.62.62,0,0,1,.46-.76.61.61,0,0,1,.75.43,3.85,3.85,0,0,1-.43,3,3.67,3.67,0,0,1-2.4,1.78,4.65,4.65,0,0,1-5.72-3.45A5,5,0,0,1,32.92,136.2Z"/><path d="M44.51,135.42a.88.88,0,0,1,1.13-.24.8.8,0,0,1,.27,1.13.86.86,0,0,1-1.13.3A1,1,0,0,1,44.51,135.42Z"/><path d="M84.5,147a.41.41,0,0,1,.14-.33,7.05,7.05,0,0,1,9.74-2,5.85,5.85,0,0,1,1.62,8A4.75,4.75,0,0,1,89.41,154a3.8,3.8,0,0,1-1.08-5.36.68.68,0,0,1,.87-.22.64.64,0,0,1,.13.87,2.57,2.57,0,0,0-.37,2,2.42,2.42,0,0,0,1.13,1.7A3.54,3.54,0,0,0,95,152a4.51,4.51,0,0,0-1.27-6.29,5.84,5.84,0,0,0-8.06,1.62.59.59,0,0,1-.84.19A.71.71,0,0,1,84.5,147Z"/><path d="M85.93,146.83a.84.84,0,0,0-1-.62.81.81,0,0,0-.62,1,.88.88,0,0,0,1,.65A.92.92,0,0,0,85.93,146.83Z"/><path d="M84.4,149.71a5.75,5.75,0,0,1,.83-3,7,7,0,0,1,9.63-2.37.57.57,0,0,1,.27.8.64.64,0,0,1-.86.22,5.82,5.82,0,0,0-8,2,4.58,4.58,0,0,0-.49,3.48,4.4,4.4,0,0,0,2,2.77,3.45,3.45,0,0,0,2.7.38,3.22,3.22,0,0,0,2.1-1.59,2.64,2.64,0,0,0,.32-2,2.49,2.49,0,0,0-1.26-1.68.69.69,0,0,1-.19-.86.6.6,0,0,1,.83-.19,4.18,4.18,0,0,1,1.84,2.37A3.9,3.9,0,0,1,93.7,153a4.57,4.57,0,0,1-2.86,2.18,4.87,4.87,0,0,1-3.64-.54,5.54,5.54,0,0,1-2.56-3.53A4.22,4.22,0,0,1,84.4,149.71Z"/><path d="M93.76,145.07a.84.84,0,0,1,1.64-.4.85.85,0,0,1-.62,1A.94.94,0,0,1,93.76,145.07Z"/><path d="M130,123.26a7.11,7.11,0,0,1,5.66-6.93,5.84,5.84,0,0,1,6.8,4.5,4.77,4.77,0,0,1-3.75,5.58,3.92,3.92,0,0,1-2.92-.56,3.84,3.84,0,0,1-1.64-2.51.55.55,0,0,1,.46-.7.57.57,0,0,1,.7.48,2.68,2.68,0,0,0,1.19,1.7,2.48,2.48,0,0,0,2,.41,3.49,3.49,0,0,0,2.78-4.16,4.62,4.62,0,0,0-5.37-3.56,5.86,5.86,0,0,0-4.55,6.91.6.6,0,0,1-.52.67.57.57,0,0,1-.67-.46A6,6,0,0,1,130,123.26Z"/><path d="M131.13,123.82A.88.88,0,0,0,130,124a.8.8,0,0,0,.24,1.11.78.78,0,0,0,1.14-.19A.89.89,0,0,0,131.13,123.82Z"/><path d="M130.41,122.58a7.06,7.06,0,0,1,5.28-6.87.67.67,0,0,1,.81.46.6.6,0,0,1-.43.72,5.84,5.84,0,0,0-4.29,7,4.47,4.47,0,0,0,2.08,2.81,4.35,4.35,0,0,0,3.42.48,3.29,3.29,0,0,0,2.21-1.61,3.42,3.42,0,0,0,.38-2.62,2.82,2.82,0,0,0-1.21-1.65,2.56,2.56,0,0,0-2-.27.62.62,0,0,1-.76-.43c0-.43.11-.7.43-.78a3.93,3.93,0,0,1,4.75,2.8,4.74,4.74,0,0,1-.51,3.59,4.66,4.66,0,0,1-2.91,2.16,5.78,5.78,0,0,1-7-4.18A7.13,7.13,0,0,1,130.41,122.58Z"/><path d="M135.42,117a.91.91,0,0,1-.21-1.19.76.76,0,0,1,1.1-.21.88.88,0,0,1,.3,1.13A1,1,0,0,1,135.42,117Z"/></g></svg>