<svg xmlns="http://www.w3.org/2000/svg" viewBox="0 0 161.51 161.51"><title>circle-12</title><g id="Objects_path-filder"><path d="M74.9,75.33a7.85,7.85,0,0,0-2.23,5.41l0,.05a7.9,7.9,0,0,0,2.24,5.45,8.13,8.13,0,0,0,5.8,2.59,7.85,7.85,0,0,0,5.82-2.59,7.89,7.89,0,0,0-5.34-13.38c-.19,0-.27-.2-.48-.2A8,8,0,0,0,74.9,75.33Zm13.51,5.41a7.67,7.67,0,1,1-7.68-7.68A7.7,7.7,0,0,1,88.41,80.74Z"/><path d="M74.93,71.69a11.3,11.3,0,0,0-1.13.77,10.21,10.21,0,0,0-1,.87A8.54,8.54,0,0,0,72,74.45c-.27.37-.54.73-.76,1.08s-.48.78-.65,1.19-.18.93-.32,1.36-.16.88-.24,1.36a7.77,7.77,0,0,0-.3,1.3v.05c0,.43.24.86.3,1.32s.19.89.24,1.32a12.16,12.16,0,0,0,.32,1.35,5.4,5.4,0,0,0,.7,1.19c.22.4.49.75.71,1.1a11.74,11.74,0,0,0,.78,1.16c.32.33.73.57,1,.87a7.89,7.89,0,0,0,1.13.72c.41.25.7.57,1.14.79a13,13,0,0,0,1.29.43c.43.11.89.16,1.32.27s.84.21,1.32.27a3.89,3.89,0,0,0,.68.16,2.85,2.85,0,0,0,.67-.16c.46-.06.89-.19,1.38-.27s.86-.16,1.29-.27.86-.24,1.32-.43.7-.54,1.11-.79a8.13,8.13,0,0,0,1.16-.72c.3-.3.7-.54,1-.87a7.29,7.29,0,0,0,.73-1.13A10.05,10.05,0,0,0,90.19,86a7.26,7.26,0,0,0,.7-1.19,7.87,7.87,0,0,0,.27-1.35c.11-.43.22-.91.3-1.32s.24-.89.24-1.37-.21-.89-.24-1.35-.19-.88-.3-1.34a8.25,8.25,0,0,0-.27-1.33,13.12,13.12,0,0,0-.67-1.19,9,9,0,0,0-.78-1.12,8.07,8.07,0,0,0-.73-1.1c-.35-.34-.75-.6-1-.88a12.65,12.65,0,0,0-1.13-.77c-.44-.25-.76-.59-1.16-.79s-.87-.26-1.3-.42-.86-.15-1.29-.26-.92-.25-1.41-.28a4,4,0,0,0-.64-.12c-.22,0-.46.12-.68.12a11.86,11.86,0,0,0-1.37.28c-.43.11-.86.15-1.32.28a5.62,5.62,0,0,0-1.24.44A7.61,7.61,0,0,0,74.93,71.69Zm2.56-.82a4.42,4.42,0,0,1,1.29-.26,5,5,0,0,1,1.27-.27c.22,0,.46-.15.68-.15a3.71,3.71,0,0,1,.64.15,4.87,4.87,0,0,1,1.27.27,7.17,7.17,0,0,1,1.27.2,11.64,11.64,0,0,1,1.3.43,10.48,10.48,0,0,1,1.07.73c.35.26.76.49,1.08.77a9.3,9.3,0,0,1,1,.85,7.53,7.53,0,0,1,.73,1.08c.24.35.51.66.73,1a7,7,0,0,1,.65,1.15,6.55,6.55,0,0,1,.27,1.29c.1.41.21.88.27,1.31a9.18,9.18,0,0,1,.26,1.27,11.41,11.41,0,0,1-.26,1.32c-.06.4-.17.89-.27,1.27a7,7,0,0,1-.27,1.29,5.3,5.3,0,0,1-.68,1.13,7,7,0,0,1-.7,1.13A8.51,8.51,0,0,1,88.39,88a10.74,10.74,0,0,1-1,.84c-.32.24-.73.46-1.08.73a9.36,9.36,0,0,1-1.07.7,11.15,11.15,0,0,1-1.27.43,9.94,9.94,0,0,1-1.27.27,11.38,11.38,0,0,1-1.3.22,3,3,0,0,1-.64.16,3.09,3.09,0,0,1-.65-.16,10.06,10.06,0,0,1-1.3-.22,9.44,9.44,0,0,1-1.26-.27c-.41-.16-.84-.22-1.27-.43s-.7-.49-1.08-.7-.73-.49-1-.73-.7-.54-1-.84a9.06,9.06,0,0,1-.73-1.13,10.67,10.67,0,0,1-.73-1.08A7.93,7.93,0,0,1,71,84.67a6.2,6.2,0,0,1-.27-1.32c-.11-.4-.21-.83-.29-1.29a9.5,9.5,0,0,1-.25-1.27v-.05a8,8,0,0,1,.25-1.24,8.39,8.39,0,0,1,.29-1.29A4.91,4.91,0,0,1,71,76.89c.16-.4.43-.77.62-1.14a9.11,9.11,0,0,1,.76-1.08,4.39,4.39,0,0,1,.7-1.07,9.35,9.35,0,0,1,1-.83,10.31,10.31,0,0,1,1.1-.79c.38-.2.68-.51,1.08-.71A12.72,12.72,0,0,1,77.49,70.87Z"/><path d="M80.24,47c0,.08,0,.13,0,.24-.3,6.26-.86,7.81-2.81,9.45a9.7,9.7,0,0,0-3.15,7.52,12.18,12.18,0,0,0,.13,1.47,9.47,9.47,0,0,0-8.17-3.91c-2.53.23-4-.45-8.87-4.82a11.46,11.46,0,0,0-.81-.93l-.62.56c.3.31.32.37.57.65v0c.05,0,.05,0,.11.06,3.74,4.14,4.77,5.9,4.77,8v1.31a10,10,0,0,0,4.21,7.91,9.37,9.37,0,0,0-8.55,3C55.38,79.6,54,80.12,47,80.41c-.3,0-.48,0-.81,0l0,.81a8.27,8.27,0,0,1,.86,0h.24c6.21.3,7.77.89,9.42,2.81,2.83,3.23,6.68,3.29,9,3a9.43,9.43,0,0,0-3.91,7.44,6.61,6.61,0,0,0,0,.75c.19,2.49-.16,3.78-5.12,9.15h0c-.22.24-.41.35-.6.54l.54.59c.24-.24.38-.35.62-.59v0s0-.08.14-.1c4.66-4.26,6.17-4.91,8.68-4.75a9.81,9.81,0,0,0,8.47-4.21,8.41,8.41,0,0,0-.11,1.24,9.25,9.25,0,0,0,3.18,7.29c1.94,1.67,2.51,3.12,2.86,9.7,0,.43-.08.73-.11,1.22l.81,0c0-.37.08-.56.08-.86h.06a.74.74,0,0,0-.06-.38c.38-6.36,1-7.71,2.81-9.27,3.23-2.86,3.29-6.69,3.07-9a9.26,9.26,0,0,0,8.14,3.88c2.46-.19,3.76.22,9.07,5,.27.29.29.43.62.75l.59-.56c-4.61-5-5.45-6.58-5.45-8.69a2.9,2.9,0,0,1,.08-.78A10.08,10.08,0,0,0,95.86,87a9.3,9.3,0,0,0,8.57-3.07c1.67-2,3-2.54,9.87-2.83.41,0,.6,0,1.06.08v-.81c-.36,0-.52-.06-.87-.06v0h-.35c-6.36-.35-7.71-1-9.28-2.76a10.09,10.09,0,0,0-9-3A9.43,9.43,0,0,0,99.77,67c0-.2,0-.49,0-.76-.22-2.64.43-4,5-9,.29-.24.43-.39.78-.64l-.57-.62c-.27.25-.43.33-.64.56l-.06,0c-.08.13-.08.16-.16.23-4.77,4.33-6.2,4.81-8.6,4.68A9.82,9.82,0,0,0,87,65.62a9.29,9.29,0,0,0-3.1-8.53c-1.86-1.62-2.51-2.76-2.78-10,0-.33,0-.54,0-.93h-.81c0,.35,0,.51,0,.84Zm-13,27.77c-1.1-.66-5.07-3.29-5.07-8.14,0-.18.06-.37.06-.54a7.73,7.73,0,0,0-1.84-5.6c2.51,2,3.89,2.31,5.94,2.11C71.26,62.2,74,66,74.66,67.21c0,.18.13.51.13.51l.14,0h0a18.22,18.22,0,0,0-1.75,1.21c-.49.34-1.06.6-1.49,1-.16.14-.38.23-.51.37l-6.66-5.68,5.72,6.62c-.38.42-.6.91-.92,1.32s-.7,1-1,1.46a4.41,4.41,0,0,0-.59.93C67.7,74.87,67.43,74.79,67.24,74.76Zm10.93-7.44A11.76,11.76,0,0,1,79.86,67c.3,0,.6-.17.87-.17a8.6,8.6,0,0,1,.86.15,16.58,16.58,0,0,1,1.73.36,14.81,14.81,0,0,1,1.64.3c.6.21,1.13.31,1.67.56s1,.68,1.46,1a16.28,16.28,0,0,1,1.43,1,12.6,12.6,0,0,1,1.37,1.13,11.76,11.76,0,0,1,.92,1.44,16.31,16.31,0,0,1,1,1.43,7.32,7.32,0,0,1,.83,1.47A11.1,11.1,0,0,1,94,77.34a12.44,12.44,0,0,1,.33,1.7,11.66,11.66,0,0,1,.37,1.7,13.21,13.21,0,0,1-.37,1.72A13.17,13.17,0,0,1,94,84.19a10.37,10.37,0,0,1-.38,1.67,9,9,0,0,1-.83,1.51,11.51,11.51,0,0,1-1,1.46,15.32,15.32,0,0,1-.94,1.43c-.43.4-.92.7-1.35,1.1a9.72,9.72,0,0,1-1.43,1c-.49.3-.92.7-1.46,1a10.49,10.49,0,0,1-1.64.54,11.29,11.29,0,0,1-1.67.35c-.6.08-1.11.3-1.73.35-.32,0-.54.17-.86.17s-.57-.17-.84-.17c-.59-.05-1.16-.27-1.7-.35a12.3,12.3,0,0,1-3.37-.94,12,12,0,0,1-1.4-.92,13.67,13.67,0,0,1-1.46-1c-.43-.4-.91-.7-1.29-1.1a9.24,9.24,0,0,1-1-1.46,8.86,8.86,0,0,1-1-1.38,14.86,14.86,0,0,1-.87-1.53,13.07,13.07,0,0,1-.4-1.7c-.08-.6-.24-1.13-.32-1.73a9.87,9.87,0,0,1-.33-1.67v-.05a10.43,10.43,0,0,1,.33-1.7,9.45,9.45,0,0,1,.32-1.65c.16-.59.16-1.18.35-1.75s.59-1,.86-1.5a6.32,6.32,0,0,1,1-1.4,9.07,9.07,0,0,1,.91-1.47c.38-.4.87-.71,1.33-1.11a10.91,10.91,0,0,1,1.45-.94,8.41,8.41,0,0,1,1.43-1,15.26,15.26,0,0,1,1.65-.62A14.3,14.3,0,0,1,78.17,67.32ZM57.26,83.43C56,82,54.73,81.28,52,80.9c3.19-.46,4.4-1.19,5.75-2.79C61,74.25,65.76,75.23,67,75.53l.33.22.13-.14v0c-.19.48-.19,1.08-.38,1.62s-.24,1.16-.29,1.72a8.22,8.22,0,0,0-.24,1.11l-8.74.65,8.74.7a6.5,6.5,0,0,0,.24,1.08,16.93,16.93,0,0,0,.35,1.75,10.67,10.67,0,0,0,.35,1.64l-.08-.1s-.27.16-.41.27C65.76,86.37,60.72,87.37,57.26,83.43Zm8.82,15.86c-2-.16-3.45.24-6,2.16,1.62-2.16,2.56-3.78,2.56-5.34,0-.32,0-.65,0-1s0-.45,0-.67c0-4.58,3.61-7,4.72-7.71a2.29,2.29,0,0,0,.38-.06l0-.13h0c.18.35.48.67.7,1,.29.52.62,1,.94,1.43s.57.87.92,1.27L64.52,97l6.66-5.72c.19.19.38.25.57.44.43.35.94.64,1.43,1a17.76,17.76,0,0,0,1.69,1.13h0a2.43,2.43,0,0,1-.14.48C74,95.46,71.21,99.59,66.08,99.29Zm17.37,4.91a7.9,7.9,0,0,0-2.61,5.28c-.38-3.12-1.16-4.37-2.7-5.71-3.78-3.18-3-7.72-2.64-9.12a2.38,2.38,0,0,1,.27-.46l-.17-.08v0c.25.11.57.08.76.16.54.16,1.16.22,1.75.38s1.11.27,1.73.32c.1,0,.16.06.21.06l.68,8.73.7-8.73s.11-.06.22-.06c.59,0,1.13-.24,1.69-.32s1.22-.22,1.76-.38a5.36,5.36,0,0,0,.78-.16l-.11,0a1.38,1.38,0,0,1,.27.43C86.39,95.79,87.36,100.8,83.45,104.2Zm15.86-9.33c0,.48-.08.94-.08,1.35,0,1.51.78,3.07,2.15,5-2.69-2.11-4.07-2.43-6.2-2.29-5,.4-7.66-3.54-8.36-4.67a4,4,0,0,1-.13-.43l-.11,0v0c.62-.27,1.11-.78,1.73-1.13s1-.62,1.48-1c.16-.19.38-.25.54-.44L97,97l-5.69-6.66c.35-.4.54-.84.86-1.27.06-.11.11-.16.11-.21l-.11.21-.53,1,3.77,1.51L92.3,88.83a7,7,0,0,0,.83-1.27,6.19,6.19,0,0,0,.62-.92,5.49,5.49,0,0,1,.54.14C95.37,87.42,99.31,90.07,99.31,94.87Zm4.91-16.82c1.29,1.45,2.56,2.15,5.31,2.61-3.18.37-4.42,1.15-5.72,2.72-3.26,3.83-7.9,3-9.19,2.61a3.13,3.13,0,0,1-.43-.24l-.06.14,0,0c.16-.51.16-1.08.32-1.65a6.92,6.92,0,0,0,.32-1.69,8,8,0,0,0,.22-1.08l8.74-.7-8.74-.68A8.64,8.64,0,0,0,94.72,79a7,7,0,0,0-.32-1.72c-.16-.54-.16-1.16-.32-1.67l0,.1.35-.23C95.69,75.13,100.71,74.14,104.22,78.05ZM95.43,62.22c2,.16,3.42-.23,5.85-2-1.54,2.08-2.43,3.64-2.43,5.22,0,.31,0,.59.06.92s0,.5,0,.7c0,4.54-3.61,7-4.74,7.66-.06.07-.38.12-.38.12v.13h0a11.13,11.13,0,0,0-1.49-2.21L95.37,70,91.6,71.53l.53.93.19.2-.19-.2a10.8,10.8,0,0,0-.86-1.3L97,64.54l-6.63,5.68a5.76,5.76,0,0,1-.54-.39c-.49-.35-1-.66-1.48-1a12,12,0,0,0-1.73-1.14h0a4.4,4.4,0,0,1,.11-.45C87.36,66.24,90.17,61.9,95.43,62.22ZM83.37,57.71c3.83,3.23,3,7.91,2.64,9.22a3.37,3.37,0,0,1-.27.39l.14.07v0c-.27-.12-.54-.08-.78-.17a15.24,15.24,0,0,0-1.76-.34,11.75,11.75,0,0,0-1.91-.39l-.7-8.7-.68,8.7a9.61,9.61,0,0,0-2,.42,14.37,14.37,0,0,0-1.76.31c-.21.09-.51.09-.73.17l.11,0s-.19-.29-.24-.38c-.3-1.19-1.35-6.24,2.56-9.74C79.49,56,80.22,54.73,80.65,52,81.08,55.16,81.81,56.37,83.37,57.71Z"/><polygon points="94.78 78.98 94.94 79.66 98.72 78.03 94.64 78.31 94.78 78.98"/><polygon points="94.64 83.24 98.72 83.54 94.94 81.92 94.78 82.52 94.64 83.24"/><polygon points="90 69.91 91.54 66.13 88.84 69.22 90 69.91"/><polygon points="79.59 66.56 78.03 62.79 78.3 66.88 79.59 66.56"/><polygon points="83.26 66.85 83.5 62.79 81.89 66.54 83.26 66.85"/><polygon points="69.92 71.47 66.08 69.99 69.19 72.66 69.32 72.48 69.92 71.47"/><polygon points="72.69 69.17 70 66.08 71.53 69.88 72.69 69.17"/><polygon points="66.7 82.52 66.52 81.87 62.77 83.43 66.87 83.19 66.7 82.52"/><polygon points="66.87 78.28 62.77 77.97 66.52 79.6 66.68 78.98 66.87 78.28"/><polygon points="71.48 91.58 69.94 95.35 72.61 92.28 71.48 91.58"/><polygon points="69.32 89.04 69.19 88.8 66.08 91.52 69.89 89.96 69.32 89.04"/><polygon points="81.86 94.98 83.45 98.75 83.21 94.65 81.86 94.98"/><polygon points="78.27 94.65 77.98 98.75 79.57 94.98 78.27 94.65"/><polygon points="88.79 92.33 91.49 95.41 89.98 91.63 88.79 92.33"/><path d="M74.2,17.44C71.88,13.92,68.73,11,66.33,12a2.7,2.7,0,0,0-1.51,1.59,5.7,5.7,0,0,0-.43,2.37,18.2,18.2,0,0,0,1.37,5.91,13.46,13.46,0,0,0-2.1-.42,17.69,17.69,0,0,0-13.89,7c-2.24-4.79-5.1-7.49-7.42-6.53-1.43.6-2.21,2.62-2.21,5.37a20.35,20.35,0,0,0,.73,4.26,35.39,35.39,0,0,0-7.66-5.37c-3.34-1.53-5.93-1.64-7.31-.25a3.45,3.45,0,0,0-1,2.67c0,3.26,2.94,7.91,6.55,12-4.15-.82-8.49-.7-9.55,1.73a3.45,3.45,0,0,0-.13,1,4.79,4.79,0,0,0,1.64,3.23,18,18,0,0,0,5.07,3.13,17.65,17.65,0,0,0-1.75,1.22A17.93,17.93,0,0,0,21.4,63.67c0,.67.3,1.28.35,2C16.87,63.81,12.9,64,12,66.28a2.12,2.12,0,0,0-.19.93c0,2.08,2.46,4.68,6,6.93-8.42.53-14.59,3.09-14.59,6.6,0,3.83,7,6.14,14.42,6.63-3.07,2-5.82,4.56-5.82,6.8a2.42,2.42,0,0,0,.19,1,2.74,2.74,0,0,0,1.62,1.54c1.78.78,4.85.33,8.22-.91a14.42,14.42,0,0,0-.4,2,17.55,17.55,0,0,0,7,13.86,21.27,21.27,0,0,0-5.1,3.21,4.86,4.86,0,0,0-1.61,3.24,2.39,2.39,0,0,0,.18,1c.89,2.19,5,2.56,9.85,1.49-4.07,4.58-6.8,9.27-6.8,12.35a3.41,3.41,0,0,0,1,2.64c2.43,2.48,8.55,0,14.86-5.53a20.32,20.32,0,0,0-.67,4.21c0,2.56.64,4.61,2.21,5.31a3.26,3.26,0,0,0,2.24-.05c1.8-.73,3.64-3.19,5.17-6.47a13.83,13.83,0,0,0,1.19,1.72,17.92,17.92,0,0,0,14.75,4.91,18.65,18.65,0,0,0-1.32,5.77c0,2.1.67,3.56,1.94,4.1,2.13.86,5.26-1.78,7.85-5.85.54,8.44,3.13,14.61,6.61,14.61,3.85,0,6.09-6.87,6.58-14.24,2.37,3.54,5.47,6.39,7.87,5.48a3.33,3.33,0,0,0,1.54-1.62c.75-1.78.32-4.88-.92-8.25a17,17,0,0,0,2.08.38,17.67,17.67,0,0,0,13.86-7c2.21,4.79,5.1,7.49,7.42,6.57,2.15-.89,2.48-5,1.45-9.73,6.23,5.55,12.54,8.11,15,5.69s0-8.41-5.42-14.67c4.15.81,8.41.64,9.38-1.73a2.71,2.71,0,0,0,0-2.21c-.75-1.83-3.21-3.72-6.49-5.23a10.42,10.42,0,0,0,1.75-1.19,17.57,17.57,0,0,0,4.85-14.75c5,1.86,8.93,1.75,9.87-.57s-1.89-5.52-5.52-7.87c8.3-.59,14.34-3.16,14.34-6.63,0-3.85-6.93-6.07-14.26-6.54,3.53-2.36,6.47-5.52,5.44-7.89A3,3,0,0,0,148,64.8c-1.84-.77-4.88-.31-8.25.94a19.16,19.16,0,0,0,.37-2.07,17.74,17.74,0,0,0-7-13.91c4.82-2.18,7.52-5.11,6.6-7.37-1-2.42-5.42-2.59-9.73-1.65,3.93-4.46,6.66-9.06,6.66-12.12a3.74,3.74,0,0,0-1-2.72c-2.73-2.73-9.15.59-14.73,5.39.87-4.11.68-8.37-1.7-9.34A2.91,2.91,0,0,0,117,22c-1.79.78-3.67,3.22-5.15,6.49a16,16,0,0,0-1.19-1.73,17.78,17.78,0,0,0-14.78-4.88c1.81-4.94,1.7-8.94-.6-9.87-2.12-.88-5.25,1.75-7.87,5.84-.51-8.46-3.13-14.62-6.63-14.62C76.9,3.19,74.66,10.12,74.2,17.44ZM66,14.13a1.51,1.51,0,0,1,.84-.89c1.37-.6,4.5,1.76,7.14,6.39a5.93,5.93,0,0,0-.05.93,32.27,32.27,0,0,0,.35,4.66,18,18,0,0,0-7.12-3.13h0C65.81,18.75,65.38,15.72,66,14.13ZM85.72,28l0,.39c-.32,2.61-.76,7.27,1.08,10.84v.05h0A8.31,8.31,0,0,0,89,42.13a9,9,0,0,0-3.7,2.6,25.22,25.22,0,0,0-4.42-4.24l-.16.31-.19-.31a23,23,0,0,0-5.37,5.67A8.79,8.79,0,0,0,71.64,43a7.42,7.42,0,0,0,3.72-4.75l.14,0s-.06,0-.08-.13a24.63,24.63,0,0,0,.18-9.17l0-.66c0-.14,0-.25,0-.37,0-3,4.88-4,5.15-4S86.2,24.82,85.72,28ZM121,40.49c.19.31,3.13,4.55.57,6.52l-.3.23c-2.4,1.89-7.58,6-7.58,11.09a6.29,6.29,0,0,0,.14,1,8.57,8.57,0,0,0-4.37-.8,26.34,26.34,0,0,0-.14-6.13l-.35.09.08-.31a18.55,18.55,0,0,0-7.76.05,9,9,0,0,0-.27-4.57,7.39,7.39,0,0,0,6-.77l.17.09v-.14a25.37,25.37,0,0,0,6.66-6.36l.38-.53C116.3,37.3,120.77,40.31,121,40.49Zm2.45,34.92a23.13,23.13,0,0,0,9.17.23l.68-.11c3.29-.4,4.34,4.83,4.4,5.15s-1.06,5.5-4.24,5.07l-.3,0c-2.48-.3-7.2-.7-10.87,1.08,0,0,0-.06,0-.06l0,.16a7.6,7.6,0,0,0-2.81,2.22,8.37,8.37,0,0,0-2.64-3.75A27.49,27.49,0,0,0,121,80.9l-.3-.22.3-.16a19.87,19.87,0,0,0-5.64-5.45,9,9,0,0,0,3.13-3.41,7.38,7.38,0,0,0,4.8,3.7v.1A.32.32,0,0,0,123.44,75.41ZM121,121c-.33.24-4.62,3.13-6.53.65l-.27-.38c-1.62-2.08-4.58-5.61-8.39-6.9v0l-.1,0a8.07,8.07,0,0,0-3.54-.43,8.42,8.42,0,0,0,.79-4.45,27.21,27.21,0,0,0,6.12-.17L109,109l.33,0a19.67,19.67,0,0,0-.06-7.76,8.91,8.91,0,0,0,4.45-.27,8.49,8.49,0,0,0-.46,2,8.53,8.53,0,0,0,1.27,4.08c1.67,2.94,4.61,5.26,6.45,6.69l.54.4C124.2,116.28,121.21,120.7,121,121Zm-40.24,16.7c-.32-.06-5.07-.95-5.07-3.81a.69.69,0,0,1,.06-.37l0-.43c.3-2.65.7-7.29-1.11-10.79,0,0,0,0,0-.06h-.08a7.5,7.5,0,0,0-2.21-2.85,8.8,8.8,0,0,0,3.67-2.54,18.35,18.35,0,0,0,4.5,4.15l.16-.27.16.27a18.44,18.44,0,0,0,5.51-5.55,8.38,8.38,0,0,0,3.39,3.07,7.32,7.32,0,0,0-3.69,4.8l-.14.06s0,0,.06.13a23.63,23.63,0,0,0-.25,9l.14.79v.4C86,136.64,81.13,137.61,80.78,137.67ZM40.46,121c-.29-.48-3.1-4.58-.54-6.47l.36-.27c2.07-1.65,5.63-4.64,6.87-8.41h0l0-.06a7.85,7.85,0,0,0,.41-3.56A8.62,8.62,0,0,0,52,103a21.07,21.07,0,0,0-.24,2.26,18.21,18.21,0,0,0,.38,3.89l.35-.06-.06.3a19.62,19.62,0,0,0,7.64,0,7.57,7.57,0,0,0-.3,2,8.18,8.18,0,0,0,.73,2.53,7.8,7.8,0,0,0-6,.76l-.14-.06a.36.36,0,0,0,0,.14A25,25,0,0,0,47.67,121l-.41.59C45.18,124.32,40.52,121.08,40.46,121Zm-2.4-34.89a25.66,25.66,0,0,0-9.14-.22l-.7.11c-3.32.4-4.31-4.8-4.42-5.18.11-.38,1.05-5.46,4.18-5l.48,0c2.62.33,7.18.7,10.68-1.08l.14.05,0-.17a7.39,7.39,0,0,0,2.58-1.93,9.23,9.23,0,0,0,2.83,3.55,23.54,23.54,0,0,0-4.26,4.45l.3.13-.3.19A20.09,20.09,0,0,0,46,86.43a8.72,8.72,0,0,0-3.18,3.23,7.38,7.38,0,0,0-4.64-3.53l0-.11C38.12,86.08,38.12,86.08,38.06,86.08Zm2.4-45.51c.35-.26,4.59-3.16,6.53-.65l.24.31c1.65,2.12,4.64,5.68,8.39,6.92v0l.08,0a7.93,7.93,0,0,0,3.64.43,8.05,8.05,0,0,0-1.05,3.21,7,7,0,0,0,.11,1.27,26.81,26.81,0,0,0-6.07.14l.13.31-.35-.1a19.26,19.26,0,0,0-.37,3.8,18.88,18.88,0,0,0,.43,4,9.35,9.35,0,0,0-4.56.25,7.42,7.42,0,0,0-.75-6l0-.14s0,0-.11,0a23.6,23.6,0,0,0-6.34-6.64l-.54-.42C37.34,45.25,40.28,40.88,40.46,40.57Zm30.69,1.31a9.69,9.69,0,0,0-5.87-6.71c-2-.71-3.16-1.67-5.37-6.4,1.89-.2,9.65-.35,14.1,9.59A6.43,6.43,0,0,1,71.15,41.88ZM91,41.42a9.62,9.62,0,0,1,5.66-6c2-.71,3.29-2.1,5-5-1.1,3.49-1.21,5.48-.32,7.48a8.89,8.89,0,0,1-.62,8.32A8.47,8.47,0,0,0,91,41.42Zm5,1.84a7.72,7.72,0,0,1,4,9.15l.4.16c-.64.15-1.34.59-2,.82a7.9,7.9,0,0,0-1.86-3.18A7.26,7.26,0,0,0,87.66,49a26.71,26.71,0,0,0-1.51-3.34A7.74,7.74,0,0,1,96,43.26Zm-.3,7.81a6.75,6.75,0,0,1,1.57,2.73l.49-.1a19,19,0,0,0-9,7.75,18.65,18.65,0,0,0-.86-11.71l.24.36A6.17,6.17,0,0,1,95.69,51.07Zm-7,5.33a22,22,0,0,1-.81,5.78l.46.1.48.28c7.23-12.35,18.48-9.94,19.69-9.68.32,1.17,2.86,12.57-9.54,19.78l.18.4.19.54c13.86-3.61,20.12,6.11,20.77,7.14-.65,1.07-6.91,10.78-20.77,7.17l-.13.54-.24.38c12.35,7.22,9.92,18.55,9.59,19.74-.91.19-12.59,2.8-19.74-9.6l-.48.27-.46.11c3.59,13.83-6.07,20.11-7.12,20.79-.81-.52-10.92-7-7.23-20.79l-.43-.11L72.61,99c-7.17,12.35-18.47,9.92-19.66,9.65-.21-1-2.78-12.62,9.57-19.79l-.29-.38-.11-.54c-13.81,3.59-20.12-6-20.76-7.12.53-.84,6.92-10.88,20.76-7.19l.11-.48.29-.46C50.2,65.45,52.57,54.16,52.9,53c1-.23,12.59-2.74,19.71,9.58L73,62.3l.56-.12c-3.59-13.9,6.1-20.12,7.15-20.82A18,18,0,0,1,88.71,56.4Zm42.39,3.52c-3.23,1.74-4.82,3-5.55,5a8.93,8.93,0,0,1-6.37,5.5,9.29,9.29,0,0,0,.19-5.88,9.28,9.28,0,0,0-3.58-4.42,9.72,9.72,0,0,1,8.28-.26C126,60.79,127.9,60.71,131.1,59.92Zm-31,12.85a19.43,19.43,0,0,0,7.72-8.85l-.11.39a6,6,0,0,1,4.58,6,6.26,6.26,0,0,1-.78,3.07l.35.22A19.24,19.24,0,0,0,100.06,72.77Zm12.52,1.12a7.46,7.46,0,0,0,.94-3.59,7.31,7.31,0,0,0-5.45-7.12,22.18,22.18,0,0,0,1.3-3.34,7.74,7.74,0,0,1,5,14.46l.21.44A15.07,15.07,0,0,0,112.58,73.89Zm11,27.34a8.8,8.8,0,0,1-8.33-.56,9,9,0,0,0,4.23-4.08,9.22,9.22,0,0,0,.59-5.63c2.3.86,4.91,2.34,6,5.63.73,2,2.14,3.35,5,5C127.54,100.53,125.55,100.37,123.58,101.23Zm-5.34-5.18A7.76,7.76,0,0,1,109,100l-.13.43a15.2,15.2,0,0,0-.81-2,7.71,7.71,0,0,0,3.24-1.86,7.36,7.36,0,0,0,1.15-8.87,32.88,32.88,0,0,0,3.3-1.49A7.73,7.73,0,0,1,118.24,96.05Zm-6.47-8.14-.38.27a6.22,6.22,0,0,1-3.67,9.09l.08.46a18.69,18.69,0,0,0-7.74-8.93A19.27,19.27,0,0,0,111.77,87.91Zm-10.06,21.44a7.81,7.81,0,0,1-14.56,5l-.38.22c.35-.6.54-1.4.86-2a7.31,7.31,0,0,0,10.71-4.48A17.8,17.8,0,0,0,101.71,109.35Zm-.38,6.42a9.41,9.41,0,0,1,.3,8.22,7.66,7.66,0,0,0-.84,3.4,21.57,21.57,0,0,0,.84,3.8c-1.73-3.34-3-4.88-5.07-5.63a8.64,8.64,0,0,1-5.48-6.34,8.33,8.33,0,0,0,10.25-3.45Zm-10.11-3.48a5.93,5.93,0,0,1-3.08-.84l-.24.35A18.81,18.81,0,0,0,88.76,100a19.12,19.12,0,0,0,8.61,7.66l-.17-.08A6.09,6.09,0,0,1,91.22,112.29Zm-20.66,7.79a9.5,9.5,0,0,1-5.64,6c-2,.75-3.34,2.15-5,4.93,1.06-3.48,1.22-5.44.3-7.44a8.73,8.73,0,0,1,.65-8.44,8.58,8.58,0,0,0,4,4.31A8.86,8.86,0,0,0,70.56,120.08Zm-5.07-1.86a7.71,7.71,0,0,1-4-9.17l-.46-.11c.67-.18,1.35-.59,2-.8A7,7,0,0,0,65,111.32a7.23,7.23,0,0,0,8.53,1.24,18.57,18.57,0,0,0,1.91,3.18h0A7.69,7.69,0,0,1,65.49,118.22Zm7.69-6.79a6,6,0,0,1-7.29-1,5.39,5.39,0,0,1-1.61-2.73l-.54.14a19.27,19.27,0,0,0,8.87-7.63,23.48,23.48,0,0,0-.65,5A18.44,18.44,0,0,0,73.18,111.43Zm-42.69-9.82c3.18-1.78,4.72-3.07,5.47-5.07A8.86,8.86,0,0,1,42.41,91l.08,0a8.82,8.82,0,0,0-.84,3,9.86,9.86,0,0,0,.46,2.94,9.62,9.62,0,0,0,3.64,4.47,9.73,9.73,0,0,1-8.31.25C35.56,100.75,33.59,100.77,30.49,101.61ZM61.31,88.8A20.51,20.51,0,0,0,53.6,97a6,6,0,0,1-3.54-8.9L49.79,88A20.14,20.14,0,0,0,61.31,88.8ZM48.93,87.61A7.66,7.66,0,0,0,48,91.2a7.19,7.19,0,0,0,5.23,7,24.1,24.1,0,0,0-1.11,3.5,7.66,7.66,0,0,1-8.65-5.18,7.54,7.54,0,0,1,3.67-9.27l-.22-.43A20.32,20.32,0,0,0,48.93,87.61Zm-11-27.36a8.93,8.93,0,0,1,8.39.58A9.2,9.2,0,0,0,42,64.91,9.64,9.64,0,0,0,41,69a7.53,7.53,0,0,0,.41,1.53,9.47,9.47,0,0,1-6-5.65c-.73-2-2.11-3.29-4.91-5C33.91,60.94,36,61.12,37.9,60.25Zm5.32,5.24a7.79,7.79,0,0,1,9.24-4l.06-.26a13.23,13.23,0,0,0,.65,2,8.88,8.88,0,0,0-3,1.74A7.58,7.58,0,0,0,48,70.25a7.22,7.22,0,0,0,1,3.6,22.78,22.78,0,0,0-3.29,1.48A7.73,7.73,0,0,1,43.22,65.49Zm6.68,8,.22-.1a6.1,6.1,0,0,1,.94-7.5,6.32,6.32,0,0,1,2.48-1.47,21.26,21.26,0,0,0,7.72,8.36A19.14,19.14,0,0,0,49.9,73.45ZM73.2,50A18.55,18.55,0,0,0,72,56.4a26.11,26.11,0,0,0,.68,5,19.05,19.05,0,0,0-8.74-7.61l.4.07A6,6,0,0,1,73.2,50Zm1.54-3c-.38.66-.78,1.2-1.13,1.94A7.62,7.62,0,0,0,70.29,48a7.25,7.25,0,0,0-7.09,5.44,23,23,0,0,0-3.4-1.32,7.79,7.79,0,0,1,14.54-5ZM60.07,45.48a9.32,9.32,0,0,1-.16-8c.86-1.82.78-3.72.11-6.5,1.72,3.2,2.91,4.22,4.9,5a8.77,8.77,0,0,1,5.51,6.32,9.17,9.17,0,0,0-5.86-.16A9.45,9.45,0,0,0,60.07,45.48Zm-.92-8.35a9.22,9.22,0,0,0-.94,4.13,12.19,12.19,0,0,0,1.32,5.15,6.91,6.91,0,0,1-2.75-.14c-4.61-10,.57-15.69,2.08-17C60.1,33.56,60,35.2,59.15,37.13ZM46,55.55a6.22,6.22,0,0,1,.46,4.37,9.9,9.9,0,0,0-8.87-.46c-1.89.86-3.61.92-8.31-.73C30.54,57.09,35.8,51.66,46,55.55Zm-11.4,9.63a10.7,10.7,0,0,0,6.85,6.29,6.88,6.88,0,0,1-2,1.84C29.08,69.52,28.71,61.9,28.82,59.86,32.78,62,33.86,63.26,34.59,65.18Zm7.28,25.21a9.29,9.29,0,0,0-6.66,5.85c-.79,2-1.78,3.16-6.42,5.4-.27-1.94-.49-9.66,9.6-14.16A6,6,0,0,1,41.87,90.39Zm-4.75,12a10.41,10.41,0,0,0,9.22-.37,6,6,0,0,1-.11,2.69c-9.92,4.67-15.61-.43-16.93-2C33.56,101.39,35.21,101.45,37.12,102.36ZM60,115a9.61,9.61,0,0,0-.54,8.9c.86,1.94.91,3.56-.76,8.28-1.51-1.19-7.06-6.47-3.18-16.75A6,6,0,0,1,60,115Zm5.2,11.81a10.39,10.39,0,0,0,6.23-6.77,6.7,6.7,0,0,1,1.86,2c-3.77,10.3-11.49,10.65-13.46,10.54C62,128.74,63.2,127.61,65.22,126.85Zm22.25-3.72a6.09,6.09,0,0,1,2.86-3.51,9.56,9.56,0,0,0,5.9,6.69c2,.7,3.19,1.67,5.4,6.42C99.79,133,92,133.14,87.47,123.13Zm14.89,1.24a10.44,10.44,0,0,0-.38-9.22,5.66,5.66,0,0,1,2.69.1c4.7,9.93-.48,15.65-2,17C101.41,128,101.46,126.31,102.36,124.37ZM115.44,106a6.3,6.3,0,0,1-.44-4.34,10,10,0,0,0,8.93.43c1.94-.89,3.42-1,8.31.67C131.05,104.25,125.68,109.83,115.44,106ZM126.9,96.3c-1.32-3.64-4.35-5.34-6.83-6.29a7,7,0,0,1,2-1.8c10.27,3.72,10.71,11.35,10.6,13.4C128.73,99.48,127.6,98.27,126.9,96.3Zm-7.28-25.14a9.44,9.44,0,0,0,6.68-5.9c.76-2,1.73-3.13,6.42-5.37.16,1.93.38,9.68-9.6,14.1A6,6,0,0,1,119.62,71.16Zm4.74-12a10.43,10.43,0,0,0-9.22.35,5.61,5.61,0,0,1,.11-2.7c9.92-4.6,15.58.49,17,2C127.92,60.12,126.28,60,124.36,59.15ZM101.44,46.47a9.57,9.57,0,0,0,.59-8.86c-.86-2-.89-3.62.73-8.32,1.56,1.23,7,6.6,3.21,16.75A6.23,6.23,0,0,1,101.44,46.47Zm-5.1-11.84a10.35,10.35,0,0,0-6.28,6.79h0a6.69,6.69,0,0,1-1.83-2c3.8-10.35,11.46-10.7,13.46-10.58C99.52,32.81,98.31,33.92,96.34,34.63ZM63.66,22.78a16.35,16.35,0,0,1,11,4.25c-.11.26-.33.46-.33.77a3.32,3.32,0,0,0,0,.56l.08.72a27.37,27.37,0,0,1,.16,7.68C68.89,26,58.91,27.49,58.86,27.49l.08.67-.38-.51a14.52,14.52,0,0,0-5,11.1,20.06,20.06,0,0,0,1.8,7c-3.1-1.39-5.66-4.48-7.09-6.3L48,39.18c-.32-.38-.7-.38-1-.59A16.73,16.73,0,0,1,63.66,22.78Zm-20.77.34c1.35-.57,4,1.7,6,6.44A17.75,17.75,0,0,0,46,36.85a43.4,43.4,0,0,0-3-3.46c-.22-.2-.44-.35-.6-.51C40.92,27.77,41.46,23.74,42.89,23.12Zm-16,3.75c1-.92,3-.74,5.77.52a34.92,34.92,0,0,1,9.44,7A29.19,29.19,0,0,1,45,37.76a9.71,9.71,0,0,0-5,1.59c-.11.06-.29.19-.32.19l-.08.08.29.46-.43-.34s-.16.23-.18.29a10.08,10.08,0,0,0-1.65,4.83,22.37,22.37,0,0,1-3.26-2.8l-.19-.13a4,4,0,0,1-.49-.57l-.13-.15C27.22,34.53,25.15,28.57,26.85,26.87ZM24.36,45.58c-.62-.62-1.59-1.78-1.21-2.72.59-1.39,4.45-2,9.6-.57a2.78,2.78,0,0,0,.51.57l.11.17a38.36,38.36,0,0,0,3.53,3,17.63,17.63,0,0,0-7.2,2.81A17.87,17.87,0,0,1,24.36,45.58Zm3.3,6.27A16.63,16.63,0,0,1,38.55,47V47c.19.44.16.93.59,1.29l.57.41a26.67,26.67,0,0,1,5.56,5.39C33.59,50.41,27.66,58.5,27.6,58.58l.57.41-.71-.1s0,.35,0,1c0,2.67,1.08,10.23,10.52,14.21-3.19,1.13-7.07.79-9.36.54l-.43-.06c-.43,0-.73.21-1.11.29A16.75,16.75,0,0,1,27.66,51.85Zm-14.43,15c.53-1.39,4-1.67,8.79.29a17.94,17.94,0,0,0,3.13,7.18,34.71,34.71,0,0,0-4.59-.34c-.27,0-.51,0-.81,0C15.14,71.47,12.69,68.24,13.23,66.81Zm6.2,19.32h-.11c-9.14-.22-14.8-2.94-14.8-5.39s6.6-5.41,16-5.41a29.35,29.35,0,0,1,4.53.34,9.39,9.39,0,0,0-2.42,4.53c-.06.16-.11.43-.14.46v0l.62.11-.62.16a1.06,1.06,0,0,0,.14.33A9.72,9.72,0,0,0,25,85.83a30.86,30.86,0,0,1-4.61.35,3.79,3.79,0,0,1-.79-.05Zm-5.31,9.28a1.4,1.4,0,0,1-.89-.76c-.54-1.4,1.72-4.47,6.36-7.14a6,6,0,0,0,1,0,37.9,37.9,0,0,0,4.64-.3,17.64,17.64,0,0,0-3.15,7C18.75,95.62,15.71,96.11,14.12,95.41Zm8.65,2.42a16.56,16.56,0,0,1,4.24-11,3.7,3.7,0,0,0,1.37.38l.7-.14a27.73,27.73,0,0,1,7.66-.19c-8.09,4.21-9.41,10.68-9.41,13.92a13.4,13.4,0,0,0,.13,1.89l.71-.11-.57.38c.08.05,6.66,7.87,18.15,3.21-1.38,3.12-4.42,5.69-6.26,7.09l-.35.27c-.4.3-.32.78-.54,1.16v-.14A16.8,16.8,0,0,1,22.77,97.83Zm.35,20.77c-.4-.92.57-2.1,1.16-2.72a18.35,18.35,0,0,1,5.29-3.3,17.56,17.56,0,0,0,7.31,2.89,34.79,34.79,0,0,0-3.51,3c-.21.24-.27.43-.48.67v0C27.82,120.6,23.74,120.06,23.12,118.6Zm3.73,16c-1.79-1.84.81-8.52,7.49-15.16a29,29,0,0,1,3.37-2.91s-.05,0-.05.11a9.3,9.3,0,0,0,1.65,4.72l-.11.08-5,5c-.22,0-.41-.21-.57,0a1.08,1.08,0,0,0,0,1.51,1.1,1.1,0,0,0,1.48,0c.33-.32.16-.78,0-1.15l4.72-4.72c.05,0,.11,0,.16,0a9.94,9.94,0,0,0,5,1.56,29.48,29.48,0,0,1-3,3.43,1.94,1.94,0,0,1-.64.59l-.17.19C34.53,134.27,28.57,136.4,26.85,134.62Zm17.2,3.64a1.3,1.3,0,0,1-1.21,0c-1.38-.57-1.92-4.37-.49-9.55a7.11,7.11,0,0,1,.68-.65,38.44,38.44,0,0,0,3-3.53,17.54,17.54,0,0,0,2.8,7.25C47.45,135.1,45.59,137.61,44.05,138.26Zm7.8-4.42A16.65,16.65,0,0,1,47,123c.41-.21.87-.27,1.19-.73l.43-.51a26.35,26.35,0,0,1,5.32-5.5,21.57,21.57,0,0,0-1.22,5.77,14.92,14.92,0,0,0,5.8,11.87l.38-.62v0l-.08.67c.11,0,10.33.87,15.15-10.54,1.16,3.18.81,7.12.6,9.41l-.06.41c-.11.48.16.78.24,1.16A16.66,16.66,0,0,1,51.85,133.84Zm15,14.48c-1.43-.6-1.64-4.08.24-8.85v-.05a17,17,0,0,0,7.23-3.13,44.82,44.82,0,0,0-.35,4.64c0,.27.06.51.06.81C71.48,146.35,68.24,148.86,66.81,148.32ZM80.73,157c-2.54,0-5.45-6.58-5.45-16a41.29,41.29,0,0,1,.35-4.54,10.21,10.21,0,0,0,4.53,2.38V146c-.11.16-.4.16-.4.4a1.07,1.07,0,0,0,1.08,1.08,1.06,1.06,0,0,0,1-1.05c0-.43-.41-.65-.79-.81v-6.75h.17a9.73,9.73,0,0,0,4.58-2.29,33.71,33.71,0,0,1,.35,4.4,2.9,2.9,0,0,1-.08.89l0,.11,0,.13C86,151.28,83.21,157,80.73,157Zm14.72-9.55a1.52,1.52,0,0,1-.75.86c-1.43.54-4.53-1.78-7.18-6.39,0-.35.06-.67.06-1-.06-1.81-.22-3.23-.38-4.61a18.5,18.5,0,0,0,7.09,3.13C95.69,142.76,96.13,145.78,95.45,147.4Zm2.43-8.66a16.26,16.26,0,0,1-11-4.26c.08-.27.3-.46.3-.78,0-.16,0-.35,0-.56l-.11-.79a29.68,29.68,0,0,1-.11-7.66c5.64,10.87,15.61,9.33,15.72,9.33l-.13-.67h0l.38.54c.11-.08,7.9-6.66,3.29-18.15,3.1,1.4,5.61,4.42,7,6.26l.27.29c.3.41.68.41,1,.62A16.72,16.72,0,0,1,97.88,138.74Zm20.76-.4c-1.43.59-4.07-1.67-6-6.42h0a17,17,0,0,0,2.86-7.31,28.8,28.8,0,0,0,3.07,3.48,2.81,2.81,0,0,0,.59.54h0C120.64,133.7,120.07,137.75,118.64,138.34Zm16-3.72c-1.86,1.86-8.53-.78-15.19-7.47a29.16,29.16,0,0,1-3-3.43,9.48,9.48,0,0,0,5-1.56,2.33,2.33,0,0,0,.35-.22l.08,0-.38-.46.49.35a1.74,1.74,0,0,1,.19-.32,10.13,10.13,0,0,0,1.56-4.91,38.43,38.43,0,0,1,3.43,2.91,5.24,5.24,0,0,1,.62.68l.13.21.06,0C134.29,127,136.33,133,134.64,134.62Zm3.61-17.15a1.5,1.5,0,0,1,.08,1.18c-.56,1.41-4.45,2-9.55.57-.21-.24-.45-.51-.67-.73a33.89,33.89,0,0,0-3.51-3,17.25,17.25,0,0,0,7.18-2.8C135.15,114,137.63,115.88,138.25,117.47Zm-4.4-7.82a17,17,0,0,1-10.81,4.8c-.24-.44-.27-.89-.7-1.19l-.54-.43a23.72,23.72,0,0,1-5.56-5.4c11.63,3.67,17.61-4.42,17.64-4.53l-.54-.32.67,0c0-.1.87-10.3-10.54-15.15,3.21-1.19,7.2-.84,9.52-.54h.33c.45.08.72-.16,1.1-.27A16.78,16.78,0,0,1,133.85,109.65Zm14.43-14.94c-.59,1.4-4,1.67-8.82-.33l0,.06a17.12,17.12,0,0,0-3.11-7.18,38.28,38.28,0,0,0,4.59.3c.3,0,.54,0,.84,0C146.37,90,148.87,93.25,148.28,94.71Zm8.69-14c0,2.59-6.61,5.44-16.05,5.44a31,31,0,0,1-4.5-.35,8.79,8.79,0,0,0,2.37-4.61c0-.08.08-.32.08-.32v-.11l-.57-.11.57-.11a3.34,3.34,0,0,1-.05-.37,10.56,10.56,0,0,0-2.35-4.56,32.82,32.82,0,0,1,4.45-.31,9.34,9.34,0,0,1,1,0h.16C151.25,75.59,157,78.34,157,80.74Zm-9.55-14.66a1.5,1.5,0,0,1,.86.77c.49,1.39-1.72,4.47-6.42,7.14a5.93,5.93,0,0,0-.94,0,35.51,35.51,0,0,0-4.64.34,17.09,17.09,0,0,0,3.1-7.07C142.73,65.85,145.83,65.42,147.42,66.08Zm-8.69-2.41a16.67,16.67,0,0,1-4.26,11,3.12,3.12,0,0,0-1.37-.37l-.65.13a25.72,25.72,0,0,1-7.76.1C135.5,68.91,134,59,134,58.84l-.67.09.56-.4c-.08-.06-6.69-7.89-18.17-3.21,1.4-3.12,4.47-5.68,6.28-7.12l.35-.2c.32-.29.35-.68.59-1A16.74,16.74,0,0,1,138.73,63.67Zm-.35-20.77c.49,1.44-1.69,4-6.47,6l.06,0A18.17,18.17,0,0,0,124.6,46a31.73,31.73,0,0,0,3.51-3c.22-.2.27-.41.49-.62v0C133.72,40.9,137.77,41.44,138.38,42.9Zm-3.74-16a2.39,2.39,0,0,1,.56,1.75c0,3.21-3.23,8.58-8.06,13.44a27,27,0,0,1-3.45,3,9,9,0,0,0-1.51-4.88l.13-.11,5-5c.16,0,.38.18.54,0a1.12,1.12,0,0,0,0-1.54,1.16,1.16,0,0,0-1.54,0c-.29.34-.11.74,0,1.1l-4.74,4.78s-.09-.06-.11-.1a9.92,9.92,0,0,0-4.91-1.55,27.56,27.56,0,0,1,3-3.49,2.75,2.75,0,0,1,.65-.51l.16-.23C127,27.23,132.94,25.18,134.64,26.87Zm-17.13-3.64a1.45,1.45,0,0,1,1.13-.06c1.43.6,1.92,4.48.57,9.56a8.18,8.18,0,0,0-.7.66,32.72,32.72,0,0,0-3.07,3.51,17.49,17.49,0,0,0-2.78-7.2C114,26.36,115.92,23.89,117.51,23.23Zm-7.87,4.43a16.53,16.53,0,0,1,4.77,10.83c-.38.26-.84.26-1.16.69l-.43.54a25.23,25.23,0,0,1-5.39,5.55c3.64-11.62-4.43-17.61-4.53-17.67l-.36.56.08-.67c-.16,0-10.3-.91-15.15,10.53-1.19-3.18-.84-7.13-.54-9.45l0-.38v-.54c0-.26-.16-.42-.21-.62A16.67,16.67,0,0,1,109.64,27.66ZM94.72,13.24c1.41.53,1.65,4-.32,8.8h0a18.09,18.09,0,0,0-7.25,3.14,38.34,38.34,0,0,0,.38-4.62c0-.26-.06-.47-.06-.76C90,15.16,93.24,12.64,94.72,13.24ZM86.2,20.56A31.07,31.07,0,0,1,85.85,25a9.16,9.16,0,0,0-4.53-2.28v-7.2c.11-.15.41-.15.41-.38a1.09,1.09,0,0,0-1.08-1.1,1.11,1.11,0,0,0-1.08,1.1c0,.41.43.61.83.77v6.7c-.08,0-.13,0-.18,0A10.42,10.42,0,0,0,75.63,25a39,39,0,0,1-.32-4.41,5.26,5.26,0,0,1,0-.93l0-.15c.21-9.22,3-14.91,5.34-14.91C83.32,4.57,86.2,11.15,86.2,20.56Z"/><path d="M142.94,77.59c.14.15.16.38.33.38a.59.59,0,0,0,.62-.58.6.6,0,0,0-1.19,0C142.7,77.54,142.86,77.54,142.94,77.59Z"/><path d="M142.7,84.13a.58.58,0,0,0,.57.54.57.57,0,1,0,0-1.13c-.17,0-.19.22-.33.35S142.7,84,142.7,84.13Z"/><path d="M145.48,80.9c.11.38.38.86.89.86a1.12,1.12,0,0,0,1.08-1.08,1.09,1.09,0,0,0-1.08-1.08,1.11,1.11,0,0,0-1.11,1.08C145.26,80.79,145.42,80.79,145.48,80.9Z"/><path d="M122.47,34.58c.22,0,.41.14.52,0a.58.58,0,1,0-.81-.82.54.54,0,0,0,0,.82C122.28,34.63,122.39,34.53,122.47,34.58Z"/><path d="M126.92,39.31a.64.64,0,0,0,.84,0,.62.62,0,0,0,0-.82.63.63,0,0,0-.87,0c-.13.15,0,.35,0,.51S126.84,39.21,126.92,39.31Z"/><path d="M77.38,18.78c.14,0,.14-.15.27-.23s.33-.15.33-.37a.62.62,0,0,0-.6-.56.59.59,0,0,0-.59.56A.61.61,0,0,0,77.38,18.78Z"/><path d="M83.85,18.55c.09.08.09.23.25.23a.6.6,0,0,0,.56-.6.58.58,0,0,0-.56-.56.62.62,0,0,0-.6.56C83.5,18.4,83.75,18.44,83.85,18.55Z"/><path d="M34.53,38.49a.58.58,0,0,0-.81.82.6.6,0,0,0,.81,0c.08-.1,0-.21,0-.31S34.67,38.64,34.53,38.49Z"/><path d="M39,34.58c.11,0,.22.05.3,0a.52.52,0,0,0,0-.82.53.53,0,0,0-.78,0,.51.51,0,0,0,0,.82C38.63,34.72,38.79,34.58,39,34.58Z"/><path d="M35,33.68a1.08,1.08,0,0,0-1.54,0,1.13,1.13,0,0,0,.05,1.49,1,1,0,0,0,1.49,0c.08-.08-.06-.17,0-.31C35.26,34.47,35.4,34,35,33.68Z"/><path d="M18.54,83.89c-.08-.13-.14-.35-.35-.35a.57.57,0,1,0,0,1.13.54.54,0,0,0,.56-.54C18.75,84,18.59,84,18.54,83.89Z"/><path d="M18.75,77.39a.54.54,0,0,0-.56-.54.56.56,0,1,0,0,1.12c.21,0,.27-.23.35-.38S18.75,77.54,18.75,77.39Z"/><path d="M16,80.66c-.13-.46-.4-.89-.89-.89a1.11,1.11,0,0,0-1.08,1.13,1.07,1.07,0,0,0,1.08,1,1.11,1.11,0,0,0,1.11-1.08C16.25,80.74,16.06,80.74,16,80.66Z"/><path d="M39,126.91c-.19,0-.35-.11-.48,0a.55.55,0,0,0,0,.83.51.51,0,0,0,.78,0,.53.53,0,0,0,0-.83C39.2,126.85,39.09,127,39,126.91Z"/><path d="M34.53,122.21a.6.6,0,0,0-.81,0,.55.55,0,0,0,0,.81.58.58,0,0,0,.81,0c.14-.16,0-.32,0-.48S34.61,122.29,34.53,122.21Z"/><path d="M83.5,143.3a.57.57,0,0,0,.6.54.54.54,0,0,0,.56-.54.59.59,0,0,0-.56-.59c-.16,0-.16.16-.25.24S83.5,143.11,83.5,143.3Z"/><path d="M77.65,143c-.13-.08-.13-.24-.27-.24a.6.6,0,0,0-.59.59.55.55,0,0,0,.59.54.57.57,0,0,0,.6-.54C78,143.11,77.76,143.06,77.65,143Z"/><path d="M126.92,123a.66.66,0,0,0,.87,0,.65.65,0,0,0,0-.81.68.68,0,0,0-.87,0c-.08.08,0,.19,0,.3S126.79,122.86,126.92,123Z"/><path d="M122.47,126.91c-.08,0-.19-.06-.29,0a.6.6,0,0,0,0,.83.54.54,0,0,0,.81,0,.58.58,0,0,0,0-.83C122.88,126.8,122.69,126.91,122.47,126.91Z"/><path d="M126.46,127.79a1,1,0,0,0,1.46.06,1.05,1.05,0,0,0,0-1.54,1,1,0,0,0-1.46,0c-.13.11.06.22,0,.3C126.25,127,126.11,127.5,126.46,127.79Z"/></g></svg>