<svg xmlns="http://www.w3.org/2000/svg" viewBox="0 0 161.51 161.51"><title>circle-08</title><g id="Objects_path-filder"><path d="M54.34,80.76a26.42,26.42,0,1,1,26.4,26.42A26.45,26.45,0,0,1,54.34,80.76Zm52.1,0a25.7,25.7,0,1,0-25.7,25.72A25.73,25.73,0,0,0,106.44,80.76Z"/><path d="M59.57,80.76a21.17,21.17,0,1,1,21.17,21.17A21.19,21.19,0,0,1,59.57,80.76Zm41.8,0a20.63,20.63,0,1,0-20.63,20.65A20.65,20.65,0,0,0,101.37,80.76Z"/><path d="M65.67,80.05a3.43,3.43,0,0,1,1.48-2.83,3.52,3.52,0,0,1-.08-2.86,3.37,3.37,0,0,1,2.51-2c0-.1,0-.18,0-.26a3.29,3.29,0,0,1,1-2.43,3.4,3.4,0,0,1,3.08-1,3.43,3.43,0,0,1,2-2.11,3.49,3.49,0,0,1,3.21.33,3.43,3.43,0,0,1,2.61-1.19,3.37,3.37,0,0,1,2.83,1.51,3.63,3.63,0,0,1,2.89-.11,3.54,3.54,0,0,1,2.08,2.48,3.55,3.55,0,0,1,2.69,1,3.43,3.43,0,0,1,.92,3.07,3.41,3.41,0,0,1,2.1,2,3.51,3.51,0,0,1-.29,3.23,3.49,3.49,0,0,1,1.16,2.62,3.4,3.4,0,0,1-1.49,2.83,3.65,3.65,0,0,1,.11,2.86,3.4,3.4,0,0,1-2.51,2,3.26,3.26,0,0,1-1,2.69,3.33,3.33,0,0,1-3,1,3.47,3.47,0,0,1-5.18,1.8A3.61,3.61,0,0,1,80,95.86a3.49,3.49,0,0,1-2.83-1.54,3.47,3.47,0,0,1-2.89.11,3.33,3.33,0,0,1-2-2.48,3.53,3.53,0,0,1-2.72-1,3.32,3.32,0,0,1-1-2.4h0a5,5,0,0,1,0-.67,3.45,3.45,0,0,1-2.1-1.94,3.54,3.54,0,0,1,.32-3.24A3.39,3.39,0,0,1,65.67,80.05Zm2.56-2.53-.35.22a2.56,2.56,0,0,0-1.43,2.31,2.63,2.63,0,0,0,1.16,2.22l.38.26-.3.33a2.69,2.69,0,0,0-.43,2.72,2.63,2.63,0,0,0,1.91,1.62l.46.11-.16.38a2.71,2.71,0,0,0,3.07,3.45l.43-.08,0,.4a2.68,2.68,0,0,0,4.13,2.05l.35-.27.21.38A2.65,2.65,0,0,0,80,95.07a2.79,2.79,0,0,0,2.24-1.18l.24-.35.33.29a2.59,2.59,0,0,0,2.75.38,2.5,2.5,0,0,0,1.59-1.89l.08-.43.4.11a2.63,2.63,0,0,0,2.7-.64A2.75,2.75,0,0,0,91.12,89L91,88.55l.41,0a2.71,2.71,0,0,0,2-4.15L93.2,84l.43-.19a2.64,2.64,0,0,0,.24-4.55L93.52,79l.27-.33a2.69,2.69,0,0,0,.44-2.75,2.62,2.62,0,0,0-1.92-1.56l-.43-.11.13-.41A2.68,2.68,0,0,0,89,70.37l-.43.11,0-.43a2.73,2.73,0,0,0-1.62-2.24,2.6,2.6,0,0,0-2.48.22l-.4.24-.17-.38a2.69,2.69,0,0,0-2.37-1.45,2.79,2.79,0,0,0-2.24,1.18L79,68l-.3-.27a2.69,2.69,0,0,0-4.36,1.51l-.08.41-.41-.11a2.62,2.62,0,0,0-2.67.65,2.58,2.58,0,0,0-.75,2.4l.08.4L70,73a2.7,2.7,0,0,0-2,4.18Z"/><path d="M96.35,95v-.78a1.61,1.61,0,0,0,.71-.16,2.65,2.65,0,0,0,1.64-1.92l.11-.38.38.11a2.56,2.56,0,0,0,2.61-.7,2.61,2.61,0,0,0,.81-2.4l-.08-.41.41,0a2.61,2.61,0,0,0,2.21-1.62,2.37,2.37,0,0,0-.19-2.45l-.24-.38.35-.19a2.74,2.74,0,0,0,1.48-2.4A2.64,2.64,0,0,0,105.36,79l-.35-.21.25-.36a2.69,2.69,0,0,0,.43-2.77,2.79,2.79,0,0,0-1.92-1.62l-.43-.11.13-.41a2.41,2.41,0,0,0-.61-2.61,2.72,2.72,0,0,0-2.4-.78l-.41.08,0-.41a2.8,2.8,0,0,0-1.62-2.24,2.9,2.9,0,0,0-1.81-.1l-.22-.73a3,3,0,0,1,2.32.13,3.47,3.47,0,0,1,2,2.46,3.5,3.5,0,0,1,2.69,1,3.27,3.27,0,0,1,1,3,3.63,3.63,0,0,1,2.1,2,3.68,3.68,0,0,1-.3,3.23,3.42,3.42,0,0,1-.35,5.45,3.39,3.39,0,0,1,.09,2.89,3.56,3.56,0,0,1-2.46,2,3.49,3.49,0,0,1-4.07,3.64,3.32,3.32,0,0,1-2,2.07A2.6,2.6,0,0,1,96.35,95Z"/><path d="M66.64,64.12a3,3,0,0,1,.27-1.3,3.53,3.53,0,0,1,2.48-2,3.47,3.47,0,0,1,1-2.7,3.29,3.29,0,0,1,3.07-.94,3.57,3.57,0,0,1,1.94-2.11,3.5,3.5,0,0,1,3.26.36,3.33,3.33,0,0,1,2.59-1.24,3.46,3.46,0,0,1,2.86,1.51A3.46,3.46,0,0,1,89,58.08a3.47,3.47,0,0,1,2.67,1,3.3,3.3,0,0,1,1,3.08,3.43,3.43,0,0,1,2.07,2,2.14,2.14,0,0,1,.22,1H94.2a2.08,2.08,0,0,0-.14-.7,2.78,2.78,0,0,0-1.94-1.64l-.38-.11.14-.38a2.59,2.59,0,0,0-.73-2.64,2.69,2.69,0,0,0-2.37-.78l-.41.1-.05-.43a2.72,2.72,0,0,0-1.65-2.24,2.43,2.43,0,0,0-2.45.25l-.38.21-.19-.35a2.67,2.67,0,0,0-4.61-.3l-.21.36-.35-.28a2.71,2.71,0,0,0-4.4,1.54l-.08.43L73.57,58a2.34,2.34,0,0,0-2.59.65A2.5,2.5,0,0,0,70.22,61l.06.41-.43,0a2.8,2.8,0,0,0-2.21,1.62,2.66,2.66,0,0,0-.11,1.81l-.76.22A3.28,3.28,0,0,1,66.64,64.12Z"/><path d="M54.18,80.22a3.58,3.58,0,0,1,1.53-2.86,3.36,3.36,0,0,1-.08-2.86,3.53,3.53,0,0,1,2.49-2v-.19a3.38,3.38,0,0,1,1-2.48,3.32,3.32,0,0,1,3-1,3.41,3.41,0,0,1,2-2.08,2.29,2.29,0,0,1,1-.24v.81a1.67,1.67,0,0,0-.67.13,2.73,2.73,0,0,0-1.64,1.95l-.11.37-.41-.11a2.51,2.51,0,0,0-2.61.71,2.74,2.74,0,0,0-.81,2.4l.08.4-.41,0a2.7,2.7,0,0,0-2.21,1.62,2.54,2.54,0,0,0,.22,2.45l.21.38-.35.21A2.74,2.74,0,0,0,55,80.22a2.68,2.68,0,0,0,1.19,2.21l.35.24-.27.35a2.81,2.81,0,0,0-.43,2.75,2.78,2.78,0,0,0,2,1.62l.43.11-.17.43a2.48,2.48,0,0,0,.65,2.59,2.61,2.61,0,0,0,2.37.78l.44-.11,0,.43a2.61,2.61,0,0,0,1.62,2.24,2.81,2.81,0,0,0,1.78.14l.21.72a3.2,3.2,0,0,1-2.31-.13,3.43,3.43,0,0,1-2-2.48,3.36,3.36,0,0,1-2.69-1,3.19,3.19,0,0,1-.92-3,3.66,3.66,0,0,1-2.13-2,3.47,3.47,0,0,1,.35-3.21A3.44,3.44,0,0,1,54.18,80.22Z"/><path d="M66.53,96.34h.78a1.75,1.75,0,0,0,.19.7,2.56,2.56,0,0,0,1.89,1.62l.37.11-.08.38a2.56,2.56,0,0,0,.65,2.64,2.72,2.72,0,0,0,2.43.78l.4-.08.06.43a2.69,2.69,0,0,0,1.59,2.22,2.59,2.59,0,0,0,2.51-.19l.35-.27.19.37a2.66,2.66,0,0,0,4.61.3l.24-.38.32.27a2.72,2.72,0,0,0,4.4-1.51l.11-.43.4.14a2.41,2.41,0,0,0,2.62-.62,2.78,2.78,0,0,0,.78-2.38l-.08-.4.4-.06a2.64,2.64,0,0,0,2.21-1.61A2.6,2.6,0,0,0,94,96.56l.73-.22a3.39,3.39,0,0,1-.14,2.32,3.43,3.43,0,0,1-2.48,2v.24a3.36,3.36,0,0,1-1,2.45,3.22,3.22,0,0,1-3,1,3.55,3.55,0,0,1-2,2.07,3.44,3.44,0,0,1-3.23-.32,3.33,3.33,0,0,1-2.59,1.21,3.41,3.41,0,0,1-2.86-1.51,3.29,3.29,0,0,1-2.86.08,3.52,3.52,0,0,1-2.05-2.48,3.49,3.49,0,0,1-3.67-4.07,3.31,3.31,0,0,1-2-2A2.14,2.14,0,0,1,66.53,96.34Z"/><path d="M104.77,134.05l.38-.68a2.57,2.57,0,0,0,1.29.32,2.75,2.75,0,0,0,2.29-1.26l.25-.38.35.32a2.35,2.35,0,0,0,2.67.41,2.56,2.56,0,0,0,1.64-1.86l.08-.43.44.1a2.48,2.48,0,0,0,2.66-.7,2.62,2.62,0,0,0,.73-2.37l-.11-.43h.46a2.92,2.92,0,0,0,2.11-1.35l.64.4a3.45,3.45,0,0,1-2.32,1.62,3.08,3.08,0,0,1-1,2.73,3.55,3.55,0,0,1-3.07,1,3.27,3.27,0,0,1-2,2,3.2,3.2,0,0,1-3.18-.29,3.4,3.4,0,0,1-2.67,1.24A3.52,3.52,0,0,1,104.77,134.05Z"/><path d="M135.24,100.66a2.16,2.16,0,0,0,1.11-.65,2.72,2.72,0,0,0,.75-2.48L137,97h.48a2.31,2.31,0,0,0,2.16-1.59,2.49,2.49,0,0,0-.16-2.48l-.24-.38.4-.18A2.63,2.63,0,0,0,141,90v-.13a2.52,2.52,0,0,0-1.18-2.05l-.35-.24.29-.33a2.85,2.85,0,0,0,.57-2.42l.75-.19a3.9,3.9,0,0,1-.48,2.8,3.16,3.16,0,0,1,1.19,2.4V90a3.42,3.42,0,0,1-1.46,2.92,3.52,3.52,0,0,1-2.43,4.88c0,.11,0,.22,0,.35a3.39,3.39,0,0,1-1,2.43,3.35,3.35,0,0,1-1.46.86Z"/><path d="M125.78,41.49l.43-.67a3.81,3.81,0,0,1,1.62,2.32,3.3,3.3,0,0,1,2.67,1,3.57,3.57,0,0,1,1,3.08,3.11,3.11,0,0,1,2,2,3.15,3.15,0,0,1-.27,3.18A3.41,3.41,0,0,1,134.49,55v.08a3.28,3.28,0,0,1-.43,1.65l-.7-.38a2.63,2.63,0,0,0,.35-1.32h0a2.67,2.67,0,0,0-1.25-2.27l-.4-.24.32-.35a2.32,2.32,0,0,0,.44-2.67,2.52,2.52,0,0,0-1.89-1.62l-.43-.08.11-.46a2.55,2.55,0,0,0-.68-2.67,2.42,2.42,0,0,0-2.37-.67l-.43,0,0-.43A2.83,2.83,0,0,0,125.78,41.49Z"/><path d="M84.68,20.38a3.58,3.58,0,0,1,2.78.51,3.43,3.43,0,0,1,5.47.29,3.22,3.22,0,0,1,2.89-.05,3.15,3.15,0,0,1,2,2.45,3.46,3.46,0,0,1,2.75,1,3.67,3.67,0,0,1,.89,1.51l-.76.22a2.66,2.66,0,0,0-.67-1.13,2.59,2.59,0,0,0-2.51-.73l-.46.08V24a2.38,2.38,0,0,0-1.59-2.16A2.54,2.54,0,0,0,93,22l-.4.27-.19-.43A2.6,2.6,0,0,0,90,20.48a2.49,2.49,0,0,0-2.16,1.19l-.24.35-.35-.3a2.75,2.75,0,0,0-2.4-.54Z"/><path d="M40.88,35.32a3.45,3.45,0,0,1,2.27-1.62,3.37,3.37,0,0,1,1-2.67,3.48,3.48,0,0,1,3.1-1,3.15,3.15,0,0,1,2-2.05,3.11,3.11,0,0,1,3.16.33A3.35,3.35,0,0,1,55.07,27a3.41,3.41,0,0,1,1.67.4l-.38.7a2.56,2.56,0,0,0-1.29-.35A2.69,2.69,0,0,0,52.8,29l-.27.41-.32-.35a2.38,2.38,0,0,0-2.64-.41,2.5,2.5,0,0,0-1.68,1.89l0,.46-.43-.17a2.59,2.59,0,0,0-2.7.71A2.66,2.66,0,0,0,44,34l.11.4-.49,0a2.77,2.77,0,0,0-2.1,1.32Z"/><path d="M19.71,71.56v-.08a3.35,3.35,0,0,1,1.48-2.91,3.47,3.47,0,0,1-.05-2.84,3.25,3.25,0,0,1,2.46-2.07c0-.11,0-.19,0-.33a3.49,3.49,0,0,1,1-2.42A3.67,3.67,0,0,1,26.08,60l.21.75a2.68,2.68,0,0,0-1.13.68A2.73,2.73,0,0,0,24.43,64l.11.43-.48,0A2.41,2.41,0,0,0,21.87,66a2.52,2.52,0,0,0,.19,2.51l.27.35-.46.22a2.58,2.58,0,0,0-1.37,2.4v.08a2.5,2.5,0,0,0,1.21,2.08l.35.27-.27.32a2.71,2.71,0,0,0-.6,2.43l-.78.16A3.73,3.73,0,0,1,20.93,74,3.29,3.29,0,0,1,19.71,71.56Z"/><path d="M27.05,106.43a3.82,3.82,0,0,1,.37-1.67l.71.35a2.67,2.67,0,0,0-.3,1.32A2.61,2.61,0,0,0,29,108.69l.44.28-.35.32a2.33,2.33,0,0,0-.41,2.69,2.59,2.59,0,0,0,1.86,1.62l.46.06-.16.46a2.54,2.54,0,0,0,.75,2.69,2.48,2.48,0,0,0,2.32.68l.46-.09,0,.46A2.82,2.82,0,0,0,35.73,120l-.38.67a3.44,3.44,0,0,1-1.62-2.32,3.49,3.49,0,0,1-2.69-.94,3.72,3.72,0,0,1-1-3.13,3.28,3.28,0,0,1-2.05-2,3.22,3.22,0,0,1,.27-3.15A3.48,3.48,0,0,1,27.05,106.43Z"/><path d="M60,135.42l.75-.21a2.53,2.53,0,0,0,.71,1.1,2.59,2.59,0,0,0,2.48.75l.48-.08v.46A2.36,2.36,0,0,0,66,139.63a2.59,2.59,0,0,0,2.5-.19l.35-.24.22.4a2.63,2.63,0,0,0,2.43,1.4,2.45,2.45,0,0,0,2.13-1.21l.27-.38.32.32a2.86,2.86,0,0,0,2.46.57l.13.78a3.52,3.52,0,0,1-2.78-.51,3.14,3.14,0,0,1-2.56,1.21,3.33,3.33,0,0,1-2.89-1.5,3.14,3.14,0,0,1-2.85.05,3,3,0,0,1-2-2.43,3.48,3.48,0,0,1-2.77-1A3.91,3.91,0,0,1,60,135.42Z"/><path d="M94.93,80.76a3.49,3.49,0,1,1,3.5,3.5A3.51,3.51,0,0,1,94.93,80.76Zm6.44,0a3,3,0,1,0-2.94,3A3,3,0,0,0,101.37,80.76Z"/><path d="M89.77,68.27a3.31,3.31,0,0,1,1-2.45,3.4,3.4,0,0,1,2.45-1.06,3.53,3.53,0,0,1,2.49,1.06,3.45,3.45,0,0,1,0,4.9,3.66,3.66,0,0,1-2.49,1.06,3.53,3.53,0,0,1-2.45-1.06A3.31,3.31,0,0,1,89.77,68.27Zm6.45,0a2.9,2.9,0,0,0-.89-2.1,3,3,0,0,0-2.08-.89,3.1,3.1,0,0,0-2.1.89,3,3,0,0,0-.83,2.1,2.94,2.94,0,0,0,.83,2.08,3.05,3.05,0,0,0,2.1.89,2.91,2.91,0,0,0,2.08-.89A2.87,2.87,0,0,0,96.22,68.27Z"/><path d="M77.29,63.09a3.49,3.49,0,1,1,3.48,3.45A3.47,3.47,0,0,1,77.29,63.09Zm6.44,0a3,3,0,1,0-3,3A3,3,0,0,0,83.73,63.07Z"/><path d="M64.8,68.24a3.37,3.37,0,0,1,1-2.45,3.51,3.51,0,0,1,4.93,0,3.51,3.51,0,0,1,0,4.91,3.51,3.51,0,0,1-4.93,0A3.38,3.38,0,0,1,64.8,68.24Zm6.45,0a2.76,2.76,0,0,0-.92-2.07,2.86,2.86,0,0,0-4.15,0,2.76,2.76,0,0,0-.84,2.07,2.9,2.9,0,0,0,.84,2.11,3,3,0,0,0,4.15,0A2.89,2.89,0,0,0,71.25,68.24Z"/><path d="M59.57,80.73a3.5,3.5,0,1,1,7,0,3.5,3.5,0,0,1-7,0Zm6.47,0a3,3,0,0,0-2.94-3,3,3,0,1,0,2.94,3Z"/><path d="M64.78,93.22a3.51,3.51,0,0,1,1-2.46,3.59,3.59,0,0,1,2.46-1,3.53,3.53,0,0,1,3.5,3.5,3.71,3.71,0,0,1-1,2.46,3.66,3.66,0,0,1-2.49,1,3.43,3.43,0,0,1-3.47-3.5Zm6.41,0a3,3,0,0,0-3-3,3.06,3.06,0,0,0-2.08.86,3,3,0,0,0-.86,2.11,2.93,2.93,0,0,0,.86,2.1,3,3,0,0,0,2.08.89,2.88,2.88,0,0,0,2.1-.89A3,3,0,0,0,71.19,93.24Z"/><path d="M77.23,98.42a3.5,3.5,0,1,1,3.48,3.48A3.5,3.5,0,0,1,77.23,98.42Zm6.48,0a3,3,0,0,0-3-3,3,3,0,0,0,0,5.94A3,3,0,0,0,83.71,98.42Z"/><path d="M89.75,93.27a3.4,3.4,0,0,1,1-2.46,3.49,3.49,0,1,1,0,4.89A3.45,3.45,0,0,1,89.75,93.27Zm6.44,0a2.81,2.81,0,0,0-.89-2.1,2.93,2.93,0,0,0-4.15,0,2.95,2.95,0,0,0,0,4.19,3,3,0,0,0,4.18,0A2.83,2.83,0,0,0,96.19,93.24Z"/><path d="M80.82,80.46c8.47-5.93,14.37,0,14.43,0l-.57.54c-.24-.22-5.5-5.45-13.43,0Z"/><path d="M80.82,81.05l.43-.64c7.93,5.5,13.19.27,13.43.08l.57.54C95.19,81.05,89.29,87,80.82,81.05Z"/><path d="M106.58,80.51c2.26-2,4.53-2.88,6.74-2.72a8,8,0,0,1,5,2.78l-.48.4a7.49,7.49,0,0,0-4.61-2.56c-2-.16-4.15.67-6.26,2.59Z"/><path d="M106.58,81l.4-.48c2.11,1.91,4.23,2.77,6.26,2.59a7.33,7.33,0,0,0,4.61-2.57l.48.41a7.75,7.75,0,0,1-5,2.75C111.11,83.89,108.84,83,106.58,81Z"/><path d="M118.44,65.22c.87-3.66,2.38-5.85,4.45-6.47,3.13-.94,6.39,2,6.53,2.16l-.43.43s-3.13-2.86-5.94-2c-1.86.56-3.21,2.61-4,6Z"/><path d="M118.55,65.49l.32-.51c3,1.91,5.32,2.45,7.07,1.59,2.61-1.32,3-5.47,3-5.53l.6.06c0,.18-.35,4.55-3.29,6C124.24,68.08,121.68,67.51,118.55,65.49Z"/><path d="M94.47,37.61A5.06,5.06,0,0,1,95,35.4c1.57-2.89,6-3.11,6.15-3.13v.65s-4.23.21-5.61,2.77q-1.33,2.6,1.38,7.12l-.52.3A11.12,11.12,0,0,1,94.47,37.61Z"/><path d="M96.55,42.65c3.45-.73,5.52-2,6.14-3.88.92-2.78-1.8-6-1.86-6l.49-.41c.1.17,3,3.48,1.94,6.61-.7,2.05-2.91,3.48-6.58,4.26Z"/><path d="M58.57,37.31a8.74,8.74,0,0,1,2.32-5.2l.46.37c-.05.06-2.83,3.19-2,6,.56,1.84,2.58,3.24,6,4.05l-.13.59c-3.64-.86-5.83-2.37-6.45-4.45A4.79,4.79,0,0,1,58.57,37.31Z"/><path d="M61.05,32.62l0-.62c.19,0,4.59.32,6,3.29,1,1.94.41,4.5-1.64,7.68L65,42.65c1.92-3,2.48-5.34,1.59-7.09C65.29,32.92,61.08,32.62,61.05,32.62Z"/><path d="M32.28,60.37h.62s.22,4.23,2.8,5.61c1.7.91,4.13.43,7.13-1.38l.29.49c-3.21,2-5.77,2.42-7.68,1.4C32.49,65,32.28,60.56,32.28,60.37Z"/><path d="M32.39,60.18c.16-.11,3.45-3,6.58-1.94,2.05.7,3.5,2.91,4.29,6.58l-.6.13c-.73-3.48-2-5.53-3.88-6.14-2.78-.92-6,1.8-6,1.83Z"/><path d="M32.12,100.58l.37-.46c.06,0,3.13,2.86,6,2,1.87-.57,3.24-2.62,4-6l.57.11c-.87,3.67-2.35,5.85-4.43,6.48C35.49,103.68,32.23,100.71,32.12,100.58Z"/><path d="M32,100.42c0-.19.32-4.56,3.29-6,1.94-1,4.53-.44,7.69,1.61l-.38.52c-2.91-1.92-5.31-2.43-7.07-1.6-2.61,1.32-2.94,5.51-2.94,5.53Z"/><path d="M60.38,128.6s4.21-.22,5.58-2.81c1-1.7.49-4.1-1.37-7.12l.51-.29c1.94,3.18,2.43,5.77,1.4,7.71-1.56,2.89-6,3.1-6.12,3.1Z"/><path d="M58,124a3.71,3.71,0,0,1,.27-1.43c.65-2,2.85-3.48,6.55-4.26l.11.59c-3.43.73-5.5,2-6.1,3.86-.94,2.75,1.78,6,1.81,6l-.46.41C60.09,129,58,126.6,58,124Z"/><path d="M96.17,119l.13-.62c3.64.89,5.8,2.38,6.45,4.48.89,3.13-2,6.39-2.16,6.53l-.43-.43s2.86-3.13,2-5.94C101.59,121.18,99.56,119.8,96.17,119Z"/><path d="M93.93,124.12A11,11,0,0,1,96,118.54l.52.32c-1.92,2.94-2.43,5.32-1.59,7.07,1.32,2.64,5.47,2.94,5.5,2.94l0,.62c-.19,0-4.56-.35-6-3.32A4.06,4.06,0,0,1,93.93,124.12Z"/><path d="M118.39,96.4c3.18-2,5.77-2.43,7.68-1.43,2.92,1.56,3.13,6,3.13,6.15l-.62,0s-.19-4.26-2.8-5.63c-1.7-.89-4.1-.44-7.1,1.37Z"/><path d="M118.25,96.67l.62-.14c.73,3.48,2,5.53,3.86,6.15,2.78.94,6-1.81,6-1.81l.38.43c-.14.14-3.43,3-6.56,2C120.47,102.54,119,100.36,118.25,96.67Z"/><path d="M98.86,62.34c.19-3,1.14-5.29,2.86-6.72a7.71,7.71,0,0,1,5.48-1.56l-.08.59a7.38,7.38,0,0,0-5,1.46c-1.59,1.32-2.48,3.42-2.64,6.28Z"/><path d="M99.11,62c2.86-.13,5-1,6.28-2.64a6.76,6.76,0,0,0,1.43-5l.59-.05a7.79,7.79,0,0,1-1.56,5.44c-1.4,1.7-3.64,2.7-6.69,2.86Z"/><path d="M77.8,48.8c0-.22,0-.43,0-.62a7.64,7.64,0,0,1,2.75-5l.38.46a7.28,7.28,0,0,0-2.54,4.58A8.5,8.5,0,0,0,81,54.49l-.48.46A9.5,9.5,0,0,1,77.8,48.8Z"/><path d="M80.53,54.49c1.86-2.11,2.72-4.18,2.53-6.26a7.3,7.3,0,0,0-2.51-4.58l.38-.46a7.69,7.69,0,0,1,2.75,5c0,.21,0,.43,0,.62A9.65,9.65,0,0,1,81,55Z"/><path d="M54,55c0-.43,0-.68,0-.7l.62.05a7.29,7.29,0,0,0,1.46,5c1.29,1.56,3.4,2.48,6.26,2.61l-.06.62c-3-.16-5.26-1.16-6.69-2.86A7.49,7.49,0,0,1,54,55Z"/><path d="M54.34,54.06a7.84,7.84,0,0,1,5.45,1.56q2.58,2.15,2.85,6.72l-.59,0c-.19-2.83-1-5-2.67-6.25a7.28,7.28,0,0,0-5-1.46Z"/><path d="M43.17,80.94l.49-.37a7.34,7.34,0,0,0,4.58,2.51c2,.18,4.13-.68,6.26-2.59l.43.48c-2.26,2-4.55,2.92-6.77,2.7A7.85,7.85,0,0,1,43.17,80.94Z"/><path d="M43.17,80.57a8,8,0,0,1,5-2.78c2.22-.19,4.51.73,6.77,2.72L54.5,81c-2.13-1.92-4.23-2.75-6.26-2.59A7.29,7.29,0,0,0,43.66,81Z"/><path d="M54.34,107.45l.08-.64a7.1,7.1,0,0,0,5-1.4c1.62-1.35,2.48-3.46,2.67-6.26l.59,0c-.18,3-1.13,5.23-2.85,6.66A7.83,7.83,0,0,1,54.34,107.45Z"/><path d="M54,106.46a7.8,7.8,0,0,1,1.61-4.78c1.46-1.7,3.7-2.67,6.69-2.83l.06.65c-2.86.13-5,1-6.26,2.61a7.3,7.3,0,0,0-1.46,5l-.59.08A6.22,6.22,0,0,1,54,106.46Z"/><path d="M80.5,107l.48-.4a9.48,9.48,0,0,1,2.73,6.12c0,.24,0,.4,0,.64a8,8,0,0,1-2.75,5l-.35-.48a7.49,7.49,0,0,0,2.48-4.59,3.21,3.21,0,0,0,0-.56A8.83,8.83,0,0,0,80.5,107Z"/><path d="M77.8,112.69a9.33,9.33,0,0,1,2.73-6.12l.48.4a8.83,8.83,0,0,0-2.59,5.72v.56A7.28,7.28,0,0,0,81,117.84l-.38.48a8,8,0,0,1-2.75-5A4.79,4.79,0,0,1,77.8,112.69Z"/><path d="M99.11,99.5l0-.65c3,.19,5.29,1.16,6.69,2.83a8.06,8.06,0,0,1,1.59,5.48l-.62-.06a6.75,6.75,0,0,0-1.43-5C104.07,100.52,102,99.63,99.11,99.5Z"/><path d="M98.86,99.18l.6,0c.16,2.83,1.05,4.93,2.64,6.26a7.23,7.23,0,0,0,5,1.4l.08.62a7.75,7.75,0,0,1-5.48-1.57C100,104.43,99,102.2,98.86,99.18Z"/><path d="M80.58,79.27c0-9,7.28-11,7.34-11l.21.76c-.32.08-7.5,2-6.66,11.62l-.81.06C80.61,80.24,80.58,79.76,80.58,79.27Z"/><path d="M80.88,80.38c8.76-4.13,6.76-11.55,6.76-11.6l.73-.21c0,.08,2.16,8.14-7.17,12.51Z"/><path d="M73.51,70.7a8.08,8.08,0,0,1,.22-2.16l.75.21c-.08.33-2,7.53,6.72,11.63l-.32.67C74.51,78.09,73.51,73.39,73.51,70.7Z"/><path d="M74,69.08l.16-.78c.08,0,8.14,2.15,7.25,12.46l-.78-.06C81.47,71,74.27,69.13,74,69.08Z"/><path d="M66.85,81l.57-.54c.19.19,5.5,5.42,13.4-.08l.43.65C72.81,86.9,66.91,81,66.85,81Z"/><path d="M66.83,80.49c.08-.08,6-6,14.42-.08l-.43.64c-7.93-5.53-13.37-.08-13.4,0Z"/><path d="M74,92.41c.27-.09,6.69-1.86,6.69-10.2a14.25,14.25,0,0,0,0-1.45l.8-.08c.87,10.3-7.17,12.43-7.28,12.45Z"/><path d="M73.49,90.79c0-2.7,1-7.42,7.39-10.41l.32.7c-8.77,4.1-6.74,11.51-6.74,11.6l-.79.24A12.6,12.6,0,0,1,73.49,90.79Z"/><path d="M80.85,81.08l.32-.67c9.33,4.36,7.2,12.4,7.18,12.51l-.73-.24C87.67,92.41,89.56,85.18,80.85,81.08Z"/><path d="M80.58,82.24c0-.51,0-1,0-1.54l.78.06c-.8,9.62,6.61,11.62,6.69,11.67l-.21.7C87.83,93.13,80.58,91.19,80.58,82.24Z"/><path d="M106.33,76.17a13.64,13.64,0,0,1,17.32,4.4l-.6.4c-.24-.4-5.85-8.92-16.42-4.15Z"/><path d="M106.33,85.13l.3-.65c10.57,4.74,16.18-3.78,16.42-4.1l.6.35A13.6,13.6,0,0,1,106.33,85.13Z"/><path d="M95.63,59.42c4.34-11.4,15.21-9.14,15.31-9.11l-.16.67c-.4-.08-10.41-2.13-14.51,8.71Z"/><path d="M101.67,65.09C112.54,61,110.49,51,110.38,50.58l.67-.16a13.58,13.58,0,0,1-9.14,15.34Z"/><path d="M74.73,48.77c0-7.06,5.77-10.87,5.85-10.92l.38.59c-.38.22-8.9,5.86-4.16,16.45l-.59.27A15.27,15.27,0,0,1,74.73,48.77Z"/><path d="M80.36,38.47l.38-.59a13.53,13.53,0,0,1,4.34,17.28l-.62-.27C89.24,44.32,80.71,38.66,80.36,38.47Z"/><path d="M50.1,52.87a12.83,12.83,0,0,1,.2-2.32l.67.14c-.08.43-2.13,10.41,8.71,14.56l-.24.62C51.26,62.77,50.1,56.35,50.1,52.87Z"/><path d="M50.4,50.44a13.53,13.53,0,0,1,15.32,9.12l-.62.27C61,49,51,51,50.56,51.12Z"/><path d="M37.86,80.92l.59-.41c.25.41,5.83,8.9,16.46,4.16l.27.64A13.63,13.63,0,0,1,37.86,80.92Z"/><path d="M37.86,80.76a13.57,13.57,0,0,1,17.32-4.37l-.3.64c-10.6-4.77-16.4,4-16.43,4.1Z"/><path d="M50.54,111.2l.16-.7c.43.11,10.41,2.16,14.54-8.71l.67.27A13.6,13.6,0,0,1,50.54,111.2Z"/><path d="M50.24,108.75c0-3.45,1.19-9.9,9.33-13l.27.65C49,100.52,51,110.5,51.13,110.93l-.7.16A13.74,13.74,0,0,1,50.24,108.75Z"/><path d="M80.55,123c.38-.21,8.85-5.85,4.13-16.42l.62-.3c5,11.17-4.26,17.26-4.37,17.31Z"/><path d="M74.92,112.71a15.37,15.37,0,0,1,1.48-6.39l.62.3c-4.75,10.62,3.75,16.21,4.1,16.42l-.35.59A13.76,13.76,0,0,1,74.92,112.71Z"/><path d="M101.8,96.23l.27-.61c11.44,4.36,9.14,15.18,9.12,15.31l-.68-.13C110.6,110.37,112.64,100.39,101.8,96.23Z"/><path d="M95.76,101.93l.62-.25c4.16,10.87,14.46,8.71,14.54,8.71l.16.68A13.58,13.58,0,0,1,95.76,101.93Z"/><path d="M110.57,74.9c6.28-.37,11.27-5.61,13.1-7.87l.54.46c-1.88,2.29-7.06,7.71-13.61,8.09Z"/><path d="M110.57,86.55l0-.67c7.76.43,13.48,7.87,14.07,8.74l-.54.4C123.54,94.19,118,87,110.57,86.55Z"/><path d="M97.68,55.51c4.39-4.93,4-12.56,3.72-14.77l.7-.09c.24,2.3.7,10.17-3.88,15.35Z"/><path d="M105.47,63.2c5.58-4.85,14.45-3.94,16.18-3.72l-.08.7c-1.67-.24-10.3-1.11-15.61,3.56Z"/><path d="M67.1,37.85l.43-.51c2.29,1.89,7.68,7,8.06,13.56l-.73,0C74.54,44.67,69.31,39.71,67.1,37.85Z"/><path d="M85.86,50.9c.44-7.55,7.39-13,8.8-14.07l.43.56c-1.38,1-8.12,6.31-8.52,13.54Z"/><path d="M40.61,60.05v-.71C44.36,59,51.32,59.13,56,63.28l-.49.51c-4.5-4-11.24-4-14.83-3.74Z"/><path d="M59.25,43.38a32.47,32.47,0,0,1,.19-3.54l.73.09C59.92,41.6,59,50.18,63.78,55.57l-.54.46C59.89,52.22,59.25,46.91,59.25,43.38Z"/><path d="M37.3,94c1.94-2.32,7-7.69,13.59-8.09l0,.7c-6.23.38-11.21,5.58-13,7.82Z"/><path d="M36.76,66.87l.54-.46c1.48,1.91,6.85,8.14,13.61,8.55l0,.67C44,75.26,38.72,69.35,36.76,66.87Z"/><path d="M59.3,118.19c0-3.59.62-9,3.94-12.7l.54.45c-4.1,4.67-3.89,11.92-3.67,14.84l-.73,0C59.36,120.15,59.3,119.24,59.3,118.19Z"/><path d="M39.83,102l.08-.7c1,.17,10.11,1.3,15.64-3.61l.49.51C50.38,103.25,41.53,102.25,39.83,102Z"/><path d="M85.92,110.64l.7,0c.35,6.26,5.61,11.25,7.87,13.13l-.45.54C91.72,122.34,86.27,117.16,85.92,110.64Z"/><path d="M66.48,124.12c.83-.59,8-6.12,8.46-13.51l.73,0c-.51,7.68-7.93,13.43-8.76,14Z"/><path d="M105.55,98.23l.46-.51c4.67,4.21,11.89,3.94,14.81,3.61v.7C117.88,102.33,110.43,102.66,105.55,98.23Z"/><path d="M97.71,105.94l.51-.45c5,5.52,4,14.45,3.8,16.2l-.7-.1C101.56,119.89,102.45,111.26,97.71,105.94Z"/><path d="M105.18,67.62a7.25,7.25,0,1,1,7.25,7.26A7.27,7.27,0,0,1,105.18,67.62Zm13.88,0a6.64,6.64,0,1,0-6.63,6.64A6.66,6.66,0,0,0,119.06,67.62Z"/><path d="M86.62,49.07a7.26,7.26,0,1,1,14.51,0,7.26,7.26,0,1,1-14.51,0Zm13.89,0a6.64,6.64,0,1,0-1.94,4.72A6.67,6.67,0,0,0,100.51,49.07Z"/><path d="M60.41,49.07a7.23,7.23,0,0,1,7.23-7.23A7.19,7.19,0,0,1,74.86,49a7.23,7.23,0,1,1-14.45,0Zm13.86,0a6.64,6.64,0,0,0-1.94-4.69,6.51,6.51,0,0,0-4.69-2,6.64,6.64,0,1,0,6.63,6.64Z"/><path d="M41.85,67.59a7.23,7.23,0,0,1,14.46,0,7.32,7.32,0,0,1-2.1,5.13,7.22,7.22,0,0,1-10.23,0A7.12,7.12,0,0,1,41.85,67.59Zm13.86,0a6.48,6.48,0,0,0-1.94-4.69,6.64,6.64,0,0,0-9.38,0,6.43,6.43,0,0,0-1.94,4.66,6.62,6.62,0,0,0,1.94,4.72,6.62,6.62,0,0,0,9.38,0A6.6,6.6,0,0,0,55.71,67.62Z"/><path d="M41.85,93.86v0a7.19,7.19,0,0,1,7.2-7.22,7.26,7.26,0,1,1-7.2,7.25Zm13.84,0a6.62,6.62,0,0,0-13.24,0h-.33l.33,0a6.62,6.62,0,0,0,13.24,0Z"/><path d="M60.38,112.42a7.08,7.08,0,0,1,2.13-5.13,7.19,7.19,0,0,1,5.1-2.1,7.17,7.17,0,0,1,7.25,7.23,7.24,7.24,0,0,1-14.48,0Zm13.86,0a6.62,6.62,0,1,0-13.24,0,6.57,6.57,0,0,0,1.94,4.69,6.61,6.61,0,0,0,11.3-4.69Z"/><path d="M86.62,112.44v0a7.22,7.22,0,1,1,2.13,5.12A7,7,0,0,1,86.62,112.44Zm13.86,0a6.63,6.63,0,0,0-6.61-6.64,6.72,6.72,0,0,0-4.69,1.92,6.57,6.57,0,0,0-1.94,4.69v0a6.68,6.68,0,0,0,6.63,6.64A6.67,6.67,0,0,0,100.48,112.42Z"/><path d="M105.18,93.89a7.34,7.34,0,0,1,2.12-5.15,7.26,7.26,0,0,1,12.38,5.15,7.17,7.17,0,0,1-2.13,5.1,7.26,7.26,0,0,1-5.15,2.13A7.16,7.16,0,0,1,107.3,99,7.33,7.33,0,0,1,105.18,93.89Zm13.88,0a6.53,6.53,0,0,0-2-4.72,6.66,6.66,0,0,0-9.36,0,6.54,6.54,0,0,0-1.94,4.72,6.4,6.4,0,0,0,1.94,4.66,6.6,6.6,0,0,0,4.67,2,6.53,6.53,0,0,0,4.72-2A6.36,6.36,0,0,0,119.06,93.89Z"/><path d="M101.83,43.06c.27-.06,6.47-1.65,11.25,2.07,3.56,2.73,5.36,7.61,5.36,14.48h-.59c0-6.68-1.73-11.4-5.12-14-4.56-3.54-10.66-2-10.74-2Z"/><path d="M69,39.2c.13-.22,3.39-5.75,9.38-6.53,4.45-.56,9.2,1.62,14,6.48l-.46.43c-4.72-4.75-9.25-6.85-13.51-6.29-5.71.76-8.92,6.18-8.92,6.23Z"/><path d="M42.72,56.16a12.41,12.41,0,0,1,2.42-7.74c2.75-3.56,7.61-5.36,14.48-5.36v.59c-6.68,0-11.38,1.75-14,5.15-3.53,4.56-2,10.65-1.94,10.73l-.62.14A18.63,18.63,0,0,1,42.72,56.16Z"/><path d="M32.66,81.65c0-4,2.18-8.26,6.52-12.6l.43.43c-4.23,4.21-6.36,8.31-6.36,12.17,0,.45,0,.88,0,1.32.76,5.71,6.18,9,6.23,9l-.29.54c-.24-.14-5.72-3.37-6.5-9.38A13.86,13.86,0,0,1,32.66,81.65Z"/><path d="M43.07,101.87h.62c0,6.69,1.72,11.38,5.12,14,4.59,3.53,10.65,2,10.73,2l.17.59c-.27.08-6.48,1.65-11.28-2.05C44.87,113.63,43.07,108.75,43.07,101.87Z"/><path d="M69.09,122.34l.43-.43c4.7,4.72,9.25,6.82,13.51,6.28,5.72-.75,8.9-6.17,9-6.23l.51.33c-.14.21-3.4,5.69-9.41,6.49C78.66,129.38,74,127.19,69.09,122.34Z"/><path d="M101.91,118.43v-.62q10,0,14-5.12c3.5-4.53,1.94-10.63,1.94-10.71l.59-.16c.06.27,1.65,6.44-2,11.24C113.67,116.62,108.81,118.43,101.91,118.43Z"/><polygon points="120.38 77.73 125.13 71.8 125.62 72.21 120.87 78.11 120.38 77.73"/><line x1="125.16" y1="88.79" x2="120.65" y2="83.13"/><polygon points="105.82 43.06 106.44 42.97 107.25 50.5 106.69 50.58 105.82 43.06"/><line x1="117.85" y1="55.03" x2="110.62" y2="54.22"/><polygon points="71.84 36.37 72.22 35.91 78.13 40.63 77.75 41.09 71.84 36.37"/><polygon points="82.93 40.63 88.64 36.13 88.99 36.58 83.3 41.09 82.93 40.63"/><polygon points="43.01 55.05 50.54 54.22 50.59 54.84 43.07 55.68 43.01 55.05"/><polygon points="53.94 50.82 54.77 43.59 55.39 43.67 54.53 50.9 53.94 50.82"/><polygon points="35.92 89.28 40.64 83.37 41.1 83.75 36.38 89.68 35.92 89.28"/><line x1="36.38" y1="72.67" x2="40.91" y2="78.33"/><polygon points="54.29 110.96 54.88 110.91 55.69 118.43 55.09 118.48 54.29 110.96"/><line x1="43.66" y1="106.43" x2="50.89" y2="107.24"/><polygon points="83.41 120.86 83.79 120.37 89.69 125.09 89.29 125.58 83.41 120.86"/><polygon points="72.52 124.87 78.21 120.37 78.56 120.83 72.89 125.36 72.52 124.87"/><polygon points="110.94 106.62 118.44 105.78 118.52 106.4 111.03 107.24 110.94 106.62"/><polygon points="106.14 117.78 106.98 110.56 107.6 110.64 106.77 117.86 106.14 117.78"/><path d="M123.4,86.72a8.72,8.72,0,0,0,3-6.1,1.23,1.23,0,0,0,0-.32,8.49,8.49,0,0,0-2.91-5.61l.35-.46a8.9,8.9,0,0,1,3.18,6,1.5,1.5,0,0,1,0,.35,9.23,9.23,0,0,1-3.16,6.53Z"/><path d="M106.63,45.7a9.22,9.22,0,0,1,6.5,2c1.72,1.59,2.64,4,2.64,7.12h-.62c0-3-.83-5.21-2.45-6.66a8.59,8.59,0,0,0-6-1.89Z"/><path d="M74.24,37.69a9.12,9.12,0,0,1,6-3.16c2.4-.13,4.69.92,6.91,3.13l-.43.43c-2.08-2.07-4.24-3.07-6.42-3a8.67,8.67,0,0,0-5.61,3Z"/><path d="M45.71,54.22a8.9,8.9,0,0,1,2-5.83c1.59-1.75,4-2.67,7.15-2.67v.63c-3,0-5.23.8-6.69,2.45a8.5,8.5,0,0,0-1.86,6l-.59.08C45.74,54.87,45.71,54.6,45.71,54.22Z"/><path d="M34.54,80.84a9.27,9.27,0,0,1,3.16-6.53l.43.43a8.72,8.72,0,0,0-3,6.1,1.09,1.09,0,0,0,0,.32,8.56,8.56,0,0,0,2.94,5.61l-.41.48a9.34,9.34,0,0,1-3.16-6.06Z"/><path d="M45.79,106.65h.57c0,3,.83,5.17,2.45,6.66a8.83,8.83,0,0,0,6.07,1.89l0,.59a9.05,9.05,0,0,1-6.5-2.05C46.65,112.17,45.79,109.77,45.79,106.65Z"/><path d="M74.35,123.82l.43-.43c2.08,2.08,4.24,3.08,6.42,2.94a8.63,8.63,0,0,0,5.58-2.94l.49.41a9.17,9.17,0,0,1-6,3.15C78.88,127.09,76.54,126,74.35,123.82Z"/><path d="M106.69,115.14c2.93,0,5.17-.86,6.63-2.48a8.83,8.83,0,0,0,1.88-6l.63-.05a9.49,9.49,0,0,1-2,6.52c-1.59,1.73-4,2.64-7.09,2.64Z"/><path d="M121.92,92c4.72-4.72,6.88-9.33,6.28-13.51-.75-5.69-6.17-8.93-6.22-8.95l.35-.51c.18.1,5.69,3.37,6.47,9.35.59,4.45-1.57,9.17-6.42,14.05Z"/><path d="M128.2,77.76c7.21-6.58,11.41-2.8,14.81.22l.3.29A8.52,8.52,0,0,0,147,80.11l-.13.59a8.51,8.51,0,0,1-3.94-2l-.35-.29c-3.34-3-7.15-6.48-14-.22Z"/><path d="M127.94,83.21l.43-.43c7,6.47,10.81,3,14.21,0l.35-.3a7.33,7.33,0,0,1,4-1.81l.06.62a6.37,6.37,0,0,0-3.64,1.65l-.3.29C139.59,86.26,135.33,90.12,127.94,83.21Z"/><path d="M105.23,67.24c2-2.26,4.29-1.42,6.12-.75l.22.11a4.46,4.46,0,0,0,2.83-.08l.11,0a4.24,4.24,0,0,0,1.26-.49l.08,0h.06a1.37,1.37,0,0,0,.37-.22l.41.44a2.33,2.33,0,0,1-.57.37l-.13,0a5.85,5.85,0,0,1-1.27.51l-.11.06a5.85,5.85,0,0,1-3.26,0l-.24-.11c-1.78-.7-3.67-1.35-5.42.54Z"/><path d="M107.79,73.07v-.62c2.43,0,3.29-1.7,4.15-3.37l.11-.3a6,6,0,0,1,2.29-2.24l.06-.05h.11a7.88,7.88,0,0,1,1.21-.49l.19,0a1.72,1.72,0,0,1,.62-.13v.62a1.1,1.1,0,0,0-.41.1l-.21.06a5.32,5.32,0,0,0-1.11.48l-.08.06h-.11a4.41,4.41,0,0,0-2,1.94l-.14.24C111.62,71,110.57,73.15,107.79,73.07Z"/><path d="M88.53,53.6c0-2.78,2.08-3.75,3.78-4.56l.24-.08a4.86,4.86,0,0,0,2-2.08l.08-.1a4.55,4.55,0,0,0,.49-1.22l.08-.13a1.33,1.33,0,0,0,.08-.41h.59a2.63,2.63,0,0,1-.1.68l-.06.08a7.17,7.17,0,0,1-.54,1.29l0,.08A5.46,5.46,0,0,1,92.8,49.5l-.25.11c-1.67.78-3.42,1.59-3.42,4a.58.58,0,0,0,0,.24l-.63,0Z"/><path d="M94.06,55.76c1.73-1.65,1.08-3.54.49-5.32l-.11-.29a5.52,5.52,0,0,1,0-3.18l.11-.19A4.51,4.51,0,0,1,95,45.67l.14-.24a1.66,1.66,0,0,1,.38-.54l.4.43a1.12,1.12,0,0,0-.21.38l-.17.24a3.69,3.69,0,0,0-.4,1.08l0,.08,0,0A4.94,4.94,0,0,0,95,50l.11.27c.6,1.8,1.3,4-.67,5.93Z"/><path d="M65.77,45.21l.46-.4a1.79,1.79,0,0,1,.33.56l0,.14a4.87,4.87,0,0,1,.57,1.27v.1a4.92,4.92,0,0,1,0,3.24l-.08.24c-.65,1.84-1.35,3.67.56,5.45l-.4.46C65,54.22,65.88,52,66.53,50.15l.08-.22a4.52,4.52,0,0,0,0-2.86l0-.19A6.16,6.16,0,0,0,66,45.7l-.06,0v-.11A1,1,0,0,0,65.77,45.21Z"/><path d="M65.88,45l.57,0a1,1,0,0,0,.11.43l.08.3a5.7,5.7,0,0,0,.46,1l.05.06v.1a5.18,5.18,0,0,0,1.94,2l.22.08c1.7.86,3.77,1.89,3.77,4.58v.11h-.62v-.11c0-2.34-1.7-3.18-3.4-4l-.24-.08a5.56,5.56,0,0,1-2.24-2.3l0-.21a5.36,5.36,0,0,1-.46-1.11L66,45.56A2.37,2.37,0,0,1,65.88,45Z"/><path d="M45,66.25l0-.62a2.25,2.25,0,0,1,.68.16l.08,0a5.78,5.78,0,0,1,1.29.54l.14.08a5.82,5.82,0,0,1,2.32,2.23l0,.19c.78,1.78,1.62,3.62,4.26,3.48l.06.62c-3.08.14-4.08-2.07-4.89-3.85L49,69a4.42,4.42,0,0,0-2.07-2l-.11-.11a7.18,7.18,0,0,0-1.19-.49h-.08l-.08,0A1.21,1.21,0,0,0,45,66.25Z"/><path d="M44.9,66l.46-.43a1.09,1.09,0,0,0,.38.27l.24.13a6.15,6.15,0,0,0,1.05.44h.14l.08.08a4.5,4.5,0,0,0,2.72,0l.27-.08c1.81-.59,4-1.34,6,.65l-.43.4c-1.65-1.7-3.51-1.07-5.34-.48l-.27.11A5.62,5.62,0,0,1,47,67l-.16-.11a2.93,2.93,0,0,1-1.08-.43l-.3-.13A1.49,1.49,0,0,1,44.9,66Z"/><path d="M44.82,95.29a2.57,2.57,0,0,1,.59-.38h.08a8.53,8.53,0,0,1,1.33-.53l.08,0a5.57,5.57,0,0,1,3.23-.06l.22.09c1.8.69,3.69,1.37,5.5-.55l.43.38c-2.05,2.27-4.34,1.43-6.15.73l-.19-.08a5,5,0,0,0-2.86.08L47,95a7,7,0,0,0-1.24.48l-.16.06a3.29,3.29,0,0,0-.35.21Z"/><path d="M45,95.64V95a1,1,0,0,0,.43-.11l.19,0a5.49,5.49,0,0,0,1.16-.51l.06,0h.08a4.66,4.66,0,0,0,2-1.92l.13-.27c.84-1.7,1.89-3.83,4.67-3.75l0,.63c-2.4-.08-3.26,1.69-4.1,3.39l-.1.25a5.7,5.7,0,0,1-2.32,2.23l-.09.06H47a6,6,0,0,1-1.21.48l-.19.06A2,2,0,0,1,45,95.64Z"/><path d="M65.64,116.44a2.25,2.25,0,0,1,.19-.65l0-.11a6,6,0,0,1,.52-1.29l.13-.17A5.3,5.3,0,0,1,68.71,112l.22-.1c1.73-.79,3.5-1.57,3.5-4a.86.86,0,0,0,0-.22l.59,0v.24c0,2.86-2.13,3.81-3.83,4.61l-.19.08a4.68,4.68,0,0,0-2,2.08l-.06.08a5.38,5.38,0,0,0-.48,1.21l-.08.11a4,4,0,0,0-.11.46Z"/><path d="M65.56,116.16a1.72,1.72,0,0,0,.27-.37l0-.11a5.31,5.31,0,0,0,.52-1.24v-.08l.08-.11a4.52,4.52,0,0,0,0-2.75l0-.22c-.62-1.8-1.43-4,.59-6l.46.43c-1.78,1.67-1.1,3.56-.51,5.36l.11.22a5.61,5.61,0,0,1-.06,3.18l0,.14-.1.05a5.65,5.65,0,0,1-.49,1.3l0,0a5.06,5.06,0,0,1-.38.57Z"/><path d="M93.87,105.65l.38-.43c2.24,2,1.43,4.34.73,6.15l-.08.16a4.77,4.77,0,0,0,.08,2.86v.16a8,8,0,0,0,.49,1.18l.08.16a1.17,1.17,0,0,0,.24.38l-.49.41a4.33,4.33,0,0,1-.35-.62V116a5.91,5.91,0,0,1-.56-1.29v-.19a5.17,5.17,0,0,1-.06-3.18l.08-.19C95.09,109.32,95.82,107.45,93.87,105.65Z"/><path d="M88.43,107.94v-.13h.62v.13c0,2.29,1.75,3.15,3.42,4l.25.08A5.88,5.88,0,0,1,95,114.3l0,.09v.13a4.32,4.32,0,0,1,.51,1.21l.06.16a2.07,2.07,0,0,1,.13.65l-.62,0h0a1.22,1.22,0,0,0-.11-.46l0-.14a3.94,3.94,0,0,0-.52-1.16l0-.05v-.16a5.11,5.11,0,0,0-1.92-2l-.27-.11C90.53,111.64,88.43,110.61,88.43,107.94Z"/><path d="M107.63,88.5c3-.14,4,2.07,4.85,3.82l.08.17a4.35,4.35,0,0,0,2,2l.06.06a5.29,5.29,0,0,0,1.24.53l.16.09.4.08v.62a1.79,1.79,0,0,1-.67-.16l-.08,0a8.78,8.78,0,0,1-1.32-.54l-.06-.06A5.64,5.64,0,0,1,112,92.76l-.08-.19c-.81-1.76-1.65-3.59-4.27-3.45Z"/><path d="M105.31,94.43l.43-.4c1.67,1.72,3.53,1.1,5.34.48l.27-.08a5.46,5.46,0,0,1,3.18,0l.08,0,.06.06a4.2,4.2,0,0,1,1.24.53l.16.09a2.47,2.47,0,0,1,.54.35l-.43.43.21-.24-.21.24a2.09,2.09,0,0,0-.38-.24l-.16-.08a3.15,3.15,0,0,0-1.13-.46l-.11,0-.06-.06a4.52,4.52,0,0,0-2.77-.08l-.3.11C109.46,95.7,107.22,96.45,105.31,94.43Z"/><path d="M101.83,43.06c.27-.06,6.47-1.65,11.25,2.07,3.56,2.73,5.36,7.61,5.36,14.48h-.59c0-6.68-1.73-11.4-5.12-14-4.56-3.54-10.66-2-10.74-2Z"/><path d="M112.19,45.08c.45-9.71,6.09-10,10.65-10.25l.43,0a8.44,8.44,0,0,0,3.86-1.37l.29.54a8.42,8.42,0,0,1-4.12,1.4l-.43.05c-4.54.25-9.66.51-10.06,9.71Z"/><path d="M115.8,49.15v-.62h.11c9.46-.32,9.76-5.5,10-10.06l0-.43a8.22,8.22,0,0,1,1.43-4.18l.51.38a7.82,7.82,0,0,0-1.35,3.83v.43c-.27,4.37-.59,10.3-10.62,10.65Z"/><path d="M69,39.2c.13-.22,3.39-5.75,9.38-6.53,4.45-.56,9.2,1.62,14,6.48l-.46.43c-4.72-4.75-9.25-6.85-13.51-6.29-5.71.76-8.92,6.18-8.92,6.23Z"/><path d="M74.16,25.9c0-3,2.08-5.36,3.91-7.39l.3-.32a8,8,0,0,0,1.7-3.69l.62.13a8.57,8.57,0,0,1-1.89,3.94l-.3.35c-3,3.4-6.44,7.17-.29,14l-.46.4C75.13,30.41,74.16,28,74.16,25.9Z"/><path d="M80.61,14.63l.21,0v-.35h.32l.06.25a8.21,8.21,0,0,0,1.67,3.69l.35.35c2.91,3.26,6.9,7.69,0,15l-.49-.4c6.53-6.93,3.08-10.82,0-14.19l-.32-.38A8.49,8.49,0,0,1,80.61,14.63Z"/><path d="M42.72,56.16a12.41,12.41,0,0,1,2.42-7.74c2.75-3.56,7.61-5.36,14.48-5.36v.59c-6.68,0-11.38,1.75-14,5.15-3.53,4.56-2,10.65-1.94,10.73l-.62.14A18.63,18.63,0,0,1,42.72,56.16Z"/><path d="M33.44,34.4l.49-.35a8.25,8.25,0,0,1,1.48,4.15l0,.43c.21,4.53.51,9.68,9.68,10.09h.08v.59h-.11c-9.71-.4-10.06-6.07-10.28-10.65l0-.43A7.73,7.73,0,0,0,33.44,34.4Z"/><path d="M33.87,34.13l.35-.51a7.41,7.41,0,0,0,3.83,1.32l.43.05c4.35.24,10.3.54,10.63,10.63l-.6,0c-.32-9.52-5.5-9.79-10.08-10.06H38A8.17,8.17,0,0,1,33.87,34.13Z"/><path d="M32.66,81.65c0-4,2.18-8.26,6.52-12.6l.43.43c-4.23,4.21-6.36,8.31-6.36,12.17,0,.45,0,.88,0,1.32.76,5.71,6.18,9,6.23,9l-.29.54c-.24-.14-5.72-3.37-6.5-9.38A13.86,13.86,0,0,1,32.66,81.65Z"/><path d="M14.51,81.4l.11-.59a9,9,0,0,1,4,1.86l.32.3c3.37,3,7.2,6.5,14.08.35l.38.43c-7.26,6.53-11.49,2.72-14.86-.32l-.32-.25A8.08,8.08,0,0,0,14.51,81.4Z"/><path d="M14.51,80.38a7.69,7.69,0,0,0,3.67-1.84l.43-.37c3.23-2.86,7.63-6.74,15,.13l-.38.41c-7-6.45-10.84-3.1-14.21-.11l-.46.38a8,8,0,0,1-4,2Z"/><path d="M43.07,101.87h.62c0,6.69,1.72,11.38,5.12,14,4.59,3.53,10.65,2,10.73,2l.17.59c-.27.08-6.48,1.65-11.28-2.05C44.87,113.63,43.07,108.75,43.07,101.87Z"/><path d="M34.06,127.57a7.36,7.36,0,0,1,4.13-1.43l.45,0c4.51-.24,9.66-.51,10.14-9.71v0h.62v0c-.53,9.76-6.2,10.06-10.7,10.3l-.46,0a7.49,7.49,0,0,0-3.86,1.35Z"/><path d="M33.63,127.28a7.52,7.52,0,0,0,1.4-3.83v-.27c.19-4.43.43-10.47,10.65-10.79l0,.59c-9.68.33-9.87,5.8-10.06,10.2v.29a8.37,8.37,0,0,1-1.54,4.18Z"/><path d="M69.09,122.34l.43-.43c4.7,4.72,9.25,6.82,13.51,6.28,5.72-.75,8.9-6.17,9-6.23l.51.33c-.14.21-3.4,5.69-9.41,6.49C78.66,129.38,74,127.19,69.09,122.34Z"/><path d="M80.88,146.88a7.6,7.6,0,0,1,1.88-4l.38-.41c2.94-3.37,6.34-7.22.16-14l.46-.4c6.53,7.15,2.81,11.41-.19,14.8l-.32.38A6.87,6.87,0,0,0,81.5,147l0,.27h-.35v-.32Z"/><path d="M74.48,135.61c0-2.19,1-4.69,3.78-7.74l.46.43c-6.5,7.07-3,10.9.08,14.32l.24.3a8.48,8.48,0,0,1,2,4l-.59.16a8.24,8.24,0,0,0-1.84-3.69l-.27-.32C76.62,141.08,74.48,138.76,74.48,135.61Z"/><path d="M101.91,118.43v-.62q10,0,14-5.12c3.5-4.53,1.94-10.63,1.94-10.71l.59-.16c.06.27,1.65,6.44-2,11.24C113.67,116.62,108.81,118.43,101.91,118.43Z"/><path d="M116.42,112.71v-.62h0c1.25.11,2.32.3,3.24.46h.08c6.53,1.59,6.74,6.53,6.93,10.49v.24a8.13,8.13,0,0,0,1.35,3.86l-.54.32a9.33,9.33,0,0,1-1.43-4.15v-.24c-.16-4-.38-8.42-6.39-9.93h0c-1-.13-2-.32-3.19-.43Z"/><path d="M112.35,115.81H113c.24,7.82,3.88,9.39,7.39,9.87,1,.09,2.13.17,3.1.17a8.29,8.29,0,0,1,4.18,1.53l-.35.49a7.88,7.88,0,0,0-3.83-1.4c-1,0-2.13-.09-3.18-.19C116.74,125.79,112.64,124.15,112.35,115.81Z"/><path d="M14.27,81.11v-.43A65.5,65.5,0,0,1,33.44,34.05a.88.88,0,0,1,.32-.32s.06,0,.09-.06A65.81,65.81,0,0,1,80.39,14.25h.54a66.11,66.11,0,0,1,46.55,19.23.1.1,0,0,0,.08.05,3.4,3.4,0,0,1,.32.33,65.72,65.72,0,0,1,19.36,46.57v.51A66.22,66.22,0,0,1,128,127.52a3,3,0,0,1-.25.24l-.11.08a66,66,0,0,1-46.49,19.42h-.43A66.27,66.27,0,0,1,34,128c-.06,0-.16-.19-.25-.27l-.08-.08A65.82,65.82,0,0,1,14.27,81.11Zm132.35-.68a65,65,0,0,0-19.2-46.17l-.08,0c0-.08,0-.11-.13-.19a.42.42,0,0,1-.16-.11,65.44,65.44,0,0,0-46.12-19h-.54A65.26,65.26,0,0,0,34.25,34.1a.57.57,0,0,1-.14.11s-.13.08-.16.13l-.05.11A65,65,0,0,0,14.83,80.68v.43a65.62,65.62,0,0,0,19.23,46.14l.11.11a.68.68,0,0,1,.24.24,65.78,65.78,0,0,0,46.33,19h.43a65.55,65.55,0,0,0,46.09-19.23l.08-.11a1.71,1.71,0,0,0,.24-.21,65.47,65.47,0,0,0,19-46.15Z"/><path d="M116.8,51.74l.35-.46c10.73,8,24.57,3.83,24.7,3.77l.16.57C141.88,55.68,127.77,60,116.8,51.74Z"/><path d="M127.5,76c1.54-13.49,14.16-20.93,14.3-21l.29.51c-.1.08-12.46,7.36-14,20.55Z"/><path d="M85.68,34.18C99,32.27,105.74,19.54,105.79,19.4l.54.27c0,.11-7,13.16-20.6,15.1Z"/><path d="M104.93,27a33,33,0,0,1,.81-7.58l.59.19c0,.11-3.64,14,4.64,24.38l-.48.35C106,38.66,104.93,32,104.93,27Z"/><path d="M51.29,44.32c8.07-10.68,3.83-24.54,3.8-24.67l.57-.17c.05.11,4.34,14.25-3.88,25.22Z"/><path d="M55,19.7l.54-.3c.05.14,7.34,12.46,20.52,14l0,.6C62.56,32.43,55.12,19.83,55,19.7Z"/><path d="M19.42,55.68l.29-.54c.11.08,13.16,7,15.08,20.6l-.59.08C32.28,62.55,19.58,55.76,19.42,55.68Z"/><path d="M19.44,55.76l.16-.6c.14,0,14,3.62,24.38-4.61l.35.49C33.73,59.48,19.58,55.78,19.44,55.76Z"/><path d="M19.47,105.84c.16-.06,14.32-4.37,25.24,3.88l-.38.49c-10.65-8-24.54-3.84-24.64-3.81Z"/><path d="M19.44,105.89c.14,0,12.44-7.34,14-20.52l.62.08c-1.57,13.51-14.16,20.9-14.27,21Z"/><path d="M55.18,141.81c.08-.13,7-13.19,20.57-15.1l.11.59C62.59,129.19,55.8,142,55.71,142.08Z"/><path d="M50.56,117.51l.49-.37c8.41,10.62,4.77,24.78,4.75,24.91l-.62-.13C55.23,141.76,58.84,127.9,50.56,117.51Z"/><path d="M104.69,133.07a26.74,26.74,0,0,1,5-16.28l.49.35c-8,10.7-3.83,24.56-3.78,24.7l-.59.16A33.28,33.28,0,0,1,104.69,133.07Z"/><path d="M85.46,128.11l0-.62c13.51,1.54,20.9,14.13,21,14.29l-.48.27C105.85,141.92,98.62,129.59,85.46,128.11Z"/><path d="M126.78,85.72l.56-.08c1.86,13.27,14.65,20.06,14.78,20.14l-.27.54C141.69,106.27,128.66,99.31,126.78,85.72Z"/><path d="M117.17,110.45c10.63-8.44,24.79-4.78,24.9-4.75l-.14.62c-.13,0-14-3.64-24.38,4.61Z"/><path d="M133.38,62.69c3.48-.65,6.69.67,7.82,3.21,1.35,3.13-.7,7-4.58,8.87h-.19v-.41h.08c3.64-1.8,5.5-5.41,4.29-8.25-1-2.37-4.05-3.59-7.34-3Z"/><path d="M132.17,64.92v-.43c2.53.17,4.45,1.24,5.26,3,.94,2.27,0,5-2.48,7.15l-.27-.32c2.34-2,3.23-4.59,2.37-6.64C136.29,66.06,134.49,65.06,132.17,64.92Z"/><path d="M135.73,60.45V60h.08a7.75,7.75,0,0,1,8.47,4.55,7.41,7.41,0,0,1,.13,5.91,7.54,7.54,0,0,1-4.1,4.21,10.64,10.64,0,0,1-1.94.57l-.08-.41a13.77,13.77,0,0,0,1.83-.54,7.22,7.22,0,0,0,3.89-4,7.1,7.1,0,0,0-.11-5.61,7.39,7.39,0,0,0-8.06-4.26Z"/><path d="M105.26,30.76c2-2.91,5.17-4.24,7.76-3.24,3.13,1.27,4.42,5.42,3,9.47l0,0-.1.08,0,0-.35-.27.08-.08c1.3-3.83.11-7.71-2.8-8.87-2.37-.95-5.39.35-7.28,3.1Z"/><path d="M105.61,32.92c1.91-1.73,4-2.3,5.9-1.6,2.08.84,3.32,3.13,3.32,6a6.61,6.61,0,0,1,0,.76l-.46,0a6.11,6.11,0,0,0,0-.73c0-2.72-1.13-4.82-3.05-5.63-1.67-.62-3.64-.08-5.42,1.48Z"/><line x1="107.03" y1="37.58" x2="106.98" y2="37.55"/><path d="M105,27.22l.06,0a7.78,7.78,0,0,1,13.51,1.26,7.87,7.87,0,0,1,0,5.88,12.71,12.71,0,0,1-1,1.78l-.35-.24a11.41,11.41,0,0,0,.89-1.67,7.21,7.21,0,0,0-4.07-9.44,7.39,7.39,0,0,0-8.74,2.7l0,.05Z"/><path d="M62.59,26.31c0-2.73,1.24-5.07,3.35-6,3.1-1.32,7,.68,8.84,4.59l0,.08V25l-.43.06V25c-1.78-3.64-5.4-5.53-8.26-4.31-2.37,1-3.58,4-2.93,7.31l-.46.1A12.34,12.34,0,0,1,62.59,26.31Z"/><path d="M64.51,29.36c.13-2.59,1.26-4.48,3-5.29,2.24-1,5,0,7.12,2.48l-.29.27c-2-2.32-4.59-3.24-6.64-2.35-1.67.73-2.67,2.51-2.8,4.91Z"/><line x1="68.82" y1="31.65" x2="68.77" y2="31.62"/><path d="M59.92,24.34a7.82,7.82,0,0,1,4.67-7.15,7.64,7.64,0,0,1,5.9-.11,7.46,7.46,0,0,1,4.24,4.13,9.13,9.13,0,0,1,.54,1.89l-.41.08a9.22,9.22,0,0,0-.54-1.81,7.21,7.21,0,0,0-9.54-3.77,7.38,7.38,0,0,0-4.4,6.77,9.33,9.33,0,0,0,.11,1.26v.11h-.43v0A7.12,7.12,0,0,1,59.92,24.34Z"/><path d="M27.21,50.28a5.47,5.47,0,0,1,.32-1.83c1.27-3.1,5.4-4.42,9.5-3l.08,0,0,.08-.27.32-.08,0C33,44.54,29.1,45.72,28,48.61c-1,2.45.32,5.39,3.07,7.28l-.27.35A7.48,7.48,0,0,1,27.21,50.28Z"/><path d="M31.07,51.6A4.18,4.18,0,0,1,31.36,50c.92-2.26,3.51-3.53,6.8-3.31l0,.43c-3.1-.22-5.53,1-6.39,3-.62,1.67-.08,3.69,1.54,5.42l-.35.32A6.46,6.46,0,0,1,31.07,51.6Z"/><line x1="37.62" y1="54.44" x2="37.56" y2="54.49"/><path d="M23.89,50a7.89,7.89,0,0,1,.52-2.81A7.51,7.51,0,0,1,28.48,43a7.58,7.58,0,0,1,5.93,0,12.45,12.45,0,0,1,1.73.92l-.22.37a10,10,0,0,0-1.67-.91,7.25,7.25,0,0,0-9.44,4.07,7.34,7.34,0,0,0,2.67,8.76l.05,0-.24.38-.05,0A7.82,7.82,0,0,1,23.89,50Z"/><path d="M19.9,93.54c0-2.62,1.92-5.37,5-6.82h.19l.11.37-.14.06c-3.63,1.78-5.55,5.34-4.28,8.22,1,2.38,4,3.59,7.28,3l.11.43c-3.51.67-6.72-.67-7.82-3.21A5.32,5.32,0,0,1,19.9,93.54Z"/><path d="M23.73,92.14a7.37,7.37,0,0,1,2.83-5.32l.27.33c-2.26,2-3.23,4.58-2.32,6.63.71,1.65,2.48,2.62,4.88,2.75V97c-2.61-.16-4.47-1.24-5.31-3A5.19,5.19,0,0,1,23.73,92.14Z"/><path d="M16.56,93.78A8,8,0,0,1,17.1,91a7.65,7.65,0,0,1,4.15-4.21,13.16,13.16,0,0,1,1.89-.57l.11.44a10.81,10.81,0,0,0-1.86.53,7,7,0,0,0-3.86,4,7.23,7.23,0,0,0,.08,5.61A7.51,7.51,0,0,0,25.67,101l.06,0,.08.43h-.06a7.81,7.81,0,0,1-8.52-4.56A7.18,7.18,0,0,1,16.56,93.78Z"/><path d="M44.9,127.76a9.91,9.91,0,0,1,.57-3.26l0-.06.11-.08.14.11.21.08-.11.14c-1.29,3.83-.05,7.71,2.81,8.84,2.4.95,5.37-.32,7.28-3l.35.21c-2,2.94-5.18,4.26-7.77,3.26C46.25,133.05,44.9,130.59,44.9,127.76Z"/><path d="M46.71,124.07a5.62,5.62,0,0,1,0-.7l.43,0a5.39,5.39,0,0,0,0,.68c0,2.75,1.13,4.88,3,5.66,1.67.67,3.64.13,5.42-1.48l.29.29c-1.94,1.73-4,2.32-5.88,1.6C48,129.3,46.71,127,46.71,124.07Z"/><path d="M42.39,130a7.12,7.12,0,0,1,.57-2.88,10.3,10.3,0,0,1,.94-1.73l.33.24a9.38,9.38,0,0,0-.87,1.65,7,7,0,0,0,0,5.58,7.18,7.18,0,0,0,4,3.89,7.35,7.35,0,0,0,8.72-2.7l0-.06.38.3,0,0a7.85,7.85,0,0,1-9.25,2.8A7.33,7.33,0,0,1,43,133,6.79,6.79,0,0,1,42.39,130Z"/><path d="M86.73,136.45l.43-.08v.1c1.78,3.64,5.39,5.53,8.23,4.32,2.4-1.06,3.61-4.07,3-7.34l.4-.08a8,8,0,0,1,.19,1.78,6.37,6.37,0,0,1-3.4,6c-3.1,1.29-6.95-.7-8.81-4.58l0-.11Z"/><path d="M86.84,134.93l.32-.29c2,2.32,4.64,3.23,6.63,2.37,1.62-.75,2.65-2.53,2.78-4.91l.43,0c-.1,2.56-1.21,4.48-3,5.26C91.74,138.36,89,137.41,86.84,134.93Z"/><line x1="92.69" y1="129.84" x2="92.77" y2="129.86"/><path d="M86.24,138.39l.43-.11a8.26,8.26,0,0,0,.54,1.83,7.21,7.21,0,0,0,9.55,3.78,7.44,7.44,0,0,0,4.42-6.77,5.5,5.5,0,0,0-.16-1.3v-.1h.46v.05a7.86,7.86,0,0,1-4.56,8.5,7.38,7.38,0,0,1-5.9.13,7.7,7.7,0,0,1-4.21-4.12A12.13,12.13,0,0,1,86.24,138.39Z"/><path d="M124.38,115.87l0,0,.22-.27.08.08c3.83,1.27,7.71.08,8.87-2.83,1-2.34-.3-5.37-3.07-7.25l.21-.35c3,2,4.26,5.23,3.24,7.79-1.22,3.1-5.4,4.45-9.44,3h-.08Z"/><path d="M123.38,114.76l0-.43c3.11.19,5.56-1,6.37-3,.65-1.67.13-3.61-1.51-5.42l.35-.32c1.7,1.91,2.26,4,1.56,5.9C129.28,113.71,126.7,115,123.38,114.76Z"/><line x1="123.92" y1="107.02" x2="123.97" y2="106.97"/><path d="M125.37,117.59l.27-.35a7.87,7.87,0,0,0,1.67.89,6.91,6.91,0,0,0,5.53,0,7.13,7.13,0,0,0,3.89-4,7.44,7.44,0,0,0-2.67-8.77l-.09,0,.33-.35,0,0a7.86,7.86,0,0,1,2.8,9.22,7.61,7.61,0,0,1-4.1,4.29,7.73,7.73,0,0,1-5.9,0A8.47,8.47,0,0,1,125.37,117.59Z"/><path d="M118.09,81.78a1,1,0,1,1,0-2,1,1,0,0,1,0,2Z"/><path d="M107.87,55.08a1,1,0,0,1-1.43,0,1,1,0,0,1,0-1.43,1,1,0,0,1,1.43,0A1,1,0,0,1,107.87,55.08Z"/><path d="M81.79,43.43a1,1,0,0,1-1,1,1,1,0,0,1-1-1,1,1,0,0,1,1-1A1,1,0,0,1,81.79,43.43Z"/><path d="M55.09,53.63a1,1,0,0,1,0,1.4.92.92,0,0,1-1.4,0,1,1,0,0,1,0-1.4A1,1,0,0,1,55.09,53.63Z"/><path d="M43.47,79.7a1,1,0,0,1,1,1,1,1,0,0,1-1,1,1,1,0,0,1-1-1A1,1,0,0,1,43.47,79.7Z"/><path d="M53.64,106.37a1,1,0,0,1,1.43,0,1,1,0,0,1,0,1.41,1,1,0,0,1-1.43-1.44Z"/><path d="M79.74,118a1,1,0,0,1,1-1,1,1,0,0,1,1,1,1,1,0,0,1-1,1A1,1,0,0,1,79.74,118Z"/><path d="M106.41,107.83a1,1,0,0,1,0-1.4,1,1,0,0,1,1.41,0,.89.89,0,0,1,0,1.4A1,1,0,0,1,106.41,107.83Z"/><path d="M115.37,96.29c-.84-.35-1.32-1.13-1.08-1.67s1.16-.65,2-.24,1.3,1.13,1.08,1.67S116.23,96.72,115.37,96.29Z"/><path d="M116.28,67.27c-.91.3-1.77.11-2-.43s.35-1.27,1.21-1.59,1.76-.11,2,.43S117.15,66.92,116.28,67.27Z"/><path d="M96.35,46.1c-.4.84-1.16,1.32-1.69,1.08s-.68-1.13-.27-2,1.13-1.32,1.67-1.08S96.76,45.27,96.35,46.1Z"/><path d="M67.31,45.21c.3.89.11,1.78-.46,2s-1.26-.35-1.56-1.19-.14-1.75.43-1.94S67,44.38,67.31,45.21Z"/><path d="M46.14,65.17c.84.38,1.29,1.16,1,1.7s-1.1.62-1.94.24S43.9,66,44.17,65.41,45.28,64.76,46.14,65.17Z"/><path d="M45.25,94.19c.89-.3,1.75-.11,1.94.45S46.9,95.91,46,96.23s-1.73.11-1.94-.43S44.39,94.54,45.25,94.19Z"/><path d="M65.18,115.36c.41-.84,1.16-1.3,1.7-1.08s.65,1.13.27,2-1.16,1.32-1.7,1.08S64.8,116.22,65.18,115.36Z"/><path d="M94.23,116.22c-.3-.86-.11-1.73.48-1.94s1.24.35,1.54,1.18.13,1.78-.43,2S94.55,117.11,94.23,116.22Z"/></g></svg>