<svg xmlns="http://www.w3.org/2000/svg" xmlns:xlink="http://www.w3.org/1999/xlink" viewBox="0 0 200 200"><defs><style>.cls-1{isolation:isolate;}.cls-2{fill:#cc2121;}.cls-3{fill:#ffed4a;}.cls-4,.cls-5,.cls-6{mix-blend-mode:color-burn;}.cls-4{fill:url(#radial-gradient);}.cls-5{fill:url(#radial-gradient-2);}.cls-6{fill:url(#radial-gradient-3);}</style><radialGradient id="radial-gradient" cx="100" cy="100" r="100" gradientTransform="translate(-23.87 31.76) rotate(-16.15)" gradientUnits="userSpaceOnUse"><stop offset="0" stop-color="#fff"/><stop offset="1" stop-color="#333"/></radialGradient><radialGradient id="radial-gradient-2" cx="100" cy="100" r="65.04" xlink:href="#radial-gradient"/><radialGradient id="radial-gradient-3" cx="100" cy="100" r="30.08" xlink:href="#radial-gradient"/></defs><title>circle-motif-02</title><g class="cls-1"><g id="Layer_2" data-name="Layer 2"><circle class="cls-2" cx="100" cy="100" r="93.32"/><path class="cls-3" d="M100,13.33A86.67,86.67,0,1,1,13.33,100,86.77,86.77,0,0,1,100,13.33M100,0A100,100,0,1,0,200,100,100,100,0,0,0,100,0Z"/><circle class="cls-4" cx="100" cy="100" r="99.97"/><circle class="cls-2" cx="100" cy="100" r="60.7"/><path class="cls-3" d="M100,43.63A56.37,56.37,0,1,1,43.63,100,56.44,56.44,0,0,1,100,43.63M100,35a65,65,0,1,0,65,65,65,65,0,0,0-65-65Z"/><circle class="cls-5" cx="100" cy="100" r="65.02"/><circle class="cls-2" cx="100" cy="100" r="28.07"/><path class="cls-3" d="M100,73.93A26.07,26.07,0,1,1,73.93,100,26.09,26.09,0,0,1,100,73.93m0-4A30.07,30.07,0,1,0,130.07,100,30.07,30.07,0,0,0,100,69.93Z"/><circle class="cls-6" cx="100" cy="100" r="30.07"/></g></g></svg>