<svg xmlns="http://www.w3.org/2000/svg" viewBox="0 0 161.51 161.51"><title>circle-07</title><g id="Objects_path-filder"><path d="M98.45,78.14a.9.9,0,0,1,.24-.5,12.4,12.4,0,0,1,4.31-2h.19a.68.68,0,0,0,.19,0l.08-.1h.06a6,6,0,0,1,1.61-.24c9-1.39,16.91,4.69,17.24,4.92a.62.62,0,0,1,.08.91.6.6,0,0,1-.84.1c-.08,0-7.82-6-16.23-4.73h-.25a4.64,4.64,0,0,0-1.15.22,1.33,1.33,0,0,1-.73.19,10.85,10.85,0,0,0-3.78,1.68.64.64,0,0,1-.89-.05A.89.89,0,0,1,98.45,78.14Z"/><path d="M98.45,83.36a.55.55,0,0,1,.13-.37.63.63,0,0,1,.86-.15,12.55,12.55,0,0,0,3.43,1.65l.27,0a14.77,14.77,0,0,0,2.7.58c8.28.93,15.69-4.78,15.77-4.83a.62.62,0,0,1,.76,1c-.33.23-7.82,6.08-16.53,5.09a12.08,12.08,0,0,1-3-.65h-.16a13.46,13.46,0,0,1-3.89-1.82A.77.77,0,0,1,98.45,83.36Z"/><path d="M96,71.34a.92.92,0,0,1,0-.29,13.38,13.38,0,0,1,2.37-2.9l.19-.18.32-.09a.6.6,0,0,0-.16.05,1.34,1.34,0,0,0,.14-.11A9.6,9.6,0,0,1,101.74,66c.05-.07.16-.11.19-.14l.21-.13c7.09-3.63,15.54-1.58,16.67-1.3a.61.61,0,0,1,.48.6c0,.36-.19.63-.54.63h-.27c-.89-.27-8.92-2.26-15.69,1.15a.82.82,0,0,1-.24.16l-.3.18a8.27,8.27,0,0,0-2.51,1.59,3.4,3.4,0,0,1-.46.35,10.6,10.6,0,0,0-2.1,2.56.65.65,0,0,1-.86.26A.61.61,0,0,1,96,71.34Z"/><path d="M98.12,76.16V76a.6.6,0,0,1,.76-.45,9.83,9.83,0,0,0,4.18.12l.27,0,.19-.16.16,0a5.91,5.91,0,0,0,1.32-.23h.13c8.07-2.17,12.81-10.26,13-10.58l.21-.26a.67.67,0,0,1,.89,0,.62.62,0,0,1,0,.89l-.11.12c-.08.25-5.09,8.79-13.64,11.05l-.16,0a8.17,8.17,0,0,1-1.43.27,1.45,1.45,0,0,1-.68.14,12.19,12.19,0,0,1-4.61-.15A.61.61,0,0,1,98.12,76.16Z"/><path d="M91.14,65.92a.17.17,0,0,1,0-.15,13.36,13.36,0,0,1,1.7-4.38,12.24,12.24,0,0,1,1.3-2c5.63-7.08,15.18-8.27,15.58-8.29a.55.55,0,0,1,.68.54.6.6,0,0,1-.51.68c-.11,0-9.47,1.18-14.73,7.8A14.4,14.4,0,0,0,92.38,66a.6.6,0,0,1-.73.49A.63.63,0,0,1,91.14,65.92Z"/><path d="M95,69.74a.64.64,0,0,1,.49-.64,12.06,12.06,0,0,0,3.18-1.16l.19-.06s0-.06,0-.06l.18-.15a6.28,6.28,0,0,0,2.43-1.59l.14-.16h.27c6.12-5.47,7.3-14.22,7.3-14.32a.58.58,0,0,1,.71-.52c.35,0,.53.28.51.68s-1.22,9.32-7.61,15a1.61,1.61,0,0,1-.62.37,7.78,7.78,0,0,1-2.53,1.67,1.23,1.23,0,0,1-.54.32,11.37,11.37,0,0,1-3.4,1.24.6.6,0,0,1-.73-.48Z"/><path d="M84.34,60.34a11.26,11.26,0,0,1,.16-1.67v0a9.17,9.17,0,0,1,.62-3.24c2.38-8.26,10.71-13,11.06-13.16a.64.64,0,0,1,.86.22.61.61,0,0,1-.26.83c-.09.08-8.2,4.73-10.47,12.52a8,8,0,0,0-.56,2.91,14,14,0,0,0,.1,4,.67.67,0,0,1-.54.72.62.62,0,0,1-.7-.53A13.64,13.64,0,0,1,84.34,60.34Z"/><path d="M89.57,64.91a.6.6,0,0,1,.25-.5,10.25,10.25,0,0,0,2.77-2.64l0-.08.41-.45a4,4,0,0,0,1.18-1.71l.16-.43h.14C98.31,51.9,96,43,95.89,42.93a.64.64,0,0,1,.43-.75.6.6,0,0,1,.78.43c.08.38,2.59,9.53-1.62,17.19a.76.76,0,0,1-.24.35A5.77,5.77,0,0,1,94,61.94a.59.59,0,0,1-.32.45,12.44,12.44,0,0,1-3.15,3,.73.73,0,0,1-.89-.15A.61.61,0,0,1,89.57,64.91Z"/><path d="M75.09,53.66c0-7.79,4.94-14.22,5.21-14.52a.63.63,0,0,1,.86-.11.7.7,0,0,1,.14.89c-.09.07-6,7.8-4.72,16.23v.21a6.48,6.48,0,0,0,.13,1.21,1.1,1.1,0,0,1,.24.71,11.13,11.13,0,0,0,1.7,3.81.59.59,0,0,1-.11.87.61.61,0,0,1-.86-.17,13.12,13.12,0,0,1-2-4.28v-.33l-.16-.13V58a7.74,7.74,0,0,1-.19-1.63A11.67,11.67,0,0,1,75.09,53.66Z"/><path d="M80.16,39.55a.58.58,0,0,1,.27-.52.6.6,0,0,1,.81.11c.27.31,6.07,7.84,5.1,16.59a11.82,11.82,0,0,1-.51,2.71h0l-.27.89a12,12,0,0,1-1.72,3.45A.64.64,0,0,1,83,63a.66.66,0,0,1-.11-.87,13.69,13.69,0,0,0,1.59-3.29l-.11-.08.22-.31a13.62,13.62,0,0,0,.54-2.72c1-8.3-4.75-15.7-4.8-15.77A.49.49,0,0,1,80.16,39.55Z"/><path d="M63.58,49.66a27.43,27.43,0,0,1,.86-6.93.69.69,0,0,1,.65-.55.63.63,0,0,1,.62.55l0,.32c-.11.34-2.37,8.75,1.13,15.7.08.11.08.2.17.24l.1.26a8.22,8.22,0,0,0,1.73,2.63.79.79,0,0,1,.27.41,12.23,12.23,0,0,0,2.48,2.08.63.63,0,0,1-.65,1.08A12.76,12.76,0,0,1,68,63l-.16-.25A10,10,0,0,1,66,59.8c-.11-.13-.11-.22-.16-.27l-.09-.13A21.42,21.42,0,0,1,63.58,49.66Z"/><path d="M64.28,42.73a.64.64,0,0,1,.16-.39.71.71,0,0,1,.89-.06l.14.13c.26.14,8.81,5.07,11.11,13.67a2.69,2.69,0,0,0,.13.78,5.29,5.29,0,0,1,.24,1.5,11.61,11.61,0,0,1-.16,4.6.61.61,0,0,1-.73.47.67.67,0,0,1-.51-.77,10,10,0,0,0,.16-4.21,8.51,8.51,0,0,0-.19-1.29,2.59,2.59,0,0,1-.16-.81C73.2,48.27,64.82,43.47,64.74,43.42l-.22-.21A.47.47,0,0,1,64.28,42.73Z"/><path d="M51.06,51.7a.58.58,0,0,1,.54-.62.53.53,0,0,1,.68.54c0,.08,1.21,9.46,7.85,14.68A12.55,12.55,0,0,0,62,67.58,13.25,13.25,0,0,0,66,69.1a.6.6,0,0,1,.46.76.57.57,0,0,1-.73.48,15.62,15.62,0,0,1-4.37-1.65,17,17,0,0,1-2-1.43c-7.06-5.56-8.22-15.11-8.28-15.54Z"/><path d="M51.06,51.7v-.1a.6.6,0,0,1,.68-.52c.43,0,9.38,1.21,15,7.6a1,1,0,0,1,.37.62,1.7,1.7,0,0,1,.17.23,11.2,11.2,0,0,1,1.61,2.4.57.57,0,0,1,.22.46,13,13,0,0,1,1.27,3.38.62.62,0,1,1-1.22.26A15,15,0,0,0,68,62.83l-.08-.2a11.73,11.73,0,0,0-1.68-2.36L66,60.1l-.16-.52C60.5,53.48,51.68,52.3,51.6,52.3A.64.64,0,0,1,51.06,51.7Z"/><path d="M42.11,65a.78.78,0,0,1,.3-.54.69.69,0,0,1,.91.26c0,.1,4.67,8.22,12.46,10.49a10,10,0,0,0,2.94.56,14.58,14.58,0,0,0,4-.11.66.66,0,0,1,.7.52.7.7,0,0,1-.51.74,16.83,16.83,0,0,1-4.26.08,9.25,9.25,0,0,1-3.26-.62c-8.28-2.4-13-10.69-13.19-11.06A.62.62,0,0,1,42.11,65Z"/><path d="M42.11,65a.73.73,0,0,1,.49-.6c.37-.06,9.57-2.58,17.23,1.62.16.06.3.11.35.25a6.48,6.48,0,0,1,1.73,1.16l.13,0a.46.46,0,0,1,.35.41,10.78,10.78,0,0,1,3,3.12.58.58,0,0,1-.13.86.65.65,0,0,1-.89-.19,10.2,10.2,0,0,0-2.94-2.91l-.25-.27a4.67,4.67,0,0,0-1.64-1.13l-.46-.15v-.14C51.85,63.22,43,65.6,42.92,65.65a.64.64,0,0,1-.76-.46A.22.22,0,0,1,42.11,65Z"/><path d="M38.93,80.75a.76.76,0,0,1,.11-.37.67.67,0,0,1,.89-.14c.08.08,7.82,6,16.23,4.71h.22a4.63,4.63,0,0,0,1.21-.2,1.12,1.12,0,0,1,.67-.17,12.19,12.19,0,0,0,3.83-1.71.58.58,0,0,1,.84.12.63.63,0,0,1-.11.88,13.27,13.27,0,0,1-4.29,1.93l-.16,0a.33.33,0,0,0-.19,0l-.1.12h0a9,9,0,0,1-1.67.23c-9,1.39-16.86-4.69-17.24-5A.79.79,0,0,1,38.93,80.75Z"/><path d="M38.93,80.75a1,1,0,0,1,.21-.51c.33-.23,7.85-6,16.54-5a13.51,13.51,0,0,1,2.8.49h0l.81.27a12.5,12.5,0,0,1,3.48,1.69.63.63,0,0,1,.16.89.61.61,0,0,1-.84.15,12.29,12.29,0,0,0-3.31-1.59v0L58.4,77a9.26,9.26,0,0,0-2.72-.58c-8.31-1-15.67,4.77-15.75,4.82a.66.66,0,0,1-.89-.1A.88.88,0,0,1,38.93,80.75Z"/><path d="M42.22,96.49c0-.36.19-.65.54-.65l.29,0c.41.09,8.69,2.36,15.73-1.16a.68.68,0,0,1,.27-.15l.21-.16a7.41,7.41,0,0,0,2.65-1.7.64.64,0,0,1,.37-.3A13.27,13.27,0,0,0,64.39,90a.63.63,0,0,1,.89-.21.55.55,0,0,1,.13.83A11.71,11.71,0,0,1,63,93.48l-.29.15a7.84,7.84,0,0,1-2.92,1.9c-.05.11-.13.11-.21.15l-.19.11c-7.23,3.69-15.91,1.5-16.61,1.28A.63.63,0,0,1,42.22,96.49Z"/><path d="M42.11,96.61V96l.41-.07c.91-1.52,5.66-8.84,13.59-10.92a3.48,3.48,0,0,0,.73-.19,6.13,6.13,0,0,1,1.53-.23,11.58,11.58,0,0,1,4.59.17.57.57,0,0,1,.46.71.64.64,0,0,1-.73.51,9.84,9.84,0,0,0-4.21-.15,4.15,4.15,0,0,0-1.35.21,3.45,3.45,0,0,1-.78.17c-8.06,2.16-12.89,10.49-12.89,10.56l-.22.31H43a.67.67,0,0,1-.27.08C42.41,97.15,42.11,97,42.11,96.61Z"/><path d="M51.06,109.81a.63.63,0,0,1,.54-.6c.08,0,9.31-1.16,14.59-7.69a12.21,12.21,0,0,0,1.54-2.33,12.46,12.46,0,0,0,1.35-3.6h.67l.6.2-.6-.2.54.33a12.09,12.09,0,0,1-1.53,3.87,8.67,8.67,0,0,1-1.65,2.52c-5.5,7-14.94,8.07-15.37,8.18a.69.69,0,0,1-.68-.57Z"/><path d="M51.06,109.81v0c.06-.36,1.22-9.36,7.61-15a1.9,1.9,0,0,1,.65-.36s.16-.05.24-.09a13.14,13.14,0,0,1,2.32-1.64h0c.16-.16.25-.26.46-.26a12.83,12.83,0,0,1,3.37-1.24.61.61,0,0,1,.73.49.54.54,0,0,1-.46.7,14.57,14.57,0,0,0-3.15,1.23l-.38.2a8.48,8.48,0,0,0-2.19,1.55l-.32.2-.35.11c-6.18,5.39-7.31,14.17-7.36,14.28,0,.34-.27.57-.68.57A.65.65,0,0,1,51.06,109.81Z"/><path d="M64.44,118.77a.65.65,0,0,1,.3-.57c.08,0,8.22-4.68,10.49-12.49a8.48,8.48,0,0,0,.62-2.94,17.41,17.41,0,0,0-.14-4,.57.57,0,0,1,.49-.69.6.6,0,0,1,.73.51,18.58,18.58,0,0,1,.16,4.23h0a9,9,0,0,1-.7,3.24c-2.38,8.31-10.68,13-11,13.23a.66.66,0,0,1-.87-.26A.59.59,0,0,1,64.44,118.77Z"/><path d="M63.58,112.08a21.63,21.63,0,0,1,2.51-10.48,10.22,10.22,0,0,1,1.48-2.35.69.69,0,0,1,.3-.31A14.69,14.69,0,0,1,71,96.07a.67.67,0,0,1,.87.18.6.6,0,0,1-.14.87,14.57,14.57,0,0,0-3,2.7l-.19.26a6.46,6.46,0,0,0-1.29,2.09c-4.1,7.29-1.62,16.33-1.57,16.41a.64.64,0,0,1-.48.79.65.65,0,0,1-.76-.43A27.65,27.65,0,0,1,63.58,112.08Z"/><path d="M80.16,122a.54.54,0,0,1,.14-.39c0-.09,6-7.75,4.64-16.23v-.2a4.72,4.72,0,0,0-.17-1.22h0a2,2,0,0,1-.21-.68,11.35,11.35,0,0,0-1.67-3.81.6.6,0,0,1,.08-.85.61.61,0,0,1,.89.12,13.47,13.47,0,0,1,2,4.25v.38l.11.11v0a9.66,9.66,0,0,1,.24,1.65c1.33,8.94-4.69,16.89-4.9,17.2a.59.59,0,0,1-.87.11A.52.52,0,0,1,80.16,122Z"/><path d="M75.07,107.87c0-.67,0-1.36.08-2.06a22.58,22.58,0,0,1,.56-2.73v0l.25-.82a11.72,11.72,0,0,1,1.69-3.5.63.63,0,0,1,.89-.14.66.66,0,0,1,.14.87,10.8,10.8,0,0,0-1.56,3.27l0,0-.11.39a9.75,9.75,0,0,0-.62,2.72,14.32,14.32,0,0,0-.08,1.85c0,7.51,4.85,13.82,4.94,13.87a.69.69,0,0,1-.14.88.58.58,0,0,1-.86-.11C80,122.07,75.07,115.68,75.07,107.87Z"/><path d="M89.57,96.61a.53.53,0,0,1,.09-.34.67.67,0,0,1,.83-.23,17.4,17.4,0,0,1,3.26,2.89,10.16,10.16,0,0,1,1.81,2.76,1.35,1.35,0,0,1,.11.26l.13.16c3.62,7.1,1.57,15.55,1.3,16.66a.62.62,0,0,1-.59.55.55.55,0,0,1-.62-.55v-.31c.26-.88,2.23-8.94-1.16-15.71a.39.39,0,0,1-.17-.29l-.13-.2a9,9,0,0,0-1.62-2.51,11.25,11.25,0,0,0-3-2.63A.6.6,0,0,1,89.57,96.61Z"/><path d="M84.42,101.24a13.25,13.25,0,0,1,.33-2.67.57.57,0,0,1,.73-.46.63.63,0,0,1,.48.74,10,10,0,0,0-.11,4.18,10.46,10.46,0,0,0,.16,1.39,3.7,3.7,0,0,1,.19.73c2.19,8.11,10.49,12.89,10.58,12.94l.18.11.27.3,0,.21a.9.9,0,0,1-.14.51l-.08.15h-.45v-.6l-.06-.06-.27.46c-.08,0-8.87-5-11.19-13.77,0-.25-.11-.47-.16-.67a10,10,0,0,1-.27-1.59C84.5,102.52,84.42,101.91,84.42,101.24Z"/><path d="M95,91.78v-.13a.62.62,0,0,1,.73-.49,15.15,15.15,0,0,1,4.37,1.7l.19.15a5.24,5.24,0,0,1,1.91,1.34c7,5.44,8.2,15,8.23,15.42v0a.6.6,0,0,1-.51.68.67.67,0,0,1-.71-.57c0-.12-1.18-9.48-7.82-14.7a6.27,6.27,0,0,0-1.72-1.16l-.25-.17a14.87,14.87,0,0,0-4-1.54A.54.54,0,0,1,95,91.78Z"/><path d="M91.14,95.59a.73.73,0,0,1,.51-.62.62.62,0,0,1,.73.54,12.45,12.45,0,0,0,1.21,3.14l.27.48a5.6,5.6,0,0,0,1.59,2.31l.19.19v.28c5.42,6.16,14.19,7.3,14.3,7.3a.57.57,0,0,1,.51.6v.11a.65.65,0,0,1-.68.57c-.4-.11-9.33-1.23-15-7.66a1.78,1.78,0,0,1-.35-.57,7.69,7.69,0,0,1-1.67-2.59,1.14,1.14,0,0,1-.38-.54,13.05,13.05,0,0,1-1.19-3.4A.16.16,0,0,1,91.14,95.59Z"/><path d="M98.12,85.2a.61.61,0,0,1,.49-.62,16.79,16.79,0,0,1,4.26-.09,8.75,8.75,0,0,1,3.24.66c8.27,2.37,13,10.64,13.18,11a.59.59,0,0,1-.24.88.65.65,0,0,1-.84-.27c0-.07-4.66-8.19-12.48-10.45a8,8,0,0,0-2.94-.62,16,16,0,0,0-4,.13.57.57,0,0,1-.68-.51Z"/><path d="M96,90.17a.6.6,0,0,1,.22-.49.64.64,0,0,1,.89.09,11.34,11.34,0,0,0,3,3.09A4.84,4.84,0,0,0,102,94.14c7.29,4.2,16.45,1.78,16.54,1.73a.64.64,0,0,1,.8.43.6.6,0,0,1-.43.77c-.43.11-9.76,2.66-17.42-1.77a5.35,5.35,0,0,1-2.1-1.47,11,11,0,0,1-3.32-3.31A.82.82,0,0,1,96,90.17Z"/><path d="M60.88,80.75a19.86,19.86,0,1,1,19.88,19.87A19.91,19.91,0,0,1,60.88,80.75Zm37.24,0A17.38,17.38,0,1,0,80.76,98.12,17.39,17.39,0,0,0,98.12,80.75Z"/><path d="M119,79.27a.43.43,0,0,1,.08-.31c4-6.74,9-10.42,15-11,12.38-1.13,24,11.79,24.54,12.35a.69.69,0,0,1-.08.91.63.63,0,0,1-.89,0c-.11-.16-11.76-13.08-23.46-12-5.47.53-10.22,4-14,10.4a.78.78,0,0,1-.92.2A.58.58,0,0,1,119,79.27Z"/><path d="M119,82.25a.67.67,0,0,1,.27-.54.75.75,0,0,1,.92.2c3.72,6.42,8.44,9.93,13.94,10.44,11.73,1.17,23.38-11.74,23.55-11.91a.58.58,0,0,1,.83,0,.62.62,0,0,1,.08.86c-.51.57-12.24,13.53-24.62,12.34-5.88-.59-10.87-4.31-14.89-11.07A.45.45,0,0,1,119,82.25Z"/><path d="M121.18,80.89l.35-.42a16.19,16.19,0,0,1,23.63,0l.35.42-.35.38a16.19,16.19,0,0,1-23.63,0Zm22.68,0a14.32,14.32,0,0,0-10.54-4.29,14.48,14.48,0,0,0-10.52,4.29,15.14,15.14,0,0,0,21.06,0Z"/><path d="M105.65,45.25a17,17,0,0,1,3.77-11.2c7.93-9.58,25.35-8.65,26.11-8.61a.61.61,0,0,1,.56.62v0a.61.61,0,0,1-.67.59c-.16,0-17.53-.91-25.08,8.15-3.48,4.26-4.37,10.06-2.56,17.26a.62.62,0,0,1-.46.74.65.65,0,0,1-.76-.42A32.06,32.06,0,0,1,105.65,45.25Z"/><path d="M108.69,54.31v-.13a.58.58,0,0,1,.73-.46c7.23,1.86,13,1,17.29-2.47,9.09-7.5,8.25-24.88,8.25-25.09v0a.59.59,0,0,1,.57-.62.65.65,0,0,1,.67.58c0,.75.84,18.21-8.71,26.09-4.56,3.79-10.73,4.7-18.36,2.74A.62.62,0,0,1,108.69,54.31Z"/><path d="M109.32,50.68A16.3,16.3,0,0,1,126.09,35l.54,0v.51a15.22,15.22,0,0,1-4.72,12,15.51,15.51,0,0,1-12,4.73l-.54-.06,0-.52A7,7,0,0,1,109.32,50.68Zm16.15-14.45A14.58,14.58,0,0,0,115,40.63a14.23,14.23,0,0,0-4.4,10.47,14.45,14.45,0,0,0,10.46-4.39A14.64,14.64,0,0,0,125.47,36.23Z"/><path d="M68,25.87C68,14.13,79.84,3.4,80.38,2.94a.61.61,0,0,1,.86.05.69.69,0,0,1,0,.92c-.16.08-12,10.77-12,22a12.92,12.92,0,0,0,.11,1.45c.48,5.45,4,10.17,10.33,14A.62.62,0,0,1,79,42.42c-6.69-4-10.41-9.05-10.92-15A10.46,10.46,0,0,1,68,25.87Z"/><path d="M80.3,3.4A.56.56,0,0,1,80.43,3a.6.6,0,0,1,.87,0c.53.46,12.4,11.19,12.4,22.93,0,.58,0,1.12-.08,1.64-.57,5.92-4.29,10.92-11.08,14.91a.55.55,0,0,1-.81-.23.58.58,0,0,1,.21-.82c6.39-3.81,9.9-8.48,10.44-14C93.59,15.69,80.62,4,80.46,3.85A.73.73,0,0,1,80.3,3.4Z"/><path d="M75.36,28.19h0a15.44,15.44,0,0,1,5.13-11.84l.43-.36.38.36a15.44,15.44,0,0,1,5.09,11.84A15.53,15.53,0,0,1,81.3,40l-.38.38L80.49,40A15.19,15.19,0,0,1,75.36,28.19Zm5.56-10.53A14.48,14.48,0,0,0,76.6,28.19,14.34,14.34,0,0,0,80.92,38.7a14.7,14.7,0,0,0,4.23-10.51A14.77,14.77,0,0,0,80.92,17.66Z"/><path d="M25.36,27.83a16.39,16.39,0,0,1,.11-1.78.6.6,0,1,1,1.19,0v0c0,.22-.89,17.54,8.17,25.07,4.29,3.52,10.06,4.37,17.23,2.56a.66.66,0,0,1,.76.46.6.6,0,0,1-.46.75c-7.58,1.9-13.78,1-18.29-2.79C26.17,45.59,25.36,32.62,25.36,27.83Z"/><path d="M25.53,26a.61.61,0,0,1,.59-.63c.75,0,18.2-.9,26.1,8.72,3.75,4.54,4.64,10.73,2.67,18.36a.51.51,0,0,1-.7.42.56.56,0,0,1-.46-.74c1.87-7.26,1.06-13-2.48-17.28-7.49-9.08-24.89-8.22-25.08-8.21a.62.62,0,0,1-.64-.6Z"/><path d="M35,36.49c0-.34,0-.69,0-1.07l.08-.51.51-.06a15.67,15.67,0,0,1,12,4.75,15.08,15.08,0,0,1,4.72,12l0,.5-.54,0a15.29,15.29,0,0,1-12-4.72A15.63,15.63,0,0,1,35,36.49Zm1.24-.39a14.39,14.39,0,0,0,4.45,10.43,14,14,0,0,0,10.44,4.38A14.6,14.6,0,0,0,46.7,40.48,14.19,14.19,0,0,0,36.23,36.1Z"/><path d="M2.79,80.73A.77.77,0,0,1,3,80.27a.67.67,0,0,1,.89,0c.11.12,11.73,13.05,23.46,11.92,5.5-.48,10.17-3.95,14-10.33a.71.71,0,0,1,.89-.2.63.63,0,0,1,.19.85c-4,6.7-9.06,10.4-14.89,11C15.09,94.71,3.47,81.71,3,81.15A.46.46,0,0,1,2.79,80.73Z"/><path d="M2.76,80.63a.49.49,0,0,1,.17-.42c.48-.56,12.27-13.53,24.65-12.31,5.85.57,10.86,4.31,14.83,11.06a.6.6,0,0,1-.19.85.73.73,0,0,1-.89-.2c-3.78-6.42-8.44-9.93-13.92-10.47C15.68,68,4,80.94,3.87,81a.61.61,0,0,1-.86,0A.45.45,0,0,1,2.76,80.63Z"/><path d="M16,80.63l.35-.42a15.63,15.63,0,0,1,11.86-5.13A15.54,15.54,0,0,1,40,80.21l.32.42L40,81a15.61,15.61,0,0,1-11.79,5.13A15.45,15.45,0,0,1,16.36,81Zm22.7,0a14.47,14.47,0,0,0-10.49-4.26,14.39,14.39,0,0,0-10.54,4.26,14.56,14.56,0,0,0,10.54,4.26A14.37,14.37,0,0,0,38.71,80.63Z"/><path d="M25.47,135.4h0a.62.62,0,0,1,.65-.6c.16,0,17.53.91,25-8.15,3.53-4.22,4.34-10,2.58-17.19a.62.62,0,0,1,.46-.77.56.56,0,0,1,.7.46c2,7.61,1,13.77-2.75,18.3-8,9.6-25.37,8.66-26.07,8.63A.65.65,0,0,1,25.47,135.4Z"/><path d="M25.31,133.73c0-4.66.76-17.85,8.71-24.43,4.56-3.75,10.76-4.67,18.34-2.72a.63.63,0,0,1,.46.78.67.67,0,0,1-.76.46c-7.17-1.85-13-1-17.28,2.46-9.09,7.47-8.18,24.87-8.18,25A.71.71,0,0,1,26,136a.59.59,0,0,1-.62-.6C25.36,135.31,25.31,134.66,25.31,133.73Z"/><path d="M34.78,124.9a15.86,15.86,0,0,1,4.8-11,15.42,15.42,0,0,1,12-4.71l.54.05.05.51v1a15.86,15.86,0,0,1-4.72,10.93,15.56,15.56,0,0,1-12.05,4.71h-.52l-.05-.56A6.77,6.77,0,0,1,34.78,124.9ZM51,110.38A15.17,15.17,0,0,0,36,124.9a2.1,2.1,0,0,0,0,.39,14.65,14.65,0,0,0,10.49-4.42A14.48,14.48,0,0,0,51,110.82Z"/><path d="M80.11,158.07a.67.67,0,0,1,.24-.46c.11-.11,12-10.8,12-22a8,8,0,0,0-.08-1.39c-.49-5.45-4-10.18-10.36-14a.58.58,0,0,1-.21-.85.57.57,0,0,1,.81-.2c6.71,4,10.46,9,11,14.92a10.26,10.26,0,0,1,.08,1.58c0,11.73-11.86,22.45-12.43,22.94a.63.63,0,0,1-.86-.08A.65.65,0,0,1,80.11,158.07Z"/><path d="M67.84,135.62c0-.54,0-1.08.08-1.64.54-5.87,4.29-10.9,11-14.86a.59.59,0,0,1,.84.2.6.6,0,0,1-.19.85c-6.4,3.77-9.9,8.45-10.44,13.93a9.37,9.37,0,0,0-.08,1.52c0,11.19,11.86,21.94,12,22a.69.69,0,0,1,.06.91.66.66,0,0,1-.89,0C79.7,158.13,67.84,147.35,67.84,135.62Z"/><path d="M75.09,133.35h0a15.73,15.73,0,0,1,5.13-11.86l.43-.31.4.31a16.29,16.29,0,0,1,0,23.68l-.4.33-.43-.33A15.47,15.47,0,0,1,75.09,133.35Zm5.56-10.53a14.42,14.42,0,0,0-4.29,10.53h0a14.21,14.21,0,0,0,4.29,10.48,15.08,15.08,0,0,0,0-21Z"/><path d="M108.69,107.2a.65.65,0,0,1,.44-.62c7.63-1.91,13.8-1,18.33,2.83,9.55,7.91,8.63,25.33,8.58,26.1a.59.59,0,0,1-.62.57.71.71,0,0,1-.65-.62v-.06c0-.12.95-17.54-8.14-25.06-4.21-3.48-10-4.33-17.21-2.52a.62.62,0,0,1-.73-.46Z"/><path d="M105.59,116.42a31.53,31.53,0,0,1,1-7.27.69.69,0,0,1,.76-.46.6.6,0,0,1,.46.77c-1.81,7.16-1,13,2.51,17.21,7.49,9.15,24.89,8.28,25,8.25a.61.61,0,0,1,.62.59.57.57,0,0,1-.54.66c-.73.06-18.23.93-26.1-8.68A16.93,16.93,0,0,1,105.59,116.42Z"/><path d="M109.18,111h0a7.53,7.53,0,0,1,0-1v-.49l.54-.11a15.54,15.54,0,0,1,12,4.74,15.35,15.35,0,0,1,4.77,12l-.08.57-.51,0a15.12,15.12,0,0,1-12-4.76A15.42,15.42,0,0,1,109.18,111Zm1.24-.41V111h0a15,15,0,0,0,14.86,14.44v-.36a15.15,15.15,0,0,0-14.86-14.49Z"/><path d="M128.6,49.58a.14.14,0,0,1,.05-.12.63.63,0,0,1,.7-.5c.24,0,6.69,1.47,9.41,6.84,1.78,3.56,1.46,8-1,13.09a.58.58,0,0,1-.81.31.63.63,0,0,1-.29-.81c2.21-4.79,2.59-8.83,1-12-2.46-4.83-8.55-6.15-8.63-6.18A.58.58,0,0,1,128.6,49.58Z"/><path d="M132.48,42.73v0a.63.63,0,0,1,.7-.56c.43.06,9.76,1.45,13.7,8.86,2.81,5.15,2.21,11.85-1.72,20a.58.58,0,0,1-.81.25.62.62,0,0,1-.3-.8c3.75-7.72,4.31-14.08,1.75-18.83-3.64-6.86-12.7-8.21-12.78-8.22A.64.64,0,0,1,132.48,42.73Z"/><path d="M131,46a.13.13,0,0,1,0-.09.62.62,0,0,1,.73-.49c.3,0,7.71,1.57,11.19,7.92,2.43,4.46,2.37,10-.19,16.66a.57.57,0,0,1-.75.39.67.67,0,0,1-.41-.82c2.43-6.28,2.51-11.53.27-15.61-3.26-5.85-10.27-7.31-10.38-7.32A.69.69,0,0,1,131,46Z"/><path d="M92.38,24.45a.61.61,0,0,1,.27-.53c.24-.18,5.77-3.74,11.49-1.82,3.77,1.25,6.66,4.58,8.57,9.94a.58.58,0,0,1-.32.79.65.65,0,0,1-.84-.39c-1.78-5-4.45-8-7.76-9.15C98.61,21.57,93.38,24.93,93.35,25a.64.64,0,0,1-.89-.19A.46.46,0,0,1,92.38,24.45Z"/><path d="M90.3,16.88a.5.5,0,0,1,.25-.51c.29-.24,7.87-5.89,15.93-3.49,5.61,1.71,9.93,6.89,12.92,15.41a.63.63,0,0,1-.38.78.61.61,0,0,1-.81-.38c-2.83-8.09-6.87-13-12.1-14.57-7.42-2.28-14.78,3.21-14.81,3.26a.69.69,0,0,1-.92-.12A.63.63,0,0,1,90.3,16.88Z"/><path d="M91.52,20.16a.56.56,0,0,1,.32-.52c.24-.16,6.55-4.31,13.51-2.26,4.88,1.37,8.77,5.37,11.65,11.88a.59.59,0,0,1-.3.82.65.65,0,0,1-.83-.31c-2.73-6.16-6.37-9.92-10.87-11.22-6.39-1.87-12.46,2.11-12.51,2.12a.57.57,0,0,1-.84-.16A.58.58,0,0,1,91.52,20.16Z"/><path d="M48.93,32.28a.17.17,0,0,1,.06-.11c0-.27,1.48-6.71,6.79-9.42,3.59-1.77,8-1.46,13.16.94a.68.68,0,0,1,.27.84.66.66,0,0,1-.86.28c-4.77-2.23-8.76-2.52-12-.93-4.8,2.43-6.18,8.47-6.18,8.56a.63.63,0,0,1-1.24-.16Z"/><path d="M42.11,28.45v-.11c.11-.42,1.43-9.77,8.85-13.75,5.17-2.77,11.92-2.17,20,1.75a.61.61,0,0,1,.29.82.6.6,0,0,1-.81.29c-7.76-3.72-14.1-4.32-18.87-1.76-6.85,3.68-8.17,12.76-8.23,12.83a.57.57,0,0,1-.67.52A.61.61,0,0,1,42.11,28.45Z"/><path d="M45.37,29.87v-.13c.06-.29,1.57-7.72,7.93-11.23,4.43-2.44,10-2.37,16.64.2a.61.61,0,0,1,.35.81.57.57,0,0,1-.75.37c-6.31-2.44-11.52-2.51-15.62-.27C48,22.83,46.64,29.91,46.59,30a.69.69,0,0,1-.73.5A.68.68,0,0,1,45.37,29.87Z"/><path d="M21.56,60.92a11.07,11.07,0,0,1,.57-3.56c1.24-3.75,4.56-6.65,9.92-8.56a.62.62,0,0,1,.81.35.66.66,0,0,1-.38.81c-5,1.8-8.06,4.41-9.17,7.83-1.72,5.12,1.62,10.34,1.68,10.4a.63.63,0,0,1-.22.86.62.62,0,0,1-.86-.2A16,16,0,0,1,21.56,60.92Z"/><path d="M12.34,59.21A13.38,13.38,0,0,1,12.93,55c1.67-5.58,6.85-9.94,15.37-12.92a.66.66,0,0,1,.79.39.59.59,0,0,1-.38.77c-8.12,2.85-13,6.92-14.59,12.11-2.21,7.42,3.23,14.77,3.26,14.83a.66.66,0,0,1-.11.91.63.63,0,0,1-.86-.15C16.22,70.72,12.34,65.53,12.34,59.21Z"/><path d="M16.82,60.12a16.14,16.14,0,0,1,.53-4c1.38-4.82,5.4-8.76,11.9-11.64a.64.64,0,0,1,.54,1.15C23.64,48.38,19.86,52,18.54,56.51,16.71,63,20.67,69,20.67,69a.61.61,0,0,1-.13.85.6.6,0,0,1-.87-.15A18.68,18.68,0,0,1,16.82,60.12Z"/><path d="M21.62,100.72a18.82,18.82,0,0,1,2.13-8.11.58.58,0,0,1,.75-.31.62.62,0,0,1,.38.87c-2.24,4.72-2.59,8.75-1,12,2.4,4.82,8.5,6.19,8.5,6.19.4.08.62.37.51.71a.59.59,0,0,1-.73.49c-.27,0-6.69-1.43-9.41-6.83A11.75,11.75,0,0,1,21.62,100.72Z"/><path d="M12.88,103.39c0-3.77,1.18-8.06,3.48-12.87a.58.58,0,0,1,.83-.29.6.6,0,0,1,.25.88c-3.73,7.71-4.32,14.08-1.7,18.84,3.66,6.86,12.67,8.17,12.78,8.19a.61.61,0,0,1,.51.63v0a.63.63,0,0,1-.73.56c-.37-.05-9.76-1.43-13.7-8.83A15,15,0,0,1,12.88,103.39Z"/><path d="M16.76,100.93a27,27,0,0,1,2-9.38.64.64,0,0,1,.78-.39.65.65,0,0,1,.38.85c-2.45,6.27-2.51,11.49-.27,15.6,3.21,5.83,10.33,7.3,10.36,7.3a.62.62,0,0,1,.51.77.64.64,0,0,1-.73.46c-.32-.06-7.71-1.57-11.25-8A14.78,14.78,0,0,1,16.76,100.93Z"/><path d="M48.72,129.3c0-.29.19-.57.43-.57a.58.58,0,0,1,.81.34c1.78,4.92,4.45,8,7.82,9.14,5.15,1.73,10.36-1.62,10.44-1.67a.62.62,0,0,1,.83.2.61.61,0,0,1-.19.88c-.24.16-5.77,3.7-11.46,1.8-3.8-1.26-6.69-4.62-8.6-9.95A.44.44,0,0,1,48.72,129.3Z"/><path d="M42.11,133a.67.67,0,0,1,.41-.62.63.63,0,0,1,.8.42c2.84,8.12,6.85,13,12.09,14.57,7.44,2.26,14.72-3.21,14.83-3.29a.6.6,0,0,1,.86.13.58.58,0,0,1-.13.85c-.3.28-7.91,5.93-16,3.52-5.58-1.7-9.9-6.84-12.89-15.37Z"/><path d="M44.48,132a.61.61,0,0,1,1.16-.26c2.73,6.14,6.4,9.91,10.87,11.2,6.42,1.86,12.43-2.11,12.51-2.14a.64.64,0,0,1,.84.17.63.63,0,0,1-.16.89c-.24.13-6.55,4.33-13.54,2.26-4.85-1.39-8.79-5.39-11.62-11.92A.26.26,0,0,1,44.48,132Z"/><path d="M92.27,137.25a.88.88,0,0,1,.06-.27.61.61,0,0,1,.8-.28c4.78,2.2,8.82,2.53,12,1,4.89-2.47,6.21-8.48,6.23-8.56a.58.58,0,0,1,.73-.49c.3.11.6.37.49.73s-1.49,6.73-6.85,9.4c-3.56,1.79-8,1.47-13.14-.93A.61.61,0,0,1,92.27,137.25Z"/><path d="M90.22,144.6a.83.83,0,0,1,0-.26.63.63,0,0,1,.86-.29c7.77,3.75,14.08,4.31,18.85,1.79,6.85-3.69,8.17-12.74,8.23-12.85a.56.56,0,0,1,.67-.54.75.75,0,0,1,.54.7c-.11.41-1.43,9.79-8.84,13.77-5.18,2.75-11.87,2.16-20-1.75A.6.6,0,0,1,90.22,144.6Z"/><path d="M91.14,142.19a.36.36,0,0,1,0-.21.64.64,0,0,1,.81-.36c6.29,2.43,11.52,2.52,15.62.28,5.85-3.23,7.3-10.3,7.3-10.39a.62.62,0,0,1,.76-.47c.32.05.51.31.49.75-.09.28-1.62,7.67-7.93,11.17-4.45,2.46-10,2.4-16.67-.18A.6.6,0,0,1,91.14,142.19Z"/><path d="M128.71,112.13a.69.69,0,0,1,.35-.62c5-1.79,8.06-4.42,9.16-7.75,1.73-5.22-1.61-10.39-1.67-10.44a.63.63,0,0,1,.22-.88.57.57,0,0,1,.83.22c.14.2,3.73,5.7,1.81,11.45-1.24,3.8-4.58,6.63-9.92,8.64a.64.64,0,0,1-.76-.42A.59.59,0,0,1,128.71,112.13Z"/><path d="M132.4,118.81a.69.69,0,0,1,.43-.61c8.09-2.83,13-6.86,14.59-12.08,2.27-7.47-3.24-14.79-3.32-14.85a.77.77,0,0,1,.14-.9.62.62,0,0,1,.89.13c.21.33,5.9,8,3.48,16-1.73,5.6-6.85,10-15.4,12.89a.59.59,0,0,1-.76-.35A.37.37,0,0,1,132.4,118.81Z"/><path d="M131.37,116.45a.68.68,0,0,1,.38-.6c6.15-2.69,9.93-6.36,11.22-10.87,1.86-6.44-2.13-12.4-2.16-12.48a.64.64,0,0,1,.19-.85.6.6,0,0,1,.87.16c.18.28,4.34,6.59,2.26,13.51-1.35,4.91-5.37,8.79-11.89,11.67a.6.6,0,0,1-.81-.31A.35.35,0,0,1,131.37,116.45Z"/><path d="M107,64.45a10.51,10.51,0,0,1,10.36-9.22,10.54,10.54,0,1,1,0,21.07,9.71,9.71,0,0,1-6.82-2.64l.83-.92a8.67,8.67,0,0,0,6,2.31,9.27,9.27,0,1,0,0-18.54,9.28,9.28,0,0,0-9.14,8.12Z"/><path d="M85.58,44.23a10.47,10.47,0,0,1,3-7.42,10.78,10.78,0,0,1,7.55-3.11,10.49,10.49,0,0,1,7.44,3,10.34,10.34,0,0,1,3,7.38,10.71,10.71,0,0,1-3.15,7.58,9.77,9.77,0,0,1-6.69,3l-.08-1.23a8.75,8.75,0,0,0,5.9-2.63,9.4,9.4,0,0,0,2.81-6.7,9.28,9.28,0,0,0-15.91-6.41,9.29,9.29,0,0,0-.73,12.23l-1,.74A10.41,10.41,0,0,1,85.58,44.23Z"/><path d="M55.27,44.12a10.51,10.51,0,1,1,21,0A9.8,9.8,0,0,1,73.69,51l-.89-.86a8.67,8.67,0,0,0,2.24-6,9.27,9.27,0,1,0-10.38,9.17l-.22,1.24A10.6,10.6,0,0,1,55.27,44.12Z"/><path d="M33.67,65.31a10.49,10.49,0,0,1,18-7.32,10.18,10.18,0,0,1,3,6.69l-1.25.07a8.64,8.64,0,0,0-2.64-5.84,9.3,9.3,0,0,0-13.21-.11,9.06,9.06,0,0,0-2.73,6.51h0A9.4,9.4,0,0,0,50,72.72l.75,1a10.49,10.49,0,0,1-13.83-.87,10.31,10.31,0,0,1-3.21-7.54Z"/><path d="M33.45,95.73A10.65,10.65,0,0,1,44.11,85.2,9.94,9.94,0,0,1,51,87.82l-.86.93a8.61,8.61,0,0,0-6-2.27A9.25,9.25,0,1,0,53.3,96.87l1.24.2a10.59,10.59,0,0,1-21.09-1.34Z"/><path d="M54.87,117.38A10.66,10.66,0,0,1,58,109.81a10,10,0,0,1,6.66-3l.08,1.24a8.49,8.49,0,0,0-5.87,2.65,9.24,9.24,0,0,0,6.44,15.88A9.5,9.5,0,0,0,72,123.79a9.36,9.36,0,0,0,.75-12.23l1-.76a10.58,10.58,0,1,1-18.87,6.58Z"/><path d="M85.26,117.38a9.9,9.9,0,0,1,2.59-6.84l.89.85a8.69,8.69,0,0,0-2.29,6,9.28,9.28,0,1,0,18.55,0v-.06a9.28,9.28,0,0,0-8.14-9.1L97.1,107a10.49,10.49,0,0,1,9.14,10.33v.06a10.49,10.49,0,1,1-21,0Z"/><path d="M106.86,96.76h1.24a8.4,8.4,0,0,0,2.62,5.86,9.3,9.3,0,0,0,6.66,2.78,9,9,0,0,0,6.5-2.69,9.1,9.1,0,0,0,2.72-6.5h0a9.46,9.46,0,0,0-2.8-6.69,9.2,9.2,0,0,0-12.22-.72l-.75-1a10.43,10.43,0,0,1,13.83.86,10.54,10.54,0,0,1,3.18,7.57h0a10.46,10.46,0,0,1-10.46,10.47,10.56,10.56,0,0,1-7.55-3.18A9.6,9.6,0,0,1,106.86,96.76Z"/></g></svg>