<svg xmlns="http://www.w3.org/2000/svg" viewBox="0 0 161.51 161.51"><title>circle-10</title><g id="Objects_path-filder"><path d="M38.39,80.75a42.38,42.38,0,1,1,42.37,42.39A42.41,42.41,0,0,1,38.39,80.75Zm83.68,0a41.32,41.32,0,1,0-41.31,41.31A41.33,41.33,0,0,0,122.07,80.75Z"/><path d="M119.54,65C137.6,58.08,154.86,80.15,155,80.42l.06,0-.6.59-.05-.05c-.27-.24-17-21.83-34.52-15.21Z"/><path d="M119.54,96.39l.32-.86c17.42,6.63,34.25-14.89,34.46-15.11l.11-.16.6.65L155,81C154.32,81.88,137.55,103.24,119.54,96.39Z"/><path d="M121.1,69.69l1.35-.54c12.24-4.5,23.73,8.68,25.94,11.38l.06.06-.38.37-.06-.1c-2.15-2.66-13.43-15.65-25.4-11.22l-1.35.51Z"/><path d="M121.05,91.7l.21-.54,1.35.54c10.79,4,21.2-6.34,25.19-10.9l.1-.11v-.1l.17-.17.27.27h.11v.17l-.28.29c-4,4.67-14.66,15.13-25.72,11Z"/><path d="M101.41,44.41l.65-1.34C107.51,31.21,125,32.41,128.44,32.8l.05-.06,0,.52-.16.05c-3.4-.36-20.55-1.55-25.83,10l-.65,1.33Z"/><path d="M116.73,59.48l1.4-.6c10.41-4.79,10.52-19.46,10.09-25.49V33.2l-.11-.05v-.26h.38l0,0,.16.11v.39c.44,6.21.33,21.09-10.35,26L117,60Z"/><path d="M68.22,33.88c0-10.1,10-18.87,12.32-20.77l0,0,.35.36-.08.11C78.22,15.69,65.28,27,69.67,38.85l.49,1.39-.49.22-.51-1.39A15.62,15.62,0,0,1,68.22,33.88Z"/><path d="M80.38,13.45l.27-.31v-.08h.19l.29.28c4.7,4,15.16,14.7,11.06,25.73l-.54,1.39-.48-.22.51-1.39c4-10.68-6.29-21.14-10.87-25.12l-.19-.13h0Z"/><path d="M32.59,37.26c0-1.85.11-3.36.16-4.15v-.06l.54,0v.11c-.35,3.44-1.43,20.6,10,25.89l1.38.62-.28.48-1.29-.63C33.94,55.28,32.59,43.84,32.59,37.26Z"/><path d="M32.83,33l0-.06h0l.06,0,.35,0c6.2-.45,21.12-.34,26.05,10.37L60,44.56l-.48.21-.6-1.39C54.11,33,39.44,32.89,33.37,33.34h-.16l-.05,0-.27,0Z"/><path d="M13.06,81l.36-.43.16.16c3,3.7,13.81,15.43,25.29,11.17l1.41-.51.16.51-1.4.48C27.28,96.71,16.27,84.77,13.17,81Z"/><path d="M13.06,80.8v-.11l.28-.27C17.35,75.7,28,65.21,39,69.33l1.4.51-.16.5-1.41-.54c-10.75-4-21.19,6.36-25.16,11l-.08.16-.05,0-.14.16Z"/><path d="M33,128.24l.17,0,.08,0c4.74.46,20.65,1,25.75-10l.65-1.35.46.22-.65,1.35c-5.23,11.38-21.44,10.73-26.29,10.3H33Z"/><path d="M32.7,124.52c0-7.15,1.51-18.26,10.46-22.36l1.38-.65.21.54-1.37.6C33,107.39,32.91,122.12,33.32,128.16l0,.16,0,.05,0,.27-.49.06,0-.06v0l-.06-.06,0-.32C32.72,127.19,32.7,125.94,32.7,124.52Z"/><path d="M80.59,148.06l.14-.11c3.66-3.07,15.34-13.91,11.13-25.29l-.51-1.38.51-.19.49,1.38c4.37,11.67-7.55,22.76-11.27,25.86l-.14.11Z"/><path d="M68.4,127.67a14.9,14.9,0,0,1,.89-5.2l.57-1.38.46.19-.51,1.38c-4,10.7,6.33,21.14,10.92,25.13l.13.11h.08l.17.16-.35.4,0,0h-.11l-.24-.27C76.44,144.77,68.4,136.68,68.4,127.67Z"/><path d="M116.94,101.89l.22-.43,1.3.59c11.38,5.21,10.78,21.44,10.3,26.32v.11l-.54.05v-.24c.48-4.75,1.08-20.68-10-25.75Z"/><path d="M101.52,117l.54-.21.59,1.34c4.75,10.41,19.42,10.52,25.51,10.09l.17-.05,0-.06h.22l.1.43,0,.06v0h-.05l-.06.06h-.32c-6.21.43-21.14.35-26-10.36Z"/><path d="M97,42.2C105,24.4,132.75,28,133,28l0,.85h-.16c-.27,0-27.35-3.55-35.17,13.67Z"/><path d="M118.83,63.65c17.1-7.73,13.76-34.87,13.7-35.13v-.23h.87v.19c0,.21,3.5,28-14.14,36Z"/><path d="M63.63,34.74C63.63,21,77,9.31,80.3,6.59a.56.56,0,0,1,.46-.26v.88a.34.34,0,0,0,.35-.31v.2l-.17.11c-3.61,2.92-21.25,18.27-15.15,34.47L65,42A20.52,20.52,0,0,1,63.63,34.74Z"/><path d="M80.27,7.1V6.9a.31.31,0,0,0,.32.31V6.33a.54.54,0,0,1,.44.26C84.94,9.74,102.65,25.37,96.4,42l-.81-.31C101.68,25.52,84,10.13,80.38,7.21Z"/><path d="M27.74,34.34c0-3.44.26-5.76.26-5.86h.92v.15c0,.23-3.48,27.33,13.65,35.1l-.38.82C29.54,58.8,27.74,43,27.74,34.34Z"/><path d="M28.3,29v-.88h.14c2.86-.31,28.34-2.5,36,14.18l-.81.33C56.27,26.53,31.3,28.69,28.49,29Z"/><path d="M6.49,81l.59-.59.11.08c.19.27,17.09,21.84,34.49,15.21l.32.81C24,103.4,7.21,82,6.54,81.12Z"/><path d="M6.49,80.64l0-.11C7.21,79.67,24,58.28,42,65.12l-.32.85C24.34,59.36,7.91,80.21,7.21,81.12l-.13.11Z"/><path d="M28.44,132.58h.19c.29,0,27.32,3.5,35.11-13.59l.78.32c-8.06,17.69-35.76,14.19-36,14.19Z"/><path d="M27.87,127.45c0-8.68,1.78-24.62,14.4-30.41l.38.81C26.5,105.23,28.68,130.15,29,133v.19h-.86v-.13A53.12,53.12,0,0,1,27.87,127.45Z"/><path d="M80.43,154.64v-.22l.16-.1c3.59-2.92,21.25-18.21,15.16-34.52l.81-.33c6.31,16.72-11.49,32.28-15.35,35.47a.57.57,0,0,1-.45.21v-.83A.33.33,0,0,0,80.43,154.64Z"/><path d="M63.77,126.75a20.85,20.85,0,0,1,1.37-7.28l.81.33c-6,16.26,11.57,31.6,15.16,34.52l.16.1v.22a.33.33,0,0,0-.33-.32v.83a.63.63,0,0,1-.46-.21C77.2,152.21,63.77,140.51,63.77,126.75Z"/><path d="M119,97.79l.32-.81c17.8,8.09,14.19,35.76,14.13,36l-.81.06v-.17C132.7,132.58,136.2,105.58,119,97.79Z"/><path d="M97,119.23l.81-.35c7.71,17.1,34.85,13.7,35.11,13.64h.27v.87h-.16C132.8,133.39,105.08,137,97,119.23Z"/><rect x="148.12" y="80.5" width="6.63" height="0.49"/><polygon points="145.85 77.98 149.79 75.34 150.06 75.76 146.13 78.43 145.85 77.98"/><polygon points="143.05 75.29 146.99 72.79 147.26 73.24 143.32 75.73 143.05 75.29"/><polygon points="138.95 72.21 142.57 69.49 142.89 69.89 139.27 72.62 138.95 72.21"/><polygon points="141.06 73.67 144.51 70.82 144.83 71.23 141.33 74.06 141.06 73.67"/><line x1="139.11" y1="68.02" x2="136.04" y2="70.66"/><polygon points="132.91 69.12 136.63 66.14 136.9 66.55 133.24 69.53 132.91 69.12"/><polygon points="128.54 68.25 132.91 65.17 133.18 65.61 128.81 68.72 128.54 68.25"/><polygon points="123.63 68.81 128.49 64.04 128.87 64.44 123.96 69.2 123.63 68.81"/><polygon points="120.94 68.89 123.58 64.16 124.01 64.39 121.42 69.15 120.94 68.89"/><polygon points="147.04 79.2 152.49 77.96 152.6 78.48 147.21 79.72 147.04 79.2"/><line x1="149.96" y1="85.71" x2="145.96" y2="83.01"/><line x1="147.1" y1="88.35" x2="143.16" y2="85.76"/><line x1="142.73" y1="91.75" x2="139.11" y2="88.95"/><line x1="144.67" y1="90.35" x2="141.16" y2="87.49"/><line x1="139.11" y1="93.48" x2="136.04" y2="90.75"/><line x1="136.79" y1="95.18" x2="133.07" y2="92.07"/><line x1="133.07" y1="96.17" x2="128.7" y2="92.99"/><line x1="128.7" y1="97.33" x2="123.74" y2="92.4"/><line x1="123.74" y1="97.28" x2="121.15" y2="92.4"/><line x1="152.54" y1="83.01" x2="147.1" y2="81.75"/><polygon points="128.27 32.89 128.33 32.84 132.86 28.27 133.29 28.63 133.13 28.74 128.6 33.26 128.27 32.89"/><polygon points="124.82 32.8 125.74 28.12 126.28 28.23 125.31 32.89 124.82 32.8"/><polygon points="120.94 32.84 121.96 28.3 122.45 28.43 121.48 33 120.94 32.84"/><polygon points="115.87 33.54 116.51 29.04 117 29.14 116.41 33.62 115.87 33.54"/><polygon points="118.35 33.15 118.78 28.69 119.32 28.74 118.83 33.2 118.35 33.15"/><line x1="113.01" y1="30.48" x2="112.74" y2="34.51"/><polygon points="109.45 35.64 109.93 30.94 110.42 30.99 109.93 35.72 109.45 35.64"/><polygon points="105.73 38.14 106.64 32.84 107.13 32.95 106.21 38.25 105.73 38.14"/><polygon points="102.65 42.05 102.71 35.19 103.25 35.19 103.14 42.05 102.65 42.05"/><line x1="99.53" y1="38.7" x2="100.98" y2="43.9"/><polygon points="126.55 32.74 129.51 28.07 129.95 28.32 126.98 33.05 126.55 32.74"/><polygon points="128.44 35.98 133.13 35.08 133.24 35.56 128.54 36.49 128.44 35.98"/><polygon points="128.38 39.89 132.96 38.96 133.13 39.45 128.49 40.4 128.38 39.89"/><polygon points="127.79 45.03 132.32 44.46 132.37 44.97 127.89 45.54 127.79 45.03"/><polygon points="128.22 42.51 132.7 42.09 132.75 42.63 128.22 43.05 128.22 42.51"/><line x1="131.02" y1="48.49" x2="126.92" y2="48.75"/><polygon points="125.74 51.55 130.54 51.08 130.59 51.59 125.84 52.07 125.74 51.55"/><polygon points="123.26 55.25 128.6 54.43 128.7 54.91 123.36 55.76 123.26 55.25"/><line x1="122.88" y1="62.03" x2="117.59" y2="60.44"/><polygon points="128.22 34.28 132.96 31.36 133.24 31.81 128.54 34.74 128.22 34.28"/><polygon points="80.48 13.31 80.48 13.22 80.48 6.79 81.03 6.79 81.03 6.95 81.03 13.34 80.48 13.31"/><line x1="75.55" y1="11.57" x2="78.22" y2="15.55"/><line x1="73.01" y1="14.39" x2="75.52" y2="18.36"/><line x1="69.67" y1="18.76" x2="72.42" y2="22.42"/><line x1="71.05" y1="16.83" x2="73.88" y2="20.35"/><line x1="68.03" y1="22.42" x2="70.64" y2="25.48"/><line x1="66.35" y1="24.72" x2="69.32" y2="28.48"/><line x1="65.36" y1="28.48" x2="68.49" y2="32.84"/><line x1="64.25" y1="32.84" x2="69.02" y2="37.73"/><line x1="64.28" y1="37.73" x2="69.05" y2="40.35"/><line x1="78.22" y1="8.97" x2="79.43" y2="14.39"/><polygon points="82.78 15.38 85.47 11.41 85.93 11.72 83.23 15.69 82.78 15.38"/><polygon points="85.53 18.2 88.12 14.24 88.55 14.55 85.99 18.45 85.53 18.2"/><polygon points="88.74 22.25 91.51 18.61 91.97 18.92 89.17 22.56 88.74 22.25"/><polygon points="87.23 20.2 90.17 16.66 90.55 17.02 87.66 20.52 87.23 20.2"/><line x1="93.43" y1="22.42" x2="90.76" y2="25.48"/><polygon points="91.89 28.3 94.99 24.57 95.37 24.94 92.3 28.63 91.89 28.3"/><polygon points="92.78 32.66 95.97 28.32 96.4 28.63 93.16 33 92.78 32.66"/><polygon points="92.22 37.55 97.15 32.64 97.53 33.03 92.59 37.91 92.22 37.55"/><polygon points="92.3 40.15 97.15 37.52 97.42 37.99 92.54 40.6 92.3 40.15"/><polygon points="81.48 14.35 82.75 8.92 83.26 9.05 81.97 14.45 81.48 14.35"/><polygon points="28.25 28.63 28.65 28.27 28.76 28.38 33.29 32.95 32.89 33.26 32.81 33.15 28.25 28.63"/><line x1="28.17" y1="35.52" x2="32.83" y2="36.44"/><line x1="28.33" y1="39.32" x2="32.89" y2="40.32"/><line x1="29.08" y1="44.77" x2="33.62" y2="45.41"/><line x1="28.71" y1="42.43" x2="33.18" y2="42.91"/><line x1="30.51" y1="48.49" x2="34.51" y2="48.83"/><line x1="30.97" y1="51.34" x2="35.69" y2="51.86"/><line x1="32.89" y1="54.63" x2="38.2" y2="55.56"/><line x1="35.21" y1="58.54" x2="42" y2="58.65"/><polygon points="38.63 61.72 43.84 60.24 43.97 60.72 38.77 62.23 38.63 61.72"/><line x1="28.2" y1="31.81" x2="32.89" y2="34.74"/><line x1="35.34" y1="28.32" x2="36.23" y2="33.05"/><line x1="39.22" y1="28.48" x2="40.17" y2="33.11"/><line x1="44.73" y1="29.14" x2="45.29" y2="33.66"/><line x1="42.33" y1="28.78" x2="42.78" y2="33.31"/><line x1="48.5" y1="30.51" x2="48.74" y2="34.59"/><line x1="51.33" y1="30.94" x2="51.79" y2="35.75"/><line x1="54.65" y1="32.89" x2="55.51" y2="38.22"/><rect x="58.32" y="35.16" width="0.54" height="6.93"/><polygon points="60.21 43.84 61.8 38.57 62.28 38.7 60.69 44.02 60.21 43.84"/><line x1="31.57" y1="28.43" x2="34.51" y2="33.15"/><polygon points="6.73 80.99 6.78 80.48 6.97 80.5 13.23 80.48 13.39 80.53 13.34 81.04 13.17 80.99 6.97 80.99 6.73 80.99"/><polygon points="11.45 85.71 15.38 83.12 15.68 83.5 11.72 86.19 11.45 85.71"/><polygon points="14.25 88.3 18.22 85.76 18.43 86.19 14.55 88.7 14.25 88.3"/><polygon points="18.62 91.64 22.26 88.89 22.59 89.32 18.92 92.07 18.62 91.64"/><polygon points="16.68 90.24 20.21 87.44 20.51 87.81 17 90.67 16.68 90.24"/><line x1="22.42" y1="93.48" x2="25.47" y2="90.86"/><polygon points="24.58 94.99 28.3 91.99 28.63 92.4 24.9 95.36 24.58 94.99"/><polygon points="28.33 95.9 32.7 92.83 32.99 93.21 28.6 96.36 28.33 95.9"/><polygon points="32.67 97.09 37.55 92.29 37.9 92.67 32.99 97.47 32.67 97.09"/><polygon points="37.53 97.09 40.11 92.34 40.6 92.61 37.98 97.33 37.53 97.09"/><polygon points="8.91 83.07 14.31 81.83 14.44 82.31 9.05 83.55 8.91 83.07"/><line x1="11.56" y1="75.8" x2="15.52" y2="78.52"/><line x1="14.42" y1="73.16" x2="18.33" y2="75.76"/><line x1="18.78" y1="69.74" x2="22.42" y2="72.56"/><line x1="16.84" y1="71.17" x2="20.35" y2="74.06"/><line x1="22.42" y1="68.05" x2="25.47" y2="70.77"/><line x1="24.72" y1="66.35" x2="28.44" y2="69.38"/><line x1="28.44" y1="65.35" x2="32.81" y2="68.5"/><line x1="32.81" y1="64.16" x2="37.71" y2="69.07"/><line x1="37.74" y1="64.22" x2="40.36" y2="69.07"/><line x1="8.99" y1="78.52" x2="14.39" y2="79.78"/><polygon points="28.25 132.85 28.41 132.77 32.91 128.24 33.27 128.64 33.18 128.7 28.63 133.25 28.25 132.85"/><polygon points="35.26 133.31 36.2 128.64 36.72 128.75 35.77 133.39 35.26 133.31"/><polygon points="39.04 133.12 40.09 128.53 40.57 128.64 39.58 133.2 39.04 133.12"/><polygon points="44.54 132.37 45.16 127.89 45.67 127.94 45.02 132.47 44.54 132.37"/><polygon points="42.16 132.8 42.65 128.32 43.16 128.37 42.7 132.85 42.16 132.8"/><line x1="48.53" y1="131.04" x2="48.83" y2="126.97"/><polygon points="51.09 130.53 51.6 125.78 52.12 125.84 51.6 130.58 51.09 130.53"/><polygon points="54.38 128.59 55.27 123.3 55.78 123.36 54.92 128.64 54.38 128.59"/><polygon points="58.29 126.32 58.37 119.47 58.88 119.47 58.86 126.32 58.29 126.32"/><line x1="61.99" y1="122.82" x2="60.47" y2="117.64"/><polygon points="31.57 133.15 34.51 128.48 34.96 128.75 32.02 133.44 31.57 133.15"/><polygon points="28.25 125.89 32.99 125.03 33.08 125.54 28.38 126.43 28.25 125.89"/><polygon points="28.41 122.06 33.02 121.09 33.13 121.63 28.52 122.55 28.41 122.06"/><polygon points="29.14 116.53 33.64 115.97 33.75 116.48 29.19 117.07 29.14 116.53"/><polygon points="28.76 118.88 33.29 118.45 33.32 118.99 28.81 119.42 28.76 118.88"/><line x1="30.54" y1="113" x2="34.56" y2="112.73"/><polygon points="30.92 109.9 35.69 109.41 35.77 109.98 30.97 110.44 30.92 109.9"/><polygon points="32.86 106.58 38.2 105.77 38.23 106.26 32.91 107.09 32.86 106.58"/><line x1="38.66" y1="99.49" x2="43.92" y2="101.05"/><polygon points="28.27 129.72 32.99 126.75 33.29 127.21 28.55 130.13 28.27 129.72"/><polyline points="80.73 154.75 80.75 154.56 80.73 148.27 80.75 148.17"/><line x1="85.96" y1="149.95" x2="83.32" y2="145.96"/><line x1="88.47" y1="147.14" x2="86.01" y2="143.18"/><line x1="91.84" y1="142.72" x2="89.09" y2="139.11"/><line x1="90.44" y1="144.66" x2="87.63" y2="141.15"/><line x1="93.48" y1="139.11" x2="90.87" y2="136.03"/><line x1="95.21" y1="136.79" x2="92.16" y2="133.12"/><line x1="96.13" y1="133.12" x2="93.02" y2="128.7"/><line x1="97.26" y1="128.7" x2="92.49" y2="123.79"/><line x1="97.21" y1="123.79" x2="92.49" y2="121.14"/><line x1="83.32" y1="152.53" x2="82.1" y2="147.14"/><polygon points="75.58 149.78 78.3 145.85 78.71 146.12 75.98 150.11 75.58 149.78"/><polygon points="72.96 146.95 75.52 143.04 75.96 143.31 73.39 147.25 72.96 146.95"/><polygon points="69.56 142.56 72.37 138.94 72.75 139.27 69.94 142.94 69.56 142.56"/><polygon points="70.97 144.45 73.85 140.99 74.23 141.32 71.37 144.82 70.97 144.45"/><line x1="68.08" y1="139.11" x2="70.75" y2="136.06"/><polygon points="66.11 136.6 69.19 132.9 69.62 133.2 66.52 136.95 66.11 136.6"/><polygon points="65.14 132.9 68.27 128.53 68.73 128.83 65.57 133.2 65.14 132.9"/><polygon points="63.95 128.53 68.92 123.6 69.27 123.95 64.33 128.88 63.95 128.53"/><polygon points="64.12 123.54 68.97 120.93 69.21 121.39 64.33 124 64.12 123.54"/><polygon points="78.25 152.48 79.52 147.03 80.05 147.2 78.76 152.59 78.25 152.48"/><polygon points="128.22 128.59 128.65 128.26 128.7 128.32 133.29 132.9 132.86 133.25 132.75 133.12 128.22 128.59"/><line x1="133.4" y1="126" x2="128.7" y2="125.06"/><line x1="133.18" y1="122.22" x2="128.6" y2="121.2"/><line x1="132.43" y1="116.72" x2="127.95" y2="116.07"/><line x1="132.8" y1="119.07" x2="128.33" y2="118.61"/><line x1="131.02" y1="113" x2="126.98" y2="112.71"/><line x1="130.54" y1="110.2" x2="125.85" y2="109.66"/><line x1="128.6" y1="106.91" x2="123.31" y2="105.96"/><line x1="126.33" y1="102.97" x2="119.48" y2="102.89"/><polygon points="117.54 100.78 122.77 99.25 122.88 99.79 117.7 101.3 117.54 100.78"/><line x1="133.34" y1="129.72" x2="128.6" y2="126.73"/><line x1="126.17" y1="133.2" x2="125.31" y2="128.48"/><line x1="122.29" y1="133.07" x2="121.37" y2="128.45"/><line x1="116.78" y1="132.36" x2="116.19" y2="127.81"/><line x1="119.21" y1="132.74" x2="118.78" y2="128.21"/><line x1="113.01" y1="130.99" x2="112.79" y2="126.92"/><line x1="110.15" y1="130.58" x2="109.72" y2="125.78"/><line x1="106.86" y1="128.64" x2="106" y2="123.3"/><rect x="102.65" y="119.42" width="0.54" height="6.96"/><polygon points="99.25 122.76 100.87 117.5 101.36 117.64 99.74 122.93 99.25 122.76"/><line x1="129.95" y1="133.12" x2="127.03" y2="128.37"/><path d="M122.61,80.37c11.92-.27,14.24-9.14,14.24-9.24l.81.21c0,.09-2.54,9.57-15,9.81Z"/><path d="M122.61,81.34v-.81c12.51.27,15,9.55,15,9.66l-.81.16C136.79,90,134.53,81.56,122.61,81.34Z"/><path d="M131.83,80.5c6.2-.08,9.06-3.18,10.36-5.81l.48.25c-1.4,2.72-4.36,6-10.84,6Z"/><path d="M131.83,81.1v-.51c6.75.16,9.6,3.8,10.74,5.9l-.43.24C141.06,84.68,138.31,81.29,131.83,81.1Z"/><path d="M130,109.23c.59-.71,5.76-6.26,15.42-2.32l-.32.7c-9.12-3.7-14,1.51-14.51,2.1Z"/><path d="M136.09,95.1h.76c0,2.91,1.13,8.27,8.52,11.64l-.32.7C137.28,103.91,136.09,98.17,136.09,95.1Z"/><path d="M127.41,104.32c1.62-1.14,5.12-2.75,10.3-.54l-.21.48c-4.91-2.1-8.2-.59-9.82.49Z"/><path d="M131,96.82l.48-.11c.55,2.05,2.06,4.91,6.37,7l-.22.43C133.07,102,131.51,99,131,96.82Z"/><path d="M135.66,65.63c0-1.85.6-8.43,9.23-12.08l.32.73c-9,3.84-8.79,10.89-8.74,11.76l-.81,0Z"/><path d="M130,51.78l.54-.54c2.1,2,6.74,5,14.29,2.22l.27.71C137.12,57.15,132.21,54,130,51.78Z"/><path d="M130.43,64.45c.32-2,1.67-5.6,6.85-7.69l.22.5c-5,2-6.26,5.39-6.58,7.27Z"/><path d="M127.63,56.61l.26-.43c1.79,1.08,4.91,2,9.44.46l.17.51C132.8,58.8,129.51,57.77,127.63,56.61Z"/><path d="M105.56,22.67a17,17,0,0,1,1.35-6.52l.71.31c-3.67,9.16,1.45,14,2.1,14.48l-.54.62A11.89,11.89,0,0,1,105.56,22.67Z"/><path d="M95.1,25.45v-.77c2.91,0,8.31-1.13,11.65-8.53l.7.31C103.79,24.57,97.58,25.45,95.1,25.45Z"/><path d="M102.71,28.77a12.35,12.35,0,0,1,1.08-5l.48.21c-2.16,4.93-.59,8.25.49,9.81l-.44.31A9.32,9.32,0,0,1,102.71,28.77Z"/><path d="M96.72,30.05c2-.51,4.91-2.07,7-6.35l.43.25C102,28.43,99,30,96.83,30.56Z"/><path d="M53.54,16.6l.73-.33c3.86,9.07,10.95,8.87,11.73,8.82l.06.79C65.22,25.91,57.62,26.14,53.54,16.6Z"/><path d="M51.23,30.94c2.05-2.05,5.07-6.62,2.18-14.23l.75-.28c3.11,8.35-.64,13.33-2.37,15.07Z"/><path d="M56.75,24.21l.52-.2c1.94,5,5.39,6.27,7.22,6.58l0,.51C62.47,30.74,58.86,29.4,56.75,24.21Z"/><path d="M56.16,33.62c1.08-1.81,2.08-4.88.49-9.41l.48-.2c1.67,4.73.62,8-.54,9.89Z"/><path d="M16.17,54.6l.27-.71c9.16,3.68,14-1.47,14.53-2l.6.51C31,53,25.8,58.51,16.17,54.6Z"/><path d="M16.14,54.79l.32-.73c8.12,3.66,9,9.77,9,12.29v.05h-.8v-.05C24.64,64,23.83,58.23,16.14,54.79Z"/><path d="M23.83,57.74l.18-.48c4.91,2.1,8.23.6,9.82-.5l.27.42C32.48,58.34,29,59.93,23.83,57.74Z"/><path d="M23.72,57.82l.21-.47c4.48,2.13,6.1,5.19,6.64,7.35l-.54.14C29.52,62.75,28,59.87,23.72,57.82Z"/><path d="M16.3,107.23c9.06-3.83,8.87-10.89,8.77-11.7l.81-.06c.1.89.29,8.42-9.34,12.46Z"/><path d="M16.44,107.34c8.3-3.13,13.32.65,15.1,2.37l-.59.59c-2-2.07-6.61-5.12-14.24-2.21Z"/><path d="M24,104.26c4.94-1.94,6.26-5.39,6.56-7.28l.56.11c-.37,2-1.75,5.61-6.9,7.66Z"/><path d="M24,104.4c4.72-1.67,8-.62,9.87.48l-.26.46c-1.81-1.08-4.91-2-9.44-.46Z"/><path d="M51.79,130.56l.54-.62c.65.59,6.2,5.77,2.27,15.4l-.71-.25C57.56,135.92,52.41,131,51.79,130.56Z"/><path d="M54.06,145c3.69-8.09,9.87-9,12.37-9v.76c-2.91,0-8.3,1.13-11.64,8.52Z"/><path d="M56.75,127.7l.44-.3c1.13,1.67,2.75,5.23.56,10.28l-.48-.19C59.4,132.58,57.8,129.24,56.75,127.7Z"/><path d="M57.32,137.62c2.19-4.5,5.23-6.12,7.39-6.66l.11.54c-2,.49-4.88,2-7,6.31Z"/><path d="M95.43,135.6c.86,0,8.46-.24,12.51,9.33l-.7.3c-3.83-9.09-10.95-8.82-11.76-8.79Z"/><path d="M106.11,138.83a12.3,12.3,0,0,1,3.66-8.84l.54.57c-2,2.07-5.07,6.66-2.21,14.24l-.75.29A18.11,18.11,0,0,1,106.11,138.83Z"/><path d="M97,131l.05-.54c2,.38,5.67,1.7,7.72,6.91l-.49.16C102.28,132.58,98.88,131.23,97,131Z"/><path d="M103.57,132.8a9.46,9.46,0,0,1,1.35-5.18l.48.27c-1.13,1.83-2.1,4.93-.54,9.44l-.48.16A14.9,14.9,0,0,1,103.57,132.8Z"/><path d="M116.68,44.46c4.37-4.47,4.15-8.68,3.23-11.41l.49-.18c.81,2.4,1.45,7.06-3.29,11.94Z"/><path d="M116.73,44.52c4.91-4.63,9.49-4.12,11.76-3.4l-.11.48c-2.21-.66-6.58-1.14-11.27,3.29Z"/><path d="M74.69,19.33l.27-.46c2.24,1.1,6,4,6.07,10.79h-.55C80.43,23.49,77.3,20.61,74.69,19.33Z"/><path d="M80.59,29.71c.17-6.78,3.78-9.64,5.88-10.73l.24.46c-2,1-5.44,3.8-5.6,10.27Z"/><path d="M32.89,41.12c2.37-.8,7.06-1.39,11.94,3.34l-.4.35C40,40.5,35.8,40.71,33.07,41.6Z"/><path d="M40.66,36.09A10.59,10.59,0,0,1,41.11,33l.51.15c-.7,2.16-1.18,6.55,3.29,11.26l-.37.36C41.46,41.54,40.66,38.48,40.66,36.09Z"/><path d="M18.89,86.6c1.35-2.75,4.37-6,10.76-6.07V81c-6.15.06-9,3.19-10.33,5.75Z"/><path d="M19,75l.46-.26c1.05,2,3.83,5.44,10.28,5.65l0,.54C23,80.75,20.08,77.15,19,75Z"/><path d="M40.57,125.3a12.22,12.22,0,0,1,3.86-8.58l.4.35c-4.34,4.4-4.12,8.63-3.21,11.38l-.51.19A11.37,11.37,0,0,1,40.57,125.3Z"/><path d="M33,120.39l.17-.49c2.18.65,6.58,1.14,11.21-3.28l.38.37C39.85,121.63,35.29,121.09,33,120.39Z"/><path d="M80.48,131.88H81c.08,6.15,3.18,9,5.79,10.25l-.24.48C84.37,141.51,80.59,138.65,80.48,131.88Z"/><path d="M74.77,142.1c2-1.11,5.45-3.8,5.61-10.33l.54,0c-.19,6.75-3.78,9.63-5.94,10.71Z"/><path d="M116.68,117.07l.43-.35c4.42,4.26,8.57,4.1,11.38,3.18l.16.49C126.28,121.17,121.53,121.79,116.68,117.07Z"/><path d="M116.62,117.1l.38-.32c4.64,4.85,4.1,9.43,3.4,11.75l-.54-.16C120.56,126.19,121.05,121.79,116.62,117.1Z"/><path d="M110.1,50.85c8.2-8.55,3.61-16.51,3.56-16.57l.64-.4c.06.06,5,8.52-3.67,17.51Z"/><path d="M110.2,51c9.06-8.63,17.37-3.83,17.43-3.8l-.38.66c-.33-.15-7.93-4.52-16.51,3.68Z"/><path d="M71.13,24.65l.21-.75c.08,0,9.55,2.47,9.79,15h-.78C80.11,27,71.5,24.72,71.13,24.65Z"/><path d="M80.54,38.85c.22-12.48,9.52-15,9.63-15l.19.75c-.35.07-8.8,2.36-9,14.2Z"/><path d="M33.86,47.21c.11-.05,8.57-5,17.55,3.62l-.59.62c-8.55-8.26-16.45-3.66-16.53-3.55Z"/><path d="M45.81,39.81a12.47,12.47,0,0,1,1.4-5.93l.67.4c-.19.31-4.53,7.92,3.67,16.48L51,51.3C46.88,47,45.81,42.94,45.81,39.81Z"/><path d="M23.88,90.19c0-.11,2.48-9.55,15-9.82v.78c-11.89.24-14.21,9.12-14.23,9.2Z"/><path d="M23.88,71.34l.76-.21c.08.35,2.4,8.81,14.23,9V81C26.36,80.75,23.91,71.43,23.88,71.34Z"/><path d="M45.78,121.52c0-3.18,1.08-7.22,5-11.43l.59.54c-8.25,8.6-3.58,16.5-3.53,16.61l-.67.43A13.39,13.39,0,0,1,45.78,121.52Z"/><path d="M33.86,114.3l.43-.68c.32.22,7.87,4.56,16.42-3.64l.54.57C42.27,119.18,34,114.35,33.86,114.3Z"/><path d="M80.38,122.66l.75-.06c.27,11.89,8.88,14.19,9.23,14.24l-.19.78C90.06,137.62,80.62,135.12,80.38,122.66Z"/><path d="M71.13,136.84c.37-.05,8.84-2.35,9.06-14.18H81c-.24,12.46-9.55,15-9.63,15Z"/><path d="M110.1,110.63l.53-.54c8.63,8.2,16.51,3.58,16.62,3.53l.38.68C127.57,114.35,119.1,119.31,110.1,110.63Z"/><path d="M110,110.79l.59-.54c8.63,9,3.78,17.31,3.78,17.42l-.7-.43C113.87,126.92,118.19,119.37,110,110.79Z"/><path d="M132.48,43.44l.05.4v-.4a13.77,13.77,0,0,1,2.16-.19A15.31,15.31,0,0,1,150,58.54a15.14,15.14,0,0,1-6,12.18l-.54-.72a14.12,14.12,0,0,0,5.72-11.46,14.44,14.44,0,0,0-14.46-14.42c-.7,0-1.29.09-2,.15l-.17-.43Z"/><path d="M90.9,17.79l.16-.2a13.85,13.85,0,0,1,1.29-1.5,15.26,15.26,0,0,1,21.68,0,15.1,15.1,0,0,1,4.32,12.85l-.86-.13a14.05,14.05,0,0,0-4.1-12.1,14.27,14.27,0,0,0-10.2-4.25A14.45,14.45,0,0,0,93,16.71a18.53,18.53,0,0,0-1.24,1.42l-.13.17Z"/><path d="M43.24,26.78A15.29,15.29,0,0,1,58.56,11.52a15.09,15.09,0,0,1,12.16,6l-.72.52a14.17,14.17,0,0,0-11.44-5.68A14.43,14.43,0,0,0,44.13,26.78a21.17,21.17,0,0,0,.14,2.16l-.86.1A21.23,21.23,0,0,1,43.24,26.78Z"/><path d="M11.61,58.28A15.23,15.23,0,0,1,16.09,47.5,15,15,0,0,1,29,43.15l-.14.87a14.12,14.12,0,0,0-12.1,4.08,14.41,14.41,0,0,0,0,20.4,12.94,12.94,0,0,0,1.59,1.39l-.52.73a21.32,21.32,0,0,1-1.69-1.47A15.17,15.17,0,0,1,11.61,58.28Z"/><path d="M11.5,103a15.08,15.08,0,0,1,6-12.16l.54.67A14.33,14.33,0,0,0,12.36,103,14.5,14.5,0,0,0,26.79,117.4a20.42,20.42,0,0,0,2.16-.19l.08.89a19.45,19.45,0,0,1-2.24.13A15.31,15.31,0,0,1,11.5,103Z"/><path d="M43,134.68a13.23,13.23,0,0,1,.16-2.1l.86.11a14.17,14.17,0,0,0,4,12.11,14.41,14.41,0,0,0,20.47,0,17,17,0,0,0,1.35-1.62l.7.56a15.63,15.63,0,0,1-1.46,1.68A15.31,15.31,0,0,1,43,134.68Z"/><path d="M90.82,144l.64-.49a14.45,14.45,0,0,0,25.92-8.79c0-.75-.11-1.37-.16-2.1l.86-.11a14,14,0,0,1,.16,2.21A15.26,15.26,0,0,1,103,150,15.09,15.09,0,0,1,90.82,144Z"/><path d="M132.53,118.34l.17-.83A14.43,14.43,0,0,0,144.83,93a17.55,17.55,0,0,0-1.62-1.35l.54-.7a11,11,0,0,1,1.67,1.46,15.26,15.26,0,0,1,0,21.63A15.09,15.09,0,0,1,132.53,118.34Z"/><path d="M91.46,18.51a15.76,15.76,0,0,1,21.23.82A15.41,15.41,0,0,1,117.06,29l-.6.05a14.72,14.72,0,0,0-4.21-9.34A15.11,15.11,0,0,0,91.89,19Z"/><path d="M44.29,29.14A15.72,15.72,0,0,1,59.86,14.81a14.79,14.79,0,0,1,10,3.7l-.4.48a14.23,14.23,0,0,0-9.6-3.59A15,15,0,0,0,44.94,29.2Z"/><path d="M14.79,59.93a15.64,15.64,0,0,1,4.53-11A15,15,0,0,1,29,44.46l0,.61a14.53,14.53,0,0,0-9.33,4.25A15,15,0,0,0,19,69.64l-.43.36A15.17,15.17,0,0,1,14.79,59.93Z"/><path d="M14.77,101.65a14.92,14.92,0,0,1,3.77-10l.46.43a14.23,14.23,0,0,0-3.62,9.58,15,15,0,0,0,13.81,14.91l-.05.65A15.71,15.71,0,0,1,14.77,101.65Z"/><path d="M44.43,132.47l.62-.05a14.62,14.62,0,0,0,4.26,9.33,15.06,15.06,0,0,0,20.34.78L70,143a15.62,15.62,0,0,1-21.12-.84A15.19,15.19,0,0,1,44.43,132.47Z"/><path d="M91.62,143l.41-.46a14.59,14.59,0,0,0,9.65,3.59,15.06,15.06,0,0,0,14.94-13.81l.6.05a15.61,15.61,0,0,1-15.54,14.35A15.27,15.27,0,0,1,91.62,143Z"/><path d="M132.43,116.43a14.29,14.29,0,0,0,9.33-4.24,15.11,15.11,0,0,0,.81-20.3l.48-.41a15.72,15.72,0,0,1-.86,21.17,15.14,15.14,0,0,1-9.71,4.42Z"/><path d="M132.32,45l.05-.6a15.57,15.57,0,0,1,14.35,15.5,14.78,14.78,0,0,1-3.72,10l-.43-.41a14.48,14.48,0,0,0,3.56-9.58A15,15,0,0,0,132.32,45Z"/><path d="M144.34,66.86c1.14-.72,2.32-1.39,3.62-2.1l.27.53c-1.19.71-2.43,1.39-3.56,2.08Z"/><path d="M149.15,62.14c-.44.28-.87.51-1.35.77a22.23,22.23,0,0,1-2.05,1.23"/><path d="M149.52,59.67c-.91.54-1.78,1-2.64,1.59a2.83,2.83,0,0,0-.59.37"/><path d="M146.34,59.31c1.08-.6,2.21-1.19,3.18-1.82"/><path d="M146.18,57c1-.58,2.1-1.22,3.07-1.71"/><path d="M145.64,55.14c1-.61,2-1.14,3-1.74"/><path d="M144.94,53.4c1-.62,1.94-1.24,2.86-1.78"/><path d="M144,51.55c1-.51,2-1.16,2.8-1.64"/><path d="M142.73,50a17.64,17.64,0,0,0,2.75-1.57"/><path d="M141.38,48.67c.86-.57,1.78-1.05,2.59-1.59"/><path d="M139.71,47.25c.86-.43,1.72-.94,2.53-1.45"/><path d="M140.25,44.72c-.76.46-1.51.87-2.27,1.33,0,0-.11,0-.11.08"/><path d="M137.71,44c-.32.17-.43.26-.7.43-.54.23-1,.62-1.51.88"/><path d="M132.64,44.61c.49-.23,1.13-.59,1.67-.92"/><path d="M91.46,18.51a15.76,15.76,0,0,1,21.23.82A15.41,15.41,0,0,1,117.06,29l-.6.05a14.72,14.72,0,0,0-4.21-9.34A15.11,15.11,0,0,0,91.89,19Z"/><path d="M115.92,26c.27-1.24.65-2.52,1-4l.6.15c-.38,1.51-.76,2.75-1,4Z"/><path d="M116,19.23c-.17.49-.28,1-.44,1.49-.16.79-.32,1.61-.54,2.36"/><path d="M114.46,17.28c-.27,1-.48,1.95-.7,2.92-.05.21-.16.52-.21.69"/><path d="M112,19.23c.32-1.16.7-2.42.91-3.5"/><path d="M110.26,17.74c.32-1.19.65-2.34.92-3.39"/><path d="M108.53,16.77c.27-1.14.65-2.22.86-3.35"/><path d="M106.81,16c.27-1.09.48-2.21.81-3.25"/><path d="M104.81,15.4c.32-1.05.59-2.18.81-3.16"/><path d="M102.81,15.17a24,24,0,0,0,.81-3"/><path d="M100.93,15.22c.27-1,.48-2,.75-3"/><path d="M98.72,15.4a18.74,18.74,0,0,0,.75-2.85"/><path d="M97.31,13.22c-.16.82-.43,1.69-.64,2.56,0,0-.11.06,0,.11"/><path d="M95,14.47c0,.34-.16.49-.21.8-.16.57-.3,1.13-.46,1.67"/><path d="M91.89,18.53c.14-.54.33-1.2.46-1.82"/><path d="M44.29,29.14A15.72,15.72,0,0,1,59.86,14.81a14.79,14.79,0,0,1,10,3.7l-.4.48a14.23,14.23,0,0,0-9.6-3.59A15,15,0,0,0,44.94,29.2Z"/><path d="M64.76,13.57l.54-.3c.65,1.18,1.35,2.46,2.11,3.56l-.54.34C66.14,16,65.41,14.76,64.76,13.57Z"/><path d="M62.12,12.4c.27.4.54.85.81,1.28.43.71.84,1.39,1.24,2.1"/><path d="M59.42,12.17l.52-.31c.53.89,1.05,1.76,1.61,2.64a.91.91,0,0,0,.14.31c.05.1.16.2.22.31l-.57.28a1.26,1.26,0,0,0-.19-.28,3.07,3.07,0,0,1-.16-.31C60.47,13.93,59.94,13.06,59.42,12.17Z"/><path d="M57.24,12.18l.51-.32c.46.69.89,1.48,1.3,2.22.18.31.37.65.56.93l-.56.31c-.17-.31-.33-.62-.52-.93C58.1,13.65,57.67,12.86,57.24,12.18Z"/><path d="M55,12.45l.56-.31c.33.61.71,1.28,1.08,1.94l.65,1.11-.54.28-.62-1.08C55.78,13.73,55.4,13.06,55,12.45Z"/><path d="M55.14,15.89c-.62-1-1.16-2.06-1.73-3"/><path d="M51.39,13.83l.51-.29c.46.83,1,1.68,1.51,2.5l.24.36-.51.34-.27-.39C52.36,15.53,51.84,14.7,51.39,13.83Z"/><path d="M51.55,17.53c-.51-1-1.13-1.9-1.65-2.77"/><path d="M50,18.76A21.48,21.48,0,0,0,48.42,16"/><path d="M48.66,20.15c-.53-.88-1-1.74-1.56-2.62"/><path d="M47.23,21.8a18.76,18.76,0,0,0-1.45-2.53"/><path d="M44.73,21.28c.45.72.88,1.5,1.29,2.3,0,0,0,.06.11.09"/><path d="M43.94,23.86c.19.25.25.4.43.66.28.54.6,1,.89,1.5"/><path d="M44.65,28.89c-.28-.51-.6-1.13-.95-1.65"/><path d="M14.79,59.93a15.64,15.64,0,0,1,4.53-11A15,15,0,0,1,29,44.46l0,.61a14.53,14.53,0,0,0-9.33,4.25A15,15,0,0,0,19,69.64l-.43.36A15.17,15.17,0,0,1,14.79,59.93Z"/><path d="M21.91,44.56l.16-.57c1.38.36,2.73.73,4.05,1l-.14.6C24.66,45.31,23.26,44.92,21.91,44.56Z"/><path d="M19.16,45.85l.13-.57a7.09,7.09,0,0,1,.76.18,4.24,4.24,0,0,0,.76.17c.78.19,1.61.4,2.37.63l-.22.62a16.74,16.74,0,0,0-2.29-.62,5.64,5.64,0,0,0-.78-.21A5,5,0,0,0,19.16,45.85Z"/><path d="M17.17,47.33l.18-.56c.43.11.92.2,1.35.33l1.57.42.24,0a1.83,1.83,0,0,1,.48.14l-.18.56a1.58,1.58,0,0,0-.46-.1l-.19-.06c-.54-.15-1.05-.31-1.57-.4S17.65,47.47,17.17,47.33Z"/><path d="M15.63,48.93l.13-.61c.76.15,1.59.38,2.38.61l1.18.31-.16.59L18,49.49C17.17,49.26,16.44,49.09,15.63,48.93Z"/><path d="M14.25,50.62l.19-.56c.67.16,1.4.36,2.1.56.46.14.84.21,1.3.37l-.19.56c-.43-.1-.83-.21-1.21-.31C15.68,51,14.93,50.83,14.25,50.62Z"/><path d="M16.76,53c-1.08-.25-2.21-.6-3.32-.85"/><path d="M12.63,54.22l.19-.62c1,.31,2.16.57,3.27.83L16,55C14.87,54.79,13.71,54.53,12.63,54.22Z"/><path d="M15.38,56.69c-1-.31-2.15-.54-3.12-.77"/><path d="M12.1,58.18l.08-.61a25.08,25.08,0,0,1,3.1.82L15,59A27.63,27.63,0,0,0,12.1,58.18Z"/><path d="M15.22,60.59c-1-.26-2-.49-3-.72"/><path d="M15.38,62.75a19.17,19.17,0,0,0-2.8-.72"/><path d="M13.23,64.19c.83.17,1.64.44,2.56.67a.07.07,0,0,0,.11,0"/><path d="M14.5,66.54a5,5,0,0,0,.78.17c.56.2,1.16.26,1.67.46"/><path d="M18.54,69.64a13.53,13.53,0,0,0-1.83-.52"/><path d="M14.77,101.65a14.92,14.92,0,0,1,3.77-10l.46.43a14.23,14.23,0,0,0-3.62,9.58,15,15,0,0,0,13.81,14.91l-.05.65A15.71,15.71,0,0,1,14.77,101.65Z"/><path d="M13.26,96.2c1.29-.67,2.48-1.38,3.58-2.08l.33.54c-1.16.68-2.35,1.4-3.59,2Z"/><path d="M12.36,99.36c.41-.22.87-.49,1.35-.76a21.45,21.45,0,0,1,2.11-1.27"/><path d="M12,101.81c.86-.51,1.7-1,2.62-1.54l.62-.38"/><path d="M15.2,102.16C14.12,102.78,13,103.4,12,104"/><path d="M15.36,104.48c-1.08.59-2.13,1.19-3.1,1.7"/><path d="M15.9,106.37c-1,.64-2.05,1.13-3,1.78"/><path d="M16.54,108.15c-.94.59-1.88,1.21-2.83,1.72"/><path d="M17.52,110c-1,.54-1.92,1.14-2.78,1.68"/><path d="M18.76,111.52c-.84.46-1.81,1-2.75,1.59"/><path d="M20.16,112.84c-.89.54-1.73,1-2.62,1.56"/><path d="M21.83,114.24a19.57,19.57,0,0,0-2.56,1.51"/><path d="M21.29,116.78c.7-.46,1.51-.84,2.24-1.3,0,0,.08,0,.11-.11"/><path d="M23.85,117.59a3.93,3.93,0,0,1,.68-.44c.54-.29.94-.64,1.51-.91"/><path d="M28.92,116.88a7.65,7.65,0,0,0-1.67,1"/><path d="M44.43,132.47l.62-.05a14.62,14.62,0,0,0,4.26,9.33,15.06,15.06,0,0,0,20.34.78L70,143a15.62,15.62,0,0,1-21.12-.84A15.19,15.19,0,0,1,44.43,132.47Z"/><path d="M44,139.43l.14-.48c.26-1.19.62-2.41.89-3.59l.61.16c-.26,1.16-.61,2.4-.91,3.59l-.11.48Z"/><path d="M45.56,142.29c.11-.54.25-1,.35-1.51.22-.81.41-1.59.65-2.32"/><path d="M47.05,144.26c.24-1,.51-2,.75-3,0-.21.13-.48.16-.64"/><path d="M49.55,142.29c-.35,1.13-.72,2.37-1,3.53"/><path d="M51.25,143.8c-.32,1.13-.62,2.32-.92,3.34"/><path d="M53,144.77c-.22,1.08-.62,2.21-.84,3.29"/><path d="M54.7,145.52c-.21,1.08-.48,2.22-.75,3.24"/><path d="M56.7,146.12c-.32,1-.57,2.15-.81,3.13"/><path d="M58.7,146.36a16.19,16.19,0,0,0-.81,3"/><path d="M60.58,146.31c-.21,1-.48,2-.72,2.94"/><path d="M62.77,146.12A14.83,14.83,0,0,0,62,149"/><path d="M64.17,148.27c.16-.81.43-1.67.65-2.53,0,0,.11-.05,0-.16"/><path d="M66.54,147c.06-.32.11-.48.16-.78a12.87,12.87,0,0,0,.44-1.7"/><path d="M69.65,143a12.66,12.66,0,0,0-.52,1.81"/><path d="M91.62,143l.41-.46a14.59,14.59,0,0,0,9.65,3.59,15.06,15.06,0,0,0,14.94-13.81l.6.05a15.61,15.61,0,0,1-15.54,14.35A15.27,15.27,0,0,1,91.62,143Z"/><path d="M94.1,144.66l.57-.32c.59,1,1.3,2.16,1.89,3.29l.21.32-.54.27L96,148C95.43,146.82,94.73,145.69,94.1,144.66Z"/><path d="M97.1,145.85l.54-.27c.37.73.81,1.4,1.24,2.1.11.22.27.49.37.7s.28.44.38.6l-.48.32-.43-.59a3.37,3.37,0,0,0-.38-.7C97.91,147.28,97.48,146.6,97.1,145.85Z"/><path d="M99.63,146.42l.6-.3a.88.88,0,0,0,.1.3c.11.08.16.24.22.29l.49.92c.37.59.7,1.13,1.07,1.67l-.54.35c-.32-.57-.7-1.13-1-1.7L100,147c0-.1-.11-.21-.11-.32A2,2,0,0,1,99.63,146.42Z"/><path d="M102,146.5l.54-.33a9.06,9.06,0,0,0,.59,1.11c.38.73.81,1.43,1.19,2l-.48.35c-.43-.62-.81-1.32-1.24-2A11.3,11.3,0,0,1,102,146.5Z"/><path d="M104.49,146.17c.59,1.08,1.18,2.1,1.72,3.08"/><path d="M106.37,145.63c.6,1,1.14,2,1.78,3"/><path d="M107.88,145.12l.49-.35c.65,1,1.24,1.94,1.78,2.91l-.54.27C109.07,147,108.48,146.06,107.88,145.12Z"/><path d="M110,144c.54,1,1.13,1.94,1.67,2.81"/><path d="M111.55,142.77a28.73,28.73,0,0,0,1.57,2.7"/><path d="M112.85,141.35c.48.88,1.08,1.77,1.61,2.61"/><path d="M114.25,139.7a21.39,21.39,0,0,0,1.51,2.53"/><path d="M116.78,140.21c-.43-.67-.86-1.46-1.29-2.29,0,0,0,0-.11,0"/><path d="M117.59,137.68a4.08,4.08,0,0,1-.43-.68,17.27,17.27,0,0,0-.91-1.48"/><path d="M116.89,132.63c.27.52.6,1.11.92,1.65"/><path d="M132.43,116.43a14.29,14.29,0,0,0,9.33-4.24,15.11,15.11,0,0,0,.81-20.3l.48-.41a15.72,15.72,0,0,1-.86,21.17,15.14,15.14,0,0,1-9.71,4.42Z"/><path d="M135.39,116.51l.16-.62c1.19.29,2.38.62,3.56.94l.44.14-.11.59-.49-.14C137.77,117.1,136.58,116.78,135.39,116.51Z"/><path d="M138.36,115.21l.22-.56a14.29,14.29,0,0,0,2.26.62,8,8,0,0,1,.81.21c.21.06.49.11.7.16l-.16.6a3.55,3.55,0,0,1-.7-.22,4.12,4.12,0,0,1-.76-.16A16.53,16.53,0,0,1,138.36,115.21Z"/><path d="M140.52,113.84l.21-.57c.05,0,.22,0,.33,0s.21.06.32.11l1.19.3c.59.13,1.18.24,1.77.4l-.16.62c-.59-.13-1.18-.29-1.83-.45l-1.13-.27a1.4,1.4,0,0,0-.33-.11A1.3,1.3,0,0,0,140.52,113.84Z"/><path d="M142.19,112.3l.16-.65a9.72,9.72,0,0,0,1.29.38c.7.22,1.51.43,2.27.62l-.16.57c-.76-.16-1.51-.38-2.27-.57C143.05,112.51,142.67,112.41,142.19,112.3Z"/><path d="M143.81,110.25c1.13.32,2.32.59,3.34.92"/><path d="M144.78,108.52c1.13.28,2.21.65,3.29.89"/><path d="M145.42,107.09l.11-.61c1.13.26,2.27.53,3.35.83l-.17.57C147.64,107.55,146.5,107.34,145.42,107.09Z"/><path d="M146.13,104.86c1,.24,2.15.48,3.12.75"/><path d="M146.34,102.83c.92.3,2,.62,3,.84"/><path d="M146.29,100.92l3,.73"/><path d="M146.13,98.76a20.25,20.25,0,0,0,2.8.73"/><path d="M148.28,97.33c-.81-.19-1.67-.4-2.53-.67a.07.07,0,0,0-.11,0"/><path d="M147,95a7.51,7.51,0,0,0-.75-.19,14,14,0,0,0-1.73-.41"/><path d="M143,91.89c.54.18,1.24.35,1.83.51"/><path d="M147.74,52.53c0-1.19,1.84-2.84,4.43-4s5.61-1.58,6.2-.19c.59,1.19-1.4,3.14-4.32,4.42-2.59,1.11-5.6,1.57-6.2.2A1.35,1.35,0,0,1,147.74,52.53Zm10.14-3.73c0-.08,0-.13,0-.2-.32-.75-2.59-.7-5.39.49s-4.37,2.92-4.05,3.64,2.59.7,5.39-.51C156.32,51.11,157.88,49.6,157.88,48.8Z"/><path d="M107.62,11.52a11.88,11.88,0,0,1,.86-4c.91-2.24,2.15-4,3.23-4.45a1.45,1.45,0,0,1,1-.1c.43.21,1,.72,1,2.2a12.36,12.36,0,0,1-.92,4c-1,2.59-2.8,5-4.26,4.52C107.94,13.45,107.62,12.71,107.62,11.52Zm5.44-6.38c0-.86-.21-1.48-.54-1.59a.64.64,0,0,0-.53.06c-.92.41-2.16,2.1-2.92,4.11a10.61,10.61,0,0,0-.81,3.8c0,.85.17,1.44.54,1.59.7.28,2.32-1.36,3.45-4.16A12.37,12.37,0,0,0,113.06,5.14Z"/><path d="M47.48,5.1c0-1.32.48-1.78.89-1.95,1.32-.62,3.26,1.79,4.45,4.34a12.79,12.79,0,0,1,1,4.23c0,1.31-.46,1.78-.86,2a1.47,1.47,0,0,1-1,0c-1.13-.46-2.45-2.13-3.42-4.29A11.74,11.74,0,0,1,47.48,5.1Zm5.74,6.62a10.93,10.93,0,0,0-1-4c-1.18-2.67-2.88-4.32-3.64-4-.27.15-.48.64-.48,1.39a11.2,11.2,0,0,0,1,4c.86,2,2.13,3.6,3.08,4a.66.66,0,0,0,.56,0C53,13,53.22,12.46,53.22,11.72Z"/><path d="M2.87,49.18A.72.72,0,0,1,3,48.8c.57-1.41,3.62-1.07,6.23-.08s4.53,2.62,4.53,3.86a2.89,2.89,0,0,1,0,.4,1.23,1.23,0,0,1-.73.68c-1.11.48-3.24.23-5.45-.65C4.81,52,2.87,50.39,2.87,49.18Zm10.25,3.4c0-.82-1.56-2.27-4.18-3.29s-5.12-1-5.42-.26v.15c0,.8,1.59,2.27,4.21,3.29,2,.77,4.07,1,5,.62.21-.08.35-.2.37-.36A.16.16,0,0,0,13.12,52.58Z"/><path d="M3.06,112.71c0-1.19,1.81-2.84,4.45-4,2.13-1,4.31-1.3,5.42-.86a1.88,1.88,0,0,1,.76.64,3.52,3.52,0,0,1,.05.49c0,1.19-1.78,2.8-4.4,3.94-2.18,1-4.31,1.29-5.44.89a1.46,1.46,0,0,1-.76-.7A1.35,1.35,0,0,1,3.06,112.71ZM13.17,109c0-.08-.05-.13-.05-.21a.75.75,0,0,0-.43-.38c-.78-.27-2.64-.14-4.94.89-2.56,1.08-4.07,2.61-4.07,3.4a.22.22,0,0,0,0,.18.67.67,0,0,0,.38.38c.95.35,3,0,5-.86C11.64,111.28,13.17,109.79,13.17,109Z"/><path d="M47.83,156.37a11.67,11.67,0,0,1,.91-4c.84-2.26,2.14-4,3.21-4.47a1.43,1.43,0,0,1,1-.06c.56.22.91,1,.91,2.16a12,12,0,0,1-.86,4c-.86,2.24-2.15,4-3.23,4.45a1.18,1.18,0,0,1-1,.05C48.21,158.31,47.83,157.55,47.83,156.37ZM53.28,150c0-.86-.2-1.46-.52-1.59a.69.69,0,0,0-.54.05c-.81.36-2,1.76-2.91,4.13a10.6,10.6,0,0,0-.81,3.78c0,.88.16,1.45.51,1.61a.63.63,0,0,0,.54,0c.92-.38,2.13-2.1,2.89-4.13A10.89,10.89,0,0,0,53.28,150Z"/><path d="M107.72,149.84c0-1.35.43-1.83.87-2a1.59,1.59,0,0,1,1,0c1.07.49,2.48,2.16,3.39,4.32a10.6,10.6,0,0,1,1.08,4.26c0,1.32-.48,1.75-.86,2-1.35.57-3.29-1.81-4.42-4.37A11.08,11.08,0,0,1,107.72,149.84Zm5.67,6.58a10.44,10.44,0,0,0-1-4c-.87-1.94-2.16-3.61-3.08-4a.82.82,0,0,0-.54-.06c-.32.16-.48.65-.48,1.46a10.13,10.13,0,0,0,1,3.94c1.24,2.77,2.91,4.37,3.56,4C113.23,157.66,113.39,157.15,113.39,156.42Z"/><path d="M147.74,109a1.57,1.57,0,0,1,.11-.44,1.27,1.27,0,0,1,.7-.64c1.14-.54,3.24-.27,5.5.59,2.65,1.08,4.59,2.64,4.59,3.88a.47.47,0,0,1-.11.36c-.54,1.37-3.56,1.07-6.15.08S147.74,110.14,147.74,109ZM158,112.35c0-.83-1.56-2.26-4.21-3.29-2-.78-4-1-5-.64a.55.55,0,0,0-.37.32.31.31,0,0,0-.06.22c0,.8,1.57,2.26,4.21,3.23,2.8,1.13,5.12,1,5.39.3Z"/><path d="M146.18,93.85l.32-.54c13,7.39,12.14,19.18,12.09,19.34l-.65-.05A2.83,2.83,0,0,0,158,112C158,109.66,157.29,100.17,146.18,93.85Z"/><path d="M136.47,118.34l.11-.54c14.08,3.54,21.36-5.29,21.46-5.39l.44.38C158.42,112.89,150.93,122,136.47,118.34Z"/><path d="M136.2,43.17c14.35-4,22.06,5,22.12,5.09l-.44.41c-.1-.1-7.55-8.78-21.57-4.94Z"/><path d="M146.4,67.48c12.56-7.47,11.38-18.87,11.38-19l.59-.05c0,.08,1.18,11.86-11.65,19.52Z"/><path d="M93.32,15c7.39-13,19.2-12.07,19.37-12.07l-.06.61c-.16,0-11.59-.87-18.8,11.77Z"/><path d="M112.42,3.5l.37-.49c.11.08,9.28,7.58,5.56,22.08l-.54-.15C121.37,10.81,112.52,3.55,112.42,3.5Z"/><path d="M42.16,18.25a20.49,20.49,0,0,1,6.1-15l.4.46c-.08.11-8.81,7.55-4.9,21.57l-.6.14A27.41,27.41,0,0,1,42.16,18.25Z"/><path d="M48.45,3.15C48.56,3.09,60.34,2,68,14.81l-.51.31C60,2.63,48.61,3.71,48.53,3.77Z"/><path d="M2.9,49.44v-.57l.65.06c.05.16-.84,11.51,11.78,18.7l-.3.56C3.68,61.72,2.9,51.93,2.9,49.44Z"/><path d="M3,48.72c.08-.11,7.57-9.25,22.06-5.57l-.14.58C10.83,40.17,3.55,49,3.47,49.09Z"/><path d="M3.2,113.24l.48-.4s7.52,8.79,21.52,4.91l.19.59C11,122.3,3.28,113.32,3.2,113.24Z"/><path d="M3.09,112.19c0-2.83.86-12.19,11.73-18.66l.27.51C4.54,100.38,3.73,109.47,3.73,112.19V113l-.59.06A6.42,6.42,0,0,1,3.09,112.19Z"/><path d="M48.88,158.58l0-.6c.11,0,11.52.87,18.72-11.81l.51.33C60.8,159.49,49,158.58,48.88,158.58Z"/><path d="M42.27,143.12a26.51,26.51,0,0,1,.89-6.68l.57.16C40.14,150.7,49,158,49.07,158l-.38.48A20.62,20.62,0,0,1,42.27,143.12Z"/><path d="M112.85,157.82c.1,0,8.79-7.49,4.9-21.52l.6-.19c4,14.46-5,22.12-5.12,22.22Z"/><path d="M93.51,146.71l.54-.29c7.47,12.51,18.85,11.38,19,11.35l0,.62C113,158.39,101.2,159.55,93.51,146.71Z"/><path d="M122,75.76c5.77-5.81,12.51-.08,12.57,0l-.49.54c-.21-.26-6.25-5.35-11.59,0Z"/><path d="M126.6,74.34a8.43,8.43,0,0,1,2.59-5.89l.49.47c-3.83,4-2.11,8.38-.71,10.61l-.59.33A10.65,10.65,0,0,1,126.6,74.34Z"/><path d="M122.45,86.09l.43-.49c5.34,5.34,11.38.22,11.65,0l.43.57C134.91,86.19,128.22,91.89,122.45,86.09Z"/><path d="M127.14,87.22A10.31,10.31,0,0,1,128.81,82l.59.32a9.35,9.35,0,0,0-1.51,5.83,7.93,7.93,0,0,0,2,4.47l-.54.46a8.5,8.5,0,0,1-2.16-4.88A6.44,6.44,0,0,1,127.14,87.22Z"/><path d="M114,55.07v-.7c7.55,0,8.14-7.86,8.2-8.21l.7.07C122.88,46.31,122.18,55.07,114,55.07Z"/><path d="M115.6,47.64l.7-.17a8.82,8.82,0,0,0,3,5.19,7,7,0,0,0,4.53,1.71l0,.7a8.34,8.34,0,0,1-5-1.87A9.89,9.89,0,0,1,115.6,47.64Z"/><path d="M85.58,27l.54-.46c.06,0,5.74,6.73-.05,12.53l-.49-.51C90.9,33.26,85.83,27.3,85.58,27Z"/><path d="M82,32.69l.38-.62a8.72,8.72,0,0,0,5.77,1.55,7.5,7.5,0,0,0,4.45-2l.51.51a8.26,8.26,0,0,1-4.88,2.22A9.56,9.56,0,0,1,82,32.69Z"/><path d="M46.16,39.35l.08-.7c.08,0,8.81.71,8.81,8.87h-.7C54.35,40,46.51,39.36,46.16,39.35Z"/><path d="M47.48,45.23a8.74,8.74,0,0,0,5.17-3,7.05,7.05,0,0,0,1.7-4.57l.7,0a7.67,7.67,0,0,1-1.88,5,9.39,9.39,0,0,1-5.53,3.24Z"/><path d="M26.58,75.39c.08,0,6.74-5.75,12.54,0l-.52.52c-5.31-5.29-11.32-.21-11.56,0Z"/><path d="M31.62,68.92l.54-.47a8.55,8.55,0,0,1,2.18,4.87,9.37,9.37,0,0,1-1.64,6.21l-.59-.36a8.86,8.86,0,0,0,1.51-5.78A7.43,7.43,0,0,0,31.62,68.92Z"/><path d="M38.66,115.29c0-.08.7-8.87,8.87-8.87v.73c-7.52,0-8.14,7.85-8.17,8.17Z"/><path d="M37.63,107.15l0-.67a7.63,7.63,0,0,1,5,1.86,9.36,9.36,0,0,1,3.24,5.52l-.65.17a9,9,0,0,0-3.05-5.15A7.17,7.17,0,0,0,37.63,107.15Z"/><path d="M72.83,128.24a8,8,0,0,1,2.58-5.83l.49.46c-5.31,5.34-.22,11.36,0,11.62l-.52.46A11.47,11.47,0,0,1,72.83,128.24Z"/><path d="M68.49,129.4a7.65,7.65,0,0,1,4.82-2.21,9.55,9.55,0,0,1,6.21,1.64l-.36.57a8.89,8.89,0,0,0-5.77-1.51,7.29,7.29,0,0,0-4.47,2Z"/><path d="M106.43,114h.7c0,7.55,7.87,8.15,8.2,8.2l-.06.7S106.43,122.17,106.43,114Z"/><path d="M106.43,123.84a8.73,8.73,0,0,1,1.89-5,9.93,9.93,0,0,1,5.61-3.24l.16.7a9,9,0,0,0-5.23,3,7.36,7.36,0,0,0-1.68,4.64Z"/><path d="M106.32,48.06c0-8.17,8.79-8.84,8.9-8.87l0,.7c-.32,0-8.19.66-8.19,8.17v0h-.76Z"/><path d="M106.32,37.77h.7c.06,5.61,4.42,7.43,7,8l-.11.66C111.07,45.82,106.37,43.84,106.32,37.77Z"/><path d="M73.15,33.72A11.83,11.83,0,0,1,75.71,27l.57.46c-.24.28-5.39,6.27,0,11.62l-.51.48A8,8,0,0,1,73.15,33.72Z"/><path d="M68.46,32.3l.48-.49c4,3.91,8.34,2.12,10.58.73l.37.61C77.47,34.65,72.77,36.55,68.46,32.3Z"/><path d="M39.2,46.31l.65-.05c.08.33.72,8.22,8.22,8.22v.66C39.87,55.17,39.22,46.42,39.2,46.31Z"/><path d="M37.79,54.51c5.59-.08,7.45-4.4,8-7l.67.16c-.64,2.78-2.59,7.44-8.66,7.5Z"/><path d="M27,85.76l.43-.48c.27.19,6.28,5.34,11.59,0l.52.48C33.78,91.53,27.09,85.82,27,85.76Z"/><path d="M31.78,92.56c3.91-4,2.16-8.33.76-10.52l.62-.43c1.48,2.43,3.39,7.09-.87,11.46Z"/><path d="M46.26,121.63c.33,0,8.23-.7,8.23-8.2h.67c0,8.2-8.79,8.87-8.84,8.87Z"/><path d="M47.53,115.75l.16-.7c2.78.65,7.45,2.59,7.5,8.69h-.7C54.44,118.15,50.09,116.29,47.53,115.75Z"/><path d="M85.23,134c.24-.27,5.31-6.31.06-11.57l.48-.52c5.74,5.78.08,12.49,0,12.54Z"/><path d="M81.62,128.37c1.94-1.24,6.93-3.61,11.46.81l-.54.54c-4-3.94-8.28-2.16-10.54-.75Z"/><path d="M113.44,106.37c8.14-.06,8.9,8.74,8.9,8.84l-.7,0c-.06-.33-.7-8.2-8.2-8.2Z"/><path d="M115.06,113.84c.64-2.78,2.64-7.47,8.63-7.53v.7c-5.56,0-7.34,4.37-8,7Z"/></g></svg>