<svg xmlns="http://www.w3.org/2000/svg" xmlns:xlink="http://www.w3.org/1999/xlink" viewBox="0 0 963.53 717.5"><defs><style>.cls-1,.cls-2{fill:none;}.cls-2{stroke:#ffed4a;stroke-miterlimit:10;}.cls-3{isolation:isolate;}.cls-4{fill:#cc2121;}.cls-5{mix-blend-mode:multiply;fill:url(#radial-gradient);}.cls-6{opacity:0.2;fill:url(#New_Pattern_5);}</style><radialGradient id="radial-gradient" cx="481.77" cy="358.75" r="424.74" gradientUnits="userSpaceOnUse"><stop offset="0" stop-color="#fff"/><stop offset="1" stop-color="#333"/></radialGradient><pattern id="New_Pattern_5" data-name="New Pattern 5" width="50" height="50" patternTransform="translate(-2.17 81.25)" patternUnits="userSpaceOnUse" viewBox="0 0 50 50"><rect class="cls-1" width="50" height="50"/><path class="cls-2" d="M69.34,104.7l-24-24a8,8,0,0,1,0-11.32l24-24a8,8,0,0,1,11.32,0l24,24a8,8,0,0,1,0,11.32l-24,24A8,8,0,0,1,69.34,104.7Z"/><path class="cls-2" d="M19.34,104.7l-24-24a8,8,0,0,1,0-11.32l24-24a8,8,0,0,1,11.32,0l24,24a8,8,0,0,1,0,11.32l-24,24A8,8,0,0,1,19.34,104.7Z"/><path class="cls-2" d="M-30.66,104.7l-24-24a8,8,0,0,1,0-11.32l24-24a8,8,0,0,1,11.32,0l24,24a8,8,0,0,1,0,11.32l-24,24A8,8,0,0,1-30.66,104.7Z"/><path class="cls-2" d="M69.34,54.7l-24-24a8,8,0,0,1,0-11.32l24-24a8,8,0,0,1,11.32,0l24,24a8,8,0,0,1,0,11.32l-24,24A8,8,0,0,1,69.34,54.7Z"/><path class="cls-2" d="M19.34,54.7l-24-24a8,8,0,0,1,0-11.32l24-24a8,8,0,0,1,11.32,0l24,24a8,8,0,0,1,0,11.32l-24,24A8,8,0,0,1,19.34,54.7Z"/><path class="cls-2" d="M-30.66,54.7l-24-24a8,8,0,0,1,0-11.32l24-24a8,8,0,0,1,11.32,0l24,24a8,8,0,0,1,0,11.32l-24,24A8,8,0,0,1-30.66,54.7Z"/><path class="cls-2" d="M69.34,4.7l-24-24a8,8,0,0,1,0-11.32l24-24a8,8,0,0,1,11.32,0l24,24a8,8,0,0,1,0,11.32l-24,24A8,8,0,0,1,69.34,4.7Z"/><path class="cls-2" d="M19.34,4.7l-24-24a8,8,0,0,1,0-11.32l24-24a8,8,0,0,1,11.32,0l24,24a8,8,0,0,1,0,11.32l-24,24A8,8,0,0,1,19.34,4.7Z"/><path class="cls-2" d="M-30.66,4.7l-24-24a8,8,0,0,1,0-11.32l24-24a8,8,0,0,1,11.32,0l24,24a8,8,0,0,1,0,11.32l-24,24A8,8,0,0,1-30.66,4.7Z"/></pattern></defs><title>clip-path</title><g class="cls-3"><g id="Layer_2" data-name="Layer 2"><g id="Layer_5" data-name="Layer 5"><path class="cls-4" d="M765.09,173.92C560.64,101.08,490.57,15.7,481.77,0,473,15.7,402.9,101.08,198.44,173.92-13.71,249.51-5.76,330.8,3.79,344.58L309.47,717.5l91.1-59.38,81.2-28.68L563,658.12l91.1,59.38L959.75,344.58C969.29,330.8,977.24,249.51,765.09,173.92Z"/><path class="cls-5" d="M765.09,173.92C560.64,101.08,490.57,15.7,481.77,0,473,15.7,402.9,101.08,198.44,173.92-13.71,249.51-5.76,330.8,3.79,344.58L309.47,717.5l91.1-59.38,81.2-28.68L563,658.12l91.1,59.38L959.75,344.58C969.29,330.8,977.24,249.51,765.09,173.92Z"/><path class="cls-6" d="M765.09,173.92C560.64,101.08,490.57,15.7,481.77,0,473,15.7,402.9,101.08,198.44,173.92-13.71,249.51-5.76,330.8,3.79,344.58L309.47,717.5l91.1-59.38,81.2-28.68L563,658.12l91.1,59.38L959.75,344.58C969.29,330.8,977.24,249.51,765.09,173.92Z"/></g></g></g></svg>