<svg xmlns="http://www.w3.org/2000/svg" xmlns:xlink="http://www.w3.org/1999/xlink" viewBox="0 0 452.52 932.35"><defs><style>.cls-1{isolation:isolate;}.cls-2{fill:#ffed4a;}.cls-3{mix-blend-mode:color-dodge;}.cls-4{fill:url(#radial-gradient);}</style><radialGradient id="radial-gradient" cx="861.57" cy="466.17" r="351.99" gradientTransform="translate(-862.15) scale(1.25 1)" gradientUnits="userSpaceOnUse"><stop offset="0.2" stop-color="#fff"/><stop offset="0.25" stop-color="#353232"/><stop offset="0.31" stop-color="#231f20"/><stop offset="0.7" stop-color="#fff"/><stop offset="0.75"/><stop offset="1"/></radialGradient></defs><title>frame-behide</title><g class="cls-1"><g id="Layer_2" data-name="Layer 2"><g id="Layer_2-2" data-name="Layer 2"><path class="cls-2" d="M380.14,0A58,58,0,0,0,326.3,36.35a28.86,28.86,0,0,1-27.09,18.57,29.65,29.65,0,0,1-12.13-2.69,108.76,108.76,0,0,0-144.3,144A29,29,0,0,1,127,235.46a57.94,57.94,0,0,0-36.46,53.78A218,218,0,0,1,0,466.17,218,218,0,0,1,90.49,643.1,57.94,57.94,0,0,0,127,696.89a29,29,0,0,1,15.83,39.2,108.83,108.83,0,0,0,144.3,144,29.81,29.81,0,0,1,12.13-2.7A28.89,28.89,0,0,1,326.3,896a58,58,0,0,0,111.83-21.56V57.91A58,58,0,0,0,380.14,0Zm-215,584.28A218.7,218.7,0,0,0,82.66,466.17a218.63,218.63,0,0,0,82.47-118.11Z"/><g class="cls-3"><path class="cls-4" d="M380.14,0A58,58,0,0,0,326.3,36.35a28.86,28.86,0,0,1-27.09,18.57,29.65,29.65,0,0,1-12.13-2.69,108.76,108.76,0,0,0-144.3,144A29,29,0,0,1,127,235.46a57.94,57.94,0,0,0-36.46,53.78A218,218,0,0,1,0,466.17,218,218,0,0,1,90.49,643.1,57.94,57.94,0,0,0,127,696.89a29,29,0,0,1,15.83,39.2,108.83,108.83,0,0,0,144.3,144,29.81,29.81,0,0,1,12.13-2.7A28.89,28.89,0,0,1,326.3,896a58,58,0,0,0,111.83-21.56V57.91A58,58,0,0,0,380.14,0Zm-215,584.28A218.7,218.7,0,0,0,82.66,466.17a218.63,218.63,0,0,0,82.47-118.11Z"/></g><path class="cls-2" d="M394.61,0a57.92,57.92,0,0,0-53.76,36.35A28.84,28.84,0,0,1,313.8,54.92a29.56,29.56,0,0,1-12.12-2.69,108.72,108.72,0,0,0-144.1,144,29,29,0,0,1-15.81,39.2,57.93,57.93,0,0,0-36.4,53.78A218.06,218.06,0,0,1,15,466.17,218.09,218.09,0,0,1,105.37,643.1a57.93,57.93,0,0,0,36.4,53.79,29,29,0,0,1,15.81,39.2,108.72,108.72,0,0,0,144.1,144,29.73,29.73,0,0,1,12.12-2.7A28.86,28.86,0,0,1,340.85,896a57.92,57.92,0,0,0,111.67-21.56V57.91A57.91,57.91,0,0,0,394.61,0ZM179.9,584.28A218.71,218.71,0,0,0,97.55,466.17,218.64,218.64,0,0,0,179.9,348.06Z"/></g></g></g></svg>