<svg xmlns="http://www.w3.org/2000/svg" xmlns:xlink="http://www.w3.org/1999/xlink" viewBox="0 0 212.6 384.7"><defs><style>.cls-1,.cls-120,.cls-121,.cls-128,.cls-33,.cls-34{fill:none;}.cls-2{isolation:isolate;}.cls-3{fill:#2a1907;}.cls-4{mix-blend-mode:color-dodge;fill:url(#radial-gradient);}.cls-123,.cls-129,.cls-5{font-size:6px;}.cls-102,.cls-119,.cls-122,.cls-123,.cls-127,.cls-129,.cls-35,.cls-5{fill:#f9f9f9;}.cls-5{font-family:MyriadPro-BoldCond, Myriad Pro;}.cls-102,.cls-129,.cls-35,.cls-5{font-weight:700;}.cls-123,.cls-25,.cls-6{letter-spacing:-0.01em;}.cls-7{letter-spacing:-0.01em;}.cls-8{letter-spacing:-0.01em;}.cls-9{letter-spacing:-0.01em;}.cls-10{letter-spacing:-0.02em;}.cls-11{letter-spacing:-0.01em;}.cls-12{letter-spacing:-0.04em;}.cls-13{letter-spacing:-0.02em;}.cls-14{letter-spacing:-0.05em;}.cls-15{letter-spacing:-0.05em;}.cls-123,.cls-133,.cls-134,.cls-135,.cls-136,.cls-137,.cls-138,.cls-139,.cls-140,.cls-16,.cls-25{font-family:MyriadPro-Regular, Myriad Pro;}.cls-133,.cls-134,.cls-135,.cls-136,.cls-137,.cls-138,.cls-139,.cls-140,.cls-16,.cls-25{font-weight:400;}.cls-17{letter-spacing:-0.05em;}.cls-18{letter-spacing:-0.04em;}.cls-19{letter-spacing:-0.02em;}.cls-20{letter-spacing:-0.05em;}.cls-21{letter-spacing:-0.07em;}.cls-22{letter-spacing:-0.05em;}.cls-23{letter-spacing:-0.04em;}.cls-24{letter-spacing:-0.01em;}.cls-136,.cls-26{letter-spacing:-0.01em;}.cls-27{letter-spacing:0em;}.cls-28{letter-spacing:0em;}.cls-29{letter-spacing:0em;}.cls-30{letter-spacing:-0.05em;}.cls-31{letter-spacing:-0.05em;}.cls-32{letter-spacing:-0.03em;}.cls-120,.cls-121,.cls-122,.cls-128,.cls-33,.cls-34{stroke:#f9f9f9;}.cls-128,.cls-33,.cls-34{stroke-miterlimit:10;}.cls-34{stroke-dasharray:2 2;}.cls-35{font-size:7px;}.cls-102,.cls-129,.cls-35{font-family:MyriadPro-Bold, Myriad Pro;}.cls-36{letter-spacing:-0.01em;}.cls-37{letter-spacing:0em;}.cls-38{letter-spacing:-0.03em;}.cls-39{letter-spacing:-0.04em;}.cls-40{letter-spacing:-0.02em;}.cls-41{letter-spacing:0.14em;}.cls-42{letter-spacing:0.02em;}.cls-43{letter-spacing:0.14em;}.cls-44{letter-spacing:0em;}.cls-45{letter-spacing:0.2em;}.cls-46{letter-spacing:0.2em;}.cls-47{letter-spacing:-0.01em;}.cls-48{letter-spacing:-0.04em;}.cls-49{letter-spacing:-0.01em;}.cls-50{letter-spacing:-0.04em;}.cls-51{letter-spacing:-0.01em;}.cls-52{letter-spacing:-0.01em;}.cls-53{letter-spacing:0.1em;}.cls-54{letter-spacing:0.31em;}.cls-55{letter-spacing:0.31em;}.cls-56{letter-spacing:-0.01em;}.cls-57{letter-spacing:0.28em;}.cls-58{letter-spacing:0.28em;}.cls-59{letter-spacing:-0.03em;}.cls-60{letter-spacing:-0.03em;}.cls-61{letter-spacing:0.25em;}.cls-62{letter-spacing:0.25em;}.cls-63{letter-spacing:-0.01em;}.cls-64{letter-spacing:0em;}.cls-65{letter-spacing:0.2em;}.cls-66{letter-spacing:0em;}.cls-67{letter-spacing:0.2em;}.cls-68{letter-spacing:-0.02em;}.cls-69{letter-spacing:-0.01em;}.cls-70{letter-spacing:-0.01em;}.cls-71{letter-spacing:-0.01em;}.cls-72{letter-spacing:0.01em;}.cls-73{letter-spacing:-0.04em;}.cls-74{letter-spacing:0.08em;}.cls-75{letter-spacing:0.08em;}.cls-76{letter-spacing:-0.01em;}.cls-77{letter-spacing:-0.03em;}.cls-78{letter-spacing:-0.05em;}.cls-79{letter-spacing:0.19em;}.cls-80{letter-spacing:-0.04em;}.cls-81{letter-spacing:0em;}.cls-82{letter-spacing:0.19em;}.cls-83{letter-spacing:0.19em;}.cls-84{letter-spacing:0em;}.cls-85{letter-spacing:-0.02em;}.cls-86{letter-spacing:-0.01em;}.cls-87{letter-spacing:-0.02em;}.cls-88{letter-spacing:0.93em;}.cls-89{letter-spacing:0.93em;}.cls-90{letter-spacing:0em;}.cls-91{letter-spacing:0.01em;}.cls-92{letter-spacing:0.02em;}.cls-93{letter-spacing:0.04em;}.cls-94{letter-spacing:-0.05em;}.cls-95{letter-spacing:-0.03em;}.cls-96{letter-spacing:0.01em;}.cls-97{letter-spacing:-0.02em;}.cls-98{letter-spacing:0.41em;}.cls-99{letter-spacing:0.04em;}.cls-100{letter-spacing:0.04em;}.cls-101,.cls-135{letter-spacing:0em;}.cls-102{font-size:7.4px;letter-spacing:-0.01em;}.cls-103{letter-spacing:-0.02em;}.cls-104{letter-spacing:-0.05em;}.cls-105{letter-spacing:-0.05em;}.cls-106{letter-spacing:-0.02em;}.cls-107{letter-spacing:-0.02em;}.cls-108{letter-spacing:-0.01em;}.cls-109{letter-spacing:-0.08em;}.cls-110{letter-spacing:-0.03em;}.cls-111{letter-spacing:-0.05em;}.cls-112{clip-path:url(#clip-path);}.cls-113{fill:#369a16;}.cls-114{fill:#fff;}.cls-115{fill:#ff0;}.cls-116{clip-path:url(#clip-path-3);}.cls-117{clip-path:url(#clip-path-4);}.cls-118{clip-path:url(#clip-path-5);}.cls-120,.cls-121,.cls-122{stroke-linecap:round;stroke-linejoin:round;}.cls-120{stroke-width:0.5px;}.cls-121,.cls-122{stroke-width:0.17px;}.cls-124{letter-spacing:0.02em;}.cls-125{letter-spacing:0.01em;}.cls-126{letter-spacing:-0.01em;}.cls-127{font-size:15.7px;font-family:DancingScript-Regular, Dancing Script;}.cls-128{stroke-dasharray:2;}.cls-130{letter-spacing:-0.04em;}.cls-131{letter-spacing:0em;}.cls-132{letter-spacing:0.3em;}.cls-133{letter-spacing:0.01em;}.cls-134{letter-spacing:-0.04em;}.cls-137{letter-spacing:0em;}.cls-138{letter-spacing:0.01em;}.cls-139{letter-spacing:0em;}.cls-140{letter-spacing:0em;}</style><radialGradient id="radial-gradient" cx="99.42" cy="479.83" r="405.16" gradientTransform="translate(775.39 352.65) rotate(87.66) scale(1 1.42)" gradientUnits="userSpaceOnUse"><stop offset="0" stop-color="#fff"/><stop offset="1"/></radialGradient><clipPath id="clip-path"><rect class="cls-1" x="35.46" y="17.41" width="29.13" height="26.57"/></clipPath><clipPath id="clip-path-3"><rect class="cls-1" x="62.79" y="20.95" width="113.14" height="19.49"/></clipPath><clipPath id="clip-path-4"><rect class="cls-1" x="70.85" y="-48.6" width="101.31" height="87.9"/></clipPath><clipPath id="clip-path-5"><rect class="cls-1" x="85.57" y="-48.6" width="71.86" height="65.56"/></clipPath></defs><title>happiness 1-2</title><g class="cls-2"><g id="Layer_1" data-name="Layer 1"><rect class="cls-3" x="0.01" y="-0.07" width="212.6" height="384.7" rx="10"/><rect class="cls-4" x="0.01" y="-0.07" width="212.6" height="384.7" rx="10"/><text class="cls-5" transform="translate(17.03 280.53)"><tspan class="cls-6">PHU CUONG IMPO<tspan class="cls-7" x="35.02" y="0">R</tspan><tspan x="37.76" y="0">T EXPO</tspan><tspan class="cls-8" x="51.15" y="0">R</tspan><tspan class="cls-9" x="53.89" y="0">T</tspan><tspan class="cls-10" x="56.19" y="0"> </tspan><tspan class="cls-9" x="57.02" y="0">TRADING AND D</tspan><tspan class="cls-11" x="88.17" y="0">E</tspan><tspan x="90.49" y="0">VE</tspan><tspan class="cls-12" x="95.44" y="0">L</tspan><tspan x="97.5" y="0">OPMENT INVESTMENT </tspan><tspan class="cls-13" x="141.62" y="0">C</tspan><tspan x="143.85" y="0">OM</tspan><tspan class="cls-14" x="150.44" y="0">P</tspan><tspan x="152.87" y="0">ANY LIMITE</tspan><tspan class="cls-15" x="175.28" y="0">D</tspan><tspan x="177.95" y="0">.</tspan></tspan><tspan class="cls-16"><tspan class="cls-6" x="26.31" y="7.2">45/32/11 Bui</tspan><tspan class="cls-17" x="57.41" y="7.2"> </tspan><tspan class="cls-18" x="58.41" y="7.2">V</tspan><tspan class="cls-6" x="61.5" y="7.2">an Ngu </tspan><tspan class="cls-8" x="80.45" y="7.2">S</tspan><tspan class="cls-6" x="83.33" y="7.2">t</tspan><tspan class="cls-19" x="85.26" y="7.2">r</tspan><tspan class="cls-6" x="87.1" y="7.2">ees</tspan><tspan class="cls-7" x="95.31" y="7.2">t</tspan><tspan class="cls-6" x="97.21" y="7.2">,</tspan><tspan class="cls-20" x="98.4" y="7.2"> </tspan><tspan class="cls-21" x="99.36" y="7.2">T</tspan><tspan class="cls-6" x="101.9" y="7.2">an Chanh </tspan><tspan x="126.49" y="7.2">H</tspan><tspan class="cls-6" x="130.4" y="7.2">iep</tspan><tspan class="cls-22" x="138.04" y="7.2"> </tspan><tspan class="cls-23" x="139.04" y="7.2">W</tspan><tspan class="cls-6" x="143.86" y="7.2">a</tspan><tspan class="cls-19" x="146.69" y="7.2">rd</tspan><tspan class="cls-24" x="151.8" y="7.2">,</tspan></tspan><tspan class="cls-25"><tspan x="43.85" y="14.4">12 Dist</tspan><tspan class="cls-26" x="60.62" y="14.4">r</tspan><tspan x="62.54" y="14.4">i</tspan><tspan class="cls-27" x="63.89" y="14.4">c</tspan><tspan class="cls-7" x="66.59" y="14.4">t</tspan><tspan x="68.5" y="14.4">, Ho Chi </tspan><tspan class="cls-28" x="88.44" y="14.4">M</tspan><tspan x="93.27" y="14.4">inh </tspan><tspan class="cls-8" x="102.37" y="14.4">C</tspan><tspan x="105.77" y="14.4">i</tspan><tspan class="cls-29" x="107.12" y="14.4">t</tspan><tspan class="cls-30" x="109.1" y="14.4">y</tspan><tspan class="cls-24" x="111.63" y="14.4">,</tspan><tspan class="cls-31" x="112.81" y="14.4"> </tspan><tspan class="cls-32" x="113.81" y="14.4">V</tspan><tspan x="117" y="14.4">ietnam.</tspan></tspan></text><line class="cls-33" x1="16.35" y1="271.33" x2="17.35" y2="271.33"/><line class="cls-34" x1="19.35" y1="271.33" x2="194.25" y2="271.33"/><line class="cls-33" x1="195.25" y1="271.33" x2="196.25" y2="271.33"/><image width="757" height="162" transform="translate(4.92 56.66) scale(0.21)" xlink:href="../../../../BOM/Personal-freelancer/Phu%20Cuong/Coffee_bag/Happiness.png"/><line class="cls-33" x1="16.3" y1="58.21" x2="17.3" y2="58.21"/><line class="cls-34" x1="19.3" y1="58.21" x2="194.2" y2="58.21"/><line class="cls-33" x1="195.2" y1="58.21" x2="196.2" y2="58.21"/><text class="cls-35" transform="translate(12.96 122.41)">THÀNH PHẦN<tspan class="cls-16"><tspan x="0" y="8.4">100% cà phê ngu</tspan><tspan class="cls-36" x="50.31" y="8.4">y</tspan><tspan x="53.53" y="8.4">ên ch</tspan><tspan class="cls-37" x="69.43" y="8.4">ấ</tspan><tspan x="72.78" y="8.4">t</tspan></tspan><tspan x="0" y="18.83">KhỐI </tspan><tspan class="cls-38" x="17.55" y="18.83">L</tspan><tspan x="20.91" y="18.83">ƯỢNG</tspan><tspan class="cls-39" x="40.63" y="18.83"> </tspan><tspan x="41.77" y="18.83">TỊNH</tspan><tspan class="cls-16"><tspan x="0" y="27.22">500g</tspan></tspan><tspan x="0" y="37.65">HướnG </tspan><tspan class="cls-40" x="25.96" y="37.65">D</tspan><tspan x="30.72" y="37.65">ẪN SỬ DỤNG</tspan><tspan class="cls-16"><tspan x="0" y="46.05">CHO</tspan><tspan class="cls-41" x="11.79" y="46.05"> </tspan><tspan class="cls-42" x="14.29" y="46.05">K</tspan><tspan x="17.69" y="46.05">hoảng</tspan><tspan class="cls-41" x="36.59" y="46.05"> </tspan><tspan x="39.09" y="46.05">03</tspan><tspan class="cls-43" x="46.27" y="46.05"> </tspan><tspan x="48.76" y="46.05">muỗng</tspan><tspan class="cls-41" x="70.1" y="46.05"> </tspan><tspan x="72.6" y="46.05">(20g) </tspan><tspan class="cls-44" x="0" y="54.45">v</tspan><tspan x="3.34" y="54.45">ào</tspan><tspan class="cls-45" x="10.56" y="54.45"> </tspan><tspan x="13.46" y="54.45">phin</tspan><tspan class="cls-46" x="26.85" y="54.45"> </tspan><tspan x="29.76" y="54.45">nén</tspan><tspan class="cls-45" x="41.03" y="54.45"> </tspan><tspan x="43.94" y="54.45">nh</tspan><tspan class="cls-47" x="51.71" y="54.45">ẹ</tspan><tspan x="55.13" y="54.45">,</tspan><tspan class="cls-46" x="56.58" y="54.45"> </tspan><tspan x="59.49" y="54.45">chế</tspan><tspan class="cls-45" x="70.01" y="54.45"> </tspan><tspan x="72.92" y="54.45">nước </tspan><tspan x="0" y="62.85">nóng</tspan><tspan class="cls-48" x="15.53" y="62.85"> </tspan><tspan x="16.76" y="62.85">đ</tspan><tspan class="cls-49" x="20.7" y="62.85">ầ</tspan><tspan x="24.02" y="62.85">y</tspan><tspan class="cls-50" x="27.32" y="62.85"> </tspan><tspan x="28.55" y="62.85">phin,</tspan><tspan class="cls-48" x="43.39" y="62.85"> </tspan><tspan x="44.62" y="62.85">đ</tspan><tspan class="cls-51" x="48.57" y="62.85">ậ</tspan><tspan x="51.88" y="62.85">y</tspan><tspan class="cls-48" x="55.18" y="62.85"> </tspan><tspan x="56.41" y="62.85">nắp</tspan><tspan class="cls-50" x="67.65" y="62.85"> </tspan><tspan x="68.88" y="62.85">lại</tspan><tspan class="cls-48" x="75.55" y="62.85"> </tspan><tspan x="76.78" y="62.85">chờ </tspan><tspan class="cls-52" x="0" y="71.25">t</tspan><tspan x="2.27" y="71.25">ới</tspan><tspan class="cls-53" x="7.78" y="71.25"> </tspan><tspan class="cls-42" x="9.98" y="71.25">k</tspan><tspan x="13.39" y="71.25">hi</tspan><tspan class="cls-53" x="18.91" y="71.25"> </tspan><tspan x="21.11" y="71.25">nước</tspan><tspan class="cls-53" x="35.86" y="71.25"> </tspan><tspan x="38.06" y="71.25">cà</tspan><tspan class="cls-53" x="44.57" y="71.25"> </tspan><tspan x="46.77" y="71.25">phê</tspan><tspan class="cls-53" x="58.15" y="71.25"> </tspan><tspan x="60.35" y="71.25">thấm</tspan><tspan class="cls-53" x="75.76" y="71.25"> </tspan><tspan x="77.96" y="71.25">hết </tspan><tspan x="0" y="79.65">xuống</tspan><tspan class="cls-54" x="18.74" y="79.65"> </tspan><tspan x="22.4" y="79.65">l</tspan><tspan class="cls-39" x="24.05" y="79.65">y</tspan><tspan x="27.08" y="79.65">.</tspan><tspan class="cls-55" x="28.53" y="79.65"> </tspan><tspan x="32.19" y="79.65">Cho</tspan><tspan class="cls-54" x="43.98" y="79.65"> </tspan><tspan x="47.64" y="79.65">thêm</tspan><tspan class="cls-55" x="63.19" y="79.65"> </tspan><tspan x="66.85" y="79.65">đườn</tspan><tspan class="cls-56" x="82.41" y="79.65">g</tspan><tspan x="86.22" y="79.65">, </tspan><tspan x="0" y="88.05">sữa</tspan><tspan class="cls-57" x="10" y="88.05"> </tspan><tspan x="13.43" y="88.05">tùy</tspan><tspan class="cls-58" x="22.9" y="88.05"> </tspan><tspan class="cls-39" x="26.33" y="88.05">ý</tspan><tspan x="29.35" y="88.05">,</tspan><tspan class="cls-57" x="30.8" y="88.05"> </tspan><tspan class="cls-42" x="34.23" y="88.05">k</tspan><tspan x="37.63" y="88.05">hu</tspan><tspan class="cls-49" x="45.37" y="88.05">ấ</tspan><tspan x="48.69" y="88.05">y</tspan><tspan class="cls-58" x="51.99" y="88.05"> </tspan><tspan x="55.42" y="88.05">đều</tspan><tspan class="cls-57" x="66.73" y="88.05"> </tspan><tspan x="70.16" y="88.05">để</tspan><tspan class="cls-58" x="77.61" y="88.05"> </tspan><tspan x="81.04" y="88.05">sử </tspan><tspan x="0" y="96.45">dụn</tspan><tspan class="cls-56" x="11.69" y="96.45">g</tspan><tspan x="15.5" y="96.45">.</tspan></tspan><tspan class="cls-44" x="0" y="106.87">B</tspan><tspan class="cls-59" x="4.2" y="106.87">ả</tspan><tspan x="8.62" y="106.87">o q</tspan><tspan class="cls-60" x="20.07" y="106.87">u</tspan><tspan x="24.63" y="106.87">ẢN</tspan><tspan class="cls-16"><tspan x="0" y="115.27">NƠI</tspan><tspan class="cls-61" x="10.12" y="115.27"> </tspan><tspan class="cls-42" x="13.33" y="115.27">K</tspan><tspan x="16.74" y="115.27">HÔ</tspan><tspan class="cls-62" x="24.46" y="115.27"> </tspan><tspan class="cls-63" x="27.68" y="115.27">r</tspan><tspan x="29.94" y="115.27">áo</tspan><tspan class="cls-61" x="37.15" y="115.27"> </tspan><tspan class="cls-44" x="40.37" y="115.27">v</tspan><tspan x="43.71" y="115.27">à</tspan><tspan class="cls-62" x="47.09" y="115.27"> </tspan><tspan x="50.3" y="115.27">thoáng</tspan><tspan class="cls-61" x="71.52" y="115.27"> </tspan><tspan x="74.74" y="115.27">m</tspan><tspan class="cls-44" x="80.58" y="115.27">á</tspan><tspan class="cls-64" x="83.92" y="115.27">t</tspan><tspan x="86.22" y="115.27">, </tspan><tspan x="0" y="123.67">đ</tspan><tspan class="cls-49" x="3.95" y="123.67">ậ</tspan><tspan x="7.27" y="123.67">y</tspan><tspan class="cls-65" x="10.56" y="123.67"> </tspan><tspan class="cls-42" x="13.43" y="123.67">k</tspan><tspan x="16.83" y="123.67">ín,</tspan><tspan class="cls-65" x="23.8" y="123.67"> </tspan><tspan x="26.67" y="123.67">t</tspan><tspan class="cls-66" x="28.99" y="123.67">r</tspan><tspan x="31.24" y="123.67">ánh</tspan><tspan class="cls-65" x="42.38" y="123.67"> </tspan><tspan x="45.25" y="123.67">ánh</tspan><tspan class="cls-67" x="56.39" y="123.67"> </tspan><tspan x="59.26" y="123.67">sáng</tspan><tspan class="cls-65" x="73.2" y="123.67"> </tspan><tspan x="76.07" y="123.67">trực </tspan><tspan x="0" y="132.07">tiế</tspan><tspan class="cls-68" x="7.46" y="132.07">p</tspan><tspan x="11.28" y="132.07">.</tspan></tspan></text><text class="cls-35" transform="translate(110.75 122.41)">INGREDIEN<tspan class="cls-69" x="34.92" y="0">T</tspan><tspan x="38.7" y="0">S</tspan><tspan class="cls-16"><tspan x="0" y="8.4">100% </tspan><tspan class="cls-56" x="17.8" y="8.4">P</tspan><tspan x="21.42" y="8.4">u</tspan><tspan class="cls-36" x="25.28" y="8.4">r</tspan><tspan x="27.5" y="8.4">e </tspan><tspan class="cls-52" x="32.49" y="8.4">g</tspan><tspan class="cls-70" x="36.36" y="8.4">r</tspan><tspan x="38.58" y="8.4">ound </tspan><tspan class="cls-52" x="55.59" y="8.4">c</tspan><tspan x="58.69" y="8.4">o</tspan><tspan class="cls-71" x="62.53" y="8.4">ff</tspan><tspan x="66.52" y="8.4">ee</tspan></tspan><tspan x="0" y="18.83">N</tspan><tspan class="cls-72" x="4.83" y="18.83">e</tspan><tspan x="8.6" y="18.83">T</tspan><tspan class="cls-73" x="12.44" y="18.83"> </tspan><tspan x="13.59" y="18.83">WEIGHT</tspan><tspan class="cls-16"><tspan x="0" y="27.22">500g</tspan></tspan><tspan x="0" y="37.65">Se</tspan><tspan class="cls-52" x="7.52" y="37.65">r</tspan><tspan x="11.63" y="37.65">vING SUGGESTIONS</tspan><tspan class="cls-16"><tspan class="cls-56" x="0" y="46.05">P</tspan><tspan x="3.62" y="46.05">UT</tspan><tspan class="cls-74" x="9.79" y="46.05"> </tspan><tspan x="11.8" y="46.05">3</tspan><tspan class="cls-75" x="15.4" y="46.05"> </tspan><tspan x="17.41" y="46.05">tps</tspan><tspan class="cls-74" x="26.48" y="46.05"> </tspan><tspan x="28.49" y="46.05">(app</tspan><tspan class="cls-36" x="41.82" y="46.05">r</tspan><tspan class="cls-76" x="44.04" y="46.05">o</tspan><tspan x="47.78" y="46.05">xim</tspan><tspan class="cls-44" x="58.5" y="46.05">a</tspan><tspan class="cls-52" x="61.84" y="46.05">t</tspan><tspan x="64.12" y="46.05">ely</tspan><tspan class="cls-75" x="72.58" y="46.05"> </tspan><tspan x="74.59" y="46.05">20g) </tspan><tspan x="0" y="54.45">of</tspan><tspan class="cls-77" x="5.89" y="54.45"> </tspan><tspan class="cls-52" x="7.17" y="54.45">g</tspan><tspan class="cls-36" x="11.04" y="54.45">r</tspan><tspan x="13.26" y="54.45">ound</tspan><tspan class="cls-77" x="28.8" y="54.45"> </tspan><tspan class="cls-52" x="30.08" y="54.45">c</tspan><tspan x="33.18" y="54.45">o</tspan><tspan class="cls-71" x="37.02" y="54.45">ff</tspan><tspan x="41.01" y="54.45">ee</tspan><tspan class="cls-77" x="48.02" y="54.45"> </tspan><tspan x="49.31" y="54.45">i</tspan><tspan class="cls-37" x="50.95" y="54.45">n</tspan><tspan class="cls-52" x="54.81" y="54.45">t</tspan><tspan x="57.08" y="54.45">o</tspan><tspan class="cls-77" x="60.92" y="54.45"> </tspan><tspan x="62.21" y="54.45">the</tspan><tspan class="cls-77" x="71.92" y="54.45" xml:space="preserve"> f</tspan><tspan x="73.21" y="54.45">il</tspan><tspan class="cls-52" x="78.52" y="54.45">t</tspan><tspan x="80.79" y="54.45">e</tspan><tspan class="cls-78" x="84.3" y="54.45">r</tspan><tspan x="86.22" y="54.45">, </tspan><tspan x="0" y="62.85">p</tspan><tspan class="cls-36" x="3.98" y="62.85">r</tspan><tspan x="6.2" y="62.85">ess</tspan><tspan class="cls-79" x="15.25" y="62.85"> </tspan><tspan x="18.09" y="62.85">disc</tspan><tspan class="cls-79" x="29.59" y="62.85"> </tspan><tspan x="32.43" y="62.85">ge</tspan><tspan class="cls-37" x="39.85" y="62.85">n</tspan><tspan x="43.7" y="62.85">tl</tspan><tspan class="cls-80" x="47.67" y="62.85">y</tspan><tspan class="cls-81" x="50.7" y="62.85">,</tspan><tspan class="cls-82" x="52.15" y="62.85"> </tspan><tspan x="54.99" y="62.85">add</tspan><tspan class="cls-83" x="66.26" y="62.85"> </tspan><tspan class="cls-84" x="69.1" y="62.85">boiled </tspan><tspan class="cls-44" x="0" y="71.25">wa</tspan><tspan class="cls-52" x="8.47" y="71.25">t</tspan><tspan x="10.74" y="71.25">e</tspan><tspan class="cls-78" x="14.25" y="71.25">r</tspan><tspan x="16.17" y="71.25">,</tspan><tspan class="cls-85" x="17.62" y="71.25"> </tspan><tspan class="cls-52" x="18.96" y="71.25">c</tspan><tspan class="cls-86" x="22.05" y="71.25">o</tspan><tspan class="cls-70" x="25.84" y="71.25">v</tspan><tspan x="29.14" y="71.25">er</tspan><tspan class="cls-87" x="34.94" y="71.25"> </tspan><tspan x="36.27" y="71.25">with</tspan><tspan class="cls-85" x="49.27" y="71.25"> </tspan><tspan x="50.6" y="71.25">li</tspan><tspan class="cls-36" x="53.89" y="71.25">d</tspan><tspan x="57.77" y="71.25">,</tspan><tspan class="cls-85" x="59.22" y="71.25"> </tspan><tspan class="cls-44" x="60.56" y="71.25">w</tspan><tspan x="65.68" y="71.25">ait</tspan><tspan class="cls-85" x="73.01" y="71.25"> </tspan><tspan x="74.35" y="71.25">u</tspan><tspan class="cls-37" x="78.21" y="71.25">n</tspan><tspan x="82.06" y="71.25">til </tspan><tspan x="0" y="79.65">the</tspan><tspan class="cls-88" x="9.71" y="79.65"> </tspan><tspan x="17.69" y="79.65">fil</tspan><tspan class="cls-52" x="23" y="79.65">t</tspan><tspan x="25.28" y="79.65">er</tspan><tspan class="cls-89" x="31.07" y="79.65"> </tspan><tspan x="39.05" y="79.65">d</tspan><tspan class="cls-90" x="43" y="79.65">r</tspan><tspan x="45.32" y="79.65">ips</tspan><tspan class="cls-88" x="53.71" y="79.65"> </tspan><tspan x="61.69" y="79.65">p</tspan><tspan class="cls-36" x="65.68" y="79.65">r</tspan><tspan x="67.89" y="79.65">ope</tspan><tspan class="cls-90" x="79.23" y="79.65">r</tspan><tspan x="81.54" y="79.65">l</tspan><tspan class="cls-39" x="83.2" y="79.65">y</tspan><tspan x="86.22" y="79.65">. </tspan><tspan class="cls-91" x="0" y="88.05">S</tspan><tspan x="3.49" y="88.05">e</tspan><tspan class="cls-92" x="7" y="88.05">r</tspan><tspan class="cls-36" x="9.46" y="88.05">v</tspan><tspan x="12.76" y="88.05">ed</tspan><tspan class="cls-93" x="20.22" y="88.05"> </tspan><tspan x="21.98" y="88.05">hot</tspan><tspan class="cls-93" x="32.02" y="88.05"> </tspan><tspan x="33.78" y="88.05">or</tspan><tspan class="cls-93" x="39.92" y="88.05"> </tspan><tspan class="cls-52" x="41.68" y="88.05">c</tspan><tspan x="44.77" y="88.05">ol</tspan><tspan class="cls-36" x="50.27" y="88.05">d</tspan><tspan x="54.14" y="88.05">,</tspan><tspan class="cls-93" x="55.59" y="88.05"> </tspan><tspan x="57.35" y="88.05">add</tspan><tspan class="cls-93" x="68.62" y="88.05"> </tspan><tspan x="70.39" y="88.05">suga</tspan><tspan class="cls-94" x="84.3" y="88.05">r</tspan><tspan x="86.22" y="88.05">, </tspan><tspan x="0" y="96.45">milk </tspan><tspan class="cls-52" x="13.89" y="96.45">t</tspan><tspan x="16.17" y="96.45">o tas</tspan><tspan class="cls-52" x="29.96" y="96.45">t</tspan><tspan class="cls-47" x="32.23" y="96.45">e</tspan><tspan x="35.66" y="96.45">.</tspan></tspan><tspan x="0" y="106.87">S</tspan><tspan class="cls-95" x="3.78" y="106.87">t</tspan><tspan x="7.41" y="106.87">o</tspan><tspan class="cls-96" x="12.43" y="106.87">r</tspan><tspan class="cls-97" x="16.65" y="106.87">a</tspan><tspan x="21.06" y="106.87">gE</tspan><tspan class="cls-16"><tspan class="cls-64" x="0" y="115.27">S</tspan><tspan class="cls-52" x="3.43" y="115.27">T</tspan><tspan x="5.71" y="115.27">O</tspan><tspan class="cls-36" x="9.55" y="115.27">R</tspan><tspan x="11.77" y="115.27">E</tspan><tspan class="cls-98" x="15.27" y="115.27"> </tspan><tspan class="cls-44" x="19.61" y="115.27">A</tspan><tspan x="22.96" y="115.27">t</tspan><tspan class="cls-98" x="25.28" y="115.27"> </tspan><tspan class="cls-70" x="29.61" y="115.27">r</tspan><tspan x="31.83" y="115.27">oom</tspan><tspan class="cls-98" x="45.36" y="115.27"> </tspan><tspan class="cls-52" x="49.69" y="115.27">t</tspan><tspan x="51.97" y="115.27">empe</tspan><tspan class="cls-66" x="68.8" y="115.27">r</tspan><tspan class="cls-37" x="71.06" y="115.27">a</tspan><tspan x="74.4" y="115.27">tu</tspan><tspan class="cls-36" x="80.58" y="115.27">r</tspan><tspan class="cls-47" x="82.8" y="115.27">e</tspan><tspan x="86.22" y="115.27">, </tspan><tspan x="0" y="123.67">tig</tspan><tspan class="cls-44" x="7.87" y="123.67">h</tspan><tspan x="11.73" y="123.67">tly</tspan><tspan class="cls-99" x="18.99" y="123.67"> </tspan><tspan x="20.72" y="123.67">close</tspan><tspan class="cls-70" x="35.63" y="123.67">d</tspan><tspan x="39.51" y="123.67">,</tspan><tspan class="cls-99" x="40.96" y="123.67"> </tspan><tspan class="cls-51" x="42.69" y="123.67">a</tspan><tspan class="cls-36" x="46" y="123.67">v</tspan><tspan x="49.3" y="123.67">oid</tspan><tspan class="cls-100" x="58.73" y="123.67"> </tspan><tspan class="cls-101" x="60.46" y="123.67">e</tspan><tspan class="cls-56" x="63.95" y="123.67">x</tspan><tspan class="cls-52" x="67.08" y="123.67">c</tspan><tspan x="70.18" y="123.67">essi</tspan><tspan class="cls-70" x="80.87" y="123.67">v</tspan><tspan x="84.16" y="123.67">e </tspan><tspan x="0" y="132.07">he</tspan><tspan class="cls-44" x="7.39" y="132.07">a</tspan><tspan class="cls-64" x="10.74" y="132.07">t</tspan><tspan x="13.03" y="132.07">.</tspan></tspan></text><line class="cls-33" x1="16.35" y1="99.79" x2="17.35" y2="99.79"/><line class="cls-34" x1="19.35" y1="99.79" x2="194.25" y2="99.79"/><line class="cls-33" x1="195.25" y1="99.79" x2="196.25" y2="99.79"/><text class="cls-102" transform="translate(14.94 93.87)">C<tspan class="cls-103" x="4.35" y="0">À PHÊ HƯƠNG</tspan><tspan class="cls-104" x="50.07" y="0"> </tspan><tspan class="cls-103" x="51.17" y="0">VỊ CH</tspan><tspan class="cls-105" x="68.34" y="0">Â</tspan><tspan class="cls-106" x="72.8" y="0">U </tspan><tspan class="cls-105" x="79.09" y="0">Â</tspan><tspan class="cls-106" x="83.56" y="0">U - EU</tspan><tspan class="cls-107" x="102.21" y="0">R</tspan><tspan class="cls-106" x="106.44" y="0">OPEAN F</tspan><tspan class="cls-108" x="134.45" y="0">L</tspan><tspan class="cls-109" x="138.15" y="0">A</tspan><tspan class="cls-110" x="142.43" y="0">V</tspan><tspan class="cls-103" x="146.95" y="0">OR </tspan><tspan class="cls-111" x="157.76" y="0">C</tspan><tspan class="cls-103" x="161.81" y="0">OFFEE</tspan></text><g class="cls-112"><rect class="cls-113" x="35.46" y="17.41" width="29.13" height="26.57"/><g class="cls-112"><path class="cls-114" d="M35.48,44H64.57a14.56,14.56,0,0,0-29.09,0"/><path class="cls-115" d="M35.49,44H64.56C64.07,38.23,57.75,33.66,50,33.66S36,38.23,35.49,44"/></g></g><g class="cls-116"><g class="cls-117"><rect class="cls-113" x="85.57" y="-48.6" width="71.86" height="65.56"/><g class="cls-118"><path class="cls-119" d="M85.62,17h71.77a35.93,35.93,0,0,0-71.77,0"/><path class="cls-115" d="M85.65,17h71.71c-1.2-14.21-16.8-25.46-35.86-25.46S86.85,2.74,85.65,17"/></g><g class="cls-117"><path class="cls-119" d="M76.24,25.16a5.44,5.44,0,0,1,3,.68,2.78,2.78,0,0,1,1.3,2.5c0,2.41-2,3.42-3.82,3.44-.17,0-.39,0-.5,0l-1-.25v2.26c0,1.4.12,1.46,1.57,1.6V36h-5.3v-.61c1.25-.15,1.42-.2,1.42-1.6V27.4c0-1.39-.17-1.54-1.42-1.63v-.61Zm-1,5.64a2.13,2.13,0,0,0,.88.16c.77,0,2-.44,2-2.64,0-1.86-1-2.48-2.1-2.48a1,1,0,0,0-.65.17c-.12.1-.15.26-.15.51Zm18.57-5c-1.3.14-1.41.24-1.41,1.62v6.37c0,1.38.13,1.48,1.41,1.6V36H88.67v-.61c1.32-.17,1.41-.22,1.41-1.6V30.63H85.59v3.13c0,1.38.15,1.46,1.4,1.6V36H81.86v-.61c1.24-.14,1.42-.22,1.42-1.6V27.39c0-1.38-.15-1.52-1.42-1.62v-.61H87v.61c-1.26.12-1.4.24-1.4,1.62v2.38h4.49V27.39c0-1.38-.16-1.48-1.41-1.62v-.61h5.14Zm12.63,0c-1.06.1-1.35.42-1.41,1A21.32,21.32,0,0,0,105,29V31.2a5.46,5.46,0,0,1-1.19,3.87,4.28,4.28,0,0,1-3.12,1.15,4.75,4.75,0,0,1-3-.86c-1-.73-1.43-1.75-1.43-3.61V27.54c0-1.53-.15-1.65-1.42-1.77v-.61H100v.61c-1.24.12-1.39.24-1.39,1.77V32c0,1.87.91,3.1,2.69,3.1,2,0,2.85-1.47,2.85-4V29c0-1.15,0-1.75-.09-2.25-.06-.76-.53-.93-1.69-1v-.61h4.12Zm14.78,7.34a24.25,24.25,0,0,1-.93,2.68,14.31,14.31,0,0,1-3.06.43c-4.48,0-6.33-2.88-6.33-5.52,0-3.45,2.63-5.78,6.63-5.78a17.69,17.69,0,0,1,3.14.4c.08.79.2,2,.32,2.75l-.67.12a2.88,2.88,0,0,0-1.73-2.27,4.36,4.36,0,0,0-1.45-.23c-2.41,0-3.62,2-3.62,4.63,0,3,1.56,5.1,3.84,5.1,1.4,0,2.33-.73,3.23-2.56ZM134,25.77c-1.06.1-1.35.42-1.41,1a20.5,20.5,0,0,0-.09,2.23V31.2a5.45,5.45,0,0,1-1.18,3.87,4.29,4.29,0,0,1-3.13,1.15,4.74,4.74,0,0,1-3-.86c-1-.73-1.44-1.75-1.44-3.61V27.54c0-1.53-.14-1.65-1.41-1.77v-.61h5.14v.61c-1.25.12-1.4.24-1.4,1.77V32c0,1.87.92,3.1,2.7,3.1,2,0,2.85-1.47,2.85-4V29c0-1.15,0-1.75-.09-2.25-.06-.76-.53-.93-1.69-1v-.61H134Zm6.77-.85a5.43,5.43,0,0,1,5.6,5.53,5.71,5.71,0,1,1-5.6-5.53Zm-.24.74c-1.7,0-2.95,1.66-2.95,4.61s1.11,5.22,3.36,5.22c1.58,0,2.81-1.53,2.81-4.58C143.73,27.62,142.44,25.66,140.51,25.66Zm18.88.11c-1,.14-1.33.35-1.38,1.1s-.1,1.22-.1,2.66v6.63H157L150,27.84V31.6c0,1.44,0,2.09.08,2.58.07.73.42,1.11,1.65,1.18V36h-4.13v-.61c1-.09,1.37-.34,1.47-1.12a21.6,21.6,0,0,0,.1-2.64v-4a1.94,1.94,0,0,0-.35-1.34c-.3-.42-.7-.47-1.4-.54v-.61h3.25l6.34,7.37v-3c0-1.44,0-2-.07-2.61s-.32-1.06-1.7-1.15v-.61h4.11Zm12.27,5.64c-.95.17-1.07.24-1.07,1.37v1.28a9.7,9.7,0,0,0,.1,1.61,25.35,25.35,0,0,1-4,.55c-3.91,0-6.15-2.38-6.15-5.67,0-3.75,3-5.63,6.59-5.63a26.08,26.08,0,0,1,3.36.39c0,.73.16,2,.28,2.91l-.65.12a3.14,3.14,0,0,0-2-2.48,4.83,4.83,0,0,0-1.42-.2c-2,0-3.53,1.74-3.53,4.61s1,5.24,3.76,5.24a2.1,2.1,0,0,0,1.07-.24c.25-.15.38-.43.38-.94V32.86c0-1.16-.23-1.28-1.63-1.45V30.8h5Z"/></g></g></g><rect class="cls-119" x="85.09" y="358.19" width="6.44" height="0.83" rx="0.28"/><polygon class="cls-119" points="86.87 352.72 85.78 353.81 86.48 353.81 86.48 357.67 87.31 357.67 87.31 353.81 87.97 353.81 86.87 352.72"/><polygon class="cls-119" points="90.84 353.81 89.75 352.72 88.65 353.81 89.33 353.81 89.33 357.67 90.16 357.67 90.16 353.81 90.84 353.81"/><circle class="cls-120" cx="88.31" cy="356.07" r="5.33"/><path class="cls-119" d="M106.3,352.87a6.33,6.33,0,0,0-4,2.78,1.7,1.7,0,0,1,2.09,0,1.56,1.56,0,0,1,1.73-.13v3a.3.3,0,0,1-.59,0v-.13a.17.17,0,1,0-.34,0v.13a.64.64,0,0,0,1.27,0v-3a1.56,1.56,0,0,1,1.73.13,1.7,1.7,0,0,1,2.09,0A6.33,6.33,0,0,0,106.3,352.87Z"/><circle class="cls-120" cx="106.3" cy="356.07" r="5.33"/><circle class="cls-120" cx="124.29" cy="356.07" r="5.33"/><path class="cls-121" d="M124.67,358.12a.23.23,0,0,1,.24-.17,5.93,5.93,0,0,1,1.28.3.4.4,0,0,1,.23.18,8,8,0,0,1-.39,1.26c0,.1,0,.15-.13.1-.35-.17-.7-.67-1.08-.91-.13-.07-.25-.12-.28-.21a.09.09,0,0,1,0-.05A2.05,2.05,0,0,1,124.67,358.12Zm1,.5a.14.14,0,0,0,.21.17.15.15,0,0,0,0-.19A.13.13,0,0,0,125.7,358.62Z"/><path class="cls-121" d="M122.93,358.62a.13.13,0,0,0-.19,0,.15.15,0,0,0,0,.19.14.14,0,1,0,.21-.17Zm-.33,1.07a8,8,0,0,1-.39-1.26.4.4,0,0,1,.23-.18,6,6,0,0,1,1.27-.3.23.23,0,0,1,.25.17,2.63,2.63,0,0,1,.14.5.43.43,0,0,1,0,.05c0,.09-.16.14-.28.21-.39.24-.73.74-1.08.91C122.64,359.84,122.62,359.79,122.6,359.69Z"/><path class="cls-121" d="M125.35,356.79a3.45,3.45,0,0,1,1.27-1,.56.56,0,0,1,.52,0,.31.31,0,0,1,.09.11h0a3.27,3.27,0,0,1,.5-1.26c.11-.14.31-.32.48-.17s-.21,2-.53,2.4c-.54.63-1.05.37-1.49,1.37a5.93,5.93,0,0,0-1.28-.3A4.78,4.78,0,0,1,125.35,356.79Z"/><path class="cls-121" d="M122.44,358.25c-.44-1-1-.74-1.49-1.37-.32-.37-.81-2.16-.53-2.4s.37,0,.48.17a3.27,3.27,0,0,1,.5,1.26.31.31,0,0,1,.09-.11c.18-.13.49,0,.81.16a3.46,3.46,0,0,1,1,.83,4.38,4.38,0,0,1,.43,1.16A6,6,0,0,0,122.44,358.25Z"/><path class="cls-121" d="M124.91,358a4.78,4.78,0,0,1,.44-1.16,3.45,3.45,0,0,1,1.27-1,.56.56,0,0,1,.52,0,.31.31,0,0,1,.09.11c.13.33-.72.79-.89.89"/><path class="cls-121" d="M126.19,358.25c.44-1,1-.74,1.49-1.37.32-.37.81-2.16.53-2.4s-.37,0-.48.17a3.27,3.27,0,0,0-.5,1.26"/><path class="cls-121" d="M126.19,358.25a.4.4,0,0,1,.23.18,8,8,0,0,1-.39,1.26c0,.1,0,.15-.13.1-.35-.17-.7-.67-1.08-.91-.13-.07-.25-.12-.28-.21a.09.09,0,0,1,0-.05,2.05,2.05,0,0,1,.14-.5.23.23,0,0,1,.24-.17A5.93,5.93,0,0,1,126.19,358.25Z"/><path class="cls-121" d="M125.7,358.62a.13.13,0,0,1,.19,0,.15.15,0,0,1,0,.19.14.14,0,0,1-.21-.17Z"/><path class="cls-121" d="M121.4,355.91c-.13.33.72.79.89.89"/><path class="cls-121" d="M123.71,358a4.38,4.38,0,0,0-.43-1.16,3.46,3.46,0,0,0-1-.83c-.32-.19-.63-.29-.81-.16a.31.31,0,0,0-.09.11"/><path class="cls-121" d="M122.44,358.25c-.44-1-1-.74-1.49-1.37-.32-.37-.81-2.16-.53-2.4s.37,0,.48.17a3.27,3.27,0,0,1,.5,1.26h0"/><path class="cls-121" d="M122.44,358.25a.4.4,0,0,0-.23.18,8,8,0,0,0,.39,1.26c0,.1,0,.15.13.1.35-.17.69-.67,1.08-.91.12-.07.25-.12.28-.21a.43.43,0,0,0,0-.05,2.63,2.63,0,0,0-.14-.5.23.23,0,0,0-.25-.17A6,6,0,0,0,122.44,358.25Z"/><path class="cls-121" d="M122.93,358.62a.13.13,0,0,0-.19,0,.15.15,0,0,0,0,.19.14.14,0,1,0,.21-.17Z"/><polygon class="cls-122" points="124.35 352.93 123.33 353.7 124.35 354.48 125.38 353.7 124.35 352.93"/><polygon class="cls-122" points="125.53 353.94 124.5 354.71 124.5 355.89 125.53 355.12 125.53 353.94"/><polygon class="cls-122" points="123.18 353.94 124.21 354.71 124.21 355.89 123.18 355.12 123.18 353.94"/><text class="cls-123" transform="translate(77.99 369.78)">P<tspan class="cls-11" x="3.13" y="0">R</tspan><tspan class="cls-24" x="6.32" y="0">ODU</tspan><tspan class="cls-124" x="18.15" y="0">C</tspan><tspan x="21.74" y="0">T OF</tspan><tspan class="cls-31" x="32.81" y="0"> </tspan><tspan class="cls-9" x="33.8" y="0">VI</tspan><tspan class="cls-125" x="38.47" y="0">E</tspan><tspan class="cls-24" x="41.45" y="0">TN</tspan><tspan class="cls-126" x="48.26" y="0">A</tspan><tspan class="cls-24" x="51.85" y="0">M</tspan></text><text class="cls-127" transform="translate(164.77 81.35)">coffee</text><rect class="cls-128" x="5.06" y="5.06" width="202.47" height="374.58" rx="12.11"/><text class="cls-129" transform="translate(89.89 308.47)"><tspan class="cls-130">W</tspan><tspan x="5.08" y="0">ebsi</tspan><tspan class="cls-131" x="16.08" y="0">t</tspan><tspan x="18.25" y="0">e:</tspan><tspan class="cls-132" x="22.98" y="0"> </tspan><tspan class="cls-133" x="25.98" y="0">ww</tspan><tspan class="cls-134" x="34.96" y="0">w</tspan><tspan class="cls-16" x="39.14" y="0">.pcim</tspan><tspan class="cls-135" x="52.89" y="0">e</tspan><tspan class="cls-16" x="55.88" y="0">x.vn</tspan><tspan x="0" y="10.12">E-mail:</tspan><tspan class="cls-132" x="18.32" y="10.12">  </tspan><tspan x="24.32" y="10.12"> </tspan><tspan class="cls-136" x="25.53" y="10.12">c</tspan><tspan class="cls-16" x="28.18" y="10.12">o</tspan><tspan class="cls-137" x="31.48" y="10.12">n</tspan><tspan class="cls-16" x="34.78" y="10.12">ta</tspan><tspan class="cls-138" x="39.66" y="10.12">c</tspan><tspan class="cls-139" x="42.43" y="10.12">t@pcim</tspan><tspan class="cls-140" x="61.34" y="10.12">e</tspan><tspan class="cls-139" x="64.33" y="10.12">x.vn</tspan><tspan x="0" y="20.25">Phone:</tspan><tspan class="cls-132" x="18.71" y="20.25">  </tspan><tspan x="24.71" y="20.25"> </tspan><tspan class="cls-16" x="25.92" y="20.25">(+84 28) 6256 8156</tspan><tspan class="cls-132" x="0" y="30.37">  </tspan><tspan x="6" y="30.37"> </tspan><tspan class="cls-132" x="7.21" y="30.37">  </tspan><tspan x="13.21" y="30.37"> </tspan><tspan class="cls-132" x="14.42" y="30.37">  </tspan><tspan x="20.42" y="30.37"> </tspan><tspan class="cls-132" x="21.64" y="30.37"> </tspan><tspan x="24.64" y="30.37"> </tspan><tspan class="cls-16" x="25.85" y="30.37">(+84 934) 726 096</tspan></text><rect class="cls-119" x="29.55" y="301.32" width="47.59" height="47.59"/><g id="Layer_1-2" data-name="Layer 1-2"><g id="elements"><path class="cls-3" d="M32.3,304.07h2v2h-2Zm2,0h2v2h-2Zm2,0h2v2h-2Zm2,0h2v2h-2Zm2,0h2v2h-2Zm2,0h2v2h-2Zm2,0h2v2h-2Zm8,0h2v2h-2Zm2,0h2v2h-2Zm2,0h2v2h-2Zm4,0h2v2h-2Zm2,0h2v2h-2Zm2,0h2v2h-2Zm2,0h2v2h-2Zm2,0h2v2h-2Zm2,0h2v2h-2Zm2,0h2v2h-2Zm-40.09,2h2v2h-2Zm12,0h2v2h-2Zm4,0h2v2h-2Zm2,0h2v2h-2Zm2,0h2v2h-2Zm4,0h2v2h-2Zm4,0h2v2h-2Zm12,0h2v2h-2Zm-40.09,2h2v2h-2Zm4,0h2v2h-2Zm2,0h2v2h-2Zm2,0h2v2h-2Zm4,0h2v2h-2Zm8,0h2v2h-2Zm2,0h2v2h-2Zm2,0h2v2h-2Zm4,0h2v2h-2Zm4,0h2v2h-2Zm2,0h2v2h-2Zm2,0h2v2h-2Zm4,0h2v2h-2Zm-40.09,2h2v2h-2Zm4,0h2v2h-2Zm2,0h2v2h-2Zm2,0h2v2h-2Zm4,0h2v2h-2Zm4,0h2v2h-2Zm2,0h2v2h-2Zm6,0h2v2h-2Zm4,0h2v2h-2Zm4,0h2v2h-2Zm2,0h2v2h-2Zm2,0h2v2h-2Zm4,0h2v2h-2Zm-40.09,2h2v2h-2Zm4,0h2v2h-2Zm2,0h2v2h-2Zm2,0h2v2h-2Zm4,0h2v2h-2Zm6,0h2v2h-2Zm6,0h2v2h-2Zm4,0h2v2h-2Zm4,0h2v2h-2Zm2,0h2v2h-2Zm2,0h2v2h-2Zm4,0h2v2h-2Zm-40.09,2h2v2h-2Zm12,0h2v2h-2Zm4,0h2v2h-2Zm6,0h2v2h-2Zm6,0h2v2h-2Zm12,0h2v2h-2Zm-40.09,2h2v2h-2Zm2,0h2v2h-2Zm2,0h2v2h-2Zm2,0h2v2h-2Zm2,0h2v2h-2Zm2,0h2v2h-2Zm2,0h2v2h-2Zm4,0h2v2h-2Zm4,0h2v2h-2Zm4,0h2v2h-2Zm4,0h2v2h-2Zm2,0h2v2h-2Zm2,0h2v2h-2Zm2,0h2v2h-2Zm2,0h2v2h-2Zm2,0h2v2h-2Zm2,0h2v2h-2Zm-22,2h2v2h-2Zm-18.06,2h2v2h-2Zm2,0h2v2h-2Zm2,0h2v2h-2Zm2,0h2v2h-2Zm2,0h2v2h-2Zm4,0h2v2h-2Zm2,0h2v2h-2Zm2,0h2v2h-2Zm6,0h2v2h-2Zm4,0h2v2h-2Zm4,0h2v2h-2Zm4,0h2v2h-2Zm4,0h2v2h-2Zm-34.07,2h2v2h-2Zm4,0h2v2h-2Zm2,0h2v2h-2Zm4,0h2v2h-2Zm2,0h2v2h-2Zm6,0h2v2h-2Zm2,0h2v2h-2Zm2,0h2v2h-2Zm6,0h2v2h-2Zm4,0h2v2h-2Zm4,0h2v2h-2Zm-40.12,2h2v2h-2Zm2,0h2v2h-2Zm2,0h2v2h-2Zm2,0h2v2h-2Zm2,0h2v2h-2Zm4,0h2v2h-2Zm4,0h2v2h-2Zm4,0h2v2h-2Zm4,0h2v2h-2Zm4,0h2v2h-2Zm6,0h2v2h-2Zm4,0h2v2h-2Zm-38.08,2h2v2h-2Zm8,0h2v2h-2Zm2,0h2v2h-2Zm10,0h2v2h-2Zm2,0h2v2h-2Zm2,0h2v2h-2Zm2,0h2v2h-2Zm4,0h2v2h-2Zm2,0h2v2h-2Zm2,0h2v2h-2Zm2,0h2v2h-2Zm-34.08,2h2v2h-2Zm6,0h2v2h-2Zm2,0h2v2h-2Zm2,0h2v2h-2Zm2,0h2v2h-2Zm4,0h2v2h-2Zm6,0h2v2h-2Zm4,0h2v2h-2Zm4,0h2v2h-2Zm-16,2h2v2h-2Zm8,0h2v2h-2Zm2,0h2v2h-2Zm2,0h2v2h-2Zm2,0h2v2h-2Zm2,0h2v2h-2Zm6,0h2v2h-2Zm2,0h2v2h-2Zm-40.09,2h2v2h-2Zm2,0h2v2h-2Zm2,0h2v2h-2Zm2,0h2v2h-2Zm2,0h2v2h-2Zm2,0h2v2h-2Zm2,0h2v2h-2Zm4,0h2v2h-2Zm4,0h2v2h-2Zm2,0h2v2h-2Zm6,0h2v2h-2Zm2,0h2v2h-2Zm4,0h2v2h-2Zm2,0h2v2h-2Zm2,0h2v2h-2Zm-38.08,2h2v2h-2Zm12,0h2v2h-2Zm6,0h2v2h-2Zm12,0h2v2h-2Zm4,0h2v2h-2Zm2,0h2v2h-2Zm2,0h2v2h-2Zm-38.08,2h2v2h-2Zm4,0h2v2h-2Zm2,0h2v2h-2Zm2,0h2v2h-2Zm4,0h2v2h-2Zm4,0h2v2h-2Zm2,0h2v2h-2Zm2,0h2v2h-2Zm2,0h2v2h-2Zm8,0h2v2h-2Zm2,0h2v2h-2Zm8,0h2v2h-2Zm-40.09,2h2v2h-2Zm4,0h2v2h-2Zm2,0h2v2h-2Zm2,0h2v2h-2Zm4,0h2v2h-2Zm4,0h2v2h-2Zm6,0h2v2h-2Zm2,0h2v2h-2Zm2,0h2v2h-2Zm2,0h2v2h-2Zm4,0h2v2h-2Zm2,0h2v2h-2Zm-34.07,2h2v2h-2Zm4,0h2v2h-2Zm2,0h2v2h-2Zm2,0h2v2h-2Zm4,0h2v2h-2Zm4,0h2v2h-2Zm2,0h2v2h-2Zm6,0h2v2h-2Zm4,0h2v2h-2Zm6,0h2v2h-2Zm2,0h2v2h-2Zm-36.11,2h2v2h-2Zm12,0h2v2h-2Zm4,0h2v2h-2Zm4,0h2v2h-2Zm2,0h2v2h-2Zm2,0h2v2h-2Zm2,0h2v2h-2Zm2,0h2v2h-2Zm6,0h2v2h-2Zm2,0h2v2h-2Zm-36.08,2h2v2h-2Zm2,0h2v2h-2Zm2,0h2v2h-2Zm2,0h2v2h-2Zm2,0h2v2h-2Zm2,0h2v2h-2Zm2,0h2v2h-2Zm4,0h2v2h-2Zm8,0h2v2h-2Zm14,0h2v2h-2Z"/></g></g></g></g></svg>