<svg xmlns="http://www.w3.org/2000/svg" viewBox="0 0 419.89 83.09"><defs><style>.cls-1{fill:#fff;}</style></defs><title>horizontal-logo</title><g id="Layer_2" data-name="Layer 2"><g id="Logo"><g id="white"><path class="cls-1" d="M58.34,67.77a31.24,31.24,0,1,1,7.7-7l7.39,7.39a41.8,41.8,0,1,0-7.62,7.07Z"/><path class="cls-1" d="M41.55,20.77A20.78,20.78,0,1,0,62.32,41.54,20.79,20.79,0,0,0,41.55,20.77m-6.24,27H31.16V43.62h4.15Zm8.31,0H39.47V39.47h4.15Zm8.31,0H47.78V35.31h4.15Z"/><polygon class="cls-1" points="116.76 58.96 116.76 57.58 124.51 57.58 124.51 58.96 121.36 58.96 121.36 71.72 119.92 71.72 119.92 58.96 116.76 58.96"/><path class="cls-1" d="M131.28,61a5.19,5.19,0,0,1,4,1.76,5.62,5.62,0,0,1-.08,7.6,5.53,5.53,0,0,1-7.86,0,5.59,5.59,0,0,1-.08-7.6,5.17,5.17,0,0,1,4-1.76m0,1.32a3.89,3.89,0,0,0-2.89,1.24,4.3,4.3,0,0,0-.65,5.11,3.8,3.8,0,0,0,1.48,1.52,4.18,4.18,0,0,0,4.11,0,3.83,3.83,0,0,0,1.49-1.52,4.18,4.18,0,0,0,.55-2.11,4.14,4.14,0,0,0-1.21-3,3.88,3.88,0,0,0-2.88-1.24"/><path class="cls-1" d="M139.24,61.26h1.35v1.92a5.43,5.43,0,0,1,1.83-1.64,5,5,0,0,1,2.32-.55,5.15,5.15,0,0,1,3.81,1.61,5.29,5.29,0,0,1,1.59,3.86,5.39,5.39,0,0,1-1.57,3.92,5.29,5.29,0,0,1-6.09,1.09,5.69,5.69,0,0,1-1.89-1.54v5.62h-1.35Zm5.39,1a4,4,0,0,0-2.94,1.22,4.16,4.16,0,0,0-1.2,3,4.29,4.29,0,0,0,.54,2.15,3.85,3.85,0,0,0,1.52,1.5,4.23,4.23,0,0,0,2.1.56,4,4,0,0,0,2-.56,4.17,4.17,0,0,0,1.52-1.57,4.27,4.27,0,0,0,0-4.23,4.09,4.09,0,0,0-1.51-1.55,4,4,0,0,0-2.07-.55"/><path class="cls-1" d="M165.07,57.22a7.32,7.32,0,0,1,5.37,2.15,7.44,7.44,0,0,1-5.26,12.71,7.26,7.26,0,0,1-5.31-2.15,7.11,7.11,0,0,1-2.16-5.22,7.57,7.57,0,0,1,1-3.77,7.3,7.3,0,0,1,6.38-3.72m.06,1.38a6,6,0,0,0-5.17,3,6.07,6.07,0,0,0-.79,3.09,5.92,5.92,0,0,0,6,6,6,6,0,0,0,3.05-.8,5.64,5.64,0,0,0,2.18-2.18,6.06,6.06,0,0,0,.79-3.08,6,6,0,0,0-.79-3,5.83,5.83,0,0,0-2.21-2.17,5.94,5.94,0,0,0-3-.82"/><path class="cls-1" d="M175.22,61.26h1.35v1.88a5.59,5.59,0,0,1,1.79-1.61,4.32,4.32,0,0,1,2.13-.54,3.71,3.71,0,0,1,2.09.6,3.53,3.53,0,0,1,1.34,1.61,8.66,8.66,0,0,1,.43,3.14v5.38H183v-5a12.51,12.51,0,0,0-.14-2.41,2.69,2.69,0,0,0-.9-1.56,2.72,2.72,0,0,0-1.73-.53A3.3,3.3,0,0,0,178,63a3.84,3.84,0,0,0-1.28,2,14.64,14.64,0,0,0-.19,2.85v3.83h-1.35Z"/><rect class="cls-1" x="187.03" y="57.22" width="1.35" height="14.5"/><path class="cls-1" d="M191.65,57a1.07,1.07,0,0,1,.78.33,1.12,1.12,0,0,1,0,1.57,1.06,1.06,0,0,1-.78.32,1,1,0,0,1-.78-.32,1.1,1.1,0,0,1,0-1.57,1,1,0,0,1,.78-.33M191,61.26h1.35V71.72H191Z"/><path class="cls-1" d="M195.12,61.26h1.34v1.88a5.7,5.7,0,0,1,1.79-1.61,4.39,4.39,0,0,1,2.14-.54,3.68,3.68,0,0,1,2.08.6,3.47,3.47,0,0,1,1.34,1.61,8.44,8.44,0,0,1,.43,3.14v5.38H202.9v-5a12.24,12.24,0,0,0-.15-2.41,2.68,2.68,0,0,0-.89-1.56,2.73,2.73,0,0,0-1.74-.53,3.34,3.34,0,0,0-2.19.81,3.76,3.76,0,0,0-1.27,2,13.66,13.66,0,0,0-.2,2.85v3.83h-1.34Z"/><path class="cls-1" d="M215.94,68.25l1.13.6a6.31,6.31,0,0,1-1.28,1.77,5.06,5.06,0,0,1-1.65,1,5.62,5.62,0,0,1-2.07.35,5,5,0,0,1-4-1.67,5.69,5.69,0,0,1-1.44-3.8A5.56,5.56,0,0,1,207.84,63,5,5,0,0,1,212,61a5.16,5.16,0,0,1,4.27,2,5.71,5.71,0,0,1,1.16,3.58H208a4.31,4.31,0,0,0,1.17,3A3.74,3.74,0,0,0,212,70.75a4.43,4.43,0,0,0,1.56-.28,4.08,4.08,0,0,0,1.28-.73,6.26,6.26,0,0,0,1.15-1.49m0-2.82a4.58,4.58,0,0,0-.79-1.72,3.79,3.79,0,0,0-1.36-1,4.23,4.23,0,0,0-1.78-.39,3.84,3.84,0,0,0-2.65,1,4.41,4.41,0,0,0-1.22,2.16Z"/><path class="cls-1" d="M225.67,57.58h2.82a17.11,17.11,0,0,1,3.2.19,3.6,3.6,0,0,1,2,1.24,3.5,3.5,0,0,1,.79,2.33,3.67,3.67,0,0,1-.54,2,3.37,3.37,0,0,1-1.55,1.33,7.06,7.06,0,0,1-2.79.45l5.08,6.57H233l-5.09-6.57h-.8v6.57h-1.42ZM227.09,59v4.81l2.44,0a6,6,0,0,0,2.09-.27,2.2,2.2,0,0,0,1.06-.86,2.32,2.32,0,0,0,.38-1.32,2.36,2.36,0,0,0-.38-1.3,2.21,2.21,0,0,0-1-.83,6.33,6.33,0,0,0-2.08-.25Z"/><path class="cls-1" d="M246.14,68.25l1.13.6A6.14,6.14,0,0,1,246,70.62a4.91,4.91,0,0,1-1.64,1,5.62,5.62,0,0,1-2.07.35,5,5,0,0,1-4-1.67,5.65,5.65,0,0,1-1.45-3.8A5.57,5.57,0,0,1,238.05,63a5,5,0,0,1,4.14-2,5.19,5.19,0,0,1,4.28,2,5.77,5.77,0,0,1,1.15,3.58h-9.41a4.25,4.25,0,0,0,1.16,3,3.74,3.74,0,0,0,2.79,1.16,4.38,4.38,0,0,0,1.55-.28,4.08,4.08,0,0,0,1.28-.73,6.26,6.26,0,0,0,1.15-1.49m0-2.82a4.57,4.57,0,0,0-.78-1.72,3.92,3.92,0,0,0-1.37-1,4.17,4.17,0,0,0-1.78-.39,3.84,3.84,0,0,0-2.65,1,4.41,4.41,0,0,0-1.22,2.16Z"/><path class="cls-1" d="M255.39,62.4l-.87.9a3.1,3.1,0,0,0-2.11-1,1.63,1.63,0,0,0-1.12.43,1.36,1.36,0,0,0-.47,1,1.48,1.48,0,0,0,.39,1,5.19,5.19,0,0,0,1.62,1.11,6.07,6.07,0,0,1,2,1.5,2.75,2.75,0,0,1,.53,1.65,3,3,0,0,1-.91,2.18,3.09,3.09,0,0,1-2.26.89,4,4,0,0,1-1.73-.39,3.84,3.84,0,0,1-1.36-1.09l.85-1a2.93,2.93,0,0,0,2.18,1.17,2,2,0,0,0,1.38-.53,1.59,1.59,0,0,0,.57-1.22,1.54,1.54,0,0,0-.38-1,5.73,5.73,0,0,0-1.69-1.12,5.46,5.46,0,0,1-1.93-1.45,2.69,2.69,0,0,1-.51-1.62,2.63,2.63,0,0,1,.81-2,2.84,2.84,0,0,1,2.06-.79,4.28,4.28,0,0,1,2.91,1.41"/><path class="cls-1" d="M266.58,68.25l1.13.6a6.31,6.31,0,0,1-1.28,1.77,5.06,5.06,0,0,1-1.65,1,5.62,5.62,0,0,1-2.07.35,5,5,0,0,1-4-1.67,5.7,5.7,0,0,1-1.45-3.8A5.57,5.57,0,0,1,258.49,63a5,5,0,0,1,4.15-2,5.17,5.17,0,0,1,4.27,2,5.7,5.7,0,0,1,1.15,3.58h-9.41a4.25,4.25,0,0,0,1.16,3,3.76,3.76,0,0,0,2.79,1.16,4.34,4.34,0,0,0,1.55-.28,4.25,4.25,0,0,0,1.29-.73,6.54,6.54,0,0,0,1.14-1.49m0-2.82a4.57,4.57,0,0,0-.78-1.72,3.88,3.88,0,0,0-1.36-1,4.23,4.23,0,0,0-1.78-.39,3.82,3.82,0,0,0-2.65,1,4.5,4.5,0,0,0-1.23,2.16Z"/><path class="cls-1" d="M281,61.26V71.72h-1.33V69.93a5.82,5.82,0,0,1-1.9,1.54,5.31,5.31,0,0,1-6.1-1.09,5.39,5.39,0,0,1-1.57-3.92,5.29,5.29,0,0,1,1.59-3.86A5.17,5.17,0,0,1,275.51,61a5,5,0,0,1,2.33.55,5.43,5.43,0,0,1,1.83,1.64V61.26Zm-5.38,1a4,4,0,0,0-3.59,2.1,4.27,4.27,0,0,0,0,4.23,4.17,4.17,0,0,0,1.52,1.57,4,4,0,0,0,2.06.56,4.23,4.23,0,0,0,2.09-.56,3.85,3.85,0,0,0,1.52-1.5,4.29,4.29,0,0,0,.54-2.15,4.16,4.16,0,0,0-1.2-3,4,4,0,0,0-2.94-1.22"/><path class="cls-1" d="M283.52,61.26h1.37v1.53a4.82,4.82,0,0,1,1.3-1.35,2.51,2.51,0,0,1,1.42-.45,2.49,2.49,0,0,1,1.2.36l-.71,1.13a1.89,1.89,0,0,0-.71-.18,1.94,1.94,0,0,0-1.3.55,3.48,3.48,0,0,0-.95,1.72,16.24,16.24,0,0,0-.25,3.61v3.54h-1.37Z"/><path class="cls-1" d="M300.1,63.44,299,64.1a4.45,4.45,0,0,0-3.77-1.84,4.38,4.38,0,0,0-3.18,1.23,4,4,0,0,0-1.26,3,4.31,4.31,0,0,0,.58,2.15,4.07,4.07,0,0,0,1.6,1.56,4.81,4.81,0,0,0,6-1.27l1.07.7a5.1,5.1,0,0,1-2,1.75,6.38,6.38,0,0,1-2.88.62,5.73,5.73,0,0,1-4.12-1.57,5.12,5.12,0,0,1-1.63-3.84,5.54,5.54,0,0,1,.76-2.83,5.46,5.46,0,0,1,2.1-2,6.22,6.22,0,0,1,3-.73,6.49,6.49,0,0,1,2,.32,5.74,5.74,0,0,1,1.64.83,4.24,4.24,0,0,1,1.14,1.3"/><path class="cls-1" d="M302.69,57.22H304v5.92a5.73,5.73,0,0,1,1.8-1.61A4.32,4.32,0,0,1,308,61a3.68,3.68,0,0,1,2.08.6,3.56,3.56,0,0,1,1.34,1.6,8.47,8.47,0,0,1,.43,3.15v5.38h-1.35v-5a13.42,13.42,0,0,0-.14-2.41,2.7,2.7,0,0,0-.91-1.56,2.66,2.66,0,0,0-1.72-.53,3.32,3.32,0,0,0-2.19.81,3.84,3.84,0,0,0-1.28,2,14.45,14.45,0,0,0-.19,2.84v3.84h-1.34Z"/><path class="cls-1" d="M320.61,57a1.06,1.06,0,0,1,.79.33,1.1,1.1,0,0,1,0,1.57,1,1,0,0,1-.79.32,1,1,0,0,1-.77-.32,1.1,1.1,0,0,1,0-1.57,1,1,0,0,1,.77-.33M320,61.26h1.35V71.72H320Z"/><path class="cls-1" d="M324.09,61.26h1.35v1.88a5.57,5.57,0,0,1,1.78-1.61,4.39,4.39,0,0,1,2.14-.54,3.73,3.73,0,0,1,2.09.6,3.51,3.51,0,0,1,1.33,1.61,8.41,8.41,0,0,1,.44,3.14v5.38h-1.35v-5a12.24,12.24,0,0,0-.15-2.41,2.64,2.64,0,0,0-.9-1.56,2.69,2.69,0,0,0-1.72-.53,3.3,3.3,0,0,0-2.19.81,3.78,3.78,0,0,0-1.28,2,13.86,13.86,0,0,0-.19,2.85v3.83h-1.35Z"/><polygon class="cls-1" points="340.69 57.58 342.24 57.58 346.93 68.51 351.69 57.58 353.23 57.58 347.07 71.72 346.76 71.72 340.69 57.58"/><path class="cls-1" d="M355.85,57a1.05,1.05,0,0,1,.78.33,1.1,1.1,0,0,1,0,1.57,1,1,0,0,1-.78.32,1.11,1.11,0,0,1,0-2.22m-.67,4.31h1.35V71.72h-1.35Z"/><path class="cls-1" d="M368.13,68.25l1.14.6A6.53,6.53,0,0,1,368,70.62a5.06,5.06,0,0,1-1.65,1,5.62,5.62,0,0,1-2.07.35,5,5,0,0,1-4-1.67,5.65,5.65,0,0,1-1.45-3.8A5.57,5.57,0,0,1,360,63a5,5,0,0,1,4.14-2,5.15,5.15,0,0,1,4.27,2,5.65,5.65,0,0,1,1.16,3.58H360.2a4.22,4.22,0,0,0,1.17,3,3.72,3.72,0,0,0,2.78,1.16,4.34,4.34,0,0,0,1.55-.28,4.08,4.08,0,0,0,1.28-.73,6.26,6.26,0,0,0,1.15-1.49m0-2.82a4.57,4.57,0,0,0-.78-1.72,3.83,3.83,0,0,0-1.37-1,4.17,4.17,0,0,0-1.78-.39,3.82,3.82,0,0,0-2.64,1,4.5,4.5,0,0,0-1.23,2.16Z"/><polygon class="cls-1" points="373.29 57.37 374.64 57.37 374.64 61.26 376.77 61.26 376.77 62.42 374.64 62.42 374.64 71.72 373.29 71.72 373.29 62.42 371.46 62.42 371.46 61.26 373.29 61.26 373.29 57.37"/><path class="cls-1" d="M378.8,61.26h1.34v1.88a5.49,5.49,0,0,1,1.79-1.61,4.32,4.32,0,0,1,2.13-.54,3.71,3.71,0,0,1,2.09.6,3.53,3.53,0,0,1,1.34,1.61,8.44,8.44,0,0,1,.43,3.14v5.38h-1.35v-5a12.51,12.51,0,0,0-.14-2.41,2.65,2.65,0,0,0-.91-1.56,2.7,2.7,0,0,0-1.73-.53,3.29,3.29,0,0,0-2.18.81,3.78,3.78,0,0,0-1.28,2,14.64,14.64,0,0,0-.19,2.85v3.83H378.8Z"/><path class="cls-1" d="M401.23,61.26V71.72H399.9V69.93a5.62,5.62,0,0,1-1.9,1.54,5.31,5.31,0,0,1-6.1-1.09,5.43,5.43,0,0,1-1.57-3.92,5.29,5.29,0,0,1,1.59-3.86A5.18,5.18,0,0,1,395.74,61a5,5,0,0,1,2.33.55,5.34,5.34,0,0,1,1.83,1.64V61.26Zm-5.38,1a4,4,0,0,0-2.08.55,4.09,4.09,0,0,0-1.51,1.55,4.31,4.31,0,0,0-.56,2.12,4.23,4.23,0,0,0,.57,2.11,4.08,4.08,0,0,0,3.57,2.13,4.23,4.23,0,0,0,2.09-.56,3.85,3.85,0,0,0,1.52-1.5,4.29,4.29,0,0,0,.54-2.15,4.16,4.16,0,0,0-1.2-3,4,4,0,0,0-2.94-1.22"/><path class="cls-1" d="M404.25,61.26h1.34v1.81A5.2,5.2,0,0,1,407,61.6a4.16,4.16,0,0,1,2.14-.61,3.59,3.59,0,0,1,1.45.3,3.28,3.28,0,0,1,1.12.79,4.54,4.54,0,0,1,.75,1.42,4.93,4.93,0,0,1,1.67-1.87,4,4,0,0,1,2.17-.64,3.4,3.4,0,0,1,1.91.55,3.25,3.25,0,0,1,1.24,1.53,8.1,8.1,0,0,1,.4,2.94v5.71h-1.37V66a7.06,7.06,0,0,0-.25-2.31,2.07,2.07,0,0,0-.81-1,2.51,2.51,0,0,0-1.39-.38,3,3,0,0,0-1.79.57,3.4,3.4,0,0,0-1.18,1.55,9.74,9.74,0,0,0-.37,3.21v4.09h-1.35V66.37a9.62,9.62,0,0,0-.23-2.58,2.17,2.17,0,0,0-.83-1.08,2.38,2.38,0,0,0-1.39-.41,3.08,3.08,0,0,0-1.75.56,3.35,3.35,0,0,0-1.2,1.52,8.1,8.1,0,0,0-.39,2.91v4.43h-1.34Z"/><path class="cls-1" d="M140.44,7.54a4.47,4.47,0,0,1,3.28,1.38,4.6,4.6,0,0,1,1.36,3.35,4.53,4.53,0,0,1-1.35,3.31A4.37,4.37,0,0,1,140.49,17a4.45,4.45,0,0,1-3.3-1.4,4.67,4.67,0,0,1-1.36-3.4,4.59,4.59,0,0,1,4.61-4.62m-3.63,11.92h7.26V48.4h-7.26Z"/><polygon class="cls-1" points="104.38 19.46 111.78 19.46 119.09 36.54 126.39 19.46 133.74 19.46 121.43 48.4 116.72 48.4 104.38 19.46"/><path class="cls-1" d="M147.3,19.46h7.26v3a17.34,17.34,0,0,1,4.48-2.9,10.69,10.69,0,0,1,4.11-.82,9.92,9.92,0,0,1,7.3,3Q173,24.27,173,29.28V48.4h-7.18V35.73a31.35,31.35,0,0,0-.47-6.89,4.74,4.74,0,0,0-1.61-2.59,4.57,4.57,0,0,0-2.85-.89,5.4,5.4,0,0,0-3.79,1.47,8,8,0,0,0-2.19,4.09,33,33,0,0,0-.32,5.87V48.4H147.3Z"/><path class="cls-1" d="M197.73,19.46H205V48.4h-7.26V45.34a14.34,14.34,0,0,1-4.27,2.92,12,12,0,0,1-4.64.89,12.9,12.9,0,0,1-9.7-4.35A15.21,15.21,0,0,1,175,34a15.57,15.57,0,0,1,4-11,12.65,12.65,0,0,1,9.62-4.28,12.21,12.21,0,0,1,4.89,1,13.4,13.4,0,0,1,4.23,2.95Zm-7.64,5.95a7.31,7.31,0,0,0-5.59,2.39,8.56,8.56,0,0,0-2.23,6.1,8.65,8.65,0,0,0,2.27,6.17,7.33,7.33,0,0,0,5.58,2.43,7.43,7.43,0,0,0,5.67-2.39A8.71,8.71,0,0,0,198,33.87a8.45,8.45,0,0,0-2.25-6.11,7.58,7.58,0,0,0-5.7-2.35"/><path class="cls-1" d="M207,19.46h6.22V23.1A7.81,7.81,0,0,1,216,19.83a6.53,6.53,0,0,1,3.67-1.12,6.75,6.75,0,0,1,2.95.75l-2.26,6.25a4.93,4.93,0,0,0-2.1-.64c-1.12,0-2.06.69-2.83,2.07s-1.16,4.1-1.16,8.14l0,1.42V48.4H207Z"/><path class="cls-1" d="M255.18,36H231.85a7.69,7.69,0,0,0,2.7,4.91,8.44,8.44,0,0,0,5.6,1.82,9.69,9.69,0,0,0,7-2.85l6.12,2.88a14.54,14.54,0,0,1-5.49,4.8,17.09,17.09,0,0,1-7.58,1.56,15,15,0,0,1-11.09-4.3,14.59,14.59,0,0,1-4.28-10.76,15.08,15.08,0,0,1,4.27-11,14.31,14.31,0,0,1,10.7-4.38,14.89,14.89,0,0,1,11.13,4.38q4.27,4.36,4.27,11.56Zm-7.26-5.72a7.32,7.32,0,0,0-2.84-3.94,8.22,8.22,0,0,0-4.91-1.51,8.69,8.69,0,0,0-5.34,1.7,9.62,9.62,0,0,0-2.66,3.75Z"/><path class="cls-1" d="M277.34,23.5l-4.5,4.5q-2.73-2.71-5-2.72a3.11,3.11,0,0,0-1.92.52,1.57,1.57,0,0,0-.69,1.29,1.61,1.61,0,0,0,.44,1.08,8.07,8.07,0,0,0,2.17,1.34l2.66,1.33a15.86,15.86,0,0,1,5.77,4.23A8.81,8.81,0,0,1,275,46.56a10.81,10.81,0,0,1-7.6,2.59,12.07,12.07,0,0,1-10.1-4.95l4.46-4.87a10.69,10.69,0,0,0,3,2.41,6.65,6.65,0,0,0,3,.91,3.66,3.66,0,0,0,2.32-.69,2,2,0,0,0,.87-1.6q0-1.66-3.16-3.27l-2.45-1.21q-7-3.54-7-8.87a7.7,7.7,0,0,1,2.65-5.87,9.64,9.64,0,0,1,6.77-2.43,11.78,11.78,0,0,1,9.52,4.79"/><path class="cls-1" d="M310.38,36H287.05a7.78,7.78,0,0,0,2.7,4.91,8.44,8.44,0,0,0,5.6,1.82,9.67,9.67,0,0,0,7-2.85l6.12,2.88a14.46,14.46,0,0,1-5.49,4.8,17,17,0,0,1-7.57,1.56,15,15,0,0,1-11.1-4.3A14.63,14.63,0,0,1,280,34.09a15.08,15.08,0,0,1,4.27-11A14.35,14.35,0,0,1,295,18.71a14.88,14.88,0,0,1,11.12,4.38q4.28,4.36,4.28,11.56Zm-7.26-5.72a7.32,7.32,0,0,0-2.84-3.94,8.22,8.22,0,0,0-4.91-1.51,8.64,8.64,0,0,0-5.33,1.7,9.52,9.52,0,0,0-2.67,3.75Z"/><path class="cls-1" d="M335.27,19.46h7.26V48.4h-7.26V45.34A14.22,14.22,0,0,1,331,48.26a11.94,11.94,0,0,1-4.63.89,12.88,12.88,0,0,1-9.7-4.35A15.17,15.17,0,0,1,312.58,34a15.57,15.57,0,0,1,4-11,12.64,12.64,0,0,1,9.62-4.28,12.21,12.21,0,0,1,4.89,1,13.25,13.25,0,0,1,4.22,2.95Zm-7.63,5.95a7.31,7.31,0,0,0-5.59,2.39,8.56,8.56,0,0,0-2.23,6.1,8.64,8.64,0,0,0,2.26,6.17,7.35,7.35,0,0,0,5.59,2.43,7.43,7.43,0,0,0,5.67-2.39,8.71,8.71,0,0,0,2.25-6.24,8.45,8.45,0,0,0-2.25-6.11,7.58,7.58,0,0,0-5.7-2.35"/><path class="cls-1" d="M344.6,19.46h6.22V23.1a7.74,7.74,0,0,1,2.69-3.27,6.5,6.5,0,0,1,3.67-1.12,6.75,6.75,0,0,1,2.95.75l-2.26,6.25a5,5,0,0,0-2.1-.64c-1.12,0-2.06.69-2.84,2.07s-1.15,4.1-1.15,8.14l0,1.42V48.4h-7.2Z"/><path class="cls-1" d="M392.1,25.31l-6,3.32a10.19,10.19,0,0,0-3.37-2.46,9.77,9.77,0,0,0-3.9-.7,9.07,9.07,0,0,0-6.59,2.43,8.27,8.27,0,0,0-2.52,6.23,8,8,0,0,0,2.42,6,8.79,8.79,0,0,0,6.37,2.34,9.25,9.25,0,0,0,7.59-3.33l5.73,3.92q-4.67,6-13.14,6.06-7.65,0-12-4.52a15,15,0,0,1,3.64-23.89,17.5,17.5,0,0,1,8.42-2,17,17,0,0,1,7.74,1.72,14.52,14.52,0,0,1,5.61,4.88"/><path class="cls-1" d="M394.25,8.28h7.2v14.1a16.57,16.57,0,0,1,4.29-2.75,11,11,0,0,1,4.36-.92,9.8,9.8,0,0,1,7.26,3q2.53,2.58,2.53,7.59V48.4h-7.16V35.71a30.62,30.62,0,0,0-.48-6.81,4.71,4.71,0,0,0-1.63-2.66,4.64,4.64,0,0,0-2.86-.88A5.37,5.37,0,0,0,404,26.83a7.71,7.71,0,0,0-2.2,4,33.4,33.4,0,0,0-.32,6V48.4h-7.2Z"/></g></g></g></svg>