<svg xmlns="http://www.w3.org/2000/svg" viewBox="0 0 141.11 180.97"><title>lucky-money </title><g id="Objects_path-filder"><path d="M59,92.53c4-.1,6-.13,10-.14H71.2c4,0,6,0,10,.13L81.23,90c-8.91-.21-13.36-.2-22.27,0C59,91,59,91.52,59,92.53Z"/><path d="M81.5,78.33c-4.11-.09-6.17-.12-10.28-.12H69c-4.11,0-6.17,0-10.28.14l.07,2.53c9.08-.23,13.62-.23,22.7,0C81.46,79.85,81.47,79.34,81.5,78.33Z"/><path d="M35.27,83.85a18.29,18.29,0,0,0,0,2.77,19.19,19.19,0,0,0,.41,2.75,568.58,568.58,0,0,1,68.83-.07,19,19,0,0,0,.41-2.74,18.43,18.43,0,0,0,0-2.78A576,576,0,0,0,35.27,83.85Z"/><path d="M95.74,25.51c-16.77-.85-33.6-.75-50.37,0-14.19,0-30.88,10.22-30.32,25.8q5.88,53.23,11.75,106.46c1.73,12.79,13.14,21.82,25.89,21.36q17.85-.84,35.73,0c12.75.46,24.17-8.57,25.89-21.36q5.88-53.24,11.75-106.46C128.27,35.13,108.56,26.46,95.74,25.51Zm10.76,65-.2.74c-9.13-.7-13.7-.94-22.85-1.19,0,1,0,1.51-.07,2.52,8.92.25,13.38.48,22.28,1.16l-.5,1.11a27.45,27.45,0,0,1-3,5.19,34.6,34.6,0,0,1-10.94,9.56,41.78,41.78,0,0,1-14.8,5l-1.24.18c.07-7.15.11-10.73.19-17.88,8.14.09,12.22.22,20.36.67-.48.53-.71.8-1.18,1.33a30.12,30.12,0,0,1-12.46,8.21c-.35-.66-.52-1-.86-1.65a28.25,28.25,0,0,0,10.28-6.31c-5.59-.25-8.39-.34-14-.43-.09,5.57-.13,8.35-.22,13.91a39.09,39.09,0,0,0,12.7-4.5,32.41,32.41,0,0,0,10.27-9,26.05,26.05,0,0,0,2.29-3.78c-10.41-.76-20.94-1.14-31.37-1.11,0,8,0,12,0,19.93h-2.1c0-8,0-12-.07-19.93-10.43,0-21,.39-31.36,1.18a26.5,26.5,0,0,0,2.29,3.77,32.42,32.42,0,0,0,10.29,9,39.23,39.23,0,0,0,12.7,4.48c-.09-5.56-.14-8.35-.24-13.91-5.59.1-8.39.19-14,.46A28.52,28.52,0,0,0,59,105.45c-.35.66-.52,1-.86,1.65a30.25,30.25,0,0,1-12.48-8.19c-.47-.53-.7-.8-1.18-1.33,8.14-.46,12.21-.6,20.36-.71.09,7.15.13,10.73.22,17.88l-1.24-.18A41.82,41.82,0,0,1,49,109.62a34.42,34.42,0,0,1-11-9.54,28,28,0,0,1-3-5.18l-.5-1.11c8.9-.7,13.36-.94,22.28-1.2l-.08-2.53c-9.14.27-13.72.52-22.85,1.25l-.2-.75a20.19,20.19,0,0,1-.6-7.58c0-.31,0-.46.08-.77,9.31-.74,14-1,23.3-1.27l-.07-2.52c-9.19.27-13.79.52-23,1.23l.33-1.17a24.92,24.92,0,0,1,2.34-5.58,31.39,31.39,0,0,1,10.6-10.84,42.44,42.44,0,0,1,16.22-5.94l1.4-.21c.09,7.15.13,10.73.22,17.88-8.56.1-12.84.25-21.38.74.43-.58.64-.87,1.08-1.45a28.56,28.56,0,0,1,12.69-9.23l1,1.6a27.23,27.23,0,0,0-10.55,7.06c5.92-.28,8.88-.38,14.8-.48-.09-5.56-.14-8.35-.24-13.91a39.28,39.28,0,0,0-13.79,5.31,29.64,29.64,0,0,0-10,10.15,23.45,23.45,0,0,0-1.84,4.06C47.26,77,58,76.58,68.94,76.41c0-8,0-12-.07-19.93h2.38c0,8,0,12,0,19.93,10.9.15,21.68.53,32.57,1.16a23.4,23.4,0,0,0-1.85-4A29.39,29.39,0,0,0,92,63.39a39.31,39.31,0,0,0-13.8-5.29L77.94,72c5.92.09,8.88.18,14.8.46a27.2,27.2,0,0,0-10.56-7l1-1.6A28.55,28.55,0,0,1,95.91,73L97,74.48c-8.55-.47-12.83-.61-21.39-.7.08-7.15.11-10.73.19-17.88l1.4.21A42.14,42.14,0,0,1,93.43,62a31.38,31.38,0,0,1,10.62,10.81,24.5,24.5,0,0,1,2.35,5.58c.14.47.2.7.33,1.17-9.17-.7-13.77-.94-23-1.19l-.07,2.52c9.33.26,14,.51,23.3,1.23,0,.31.06.46.09.77a20.26,20.26,0,0,1,.07,3.82A19.73,19.73,0,0,1,106.5,90.49Z"/></g></svg>