<svg xmlns="http://www.w3.org/2000/svg" viewBox="0 0 59.03 30.46"><title>motif-05</title><g id="Layer_2" data-name="Layer 2"><g id="Object"><path d="M7.61,23.22a.64.64,0,0,1-.47.34,1.42,1.42,0,0,1-.9-.15,2.32,2.32,0,0,1-1-1,2.83,2.83,0,0,1-.31-1.64,3.18,3.18,0,0,1,.29-1A4.28,4.28,0,0,1,6,18.63a4.88,4.88,0,0,1,1.16-.9,5.54,5.54,0,0,1,1.34-.52A6,6,0,0,1,9.78,17a4.87,4.87,0,0,1,.55,0l.48.05.39.09a1.66,1.66,0,0,1,.29.09c.15.06.24.11.24.16s-.09.08-.24.14l-.62.21-.41.15-.43.19a7.73,7.73,0,0,0-.88.51,4.31,4.31,0,0,0-.73.67,3.22,3.22,0,0,0-.48.72,2.06,2.06,0,0,0-.21.62.5.5,0,0,0,0,.12.52.52,0,0,0,0,.11.28.28,0,0,1,0,.09v.08c0,.2,0,.35,0,.51a2.13,2.13,0,0,0,0,.51A2.2,2.2,0,0,1,7.61,23.22Z"/><path d="M4.64,17.31a22.69,22.69,0,0,1,6.3-1.14.07.07,0,0,0,.06,0l1.21-1a.34.34,0,0,0,0-.51L11.09,13.6a0,0,0,0,0-.05,0A22.9,22.9,0,0,1,4.83,12S.88,14,.06,14.4a.11.11,0,0,0,0,.19C.84,15.09,4.61,17.31,4.64,17.31Z"/><path d="M8.22,6.17a.68.68,0,0,0-.44-.38,1.55,1.55,0,0,0-.92.09,2.34,2.34,0,0,0-1.05.91,2.87,2.87,0,0,0-.43,1.62A3.59,3.59,0,0,0,5.6,9.46a4.18,4.18,0,0,0,.69,1.17,4.87,4.87,0,0,0,1.09,1,5.93,5.93,0,0,0,1.3.62,7,7,0,0,0,1.26.25l.56,0c.17,0,.33,0,.48,0l.39-.05.29-.07c.17,0,.25-.1.26-.14s-.09-.1-.24-.16l-.6-.26-.39-.17-.42-.22a6.62,6.62,0,0,1-.84-.58,4.11,4.11,0,0,1-.68-.71,3.05,3.05,0,0,1-.43-.75,2.24,2.24,0,0,1-.16-.63s0-.08,0-.12V8.5a.31.31,0,0,0,0-.1V8.32c0-.19,0-.35,0-.5a3.2,3.2,0,0,1,0-.52A2.19,2.19,0,0,0,8.22,6.17Z"/><path d="M12,6.32a.53.53,0,0,1-.09-.52,3.52,3.52,0,0,1,.38-.94,5.33,5.33,0,0,1,.38-.6c.15-.22.32-.44.52-.68A10.37,10.37,0,0,1,14.71,2.1,10,10,0,0,1,17.06.69,8.84,8.84,0,0,1,20.35,0,9.6,9.6,0,0,1,24,.69a13.72,13.72,0,0,1,3.23,1.84,23.68,23.68,0,0,1,3.3,3.09c1.18,1.29,2.39,2.82,3.62,4.46s2.5,3.36,3.85,5c.34.4.69.8,1,1.18l.54.56a3.08,3.08,0,0,0,.27.25l.26.25a10.69,10.69,0,0,0,2.47,1.57,13,13,0,0,0,2.8.93,13.88,13.88,0,0,0,2.83.29,12.76,12.76,0,0,0,4.84-.92,10.27,10.27,0,0,0,1.73-.91A13.72,13.72,0,0,0,56,17.38l.72-.65c.16-.15.27-.23.29-.21s0,.13-.12.33a5.75,5.75,0,0,1-.55.84,8.44,8.44,0,0,1-1.08,1.16,9.75,9.75,0,0,1-1.7,1.26,13.43,13.43,0,0,1-5.23,1.72,16.07,16.07,0,0,1-3.26,0,15.19,15.19,0,0,1-3.42-.74,12.82,12.82,0,0,1-3.28-1.66L38,19.17a3.65,3.65,0,0,1-.37-.29c-.23-.18-.45-.38-.67-.57-.44-.39-.86-.79-1.27-1.2-1.63-1.62-3.06-3.28-4.41-4.79s-2.58-2.89-3.71-4a26.74,26.74,0,0,0-2.89-2.54A12.57,12.57,0,0,0,22.4,4.39a6.53,6.53,0,0,0-2.16-.61,6.33,6.33,0,0,0-2,.13,11,11,0,0,0-1.89.63c-.59.25-1.13.53-1.61.79L14,5.69,13.44,6C12.71,6.36,12.21,6.51,12,6.32Z"/><path d="M24.77,15.53c.39,0,.75,1.09,1.61,2.54a5.37,5.37,0,0,0,.35.53c.12.19.28.35.42.53a6.2,6.2,0,0,0,1.07,1,6.41,6.41,0,0,0,3.1,1,11.3,11.3,0,0,0,2.44,0,15.86,15.86,0,0,0,3.31-.81,34.83,34.83,0,0,0,3.74-1.69A29.42,29.42,0,0,1,45,16.83a12.07,12.07,0,0,1,4.3-.57,18.92,18.92,0,0,1,3.47.62c.48.12.91.21,1.29.29l1,.17a2.72,2.72,0,0,1,.87.14,2.76,2.76,0,0,1-.89.15c-.28,0-.63,0-1,0s-.86-.05-1.36-.11a20.72,20.72,0,0,0-3.35-.17,11.11,11.11,0,0,0-3.75.91,29.47,29.47,0,0,0-3.72,2A33.66,33.66,0,0,1,38,22.39a16.22,16.22,0,0,1-3.81,1.18,11.69,11.69,0,0,1-3.09.15,8.68,8.68,0,0,1-2.39-.56,6.89,6.89,0,0,1-2-1.21,6.71,6.71,0,0,1-1.34-1.59,5.61,5.61,0,0,1-.41-.81,5.68,5.68,0,0,1-.29-.77,6.4,6.4,0,0,1-.25-2.37C24.45,15.85,24.59,15.55,24.77,15.53Z"/><path d="M47.59,24.6q0-.18.3-.36a3.08,3.08,0,0,1,.36-.17l.46-.18c.69-.24,1.61-.5,2.6-.83a17.37,17.37,0,0,0,2.17-.9,14.53,14.53,0,0,0,2.65-1.79l.59-.53.26-.25.24-.27c.3-.37.57-.73.82-1a5.8,5.8,0,0,1,.63-.69c.18-.14.28-.21.3-.19s0,.13-.14.31-.24.46-.4.8-.34.76-.59,1.21a3,3,0,0,1-.2.34c-.08.12-.15.24-.24.36s-.33.44-.52.66a12.87,12.87,0,0,1-2.58,2.37,10.81,10.81,0,0,1-2.4,1.24,7.72,7.72,0,0,1-3,.42L48.33,25l-.4-.12C47.72,24.83,47.6,24.72,47.59,24.6Z"/><path d="M11.37,23.56c.23-.18.72,0,1.42.42l.57.35.65.4c.46.29,1,.61,1.54.9a11.64,11.64,0,0,0,1.84.76,6.59,6.59,0,0,0,2,.27,7,7,0,0,0,2.2-.46A12,12,0,0,0,24,25a28.66,28.66,0,0,0,3.07-2.33c1.2-1,2.54-2.32,4-3.75s3-3,4.73-4.49l1.35-1.11.72-.53.38-.26.4-.26A13.33,13.33,0,0,1,42,10.79a14.49,14.49,0,0,1,3.47-.51,15,15,0,0,1,3.25.26,13.24,13.24,0,0,1,5.1,2.07A9.5,9.5,0,0,1,55.46,14a9.87,9.87,0,0,1,1,1.24,5.69,5.69,0,0,1,.47.88c.09.21.13.33.1.35s-.12-.07-.28-.24-.37-.4-.66-.7a10.28,10.28,0,0,0-1.14-1,9.47,9.47,0,0,0-1.66-1,12.51,12.51,0,0,0-4.77-1.26,13.69,13.69,0,0,0-2.85.1,13.15,13.15,0,0,0-2.87.73,10.61,10.61,0,0,0-2.58,1.42l-.28.22a3,3,0,0,0-.28.24l-.58.52c-.38.36-.76.73-1.12,1.11-1.47,1.53-2.85,3.18-4.2,4.73s-2.66,3-3.92,4.2a23.68,23.68,0,0,1-3.52,2.86A13.81,13.81,0,0,1,23,30a9.63,9.63,0,0,1-3.71.44A8.78,8.78,0,0,1,16,29.52,10.42,10.42,0,0,1,13.78,28a10.26,10.26,0,0,1-1.41-1.59,6.19,6.19,0,0,1-.47-.71,5,5,0,0,1-.34-.63,3.07,3.07,0,0,1-.31-1A.55.55,0,0,1,11.37,23.56Z"/><path d="M24.78,15.24c-.18,0-.3-.34-.33-.91A6.28,6.28,0,0,1,24.88,12a5.93,5.93,0,0,1,.33-.75c.13-.26.3-.51.47-.78A7,7,0,0,1,27.13,9,7.18,7.18,0,0,1,29.21,7.9a8.64,8.64,0,0,1,2.43-.4,11.76,11.76,0,0,1,3.07.35,15.88,15.88,0,0,1,3.72,1.44,33.59,33.59,0,0,1,3.67,2.35,28.22,28.22,0,0,0,3.56,2.26,11.19,11.19,0,0,0,3.67,1.17,22.52,22.52,0,0,0,3.36,0c.49,0,1,0,1.36,0s.75.05,1,.08a2.48,2.48,0,0,1,.87.22,3.15,3.15,0,0,1-.88.07c-.28,0-.61,0-1,.1s-.83.11-1.32.2a19.49,19.49,0,0,1-3.5.38A12.15,12.15,0,0,1,45,15.3a29.53,29.53,0,0,1-4-2,36.18,36.18,0,0,0-3.61-1.94,15.2,15.2,0,0,0-3.25-1,11,11,0,0,0-2.43-.21,6.47,6.47,0,0,0-3.17.83,6.21,6.21,0,0,0-1.13.88c-.15.17-.32.32-.45.5s-.27.34-.4.51C25.61,14.2,25.17,15.32,24.78,15.24Z"/><path d="M18.08,17.78a2.63,2.63,0,1,0-2.61-2.72A2.66,2.66,0,0,0,18.08,17.78Z"/><path d="M48.19,7.93c0-.12.14-.22.36-.3A3.19,3.19,0,0,1,49,7.54l.53,0a7.83,7.83,0,0,1,3,.63,10.79,10.79,0,0,1,2.3,1.39,12.64,12.64,0,0,1,2.41,2.54c.17.23.32.47.48.7l.21.37c.07.12.12.24.18.35.21.47.36.89.49,1.25l.34.83c.1.19.14.31.12.32s-.12-.06-.28-.22a5.43,5.43,0,0,1-.58-.73c-.22-.32-.46-.7-.74-1.09-.08-.09-.15-.19-.22-.28L57,13.29c-.19-.19-.37-.39-.56-.57a14.17,14.17,0,0,0-2.52-2,16.45,16.45,0,0,0-2.1-1c-1-.4-1.87-.73-2.53-1L48.8,8.5a2.55,2.55,0,0,1-.34-.2C48.27,8.17,48.17,8,48.19,7.93Z"/></g></g></svg>