<svg xmlns="http://www.w3.org/2000/svg" viewBox="0 0 23.01 30.99"><title>motif-03</title><g id="Layer_2" data-name="Layer 2"><g id="Object"><path d="M4.79,15.58,2.45,16.75h0a13.33,13.33,0,0,0-2.29-1l-.15,0,.15,0A13.08,13.08,0,0,0,2.4,14.52h0Z"/><path d="M7.43,15.7a3.12,3.12,0,0,0-2.57,2.92c0,1.72,1.17,3.18,2.82,2.7a2.49,2.49,0,0,0,1.59-3.58.27.27,0,0,0-.18-.15L9,17.54c-.59-.35-1.41.18-1.72.93a2.61,2.61,0,0,0-.1,1.86,1.3,1.3,0,0,1-1.25-.24c-.1-.1-.16-.15-.26-.13a1.69,1.69,0,0,1-.11-.27,2.68,2.68,0,0,1,0-2.08c.79-1.43,2.66-1.7,4-1.52a4.07,4.07,0,0,1,3.58,3.49l0,.31a.24.24,0,0,0,0,.08A4.79,4.79,0,0,1,12,23c-.65.61-1.64,1.34-2.41.85s-.44.22-.27.43a1.89,1.89,0,0,0,1.46.66,4.54,4.54,0,0,0-2.27,2.47,4.24,4.24,0,0,0,.43,3.49c.09.13.25.19.34.11s.19-.15.19-.31a8.15,8.15,0,0,1,1.33-3.86c.72-1.23,1.52-2.4,2.15-3.69a6.19,6.19,0,0,0,.72-3.63,5,5,0,0,0-1.9-3.17A5.36,5.36,0,0,0,7.43,15.7Zm.75,2.61,0,0h0Z"/><path d="M11.71,14.57a5,5,0,0,0,1.76-3.24,6.22,6.22,0,0,0-.87-3.6c-.68-1.27-1.53-2.4-2.3-3.6A8.11,8.11,0,0,1,8.82.33c0-.16-.1-.3-.21-.3s-.25,0-.33.12A4.28,4.28,0,0,0,8,3.66,4.5,4.5,0,0,0,10.36,6a1.92,1.92,0,0,0-1.43.72c-.16.22-.43.92.29.42s1.77.17,2.44.75A4.82,4.82,0,0,1,13,10.84a.19.19,0,0,0,0,.08,1.67,1.67,0,0,1,0,.32,4,4,0,0,1-3.42,3.63c-1.34.24-3.23,0-4.07-1.35a2.68,2.68,0,0,1-.13-2.08,1.25,1.25,0,0,1,.1-.27c.09,0,.16,0,.26-.14A1.26,1.26,0,0,1,7,10.74a2.6,2.6,0,0,0,.18,1.85c.34.73,1.18,1.23,1.76.86A.24.24,0,0,0,9,13.39a.3.3,0,0,0,.18-.15A2.49,2.49,0,0,0,7.44,9.73c-1.67-.41-2.74,1.09-2.71,2.81a3.14,3.14,0,0,0,2.69,2.82A5.39,5.39,0,0,0,11.71,14.57ZM8.08,12.72v0l0,0Z"/><path d="M13.69,15.5a1.58,1.58,0,0,0,1.57,1.57c.87,0,7.75-1.57,7.75-1.57s-6.88-1.57-7.75-1.57A1.57,1.57,0,0,0,13.69,15.5Z"/></g></g></svg>