<svg xmlns="http://www.w3.org/2000/svg" viewBox="0 0 610.15 14.23"><title>motif-02</title><g id="Layer_2" data-name="Layer 2"><g id="Object"><path d="M.94,2H609.2a1,1,0,0,0,0-1.95H.94a1,1,0,0,0,0,2Z"/><path d="M314.09,5.39H607.64a1.49,1.49,0,0,1,1.49,1.5v0a1.49,1.49,0,0,1-1.49,1.49c-21.3-.06-264.14-.51-293.25,5.79a1.48,1.48,0,0,1-1.79-1.46V6.89A1.49,1.49,0,0,1,314.09,5.39Z"/><path d="M308.44,8.54a3.14,3.14,0,1,0-3.14,3.14A3.14,3.14,0,0,0,308.44,8.54Z"/><path d="M296.06,5.39H2.5A1.5,1.5,0,0,0,1,6.89v0A1.49,1.49,0,0,0,2.5,8.41c21.3-.06,264.15-.51,293.25,5.79a1.49,1.49,0,0,0,1.8-1.46V6.89A1.5,1.5,0,0,0,296.06,5.39Z"/></g></g></svg>