<svg xmlns="http://www.w3.org/2000/svg" viewBox="0 0 610.15 92.96"><title>motif-01</title><g id="Layer_2" data-name="Layer 2"><g id="Object"><path d="M.94,93H609.2a1,1,0,0,0,0-1.95H.94A1,1,0,0,0,.94,93Z"/><path d="M314.09,87.56H607.64a1.48,1.48,0,0,0,1.49-1.49v0a1.49,1.49,0,0,0-1.49-1.49c-21.3,0-264.14.51-293.25-5.79a1.48,1.48,0,0,0-1.79,1.46v5.85A1.48,1.48,0,0,0,314.09,87.56Z"/><path d="M308.44,84.42a3.14,3.14,0,1,1-3.14-3.14A3.13,3.13,0,0,1,308.44,84.42Z"/><path d="M296.06,87.56H2.5A1.49,1.49,0,0,1,1,86.07v0A1.49,1.49,0,0,1,2.5,84.55c21.3,0,264.15.51,293.25-5.79a1.49,1.49,0,0,1,1.8,1.46v5.85A1.49,1.49,0,0,1,296.06,87.56Z"/><path d="M455.07,65.86l-.78.25c-.25.08-.58.15-1,.25-.19,0-.4.08-.62.12l-.71.13a36.81,36.81,0,0,1-8.65.09,81.15,81.15,0,0,1-12.61-2.3c-2.34-.6-4.77-1.31-7.26-2.13q-1.87-.62-3.78-1.32c-1.28-.47-2.55-1-3.83-1.51-2.57-1-5-2.11-7.41-3.07s-4.7-1.79-6.94-2.49a52.92,52.92,0,0,0-12.21-2.39c-.88-.05-1.72-.05-2.52,0a21.24,21.24,0,0,0-2.23.2,14.31,14.31,0,0,0-3.47.95,11.23,11.23,0,0,0-2,1.11c-.22.15-.37.29-.48.37l-.16.12.14-.15c.09-.09.23-.25.42-.43a11.23,11.23,0,0,1,1.9-1.4,14.63,14.63,0,0,1,3.48-1.42,20.08,20.08,0,0,1,2.31-.46c.83-.12,1.71-.2,2.63-.24a46.33,46.33,0,0,1,12.82,1.53,73.34,73.34,0,0,1,7.26,2.27c2.47.91,5,1.95,7.51,3,1.27.52,2.52,1,3.75,1.51s2.47.94,3.68,1.38c2.42.88,4.78,1.67,7,2.39a107.72,107.72,0,0,0,12.16,3.16,41.36,41.36,0,0,0,8.42.84c.25,0,.49,0,.71,0l.62,0c.39,0,.72-.07,1-.12Z"/><path d="M466.23,50.43a1.06,1.06,0,0,1,.87-.48,3.08,3.08,0,0,1,.74,0,6.28,6.28,0,0,1,.9.23,9.41,9.41,0,0,1,1,.49,6.8,6.8,0,0,1,1.07.82,6.34,6.34,0,0,1,1.78,2.82,6.89,6.89,0,0,1,.25,2.37,8,8,0,0,1-.84,2.87A11.75,11.75,0,0,1,467.89,64a14.26,14.26,0,0,1-2.39,1.27,13.37,13.37,0,0,1-2.12.7c-1.25.29-2.06.26-2.09.14s.66-.5,1.64-1.17c.48-.35,1-.75,1.61-1.25A18.71,18.71,0,0,0,466.22,62,13.47,13.47,0,0,0,467.63,60a7.7,7.7,0,0,0,.83-1.94,4.43,4.43,0,0,0,.15-1.54,5.24,5.24,0,0,0-.2-1,7.78,7.78,0,0,0-.65-1.47c-.13-.25-.3-.49-.44-.74s-.31-.47-.44-.7a5.79,5.79,0,0,1-.38-.66,4.33,4.33,0,0,1-.27-.6A1.25,1.25,0,0,1,466.23,50.43Z"/><path d="M479.43,64.82a2,2,0,0,1-.48.76,4.3,4.3,0,0,1-.7.56,4.54,4.54,0,0,1-1.71.62c-.33,0-.89,0-1.57.12a12.28,12.28,0,0,0-2.29.47l-.58.19-.55.2c-.34.15-.68.28-.95.42l-.7.31c-.18.07-.31.1-.37,0s0-.16,0-.35a3.2,3.2,0,0,1,.26-.78,7.34,7.34,0,0,1,.56-1c.13-.18.26-.37.41-.56a6.3,6.3,0,0,1,.48-.57,9.83,9.83,0,0,1,2.42-1.95,6.5,6.5,0,0,1,2.3-.85,3.75,3.75,0,0,1,2.82.67,1.84,1.84,0,0,1,.64.86A1.33,1.33,0,0,1,479.43,64.82Z"/><path d="M496.55,57.78c0-.35-.07-.69-.1-1s-.07-.69-.13-1a18.15,18.15,0,0,0-3-7.45,19,19,0,0,0-5.45-5,23.92,23.92,0,0,0-6.19-2.66,30.86,30.86,0,0,0-6-1,35.21,35.21,0,0,0-5.36,0l-1.22.12-1.18.17c-.38.05-.75.12-1.12.19l-1.07.22-1,.24-.49.13-.47.14-.91.26c-.3.09-.58.2-.85.29a30.58,30.58,0,0,0-4.89,2.19c-.28.14-.5.29-.7.41l-.5.31-.4.25.42-.22.52-.27c.21-.1.44-.23.72-.35a31.25,31.25,0,0,1,5-1.8c.28-.08.56-.17.86-.23l.91-.2.47-.11.49-.09,1-.17c.34-.06.69-.09,1.05-.14s.73-.1,1.11-.12l1.15-.1,1.19,0a37.21,37.21,0,0,1,5.17.25,29.79,29.79,0,0,1,5.6,1.28,22.84,22.84,0,0,1,5.58,2.72,17.22,17.22,0,0,1,4.62,4.66,16,16,0,0,1,2.32,6.52c0,.29.05.6.08.9s.06.61.06.91c0,.6,0,1.2-.08,1.8a15.72,15.72,0,0,1-.3,1.8c-.07.29-.17.59-.25.88a6.94,6.94,0,0,1-.31.87,16.07,16.07,0,0,1-.78,1.69c-.17.27-.33.54-.49.81l-.13.21-.14.19-.27.39a18,18,0,0,1-2.64,2.9,28.29,28.29,0,0,1-6.93,4.49,41.89,41.89,0,0,1-8.24,2.82c-1.44.32-2.91.6-4.4.79a42,42,0,0,1-4.49.32h-1.12l-1.12,0-1.1-.09-1.14-.14c-1.51-.2-3-.36-4.52-.64l-2.23-.37-2.2-.45c-.73-.15-1.46-.29-2.18-.46l-2.15-.52c-5.71-1.39-11.15-3.13-16.3-4.91s-10-3.59-14.61-5.24-8.89-3.13-12.85-4.38c-2-.59-3.88-1.18-5.69-1.68S393.66,58,392,57.67a31.83,31.83,0,0,0-8.49-.73,16.46,16.46,0,0,0-3.08.51c-.33.1-.64.2-.92.31l-.28.06-.37.1-.36.12-.36.12c-.24.08-.46.18-.69.28a11.37,11.37,0,0,0-1.3.67,12.88,12.88,0,0,0-1.18.81,13.09,13.09,0,0,0-1,.93,9.25,9.25,0,0,0-2.45,4.41,8.12,8.12,0,0,0-.18,2.22,8.61,8.61,0,0,0,.35,1.93,8.91,8.91,0,0,0,.68,1.66l.21.39a1,1,0,0,0,.12.19l.12.19c.08.13.17.25.26.37l.13.18.14.17a8.54,8.54,0,0,0,1.25,1.23,11.94,11.94,0,0,0,1.39,1A13.05,13.05,0,0,0,379,76a11.73,11.73,0,0,0,1.54.33c.26,0,.51.07.77.1l.38,0,.39,0H383l.18,0,.38,0,.37,0,.18,0,.19,0,.36-.06.36-.09.35-.1.35-.1c.23-.09.46-.17.67-.27a7.5,7.5,0,0,0,1.25-.68l.28-.21.14-.1.13-.11.26-.23.25-.24.12-.12.11-.13.21-.26.2-.27.1-.14s.05-.09.08-.14l.17-.28.14-.29.07-.15.06-.14.12-.3.09-.3c0-.05,0-.1,0-.15l0-.15c0-.1.05-.2.07-.3l0-.3a.77.77,0,0,1,0-.15v-.15l0-.29a2.81,2.81,0,0,0,0-.29v-.14s0-.1,0-.15l0-.28a2.56,2.56,0,0,0-.05-.27,3.13,3.13,0,0,0-.12-.53,5.32,5.32,0,0,0-.89-1.8A5,5,0,0,0,388,65.52a4.64,4.64,0,0,0-1.32-.6l-.15,0-.15,0-.29-.06-.53,0H385a2,2,0,1,0,.88.52l.14,0,.25.08.13,0,.13.06a4.37,4.37,0,0,1,1.09.63,4.5,4.5,0,0,1,1,1.08,4.78,4.78,0,0,1,.64,1.55,3.11,3.11,0,0,1,.08.44l0,.23a1.69,1.69,0,0,0,0,.23v.48l0,.24,0,.12a.5.5,0,0,1,0,.12c0,.08,0,.16,0,.24a2.17,2.17,0,0,1-.07.24l0,.12s0,.08,0,.12l-.08.24-.11.24-.05.12-.06.11-.12.23-.15.22-.07.11-.08.11-.17.21-.18.2-.09.1-.11.1-.2.19-.22.17-.11.09-.12.08L387,74a8.23,8.23,0,0,1-4.83,1.1l-.34,0-.34,0c-.23,0-.46-.06-.69-.11a10,10,0,0,1-1.37-.32,11.85,11.85,0,0,1-2.64-1.16,9.1,9.1,0,0,1-1.19-.84,7.79,7.79,0,0,1-1-1l-.12-.15-.11-.14c-.07-.1-.14-.2-.2-.3l-.1-.15-.09-.16-.18-.33a7.09,7.09,0,0,1-.57-1.4,6.42,6.42,0,0,1-.29-1.58,6.31,6.31,0,0,1,.14-1.81,7,7,0,0,1,.71-1.9,3.77,3.77,0,0,1,.27-.47c.09-.16.2-.3.31-.46a8.63,8.63,0,0,1,.74-.88,11.41,11.41,0,0,1,.88-.81,8.4,8.4,0,0,1,1-.71,9.33,9.33,0,0,1,1.13-.61l.61-.25.31-.11.31-.1a2,2,0,0,1,.33-.09l.33-.09.69-.15.35-.07.35-.06.36-.06.35,0,.72-.09.73,0c.25,0,.49,0,.74,0H385l.37,0,.38,0,.75.08c.59.07,1.2.09,1.79.17s1.06.16,1.6.2c.94.06,1.87.15,2.8.28l2.14.28h0l2,.65c1.76.6,3.6,1.28,5.54,2,3.87,1.44,8.07,3.11,12.57,4.94S424.21,71,429.36,73a162.34,162.34,0,0,0,16.47,5.37l2.2.57c.74.18,1.49.33,2.24.5s1.51.34,2.27.49l2.3.4c1.54.3,3.11.48,4.68.69l1.19.15,1.24.11,1.24,0c.42,0,.83,0,1.25,0A44.83,44.83,0,0,0,483,76.88a31,31,0,0,0,7.63-5.16,20.35,20.35,0,0,0,3-3.45l.32-.47.16-.24.14-.25.56-1a18.7,18.7,0,0,0,.89-2.07,10.22,10.22,0,0,0,.34-1.07c.09-.36.19-.72.27-1.08a16.35,16.35,0,0,0,.29-2.17A15.6,15.6,0,0,0,496.55,57.78Z"/><path d="M304.62,62.44l-2.84,6,0,0C303,70,304.68,78,304.68,78a0,0,0,0,0,.08,0c.33-1.66,1.67-8.13,2.68-9.48l0,0Z"/><path d="M326.17,19.59a1.62,1.62,0,0,0,.91-1.13,3.46,3.46,0,0,0-.3-2.25,5.78,5.78,0,0,0-2.4-2.52,7.24,7.24,0,0,0-4.14-.92,8.16,8.16,0,0,0-2.65.64,10.41,10.41,0,0,0-2.92,1.79A12.06,12.06,0,0,0,312.3,18a13.49,13.49,0,0,0-1.46,3.26,15.07,15.07,0,0,0-.53,3.13c0,.49,0,.95,0,1.38s.06.82.11,1.19.11.68.17,1a7.41,7.41,0,0,0,.22.73c.14.39.26.6.37.6s.23-.21.38-.58l.59-1.52c.13-.3.28-.63.42-1s.34-.7.52-1.06A15.68,15.68,0,0,1,314.46,23a10.85,10.85,0,0,1,1.76-1.76,8.62,8.62,0,0,1,1.85-1.12,6.16,6.16,0,0,1,1.59-.46,1.87,1.87,0,0,1,.32,0l.27,0,.24,0a1.33,1.33,0,0,0,.2,0l1.29-.08a7.23,7.23,0,0,1,1.3,0C324.23,19.61,325.3,20,326.17,19.59Z"/><path d="M311.43,11.71c-2.64,6-3.35,14.38-3.43,15.49,0,.07-.05.13-.1.13l-2.57,2.91a.86.86,0,0,1-1.29,0l-2.57-2.91c-.05,0-.09-.06-.09-.13a55.49,55.49,0,0,0-3.44-15.49c0-.05,5.31-9.57,6.51-11.56a.26.26,0,0,1,.47,0C306.12,2.14,311.45,11.66,311.43,11.71Z"/><path d="M282.86,19.59a1.62,1.62,0,0,1-.91-1.13,3.46,3.46,0,0,1,.3-2.25,5.78,5.78,0,0,1,2.4-2.52,7.24,7.24,0,0,1,4.14-.92,8.16,8.16,0,0,1,2.65.64,10.41,10.41,0,0,1,2.92,1.79,12.06,12.06,0,0,1,2.37,2.8,13.49,13.49,0,0,1,1.46,3.26,15.07,15.07,0,0,1,.53,3.13c0,.49,0,.95,0,1.38s-.06.82-.11,1.19-.11.68-.17,1-.15.53-.21.73c-.14.39-.27.6-.38.6s-.22-.21-.38-.58l-.59-1.52c-.12-.3-.28-.63-.42-1s-.34-.7-.52-1.06A14.78,14.78,0,0,0,294.57,23a10.8,10.8,0,0,0-1.75-1.76A8.67,8.67,0,0,0,291,20.11a6,6,0,0,0-1.59-.46,1.88,1.88,0,0,0-.31,0l-.28,0-.24,0a1.33,1.33,0,0,1-.2,0l-1.29-.08a7.23,7.23,0,0,0-1.3,0C284.8,19.61,283.74,20,282.86,19.59Z"/><path d="M304.69,31.3l-3.29,3.12h0c.59.8,3.29,5.38,3.29,5.38h0s2.56-4.58,3.16-5.38h0Z"/><path d="M290.84,27.63l.67.18,2.46.7,1.87.52,1.36.32v0l-1.31-.49-1.06-.43-.19-.15-.22-.17.27.06a9.14,9.14,0,0,1,2.55,1.07l0-.06a2,2,0,0,1,.19-.39,9.28,9.28,0,0,0-2.63-1.19c-.54-.15-1.11-.28-1.69-.38a29,29,0,0,0-3.31-1.8l-.65-.29-.69-.29c-.47-.2-1-.37-1.49-.56a32.56,32.56,0,0,0-3.35-1,27.53,27.53,0,0,0-3.83-.65,20.07,20.07,0,0,0-2.07-.1l-1.05,0-1.06.07a43.41,43.41,0,0,0-10.29,2.26,70.47,70.47,0,0,0-6.82,2.78c-.82.29-1.84.62-3,1.08l-3.86,1.59c-1.39.65-2.9,1.37-4.48,2.15s-3.2,1.71-4.86,2.68c-1.21.72-2.39,1.44-3.53,2.14a36.87,36.87,0,0,0-3.17,2.26l-2.73,2.15q-1.28,1-2.4,1.8a21,21,0,0,1-3.76,2.14l-.64.25-.47.15-.4.13.41-.07.5-.09.66-.17a18.28,18.28,0,0,0,4-1.76c.81-.47,1.68-1,2.59-1.62s1.85-1.29,2.85-2,2-1.42,3.17-2.08S241.8,37,243,36.32l4.77-2.75c1.54-.83,3-1.63,4.32-2.37s2.61-1.31,3.7-1.87,2.07-1,2.86-1.38c1.65-.56,4-1.34,7-2.14A57.82,57.82,0,0,1,275.75,24l1-.07,1,0c.66,0,1.31,0,2,0a32.16,32.16,0,0,1,3.7.48c1.18.21,2.29.48,3.32.75.51.15,1,.28,1.49.44l.69.22.66.23c1,.35,1.85.7,2.58,1l-1.05-.1a26.27,26.27,0,0,0-5.95-1.47c-.31-.05-.64-.06-1-.09l-1-.07c-.67,0-1.35-.05-2,0a31.62,31.62,0,0,0-4.27.38,53.2,53.2,0,0,0-10.45,2.89c-1.49.55-2.82,1.1-4,1.58l-1.64.69-1.37.62-1.43.47-1.66.65c-1.2.44-2.52,1-4,1.68-2.87,1.32-6.16,3-9.62,4.93-2.55,1.4-5,2.72-7.19,3.82a51.05,51.05,0,0,1-6.15,2.4c-.9.27-1.71.56-2.44.72a9.23,9.23,0,0,0-1.87.58,3.89,3.89,0,0,0-.42.25l-.62.06-1.41.09-.7,0-.7,0c-.46,0-.93,0-1.39,0a40.64,40.64,0,0,1-5.44-.26l-.66-.08c-.22,0-.44,0-.65-.1l-1.3-.24-1.26-.31a6.48,6.48,0,0,1-.63-.17l-.61-.19c-.21-.07-.42-.12-.62-.2l-.6-.22c-.4-.15-.8-.29-1.18-.47l-1.16-.52-1.12-.57c-.19-.09-.37-.2-.55-.3l-.54-.31L203,43c-.18-.1-.35-.22-.52-.33l-1-.66-.49-.34c-.16-.11-.32-.22-.47-.34L200,41l-.44-.37c-.29-.25-.56-.52-.84-.78a18.08,18.08,0,0,1-1.49-1.68A20.5,20.5,0,0,1,196,36.33a19.61,19.61,0,0,1-1-1.88,16.11,16.11,0,0,1-.69-1.9c-.08-.32-.18-.64-.24-1S194,31,194,30.65a12.76,12.76,0,0,1-.05-3.59,11.85,11.85,0,0,1,.82-3.1,12.52,12.52,0,0,1,1.38-2.46,13.2,13.2,0,0,1,1.74-2l.48-.45a2.43,2.43,0,0,1,.25-.2l.24-.2c.16-.14.34-.25.51-.38l.26-.18.27-.16a13.72,13.72,0,0,1,2.28-1.11,17.4,17.4,0,0,1,2.44-.7,19.86,19.86,0,0,1,5-.35,19.31,19.31,0,0,1,2.41.27c.39.06.78.15,1.17.24.19,0,.38.1.57.15a5.15,5.15,0,0,1,.56.16,14.11,14.11,0,0,1,7.22,4.71l.3.42.14.2.13.22.26.42c.07.15.15.29.22.44l.11.21.09.23.18.44.15.46.07.22c0,.08,0,.15.05.23l.11.45.07.46,0,.23,0,.23,0,.45v.67l0,.22c0,.15,0,.29,0,.44s0,.29-.07.43l0,.21,0,.21c0,.14-.07.28-.1.42l-.13.4-.06.2-.07.19-.16.38c-.05.13-.11.25-.17.37s-.25.47-.38.7a8.31,8.31,0,0,1-1.95,2.19A7.85,7.85,0,0,1,218,34.87a7.44,7.44,0,0,1-2.13.4l-.24,0h-.69l-.26,0a3.52,3.52,0,0,0,1.91-3.52,3.44,3.44,0,0,0-3.76-3.12,3.51,3.51,0,0,0,.14,7l.23.11.74.26c.27.09.56.15.88.23l.5.07.27,0,.27,0a7.78,7.78,0,0,0,2.48-.22,8.61,8.61,0,0,0,2.75-1.22,9.23,9.23,0,0,0,2.48-2.47,7.39,7.39,0,0,0,.51-.81c.08-.14.16-.28.23-.43l.21-.45a2.29,2.29,0,0,0,.1-.23l.09-.24.18-.48c0-.16.1-.33.14-.5l.08-.25c0-.09,0-.17,0-.26s.07-.35.11-.52.05-.36.07-.54l0-.27c0-.09,0-.18,0-.27s0-.37,0-.56,0-.37,0-.56v-.28l0-.29-.06-.57c0-.19-.08-.38-.11-.57l-.06-.28-.08-.29c-.05-.19-.1-.38-.16-.57s-.13-.37-.2-.56-.07-.18-.11-.28l-.12-.27-.26-.55-.29-.53-.15-.26-.17-.26c-.11-.17-.22-.34-.34-.51a14.37,14.37,0,0,0-1.62-1.88c-.3-.3-.63-.56-.94-.84l-.51-.38a6.15,6.15,0,0,0-.52-.37l-.53-.36-.55-.33-.28-.16L218,15.5l-.57-.3-.59-.27-.3-.13-.31-.12-.61-.24-.62-.21c-.21-.08-.42-.14-.64-.2s-.42-.13-.64-.18c-.43-.1-.86-.21-1.31-.29a19.92,19.92,0,0,0-2.7-.35,21.27,21.27,0,0,0-5.6.34,18.33,18.33,0,0,0-2.83.78,15.17,15.17,0,0,0-2.73,1.31l-.33.2-.32.22a7.42,7.42,0,0,0-.64.46l-.31.25-.3.25-.57.52A16.06,16.06,0,0,0,194,19.9a14.93,14.93,0,0,0-1.68,3,14.42,14.42,0,0,0-1,3.8,16.76,16.76,0,0,0,1.43,8.81,20.35,20.35,0,0,0,1.14,2.16,19.86,19.86,0,0,0,1.44,2,20.48,20.48,0,0,0,1.72,1.9c.32.29.63.6,1,.87.17.14.33.29.51.42l.52.41.54.38.56.38,1.1.68.56.34.58.32.59.33c.19.1.38.21.59.31l1.21.6c.41.19.84.36,1.26.54a13.22,13.22,0,0,0,1.29.49l.65.23c.22.08.45.14.67.21l.67.2c.23.06.45.13.68.18l1.38.31,1.4.24c.23,0,.47.06.7.09l.71.08a42.1,42.1,0,0,0,5.73.18l1.44-.06.72,0,.72-.06,1.44-.11,1.44-.15,1.44-.16,1.45-.17,1.46-.22.73-.11.72-.14,1.46-.28c.48-.1,1-.22,1.44-.33,1-.21,1.91-.49,2.87-.74.47-.13.94-.29,1.41-.43s1-.28,1.41-.44c.94-.32,1.87-.62,2.79-1,1.85-.66,3.67-1.41,5.47-2.15s3.56-1.54,5.31-2.33,3.47-1.59,5.18-2.37l5.06-2.3c3.34-1.52,6.55-3,9.68-4.32q2.35-1,4.64-1.75c1.52-.52,3-.94,4.49-1.29A32.06,32.06,0,0,1,290.84,27.63Zm3.27.38.51.29.06,0-.58-.23-.47-.2Zm-11.59-.4c-1.51.33-3,.72-4.61,1.21s-3.14,1-4.74,1.66c-3.19,1.23-6.45,2.69-9.8,4.13-1.68.72-3.4,1.45-5.12,2.2L253,39.07c-1.76.76-3.53,1.49-5.32,2.22s-3.59,1.4-5.42,2c-.91.33-1.83.61-2.75.91-.46.15-.93.27-1.39.4s-.92.28-1.39.39c-.93.24-1.86.49-2.8.68-.46.1-.93.21-1.4.3l-1.41.24c-.23,0-.46.09-.7.12l-.7.1-1.41.18-1.43.15c-.47,0-.95.1-1.42.13l-.33,0h0a8.74,8.74,0,0,1,1.87-.36c.76-.08,1.6-.29,2.53-.48a39.43,39.43,0,0,0,6.42-2c2.34-1,4.82-2.28,7.37-3.68,3.46-1.89,6.66-3.73,9.42-5.23,1.4-.73,2.66-1.43,3.8-2l1.59-.79,1.36-.62,1.42-.47,1.69-.53c1.21-.37,2.59-.81,4.09-1.26A76.32,76.32,0,0,1,277.1,27c1.41-.2,2.79-.37,4.12-.43.67-.05,1.33,0,2-.05l1,0c.31,0,.62,0,.93,0a26.06,26.06,0,0,1,2.6.31A35.68,35.68,0,0,0,282.52,27.61Z"/><path d="M266.79,24.22l-.89.28c-.26.09-.53.16-.8.24l-.79.22c-.54.13-1.07.28-1.61.39l-.8.17-.81.14-.4.07-.4.05-.81.11-.82.08-.81.08h-.17a3.68,3.68,0,0,1,.87-.18l-.92.07a1.38,1.38,0,0,0-.24.14l-.35,0-.81.05-.4,0-.4,0-.8,0a23,23,0,0,1-3.12-.14l-.38-.05c-.12,0-.25,0-.37-.06l-.74-.13-.73-.18-.36-.1-.35-.11-.35-.11-.35-.13c-.23-.09-.45-.17-.67-.27s-.45-.19-.67-.3l-.64-.32-.31-.18-.31-.17L245,23.8l-.3-.19-.6-.38-.28-.19-.27-.2-.26-.2-.25-.22c-.17-.14-.33-.29-.48-.44a9.78,9.78,0,0,1-.86-1,11,11,0,0,1-.71-1,10,10,0,0,1-.55-1.08,9.58,9.58,0,0,1-.4-1.09c0-.18-.1-.36-.14-.55s-.07-.36-.09-.54a7.45,7.45,0,0,1,0-2.05,6.94,6.94,0,0,1,.47-1.78,7.29,7.29,0,0,1,.79-1.41,7.78,7.78,0,0,1,1-1.14l.27-.26.14-.12.15-.11a3.06,3.06,0,0,1,.29-.21l.15-.11.15-.09a6.87,6.87,0,0,1,1.31-.63,8.48,8.48,0,0,1,1.39-.4,11,11,0,0,1,2.85-.21,10.4,10.4,0,0,1,1.38.16c.23,0,.45.08.67.13l.33.09a3,3,0,0,1,.32.09,8.14,8.14,0,0,1,4.14,2.7l.17.24.08.12.08.12c.05.08.1.16.14.24l.13.25.06.13.06.13.1.25a2.58,2.58,0,0,1,.08.26l0,.13s0,.09,0,.13l.06.26a2,2,0,0,0,0,.26l0,.13v.13l0,.26v.51c0,.09,0,.17,0,.26l0,.24s0,.08,0,.13l0,.11-.05.24-.08.23,0,.12a1.17,1.17,0,0,0-.05.11c0,.07,0,.14-.08.22l-.1.21c-.07.14-.15.26-.22.39a4.44,4.44,0,0,1-1.12,1.26,4.26,4.26,0,0,1-1.28.7,4.35,4.35,0,0,1-1.22.23h-.68a2,2,0,0,0,1.09-2,2,2,0,0,0-2.15-1.79,2,2,0,0,0-1.75,2.21,2,2,0,0,0,1.82,1.79l.14.07.42.15c.15,0,.32.08.51.13l.28,0,.16,0h.15a4.45,4.45,0,0,0,1.42-.12,5,5,0,0,0,1.58-.7,5.32,5.32,0,0,0,1.42-1.42,4.43,4.43,0,0,0,.29-.46l.14-.25.11-.26a.52.52,0,0,0,.06-.13l.05-.13.11-.28.08-.29,0-.14,0-.15.06-.3a2.91,2.91,0,0,0,0-.31l0-.15a.86.86,0,0,0,0-.16l0-.32v-.64l0-.33-.06-.33a.94.94,0,0,0,0-.16l0-.16-.09-.33-.12-.32-.06-.16-.07-.16-.15-.31-.17-.31-.08-.15-.1-.14-.19-.3a8.49,8.49,0,0,0-.93-1.07c-.17-.17-.36-.32-.54-.48l-.29-.22-.3-.22-.3-.2-.32-.19-.16-.09-.16-.09-.33-.17-.34-.15-.17-.08-.18-.07-.35-.14-.36-.12-.36-.11-.37-.1c-.25-.06-.49-.13-.75-.17a13,13,0,0,0-1.54-.2,12.54,12.54,0,0,0-3.22.19,12.24,12.24,0,0,0-1.62.45,8.27,8.27,0,0,0-1.56.75l-.19.11-.19.13c-.12.09-.24.17-.36.27l-.18.14-.17.14-.33.3a9.59,9.59,0,0,0-1.18,1.35,8.86,8.86,0,0,0-1,1.73,8.21,8.21,0,0,0-.57,2.18,9.53,9.53,0,0,0,.82,5.05,11.32,11.32,0,0,0,.65,1.24c.25.39.52.79.82,1.17a12.65,12.65,0,0,0,1,1.09c.18.16.36.34.56.5l.29.24.3.23.31.22.31.21.64.4.32.19.33.19.33.18.34.18.7.34c.23.11.48.21.72.31a6.61,6.61,0,0,0,.74.28l.37.14.39.12.38.11.39.1.79.18.8.14.41.05.4.05a24.07,24.07,0,0,0,3.29.1c.27,0,.55,0,.82,0l.41,0,.42,0,.82-.07.83-.08.82-.09.83-.1.84-.13.42-.06.41-.08.83-.16c.28-.05.56-.12.83-.19.55-.12,1.1-.28,1.64-.42l.82-.25.8-.25c.54-.18,1.08-.36,1.6-.56.37-.13.74-.27,1.1-.42,0-.23.05-.46.08-.69C268.25,24,267.52,24.11,266.79,24.22Z"/><path d="M301.08,37.25c-2.65-3.82-7.87-6.54-12.75-7.26s-10,1-14.37,3.15C268.88,35.73,264.3,39,259.47,42c-4.58,2.79-9.62,5.39-15.21,5.6-.63,0-1.21.34-1.22.78-.3.37,0,1,.46,1.35,3.85,2.7,9.36,2.7,13.91,1.42,4.71-1.32,7.3-5.47,9.62-9.21.22,2.18.8,4.3,2.75,5.75.85.64,3.59,1.78,1.69-1.12s.82-7,3.19-9.63c2.82-3.11,7.48-4.53,11.71-5a1,1,0,0,0,.32-.08c.42,0,.84.05,1.26.1A16.1,16.1,0,0,1,302.1,45.82c.82,5.35-.09,12.82-5.71,16a9.85,9.85,0,0,1-8.25.36,6.92,6.92,0,0,1-1.68-1.35,5.48,5.48,0,0,1-1-5c2.17.89,5.19.37,7.39-.59,2.94-1.27,5-4.56,3.56-6.89a1.37,1.37,0,0,0-.23-.47,1.08,1.08,0,0,0-.61-.72c-6.24-3.06-12.47.75-14.07,6.64-1.78,6.58,4.12,11,10.93,11,6.43,0,10.13-5.4,11.43-10.46A21.33,21.33,0,0,0,301.08,37.25ZM293.42,51.5h.07l-.1.1Z"/><path d="M326.34,28.5c1.47.35,3,.77,4.5,1.29s3.07,1.1,4.63,1.75c3.14,1.29,6.35,2.8,9.69,4.32l5.06,2.3c1.71.78,3.43,1.58,5.18,2.37s3.52,1.57,5.31,2.33,3.61,1.49,5.46,2.15c.92.35,1.86.65,2.79,1,.47.16.94.29,1.41.44s.94.3,1.42.43c.95.25,1.9.53,2.87.74.48.11,1,.23,1.44.33l1.45.28.73.14.73.11,1.46.22,1.44.17,1.44.16,1.44.15,1.45.11.71.06.73,0c.48,0,.95,0,1.43.06a42.05,42.05,0,0,0,5.73-.18l.71-.08.71-.09,1.4-.24,1.37-.31c.23-.05.46-.12.68-.18l.68-.2c.22-.07.45-.13.66-.21l.66-.23c.44-.15.87-.3,1.29-.49s.84-.35,1.25-.54l1.22-.6.59-.31.58-.33c.2-.1.39-.21.58-.32l.56-.34,1.11-.68.55-.38c.19-.12.37-.25.54-.38l.53-.41c.17-.13.34-.28.5-.42.35-.27.66-.58,1-.87a19.27,19.27,0,0,0,1.73-1.9,21.53,21.53,0,0,0,1.44-2,18.58,18.58,0,0,0,1.13-2.16,16.56,16.56,0,0,0,1.43-8.81,14.42,14.42,0,0,0-1-3.8,16,16,0,0,0-1.68-3A16.74,16.74,0,0,0,413,17.54L412.4,17a2.48,2.48,0,0,0-.3-.25l-.31-.25c-.2-.17-.42-.31-.63-.46l-.32-.22-.33-.2a14.94,14.94,0,0,0-2.74-1.31,17.92,17.92,0,0,0-2.82-.78,21.34,21.34,0,0,0-5.61-.34,20.13,20.13,0,0,0-2.7.35c-.44.08-.87.19-1.31.29l-.64.18c-.21.06-.42.12-.63.2l-.63.21-.61.24-.3.12-.3.13-.59.27-.58.3-.29.15-.27.16-.56.33-.53.36a6.15,6.15,0,0,0-.52.37l-.5.38c-.32.28-.65.54-.94.84A14.45,14.45,0,0,0,385.81,20l-.34.51-.16.26-.15.26-.3.53-.25.55-.13.27c0,.1-.07.19-.1.28l-.21.56c-.05.19-.1.38-.16.57l-.07.29a2.8,2.8,0,0,0-.06.28c0,.19-.07.38-.11.57l-.06.57,0,.29V26c0,.19,0,.37,0,.56l0,.56c0,.09,0,.18,0,.27l0,.27c0,.18,0,.36.07.54s.07.35.1.52L384,29l.07.25.15.5.17.48.09.24a2.4,2.4,0,0,0,.11.23c.06.15.13.3.2.45l.24.43a9.22,9.22,0,0,0,.5.81A9.41,9.41,0,0,0,388,34.88a8.57,8.57,0,0,0,2.74,1.22,7.83,7.83,0,0,0,2.48.22l.28,0,.26,0,.5-.07c.32-.08.62-.14.89-.23l.73-.26.24-.11a3.5,3.5,0,1,0-3.63-3.86,3.55,3.55,0,0,0,1.91,3.52l-.25,0h-.69l-.25,0a7.5,7.5,0,0,1-2.13-.4,8,8,0,0,1-2.24-1.22,8.28,8.28,0,0,1-1.94-2.19c-.13-.23-.27-.46-.38-.7l-.18-.37-.15-.38c0-.06-.05-.13-.08-.19l-.06-.2-.13-.4-.09-.42-.05-.21a1.55,1.55,0,0,1,0-.21l-.07-.43,0-.44,0-.22v-.22c0-.15,0-.3,0-.45s0-.3,0-.45v-.23l0-.23c0-.15,0-.3.07-.46l.1-.45.06-.23.07-.22c0-.15.09-.31.14-.46s.12-.29.19-.44a2.18,2.18,0,0,1,.09-.23l.11-.21c.07-.15.14-.29.22-.44l.25-.42.13-.22.15-.2.29-.42a14.15,14.15,0,0,1,7.22-4.71c.19-.07.38-.11.57-.16l.57-.15c.39-.09.77-.18,1.17-.24a19.1,19.1,0,0,1,2.41-.27,19.93,19.93,0,0,1,5,.35,17.27,17.27,0,0,1,2.43.7,13.35,13.35,0,0,1,2.28,1.11l.27.16.26.18c.18.13.35.24.51.38l.25.2.24.2.49.45a13.14,13.14,0,0,1,1.73,2A12.54,12.54,0,0,1,414.31,24a11.85,11.85,0,0,1,.82,3.1,13.55,13.55,0,0,1-.05,3.59c0,.32-.11.63-.17.94s-.16.64-.24,1a16.2,16.2,0,0,1-.7,1.9,15.88,15.88,0,0,1-1,1.88,18.53,18.53,0,0,1-1.24,1.79,15.58,15.58,0,0,1-1.49,1.68c-.27.26-.54.53-.84.78L409,41l-.46.36c-.15.12-.31.23-.47.34l-.48.34-1,.66c-.18.11-.35.23-.53.33l-.54.31-.54.31c-.18.1-.36.21-.55.3l-1.12.57-1.15.52c-.39.18-.79.32-1.19.47l-.6.22c-.2.08-.41.13-.61.2l-.62.19a6.29,6.29,0,0,1-.62.17l-1.27.31-1.29.24c-.22.05-.44.07-.66.1l-.66.08a40.64,40.64,0,0,1-5.44.26c-.46,0-.92,0-1.39,0l-.7,0-.7,0L385,47l-.61-.06a4.09,4.09,0,0,0-.43-.25,9.23,9.23,0,0,0-1.87-.58c-.73-.16-1.53-.45-2.44-.72a51.62,51.62,0,0,1-6.14-2.4c-2.23-1.1-4.65-2.42-7.19-3.82-3.46-1.9-6.75-3.61-9.63-4.93-1.45-.64-2.76-1.24-4-1.68L351,31.94l-1.42-.47-1.37-.62-1.64-.69c-1.18-.48-2.52-1-4-1.58a53.2,53.2,0,0,0-10.45-2.89,31.77,31.77,0,0,0-4.27-.38c-.7,0-1.38,0-2,0l-1,.07c-.33,0-.65,0-1,.09A26.18,26.18,0,0,0,317.93,27l-1.06.1c.73-.33,1.59-.68,2.58-1l.66-.23.7-.22c.47-.16,1-.29,1.48-.44,1-.27,2.15-.54,3.32-.75a32.74,32.74,0,0,1,3.7-.48c.65,0,1.3-.06,2,0l1,0,1,.07a58,58,0,0,1,10.11,1.86c2.92.8,5.33,1.58,7,2.14.78.37,1.76.81,2.85,1.38s2.34,1.2,3.71,1.87,2.78,1.54,4.32,2.37L366,36.32q1.81,1.08,3.54,2.07c1.12.66,2.16,1.38,3.16,2.08s1.95,1.37,2.86,2,1.78,1.15,2.58,1.62a18.49,18.49,0,0,0,4,1.76l.67.17.5.09.4.07L383.4,46l-.48-.15-.63-.25a20.35,20.35,0,0,1-3.76-2.14c-.75-.53-1.56-1.13-2.41-1.8l-2.73-2.15a35.37,35.37,0,0,0-3.17-2.26c-1.13-.7-2.31-1.42-3.53-2.14-1.66-1-3.3-1.84-4.85-2.68s-3.09-1.5-4.48-2.15l-3.87-1.59c-1.14-.46-2.16-.79-3-1.08a70.47,70.47,0,0,0-6.82-2.78A43.32,43.32,0,0,0,333.4,22.6l-1.06-.07-1.06,0a19.88,19.88,0,0,0-2.06.1,27.53,27.53,0,0,0-3.83.65,32.77,32.77,0,0,0-3.36,1c-.51.19-1,.36-1.48.56l-.69.29-.65.29a27.4,27.4,0,0,0-3.31,1.8c-.59.1-1.15.23-1.7.38a9.34,9.34,0,0,0-2.62,1.19,2,2,0,0,1,.18.39l0,.06a9.08,9.08,0,0,1,2.56-1.07l.27-.06-.22.17-.2.15-1.05.43-1.31.49v0l1.36-.32,1.87-.52,2.46-.7.66-.18A32,32,0,0,1,326.34,28.5Zm-10.92-.59-.48.2-.58.23.07,0,.51-.29Zm5.94-1a25.92,25.92,0,0,1,2.61-.31c.3,0,.62,0,.93,0s.63,0,1,0c.65,0,1.3,0,2,.05,1.34.06,2.71.23,4.12.43a76.12,76.12,0,0,1,10.35,2.49c1.5.45,2.87.89,4.08,1.26l1.7.53,1.41.47,1.36.62,1.59.79c1.15.54,2.41,1.24,3.8,2,2.77,1.5,6,3.34,9.43,5.23,2.55,1.4,5,2.66,7.36,3.68a40,40,0,0,0,6.42,2c.94.19,1.78.4,2.54.48a8.63,8.63,0,0,1,1.86.36h0l-.33,0c-.48,0-.95-.08-1.42-.13l-1.43-.15-1.41-.18-.7-.1c-.24,0-.47-.08-.71-.12L376.47,46l-1.4-.3c-.94-.19-1.86-.44-2.8-.68-.46-.11-.92-.26-1.39-.39s-.92-.25-1.38-.4c-.92-.3-1.84-.58-2.75-.91-1.83-.61-3.63-1.31-5.43-2s-3.56-1.46-5.31-2.22-3.49-1.51-5.21-2.26-3.44-1.48-5.12-2.2c-3.35-1.44-6.61-2.9-9.81-4.13q-2.39-.93-4.73-1.66c-1.56-.49-3.1-.88-4.61-1.21A35.63,35.63,0,0,0,321.36,26.93Z"/><path d="M342.26,24.22l.89.28c.26.09.53.16.79.24l.8.22c.53.13,1.06.28,1.6.39l.81.17.8.14.41.07.4.05.81.11.81.08.82.08h.17a3.79,3.79,0,0,0-.87-.18l.92.07a1.38,1.38,0,0,1,.24.14l.35,0,.81.05.4,0,.4,0,.8,0a22.76,22.76,0,0,0,3.11-.14l.38-.05.38-.06.74-.13.73-.18.35-.1.36-.11.35-.11.34-.13c.23-.09.46-.17.68-.27s.45-.19.66-.3l.65-.32.31-.18.31-.17.31-.18.3-.19.6-.38.27-.19a1.89,1.89,0,0,0,.27-.2l.27-.2.25-.22c.17-.14.32-.29.48-.44a9.78,9.78,0,0,0,.86-1c.26-.33.49-.68.71-1s.39-.71.55-1.08a9.5,9.5,0,0,0,.39-1.09c.05-.18.1-.36.14-.55a5.12,5.12,0,0,0,.1-.54,7.45,7.45,0,0,0,0-2.05,6.94,6.94,0,0,0-.47-1.78,7.31,7.31,0,0,0-.8-1.41,7.17,7.17,0,0,0-1-1.14l-.28-.26-.14-.12-.14-.11a3.06,3.06,0,0,0-.29-.21L366,9.54l-.16-.09a7.09,7.09,0,0,0-1.3-.63,8.59,8.59,0,0,0-1.4-.4,11,11,0,0,0-2.84-.21,10.55,10.55,0,0,0-1.39.16c-.22,0-.44.08-.67.13l-.32.09-.33.09a8.18,8.18,0,0,0-4.14,2.7l-.16.24-.09.12-.07.12-.15.24-.12.25-.07.13s0,.08-.05.13l-.1.25-.09.26,0,.13,0,.13-.06.26c0,.09,0,.18,0,.26l0,.13v.13l0,.26v.26a.57.57,0,0,0,0,.13v.12l0,.26,0,.24a.69.69,0,0,0,0,.13l0,.11.06.24.07.23,0,.12s0,.07,0,.11l.09.22.1.21a3,3,0,0,0,.22.39,4.57,4.57,0,0,0,1.11,1.26,4.43,4.43,0,0,0,1.29.7,4.29,4.29,0,0,0,1.22.23h.68a2,2,0,0,1-1.09-2,2,2,0,0,1,2.15-1.79,2,2,0,0,1,1.74,2.21,2,2,0,0,1-1.82,1.79l-.13.07-.42.15-.51.13L357,20l-.15,0h-.16a4.47,4.47,0,0,1-1.42-.12,5,5,0,0,1-1.57-.7,5.35,5.35,0,0,1-1.43-1.42c-.09-.15-.2-.3-.29-.46s-.09-.16-.13-.25l-.12-.26-.06-.13,0-.13-.1-.28-.08-.29,0-.14a.83.83,0,0,1,0-.15l-.06-.3c0-.1,0-.2,0-.31l0-.15a.86.86,0,0,0,0-.16v-.8l0-.16,0-.33.06-.33,0-.16.05-.16.09-.33.12-.32a1,1,0,0,1,.06-.16l.07-.16.14-.31.17-.31.09-.15.09-.14.2-.3a8.49,8.49,0,0,1,.93-1.07c.17-.17.36-.32.54-.48a3.15,3.15,0,0,1,.29-.22,3.15,3.15,0,0,1,.29-.22l.31-.2.32-.19.16-.09.16-.09.33-.17.34-.15.17-.08.17-.07.36-.14.35-.12.37-.11.36-.1c.25-.06.5-.13.75-.17a13.41,13.41,0,0,1,1.55-.2,12.46,12.46,0,0,1,3.21.19,11.45,11.45,0,0,1,1.62.45,8.35,8.35,0,0,1,1.57.75l.19.11.18.13c.13.09.25.17.37.27l.17.14.18.14.32.3a9.05,9.05,0,0,1,1.19,1.35,8.86,8.86,0,0,1,1,1.73,8.61,8.61,0,0,1,.57,2.18,9.63,9.63,0,0,1-.82,5.05,11.32,11.32,0,0,1-.65,1.24A12.58,12.58,0,0,1,367.5,23c-.19.16-.36.34-.56.5l-.29.24-.3.23-.31.22-.32.21-.63.4-.32.19-.34.19-.33.18a3.65,3.65,0,0,1-.34.18l-.69.34-.72.31a6.61,6.61,0,0,1-.74.28l-.38.14-.38.12-.39.11-.39.1-.79.18-.8.14-.4.05-.41.05a23.87,23.87,0,0,1-3.28.1c-.28,0-.55,0-.82,0l-.42,0-.41,0-.83-.07-.82-.08-.83-.09-.83-.1-.83-.13-.42-.06-.42-.08-.83-.16c-.28-.05-.55-.12-.83-.19-.55-.12-1.09-.28-1.64-.42l-.81-.25-.81-.25c-.53-.18-1.07-.36-1.6-.56-.37-.13-.73-.27-1.1-.42,0-.23-.05-.46-.07-.69C340.79,24,341.53,24.11,342.26,24.22Z"/><path d="M305.2,54.35c1.3,5.06,5,10.46,11.43,10.46,6.8,0,12.71-4.41,10.92-11-1.59-5.89-7.83-9.7-14.07-6.64a1.13,1.13,0,0,0-.61.72,1.87,1.87,0,0,0-.23.47c-1.43,2.33.63,5.62,3.56,6.89,2.2,1,5.22,1.48,7.4.59a5.44,5.44,0,0,1-1.05,4.92,5.09,5.09,0,0,1-1.64,1.46,10,10,0,0,1-8.25-.36c-5.62-3.23-6.53-10.7-5.72-16A16.1,16.1,0,0,1,321.09,31.9c.42,0,.84-.08,1.26-.1a1.07,1.07,0,0,0,.32.08c4.23.5,8.89,1.92,11.72,5,2.37,2.6,5.18,6.6,3.19,9.63s.83,1.76,1.68,1.12c1.95-1.45,2.54-3.57,2.76-5.75,2.32,3.74,4.91,7.89,9.61,9.21s10.07,1.28,13.91-1.42c.51-.36.76-1,.47-1.35,0-.44-.59-.76-1.22-.78-5.59-.21-10.64-2.81-15.21-5.6-4.83-2.94-9.41-6.24-14.5-8.83-4.33-2.2-9.38-3.9-14.36-3.15s-10.1,3.44-12.76,7.26A21.33,21.33,0,0,0,305.2,54.35Zm10.46-2.76-.11-.1h.08Z"/><path d="M147.68,65.69l.78.24c.26.08.58.15,1,.25.19,0,.4.08.62.13s.46.09.71.12a35.74,35.74,0,0,0,8.65.09A81.15,81.15,0,0,0,172,64.22c2.34-.6,4.77-1.31,7.26-2.13q1.88-.62,3.78-1.32c1.28-.47,2.55-1,3.84-1.5,2.56-1.05,5-2.12,7.4-3.07s4.71-1.8,6.94-2.5a52.92,52.92,0,0,1,12.21-2.39c.88,0,1.72-.05,2.52,0a21.15,21.15,0,0,1,2.23.21,14.31,14.31,0,0,1,3.47,1,10.32,10.32,0,0,1,2,1.11c.22.15.37.28.48.36l.17.13-.15-.15-.42-.44a10.82,10.82,0,0,0-1.9-1.4,13.92,13.92,0,0,0-3.48-1.41,22.38,22.38,0,0,0-2.31-.47,26.19,26.19,0,0,0-2.63-.24,47,47,0,0,0-12.81,1.53,72.81,72.81,0,0,0-7.27,2.28c-2.47.9-5,1.94-7.51,3-1.27.51-2.52,1-3.75,1.51s-2.47.94-3.68,1.37c-2.42.88-4.78,1.68-7,2.39a108.63,108.63,0,0,1-12.17,3.17,40.51,40.51,0,0,1-8.42.83c-.25,0-.48,0-.71,0a5.87,5.87,0,0,1-.62,0l-1-.11Z"/><path d="M136.52,50.25a1.11,1.11,0,0,0-.87-.48,2.67,2.67,0,0,0-.74,0,6.48,6.48,0,0,0-.9.22,7.34,7.34,0,0,0-1,.5,6.42,6.42,0,0,0-1.08.82,6.32,6.32,0,0,0-1.78,2.82,6.59,6.59,0,0,0-.24,2.36,7.7,7.7,0,0,0,.83,2.87,11.75,11.75,0,0,0,4.14,4.39,15.12,15.12,0,0,0,2.39,1.28,14.34,14.34,0,0,0,2.12.69c1.25.29,2.06.27,2.1.14s-.67-.49-1.64-1.17a18,18,0,0,1-1.61-1.24,16.58,16.58,0,0,1-1.69-1.67,12.94,12.94,0,0,1-1.41-1.94,7.7,7.7,0,0,1-.83-1.94,4.35,4.35,0,0,1-.15-1.53,5.07,5.07,0,0,1,.2-1,7.65,7.65,0,0,1,.66-1.48c.12-.25.3-.48.43-.73s.31-.48.44-.71a4.47,4.47,0,0,0,.38-.66,3.86,3.86,0,0,0,.27-.6A1.25,1.25,0,0,0,136.52,50.25Z"/><path d="M123.32,64.65a2.05,2.05,0,0,0,.48.75,3.45,3.45,0,0,0,.7.56,4.42,4.42,0,0,0,1.72.62c.32,0,.88,0,1.57.12a12.35,12.35,0,0,1,2.28.47l.58.19.55.21c.34.14.68.28,1,.41s.52.25.7.32.31.09.37,0,.05-.16,0-.36a3.05,3.05,0,0,0-.25-.77,7,7,0,0,0-.57-1l-.4-.57c-.15-.19-.32-.38-.48-.57a9.88,9.88,0,0,0-2.43-2,6.93,6.93,0,0,0-2.3-.85,3.76,3.76,0,0,0-2.82.67,1.89,1.89,0,0,0-.64.86A1.36,1.36,0,0,0,123.32,64.65Z"/><path d="M106.2,57.61c0-.36.07-.7.1-1s.07-.69.13-1a18.11,18.11,0,0,1,3-7.44A19,19,0,0,1,114.87,43a24.22,24.22,0,0,1,6.19-2.66,30.86,30.86,0,0,1,6-1,36.53,36.53,0,0,1,5.36,0l1.23.12,1.17.17c.38.05.76.13,1.12.2s.73.13,1.07.21l1,.25.49.12.47.14.91.27c.3.09.58.2.86.29a29.65,29.65,0,0,1,4.89,2.19c.27.13.49.28.69.4l.5.31.4.25-.42-.22-.52-.26a7,7,0,0,0-.72-.35,31.09,31.09,0,0,0-5-1.81c-.28-.07-.56-.16-.86-.23l-.91-.2-.47-.1-.49-.09-1-.18-1.06-.14c-.36,0-.73-.09-1.11-.12l-1.15-.09-1.19,0a34.17,34.17,0,0,0-5.16.25A30,30,0,0,0,121.56,42,22.52,22.52,0,0,0,116,44.74a16.91,16.91,0,0,0-4.61,4.66A15.93,15.93,0,0,0,109,55.91c0,.3-.05.6-.08.9s-.06.61,0,.91a15.65,15.65,0,0,0,.07,1.81,15.92,15.92,0,0,0,.3,1.79c.08.3.17.59.25.88a8.14,8.14,0,0,0,.31.87,15.33,15.33,0,0,0,.78,1.7l.49.81.13.2.14.19.28.39a17.08,17.08,0,0,0,2.63,2.9,28.29,28.29,0,0,0,6.93,4.49,41.69,41.69,0,0,0,8.24,2.82,42.6,42.6,0,0,0,4.4.79,39.53,39.53,0,0,0,4.49.32h1.12l1.12-.05,1.1-.09,1.14-.14c1.52-.2,3-.36,4.52-.64l2.23-.37c.74-.13,1.47-.3,2.2-.45s1.46-.29,2.18-.45l2.15-.52c5.71-1.4,11.15-3.14,16.3-4.91s10-3.59,14.61-5.24,8.89-3.13,12.85-4.38c2-.6,3.88-1.19,5.69-1.69s3.53-.93,5.16-1.25a31.83,31.83,0,0,1,8.49-.73,14.85,14.85,0,0,1,3.08.51,9,9,0,0,1,.92.3l.28.07.37.1.36.11.36.13c.24.08.47.18.69.27a11.57,11.57,0,0,1,1.31.68,10.58,10.58,0,0,1,1.17.81,10.08,10.08,0,0,1,1,.92,9.25,9.25,0,0,1,2.45,4.41,8.15,8.15,0,0,1,.18,2.22,8.61,8.61,0,0,1-.35,1.93,8.38,8.38,0,0,1-.68,1.66l-.21.39a1.18,1.18,0,0,1-.11.19l-.13.2c-.08.13-.17.24-.26.36l-.13.18-.14.18a9,9,0,0,1-1.25,1.22,10.84,10.84,0,0,1-1.39,1,12.87,12.87,0,0,1-3,1.27,13.66,13.66,0,0,1-1.54.34l-.77.1-.38,0-.38,0h-1.14l-.38,0-.37-.05-.18,0-.19,0-.36-.07-.36-.09c-.12,0-.23-.06-.35-.09l-.35-.11a6.69,6.69,0,0,1-.67-.27,7.19,7.19,0,0,1-1.25-.68l-.28-.2-.14-.11-.13-.11-.26-.22L214,74l-.12-.12-.12-.13-.21-.25-.2-.28-.09-.13-.09-.14-.17-.28c0-.1-.09-.2-.14-.3l-.07-.14-.06-.15-.11-.3-.09-.3,0-.15,0-.15c0-.1-.05-.2-.06-.3s0-.2-.05-.3,0-.09,0-.14v-.15l0-.3c0-.09,0-.19,0-.29v-.14s0-.09,0-.14l0-.28a2.74,2.74,0,0,1,.05-.28,5,5,0,0,1,.12-.53,5.27,5.27,0,0,1,.89-1.79,5.19,5.19,0,0,1,1.26-1.19,4.64,4.64,0,0,1,1.32-.6l.15,0,.15,0,.29-.06.53,0h.45l.15,0a2,2,0,0,1,1.39,3.69,2,2,0,0,1-2.26-3.18l-.15,0-.25.08-.13,0-.13,0a4.37,4.37,0,0,0-1.09.63,4.57,4.57,0,0,0-1,1.09,4.63,4.63,0,0,0-.64,1.54,3.25,3.25,0,0,0-.08.45l0,.23a1.85,1.85,0,0,1,0,.23v.47l0,.24v.12a.5.5,0,0,0,0,.12c0,.08,0,.17,0,.25a2.17,2.17,0,0,1,.07.24l0,.12s0,.08,0,.12a2.25,2.25,0,0,1,.08.24l.11.23.05.12.06.11a1.71,1.71,0,0,0,.13.23l.14.22.07.12.08.1.17.21.18.21.1.1.1.09.2.19.22.18.11.09.12.08.24.16a8.25,8.25,0,0,0,4.84,1.11l.33,0,.34,0,.69-.1a11.36,11.36,0,0,0,1.37-.33A11.62,11.62,0,0,0,226,73.3a10,10,0,0,0,1.2-.85,7.71,7.71,0,0,0,1-1l.12-.14.11-.15a3.13,3.13,0,0,0,.2-.3l.1-.15c0-.05.07-.1.1-.16l.18-.33a8.83,8.83,0,0,0,.57-1.39,6.93,6.93,0,0,0,.28-1.59,6.67,6.67,0,0,0-.13-1.81,7.89,7.89,0,0,0-.71-1.9,4.34,4.34,0,0,0-.28-.46c-.09-.16-.2-.31-.31-.47a8.34,8.34,0,0,0-.74-.87,8.53,8.53,0,0,0-.88-.81,10.77,10.77,0,0,0-1-.72,10.25,10.25,0,0,0-1.14-.6c-.2-.09-.4-.18-.6-.25l-.32-.12-.31-.1-.33-.09-.32-.09-.7-.14-.35-.08-.35-.06-.35-.06-.36,0-.72-.08c-.24,0-.49,0-.73-.05s-.49,0-.74,0h-.37l-.37,0-.37,0-.37,0-.75.09c-.6.06-1.2.08-1.8.16s-1.06.16-1.6.2c-.93.06-1.87.16-2.8.28l-2.13.28h0l-2,.66c-1.76.59-3.6,1.28-5.54,2-3.87,1.44-8.07,3.11-12.57,5s-9.32,3.82-14.46,5.77a165.93,165.93,0,0,1-16.48,5.37l-2.2.56c-.74.18-1.49.34-2.24.5s-1.51.34-2.27.49l-2.3.41c-1.54.3-3.11.47-4.68.68l-1.19.15-1.24.11-1.24,0h-1.25a44.32,44.32,0,0,1-9.63-1.24,43.28,43.28,0,0,1-8.89-3.17,30.42,30.42,0,0,1-7.62-5.15,20.41,20.41,0,0,1-3-3.46l-.32-.47-.16-.23-.14-.25-.56-1a17.2,17.2,0,0,1-.89-2.07,10,10,0,0,1-.34-1.06c-.09-.36-.19-.72-.27-1.08a16.28,16.28,0,0,1-.29-2.18A17.16,17.16,0,0,1,106.2,57.61Z"/></g></g></svg>