<svg xmlns="http://www.w3.org/2000/svg" viewBox="0 0 118.9 32.52"><title>motif-04</title><g id="Layer_2" data-name="Layer 2"><g id="Object"><path d="M2.05,23.85s.16.15.46.46a16,16,0,0,0,1.4,1.27,24.9,24.9,0,0,0,5.95,3.67l1.05.46,1.11.42.58.21.6.19,1.23.38A45.85,45.85,0,0,0,19.9,32a52,52,0,0,0,6.15.47,61.59,61.59,0,0,0,6.59-.24A74.11,74.11,0,0,0,49,28.84c2.32-.76,4.41-1.57,6.21-2.36s3.32-1.56,4.54-2.2c2.6-.92,6.36-2.36,10.86-4.07,2.26-.84,4.69-1.76,7.3-2.63s5.35-1.73,8.23-2.46a71.48,71.48,0,0,1,12.1-2,29.72,29.72,0,0,1,9.84.95c1.4.34,2.66.7,3.78,1l2.86.81c.79.21,1.41.36,1.83.45l.64.14-.61-.24c-.4-.16-1-.4-1.73-.73l-2.73-1.19c-1.06-.46-2.29-1-3.68-1.47a37.53,37.53,0,0,0-4.67-1.35c-.43-.09-.87-.18-1.32-.24a12.26,12.26,0,0,0-1.39-.18l-.72-.07c-.24,0-.48,0-.73,0l-.74,0-.73,0A54.92,54.92,0,0,0,85.5,12.67a74.54,74.54,0,0,0-8.4,2.72c-2.62,1-5,2.09-7.22,3.12C65.49,20.58,62,22.45,59.5,23.72c-1.3.47-2.88,1-4.73,1.61s-4,1.17-6.28,1.74a113.26,113.26,0,0,1-16.08,2.68c-2.17.19-4.3.32-6.36.35s-4,0-5.92-.17-3.65-.4-5.3-.7L13.62,29,13,28.85l-.56-.15-1.11-.29-1-.34a27.43,27.43,0,0,1-6.17-2.81c-.71-.41-1.2-.79-1.56-1Z"/><path d="M2.73,25.41l.6.27c.39.17,1,.45,1.71.76a38.11,38.11,0,0,0,6.63,2A39.69,39.69,0,0,0,22,29a49.74,49.74,0,0,0,6.06-.84,62.41,62.41,0,0,0,6.34-1.65c2.9-.92,5.63-2,8.18-3.06s4.91-2.19,7.08-3.22c4.33-2.07,7.88-3.83,10.35-5,1.3-.42,2.91-.91,4.75-1.45s3.94-1.09,6.28-1.69,4.82-1.29,7.46-1.94,5.44-1.27,8.33-1.7a36.28,36.28,0,0,1,11.94-.06l.67.13.66.15c.43.1.85.24,1.27.35s.82.27,1.2.41a8.73,8.73,0,0,1,1.08.49,30.6,30.6,0,0,1,3.82,2.56,34,34,0,0,0,3.27,2.22,10.65,10.65,0,0,0,2.79,1.16,7,7,0,0,0,1.88.21,4.15,4.15,0,0,0,.49,0h.16l-.16,0c-.11,0-.27,0-.48,0a6.78,6.78,0,0,1-1.77-.47A11.36,11.36,0,0,1,111.17,14a36.17,36.17,0,0,1-2.9-2.52,28.22,28.22,0,0,0-3.75-3.08,11.18,11.18,0,0,0-1.23-.69c-.43-.2-.85-.37-1.29-.55s-.89-.34-1.36-.48l-.7-.21-.72-.19c-.48-.14-1-.22-1.47-.33s-1-.18-1.53-.24a29.71,29.71,0,0,0-3.17-.24,39.1,39.1,0,0,0-6.6.45,63.79,63.79,0,0,0-8.57,1.95c-2.66.78-5.13,1.63-7.39,2.42l-3.25,1.16-.76.29-.73.29-1.41.56c-1.79.76-3.33,1.45-4.56,2-2.62.82-6.39,2.16-10.86,3.87s-9.66,3.78-15.29,5.57c-2.07.66-4.11,1.22-6.09,1.7s-3.92.81-5.76,1.08a45.92,45.92,0,0,1-9.93.28,46.64,46.64,0,0,1-6.69-1.09Z"/><path d="M2.05,23.85l.53.37c.18.13.4.28.66.44s.58.37.94.57A18.09,18.09,0,0,0,6.9,26.5a18.26,18.26,0,0,0,3.91,1,20.91,20.91,0,0,0,4.91.09,32.64,32.64,0,0,0,5.5-1c1.9-.52,3.84-1.17,5.81-1.89l3-1.11,3.06-1.22c1.4-.57,2.77-1.14,4.12-1.71s2.66-1.1,3.91-1.7c2.51-1.17,4.88-2.31,7.05-3.37,1.08-.52,2.12-1,3.09-1.54L54,12.58c1.73-.9,3.22-1.69,4.44-2.34,2.58-1,6.33-2.36,10.8-4.14a62.8,62.8,0,0,1,7.27-2.32,41.1,41.1,0,0,1,8.31-1.23A29.2,29.2,0,0,1,91,2.91l.37,0,.36.08.72.16.72.15.69.2c.46.14.93.26,1.37.42l1.31.49.32.12.31.14.62.29c.39.19.84.36,1.17.56A14.76,14.76,0,0,1,101,7c1.28,1.06,2.44,2.17,3.56,3.12a24.3,24.3,0,0,0,3.19,2.41,11.59,11.59,0,0,0,1.48.76,7.72,7.72,0,0,0,1.34.41,4.73,4.73,0,0,0,2.39-.1l.16,0-.17,0a4.14,4.14,0,0,1-.48,0,4.67,4.67,0,0,1-1.8-.29,7.29,7.29,0,0,1-1.18-.56,11.06,11.06,0,0,1-1.28-.89,25.77,25.77,0,0,1-2.78-2.66c-1-1.05-2-2.25-3.27-3.49A15.19,15.19,0,0,0,100,3.92c-.44-.3-.84-.49-1.27-.73l-.65-.36-.33-.17-.34-.16L96,1.89c-.47-.2-1-.35-1.46-.53-.25-.08-.5-.18-.75-.25L93,.9,92.25.7,91.86.6,91.45.53A28,28,0,0,0,84.74,0a36.21,36.21,0,0,0-8.82,1.51,49.21,49.21,0,0,0-7.4,2.88c-4.33,2.13-7.89,4-10.32,5.27-1.29.48-2.86,1.08-4.68,1.78l-6.11,2.41c-2.24.88-4.66,1.85-7.21,2.9-1.27.55-2.6,1-3.94,1.57S33.54,19.41,32.15,20l-3,1.24-3,1.18c-1.93.78-3.78,1.5-5.56,2.11a37.59,37.59,0,0,1-5.12,1.36,21.85,21.85,0,0,1-4.57.36,19.55,19.55,0,0,1-6.57-1.36c-.38-.14-.71-.29-1-.41s-.52-.24-.71-.33Z"/><path d="M7.1,25.92l-.73-.21c-.23-.07-.5-.19-.81-.3a6.33,6.33,0,0,1-1-.5A4.16,4.16,0,0,1,3,23.1a5.87,5.87,0,0,1-.24-.63c0-.11,0-.23-.08-.34s0-.23,0-.35a6.55,6.55,0,0,1,0-1.54,10,10,0,0,1,1.28-4,9.28,9.28,0,0,1,1-1.45,8.4,8.4,0,0,1,1-1A8,8,0,0,1,9,13.75a14.92,14.92,0,0,1,2,.48,6.61,6.61,0,0,1,.94.39c.15.07.26.17.4.24l.17.14.08.06.07.07a1.8,1.8,0,0,1,.53.92,2.69,2.69,0,0,1,0,1.19,3.73,3.73,0,0,1-1.25,2,1.61,1.61,0,0,1-.82.36l-.1,0h-.29a2.92,2.92,0,0,1-.35-.1l-.28-.12-.19-.13-.17-.11.08.18.12.23.21.28a2.83,2.83,0,0,0,.35.3l.24.14.13.06.15.05a2.47,2.47,0,0,0,1.43,0A4.6,4.6,0,0,0,15.17,18a4.32,4.32,0,0,0,.46-2.29,3.88,3.88,0,0,0-.36-1.31l-.15-.31-.2-.29a3.73,3.73,0,0,0-.45-.52l-.17-.16L14.12,13l-.36-.26a6.37,6.37,0,0,0-.73-.38A7,7,0,0,0,11.59,12l-.68-.09-.65,0a4.26,4.26,0,0,0-.62,0l-.58,0c-.2,0-.4.06-.59.09L8.2,12l-.27.08-.51.14L7,12.44a6,6,0,0,0-1.37.83,6.62,6.62,0,0,0-1.49.57,7,7,0,0,0-1.72,1.27A8,8,0,0,0,0,20a6.6,6.6,0,0,0,.18,2.26,5.52,5.52,0,0,0,.16.54c.08.17.15.34.22.51a5.54,5.54,0,0,0,.56.91,5,5,0,0,0,.7.75c.12.11.26.2.39.3a2.59,2.59,0,0,0,.39.25,4.46,4.46,0,0,0,.78.35l.38.13.36.07a6,6,0,0,0,1.27.11,8.84,8.84,0,0,0,.93-.1C6.84,26,7.1,25.92,7.1,25.92Z"/><path d="M106.61,22.21l.33.13a5.74,5.74,0,0,0,1,.3,4.06,4.06,0,0,0,.76.09,2.47,2.47,0,0,0,1-.18,1.72,1.72,0,0,0,.89-.94,2.71,2.71,0,0,0,.11-1.38,5.38,5.38,0,0,0-1.23-2.6,6.06,6.06,0,0,0-1.23-1.12,4.2,4.2,0,0,0-1.83-.67,3.23,3.23,0,0,0-1.11.07,3.31,3.31,0,0,0-1.06.44,4.18,4.18,0,0,0-.85.7,4.84,4.84,0,0,0-.64.81,9.4,9.4,0,0,0-.48.87,7.17,7.17,0,0,0-.36.91c-.06.16-.11.32-.16.49s-.07.34-.11.51l0,.26,0,.26c0,.18,0,.36,0,.55a5.44,5.44,0,0,0,.72,2.86,6.29,6.29,0,0,0,1.83,2,9.06,9.06,0,0,0,4.31,1.59,10.31,10.31,0,0,0,3.71-.24,7.83,7.83,0,0,0,2.56-1.14,5.39,5.39,0,0,0,1.15-.58l.31-.21.3-.24c.21-.17.38-.36.58-.55A8.84,8.84,0,0,0,118,23.8a6.18,6.18,0,0,0,.77-2,5.6,5.6,0,0,0-.09-2.4,7.41,7.41,0,0,0-1-2.24,15.37,15.37,0,0,0-3.46-3.51,50.12,50.12,0,0,0-5.66-3.61c-1.77-1-3.35-1.86-4.63-2.67a18,18,0,0,1-2.86-2.13,7.38,7.38,0,0,1-.67-.72l-.22-.27.12.33a7,7,0,0,0,.46.9,14.09,14.09,0,0,0,2.39,2.88,40.83,40.83,0,0,0,4.25,3.47c1.64,1.21,3.49,2.45,5.28,3.82a18.55,18.55,0,0,1,3.11,2.87A4.6,4.6,0,0,1,117,21.61a6,6,0,0,1-1,2.85c-.14.2-.26.41-.4.57a2.48,2.48,0,0,1-.19.26l-.21.23a5.27,5.27,0,0,1-.87.74,8.14,8.14,0,0,1-2.46.47,10.84,10.84,0,0,1-3.19-.37,11,11,0,0,1-1.68-.62,7.28,7.28,0,0,1-1.53-1,4.47,4.47,0,0,1-1.08-1.35,3.28,3.28,0,0,1-.37-1.65c0-.1,0-.22,0-.33v-.16l0-.17.06-.34.1-.33a6.13,6.13,0,0,1,.24-.68c.09-.22.19-.42.29-.61a2.78,2.78,0,0,1,.7-.87,1.25,1.25,0,0,1,.78-.29,3,3,0,0,1,1.93.85,4.45,4.45,0,0,1,1.25,1.7,1.7,1.7,0,0,1,.13.79.75.75,0,0,1-.3.54,1.64,1.64,0,0,1-.64.3,4.18,4.18,0,0,1-.67.1c-.42,0-.75,0-1,0Z"/></g></g></svg>