<svg xmlns="http://www.w3.org/2000/svg" xmlns:xlink="http://www.w3.org/1999/xlink" viewBox="0 0 70 30"><defs><style>.cls-1{fill:none;}.cls-2{fill:#fff;}.cls-3{fill:#b41c2a;}.cls-4{clip-path:url(#clip-path);}</style><clipPath id="clip-path"><rect class="cls-1" x="-24.35" y="219.9" width="65.7" height="36.75"/></clipPath></defs><title>pattern_motif_rounded</title><g id="Layer_5" data-name="Layer 5"><path class="cls-2" d="M70-30C49.7-30,33.25-13,33.25,6.75h73.5C106.75-13,90.3-30,70-30Z"/><path class="cls-3" d="M70-28.55A35.63,35.63,0,0,0,34.7,6.75h4.35a31,31,0,0,1,61.9,0h4.35A35.63,35.63,0,0,0,70-28.55Z"/><path class="cls-3" d="M70-22.64A29.54,29.54,0,0,0,40.61,6.75h3.92a25.47,25.47,0,0,1,50.94,0h3.92A29.54,29.54,0,0,0,70-22.64Z"/><path class="cls-3" d="M70-17A23.85,23.85,0,0,0,46.23,6.75h3.39a20.38,20.38,0,1,1,40.76,0h3.39A23.85,23.85,0,0,0,70-17Z"/><path class="cls-3" d="M70-11.88A18.82,18.82,0,0,0,51.37,6.75h3.37a15.26,15.26,0,0,1,30.52,0h3.37A18.82,18.82,0,0,0,70-11.88Z"/><path class="cls-3" d="M70-6.65A13.66,13.66,0,0,0,56.6,6.75h3.6a9.8,9.8,0,0,1,19.6,0h3.6A13.66,13.66,0,0,0,70-6.65Z"/><path class="cls-2" d="M0-30C-20.3-30-36.75-13-36.75,6.75h73.5C36.75-13,20.3-30,0-30Z"/><path class="cls-3" d="M0-28.55A35.63,35.63,0,0,0-35.3,6.75h4.35A31,31,0,0,1,0-24.2a31,31,0,0,1,31,31H35.3A35.63,35.63,0,0,0,0-28.55Z"/><path class="cls-3" d="M0-22.64A29.54,29.54,0,0,0-29.39,6.75h3.92A25.51,25.51,0,0,1,0-18.72,25.51,25.51,0,0,1,25.47,6.75h3.92A29.54,29.54,0,0,0,0-22.64Z"/><path class="cls-3" d="M0-17A23.85,23.85,0,0,0-23.77,6.75h3.39A20.54,20.54,0,0,1,0-13.63,20.54,20.54,0,0,1,20.38,6.75h3.39A23.85,23.85,0,0,0,0-17Z"/><path class="cls-3" d="M0-11.88A18.82,18.82,0,0,0-18.63,6.75h3.37A15.54,15.54,0,0,1,0-8.51,15.54,15.54,0,0,1,15.26,6.75h3.37A18.82,18.82,0,0,0,0-11.88Z"/><path class="cls-3" d="M0-6.65A13.66,13.66,0,0,0-13.4,6.75h3.6A10.08,10.08,0,0,1,0-3a10.08,10.08,0,0,1,9.8,9.8h3.6A13.66,13.66,0,0,0,0-6.65Z"/><path class="cls-2" d="M105-15C84.7-15,68.25,2,68.25,21.75h73.5C141.75,2,125.3-15,105-15Z"/><path class="cls-3" d="M105-13.55a35.63,35.63,0,0,0-35.3,35.3h4.35a30.95,30.95,0,1,1,61.9,0h4.35A35.63,35.63,0,0,0,105-13.55Z"/><path class="cls-2" d="M35-15C14.7-15-1.75,2-1.75,21.75h73.5C71.75,2,55.3-15,35-15Z"/><path class="cls-3" d="M35-13.55A35.63,35.63,0,0,0-.3,21.75H4.05a31,31,0,0,1,61.9,0H70.3A35.63,35.63,0,0,0,35-13.55Z"/><path class="cls-3" d="M35-7.64A29.54,29.54,0,0,0,5.61,21.75H9.53a25.47,25.47,0,0,1,50.94,0h3.92A29.54,29.54,0,0,0,35-7.64Z"/><path class="cls-3" d="M35-2A23.85,23.85,0,0,0,11.23,21.75h3.39a20.38,20.38,0,0,1,40.76,0h3.39A23.85,23.85,0,0,0,35-2Z"/><path class="cls-3" d="M35,3.12A18.82,18.82,0,0,0,16.37,21.75h3.37A15.54,15.54,0,0,1,35,6.49,15.54,15.54,0,0,1,50.26,21.75h3.37A18.82,18.82,0,0,0,35,3.12Z"/><path class="cls-3" d="M35,8.35a13.66,13.66,0,0,0-13.4,13.4h3.6A10.08,10.08,0,0,1,35,12a10.08,10.08,0,0,1,9.8,9.8h3.6A13.66,13.66,0,0,0,35,8.35Z"/><path class="cls-2" d="M-35-15C-55.3-15-71.75,2-71.75,21.75H1.75C1.75,2-14.7-15-35-15Z"/><path class="cls-3" d="M-35-13.55a35.63,35.63,0,0,0-35.3,35.3h4.35A31,31,0,0,1-35-9.2a31,31,0,0,1,31,31H.3A35.63,35.63,0,0,0-35-13.55Z"/><path class="cls-2" d="M70,0C49.7,0,33.25,17,33.25,36.75h73.5C106.75,17,90.3,0,70,0Z"/><path class="cls-3" d="M70,1.45a35.63,35.63,0,0,0-35.3,35.3h4.35a31,31,0,0,1,61.9,0h4.35A35.63,35.63,0,0,0,70,1.45Z"/><path class="cls-3" d="M70,7.36A29.54,29.54,0,0,0,40.61,36.75h3.92a25.47,25.47,0,0,1,50.94,0h3.92A29.54,29.54,0,0,0,70,7.36Z"/><path class="cls-3" d="M70,13A23.85,23.85,0,0,0,46.23,36.75h3.39a20.38,20.38,0,1,1,40.76,0h3.39A23.85,23.85,0,0,0,70,13Z"/><path class="cls-3" d="M70,18.12A18.82,18.82,0,0,0,51.37,36.75h3.37a15.26,15.26,0,0,1,30.52,0h3.37A18.82,18.82,0,0,0,70,18.12Z"/><path class="cls-3" d="M70,23.35a13.66,13.66,0,0,0-13.4,13.4h3.6a9.8,9.8,0,0,1,19.6,0h3.6A13.66,13.66,0,0,0,70,23.35Z"/><path class="cls-2" d="M0,0C-20.3,0-36.75,17-36.75,36.75h73.5C36.75,17,20.3,0,0,0Z"/><path class="cls-3" d="M0,1.45a35.63,35.63,0,0,0-35.3,35.3h4.35A31,31,0,0,1,0,5.8a31,31,0,0,1,31,31H35.3A35.63,35.63,0,0,0,0,1.45Z"/><path class="cls-3" d="M0,7.36A29.54,29.54,0,0,0-29.39,36.75h3.92A25.51,25.51,0,0,1,0,11.28,25.51,25.51,0,0,1,25.47,36.75h3.92A29.54,29.54,0,0,0,0,7.36Z"/><path class="cls-3" d="M0,13A23.85,23.85,0,0,0-23.77,36.75h3.39A20.54,20.54,0,0,1,0,16.37,20.54,20.54,0,0,1,20.38,36.75h3.39A23.85,23.85,0,0,0,0,13Z"/><path class="cls-3" d="M0,18.12A18.82,18.82,0,0,0-18.63,36.75h3.37A15.54,15.54,0,0,1,0,21.49,15.54,15.54,0,0,1,15.26,36.75h3.37A18.82,18.82,0,0,0,0,18.12Z"/><path class="cls-3" d="M0,23.35a13.66,13.66,0,0,0-13.4,13.4h3.6A10.08,10.08,0,0,1,0,27a10.08,10.08,0,0,1,9.8,9.8h3.6A13.66,13.66,0,0,0,0,23.35Z"/><path class="cls-2" d="M105,15C84.7,15,68.25,32,68.25,51.75h73.5C141.75,32,125.3,15,105,15Z"/><path class="cls-3" d="M105,16.45a35.63,35.63,0,0,0-35.3,35.3h4.35a30.95,30.95,0,1,1,61.9,0h4.35A35.63,35.63,0,0,0,105,16.45Z"/><path class="cls-2" d="M35,15C14.7,15-1.75,32-1.75,51.75h73.5C71.75,32,55.3,15,35,15Z"/><path class="cls-3" d="M35,16.45A35.63,35.63,0,0,0-.3,51.75H4.05a31,31,0,0,1,61.9,0H70.3A35.63,35.63,0,0,0,35,16.45Z"/><path class="cls-3" d="M35,22.36A29.54,29.54,0,0,0,5.61,51.75H9.53a25.47,25.47,0,0,1,50.94,0h3.92A29.54,29.54,0,0,0,35,22.36Z"/><path class="cls-3" d="M35,28A23.85,23.85,0,0,0,11.23,51.75h3.39a20.38,20.38,0,0,1,40.76,0h3.39A23.85,23.85,0,0,0,35,28Z"/><path class="cls-2" d="M-35,15c-20.3,0-36.75,17-36.75,36.75H1.75C1.75,32-14.7,15-35,15Z"/><path class="cls-3" d="M-35,16.45a35.63,35.63,0,0,0-35.3,35.3h4.35A31,31,0,0,1-35,20.8a31,31,0,0,1,31,31H.3A35.63,35.63,0,0,0-35,16.45Z"/><g class="cls-4"><rect class="cls-1" x="-948.31" y="-607.44" width="2838.5" height="1551.75"/><path class="cls-2" d="M68.44-22.44c-20.3,0-36.75,17-36.75,36.75h73.5C105.19-5.47,88.73-22.44,68.44-22.44Z"/><path class="cls-3" d="M68.44-21a35.62,35.62,0,0,0-35.3,35.3h4.35a30.95,30.95,0,1,1,61.89,0h4.35A35.62,35.62,0,0,0,68.44-21Z"/><path class="cls-3" d="M68.44-15.08A29.54,29.54,0,0,0,39.05,14.31H43a25.48,25.48,0,0,1,50.95,0h3.91A29.53,29.53,0,0,0,68.44-15.08Z"/><path class="cls-3" d="M68.44-9.46A23.85,23.85,0,0,0,44.67,14.31h3.39a20.38,20.38,0,1,1,40.75,0h3.4A23.86,23.86,0,0,0,68.44-9.46Z"/><path class="cls-3" d="M68.44-4.33A18.83,18.83,0,0,0,49.8,14.31h3.38a15.26,15.26,0,1,1,30.51,0h3.38A18.83,18.83,0,0,0,68.44-4.33Z"/><path class="cls-3" d="M68.44.91A13.66,13.66,0,0,0,55,14.31h3.6a9.8,9.8,0,1,1,19.59,0h3.6A13.66,13.66,0,0,0,68.44.91Z"/><path class="cls-2" d="M-1.56-22.44c-20.3,0-36.75,17-36.75,36.75h73.5C35.19-5.47,18.73-22.44-1.56-22.44Z"/><path class="cls-3" d="M-1.56-21a35.62,35.62,0,0,0-35.3,35.3h4.35a31,31,0,0,1,31-30.95,31,31,0,0,1,30.94,31h4.35A35.62,35.62,0,0,0-1.56-21Z"/><path class="cls-3" d="M-1.56-15.08A29.54,29.54,0,0,0-30.95,14.31H-27A25.52,25.52,0,0,1-1.56-11.16,25.52,25.52,0,0,1,23.91,14.31h3.91A29.53,29.53,0,0,0-1.56-15.08Z"/><path class="cls-3" d="M-1.56-9.46A23.85,23.85,0,0,0-25.33,14.31h3.39A20.54,20.54,0,0,1-1.56-6.07,20.54,20.54,0,0,1,18.81,14.31h3.4A23.86,23.86,0,0,0-1.56-9.46Z"/><path class="cls-3" d="M-1.56-4.33A18.83,18.83,0,0,0-20.2,14.31h3.38A15.54,15.54,0,0,1-1.56-.95,15.54,15.54,0,0,1,13.69,14.31h3.38A18.83,18.83,0,0,0-1.56-4.33Z"/><path class="cls-3" d="M-1.56.91A13.66,13.66,0,0,0-15,14.31h3.6a10.08,10.08,0,0,1,9.8-9.8,10.07,10.07,0,0,1,9.79,9.8h3.6A13.66,13.66,0,0,0-1.56.91Z"/><path class="cls-2" d="M103.44-7.44c-20.3,0-36.75,17-36.75,36.75h73.5C140.19,9.53,123.73-7.44,103.44-7.44Z"/><path class="cls-3" d="M103.44-6a35.62,35.62,0,0,0-35.3,35.3h4.35a30.95,30.95,0,1,1,61.89,0h4.35A35.62,35.62,0,0,0,103.44-6Z"/><path class="cls-2" d="M33.44-7.44c-20.3,0-36.75,17-36.75,36.75h73.5C70.19,9.53,53.73-7.44,33.44-7.44Z"/><path class="cls-3" d="M33.44-6a35.62,35.62,0,0,0-35.3,35.3H2.49a30.95,30.95,0,1,1,61.89,0h4.35A35.62,35.62,0,0,0,33.44-6Z"/><path class="cls-3" d="M33.44-.08A29.54,29.54,0,0,0,4.05,29.31H8a25.48,25.48,0,0,1,50.95,0h3.91A29.53,29.53,0,0,0,33.44-.08Z"/><path class="cls-3" d="M33.44,5.54A23.85,23.85,0,0,0,9.67,29.31h3.39a20.38,20.38,0,1,1,40.75,0h3.4A23.86,23.86,0,0,0,33.44,5.54Z"/><path class="cls-3" d="M33.44,10.67A18.83,18.83,0,0,0,14.8,29.31h3.38A15.54,15.54,0,0,1,33.44,14.05,15.54,15.54,0,0,1,48.69,29.31h3.38A18.83,18.83,0,0,0,33.44,10.67Z"/><path class="cls-3" d="M33.44,15.91A13.66,13.66,0,0,0,20,29.31h3.6a10.08,10.08,0,0,1,9.8-9.8,10.07,10.07,0,0,1,9.79,9.8h3.6A13.66,13.66,0,0,0,33.44,15.91Z"/><path class="cls-2" d="M-36.56-7.44c-20.3,0-36.75,17-36.75,36.75H.19C.19,9.53-16.27-7.44-36.56-7.44Z"/><path class="cls-2" d="M68.44,7.56c-20.3,0-36.75,17-36.75,36.75h73.5C105.19,24.53,88.73,7.56,68.44,7.56Z"/><path class="cls-3" d="M68.44,9a35.62,35.62,0,0,0-35.3,35.3h4.35a30.95,30.95,0,1,1,61.89,0h4.35A35.62,35.62,0,0,0,68.44,9Z"/><path class="cls-3" d="M68.44,14.92A29.54,29.54,0,0,0,39.05,44.31H43a25.48,25.48,0,0,1,50.95,0h3.91A29.53,29.53,0,0,0,68.44,14.92Z"/><path class="cls-3" d="M68.44,20.54A23.85,23.85,0,0,0,44.67,44.31h3.39a20.38,20.38,0,1,1,40.75,0h3.4A23.86,23.86,0,0,0,68.44,20.54Z"/><path class="cls-3" d="M68.44,25.67A18.83,18.83,0,0,0,49.8,44.31h3.38a15.26,15.26,0,1,1,30.51,0h3.38A18.83,18.83,0,0,0,68.44,25.67Z"/><path class="cls-2" d="M-1.56,7.56c-20.3,0-36.75,17-36.75,36.75h73.5C35.19,24.53,18.73,7.56-1.56,7.56Z"/><path class="cls-3" d="M-1.56,9a35.62,35.62,0,0,0-35.3,35.3h4.35a31,31,0,0,1,31-30.95,31,31,0,0,1,30.94,31h4.35A35.62,35.62,0,0,0-1.56,9Z"/><path class="cls-3" d="M-1.56,14.92A29.54,29.54,0,0,0-30.95,44.31H-27A25.52,25.52,0,0,1-1.56,18.84,25.52,25.52,0,0,1,23.91,44.31h3.91A29.53,29.53,0,0,0-1.56,14.92Z"/><path class="cls-3" d="M-1.56,20.54A23.85,23.85,0,0,0-25.33,44.31h3.39A20.54,20.54,0,0,1-1.56,23.93,20.54,20.54,0,0,1,18.81,44.31h3.4A23.86,23.86,0,0,0-1.56,20.54Z"/><path class="cls-3" d="M-1.56,25.67A18.83,18.83,0,0,0-20.2,44.31h3.38A15.54,15.54,0,0,1-1.56,29.05,15.54,15.54,0,0,1,13.69,44.31h3.38A18.83,18.83,0,0,0-1.56,25.67Z"/><path class="cls-2" d="M103.44,22.56c-20.3,0-36.75,17-36.75,36.75h73.5C140.19,39.53,123.73,22.56,103.44,22.56Z"/><path class="cls-3" d="M103.44,24a35.62,35.62,0,0,0-35.3,35.3h4.35a30.95,30.95,0,1,1,61.89,0h4.35A35.62,35.62,0,0,0,103.44,24Z"/><path class="cls-2" d="M33.44,22.56c-20.3,0-36.75,17-36.75,36.75h73.5C70.19,39.53,53.73,22.56,33.44,22.56Z"/><path class="cls-3" d="M33.44,24a35.62,35.62,0,0,0-35.3,35.3H2.49a30.95,30.95,0,1,1,61.89,0h4.35A35.62,35.62,0,0,0,33.44,24Z"/><path class="cls-3" d="M33.44,29.92A29.54,29.54,0,0,0,4.05,59.31H8a25.48,25.48,0,0,1,50.95,0h3.91A29.53,29.53,0,0,0,33.44,29.92Z"/><path class="cls-2" d="M-36.56,22.56c-20.3,0-36.75,17-36.75,36.75H.19C.19,39.53-16.27,22.56-36.56,22.56Z"/></g></g></svg>