<svg xmlns="http://www.w3.org/2000/svg" xmlns:xlink="http://www.w3.org/1999/xlink" viewBox="0 0 50 50"><defs><style>.cls-1,.cls-2{fill:none;}.cls-2{stroke:#f7d237;stroke-miterlimit:10;}.cls-3{fill:url(#New_Pattern_2);}</style><pattern id="New_Pattern_2" data-name="New Pattern 2" width="50" height="50" patternUnits="userSpaceOnUse" viewBox="0 0 50 50"><rect class="cls-1" width="50" height="50"/><path class="cls-2" d="M69.34,104.7l-24-24a8,8,0,0,1,0-11.32l24-24a8,8,0,0,1,11.32,0l24,24a8,8,0,0,1,0,11.32l-24,24A8,8,0,0,1,69.34,104.7Z"/><path class="cls-2" d="M19.34,104.7l-24-24a8,8,0,0,1,0-11.32l24-24a8,8,0,0,1,11.32,0l24,24a8,8,0,0,1,0,11.32l-24,24A8,8,0,0,1,19.34,104.7Z"/><path class="cls-2" d="M-30.66,104.7l-24-24a8,8,0,0,1,0-11.32l24-24a8,8,0,0,1,11.32,0l24,24a8,8,0,0,1,0,11.32l-24,24A8,8,0,0,1-30.66,104.7Z"/><path class="cls-2" d="M69.34,54.7l-24-24a8,8,0,0,1,0-11.32l24-24a8,8,0,0,1,11.32,0l24,24a8,8,0,0,1,0,11.32l-24,24A8,8,0,0,1,69.34,54.7Z"/><path class="cls-2" d="M19.34,54.7l-24-24a8,8,0,0,1,0-11.32l24-24a8,8,0,0,1,11.32,0l24,24a8,8,0,0,1,0,11.32l-24,24A8,8,0,0,1,19.34,54.7Z"/><path class="cls-2" d="M-30.66,54.7l-24-24a8,8,0,0,1,0-11.32l24-24a8,8,0,0,1,11.32,0l24,24a8,8,0,0,1,0,11.32l-24,24A8,8,0,0,1-30.66,54.7Z"/><path class="cls-2" d="M69.34,4.7l-24-24a8,8,0,0,1,0-11.32l24-24a8,8,0,0,1,11.32,0l24,24a8,8,0,0,1,0,11.32l-24,24A8,8,0,0,1,69.34,4.7Z"/><path class="cls-2" d="M19.34,4.7l-24-24a8,8,0,0,1,0-11.32l24-24a8,8,0,0,1,11.32,0l24,24a8,8,0,0,1,0,11.32l-24,24A8,8,0,0,1,19.34,4.7Z"/><path class="cls-2" d="M-30.66,4.7l-24-24a8,8,0,0,1,0-11.32l24-24a8,8,0,0,1,11.32,0l24,24a8,8,0,0,1,0,11.32l-24,24A8,8,0,0,1-30.66,4.7Z"/></pattern></defs><title>pattern-motif</title><g id="Layer_2" data-name="Layer 2"><g id="Layer_2-2" data-name="Layer 2"><rect class="cls-3" width="50" height="50"/></g></g></svg>