<svg xmlns="http://www.w3.org/2000/svg" viewBox="0 0 141.11 180.97"><title>pig-icon-02</title><g id="Objects_path-filder"><path d="M62.16,116.41a5.19,5.19,0,1,0,0,10.38h0a5.19,5.19,0,0,0,0-10.38Z"/><path d="M82.77,116.41a5.19,5.19,0,0,0-.58,10.34h0a3.56,3.56,0,0,0,.57,0,5.19,5.19,0,0,0,0-10.38Z"/><path d="M136.34,28.89s-22.9-1-38.24,10a16.11,16.11,0,0,1,0,11.77c-2.22,5.71-9.74,15.61-35,17.7C32.26,70.94,21.79,91,21.69,91.18a1.49,1.49,0,0,1-1.34.83,1.43,1.43,0,0,1-.29,0,1.51,1.51,0,0,1-1.21-1.36,77.54,77.54,0,0,1,3-25.35,53.07,53.07,0,0,1,6.27-13.68c-.38.32-.75.65-1.11,1l-.52.47c-.18.15-.35.31-.52.48l-1.13,1.07c-.29.29-.58.57-.87.88l-.25.24-.08.09c-.3.3-.59.6-.87.91-.47.5-.93,1-1.38,1.52l0,0-.72.83,0,0-.54.65-.06.07c-.26.32-.52.63-.77,1l-.48.62c-.21.27-.43.54-.63.82s-.41.55-.61.83c-.06.07-.11.15-.16.22-.27.36-.53.72-.78,1.09l0,.06c-.29.42-.58.84-.86,1.27l-.21.33c-.1.14-.19.29-.29.44s-.2.32-.29.48c-.25.39-.49.78-.73,1.18-.34.57-.68,1.15-1,1.73-3-7.1-4.88-17.47-1.56-31.46h.24l.29,0,.39,0,.6,0,.94.09.38,0,1.27.15h.1l1.37.2.8.13,1.53.27.28.06,1,.2c.88.19,1.8.4,2.75.65l1.38.38,1,.29,1,.31,1.49.51c.5.18,1,.37,1.51.57h0l.76.31.76.32,1.52.69,1,.5A54.67,54.67,0,0,1,41.2,37.7C25.94,28,4.77,28.89,4.77,28.89-3.09,57,5.83,76.21,8.33,80.8a66.74,66.74,0,0,0,4.22,52.78L19.07,181H31l1.9-5.58L35.28,181H47.67l1.07-15.93a67,67,0,0,0,45.54,0L95.34,181h12.4l2.39-5.58L112,181h11.91l6.53-47.4a66.85,66.85,0,0,0,3.42-55C137.15,71.56,143.27,53.7,136.34,28.89ZM40,96.08H49.6c.33,2.64-1.17,5.47-4.59,5.47A5,5,0,0,1,40,96.08Zm31.48,43.4c-23.18,0-29.51-7.38-27.4-17.92a28,28,0,0,1,54.8,0C101,132.1,94.69,139.48,71.51,139.48Zm26.85-37.93a5,5,0,0,1-5-5.47H103C103.27,98.72,101.78,101.55,98.36,101.55ZM128.7,67.9a67,67,0,0,0-23-22.92c11.23-6.23,23.81-6.56,23.81-6.56C132.52,51.16,131.21,60.9,128.7,67.9Z"/><path d="M40.55,42l0,0-.12.1-.13.11-.67.59-.78.7-.89.83-.85.85c-.28.28-.55.56-.82.85s-.43.45-.63.68l-.06.06c-.35.38-.69.77-1,1.15l-.58.69c-.45.55-.88,1.09-1.29,1.64-.29.38-.56.76-.83,1.14s-.53.76-.78,1.14-.48.73-.71,1.09c-.54.86-1.05,1.73-1.52,2.58-.16.29-.31.58-.46.87l-.49.95c-.2.41-.4.83-.59,1.24-.1.22-.2.43-.29.64-.22.49-.43,1-.62,1.46s-.34.85-.5,1.27c-.22.57-.41,1.13-.6,1.68s-.38,1.18-.55,1.75a76.22,76.22,0,0,0-3,19.5c5-6.46,17.18-18.25,41-20.21C80.09,64,91.92,58.22,95.28,49.61a13.4,13.4,0,0,0,.92-4.88v-.25a.76.76,0,0,0,0-.15,2.44,2.44,0,0,0,0-.27c0-.28,0-.55-.07-.82v0s0-.06,0-.09,0,0,0-.06L96,42.5c0-.24-.09-.49-.15-.73s-.09-.39-.15-.58,0-.16-.07-.24,0,0,0-.06l-.12-.37c-.06-.2-.14-.39-.21-.58h0c-.07-.18-.15-.36-.23-.54-.16-.35-.33-.7-.52-1-.09-.17-.19-.33-.3-.5l-.32-.49a3.43,3.43,0,0,0-.24-.33l-.34-.45c-.19-.23-.38-.45-.58-.67-2-2.19-7.91-7.29-18.86-7.29-7.85,0-16.42,2.66-25.47,7.91-1.23.71-2.4,1.45-3.51,2.21l-1.1.77c-.72.52-1.42,1-2.1,1.58l-.66.53Z"/><path d="M67.35,121.6a5.19,5.19,0,0,1-5.17,5.19h0a5.19,5.19,0,1,1,5.19-5.19Z"/><path d="M88,121.6a5.18,5.18,0,0,1-5.18,5.19,3.69,3.69,0,0,1-.58,0A5.19,5.19,0,1,1,88,121.6Z"/></g></svg>