<svg xmlns="http://www.w3.org/2000/svg" viewBox="0 0 141.11 180.97"><title>pig-icon-09</title><g id="Objects_path-filder"><path d="M136.34,28.4s-24.8-1.07-40.07,11.44a66.74,66.74,0,0,0-50.82.52C30.24,27.3,4.77,28.4,4.77,28.4-3.09,56.53,5.83,75.73,8.33,80.32c0,.11-.08.23-.11.34L23.29,84.1c6.87-3.7,22.65-10.3,38.64-3.64a18.5,18.5,0,0,1,19.74.38c15.82-6.69,31.15-.46,38,3.19l14.77-4.45c-.17-.5-.35-1-.54-1.49C137.14,71.07,143.27,53.21,136.34,28.4ZM13.17,69.4c-3-7.1-4.88-17.47-1.56-31.47,0,0,13.33.36,24.79,7.13A67.11,67.11,0,0,0,13.17,69.4Zm115.53-2a67.12,67.12,0,0,0-23-22.92c11.23-6.22,23.8-6.56,23.8-6.56C132.52,50.68,131.21,60.41,128.7,67.41ZM62.16,115.93a5.19,5.19,0,1,0,5.19,5.19A5.19,5.19,0,0,0,62.16,115.93Zm20.6,0A5.19,5.19,0,1,0,88,121.12,5.19,5.19,0,0,0,82.76,115.93Zm52.89-32.54L123.1,87.17c-2.55,8.45-10.66,29.42-27.3,24.81-.24-.07-.48-.14-.72-.23a26.6,26.6,0,0,1,3.82,9.33C101,131.62,94.69,139,71.51,139S42,131.62,44.11,121.08a26.78,26.78,0,0,1,3.8-9.28l-.62.18c-16.45,4.55-24.57-15.87-27.21-24.51l-13-3A66.74,66.74,0,0,0,12.49,133l6.58,48H31l1.9-5.58L35.28,181H47.67l1.09-16.4a67.14,67.14,0,0,0,45.49,0L95.34,181h12.4l2.39-5.58L112,181h11.91l6.58-48a66.82,66.82,0,0,0,5.13-49.6Zm-33.86,62.14c-5.06,3.76-11.08,1.54-11.08,1.54,10.08-.54,7.93-13.31,12.67-11.33C107.38,137.4,105.66,142.65,101.79,145.53Zm-19-29.6A5.19,5.19,0,1,0,88,121.12,5.19,5.19,0,0,0,82.76,115.93Zm-20.6,0a5.19,5.19,0,1,0,5.19,5.19A5.19,5.19,0,0,0,62.16,115.93Zm20.6,0A5.19,5.19,0,1,0,88,121.12,5.19,5.19,0,0,0,82.76,115.93ZM79.49,84.19a14.24,14.24,0,0,0-15.3-.4c-.23,3.71-1.12,11.34-4.63,17.83a28,28,0,0,1,24.16.13C80.37,95.38,79.64,87.9,79.49,84.19ZM62.16,115.93a5.19,5.19,0,1,0,5.19,5.19A5.19,5.19,0,0,0,62.16,115.93Z"/><circle cx="62.16" cy="121.12" r="5.19"/><circle cx="82.76" cy="121.12" r="5.19"/></g></svg>