<svg xmlns="http://www.w3.org/2000/svg" viewBox="0 0 141.11 180.97"><defs><style>.cls-1{fill:#fff;}</style></defs><title>pig-icon-01</title><g id="Objects_path-filder"><path d="M63.35,116.8a4.53,4.53,0,1,0,4.53,4.53A4.53,4.53,0,0,0,63.35,116.8Zm18,0a4.53,4.53,0,1,0,4.52,4.53A4.53,4.53,0,0,0,81.33,116.8Zm0,0a4.53,4.53,0,1,0,4.52,4.53A4.53,4.53,0,0,0,81.33,116.8Zm-18,0a4.53,4.53,0,1,0,4.53,4.53A4.53,4.53,0,0,0,63.35,116.8Zm0,0a4.53,4.53,0,1,0,4.53,4.53A4.53,4.53,0,0,0,63.35,116.8Zm18,0a4.53,4.53,0,1,0,4.52,4.53A4.53,4.53,0,0,0,81.33,116.8Zm0,0a4.53,4.53,0,1,0,4.52,4.53A4.53,4.53,0,0,0,81.33,116.8Zm-18,0a4.53,4.53,0,1,0,4.53,4.53A4.53,4.53,0,0,0,63.35,116.8Zm73-87.91s-24.79-1.07-40.06,11.44a66.83,66.83,0,0,0-50.83.51c-15.21-13.05-40.68-12-40.68-12C-3.09,57,5.83,76.21,8.33,80.8a66.74,66.74,0,0,0,4.22,52.78L19.07,181H31l1.9-5.58L35.28,181h12.4l1.06-15.93a67,67,0,0,0,45.54,0L95.34,181h12.4l2.39-5.58L112,181h11.91l6.53-47.4a66.74,66.74,0,0,0,3.42-55C137.15,71.56,143.27,53.7,136.34,28.89Zm-123.17,41c-3-7.1-4.87-17.47-1.56-31.46,0,0,13.33.35,24.8,7.12A67.05,67.05,0,0,0,13.17,69.88ZM45.44,89.43a6,6,0,0,0-4,4.89,6,6,0,0,1-1.56-2.38,6.44,6.44,0,0,1-.35-1.82l-.32,0h-.73l-.74-.09a7.32,7.32,0,0,1-1.41-.38c-.43-.19-.83-.43-1.21-.64l-1-.76c-.28-.27-.52-.55-.75-.8a4,4,0,0,1-.58-.7l-.4-.57-.32-.46c.05,0,.2.17.42.38l.5.46a4.5,4.5,0,0,0,.69.55c.27.18.54.39.85.57l1,.49c.37.11.74.23,1.12.31a5.57,5.57,0,0,0,1.15,0l.57,0L39,88.4a4.54,4.54,0,0,0,.89-.34,6,6,0,0,1,11.75,2.67A6.06,6.06,0,0,0,45.44,89.43Zm26.07,61A17.48,17.48,0,0,1,58,144.17a38.35,38.35,0,0,0,7.22-.55c2.17-.59,4.15-2.12,6.33.35,2.18-2.47,4.16-.94,6.33-.35a38.35,38.35,0,0,0,7.22.55A17.48,17.48,0,0,1,71.51,150.4Zm0-13.48c-20.22,0-25.73-6.44-23.89-15.63a24.44,24.44,0,0,1,47.78,0C97.24,130.48,91.73,136.92,71.51,136.92Zm38.14-50.69-.4.57a3.9,3.9,0,0,1-.57.7c-.24.25-.47.53-.76.8l-1,.76c-.38.21-.78.45-1.21.64a7.22,7.22,0,0,1-1.4.38l-.74.09h-.74l-.32,0a5.81,5.81,0,0,1-.35,1.82,6,6,0,0,1-1.56,2.38,6,6,0,0,0-10.14-3.59,5.88,5.88,0,0,1,.29-2.83,6,6,0,0,1,11.46.16,4.8,4.8,0,0,0,.89.34l.54.13.57,0a5.54,5.54,0,0,0,1.15,0c.38-.08.75-.2,1.12-.31l1-.49c.31-.18.58-.39.85-.57a4.06,4.06,0,0,0,.69-.55l.5-.46c.22-.21.38-.34.43-.38Zm19-18.33a67,67,0,0,0-23-22.92c11.23-6.23,23.81-6.56,23.81-6.56C132.52,51.16,131.21,60.9,128.7,67.9ZM81.33,116.8a4.53,4.53,0,1,0,4.52,4.53A4.53,4.53,0,0,0,81.33,116.8Zm-18,0a4.53,4.53,0,1,0,4.53,4.53A4.53,4.53,0,0,0,63.35,116.8Zm0,0a4.53,4.53,0,1,0,4.53,4.53A4.53,4.53,0,0,0,63.35,116.8Zm18,0a4.53,4.53,0,1,0,4.52,4.53A4.53,4.53,0,0,0,81.33,116.8Zm0,0a4.53,4.53,0,1,0,4.52,4.53A4.53,4.53,0,0,0,81.33,116.8Zm-18,0a4.53,4.53,0,1,0,4.53,4.53A4.53,4.53,0,0,0,63.35,116.8Z"/><path class="cls-1" d="M67.88,121.33a4.53,4.53,0,1,1-4.53-4.53A4.52,4.52,0,0,1,67.88,121.33Z"/><path class="cls-1" d="M85.85,121.33a4.53,4.53,0,1,1-4.52-4.53A4.52,4.52,0,0,1,85.85,121.33Z"/><path d="M67.88,121.33a4.53,4.53,0,1,1-4.53-4.53A4.52,4.52,0,0,1,67.88,121.33Z"/><path d="M85.85,121.33a4.53,4.53,0,1,1-4.52-4.53A4.52,4.52,0,0,1,85.85,121.33Z"/></g></svg>