<svg xmlns="http://www.w3.org/2000/svg" viewBox="0 0 141.11 180.97"><defs><style>.cls-1{fill:#fff;}</style></defs><title>pig-icon-09</title><g id="Objects_path-filder"><path class="cls-1" d="M34.8,45.05C23.34,38.29,10,37.93,10,37.93c-3.32,14-1.42,24.37,1.56,31.46A67.11,67.11,0,0,1,34.8,45.05Z"/><path class="cls-1" d="M127.1,67.41c2.51-7,3.82-16.74.79-29.48,0,0-12.57.33-23.8,6.56A67.12,67.12,0,0,1,127.1,67.41Z"/><path d="M132.83,79.58c-.17-.5-.35-1-.54-1.49,3.25-7,9.38-24.88,2.45-49.69,0,0-24.8-1.07-40.07,11.44a66.74,66.74,0,0,0-50.82.52C28.64,27.3,3.17,28.4,3.17,28.4-4.69,56.53,4.23,75.73,6.73,80.32c0,.11-.08.23-.11.34-.43,1.26-.82,2.54-1.16,3.84A66.74,66.74,0,0,0,10.89,133l6.58,48H29.39l1.9-5.58L33.68,181H46.07l1.09-16.4a67.14,67.14,0,0,0,45.49,0L93.74,181h12.4l2.39-5.58,1.9,5.58h11.91l6.58-48a66.82,66.82,0,0,0,5.13-49.6C133.69,82.1,133.28,80.83,132.83,79.58Zm-4.94-41.65c3,12.75,1.72,22.48-.79,29.48a67.12,67.12,0,0,0-23-22.92C115.32,38.27,127.89,37.93,127.89,37.93ZM10,37.93s13.33.36,24.79,7.13A67.11,67.11,0,0,0,11.57,69.4C8.59,62.3,6.69,51.93,10,37.93Z"/><path class="cls-1" d="M97.3,121.08a28,28,0,0,0-54.79,0C40.4,131.61,46.72,139,69.91,139S99.41,131.61,97.3,121.08Z"/><path d="M65.75,121.11a5.19,5.19,0,1,1-5.19-5.19A5.19,5.19,0,0,1,65.75,121.11Z"/><path d="M86.35,121.11a5.19,5.19,0,1,1-5.19-5.19A5.19,5.19,0,0,1,86.35,121.11Z"/><path class="cls-1" d="M141,79.19a2,2,0,0,0-2.5-1.34L118.06,84c-6.84-3.64-22.17-9.87-38-3.18a18.48,18.48,0,0,0-19.74-.38c-16-6.66-31.77-.06-38.64,3.64L3.62,80a2,2,0,1,0-.89,3.9l15.75,3.6c2.64,8.64,10.76,29.06,27.21,24.51,14.15-3.92,16.51-21.83,16.9-28.2a14.28,14.28,0,0,1,15.3.4c.25,6.38,2.23,23.91,16.31,27.8,16.64,4.6,24.75-16.36,27.3-24.82l18.19-5.48A2,2,0,0,0,141,79.19Z"/><path class="cls-1" d="M89.11,147.07s6,2.22,11.08-1.55c3.87-2.87,5.59-8.12,1.59-9.79C97,133.76,99.19,146.52,89.11,147.07Z"/></g></svg>