<svg xmlns="http://www.w3.org/2000/svg" viewBox="0 0 141.11 180.97"><title>pig-icon-06</title><g id="Objects_path-filder"><path d="M62.16,110.67a5.19,5.19,0,1,0,5.19,5.19A5.19,5.19,0,0,0,62.16,110.67Zm20.61,0A5.19,5.19,0,1,0,88,115.86,5.19,5.19,0,0,0,82.77,110.67Zm0,0A5.19,5.19,0,1,0,88,115.86,5.19,5.19,0,0,0,82.77,110.67Zm-20.61,0a5.19,5.19,0,1,0,5.19,5.19A5.19,5.19,0,0,0,62.16,110.67Zm0,0a5.19,5.19,0,1,0,5.19,5.19A5.19,5.19,0,0,0,62.16,110.67Zm20.61,0A5.19,5.19,0,1,0,88,115.86,5.19,5.19,0,0,0,82.77,110.67Zm0,0A5.19,5.19,0,1,0,88,115.86,5.19,5.19,0,0,0,82.77,110.67Zm-20.61,0a5.19,5.19,0,1,0,5.19,5.19A5.19,5.19,0,0,0,62.16,110.67Zm0,0a5.19,5.19,0,1,0,5.19,5.19A5.19,5.19,0,0,0,62.16,110.67Zm20.61,0A5.19,5.19,0,1,0,88,115.86,5.19,5.19,0,0,0,82.77,110.67Zm0,0A5.19,5.19,0,1,0,88,115.86,5.19,5.19,0,0,0,82.77,110.67Zm-20.61,0a5.19,5.19,0,1,0,5.19,5.19A5.19,5.19,0,0,0,62.16,110.67Zm74.18-81.53s-24.79-1.07-40.06,11.44a66.89,66.89,0,0,0-50.83.52C30.24,28,4.77,29.14,4.77,29.14-3.09,57.27,5.83,76.47,8.33,81.06a66.73,66.73,0,0,0,4.25,52.83L19.07,181H31l1.9-5.58L35.28,181H47.67l1-15.67a67.21,67.21,0,0,0,45.57,0l1,15.67h12.4l2.39-5.58L112,181h11.91l6.5-47.09a66.73,66.73,0,0,0,3.45-55C137.15,71.82,143.27,54,136.34,29.14Zm-123.17,41c-3-7.1-4.88-17.47-1.56-31.46,0,0,13.33.35,24.8,7.12A67.05,67.05,0,0,0,13.17,70.14Zm34.34,17a4.64,4.64,0,1,1-4.64,4.64A4.64,4.64,0,0,1,47.51,87.13ZM72,152.07c-13,0-13.67-14-13.67-14s2.8.56,6.67,1v6.33H77.94v-6.08a23.66,23.66,0,0,0,6.74-1.58S85,152.07,72,152.07Zm-.5-18.34c-23.18,0-29.5-7.37-27.4-17.91a28,28,0,0,1,54.8,0C101,126.36,94.69,133.73,71.51,133.73Zm24-37.33a4.64,4.64,0,1,1,4.64-4.63A4.63,4.63,0,0,1,95.51,96.4ZM128.7,68.15a67.12,67.12,0,0,0-23-22.92c11.23-6.22,23.81-6.55,23.81-6.55C132.52,51.42,131.21,61.16,128.7,68.15ZM82.77,110.67A5.19,5.19,0,1,0,88,115.86,5.19,5.19,0,0,0,82.77,110.67Zm-20.61,0a5.19,5.19,0,1,0,5.19,5.19A5.19,5.19,0,0,0,62.16,110.67Zm0,0a5.19,5.19,0,1,0,5.19,5.19A5.19,5.19,0,0,0,62.16,110.67Zm20.61,0A5.19,5.19,0,1,0,88,115.86,5.19,5.19,0,0,0,82.77,110.67Zm0,0A5.19,5.19,0,1,0,88,115.86,5.19,5.19,0,0,0,82.77,110.67Zm-20.61,0a5.19,5.19,0,1,0,5.19,5.19A5.19,5.19,0,0,0,62.16,110.67Zm0,0a5.19,5.19,0,1,0,5.19,5.19A5.19,5.19,0,0,0,62.16,110.67Zm20.61,0A5.19,5.19,0,1,0,88,115.86,5.19,5.19,0,0,0,82.77,110.67Zm0,0A5.19,5.19,0,1,0,88,115.86,5.19,5.19,0,0,0,82.77,110.67Zm-20.61,0a5.19,5.19,0,1,0,5.19,5.19A5.19,5.19,0,0,0,62.16,110.67Z"/><circle cx="62.16" cy="115.86" r="5.19"/><circle cx="82.77" cy="115.86" r="5.19"/></g></svg>