<svg xmlns="http://www.w3.org/2000/svg" viewBox="0 0 141.11 180.97"><defs><style>.cls-1{fill:#fff;}.cls-2{fill:none;}</style></defs><title>pig-icon-03</title><g id="Objects_path-filder"><path class="cls-1" d="M36.41,45.54c-11.47-6.77-24.8-7.12-24.8-7.12-3.32,14-1.42,24.36,1.56,31.46A67.05,67.05,0,0,1,36.41,45.54Z"/><path class="cls-1" d="M128.7,67.89c2.51-7,3.82-16.73.8-29.47,0,0-12.58.33-23.81,6.55A67,67,0,0,1,128.7,67.89Z"/><path d="M133.89,78.58c.07-.14.13-.29.2-.44,3.3-7.31,9-25,2.25-49.25,0,0-24.79-1.07-40.06,11.44a65.44,65.44,0,0,0-10.22-3.16A38.26,38.26,0,0,1,90.23,25.6C84,25,79.4,30.68,79.4,30.68c0-4,4.56-14.78,4.56-14.78C70.85,18.18,66.29,31.58,66.29,31.58a18.75,18.75,0,0,1,0-12.26C58,24.14,55.71,32.05,55.15,37.59a66.54,66.54,0,0,0-9.7,3.25c-15.21-13.05-40.68-12-40.68-12-6.86,24.55-.94,42.3,2.34,49.46.48,1.05.9,1.87,1.22,2.45L7.94,82a66.75,66.75,0,0,0,4.61,51.6L19.07,181H31l1.9-5.58L35.28,181H47.67l1.07-15.93a67,67,0,0,0,45.54,0L95.34,181h12.4l2.39-5.58L112,181h11.91l6.53-47.4a66.71,66.71,0,0,0,4.32-52.47C134.51,80.26,134.21,79.41,133.89,78.58ZM129.5,38.42c3,12.74,1.71,22.48-.8,29.48a67,67,0,0,0-23-22.92C116.92,38.75,129.5,38.42,129.5,38.42Zm-117.89,0s13.33.35,24.8,7.12A67.05,67.05,0,0,0,13.17,69.88C10.19,62.78,8.29,52.41,11.61,38.42Z"/><path class="cls-1" d="M98.91,121.56a28,28,0,0,0-54.8,0c-2.11,10.54,4.22,17.91,27.4,17.91S101,132.1,98.91,121.56Z"/><path d="M67.35,121.6a5.19,5.19,0,1,1-5.19-5.19A5.19,5.19,0,0,1,67.35,121.6Z"/><path d="M88,121.6a5.19,5.19,0,1,1-5.18-5.19A5.19,5.19,0,0,1,88,121.6Z"/><path class="cls-2" d="M44,80.24a14.54,14.54,0,0,0-13.54,9.28,1.43,1.43,0,0,1-.13.59,1.29,1.29,0,0,1-.22.35A14.54,14.54,0,1,0,44,80.24ZM44,99a4.27,4.27,0,1,1,4.27-4.26A4.27,4.27,0,0,1,44,99Z"/><path class="cls-2" d="M99,80.24a14.54,14.54,0,1,0,14.54,14.54A14.55,14.55,0,0,0,99,80.24ZM99,99a4.27,4.27,0,1,1,4.27-4.26A4.27,4.27,0,0,1,99,99Z"/><path class="cls-1" d="M44,90.5a4.27,4.27,0,1,0,4.27,4.27A4.27,4.27,0,0,0,44,90.5Z"/><path class="cls-1" d="M99,90.5a4.27,4.27,0,1,0,4.27,4.27A4.27,4.27,0,0,0,99,90.5Z"/><path class="cls-1" d="M138.62,77.8a1.49,1.49,0,0,0-2-.77l-2.56,1.11-19.55,8.52a17.52,17.52,0,0,0-32.19,2.67c-10.27-6.41-18.47-1.85-21.54.43a17.52,17.52,0,0,0-32.73-2.28l-21-9.13L6.37,78a1.5,1.5,0,0,0-1.2,2.75L7.94,82l19.13,8.33a17.34,17.34,0,0,0-.6,4.47,17.54,17.54,0,0,0,35.08,0,16,16,0,0,0-.09-1.71,1,1,0,0,0,.17-.11c.35-.35,8.59-8.33,20-.51a18,18,0,0,0-.17,2.33A17.43,17.43,0,0,0,83,101.89a17.54,17.54,0,0,0,32.73-12.47l19.08-8.31,3.05-1.33A1.51,1.51,0,0,0,138.62,77.8ZM44,109.32A14.56,14.56,0,0,1,30.12,90.46a1.29,1.29,0,0,0,.22-.35,1.43,1.43,0,0,0,.13-.59A14.53,14.53,0,1,1,44,109.32Zm55,0a14.54,14.54,0,1,1,14.54-14.54A14.56,14.56,0,0,1,99,109.32Z"/></g></svg>