<svg xmlns="http://www.w3.org/2000/svg" viewBox="0 0 141.11 180.97"><title>pig-icon-08</title><g id="Objects_path-filder"><path d="M62.16,115.93A5.19,5.19,0,0,0,57,121.12c0,.15,0,.29,0,.43a5.19,5.19,0,0,0,10.24.66,4.92,4.92,0,0,0,.12-1.09A5.19,5.19,0,0,0,62.16,115.93Zm20.61,0a5.19,5.19,0,0,0-5.19,5.19,1.37,1.37,0,0,0,0,.29,5.17,5.17,0,0,0,10.2.93,4.91,4.91,0,0,0,.15-1.22A5.18,5.18,0,0,0,82.77,115.93Zm0,0a5.19,5.19,0,0,0-5.19,5.19,1.37,1.37,0,0,0,0,.29,5.17,5.17,0,0,0,10.2.93,4.91,4.91,0,0,0,.15-1.22A5.18,5.18,0,0,0,82.77,115.93Zm-20.61,0A5.19,5.19,0,0,0,57,121.12c0,.15,0,.29,0,.43a5.19,5.19,0,0,0,10.24.66,4.92,4.92,0,0,0,.12-1.09A5.19,5.19,0,0,0,62.16,115.93Zm0,0A5.19,5.19,0,0,0,57,121.12c0,.15,0,.29,0,.43a5.19,5.19,0,0,0,10.24.66,4.92,4.92,0,0,0,.12-1.09A5.19,5.19,0,0,0,62.16,115.93Zm9.35-80.86a66.31,66.31,0,0,0-9.83.73c.19.08.39.15.58.24l.55.25c.43.19.85.41,1.26.64l.71.43c.24.15.49.31.73.49a3.79,3.79,0,0,1,.35.25,4.22,4.22,0,0,1,.36.27l.69.56c.23.19.45.39.67.59h0c.22.2.43.41.64.63l.74.79c.16.19.33.38.49.58s.39.48.58.73.38.5.56.76l.05.07c.17.24.33.48.48.73s.34.54.5.82.33.57.48.86c.13-.31.27-.61.41-.91s.16-.34.25-.51c0,0,0,0,0,0l0-.1,0-.09.18-.33.07-.11a3.61,3.61,0,0,1,.22-.39l0-.07c.18-.3.37-.59.56-.87a11.21,11.21,0,0,1,.69-.93l0-.06c.19-.24.39-.47.6-.7,0,0,0,0,0,0a2.09,2.09,0,0,1,.2-.22,14.93,14.93,0,0,1,1.61-1.47l.12-.08.16-.12q.35-.27.72-.51c.16-.11.33-.21.5-.31s.34-.2.51-.29a5.12,5.12,0,0,1,.52-.27l.4-.19c.21-.1.41-.19.62-.27l.06,0,.57-.21.54-.19.72-.21A67.31,67.31,0,0,0,71.51,35.07Zm11.26,80.86a5.19,5.19,0,0,0-5.19,5.19,1.37,1.37,0,0,0,0,.29,5.17,5.17,0,0,0,10.2.93,4.91,4.91,0,0,0,.15-1.22A5.18,5.18,0,0,0,82.77,115.93Zm0,0a5.19,5.19,0,0,0-5.19,5.19,1.37,1.37,0,0,0,0,.29,5.17,5.17,0,0,0,10.2.93,4.91,4.91,0,0,0,.15-1.22A5.18,5.18,0,0,0,82.77,115.93Zm-20.61,0A5.19,5.19,0,0,0,57,121.12c0,.15,0,.29,0,.43a5.19,5.19,0,0,0,10.24.66,4.92,4.92,0,0,0,.12-1.09A5.19,5.19,0,0,0,62.16,115.93ZM136.34,28.4s-24.79-1.07-40.06,11.44L95,39.36a1.5,1.5,0,0,1-1,0,21.9,21.9,0,0,0-6.45-1c-7.37,0-12,3.94-13.83,11.71a1.49,1.49,0,0,1-1.38,1.16h-.08a1.51,1.51,0,0,1-1.42-1c-2.69-7.76-8.61-12.58-15.43-12.58a15.07,15.07,0,0,0-5.68,1.14,1.65,1.65,0,0,1-.57.11c-1.27.45-2.53.93-3.77,1.46C30.24,27.3,4.77,28.4,4.77,28.4-3.09,56.53,5.83,75.73,8.33,80.32A66.71,66.71,0,0,0,12.5,133l6.57,48H31l1.9-5.58L35.28,181H47.67l1.1-16.4a67.11,67.11,0,0,0,45.48,0L95.34,181h12.4l2.39-5.58L112,181h11.91l6.58-48a66.83,66.83,0,0,0,3.37-54.9C137.15,71.08,143.27,53.22,136.34,28.4ZM97.51,85.9A4.5,4.5,0,1,1,93,90.4,4.51,4.51,0,0,1,97.51,85.9Zm-52,0A4.5,4.5,0,1,1,41,90.4,4.51,4.51,0,0,1,45.51,85.9ZM13.17,69.4c-3-7.1-4.88-17.47-1.56-31.47,0,0,13.33.36,24.8,7.13A67.05,67.05,0,0,0,13.17,69.4Zm102.12,75.75c-3.25,7.71-17.16,11.62-34,4a20,20,0,0,1-9.78-8.77,20,20,0,0,1-9.79,8.77c-16.84,7.62-30.75,3.71-34-4-3.49-8.28,2.55-10.75,2.55-10.75-2.21,7,6.7,13,11.7,7.5,2-2.21,3.51-5.56,5.14-8.94-3.2-3.08-3.94-7.16-3-11.88a28,28,0,0,1,54.8,0c.94,4.72.19,8.81-3,11.88,1.63,3.38,3.13,6.73,5.14,8.94,5,5.5,13.92-.5,11.71-7.5C112.75,134.4,118.78,136.87,115.29,145.15ZM128.7,67.41a67.12,67.12,0,0,0-23-22.92c11.23-6.22,23.81-6.56,23.81-6.56C132.52,50.68,131.21,60.41,128.7,67.41ZM82.77,115.93a5.19,5.19,0,0,0-5.19,5.19,1.37,1.37,0,0,0,0,.29,5.17,5.17,0,0,0,10.2.93,4.91,4.91,0,0,0,.15-1.22A5.18,5.18,0,0,0,82.77,115.93Zm-20-79.64c.43.19.85.41,1.26.64l.71.43c.24.15.49.31.73.49a3.79,3.79,0,0,1,.35.25,4.22,4.22,0,0,1,.36.27l.69.56c.23.19.45.39.67.59h0c.22.2.43.41.64.63l.74.79c.16.19.33.38.49.58s.39.48.58.73.38.5.56.76l.05.07c.17.24.33.48.48.73s.34.54.5.82.33.57.48.86c.13-.31.27-.61.41-.91s.16-.34.25-.51c0,0,0,0,0,0l0-.1,0-.09.18-.33.07-.11a3.61,3.61,0,0,1,.22-.39l0-.07c.18-.3.37-.59.56-.87a11.21,11.21,0,0,1,.69-.93l0-.06c.19-.24.39-.47.6-.7,0,0,0,0,0,0a2.09,2.09,0,0,1,.2-.22,14.93,14.93,0,0,1,1.61-1.47l.12-.08.16-.12q.35-.27.72-.51c.16-.11.33-.21.5-.31s.34-.2.51-.29a5.12,5.12,0,0,1,.52-.27l.4-.19c.21-.1.41-.19.62-.27l.06,0,.57-.21.54-.19.72-.21a67.31,67.31,0,0,0-11.07-.92,66.31,66.31,0,0,0-9.83.73c.19.08.39.15.58.24Zm-.65,79.64A5.19,5.19,0,0,0,57,121.12c0,.15,0,.29,0,.43a5.19,5.19,0,0,0,10.24.66,4.92,4.92,0,0,0,.12-1.09A5.19,5.19,0,0,0,62.16,115.93Zm0,0A5.19,5.19,0,0,0,57,121.12c0,.15,0,.29,0,.43a5.19,5.19,0,0,0,10.24.66,4.92,4.92,0,0,0,.12-1.09A5.19,5.19,0,0,0,62.16,115.93Zm20.61,0a5.19,5.19,0,0,0-5.19,5.19,1.37,1.37,0,0,0,0,.29,5.17,5.17,0,0,0,10.2.93,4.91,4.91,0,0,0,.15-1.22A5.18,5.18,0,0,0,82.77,115.93Zm0,0a5.19,5.19,0,0,0-5.19,5.19,1.37,1.37,0,0,0,0,.29,5.17,5.17,0,0,0,10.2.93,4.91,4.91,0,0,0,.15-1.22A5.18,5.18,0,0,0,82.77,115.93Zm-20.61,0A5.19,5.19,0,0,0,57,121.12c0,.15,0,.29,0,.43a5.19,5.19,0,0,0,10.24.66,4.92,4.92,0,0,0,.12-1.09A5.19,5.19,0,0,0,62.16,115.93Zm0,0A5.19,5.19,0,0,0,57,121.12c0,.15,0,.29,0,.43a5.19,5.19,0,0,0,10.24.66,4.92,4.92,0,0,0,.12-1.09A5.19,5.19,0,0,0,62.16,115.93Zm20.61,0a5.19,5.19,0,0,0-5.19,5.19,1.37,1.37,0,0,0,0,.29,5.17,5.17,0,0,0,10.2.93,4.91,4.91,0,0,0,.15-1.22A5.18,5.18,0,0,0,82.77,115.93Zm0,0a5.19,5.19,0,0,0-5.19,5.19,1.37,1.37,0,0,0,0,.29,5.17,5.17,0,0,0,10.2.93,4.91,4.91,0,0,0,.15-1.22A5.18,5.18,0,0,0,82.77,115.93Zm-20.61,0A5.19,5.19,0,0,0,57,121.12c0,.15,0,.29,0,.43a5.19,5.19,0,0,0,10.24.66,4.92,4.92,0,0,0,.12-1.09A5.19,5.19,0,0,0,62.16,115.93Z"/><path d="M67.35,121.12a4.92,4.92,0,0,1-.12,1.09A5.19,5.19,0,0,1,57,121.55c0-.14,0-.28,0-.43a5.19,5.19,0,0,1,10.38,0Z"/><path d="M88,121.12a4.91,4.91,0,0,1-.15,1.22,5.17,5.17,0,0,1-10.2-.93,1.37,1.37,0,0,1,0-.29,5.19,5.19,0,1,1,10.37,0Z"/><path d="M93.84,36.16a25.45,25.45,0,0,0-6.23-.8c-.45,0-.89,0-1.33,0h0c-.38,0-.76.06-1.13.11l-.34,0c-.26,0-.52.07-.77.12l-.42.08c-.18,0-.35.07-.52.12L82.6,36h0l-.72.21-.54.19-.57.21-.06,0c-.21.08-.41.17-.62.27l-.4.19a5.12,5.12,0,0,0-.52.27c-.17.09-.34.18-.51.29s-.34.2-.5.31-.49.33-.72.51l-.16.12-.12.08a14.93,14.93,0,0,0-1.61,1.47,2.09,2.09,0,0,0-.2.22s0,0,0,0c-.21.23-.41.46-.6.7l0,.06a11.21,11.21,0,0,0-.69.93c-.19.28-.38.57-.56.87l0,.07a3.61,3.61,0,0,0-.22.39l-.07.11-.18.33,0,.09,0,.1s0,0,0,0c-.09.17-.17.34-.25.51s-.28.6-.41.91c-.15-.29-.31-.58-.48-.86s-.33-.55-.5-.82-.31-.49-.48-.73L70.6,43c-.18-.26-.36-.51-.56-.76s-.37-.49-.58-.73-.33-.39-.49-.58l-.74-.79c-.21-.22-.42-.43-.64-.63h0c-.22-.21-.44-.41-.67-.59l-.69-.56a4.22,4.22,0,0,0-.36-.27,3.79,3.79,0,0,0-.35-.25c-.24-.18-.49-.34-.73-.49l-.71-.43c-.41-.23-.83-.45-1.26-.64L62.26,36c-.19-.09-.39-.16-.58-.24h0l-.74-.26-.34-.11-.35-.11-.12,0-.7-.17-.76-.17c-.42-.07-.85-.14-1.28-.18-.21,0-.41,0-.62-.06l-.48,0-.81,0a17.8,17.8,0,0,0-5.7,1,11.09,11.09,0,0,1-1.88-7.14,8.11,8.11,0,0,1,3.53-5.52,10.72,10.72,0,0,1,6.67-1.8c1.5,0,3.08.14,4.61.28s3.21.3,4.79.3A14,14,0,0,0,74,20.41a6.39,6.39,0,0,0,3.47-7.48c-.9-3.78-5-7.81-10.74-7.81a13.44,13.44,0,0,0-3.51.49A14.81,14.81,0,0,1,71.48,3a16.71,16.71,0,0,1,4.35.61c9.52,2.56,16.88,8.24,19.69,15.2C97.7,24.21,97.12,30.18,93.84,36.16Z"/></g></svg>