<svg xmlns="http://www.w3.org/2000/svg" viewBox="0 0 141.11 180.97"><defs><style>.cls-1{fill:#fff;}</style></defs><title>pig-icon-06</title><g id="Objects_path-filder"><path class="cls-1" d="M36.41,45.79c-11.47-6.76-24.8-7.12-24.8-7.12-3.32,14-1.42,24.37,1.56,31.46A67.13,67.13,0,0,1,36.41,45.79Z"/><path class="cls-1" d="M128.7,68.15c2.51-7,3.82-16.73.8-29.48,0,0-12.58.34-23.81,6.56A67,67,0,0,1,128.7,68.15Z"/><path d="M136.34,29.14s-24.79-1.07-40.06,11.44a66.89,66.89,0,0,0-50.83.52C30.24,28,4.77,29.14,4.77,29.14-3.09,57.27,5.83,76.47,8.33,81.06a66.73,66.73,0,0,0,4.25,52.83L19.07,181H31l1.9-5.58L35.28,181H47.67l1-15.67a67.21,67.21,0,0,0,45.57,0l1,15.67h12.4l2.39-5.58L112,181h11.91l6.5-47.09a66.73,66.73,0,0,0,3.45-55C137.15,71.82,143.27,54,136.34,29.14Zm-123.17,41c-3-7.1-4.88-17.47-1.56-31.46,0,0,13.33.35,24.8,7.12A67.05,67.05,0,0,0,13.17,70.14Zm115.53-2a67.12,67.12,0,0,0-23-22.92c11.23-6.22,23.81-6.55,23.81-6.55C132.52,51.42,131.21,61.16,128.7,68.15Z"/><path class="cls-1" d="M98.91,115.82a28,28,0,0,0-54.8,0c-2.11,10.54,4.22,17.91,27.4,17.91S101,126.36,98.91,115.82Z"/><path d="M67.35,115.86a5.19,5.19,0,1,1-5.19-5.2A5.18,5.18,0,0,1,67.35,115.86Z"/><path d="M88,115.86a5.19,5.19,0,1,1-5.18-5.2A5.18,5.18,0,0,1,88,115.86Z"/><path class="cls-1" d="M84.68,137.73a23.65,23.65,0,0,1-6.74,1.59v6.08H65v-6.33c-3.88-.45-6.67-1-6.67-1s.67,14,13.67,14S84.68,137.73,84.68,137.73Z"/><path class="cls-1" d="M52.14,91.76a4.64,4.64,0,1,1-4.63-4.63A4.63,4.63,0,0,1,52.14,91.76Z"/><path class="cls-1" d="M100.14,91.76a4.64,4.64,0,1,1-4.63-4.63A4.63,4.63,0,0,1,100.14,91.76Z"/></g></svg>