<svg xmlns="http://www.w3.org/2000/svg" viewBox="0 0 141.11 180.97"><defs><style>.cls-1{fill:#fff;}.cls-2{fill:none;stroke:#000;stroke-linecap:round;stroke-miterlimit:10;stroke-width:4px;}</style></defs><title>pig-icon-02</title><g id="Objects_path-filder"><path class="cls-1" d="M36.41,45.54c-11.47-6.77-24.8-7.12-24.8-7.12-3.32,14-1.42,24.36,1.56,31.46A67.05,67.05,0,0,1,36.41,45.54Z"/><path class="cls-1" d="M128.7,67.89c2.51-7,3.82-16.73.8-29.47,0,0-12.58.33-23.81,6.55A67.12,67.12,0,0,1,128.7,67.89Z"/><path d="M136.34,28.89s-22.9-1-38.24,10c-.62.45-1.23.92-1.82,1.4-.34-.14-.66-.27-1-.39h0a66.8,66.8,0,0,0-49.82.9q-.81-.69-1.65-1.32c-.84-.65-1.71-1.25-2.6-1.82C25.94,28,4.77,28.89,4.77,28.89-3.09,57,5.83,76.21,8.33,80.8a66.74,66.74,0,0,0,4.22,52.78L19.07,181H31l1.9-5.58L35.28,181H47.67l1.07-15.93a67,67,0,0,0,45.54,0L95.34,181h12.4l2.39-5.58L112,181h11.91l6.53-47.4a66.85,66.85,0,0,0,3.42-55C137.15,71.56,143.27,53.7,136.34,28.89ZM17.53,63.08c-.06.07-.11.15-.16.22-.27.36-.53.72-.78,1.09l0,.06c-.29.42-.58.84-.86,1.27l-.21.33c-.1.14-.19.29-.29.44s-.2.32-.29.48c-.25.39-.49.78-.73,1.18-.34.57-.68,1.15-1,1.73-3-7.1-4.88-17.47-1.56-31.46h.24l.29,0,.39,0,.6,0,.94.09.38,0,1.27.15h.1l1.37.2.8.13,1.53.27.28.06,1,.2c.88.19,1.8.4,2.75.65l1.38.38,1,.29,1,.31,1.49.51c.5.18,1,.37,1.51.57h0l.76.31.76.32,1.52.69,1,.5c.41.2.83.42,1.24.65l1.24.7c-.6.37-1.2.76-1.79,1.15h0l-1.27.88a.67.67,0,0,0-.14.09l-.52.37c-.18.12-.35.25-.52.38-.53.39-1,.78-1.56,1.18l-.06,0-.05,0,0,0-.13.1-.06,0-.26.2c-.63.5-1.24,1-1.85,1.53-.38.32-.75.65-1.11,1l-.52.47c-.18.15-.35.31-.52.48l-1.13,1.07c-.29.29-.58.57-.87.88l-.25.24-.08.09c-.3.3-.59.6-.87.91-.47.5-.93,1-1.38,1.52l0,0-.72.83,0,0-.54.65-.06.07c-.26.32-.52.63-.77,1l-.48.62c-.21.27-.43.54-.63.82S17.73,62.8,17.53,63.08ZM128.7,67.9a67,67,0,0,0-23-22.92c11.23-6.23,23.81-6.56,23.81-6.56C132.52,51.16,131.21,60.9,128.7,67.9Z"/><path d="M73.88,28.63c-7.85,0-16.42,2.66-25.47,7.9A50.28,50.28,0,0,0,24.75,66.12a76.22,76.22,0,0,0-3,19.5c5-6.46,17.18-18.25,41-20.22C80.09,64,91.92,58.22,95.28,49.61a13.08,13.08,0,0,0-2.54-13.7C90.72,33.72,84.83,28.63,73.88,28.63Z"/><path class="cls-1" d="M98.1,38.93a16.2,16.2,0,0,0-3.16-5C92.66,31.4,86,25.63,73.88,25.63c-8.39,0-17.46,2.8-27,8.31A61.36,61.36,0,0,0,41.2,37.7a54.67,54.67,0,0,0-7.27,6.49,51.86,51.86,0,0,0-5.79,7.4,53.07,53.07,0,0,0-6.27,13.68,77.54,77.54,0,0,0-3,25.35A1.51,1.51,0,0,0,20.06,92a1.43,1.43,0,0,0,.29,0,1.49,1.49,0,0,0,1.34-.83c.1-.2,10.57-20.24,41.37-22.78,25.27-2.09,32.79-12,35-17.7A16.11,16.11,0,0,0,98.1,38.93Zm-1.9,5.8a13.4,13.4,0,0,1-.92,4.88C91.92,58.22,80.09,64,62.81,65.41c-23.85,2-36.06,13.75-41,20.21a76.22,76.22,0,0,1,3-19.5c.17-.57.35-1.15.55-1.75s.38-1.11.6-1.68c.16-.42.32-.84.5-1.27s.4-1,.62-1.46c.09-.21.19-.42.29-.64.19-.41.39-.83.59-1.24l.49-.95c.15-.29.3-.58.46-.87.47-.85,1-1.72,1.52-2.58.23-.36.46-.73.71-1.09s.51-.76.78-1.14.54-.76.83-1.14c.41-.55.84-1.09,1.29-1.64l.58-.69c.32-.38.66-.77,1-1.15l.06-.06c.2-.23.41-.46.63-.68s.54-.57.82-.85l.85-.85.89-.83.78-.7.67-.59.13-.11.12-.1,0,0,.49-.41.66-.53c.68-.53,1.38-1.06,2.1-1.58l1.1-.77c1.11-.76,2.28-1.5,3.51-2.21,9.05-5.25,17.62-7.91,25.47-7.91,11,0,16.84,5.1,18.86,7.29.2.22.39.44.58.67l.34.45a3.43,3.43,0,0,1,.24.33l.32.49c.11.17.21.33.3.5.19.34.36.69.52,1,.08.18.16.36.23.54s.15.38.22.58l.12.37s0,0,0,.06.05.16.07.24.11.39.15.58.11.49.15.73l.09.56s0,0,0,.06,0,.06,0,.09v0c0,.27.06.54.07.82a2.44,2.44,0,0,1,0,.27.76.76,0,0,1,0,.15Z"/><path class="cls-1" d="M98.91,121.56a28,28,0,0,0-54.8,0c-2.11,10.54,4.22,17.91,27.4,17.91S101,132.1,98.91,121.56Z"/><path d="M67.35,121.6a5.19,5.19,0,1,1-5.19-5.19A5.19,5.19,0,0,1,67.35,121.6Z"/><path d="M88,121.6a5.19,5.19,0,1,1-5.18-5.19A5.19,5.19,0,0,1,88,121.6Z"/><path class="cls-1" d="M40,96.08a5,5,0,0,0,5,5.46c3.42,0,4.92-2.83,4.59-5.46Z"/><path class="cls-1" d="M93.38,96.08a5,5,0,0,0,5,5.46c3.42,0,4.91-2.83,4.59-5.46Z"/><path class="cls-2" d="M82.64,123.73a10.46,10.46,0,1,1-20.92,0"/></g></svg>