<svg xmlns="http://www.w3.org/2000/svg" viewBox="0 0 141.11 180.97"><title>pig-icon-04</title><g id="Objects_path-filder"><path fill="#ffed4a" d="M136.34,29.14s-18.58-.8-33.48,7.11a7.56,7.56,0,0,1,1.85,5.22c-.07,1.91-.91,4.82-4.53,7.83a13.92,13.92,0,0,1-6.25,2.92,12.94,12.94,0,0,1,2.45,10c-.73,4.87-3.73,7.67-8.24,7.67a15.34,15.34,0,0,1-5.07-1,11.76,11.76,0,0,1-2.2,5.67,7.86,7.86,0,0,1-6.31,3.3c-2,0-5.06-.82-8.16-4.68a14.18,14.18,0,0,1-2.82-6.33A12.78,12.78,0,0,1,56,69.36a14.51,14.51,0,0,1-2.43-.21c-4.27-.72-6.08-3-6.85-4.78-1.2-2.79-.59-6,.4-8.64-4-.58-7.29-2.9-8.39-6.14-.58-1.69-1.3-6.05,4.22-10.45-15.34-11-38.15-10-38.15-10C-3.09,57.27,5.83,76.47,8.33,81.06a66.73,66.73,0,0,0,4.25,52.83L19.07,181H31l1.9-5.58L35.28,181h12.4l1-15.67a67.24,67.24,0,0,0,45.58,0l1,15.67h12.4l2.39-5.58L112,181h11.91l6.5-47.09a66.75,66.75,0,0,0,3.45-55.06C137.15,71.82,143.27,54,136.34,29.14Zm-123.17,41c-3-7.1-4.87-17.47-1.56-31.46,0,0,13.33.35,24.8,7.12A67.05,67.05,0,0,0,13.17,70.14Zm21.88,38.6a1.67,1.67,0,1,1,1.66-1.67A1.67,1.67,0,0,1,35.05,108.74ZM95.51,90.13a4.63,4.63,0,0,1,4.63,4.64A4.51,4.51,0,0,1,99.55,97a7.23,7.23,0,0,0-6-3.28,7,7,0,0,0-2.62.51A4.61,4.61,0,0,1,95.51,90.13Zm3.2,16.94a1.67,1.67,0,1,1-1.66-1.67A1.66,1.66,0,0,1,98.71,107.07ZM47.51,90.13a4.63,4.63,0,0,1,4.63,4.64A4.32,4.32,0,0,1,52,95.85a5,5,0,0,0-3.45-1.25,4.83,4.83,0,0,0-4.68,3,4.61,4.61,0,0,1,3.64-7.48Zm-7.46,24.61a1.67,1.67,0,1,1,1.66-1.67A1.67,1.67,0,0,1,40.05,114.74Zm2-6a1.67,1.67,0,1,1,1.66-1.67A1.67,1.67,0,0,1,42.05,108.74Zm29.46,31c-23.18,0-29.51-7.37-27.4-17.91a28,28,0,0,1,54.8,0C101,132.36,94.69,139.73,71.51,139.73Zm29.54-25a1.67,1.67,0,1,1,1.66-1.67A1.67,1.67,0,0,1,101.05,114.74Zm4-6a1.67,1.67,0,1,1,1.66-1.67A1.67,1.67,0,0,1,105.05,108.74ZM128.7,68.15a67.12,67.12,0,0,0-23-22.92c11.23-6.22,23.81-6.55,23.81-6.55C132.52,51.42,131.21,61.15,128.7,68.15Z"/><path fill="#ffed4a" d="M71.53,48h.09A3.41,3.41,0,0,0,74,46.94a3.42,3.42,0,0,0-2.49-5.76h-.1A3.42,3.42,0,0,0,71.53,48Z"/><path fill="#ffed4a" d="M82.76,116.67A5.19,5.19,0,1,0,88,121.86,5.18,5.18,0,0,0,82.76,116.67Z"/><circle cx="62.16" cy="121.86" r="5.19"/><path fill="#ffed4a" d="M100.19,37.78c-2-1.93-5.68-2.78-9.46-1.65,0,0,7.62-12.32-2.44-13.63-5.08-.67-8.56,2-10.93,5.66.44-3.6.08-7.24-2-10-6.28-8.43-13.23-1.19-11.26,6.94,0,0-11.88-8.27-13.75,1.7-.92,4.95,1.44,8.52,4.88,11.08a23.33,23.33,0,0,0,3,1.84,23.13,23.13,0,0,0-7.48-.54A11.69,11.69,0,0,0,45.37,41l-.41.3c-8.32,6.44-1,13.25,7.14,11.14,0,0-8.06,12,1.94,13.71,6.3,1.06,10.3-3.12,12.79-8.07-.93,4.59-.94,9.64,1.91,13.19,6.58,8.2,13.25.72,11-7.34,0,0,12.17,7.84,13.67-2.19,1-6.32-3.3-10.23-8.29-12.64,4.6.85,9.65.77,13.14-2.14C102.54,43.44,102.43,39.94,100.19,37.78ZM71.71,51a6.42,6.42,0,1,1,6.22-6.6A6.41,6.41,0,0,1,71.71,51Z"/><circle cx="62.16" cy="121.86" r="5.19"/><path fill="#ffed4a" d="M88,121.86a5.19,5.19,0,1,1-5.19-5.19A5.19,5.19,0,0,1,88,121.86Z"/></g></svg>