<svg xmlns="http://www.w3.org/2000/svg" viewBox="0 0 141.11 180.97"><title>pig-icon-03</title><g id="Objects_path-filder"><path d="M62.16,116.41a5.19,5.19,0,1,0,5.19,5.19A5.19,5.19,0,0,0,62.16,116.41Zm20.61,0A5.19,5.19,0,1,0,88,121.6,5.19,5.19,0,0,0,82.77,116.41Zm52-35.3-19.08,8.31A17.55,17.55,0,0,1,94.8,111.81a26.73,26.73,0,0,1,4.11,9.75c2.1,10.54-4.22,17.92-27.4,17.92S42,132.1,44.11,121.56a26.73,26.73,0,0,1,4.11-9.75,17.55,17.55,0,0,1-21.75-17,17.34,17.34,0,0,1,.6-4.47L7.94,82a66.75,66.75,0,0,0,4.61,51.6L19.07,181H31l1.9-5.58L35.28,181H47.67l1.07-15.93a67,67,0,0,0,45.54,0L95.34,181h12.4l2.39-5.58L112,181h11.91l6.53-47.4a66.71,66.71,0,0,0,4.32-52.47Zm-52,35.3A5.19,5.19,0,1,0,88,121.6,5.19,5.19,0,0,0,82.77,116.41Zm-1.3-21.63a18,18,0,0,1,.17-2.33c-11.42-7.82-19.66.16-20,.51a1,1,0,0,1-.17.11,16,16,0,0,1,.09,1.71A17.43,17.43,0,0,1,60,101.89a28.07,28.07,0,0,1,22.94,0A17.43,17.43,0,0,1,81.47,94.78ZM62.16,116.41a5.19,5.19,0,1,0,5.19,5.19A5.19,5.19,0,0,0,62.16,116.41Zm74.18-87.52s-24.79-1.07-40.06,11.44a65.44,65.44,0,0,0-10.22-3.16A38.26,38.26,0,0,1,90.23,25.6C84,25,79.4,30.68,79.4,30.68c0-4,4.56-14.78,4.56-14.78C70.85,18.18,66.29,31.58,66.29,31.58a18.75,18.75,0,0,1,0-12.26C58,24.14,55.71,32.05,55.15,37.59a66.54,66.54,0,0,0-9.7,3.25c-15.21-13.05-40.68-12-40.68-12-6.86,24.55-.94,42.3,2.34,49.46l21,9.13a17.52,17.52,0,0,1,32.73,2.28c3.07-2.28,11.27-6.84,21.54-.43a17.52,17.52,0,0,1,32.19-2.67l19.55-8.52C137.39,70.83,143.13,53.19,136.34,28.89Zm-123.17,41c-3-7.1-4.88-17.47-1.56-31.46,0,0,13.33.35,24.8,7.12A67.05,67.05,0,0,0,13.17,69.88Zm115.53-2a67,67,0,0,0-23-22.92c11.23-6.23,23.81-6.56,23.81-6.56C132.52,51.16,131.21,60.9,128.7,67.9ZM99,80.24a14.54,14.54,0,1,0,14.54,14.54A14.55,14.55,0,0,0,99,80.24ZM99,99a4.27,4.27,0,1,1,4.27-4.26A4.27,4.27,0,0,1,99,99ZM44,80.24a14.54,14.54,0,0,0-13.54,9.28,1.43,1.43,0,0,1-.13.59,1.29,1.29,0,0,1-.22.35A14.54,14.54,0,1,0,44,80.24ZM44,99a4.27,4.27,0,1,1,4.27-4.26A4.27,4.27,0,0,1,44,99Z"/><circle cx="62.16" cy="121.6" r="5.19"/><path d="M88,121.6a5.19,5.19,0,1,1-5.18-5.19A5.18,5.18,0,0,1,88,121.6Z"/></g></svg>