<svg xmlns="http://www.w3.org/2000/svg" viewBox="0 0 141.11 180.97"><title>pig-icon-07</title><g id="Objects_path-filder"><path d="M136.34,28.4s-24.79-1.07-40.06,11.44a66.77,66.77,0,0,0-50.83.52C30.24,27.3,4.77,28.4,4.77,28.4-3.09,56.53,5.83,75.73,8.33,80.32A66.71,66.71,0,0,0,12.5,133l6.57,48H31l1.9-5.58L35.28,181H47.67l1.1-16.4a67.11,67.11,0,0,0,45.48,0L95.34,181h12.4l2.39-5.58L112,181h11.91l6.58-48a66.73,66.73,0,0,0,3.37-54.9C137.15,71.08,143.27,53.22,136.34,28.4ZM13.17,69.4c-3-7.1-4.88-17.47-1.56-31.47,0,0,13.33.36,24.8,7.13A67.05,67.05,0,0,0,13.17,69.4ZM41.05,95.59a8.23,8.23,0,0,1-2.15-3.28A8.34,8.34,0,1,1,55,90.65a8.32,8.32,0,0,0-14,4.94ZM71.51,139c-23.18,0-29.51-7.37-27.4-17.91a28,28,0,0,1,54.8,0C101,131.62,94.69,139,71.51,139Zm32.61-46.68A8.23,8.23,0,0,1,102,95.59a8.33,8.33,0,0,0-14-4.94,8.34,8.34,0,1,1,16.13,1.66Zm24.58-24.9a67,67,0,0,0-23-22.92c11.23-6.22,23.81-6.56,23.81-6.56C132.52,50.68,131.21,60.41,128.7,67.41Z"/><path d="M67.35,121.11a5.19,5.19,0,1,1-5.19-5.19A5.19,5.19,0,0,1,67.35,121.11Z"/><path d="M88,121.11a5.19,5.19,0,1,1-5.18-5.19A5.18,5.18,0,0,1,88,121.11Z"/></g></svg>