<svg xmlns="http://www.w3.org/2000/svg" viewBox="0 0 325.32 204.55"><defs><style>.cls-1{fill:#231f20;}.cls-2{fill:#f33;}.cls-3{fill:#fc6;}.cls-4{fill:#b20606;}</style></defs><title>pig-charactor</title><g id="Layer_2" data-name="Layer 2"><g id="Layer_2-2" data-name="Layer 2"><path class="cls-1" d="M63,33a.07.07,0,0,0,0-.13A.07.07,0,0,0,63,33Z"/><path class="cls-1" d="M11.22,81a73.61,73.61,0,0,0,6.66,7.46c.23.24.6-.13.36-.36a92.37,92.37,0,0,1-6.77-7.35c-.15-.18-.39.08-.25.25Z"/><path class="cls-2" d="M28.34,56.31c-8.42.95-15.17-1.7-21.91-5.59a113,113,0,0,0,6.73,26.57l1.18,1c7.14,6.12,15.34,10.56,24.82,11.54,18,1.85,33.49-6.65,49.79-12.76,7.54-2.83,16.5-4.78,24.63-3.47,6.77-4.51,16.41-7.75,24.68-7,4.62-.35,9.22-.65,13.8-1.22,7.4-.93,23.24-3.85,23.71-13.56-10.18,2.74-20.58,3.2-30.63-1.36-7-3.17-13.23-7.84-19.88-11.65a97.69,97.69,0,0,0-22.66-9.87A54,54,0,0,0,89.06,27a53.8,53.8,0,0,1,4.75,21.79c0,.38-.53.35-.57,0A60.4,60.4,0,0,0,68.52,6.54c5.36,11.13,8.12,23.78,5.73,36.05-.16.82-.65,1.37-.72.64-.44-4.77-1-9.37-1.69-13.88-.94.27-1.88.56-2.83.87-9.43,4.09-18.91,10-29.19,10.68C28.58,41.63,18.54,35.25,9.7,29,7.27,34,5,39.15,2.51,44.13a2.22,2.22,0,0,1,.55.34C10,50.3,18.93,56,28.34,55.71,28.73,55.69,28.71,56.27,28.34,56.31ZM75.2,17.69c-.06-.16.2-.27.28-.12,4.15,8.63,4.4,17.21,4,26.63-.07,1.63-2.63,1.63-2.53,0C77.51,35.49,78.25,26,75.2,17.69Zm-22,29.14c3.86-2.49,9.14.63,11,4.24a1.69,1.69,0,1,1-3.11,1.31c-1.16-3.51-4.47-4.63-7.79-5.09C53.06,47.26,53.07,46.94,53.24,46.83Z"/><path class="cls-2" d="M92.65,199.55c3.15.6,5.93,1.71,9.24,1.76,2.71,0,5.23-.75,7.86-1a22.31,22.31,0,0,1-.55-6.24,16.66,16.66,0,0,1-12.67-1c-.49-.26-.14-1,.36-.86a16.84,16.84,0,0,0,6.52.33,16.25,16.25,0,0,0,5.84-2.37,2,2,0,0,1,.42-.19c1.19-6.84,4.31-13.82,6.51-19.59a155.27,155.27,0,0,1,8.15-17.67c-4.68,4-11.84,4.48-17.45,2a39.22,39.22,0,0,1-16.33-14.38,131.92,131.92,0,0,1,5.08,25.1C96.7,175.71,98.7,190.23,92.65,199.55Z"/><path class="cls-2" d="M159,181.66l0,.14c26.5,3.67,53.64,1.61,79.33-7.42a163.83,163.83,0,0,0,20.45-8.8,67.39,67.39,0,0,1-11.91-4.51,42.69,42.69,0,0,1-9-6.46c-1.79,4.59-7.28,7.62-11.67,9.13-6.87,2.36-14.3,2-21.38,1-9.1-1.27-18.61-3.94-27.75-1.5a28.69,28.69,0,0,0-10.61,5.46C163,171.49,157.72,176.79,159,181.66Z"/><path class="cls-2" d="M231,144c.44.64.9,1.27,1.39,1.89h.18a.37.37,0,0,1,.29.57h0a43.68,43.68,0,0,0,3.36,3.73c7.51,7.44,16.71,10.52,26.66,13.26,7.61,2.09,15.68,4.92,20,12,4,6.56,3.85,15.81-1,21.87a20.1,20.1,0,0,0,8.61,1.89,43.7,43.7,0,0,0,4.57-.34,2.06,2.06,0,0,1,.25-1.39c.86-1.54,1.71-3.08,2.54-4.64-1.23,0-2.47-.15-3.64-.22a30.86,30.86,0,0,1-6.32-1.09.14.14,0,0,1,0-.27,62.66,62.66,0,0,0,6.28-.09,43,43,0,0,0,5-1h0c11-21.19,19.16-44.89,20.55-68.63a90.78,90.78,0,0,0-.17-13c-2.31,0-4.46-.92-6.9-.44a30.35,30.35,0,0,0-9.25,4.11c-6.34,3.8-10.29,9.1-14.44,15.07-3.95,5.72-8.92,14.09-15.62,18a36.16,36.16,0,0,1-18.85,7.27,29.14,29.14,0,0,1-18.88-4.87A38.19,38.19,0,0,1,231,144Z"/><path class="cls-3" d="M314.08,98c2.56,0,2.55-4,0-4A2,2,0,0,0,314.08,98Z"/><path class="cls-3" d="M111.36,76.55A24.07,24.07,0,0,1,115,73.89a35.79,35.79,0,0,1,24.67-4.11A13.93,13.93,0,0,1,150.23,79.9a14.8,14.8,0,0,1,.56,3.44c.05,2.14-1.28,5.16-3.66,5.71s-5-3.53-2.26-4.83c3.69-1.76.42-7.52-3.23-5.54-6.55,3.56-4.7,13.34,2.33,15.08,8.86,2.18,11.91-7.5,10.13-14.24-1.59-6-5.11-9.6-9.55-11.46a20.9,20.9,0,0,0-6.29-1.48c-8.27-.72-17.91,2.52-24.68,7a35,35,0,0,0-3,2.2C110.1,76.25,110.86,77,111.36,76.55Z"/><path class="cls-3" d="M124.75,69.61a96.36,96.36,0,0,1,19.8-1.55c.59,0,1.19.06,1.79.1,5.49.37,10.81.65,16.24-.48,8.54-1.77,18.89-7.7,18.55-17.51,0-.35,0-.72-.07-1.09a2.74,2.74,0,1,0-5.41.73,9.79,9.79,0,0,1,.12,2c-.47,9.71-16.31,12.63-23.71,13.56-4.58.57-9.18.87-13.8,1.22l-.72,0c-4.54.37-8.78.2-13.09,1.88A.57.57,0,0,0,124.75,69.61Z"/><path class="cls-3" d="M10.17,74.64c.42,1.31.81,2.62,1.2,3.94,1.17,1.1,2.38,2.18,3.63,3.2a53.82,53.82,0,0,0,7.81,5.45c13.24,7.5,28.48,6.84,42.76,3,15.11-4.1,31.58-14.72,47.68-10.41,6.56,1.75,15,8.06,12.25,16a6,6,0,0,1-9.14,2.82c-4-3.16-.14-5.66,1.82-8.36a2.53,2.53,0,0,0-.89-3.42c-6-3.57-10.84,4.15-10.22,9.51.81,7,7.63,11.34,14.32,10.53,13.06-1.59,14.06-17.36,6.6-25.63a23.7,23.7,0,0,0-13-7.34c-.47-.11-1-.2-1.43-.28-8.13-1.31-17.09.64-24.63,3.47-16.3,6.11-31.76,14.61-49.79,12.76-9.48-1-17.68-5.42-24.82-11.54l-1.18-1C12.18,76.44,11.17,75.55,10.17,74.64Z"/><path class="cls-3" d="M12.14,81.15c.27.66.53,1.32.79,2a35.73,35.73,0,0,0,5.22,5.37c8,6.75,19.16,10.84,28.9,11.75,17,1.59,32.69-5,48.39-10.55,3.6-1.26,1.89-7.07-1.56-5.66C80.22,89.6,66.37,96.91,51.31,97.24A57,57,0,0,1,30,93.72a43.36,43.36,0,0,1-13.53-8.64c-1.4-1.24-2.79-2.53-4.2-3.85Z"/><path class="cls-3" d="M21.3,94.46c.09.1.17.21.26.32,16.32,20,45.33,12.72,67.17,8.84,3.5-.63,2-6.1-1.48-5.38C66.74,102.49,38,112.82,21.46,94.29a.1.1,0,0,0-.17,0A.14.14,0,0,0,21.3,94.46Z"/><path class="cls-3" d="M23,99.67a64.26,64.26,0,0,0,5.43,5.82h0a43.47,43.47,0,0,0,16.9,10.18,51.79,51.79,0,0,0,13.9,2.47c3.92.14,9.57.32,12.89-2,1-.74,1.16-2.78-.39-3-3.85-.67-7.86.68-11.79.71A49.41,49.41,0,0,1,47,112.22a56.29,56.29,0,0,1-21-10.16A37.27,37.27,0,0,1,23.2,99.5.12.12,0,0,0,23,99.67Z"/><path class="cls-3" d="M23.59,102.32a78.16,78.16,0,0,0,13.15,13.79s0,0,0,0a66.75,66.75,0,0,0,20.91,11.61c2.39.79,3.48-3.13,1-3.77a67.84,67.84,0,0,1-26.25-13.1,59,59,0,0,1-8.63-8.74C23.73,102,23.49,102.18,23.59,102.32Z"/><path class="cls-3" d="M54.42,137.29c5.4,6.43,15.29,15.06,24.37,14.65H79c9.28-.58,8-11.86,3.75-17.18-3.22-4-15.17-13-18.85-4.8-2.63,5.86,6.46,16.8,12.13,11a2.09,2.09,0,0,0-1.45-3.52,5.45,5.45,0,0,1-4.61-2c-1.28-1.42-.79-2.69,1.45-3.81,1.15-.13,4,1.9,5.05,2.67,4,2.82,10.67,14.77.18,14.36a19.37,19.37,0,0,1-3.6-.5C66.2,146.62,59.35,141.61,54.7,137,54.52,136.84,54.27,137.1,54.42,137.29Z"/><path class="cls-3" d="M79,125.21a.2.2,0,0,0,.37-.15,5.8,5.8,0,0,1,4.8-7.58c2.29-.42,5-.14,6,2.24,1.19,2.76,5.62.35,4.13-2.42C90.17,109.53,74.94,116.89,79,125.21Z"/><path class="cls-3" d="M83.23,109.36c6.21.31,11.75-1.07,17.21,2.85,4.58,3.28,7.92,10.23,5.75,15.83a3,3,0,0,0,1.33,3.28,4.23,4.23,0,0,0,.69.3c2.33.88,3.84-1.65,3.58-3.58-1-7-2.39-12.95-8.69-17.17-5.92-4-13.25-3.41-19.93-1.93C82.93,109,83,109.35,83.23,109.36Z"/><path class="cls-3" d="M99.86,92.2c1.77,10.45,8.17,21.16,18.48,25.18,9,3.53,24-1.77,24.79-12.68.16-2.35-2.9-3.27-4.42-1.83-3.16,2.94-4.48,6.94-8.33,9.45a16,16,0,0,1-13.44,2.22c-9.12-2.93-14.87-13.66-16.73-22.43C100.16,91.89,99.82,92,99.86,92.2Z"/><path class="cls-3" d="M130.75,76.29a2.56,2.56,0,0,0,1.45-1.11,2.07,2.07,0,0,0-2.8-2.81,2.54,2.54,0,0,0-1.12,1.45A2,2,0,0,0,130.75,76.29Z"/><path class="cls-3" d="M104.75,86.56c2.77,0,2.77-4.29,0-4.29S102,86.56,104.75,86.56Z"/><path class="cls-3" d="M159.27,74.33l.1.09c1.14.83,2.73-.31,2.73-1.56s-1.59-2.4-2.73-1.56l-.1.08A1.74,1.74,0,0,0,159.27,74.33Z"/><path class="cls-3" d="M118.29,121.18c13.21,2.49,28,1.75,39-6.81a34.38,34.38,0,0,0,11-14.83c1.62-4.27,3.88-12.18.28-15.93a2.06,2.06,0,0,0-3.21.43c-1.24,2.23-.68,4.13-.83,6.61A25.93,25.93,0,0,1,163,98.07a32.94,32.94,0,0,1-9.29,13.23c-9.5,8.4-23,10.47-35.28,8.87C117.84,120.1,117.73,121.07,118.29,121.18Z"/><path class="cls-3" d="M149,124.79c7.53-3.34,15.65-7.71,21-14.19,5.6-6.84,7.42-15.32,9.52-23.69C182,77,184.22,66.23,191,58.2a25,25,0,0,1,10.93-7.84,13.46,13.46,0,0,1,6.67-.76c1.16.21,5.68,3.12,3.05,4.13-4.22,1.63-2.34,8.48,1.87,6.82,9.46-3.73,5.83-15.72-2.9-17.65-10.53-2.34-20.67,5.78-25.94,14.12-7.09,11.25-8.31,25.42-11,38.15-3,14.12-12.69,22.46-25,29C148.28,124.4,148.64,125,149,124.79Z"/><path class="cls-3" d="M172,69a1.78,1.78,0,0,0,1.76,1.77A1.81,1.81,0,0,0,175.54,69a1.78,1.78,0,0,0-1.77-1.76A1.8,1.8,0,0,0,172,69Z"/><path class="cls-3" d="M178.53,103.75l.12.1c5.86-5,7.12-14.24,8.94-21.31,1.22-4.75,2.72-9.42,5.79-13.32,2.38-3,6.24-4.06,8.35-7.11A2.16,2.16,0,0,0,200.44,59C193.18,57,187.74,68,186.19,73.57c-1.35,4.86-1.67,9.91-2.35,14.89A46.08,46.08,0,0,1,178.53,103.75Z"/><path class="cls-3" d="M225.17,134.46a9.3,9.3,0,0,0,.29,1.35,12.37,12.37,0,0,0,.92,2.34A21.09,21.09,0,0,0,231,144a38.19,38.19,0,0,0,4.69,3.72,29.14,29.14,0,0,0,18.88,4.87,36.16,36.16,0,0,0,18.85-7.27,22.21,22.21,0,0,0,8.47-12.76,19,19,0,0,0,.37-2.65c.91-12.73-11.58-22.84-23.9-20.6-11.51,2.1-15.29,21.77-3.81,26.61,4.73,2,7.44-4.7,2.71-6.43-3.95-1.45-3.63-8.5-1.87-11.45,2.87-4.8,9.85-3.79,14.12-1.58,9.86,5.07,9.39,17,2.17,24.1a30.81,30.81,0,0,1-27.42,8.26,25.56,25.56,0,0,1-11.93-5.91c-2.54-2.3-4.18-5.16-6.2-7.8l-.63-.81C225.33,134.15,225.15,134.31,225.17,134.46Z"/><path class="cls-3" d="M266.52,147.44a14.69,14.69,0,0,0,6.85-2.13c6.7-3.89,11.67-12.26,15.62-18,4.15-6,8.1-11.27,14.44-15.07a30.35,30.35,0,0,1,9.25-4.11c2.44-.48,4.59.44,6.9.44a8,8,0,0,0,1.19-.09c3.1-.48,2.91-4.69.8-6.13a7.64,7.64,0,0,0-2.88-1.18c-4.21-.81-9.31,1.38-12.66,3.23a46,46,0,0,0-14.46,12.25c-3.79,5-6.38,10.63-9.73,15.88l-.15.23c-4.11,6.42-9,9.82-15.53,13.37A.7.7,0,0,0,266.52,147.44Z"/><path class="cls-3" d="M255.64,141.23c4.43-.19,10.26-2.35,12.33-6.66a18.2,18.2,0,0,0,1.32-8.26c-.15-2.67-1.35-4.2-3.08-6.1-4.39-4.81-8.06,6.61-1.77,5.34,2.31,2.24.57,8.06-1,9.9-1.9,2.29-4.89,5-7.86,5.51C255.46,141,255.5,141.23,255.64,141.23Z"/><path class="cls-3" d="M248.83,140.06a.21.21,0,0,0,.22-.36c-7.86-5.77-14.72-16.13-11.53-26.09,2.46-7.64,9-14.89,17.47-15,4.2,0,4.07-6.81,0-6.43-11,1-18.74,10-21,20.47C231.68,123.48,238.64,135.65,248.83,140.06Z"/><path class="cls-3" d="M246.74,112.06c8.59-10.58,25.67-6.45,37.46-8,8.69-1.11,19.77-6.19,16.85-16.86-1.08-3.94-7.2-2.26-6.12,1.68C298,100,272.37,100.3,266,101.37a33.84,33.84,0,0,0-19.6,10.36C246.18,112,246.55,112.31,246.74,112.06Z"/><path class="cls-3" d="M284.85,117.44c3.67,0,3.66-5.69,0-5.69S281.19,117.44,284.85,117.44Z"/><path class="cls-3" d="M292.55,107.65l.26.14a1.43,1.43,0,0,0,1.93-1.94c0-.08-.08-.17-.12-.26a1.53,1.53,0,0,0-2.38-.31A1.52,1.52,0,0,0,292.55,107.65Z"/><path class="cls-3" d="M303.15,102.22a1.76,1.76,0,0,0,0-3.51A1.76,1.76,0,0,0,303.15,102.22Z"/><path class="cls-3" d="M86.77,131.25a.29.29,0,0,1,0-.57A.29.29,0,0,1,86.77,131.25Z"/><path class="cls-3" d="M86.76,133.49a46.81,46.81,0,0,0,3.79,6.84,39.22,39.22,0,0,0,16.33,14.38c5.61,2.5,12.77,2,17.45-2a12.8,12.8,0,0,0,3-3.63,11.71,11.71,0,0,0,1.3-4.07c.85-6-2.19-13.21-8.67-13.86-7.25-.72-11.29,9.91-6.35,14.75,2.93,2.87,6.86-2.12,3.45-4.47-1.68-1.16.95-3.78,1.46-4.2,1.1-.9,1.34-1,2.64-.57a3.78,3.78,0,0,1,2.22,2.49,9.72,9.72,0,0,1,.3,7c-1.74,5.57-8,7.19-13.15,6.44-8.53-1.25-15.62-7.53-20.68-14.5-1.11-1.53-2.12-3.09-3-4.64Z"/><path class="cls-3" d="M98.46,135.57A21.09,21.09,0,0,0,102.11,146c1.91,3.06,6.28-.62,3.78-2.92-6.39-5.9-3.49-14.54-5.29-22.1a.21.21,0,0,0-.41,0C100.21,126,98.21,130.6,98.46,135.57Z"/><path class="cls-3" d="M92.87,136.48c3,0,3-4.6,0-4.6S89.9,136.48,92.87,136.48Z"/><path class="cls-3" d="M153.64,181c0,.46,0,.93,0,1.4.22,4,6.16,3.07,5.36-.58l0-.14c-1.26-4.87,4-10.17,7.44-13A28.69,28.69,0,0,1,177,163.23c9.14-2.44,18.65.23,27.75,1.5,7.08,1,14.51,1.37,21.38-1,4.39-1.51,9.88-4.54,11.67-9.13a10.8,10.8,0,0,0,.35-1.1.29.29,0,0,0-.48-.28c-.22.21-.45.41-.67.63-3.16,3-5.66,5.88-10,7.5-4.9,1.82-10.07,1.83-15.17,1.11-9-1.28-17.76-4.22-26.9-4.39a33,33,0,0,0-21.38,6.9C158.66,168.84,154,174.53,153.64,181Z"/><path class="cls-3" d="M188.84,138.34c.66,6,2.74,10.79,8.24,13.69,10.57,5.57,27.2,6.29,37.16-1.14l.09-.07c.47-.35.22-1.2-.43-1l-.45.14c-8.22,2.39-15.6,4.35-24.24,2.25a30,30,0,0,1-10.4-4.48,10.07,10.07,0,0,1-4.16-6.38c-.49-1.93-1.9-9.11,2.52-8.88,3.79.21,3.73-5.58,0-5.87C190.47,126.09,188.23,132.85,188.84,138.34Z"/><path class="cls-3" d="M208.17,131.27c.07,6,1,12.09,6.49,15.49,4.63,2.86,11.35,1.61,16.56.21l1.39-.39a.34.34,0,0,0,.2-.12h0a.37.37,0,0,0-.29-.57h-.18c-.6,0-1.22,0-1.84,0-4.09.23-8.37,1.31-12.16-.58-4.62-2.31-5.92-8.71-4.85-13.34C214.41,128,208.13,127.41,208.17,131.27Z"/><path class="cls-3" d="M219.18,137.68a7.62,7.62,0,0,0,3.28,2.87,9.45,9.45,0,0,0,5,.43.37.37,0,0,0,.19-.08.32.32,0,0,0-.19-.56h-.08c-1.14-.11-5.74-.75-4.84-2.65a1.93,1.93,0,1,0-3.34,0Z"/><path class="cls-3" d="M141.94,180.42c-.1,4.1,6.52,4.08,6.35,0,0-.15,0-.28,0-.42-.14-9.12,7.2-17.44,14.63-22a39.84,39.84,0,0,1,28.73-4.9.4.4,0,0,0,.21-.77c-10.83-3-22-2-31.78,3.77-7.84,4.62-16.79,13-18,22.58A14.74,14.74,0,0,0,141.94,180.42Z"/><path class="cls-3" d="M137.6,166.36c10-16.43,27.75-23.37,46.5-20.16a.08.08,0,0,0,0-.15c-19-6.92-40.16,1.07-51.62,17.35C130.37,166.46,135.61,169.62,137.6,166.36Z"/><path class="cls-3" d="M145.12,143.43c8.21-7.9,22.31-6.54,32.12-3.33l0-.1a31.18,31.18,0,0,0-16.43-4.44c-6.68-.05-11.93,1.82-18.21,3.63C138.62,140.35,142.09,146.35,145.12,143.43Z"/><path class="cls-3" d="M215.33,118.07a.11.11,0,0,0,.22,0c.27-11.56,6.16-22.91,15.95-29.26,8-5.17,17.74-7.36,27-8.83,9.69-1.54,19.56-2.58,28.92-5.69,4.74-1.58,12.82-4.39,17-9a11.51,11.51,0,0,0,1.79-2.46,44.56,44.56,0,0,1-5.66-5.14,4.79,4.79,0,0,0-.16.7,3.89,3.89,0,0,1-.33,1.07c-1.78,3.77-9.73,6.8-12.94,8a100,100,0,0,1-15,4.24c-9.41,2-19.11,3.25-28.18,6.6C226.6,84.8,214.11,98.83,215.33,118.07Z"/><path class="cls-3" d="M208.55,118.81a.32.32,0,0,0,.62-.18c-2.52-12.2,4.07-25.5,12.44-34.06,7.88-8,17.73-13.15,28.29-16.76,9.42-3.23,19.46-4.5,28.64-8.39a39.62,39.62,0,0,0,13-8.92c.47-.48.93-1,1.39-1.47-1.57-1.75-3.13-3.41-4.77-5-.6.75-1.22,1.48-1.86,2.18A30,30,0,0,1,282,50.14c-4.54,3.42-10,5.45-15.33,7.15-10.38,3.29-20.71,6.1-30.12,11.78C220.85,78.55,202,98.65,208.55,118.81Z"/><path class="cls-3" d="M199.87,118.62a.69.69,0,0,0,1.26-.53c-3.72-13.31-.95-25.36,7.67-36.17,7.79-9.77,18.5-17,28.71-24,9.94-6.79,21.28-12,30.57-19.68.48-.4.94-.8,1.39-1.22a33.13,33.13,0,0,0,3.1-3.28,58.8,58.8,0,0,1-8.27-2c-1,.94-2.08,1.85-3.19,2.7-3.17,2.48-6.59,4.62-9.47,6.49A300.88,300.88,0,0,0,221.2,63.7c-8.41,7.15-16.45,15.66-20.76,26C196.79,98.44,195.19,109.94,199.87,118.62Z"/><path class="cls-3" d="M223.08,55.15c0,.1.09.19.18.14,4.93-3,8.9-9.58,11.29-14.68a47.84,47.84,0,0,0,2.87-7.89c.29-1.06.53-2.12.75-3.19-1.95.17-3.88.39-5.83.63-.14,1.06-.32,2.12-.52,3.17a56.79,56.79,0,0,1-1.57,6.33C228.53,45.25,225.23,49.83,223.08,55.15Z"/><path class="cls-3" d="M191.43,121.05c3.36,0,3.35-5.21,0-5.21S188.08,121.05,191.43,121.05Z"/><path class="cls-3" d="M184.37,129.57a1.49,1.49,0,0,0,0-3A1.49,1.49,0,0,0,184.37,129.57Z"/><path class="cls-3" d="M183.72,139.06a1,1,0,0,0,0-2.07A1,1,0,0,0,183.72,139.06Z"/><path class="cls-3" d="M161.35,129.77A69,69,0,0,0,180.09,117c4.5-4.46,11-11.62,11.89-18.08.18-1.34-1.42-2.74-2.55-1.48-2.08,2.33-3.17,5.36-4.8,8a66.22,66.22,0,0,1-6.9,9.19,61.05,61.05,0,0,1-17.06,13.91C159.89,129,160.57,130.15,161.35,129.77Z"/><path class="cls-3" d="M145.2,133.52a1.59,1.59,0,0,0,0-3.18A1.59,1.59,0,0,0,145.2,133.52Z"/><path class="cls-3" d="M134,133.76a1.52,1.52,0,0,0,0-3A1.52,1.52,0,0,0,134,133.76Z"/><path class="cls-3" d="M124.65,129.82a1.42,1.42,0,0,0,0-2.84A1.42,1.42,0,0,0,124.65,129.82Z"/><path class="cls-4" d="M.4,45.57a.65.65,0,0,0,1.21.33q.46-.88.9-1.77C5,39.15,7.27,34,9.7,29c8.84,6.29,18.88,12.67,30.12,11.94C50.1,40.23,59.58,34.31,69,30.22c.93-.41,1.86-.8,2.79-1.15l.39-.16c.16-.07.16-.34,0-.33s-.29,0-.42,0A29.56,29.56,0,0,0,61.47,31.4C55.16,34.17,49.15,38,42.19,38.5c-12.15.82-23-7.19-32.26-14a1.89,1.89,0,0,0-2.59.68C4.57,31.36,1.16,37.79.48,44.63.45,44.93.42,45.25.4,45.57Z"/><path class="cls-4" d="M.87,47.31c1,.63,2,1.25,2.94,1.84s1.75,1.07,2.62,1.57c6.74,3.89,13.49,6.54,21.91,5.59.37,0,.39-.62,0-.6C18.93,56,10,50.3,3.06,44.47a2.22,2.22,0,0,0-.55-.34,1.72,1.72,0,0,0-2,.5A1.71,1.71,0,0,0,.87,47.31Z"/><path class="cls-4" d="M92.41,164.66c1,11.67,1.62,24.47-3.44,35.26-.59,1.24.85,2.7,1.93,1.87a2.08,2.08,0,0,0,.22-.21,18.59,18.59,0,0,0,1.53-2c6-9.32,4-23.84,3-34.12a131.92,131.92,0,0,0-5.08-25.1q-.35-1.11-.72-2.22a116.67,116.67,0,0,0-4.69-12c-.23-.48-1-.14-.85.37a181.46,181.46,0,0,1,7.59,33.14c.16,1.36.32,2.73.44,4.11Z"/><path class="cls-4" d="M109.75,200.29l.24.86a.72.72,0,0,0,.52.52.84.84,0,0,0,1-.73,150.63,150.63,0,0,1,5.6-25.2c.43-1.4.87-2.78,1.34-4.16a222.19,222.19,0,0,1,13.09-30.77.18.18,0,0,0-.32-.18c-.86,1.47-1.73,2.93-2.58,4.4-1.47,2.55-2.91,5.11-4.28,7.7a155.27,155.27,0,0,0-8.15,17.67c-2.2,5.77-5.32,12.75-6.51,19.59a31.58,31.58,0,0,0-.47,4.06A22.31,22.31,0,0,0,109.75,200.29Z"/><path class="cls-4" d="M90.9,201.79a1.83,1.83,0,0,0,.32.3c4.78,3.35,14.52,3.34,19.29-.42.18-.15.36-.3.52-.46a.59.59,0,0,0-.42-1c-.29,0-.58,0-.86.08-2.63.27-5.15,1.06-7.86,1-3.31-.05-6.09-1.16-9.24-1.76l-.32-.07A1.43,1.43,0,0,0,90.9,201.79Z"/><path class="cls-4" d="M96.53,193.08a16.66,16.66,0,0,0,12.67,1,11.81,11.81,0,0,0,1.87-.76c1.93-1,.46-3.84-1.4-3.3a2,2,0,0,0-.42.19,16.25,16.25,0,0,1-5.84,2.37,16.84,16.84,0,0,1-6.52-.33C96.39,192.11,96,192.82,96.53,193.08Z"/><path class="cls-4" d="M115.6,175.19c.49.18,1,.38,1.48.55a191.94,191.94,0,0,0,59.15,12.07A171.64,171.64,0,0,0,248,175.2a154.65,154.65,0,0,0,16.33-7.87c.8-.44,1.59-.89,2.38-1.35a24.23,24.23,0,0,1-5.34-1.76l-2.61,1.36a163.83,163.83,0,0,1-20.45,8.8c-25.69,9-52.83,11.09-79.33,7.42q-2.69-.37-5.37-.82t-5.36-1c-2.07-.42-4.14-.86-6.2-1.34a198.38,198.38,0,0,1-23.66-7.08l-1.55-.58C116.41,172.39,116,173.78,115.6,175.19Z"/><path class="cls-4" d="M3.7,48c0,.39.06.8.11,1.19,2.42,28.39,16,54.19,35.25,74.89a200.37,200.37,0,0,0,53.35,40.62c.9.48,1.83,1,2.74,1.43-.34-1.75-.65-3.5-.91-5.26l-2.36-1.25c-4.42-2.38-8.8-4.93-13.09-7.64q-2.88-1.81-5.7-3.74a182.62,182.62,0,0,1-36.33-32.07s0,0,0,0c-1.47-1.71-2.9-3.47-4.28-5.24s-2.72-3.55-4-5.37h0c-.81-1.13-1.6-2.28-2.37-3.43-1.58-2.38-3.1-4.81-4.52-7.28-.1-.16-.18-.32-.27-.48-1.1-1.9-2.15-3.84-3.14-5.8-.57-1.13-1.13-2.28-1.66-3.42s-1-2.19-1.49-3.3c-.65-1.48-1.25-3-1.84-4.49A113,113,0,0,1,6.43,50.72c-.12-.91-.22-1.84-.32-2.76C6,46.45,3.59,46.41,3.7,48Z"/><path class="cls-4" d="M85.7,23.07a41.21,41.21,0,0,1,2,3.89c.43,0,.87,0,1.31,0a54,54,0,0,1,13.54,1.94,97.69,97.69,0,0,1,22.66,9.87c6.65,3.81,12.87,8.48,19.88,11.65,10.05,4.56,20.45,4.1,30.63,1.36,1.8-.47,3.58-1,5.36-1.63.82-.28,1.63-.57,2.45-.87,13.94-5.17,27.14-11.64,41.76-14.81,2.17-.47,4.33-.85,6.48-1.16q2.81-.4,5.6-.61a76,76,0,0,1,23.69,1.77,69.65,69.65,0,0,1,25.17,11.73c1.79,1.32,3.53,2.75,5.24,4.28,1.5,1.35,3,2.77,4.4,4.28s2.84,3.11,4.16,4.73c1.54,1.88,3,3.83,4.36,5.83a89,89,0,0,1,14.25,35.85c.4,2.45.7,4.91.89,7.4a90.78,90.78,0,0,1,.17,13c-1.39,23.74-9.59,47.44-20.55,68.63h0c-.46.89-.92,1.78-1.39,2.65-.83,1.56-1.68,3.1-2.54,4.64a2.06,2.06,0,0,0-.25,1.39,2.25,2.25,0,0,0,2.21,1.68,1.93,1.93,0,0,0,1.61-1c15.69-26.18,27.49-57,26.41-87.9A94,94,0,0,0,303.9,55.63c-1.6-2-3.3-3.83-5.07-5.64-1-1-2-2-3-2.9-20.37-18.89-47-23.64-73.65-17.35C206.77,33.38,193,40.79,178,45.77c-8,2.67-16.55,4.34-24.89,2.29-7.46-1.84-13.89-6.4-20.38-10.33-12-7.31-25.14-13.54-39.38-14.69A46,46,0,0,0,87.06,23C86.61,23,86.16,23,85.7,23.07Z"/><path class="cls-4" d="M56,35.83a83.21,83.21,0,0,1,13-5.61c.95-.31,1.89-.6,2.83-.87.6-.16,1.2-.33,1.81-.48-.18-1-.33-2-.5-3-.59.21-1.19.44-1.79.68a72.73,72.73,0,0,0-9.89,4.82c-2,1.14-4,2.38-5.9,3.68A.43.43,0,0,0,56,35.83Z"/><path class="cls-4" d="M222.69,122.49a47.63,47.63,0,0,0,2.77,13.32c.28.79.58,1.57.92,2.34s.63,1.46,1,2.18q.13.3.27.57a46,46,0,0,0,2.87,5c.23.36.47.71.72,1.06.7,1,1.44,2,2.23,3,.26.31.52.63.79.94q1.33,1.55,2.79,3c.26.26.53.51.8.75a42.69,42.69,0,0,0,9,6.46,67.39,67.39,0,0,0,11.91,4.51c1.87.57,3.73,1.12,5.57,1.75a49.43,49.43,0,0,1,6.58,2.7c10.39,5.28,13,15.65,7.54,25.66a1.82,1.82,0,0,0-.19,1.23h0a1.8,1.8,0,0,0,3.07,1l.48-.57c4.84-6.06,5-15.31,1-21.87-4.32-7.11-12.39-9.94-20-12-9.95-2.74-19.15-5.82-26.66-13.26a43.68,43.68,0,0,1-3.36-3.73h0c-.17-.18-.32-.38-.47-.57-.49-.62-1-1.25-1.39-1.89a44.16,44.16,0,0,1-4.87-8.89,45.14,45.14,0,0,1-3.15-12.61C222.92,122.34,222.68,122.33,222.69,122.49Z"/><path class="cls-4" d="M279,200.92c5.06,1.49,13.52,3.53,18.19-.34a7.62,7.62,0,0,0,.82-.79c.22-.25.17-.77-.22-.83a12.58,12.58,0,0,0-2.81-.06,43.7,43.7,0,0,1-4.57.34,20.1,20.1,0,0,1-8.61-1.89c-.36-.19-.71-.38-1.06-.6a2,2,0,0,0-2.49.17h0A2.3,2.3,0,0,0,279,200.92Z"/><path class="cls-4" d="M287.85,191.56a30.86,30.86,0,0,0,6.32,1.09c1.17.07,2.41.2,3.64.22a11.3,11.3,0,0,0,3-.21c1.47-.33,1.15-2.77-.35-2.63-.42,0-.83.11-1.24.18h0a43,43,0,0,1-5,1,62.66,62.66,0,0,1-6.28.09A.14.14,0,0,0,287.85,191.56Z"/><path class="cls-4" d="M63.26,3a77.14,77.14,0,0,1,8.1,23.59c.13.67.25,1.34.36,2,0,.15.06.31.08.46a2.36,2.36,0,0,1,0,.28c.74,4.51,1.25,9.11,1.69,13.88.07.73.56.18.72-.64,2.39-12.27-.37-24.92-5.73-36.05A60.4,60.4,0,0,1,93.24,48.77c0,.35.57.38.57,0A53.8,53.8,0,0,0,89.06,27c-.61-1.36-1.28-2.7-2-4A56.43,56.43,0,0,0,65.3,1,1.5,1.5,0,0,0,63.26,3Z"/><path class="cls-4" d="M77,44.2c-.1,1.63,2.46,1.63,2.53,0,.36-9.42.11-18-4-26.63-.08-.15-.34,0-.28.12C78.25,26,77.51,35.49,77,44.2Z"/><path class="cls-4" d="M53.3,47.29c3.32.46,6.63,1.58,7.79,5.09a1.69,1.69,0,1,0,3.11-1.31c-1.82-3.61-7.1-6.73-11-4.24C53.07,46.94,53.06,47.26,53.3,47.29Z"/><path class="cls-4" d="M310.75,25a21.58,21.58,0,0,0,1.07-2.75,19.91,19.91,0,0,0-.93-13.64,17.88,17.88,0,0,0-4.59-6.21A11.18,11.18,0,0,0,302,0h0c6,4.49,9.59,13.13,7.51,20.19a17.56,17.56,0,0,1-.83,2.26A15.17,15.17,0,0,0,307,21.14c-3.61-2.48-10.6-5.2-15-3.63-4.1,1.47-4.47,5.9-2.08,9.09,2.88,3.83,8.91,7.57,13.82,5.8a8.67,8.67,0,0,0,1.93-1c1.24,5.39-1,12.16-4.42,16.19a19.71,19.71,0,0,1-5.17,4.32c1.85,1.81,3.65,3.67,5.43,5.55a26,26,0,0,0,5.16-4.55C312.64,46,316.17,33.09,310.75,25Zm-6.66,2.8a6.33,6.33,0,0,1-6.13-.41c-1-.52-6-3.6-3.25-4.56,1.08-.38,4.14,1.16,5.17,1.61A9.62,9.62,0,0,1,304.09,27.76Z"/><path class="cls-4" d="M95.44,89.7c-15.7,5.5-31.4,12.14-48.39,10.55-9.74-.91-20.89-5-28.9-11.75,1,2,2,3.9,3.14,5.8a.1.1,0,0,1,.17,0c16.56,18.53,45.28,8.2,65.79,3.95,3.52-.72,5,4.75,1.48,5.38-21.84,3.88-50.85,11.2-67.17-8.84,1.42,2.47,2.94,4.9,4.52,7.28a56.29,56.29,0,0,0,21,10.16A49.41,49.41,0,0,0,60,113.77c3.93,0,7.94-1.38,11.79-.71,1.55.27,1.44,2.31.39,3-3.32,2.36-9,2.18-12.89,2a51.79,51.79,0,0,1-13.9-2.47,43.47,43.47,0,0,1-16.9-10.18c1.29,1.82,2.62,3.61,4,5.37A67.84,67.84,0,0,0,58.71,124c2.44.64,1.35,4.56-1,3.77a66.75,66.75,0,0,1-20.91-11.61A182.62,182.62,0,0,0,73.09,148.2a19.37,19.37,0,0,0,3.6.5c10.49.41,3.82-11.54-.18-14.36-1.09-.77-3.9-2.8-5.05-2.67-2.24,1.12-2.73,2.39-1.45,3.81a5.45,5.45,0,0,0,4.61,2A2.09,2.09,0,0,1,76.07,141c-5.67,5.76-14.76-5.18-12.13-11,3.68-8.21,15.63.77,18.85,4.8,4.27,5.32,5.53,16.6-3.75,17.18h-.25c4.29,2.71,8.67,5.26,13.09,7.64a181.46,181.46,0,0,0-7.59-33.14c-.17-.51.62-.85.85-.37a116.67,116.67,0,0,1,4.69,12c5.06,7,12.15,13.25,20.68,14.5,5.18.75,11.41-.87,13.15-6.44a9.72,9.72,0,0,0-.3-7,3.78,3.78,0,0,0-2.22-2.49c-1.3-.42-1.54-.33-2.64.57-.51.42-3.14,3-1.46,4.2,3.41,2.35-.52,7.34-3.45,4.47-4.94-4.84-.9-15.47,6.35-14.75,6.48.65,9.52,7.84,8.67,13.86.85-1.47,1.72-2.93,2.58-4.4a.18.18,0,0,1,.32.18,222.19,222.19,0,0,0-13.09,30.77,198.38,198.38,0,0,0,23.66,7.08c1.2-9.58,10.15-18,18-22.58,9.78-5.78,21-6.8,31.78-3.77a.4.4,0,0,1-.21.77,39.84,39.84,0,0,0-28.73,4.9c-7.43,4.58-14.77,12.9-14.63,22q2.67.51,5.36,1c.32-6.45,5-12.14,9.91-16a33,33,0,0,1,21.38-6.9c9.14.17,17.9,3.11,26.9,4.39,5.1.72,10.27.71,15.17-1.11,4.37-1.62,6.87-4.49,10-7.5q-1.46-1.43-2.79-3c-10,7.43-26.59,6.71-37.16,1.14-5.5-2.9-7.58-7.73-8.24-13.69-.61-5.49,1.63-12.25,8.33-11.75,3.73.29,3.79,6.08,0,5.87-4.42-.23-3,6.95-2.52,8.88a10.07,10.07,0,0,0,4.16,6.38,30,30,0,0,0,10.4,4.48c8.64,2.1,16,.14,24.24-2.25-.79-1-1.53-2-2.23-3-5.21,1.4-11.93,2.65-16.56-.21-5.51-3.4-6.42-9.53-6.49-15.49,0-3.86,6.24-3.23,5.32.72-1.07,4.63.23,11,4.85,13.34,3.79,1.89,8.07.81,12.16.58a46,46,0,0,1-2.87-5,.37.37,0,0,1-.19.08,9.45,9.45,0,0,1-5-.43,7.62,7.62,0,0,1-3.28-2.87,1.93,1.93,0,1,1,3.34,0c-.9,1.9,3.7,2.54,4.84,2.65-.35-.72-.68-1.44-1-2.18a12.37,12.37,0,0,1-.92-2.34,47.63,47.63,0,0,1-2.77-13.32c0-.16.23-.15.24,0a45.14,45.14,0,0,0,3.15,12.61c2,2.64,3.66,5.5,6.2,7.8a25.56,25.56,0,0,0,11.93,5.91,30.81,30.81,0,0,0,27.42-8.26c7.22-7.06,7.69-19-2.17-24.1-4.27-2.21-11.25-3.22-14.12,1.58-1.76,3-2.08,10,1.87,11.45,4.73,1.73,2,8.44-2.71,6.43-11.48-4.84-7.7-24.51,3.81-26.61,12.32-2.24,24.81,7.87,23.9,20.6a19,19,0,0,1-.37,2.65c3.35-5.25,5.94-10.92,9.73-15.88A46,46,0,0,1,306,104.42c3.35-1.85,8.45-4,12.66-3.23a89,89,0,0,0-14.25-35.85c-4.21,4.56-12.29,7.37-17,9-9.36,3.11-19.23,4.15-28.92,5.69-9.25,1.47-19,3.66-27,8.83-9.79,6.35-15.68,17.7-15.95,29.26a.11.11,0,0,1-.22,0C214.11,98.83,226.6,84.8,244,78.39c9.07-3.35,18.77-4.57,28.18-6.6a100,100,0,0,0,15-4.24c3.21-1.24,11.16-4.27,12.94-8q-2-2.43-4.16-4.73c-1.43-1.51-2.9-2.93-4.4-4.28a39.62,39.62,0,0,1-13,8.92c-9.18,3.89-19.22,5.16-28.64,8.39-10.56,3.61-20.41,8.71-28.29,16.76-8.37,8.56-15,21.86-12.44,34.06a.32.32,0,0,1-.62.18c-6.58-20.16,12.3-40.26,28-49.74,9.41-5.68,19.74-8.49,30.12-11.78,5.37-1.7,10.79-3.73,15.33-7.15a30,30,0,0,0,4.27-3.92,68.21,68.21,0,0,0-16.81-9.16c-.45.42-.91.82-1.39,1.22-9.29,7.65-20.63,12.89-30.57,19.68-10.21,7-20.92,14.19-28.71,24-8.62,10.81-11.39,22.86-7.67,36.17a.69.69,0,0,1-1.26.53c-4.68-8.68-3.08-20.18.57-28.94,4.31-10.32,12.35-18.83,20.76-26A300.88,300.88,0,0,1,251.64,41c2.88-1.87,6.3-4,9.47-6.49a76,76,0,0,0-23.69-1.77,47.84,47.84,0,0,1-2.87,7.89c-2.39,5.1-6.36,11.69-11.29,14.68-.09.05-.22,0-.18-.14,2.15-5.32,5.45-9.9,7.17-15.49a56.79,56.79,0,0,0,1.57-6.33c-2.15.31-4.31.69-6.48,1.16-14.62,3.17-27.82,9.64-41.76,14.81-.82.3-1.63.59-2.45.87.34,9.81-10,15.74-18.55,17.51-5.43,1.13-10.75.85-16.24.48-.6,0-1.2-.08-1.79-.1,4.44,1.86,8,5.47,9.55,11.46,1.78,6.74-1.27,16.42-10.13,14.24-7-1.74-8.88-11.52-2.33-15.08,3.65-2,6.92,3.78,3.23,5.54-2.72,1.3-.2,5.39,2.26,4.83s3.71-3.57,3.66-5.71a14.8,14.8,0,0,0-.56-3.44,13.93,13.93,0,0,0-10.55-10.12A35.79,35.79,0,0,0,115,73.89a23.7,23.7,0,0,1,13,7.34c7.46,8.27,6.46,24-6.6,25.63-6.69.81-13.51-3.57-14.32-10.53-.62-5.36,4.23-13.08,10.22-9.51a2.53,2.53,0,0,1,.89,3.42c-2,2.7-5.87,5.2-1.82,8.36a6,6,0,0,0,9.14-2.82c2.77-7.93-5.69-14.24-12.25-16C97.15,75.48,80.68,86.1,65.57,90.2c-14.28,3.87-29.52,4.53-42.76-3A53.82,53.82,0,0,1,15,81.78c.48,1.11,1,2.21,1.49,3.3A43.36,43.36,0,0,0,30,93.72a57,57,0,0,0,21.29,3.52C66.37,96.91,80.22,89.6,93.88,84,97.33,82.63,99,88.44,95.44,89.7ZM132.2,75.18a2.56,2.56,0,0,1-1.45,1.11,2,2,0,0,1-2.47-2.47,2.54,2.54,0,0,1,1.12-1.45A2.07,2.07,0,0,1,132.2,75.18ZM314.08,94c2.55,0,2.56,4,0,4A2,2,0,0,1,314.08,94Zm-58.47,47c3-.56,6-3.22,7.86-5.51,1.54-1.84,3.28-7.66,1-9.9-6.29,1.27-2.62-10.15,1.77-5.34,1.73,1.9,2.93,3.43,3.08,6.1a18.2,18.2,0,0,1-1.32,8.26c-2.07,4.31-7.9,6.47-12.33,6.66C255.5,141.23,255.46,141,255.61,141Zm47.54-42.25a1.76,1.76,0,0,1,0,3.51A1.76,1.76,0,0,1,303.15,98.71Zm-10.91,6.57a1.53,1.53,0,0,1,2.38.31c0,.09.09.18.12.26a1.43,1.43,0,0,1-1.93,1.94l-.26-.14A1.52,1.52,0,0,1,292.24,105.28Zm-7.39,6.47c3.66,0,3.67,5.69,0,5.69S281.19,111.75,284.85,111.75Zm-38.11.31c-.19.25-.56-.1-.34-.33A33.84,33.84,0,0,1,266,101.37c6.37-1.07,32-1.34,28.93-12.45-1.08-3.94,5-5.62,6.12-1.68C304,97.91,292.89,103,284.2,104.1,272.41,105.61,255.33,101.48,246.74,112.06Zm-12.73.58c2.24-10.44,10-19.48,21-20.47,4.07-.38,4.2,6.38,0,6.43-8.47.12-15,7.37-17.47,15-3.19,10,3.67,20.32,11.53,26.09a.21.21,0,0,1-.22.36C238.64,135.65,231.68,123.48,234,112.64ZM104.75,86.56c-2.77,0-2.78-4.29,0-4.29S107.52,86.56,104.75,86.56Zm57.35-13.7c0,1.25-1.59,2.39-2.73,1.56l-.1-.09a1.74,1.74,0,0,1,0-3l.1-.08C160.51,70.46,162.1,71.6,162.1,72.86ZM175.54,69a1.81,1.81,0,0,1-1.77,1.77A1.78,1.78,0,0,1,172,69a1.8,1.8,0,0,1,1.76-1.76A1.78,1.78,0,0,1,175.54,69ZM201.9,50.36A25,25,0,0,0,191,58.2c-6.75,8-9,18.8-11.46,28.71-2.1,8.37-3.92,16.85-9.52,23.69-5.31,6.48-13.43,10.85-21,14.19-.39.17-.75-.39-.35-.6,12.27-6.56,22-14.9,25-29,2.7-12.73,3.92-26.9,11-38.15,5.27-8.34,15.41-16.46,25.94-14.12,8.73,1.93,12.36,13.92,2.9,17.65-4.21,1.66-6.09-5.19-1.87-6.82,2.63-1-1.89-3.92-3.05-4.13A13.46,13.46,0,0,0,201.9,50.36Zm-41,85.2A31.18,31.18,0,0,1,177.29,140l0,.1c-9.81-3.21-23.91-4.57-32.12,3.33-3,2.92-6.5-3.08-2.47-4.24C148.93,137.38,154.18,135.51,160.86,135.56Zm-15.66-2a1.59,1.59,0,0,1,0-3.18A1.59,1.59,0,0,1,145.2,133.52Zm48.18-64.3c-3.07,3.9-4.57,8.57-5.79,13.32-1.82,7.07-3.08,16.27-8.94,21.31l-.12-.1a46.08,46.08,0,0,0,5.31-15.29c.68-5,1-10,2.35-14.89C187.74,68,193.18,57,200.44,59a2.16,2.16,0,0,1,1.29,3.16C199.62,65.16,195.76,66.19,193.38,69.22Zm-1.95,46.62c3.35,0,3.36,5.21,0,5.21S188.08,115.84,191.43,115.84ZM180.09,117a69,69,0,0,1-18.74,12.73c-.78.38-1.46-.75-.68-1.17a61.05,61.05,0,0,0,17.06-13.91,66.22,66.22,0,0,0,6.9-9.19c1.63-2.66,2.72-5.69,4.8-8,1.13-1.26,2.73.14,2.55,1.48C191.05,105.42,184.59,112.58,180.09,117Zm4.28,12.53a1.49,1.49,0,0,1,0-3A1.49,1.49,0,0,1,184.37,129.57Zm-.65,9.49a1,1,0,0,1,0-2.07A1,1,0,0,1,183.72,139.06Zm-51.2,24.34c11.46-16.28,32.63-24.27,51.62-17.35a.08.08,0,0,1,0,.15c-18.75-3.21-36.55,3.73-46.5,20.16C135.61,169.62,130.37,166.46,132.52,163.4ZM134,133.76a1.52,1.52,0,0,1,0-3A1.52,1.52,0,0,1,134,133.76ZM124.65,127a1.42,1.42,0,0,1,0,2.84A1.42,1.42,0,0,1,124.65,127Zm-6.23-6.81c12.25,1.6,25.78-.47,35.28-8.87A32.94,32.94,0,0,0,163,98.07a25.93,25.93,0,0,0,1.61-7.42c.15-2.48-.41-4.38.83-6.61a2.06,2.06,0,0,1,3.21-.43c3.6,3.75,1.34,11.66-.28,15.93a34.38,34.38,0,0,1-11,14.83c-11.06,8.56-25.83,9.3-39,6.81C117.73,121.07,117.84,120.1,118.42,120.17Zm-18.56-28c0-.22.3-.31.35-.09,1.86,8.77,7.61,19.5,16.73,22.43a16,16,0,0,0,13.44-2.22c3.85-2.51,5.17-6.51,8.33-9.45,1.52-1.44,4.58-.52,4.42,1.83-.81,10.91-15.77,16.21-24.79,12.68C108,113.36,101.63,102.65,99.86,92.2Zm-1.4,43.37c-.25-5,1.75-9.62,1.73-14.59a.21.21,0,0,1,.41,0c1.8,7.56-1.1,16.2,5.29,22.1,2.5,2.3-1.87,6-3.78,2.92A21.09,21.09,0,0,1,98.46,135.57Zm-5.59-3.69c3,0,3,4.6,0,4.6S89.9,131.88,92.87,131.88Zm1.51-14.58c1.49,2.77-2.94,5.18-4.13,2.42-1-2.38-3.76-2.66-6-2.24a5.8,5.8,0,0,0-4.8,7.58.2.2,0,0,1-.37.15C74.94,116.89,90.17,109.53,94.38,117.3Zm8.72-6.43c6.3,4.22,7.74,10.13,8.69,17.17.26,1.93-1.25,4.46-3.58,3.58a4.23,4.23,0,0,1-.69-.3,3,3,0,0,1-1.33-3.28c2.17-5.6-1.17-12.55-5.75-15.83-5.46-3.92-11-2.54-17.21-2.85-.22,0-.3-.36-.06-.42C89.85,107.46,97.18,106.91,103.1,110.87Z"/></g></g></svg>