<svg xmlns="http://www.w3.org/2000/svg" viewBox="0 0 141.11 180.97"><title>pig-icon-05</title><g id="Objects_path-filder"><path fill="#ffed4a" d="M63.09,116a4.68,4.68,0,1,0,4.67,4.67A4.68,4.68,0,0,0,63.09,116Zm18.55,0a4.68,4.68,0,1,0,4.67,4.67A4.68,4.68,0,0,0,81.64,116Zm0,0a4.68,4.68,0,1,0,4.67,4.67A4.68,4.68,0,0,0,81.64,116Zm-18.55,0a4.68,4.68,0,1,0,4.67,4.67A4.68,4.68,0,0,0,63.09,116Zm0,0a4.68,4.68,0,1,0,4.67,4.67A4.68,4.68,0,0,0,63.09,116Zm18.55,0a4.68,4.68,0,1,0,4.67,4.67A4.68,4.68,0,0,0,81.64,116Zm0,0a4.68,4.68,0,1,0,4.67,4.67A4.68,4.68,0,0,0,81.64,116Zm-18.55,0a4.68,4.68,0,1,0,4.67,4.67A4.68,4.68,0,0,0,63.09,116Zm0,0a4.68,4.68,0,1,0,4.67,4.67A4.68,4.68,0,0,0,63.09,116Zm18.55,0a4.68,4.68,0,1,0,4.67,4.67A4.68,4.68,0,0,0,81.64,116Zm0,0a4.68,4.68,0,1,0,4.67,4.67A4.68,4.68,0,0,0,81.64,116Zm-18.55,0a4.68,4.68,0,1,0,4.67,4.67A4.68,4.68,0,0,0,63.09,116Zm0,0a4.68,4.68,0,1,0,4.67,4.67A4.68,4.68,0,0,0,63.09,116Zm18.55,0a4.68,4.68,0,1,0,4.67,4.67A4.68,4.68,0,0,0,81.64,116Zm0,0a4.68,4.68,0,1,0,4.67,4.67A4.68,4.68,0,0,0,81.64,116Zm-18.55,0a4.68,4.68,0,1,0,4.67,4.67A4.68,4.68,0,0,0,63.09,116Zm73.25-86.83s-24.79-1.07-40.06,11.44a66.89,66.89,0,0,0-50.83.52C30.24,28,4.77,29.14,4.77,29.14-3.09,57.27,5.83,76.47,8.33,81.06a66.73,66.73,0,0,0,4.25,52.83L19.07,181H31l1.9-5.58L35.28,181H47.67l1-15.67a67.21,67.21,0,0,0,45.57,0l1,15.67h12.4l2.39-5.58L112,181h11.91l6.5-47.09a66.83,66.83,0,0,0,3.45-55C137.15,71.82,143.27,54,136.34,29.14ZM97.51,87.74a4.63,4.63,0,0,1,4.63,4.6H92.88A4.63,4.63,0,0,1,97.51,87.74Zm-52,0a4.63,4.63,0,0,1,4.63,4.6H40.88A4.63,4.63,0,0,1,45.51,87.74ZM33,48c-.51.35-1,.72-1.51,1.1-.31.23-.63.47-.93.72-.72.55-1.42,1.12-2.11,1.7-.17.14-.35.29-.51.44l-.35.3-.12.1,0,0q-.62.52-1.2,1.08c-.52.48-1,1-1.53,1.46s-.79.79-1.17,1.19c-.17.17-.34.34-.5.52-.43.44-.84.89-1.25,1.35l0,0q-.71.78-1.38,1.59c-.46.54-.91,1.09-1.34,1.65s-.87,1.12-1.29,1.69-.83,1.14-1.24,1.73-.74,1.1-1.1,1.66a2.4,2.4,0,0,0-.19.29c-.35.54-.68,1.08-1,1.63s-.72,1.22-1.07,1.84a0,0,0,0,0,0,0c-.12-.28-.23-.56-.34-.85-.34-.86-.66-1.77-1-2.72-.2-.64-.39-1.31-.56-2s-.35-1.36-.49-2.07c-.08-.37-.15-.74-.21-1.12s-.14-.75-.19-1.13c-.13-.76-.23-1.54-.3-2.35a48.28,48.28,0,0,1-.23-6.69c0-.54,0-1.09.08-1.65.06-1.12.16-2.26.31-3.44.06-.59.15-1.19.24-1.8s.18-1.21.3-1.83.23-1.25.36-1.89.28-1.28.43-1.93c0,0,13.33.35,24.8,7.12-.6.37-1.2.76-1.79,1.15s-1,.71-1.57,1.07Zm.8,57.37a7.67,7.67,0,1,1,7.67,7.67A7.67,7.67,0,0,1,33.84,105.4Zm50.67,40.14a7.74,7.74,0,0,1-9.07-3.3s3.13,1.49,8.1,0,6.8-4.42,6.8-4.42A7.74,7.74,0,0,1,84.51,145.54Zm-13-8.81c-20.87,0-26.56-6.63-24.66-16.12a25.22,25.22,0,0,1,49.32,0C98.07,130.1,92.38,136.73,71.51,136.73Zm30-23.66a7.67,7.67,0,1,1,7.67-7.67A7.67,7.67,0,0,1,101.51,113.07ZM128.7,68.15A68.52,68.52,0,0,0,124,61.4a67.32,67.32,0,0,0-18.35-16.17c11.23-6.22,23.81-6.55,23.81-6.55C132.52,51.42,131.21,61.16,128.7,68.15ZM81.64,116a4.68,4.68,0,1,0,4.67,4.67A4.68,4.68,0,0,0,81.64,116Zm-18.55,0a4.68,4.68,0,1,0,4.67,4.67A4.68,4.68,0,0,0,63.09,116Zm0,0a4.68,4.68,0,1,0,4.67,4.67A4.68,4.68,0,0,0,63.09,116Zm18.55,0a4.68,4.68,0,1,0,4.67,4.67A4.68,4.68,0,0,0,81.64,116Zm0,0a4.68,4.68,0,1,0,4.67,4.67A4.68,4.68,0,0,0,81.64,116Zm-18.55,0a4.68,4.68,0,1,0,4.67,4.67A4.68,4.68,0,0,0,63.09,116Zm0,0a4.68,4.68,0,1,0,4.67,4.67A4.68,4.68,0,0,0,63.09,116Zm18.55,0a4.68,4.68,0,1,0,4.67,4.67A4.68,4.68,0,0,0,81.64,116Zm0,0a4.68,4.68,0,1,0,4.67,4.67A4.68,4.68,0,0,0,81.64,116Zm-18.55,0a4.68,4.68,0,1,0,4.67,4.67A4.68,4.68,0,0,0,63.09,116Zm0,0a4.68,4.68,0,1,0,4.67,4.67A4.68,4.68,0,0,0,63.09,116Zm18.55,0a4.68,4.68,0,1,0,4.67,4.67A4.68,4.68,0,0,0,81.64,116Zm0,0a4.68,4.68,0,1,0,4.67,4.67A4.68,4.68,0,0,0,81.64,116Zm-18.55,0a4.68,4.68,0,1,0,4.67,4.67A4.68,4.68,0,0,0,63.09,116Z"/><path fill="#ffed4a" d="M67.76,120.64A4.67,4.67,0,1,1,63.09,116,4.68,4.68,0,0,1,67.76,120.64Z"/><path fill="#ffed4a" d="M86.31,120.64A4.67,4.67,0,1,1,81.64,116,4.68,4.68,0,0,1,86.31,120.64Z"/></g></svg>