<svg xmlns="http://www.w3.org/2000/svg" viewBox="0 0 141.11 180.97"><defs><style>.cls-1{fill:#fff;}</style></defs><title>pig-icon-08</title><g id="Objects_path-filder"><path class="cls-1" d="M36.41,45.05c-11.47-6.76-24.8-7.12-24.8-7.12-3.32,14-1.42,24.37,1.56,31.46A67.05,67.05,0,0,1,36.41,45.05Z"/><path class="cls-1" d="M128.7,67.41c2.51-7,3.82-16.74.8-29.48,0,0-12.58.33-23.81,6.56A67,67,0,0,1,128.7,67.41Z"/><path d="M136.34,28.4s-24.79-1.07-40.06,11.44L95,39.36A67.11,67.11,0,0,0,82.6,36h0a67.31,67.31,0,0,0-11.07-.92,66.31,66.31,0,0,0-9.83.73h0a65.36,65.36,0,0,0-12.45,3.1c-1.27.45-2.53.93-3.77,1.46C30.24,27.3,4.77,28.4,4.77,28.4-3.09,56.53,5.83,75.73,8.33,80.32A66.71,66.71,0,0,0,12.5,133l6.57,48H31l1.9-5.58L35.28,181H47.67l1.1-16.4a67.11,67.11,0,0,0,45.48,0L95.34,181h12.4l2.39-5.58L112,181h11.91l6.58-48a66.83,66.83,0,0,0,3.37-54.9C137.15,71.08,143.27,53.22,136.34,28.4ZM13.17,69.4c-3-7.1-4.88-17.47-1.56-31.47,0,0,13.33.36,24.8,7.13A67.05,67.05,0,0,0,13.17,69.4Zm115.53-2a67.12,67.12,0,0,0-23-22.92c11.23-6.22,23.81-6.56,23.81-6.56C132.52,50.68,131.21,60.41,128.7,67.41Z"/><path class="cls-1" d="M112.75,134.4c2.21,7-6.71,13-11.71,7.5s-6.79-18-15.5-20.5c-6.64-1.9-11.7.93-14,5.07-2.33-4.14-7.39-7-14-5.07-8.7,2.49-10.5,15-15.5,20.5s-13.91-.5-11.7-7.5c0,0-6,2.47-2.55,10.75,3.25,7.71,17.16,11.62,34,4a20,20,0,0,0,9.79-8.77,20,20,0,0,0,9.78,8.77c16.84,7.62,30.75,3.71,34-4C118.78,136.87,112.75,134.4,112.75,134.4Z"/><circle class="cls-1" cx="45.51" cy="90.4" r="4.5"/><circle class="cls-1" cx="97.51" cy="90.4" r="4.5"/><path class="cls-1" d="M98.91,121.08a28,28,0,0,0-54.8,0C42,131.61,48.33,139,71.51,139S101,131.61,98.91,121.08Z"/><path d="M67.35,121.11a5.19,5.19,0,1,1-5.19-5.19A5.19,5.19,0,0,1,67.35,121.11Z"/><path d="M88,121.11a5.19,5.19,0,1,1-5.18-5.19A5.18,5.18,0,0,1,88,121.11Z"/><path d="M87.62,35.36a25.43,25.43,0,0,1,6.22.8c3.28-6,3.86-12,1.68-17.35-2.81-7-10.17-12.65-19.69-15.21A16.69,16.69,0,0,0,71.48,3a14.88,14.88,0,0,0-8.31,2.6,13.38,13.38,0,0,1,3.51-.48c5.77,0,9.84,4,10.74,7.81A6.38,6.38,0,0,1,74,20.4a13.9,13.9,0,0,1-6.46,1.31c-1.58,0-3.21-.14-4.79-.29s-3.11-.28-4.6-.28a10.67,10.67,0,0,0-6.68,1.8,8.09,8.09,0,0,0-3.53,5.51,11.09,11.09,0,0,0,1.88,7.14,18.06,18.06,0,0,1,5.7-.94c6.94,0,13,4.06,16.64,10.83C74.87,38.92,80.26,35.36,87.62,35.36Z"/><path class="cls-1" d="M98.3,17.69C95.14,9.86,87,3.51,76.61.71A19.63,19.63,0,0,0,71.48,0C59.74,0,54,11.25,53.72,11.73a1.48,1.48,0,0,0,.46,1.89,1.5,1.5,0,0,0,1.94-.16C59.61,10,63.26,8.12,66.68,8.12a7.91,7.91,0,0,1,7.82,5.5,3.41,3.41,0,0,1-1.9,4.11,11.18,11.18,0,0,1-5.11,1c-1.44,0-2.93-.14-4.51-.28s-3.26-.3-4.89-.3a13.89,13.89,0,0,0-8.44,2.39,11,11,0,0,0-4.74,7.53,14.33,14.33,0,0,0,3.14,10.27,1.48,1.48,0,0,0,1.17.57,1.65,1.65,0,0,0,.57-.11,15.07,15.07,0,0,1,5.68-1.14c6.82,0,12.74,4.82,15.43,12.58a1.51,1.51,0,0,0,1.42,1h.08a1.49,1.49,0,0,0,1.38-1.16c1.8-7.77,6.46-11.71,13.83-11.71a21.9,21.9,0,0,1,6.45,1,1.5,1.5,0,0,0,1,0,1.44,1.44,0,0,0,.8-.66C100.12,31.56,101,24.29,98.3,17.69ZM93.84,36.16a25.45,25.45,0,0,0-6.23-.8c-.45,0-.89,0-1.33,0h0c-.38,0-.76.06-1.13.11l-.34,0c-.26,0-.52.07-.77.12l-.42.08c-.18,0-.35.07-.52.12L82.6,36h0l-.72.21-.54.19-.57.21-.06,0c-.21.08-.42.17-.62.27l-.4.19a5.12,5.12,0,0,0-.52.27c-.17.09-.34.18-.51.29s-.34.2-.5.31-.49.33-.72.51l-.16.12-.12.08a14.93,14.93,0,0,0-1.61,1.47,2.09,2.09,0,0,0-.2.22s0,0,0,0c-.21.23-.41.46-.6.7l0,.06a11.21,11.21,0,0,0-.69.93c-.19.28-.38.57-.56.87l0,.07c-.08.13-.15.26-.22.39l-.07.11-.18.33,0,.09,0,.1s0,0,0,0-.17.33-.25.51-.28.6-.41.91c-.15-.29-.31-.58-.48-.86s-.33-.55-.5-.82l-.48-.73L70.6,43c-.18-.26-.37-.51-.56-.76s-.38-.49-.58-.73-.33-.39-.49-.58l-.74-.79-.64-.63h0c-.22-.2-.44-.4-.67-.59l-.69-.56-.36-.27c-.11-.09-.23-.17-.35-.25l-.73-.49-.71-.43c-.41-.23-.83-.45-1.26-.64L62.26,36c-.19-.09-.39-.16-.58-.24h0l-.74-.26-.34-.11-.35-.11-.12,0-.7-.17-.76-.17c-.42-.07-.85-.14-1.28-.18-.21,0-.41,0-.62-.06l-.48,0-.81,0a17.8,17.8,0,0,0-5.7,1,11.09,11.09,0,0,1-1.88-7.14,8.11,8.11,0,0,1,3.53-5.52,10.72,10.72,0,0,1,6.67-1.8c1.5,0,3.08.14,4.61.28s3.21.3,4.79.3A14,14,0,0,0,74,20.41a6.39,6.39,0,0,0,3.47-7.48c-.9-3.78-5-7.81-10.74-7.81a13.44,13.44,0,0,0-3.51.49A14.81,14.81,0,0,1,71.48,3a16.71,16.71,0,0,1,4.35.61c9.52,2.56,16.88,8.24,19.69,15.2C97.7,24.21,97.12,30.18,93.84,36.16Z"/></g></svg>