<svg xmlns="http://www.w3.org/2000/svg" xmlns:xlink="http://www.w3.org/1999/xlink" viewBox="0 0 963.53 797"><defs><style>.cls-1,.cls-129,.cls-130,.cls-131,.cls-132,.cls-133,.cls-134,.cls-135,.cls-138,.cls-2,.cls-62,.cls-63,.cls-64,.cls-65,.cls-66,.cls-67,.cls-68,.cls-71{fill:none;}.cls-2{stroke:#ffed4a;}.cls-129,.cls-130,.cls-131,.cls-132,.cls-133,.cls-134,.cls-135,.cls-138,.cls-2,.cls-62,.cls-63,.cls-64,.cls-65,.cls-66,.cls-67,.cls-68,.cls-71{stroke-miterlimit:10;}.cls-3{isolation:isolate;}.cls-4{fill:#cc2121;}.cls-5,.cls-74{mix-blend-mode:multiply;}.cls-5{fill:url(#radial-gradient);}.cls-6,.cls-75{opacity:0.2;}.cls-6{fill:url(#New_Pattern_5);}.cls-7{clip-path:url(#clip-path);}.cls-8{clip-path:url(#clip-path-4);}.cls-9{fill:#ffed4a;}.cls-10{mix-blend-mode:color-burn;}.cls-11{clip-path:url(#clip-path-7);}.cls-12{fill:url(#radial-gradient-2);}.cls-13{clip-path:url(#clip-path-8);}.cls-14{clip-path:url(#clip-path-10);}.cls-15{fill:url(#radial-gradient-3);}.cls-16{clip-path:url(#clip-path-11);}.cls-17{clip-path:url(#clip-path-13);}.cls-18{fill:url(#radial-gradient-4);}.cls-19{clip-path:url(#clip-path-14);}.cls-20{clip-path:url(#clip-path-17);}.cls-21{clip-path:url(#clip-path-20);}.cls-22{fill:url(#radial-gradient-5);}.cls-23{clip-path:url(#clip-path-21);}.cls-24{clip-path:url(#clip-path-23);}.cls-25{fill:url(#radial-gradient-6);}.cls-26{clip-path:url(#clip-path-24);}.cls-27{clip-path:url(#clip-path-26);}.cls-28{fill:url(#radial-gradient-7);}.cls-29{clip-path:url(#clip-path-27);}.cls-30{clip-path:url(#clip-path-31);}.cls-31{fill:url(#radial-gradient-8);}.cls-32{clip-path:url(#clip-path-32);}.cls-33{clip-path:url(#clip-path-35);}.cls-34{clip-path:url(#clip-path-38);}.cls-35{fill:url(#radial-gradient-9);}.cls-36{clip-path:url(#clip-path-39);}.cls-37{clip-path:url(#clip-path-41);}.cls-38{fill:url(#radial-gradient-10);}.cls-39{clip-path:url(#clip-path-42);}.cls-40{clip-path:url(#clip-path-44);}.cls-41{fill:url(#radial-gradient-11);}.cls-42{clip-path:url(#clip-path-45);}.cls-43{clip-path:url(#clip-path-48);}.cls-44{clip-path:url(#clip-path-51);}.cls-45{fill:url(#radial-gradient-12);}.cls-46{clip-path:url(#clip-path-52);}.cls-47{clip-path:url(#clip-path-54);}.cls-48{fill:url(#radial-gradient-13);}.cls-49{clip-path:url(#clip-path-55);}.cls-50{clip-path:url(#clip-path-57);}.cls-51{fill:url(#radial-gradient-14);}.cls-52{clip-path:url(#clip-path-58);}.cls-53{clip-path:url(#clip-path-61);}.cls-54{clip-path:url(#clip-path-64);}.cls-55{fill:url(#radial-gradient-15);}.cls-56{clip-path:url(#clip-path-65);}.cls-57{clip-path:url(#clip-path-67);}.cls-58{fill:url(#radial-gradient-16);}.cls-59{clip-path:url(#clip-path-68);}.cls-60{clip-path:url(#clip-path-70);}.cls-61{fill:url(#radial-gradient-17);}.cls-129,.cls-130,.cls-131,.cls-132,.cls-133,.cls-134,.cls-135,.cls-62,.cls-63,.cls-64,.cls-65,.cls-66,.cls-67,.cls-68{stroke-width:8px;}.cls-129,.cls-130,.cls-131,.cls-132,.cls-133,.cls-134,.cls-135,.cls-136,.cls-137,.cls-138,.cls-62,.cls-63,.cls-64,.cls-65,.cls-66,.cls-67,.cls-68,.cls-69,.cls-70,.cls-71{mix-blend-mode:color-dodge;}.cls-62{stroke:url(#New_Gradient_Swatch_1);}.cls-63{stroke:url(#New_Gradient_Swatch_1-2);}.cls-64{stroke:url(#New_Gradient_Swatch_1-3);}.cls-65{stroke:url(#New_Gradient_Swatch_1-4);}.cls-66{stroke:url(#New_Gradient_Swatch_1-5);}.cls-67{stroke:url(#New_Gradient_Swatch_1-6);}.cls-68{stroke:url(#New_Gradient_Swatch_1-7);}.cls-69{fill:url(#radial-gradient-18);}.cls-70{fill:url(#radial-gradient-19);}.cls-138,.cls-71{stroke-width:7.71px;}.cls-71{stroke:url(#New_Gradient_Swatch_1-8);}.cls-72{mix-blend-mode:soft-light;}.cls-73{fill:url(#linear-gradient);}.cls-74{fill:url(#radial-gradient-20);}.cls-75{fill:url(#New_Pattern_5-3);}.cls-76{clip-path:url(#clip-path-71);}.cls-77{clip-path:url(#clip-path-74);}.cls-78{clip-path:url(#clip-path-77);}.cls-79{fill:url(#radial-gradient-21);}.cls-80{clip-path:url(#clip-path-78);}.cls-81{clip-path:url(#clip-path-80);}.cls-82{fill:url(#radial-gradient-22);}.cls-83{clip-path:url(#clip-path-81);}.cls-84{clip-path:url(#clip-path-83);}.cls-85{fill:url(#radial-gradient-23);}.cls-86{clip-path:url(#clip-path-84);}.cls-87{clip-path:url(#clip-path-87);}.cls-88{clip-path:url(#clip-path-90);}.cls-89{fill:url(#radial-gradient-24);}.cls-90{clip-path:url(#clip-path-91);}.cls-91{clip-path:url(#clip-path-93);}.cls-92{fill:url(#radial-gradient-25);}.cls-93{clip-path:url(#clip-path-94);}.cls-94{clip-path:url(#clip-path-96);}.cls-95{fill:url(#radial-gradient-26);}.cls-96{clip-path:url(#clip-path-97);}.cls-97{clip-path:url(#clip-path-101);}.cls-98{fill:url(#radial-gradient-27);}.cls-99{clip-path:url(#clip-path-102);}.cls-100{clip-path:url(#clip-path-105);}.cls-101{clip-path:url(#clip-path-108);}.cls-102{fill:url(#radial-gradient-28);}.cls-103{clip-path:url(#clip-path-109);}.cls-104{clip-path:url(#clip-path-111);}.cls-105{fill:url(#radial-gradient-29);}.cls-106{clip-path:url(#clip-path-112);}.cls-107{clip-path:url(#clip-path-114);}.cls-108{fill:url(#radial-gradient-30);}.cls-109{clip-path:url(#clip-path-115);}.cls-110{clip-path:url(#clip-path-118);}.cls-111{clip-path:url(#clip-path-121);}.cls-112{fill:url(#radial-gradient-31);}.cls-113{clip-path:url(#clip-path-122);}.cls-114{clip-path:url(#clip-path-124);}.cls-115{fill:url(#radial-gradient-32);}.cls-116{clip-path:url(#clip-path-125);}.cls-117{clip-path:url(#clip-path-127);}.cls-118{fill:url(#radial-gradient-33);}.cls-119{clip-path:url(#clip-path-128);}.cls-120{clip-path:url(#clip-path-131);}.cls-121{clip-path:url(#clip-path-134);}.cls-122{fill:url(#radial-gradient-34);}.cls-123{clip-path:url(#clip-path-135);}.cls-124{clip-path:url(#clip-path-137);}.cls-125{fill:url(#radial-gradient-35);}.cls-126{clip-path:url(#clip-path-138);}.cls-127{clip-path:url(#clip-path-140);}.cls-128{fill:url(#radial-gradient-36);}.cls-129{stroke:url(#New_Gradient_Swatch_1-9);}.cls-130{stroke:url(#New_Gradient_Swatch_1-10);}.cls-131{stroke:url(#New_Gradient_Swatch_1-11);}.cls-132{stroke:url(#New_Gradient_Swatch_1-12);}.cls-133{stroke:url(#New_Gradient_Swatch_1-13);}.cls-134{stroke:url(#New_Gradient_Swatch_1-14);}.cls-135{stroke:url(#New_Gradient_Swatch_1-15);}.cls-136{fill:url(#radial-gradient-37);}.cls-137{fill:url(#radial-gradient-38);}.cls-138{stroke:url(#New_Gradient_Swatch_1-16);}.cls-139{fill:url(#linear-gradient-9);}</style><radialGradient id="radial-gradient" cx="482.09" cy="419.47" r="427.08" gradientTransform="matrix(-1, 0, 0, 1, 963.53, 0)" gradientUnits="userSpaceOnUse"><stop offset="0" stop-color="#fff"/><stop offset="1" stop-color="#333"/></radialGradient><pattern id="New_Pattern_5" data-name="New Pattern 5" width="50" height="50" patternTransform="matrix(-1, 0, 0, 1, -0.36, 49.83)" patternUnits="userSpaceOnUse" viewBox="0 0 50 50"><rect class="cls-1" width="50" height="50"/><path class="cls-2" d="M69.34,104.7l-24-24a8,8,0,0,1,0-11.32l24-24a8,8,0,0,1,11.32,0l24,24a8,8,0,0,1,0,11.32l-24,24A8,8,0,0,1,69.34,104.7Z"/><path class="cls-2" d="M19.34,104.7l-24-24a8,8,0,0,1,0-11.32l24-24a8,8,0,0,1,11.32,0l24,24a8,8,0,0,1,0,11.32l-24,24A8,8,0,0,1,19.34,104.7Z"/><path class="cls-2" d="M-30.66,104.7l-24-24a8,8,0,0,1,0-11.32l24-24a8,8,0,0,1,11.32,0l24,24a8,8,0,0,1,0,11.32l-24,24A8,8,0,0,1-30.66,104.7Z"/><path class="cls-2" d="M69.34,54.7l-24-24a8,8,0,0,1,0-11.32l24-24a8,8,0,0,1,11.32,0l24,24a8,8,0,0,1,0,11.32l-24,24A8,8,0,0,1,69.34,54.7Z"/><path class="cls-2" d="M19.34,54.7l-24-24a8,8,0,0,1,0-11.32l24-24a8,8,0,0,1,11.32,0l24,24a8,8,0,0,1,0,11.32l-24,24A8,8,0,0,1,19.34,54.7Z"/><path class="cls-2" d="M-30.66,54.7l-24-24a8,8,0,0,1,0-11.32l24-24a8,8,0,0,1,11.32,0l24,24a8,8,0,0,1,0,11.32l-24,24A8,8,0,0,1-30.66,54.7Z"/><path class="cls-2" d="M69.34,4.7l-24-24a8,8,0,0,1,0-11.32l24-24a8,8,0,0,1,11.32,0l24,24a8,8,0,0,1,0,11.32l-24,24A8,8,0,0,1,69.34,4.7Z"/><path class="cls-2" d="M19.34,4.7l-24-24a8,8,0,0,1,0-11.32l24-24a8,8,0,0,1,11.32,0l24,24a8,8,0,0,1,0,11.32l-24,24A8,8,0,0,1,19.34,4.7Z"/><path class="cls-2" d="M-30.66,4.7l-24-24a8,8,0,0,1,0-11.32l24-24a8,8,0,0,1,11.32,0l24,24a8,8,0,0,1,0,11.32l-24,24A8,8,0,0,1-30.66,4.7Z"/></pattern><clipPath id="clip-path"><rect class="cls-1" x="757.47" y="475.98" width="74.75" height="74.75"/></clipPath><clipPath id="clip-path-4"><rect class="cls-1" x="757.48" y="475.99" width="74.73" height="74.73"/></clipPath><clipPath id="clip-path-7"><path class="cls-1" d="M757.48,513.36A37.37,37.37,0,1,0,794.85,476a37.37,37.37,0,0,0-37.37,37.37"/></clipPath><radialGradient id="radial-gradient-2" cx="-4655.48" cy="-1041.54" r="1" gradientTransform="translate(39722.42 -173486.27) rotate(-90) scale(37.38)" gradientUnits="userSpaceOnUse"><stop offset="0" stop-color="#fff"/><stop offset="1" stop-color="#58595b"/></radialGradient><clipPath id="clip-path-8"><rect class="cls-1" x="770.54" y="489.05" width="48.61" height="48.61"/></clipPath><clipPath id="clip-path-10"><path class="cls-1" d="M770.54,513.36a24.31,24.31,0,1,0,24.31-24.31,24.3,24.3,0,0,0-24.31,24.31"/></clipPath><radialGradient id="radial-gradient-3" cx="-4655.48" cy="-1041.54" r="1" gradientTransform="translate(26113.73 -112657.71) rotate(-90) scale(24.31)" xlink:href="#radial-gradient-2"/><clipPath id="clip-path-11"><rect class="cls-1" x="783.61" y="502.12" width="22.48" height="22.48"/></clipPath><clipPath id="clip-path-13"><path class="cls-1" d="M783.61,513.36a11.24,11.24,0,1,0,11.24-11.24,11.24,11.24,0,0,0-11.24,11.24"/></clipPath><radialGradient id="radial-gradient-4" cx="-4655.48" cy="-1041.54" r="1" gradientTransform="matrix(0, -11.24, 11.24, 0, 12505.04, -51829.16)" xlink:href="#radial-gradient-2"/><clipPath id="clip-path-14"><rect class="cls-1" x="728.1" y="305.38" width="74.75" height="74.75"/></clipPath><clipPath id="clip-path-17"><rect class="cls-1" x="728.11" y="305.39" width="74.73" height="74.73"/></clipPath><clipPath id="clip-path-20"><path class="cls-1" d="M728.11,342.76a37.37,37.37,0,1,0,37.36-37.37,37.36,37.36,0,0,0-37.36,37.37"/></clipPath><radialGradient id="radial-gradient-5" cx="-4655.48" cy="-1041.54" r="1" gradientTransform="translate(39693.05 -173656.87) rotate(-90) scale(37.38)" xlink:href="#radial-gradient-2"/><clipPath id="clip-path-21"><rect class="cls-1" x="741.17" y="318.45" width="48.61" height="48.61"/></clipPath><clipPath id="clip-path-23"><path class="cls-1" d="M741.17,342.76a24.3,24.3,0,1,0,24.3-24.31,24.3,24.3,0,0,0-24.3,24.31"/></clipPath><radialGradient id="radial-gradient-6" cx="-4655.48" cy="-1041.54" r="1" gradientTransform="translate(26084.35 -112828.31) rotate(-90) scale(24.31)" xlink:href="#radial-gradient-2"/><clipPath id="clip-path-24"><rect class="cls-1" x="754.23" y="331.51" width="22.48" height="22.48"/></clipPath><clipPath id="clip-path-26"><path class="cls-1" d="M754.23,342.76a11.24,11.24,0,1,0,11.24-11.25,11.24,11.24,0,0,0-11.24,11.25"/></clipPath><radialGradient id="radial-gradient-7" cx="-4655.48" cy="-1041.54" r="1" gradientTransform="matrix(0, -11.24, 11.24, 0, 12475.66, -51999.76)" xlink:href="#radial-gradient-2"/><clipPath id="clip-path-27"><rect class="cls-1" x="726.85" y="361.98" width="107.04" height="107.04"/></clipPath><clipPath id="clip-path-31"><path class="cls-1" d="M729,430.39a53.51,53.51,0,1,0,36.51-66.28A53.51,53.51,0,0,0,729,430.39"/></clipPath><radialGradient id="radial-gradient-8" cx="-4655.48" cy="-1041.54" r="1" gradientTransform="translate(-248384.38 -55328.19) rotate(180) scale(53.52)" xlink:href="#radial-gradient-2"/><clipPath id="clip-path-32"><rect class="cls-1" x="785.17" y="435.96" width="74.75" height="74.75"/></clipPath><clipPath id="clip-path-35"><rect class="cls-1" x="785.18" y="435.97" width="74.73" height="74.73"/></clipPath><clipPath id="clip-path-38"><path class="cls-1" d="M785.18,473.33A37.37,37.37,0,1,0,822.55,436a37.37,37.37,0,0,0-37.37,37.36"/></clipPath><radialGradient id="radial-gradient-9" cx="-4655.48" cy="-1041.54" r="1" gradientTransform="translate(39750.12 -173526.29) rotate(-90) scale(37.38)" xlink:href="#radial-gradient-2"/><clipPath id="clip-path-39"><rect class="cls-1" x="798.24" y="449.03" width="48.61" height="48.61"/></clipPath><clipPath id="clip-path-41"><path class="cls-1" d="M798.24,473.33A24.31,24.31,0,1,0,822.55,449a24.31,24.31,0,0,0-24.31,24.3"/></clipPath><radialGradient id="radial-gradient-10" cx="-4655.48" cy="-1041.54" r="1" gradientTransform="translate(26141.43 -112697.73) rotate(-90) scale(24.31)" xlink:href="#radial-gradient-2"/><clipPath id="clip-path-42"><rect class="cls-1" x="811.3" y="462.09" width="22.48" height="22.48"/></clipPath><clipPath id="clip-path-44"><path class="cls-1" d="M811.3,473.33a11.25,11.25,0,1,0,11.25-11.24,11.25,11.25,0,0,0-11.25,11.24"/></clipPath><radialGradient id="radial-gradient-11" cx="-4655.48" cy="-1041.54" r="1" gradientTransform="matrix(0, -11.24, 11.24, 0, 12532.74, -51869.18)" xlink:href="#radial-gradient-2"/><clipPath id="clip-path-45"><rect class="cls-1" x="770.76" y="327.96" width="74.75" height="74.75"/></clipPath><clipPath id="clip-path-48"><rect class="cls-1" x="770.77" y="327.97" width="74.73" height="74.73"/></clipPath><clipPath id="clip-path-51"><path class="cls-1" d="M770.77,365.33A37.37,37.37,0,1,0,808.13,328a37.36,37.36,0,0,0-37.36,37.36"/></clipPath><radialGradient id="radial-gradient-12" cx="-4655.48" cy="-1041.54" r="1" gradientTransform="translate(39735.71 -173634.29) rotate(-90) scale(37.38)" xlink:href="#radial-gradient-2"/><clipPath id="clip-path-52"><rect class="cls-1" x="783.83" y="341.03" width="48.61" height="48.61"/></clipPath><clipPath id="clip-path-54"><path class="cls-1" d="M783.83,365.33a24.3,24.3,0,1,0,24.3-24.3,24.31,24.31,0,0,0-24.3,24.3"/></clipPath><radialGradient id="radial-gradient-13" cx="-4655.48" cy="-1041.54" r="1" gradientTransform="translate(26127.01 -112805.73) rotate(-90) scale(24.31)" xlink:href="#radial-gradient-2"/><clipPath id="clip-path-55"><rect class="cls-1" x="796.89" y="354.09" width="22.48" height="22.48"/></clipPath><clipPath id="clip-path-57"><path class="cls-1" d="M796.89,365.33a11.24,11.24,0,1,0,11.24-11.24,11.24,11.24,0,0,0-11.24,11.24"/></clipPath><radialGradient id="radial-gradient-14" cx="-4655.48" cy="-1041.54" r="1" gradientTransform="matrix(0, -11.24, 11.24, 0, 12518.32, -51977.18)" xlink:href="#radial-gradient-2"/><clipPath id="clip-path-58"><rect class="cls-1" x="808.13" y="378.13" width="74.75" height="74.75"/></clipPath><clipPath id="clip-path-61"><rect class="cls-1" x="808.14" y="378.14" width="74.73" height="74.73"/></clipPath><clipPath id="clip-path-64"><path class="cls-1" d="M808.14,415.51a37.37,37.37,0,1,0,37.37-37.37,37.37,37.37,0,0,0-37.37,37.37"/></clipPath><radialGradient id="radial-gradient-15" cx="-4655.48" cy="-1041.54" r="1" gradientTransform="translate(39773.08 -173584.12) rotate(-90) scale(37.38)" xlink:href="#radial-gradient-2"/><clipPath id="clip-path-65"><rect class="cls-1" x="821.2" y="391.2" width="48.61" height="48.61"/></clipPath><clipPath id="clip-path-67"><path class="cls-1" d="M821.2,415.51a24.31,24.31,0,1,0,24.31-24.31,24.3,24.3,0,0,0-24.31,24.31"/></clipPath><radialGradient id="radial-gradient-16" cx="-4655.48" cy="-1041.54" r="1" gradientTransform="translate(26164.39 -112755.56) rotate(-90) scale(24.31)" xlink:href="#radial-gradient-2"/><clipPath id="clip-path-68"><rect class="cls-1" x="834.27" y="404.27" width="22.48" height="22.48"/></clipPath><clipPath id="clip-path-70"><path class="cls-1" d="M834.27,415.51a11.24,11.24,0,1,0,11.24-11.24,11.24,11.24,0,0,0-11.24,11.24"/></clipPath><radialGradient id="radial-gradient-17" cx="-4655.48" cy="-1041.54" r="1" gradientTransform="matrix(0, -11.24, 11.24, 0, 12555.7, -51927.01)" xlink:href="#radial-gradient-2"/><linearGradient id="New_Gradient_Swatch_1" x1="28.01" y1="363.02" x2="28.01" y2="363.02" gradientTransform="matrix(-1, 0, 0, 1, 963.53, 0)" gradientUnits="userSpaceOnUse"><stop offset="0.2" stop-color="#fff"/><stop offset="0.25" stop-color="#353232"/><stop offset="0.31" stop-color="#231f20"/><stop offset="0.7" stop-color="#fff"/><stop offset="0.75"/><stop offset="1"/></linearGradient><linearGradient id="New_Gradient_Swatch_1-2" x1="14.41" y1="390.46" x2="114.46" y2="390.46" xlink:href="#New_Gradient_Swatch_1"/><linearGradient id="New_Gradient_Swatch_1-3" x1="46.32" y1="323.3" x2="203.82" y2="323.3" xlink:href="#New_Gradient_Swatch_1"/><linearGradient id="New_Gradient_Swatch_1-4" x1="310.48" y1="208.95" x2="310.48" y2="208.95" xlink:href="#New_Gradient_Swatch_1"/><linearGradient id="New_Gradient_Swatch_1-5" x1="244.65" y1="228.81" x2="397.95" y2="228.81" xlink:href="#New_Gradient_Swatch_1"/><linearGradient id="New_Gradient_Swatch_1-6" x1="362.23" y1="164.67" x2="466.83" y2="164.67" xlink:href="#New_Gradient_Swatch_1"/><linearGradient id="New_Gradient_Swatch_1-7" x1="130.37" y1="275.53" x2="303.95" y2="275.53" xlink:href="#New_Gradient_Swatch_1"/><radialGradient id="radial-gradient-18" cx="395.62" cy="100.49" r="82.75" gradientTransform="matrix(-0.97, 0.26, 0.78, 2.9, 872.03, -293.1)" gradientUnits="userSpaceOnUse"><stop offset="0.2" stop-color="#fff"/><stop offset="0.25" stop-color="#353232"/><stop offset="0.31" stop-color="#231f20"/><stop offset="0.75"/><stop offset="1" stop-color="#fff"/><stop offset="1"/></radialGradient><radialGradient id="radial-gradient-19" cx="338.99" cy="123.87" r="30.86" gradientTransform="matrix(-1, 0, 0, 1, 963.53, 0)" xlink:href="#radial-gradient-18"/><linearGradient id="New_Gradient_Swatch_1-8" x1="43.27" y1="451.44" x2="100.24" y2="411.55" xlink:href="#New_Gradient_Swatch_1"/><linearGradient id="linear-gradient" x1="148.31" y1="606.56" x2="208.29" y2="564.56" xlink:href="#New_Gradient_Swatch_1"/><radialGradient id="radial-gradient-20" cx="482.09" cy="419.47" r="427.08" gradientTransform="matrix(1, 0, 0, 1, 0, 0)" xlink:href="#radial-gradient"/><pattern id="New_Pattern_5-3" data-name="New Pattern 5" width="50" height="50" patternTransform="translate(6.87 49.83)" patternUnits="userSpaceOnUse" viewBox="0 0 50 50"><rect class="cls-1" width="50" height="50"/><path class="cls-2" d="M69.34,104.7l-24-24a8,8,0,0,1,0-11.32l24-24a8,8,0,0,1,11.32,0l24,24a8,8,0,0,1,0,11.32l-24,24A8,8,0,0,1,69.34,104.7Z"/><path class="cls-2" d="M19.34,104.7l-24-24a8,8,0,0,1,0-11.32l24-24a8,8,0,0,1,11.32,0l24,24a8,8,0,0,1,0,11.32l-24,24A8,8,0,0,1,19.34,104.7Z"/><path class="cls-2" d="M-30.66,104.7l-24-24a8,8,0,0,1,0-11.32l24-24a8,8,0,0,1,11.32,0l24,24a8,8,0,0,1,0,11.32l-24,24A8,8,0,0,1-30.66,104.7Z"/><path class="cls-2" d="M69.34,54.7l-24-24a8,8,0,0,1,0-11.32l24-24a8,8,0,0,1,11.32,0l24,24a8,8,0,0,1,0,11.32l-24,24A8,8,0,0,1,69.34,54.7Z"/><path class="cls-2" d="M19.34,54.7l-24-24a8,8,0,0,1,0-11.32l24-24a8,8,0,0,1,11.32,0l24,24a8,8,0,0,1,0,11.32l-24,24A8,8,0,0,1,19.34,54.7Z"/><path class="cls-2" d="M-30.66,54.7l-24-24a8,8,0,0,1,0-11.32l24-24a8,8,0,0,1,11.32,0l24,24a8,8,0,0,1,0,11.32l-24,24A8,8,0,0,1-30.66,54.7Z"/><path class="cls-2" d="M69.34,4.7l-24-24a8,8,0,0,1,0-11.32l24-24a8,8,0,0,1,11.32,0l24,24a8,8,0,0,1,0,11.32l-24,24A8,8,0,0,1,69.34,4.7Z"/><path class="cls-2" d="M19.34,4.7l-24-24a8,8,0,0,1,0-11.32l24-24a8,8,0,0,1,11.32,0l24,24a8,8,0,0,1,0,11.32l-24,24A8,8,0,0,1,19.34,4.7Z"/><path class="cls-2" d="M-30.66,4.7l-24-24a8,8,0,0,1,0-11.32l24-24a8,8,0,0,1,11.32,0l24,24a8,8,0,0,1,0,11.32l-24,24A8,8,0,0,1-30.66,4.7Z"/></pattern><clipPath id="clip-path-71"><rect class="cls-1" x="131.31" y="475.98" width="74.75" height="74.75"/></clipPath><clipPath id="clip-path-74"><rect class="cls-1" x="131.32" y="475.99" width="74.73" height="74.73"/></clipPath><clipPath id="clip-path-77"><path class="cls-1" d="M206.05,513.36A37.37,37.37,0,1,1,168.69,476a37.36,37.36,0,0,1,37.36,37.37"/></clipPath><radialGradient id="radial-gradient-21" cx="-4614.71" cy="-1070.57" r="0.37" gradientTransform="matrix(100, 0, 0, -100, 461639.81, -106543.9)" xlink:href="#radial-gradient-2"/><clipPath id="clip-path-78"><rect class="cls-1" x="144.39" y="489.05" width="48.61" height="48.61"/></clipPath><clipPath id="clip-path-80"><path class="cls-1" d="M193,513.36a24.3,24.3,0,1,1-24.3-24.31A24.3,24.3,0,0,1,193,513.36"/></clipPath><radialGradient id="radial-gradient-22" cx="-4592.8" cy="-1086.18" r="0.37" gradientTransform="matrix(65.04, 0, 0, -65.04, 298888.64, -70132.87)" xlink:href="#radial-gradient-2"/><clipPath id="clip-path-81"><rect class="cls-1" x="157.45" y="502.12" width="22.48" height="22.48"/></clipPath><clipPath id="clip-path-83"><path class="cls-1" d="M179.93,513.36a11.24,11.24,0,1,1-11.24-11.24,11.24,11.24,0,0,1,11.24,11.24"/></clipPath><radialGradient id="radial-gradient-23" cx="-4519.94" cy="-1138.06" r="0.37" gradientTransform="matrix(30.08, 0, 0, -30.08, 136137.49, -33721.83)" xlink:href="#radial-gradient-2"/><clipPath id="clip-path-84"><rect class="cls-1" x="160.69" y="305.38" width="74.75" height="74.75"/></clipPath><clipPath id="clip-path-87"><rect class="cls-1" x="160.7" y="305.39" width="74.73" height="74.73"/></clipPath><clipPath id="clip-path-90"><path class="cls-1" d="M235.43,342.76a37.37,37.37,0,1,1-37.37-37.37,37.37,37.37,0,0,1,37.37,37.37"/></clipPath><radialGradient id="radial-gradient-24" cx="-4613.95" cy="-1069.02" r="0.37" gradientTransform="matrix(100, 0, 0, -100, 461593.51, -106558.8)" xlink:href="#radial-gradient-2"/><clipPath id="clip-path-91"><rect class="cls-1" x="173.76" y="318.45" width="48.61" height="48.61"/></clipPath><clipPath id="clip-path-93"><path class="cls-1" d="M222.37,342.76a24.31,24.31,0,1,1-24.31-24.31,24.3,24.3,0,0,1,24.31,24.31"/></clipPath><radialGradient id="radial-gradient-25" cx="-4591.63" cy="-1083.79" r="0.37" gradientTransform="matrix(65.04, 0, 0, -65.04, 298842.35, -70147.77)" xlink:href="#radial-gradient-2"/><clipPath id="clip-path-94"><rect class="cls-1" x="186.82" y="331.51" width="22.48" height="22.48"/></clipPath><clipPath id="clip-path-96"><path class="cls-1" d="M209.3,342.76a11.24,11.24,0,1,1-11.24-11.25,11.24,11.24,0,0,1,11.24,11.25"/></clipPath><radialGradient id="radial-gradient-26" cx="-4517.43" cy="-1132.89" r="0.37" gradientTransform="matrix(30.08, 0, 0, -30.08, 136091.19, -33736.73)" xlink:href="#radial-gradient-2"/><clipPath id="clip-path-97"><rect class="cls-1" x="129.64" y="361.98" width="107.04" height="107.04"/></clipPath><clipPath id="clip-path-101"><path class="cls-1" d="M234.56,430.39a53.51,53.51,0,1,1-36.51-66.28,53.51,53.51,0,0,1,36.51,66.28"/></clipPath><radialGradient id="radial-gradient-27" cx="-4608.1" cy="-1057.11" r="0.54" gradientTransform="matrix(100, 0, 0, -100, 460992.99, -105295.08)" xlink:href="#radial-gradient-2"/><clipPath id="clip-path-102"><rect class="cls-1" x="103.61" y="435.96" width="74.75" height="74.75"/></clipPath><clipPath id="clip-path-105"><rect class="cls-1" x="103.62" y="435.97" width="74.73" height="74.73"/></clipPath><clipPath id="clip-path-108"><path class="cls-1" d="M178.35,473.33A37.37,37.37,0,1,1,141,436a37.36,37.36,0,0,1,37.36,37.36"/></clipPath><radialGradient id="radial-gradient-28" cx="-4614.87" cy="-1070.11" r="0.37" gradientTransform="matrix(100, 0, 0, -100, 461627.58, -106537.77)" xlink:href="#radial-gradient-2"/><clipPath id="clip-path-109"><rect class="cls-1" x="116.69" y="449.03" width="48.61" height="48.61"/></clipPath><clipPath id="clip-path-111"><path class="cls-1" d="M165.29,473.33A24.3,24.3,0,1,1,141,449a24.31,24.31,0,0,1,24.3,24.3"/></clipPath><radialGradient id="radial-gradient-29" cx="-4593.03" cy="-1085.47" r="0.37" gradientTransform="matrix(65.04, 0, 0, -65.04, 298876.42, -70126.74)" xlink:href="#radial-gradient-2"/><clipPath id="clip-path-112"><rect class="cls-1" x="129.75" y="462.09" width="22.48" height="22.48"/></clipPath><clipPath id="clip-path-114"><path class="cls-1" d="M152.23,473.33A11.24,11.24,0,1,1,141,462.09a11.24,11.24,0,0,1,11.24,11.24"/></clipPath><radialGradient id="radial-gradient-30" cx="-4520.46" cy="-1136.53" r="0.37" gradientTransform="matrix(30.08, 0, 0, -30.08, 136125.26, -33715.7)" xlink:href="#radial-gradient-2"/><clipPath id="clip-path-115"><rect class="cls-1" x="118.03" y="327.96" width="74.75" height="74.75"/></clipPath><clipPath id="clip-path-118"><rect class="cls-1" x="118.04" y="327.97" width="74.73" height="74.73"/></clipPath><clipPath id="clip-path-121"><path class="cls-1" d="M192.77,365.33A37.37,37.37,0,1,1,155.4,328a37.37,37.37,0,0,1,37.37,37.36"/></clipPath><radialGradient id="radial-gradient-31" cx="-4614.43" cy="-1069.11" r="0.37" gradientTransform="matrix(100, 0, 0, -100, 461598.11, -106546.05)" xlink:href="#radial-gradient-2"/><clipPath id="clip-path-122"><rect class="cls-1" x="131.1" y="341.03" width="48.61" height="48.61"/></clipPath><clipPath id="clip-path-124"><path class="cls-1" d="M179.71,365.33A24.31,24.31,0,1,1,155.4,341a24.31,24.31,0,0,1,24.31,24.3"/></clipPath><radialGradient id="radial-gradient-32" cx="-4592.36" cy="-1083.94" r="0.37" gradientTransform="matrix(65.04, 0, 0, -65.04, 298846.94, -70135.01)" xlink:href="#radial-gradient-2"/><clipPath id="clip-path-125"><rect class="cls-1" x="144.16" y="354.09" width="22.48" height="22.48"/></clipPath><clipPath id="clip-path-127"><path class="cls-1" d="M166.64,365.33a11.24,11.24,0,1,1-11.24-11.24,11.24,11.24,0,0,1,11.24,11.24"/></clipPath><radialGradient id="radial-gradient-33" cx="-4519" cy="-1133.21" r="0.37" gradientTransform="matrix(30.08, 0, 0, -30.08, 136095.79, -33723.98)" xlink:href="#radial-gradient-2"/><clipPath id="clip-path-128"><rect class="cls-1" x="80.65" y="378.13" width="74.75" height="74.75"/></clipPath><clipPath id="clip-path-131"><rect class="cls-1" x="80.66" y="378.14" width="74.73" height="74.73"/></clipPath><clipPath id="clip-path-134"><path class="cls-1" d="M155.39,415.51A37.37,37.37,0,1,1,118,378.14a37.36,37.36,0,0,1,37.36,37.37"/></clipPath><radialGradient id="radial-gradient-34" cx="-4614.93" cy="-1069.49" r="0.37" gradientTransform="matrix(100, 0, 0, -100, 461610.59, -106533.67)" xlink:href="#radial-gradient-2"/><clipPath id="clip-path-135"><rect class="cls-1" x="93.73" y="391.2" width="48.61" height="48.61"/></clipPath><clipPath id="clip-path-137"><path class="cls-1" d="M142.33,415.51A24.3,24.3,0,1,1,118,391.2a24.3,24.3,0,0,1,24.3,24.31"/></clipPath><radialGradient id="radial-gradient-35" cx="-4593.13" cy="-1084.52" r="0.37" gradientTransform="matrix(65.04, 0, 0, -65.04, 298859.42, -70122.64)" xlink:href="#radial-gradient-2"/><clipPath id="clip-path-138"><rect class="cls-1" x="106.79" y="404.27" width="22.48" height="22.48"/></clipPath><clipPath id="clip-path-140"><path class="cls-1" d="M129.27,415.51A11.24,11.24,0,1,1,118,404.27a11.24,11.24,0,0,1,11.24,11.24"/></clipPath><radialGradient id="radial-gradient-36" cx="-4520.66" cy="-1134.47" r="0.37" gradientTransform="matrix(30.08, 0, 0, -30.08, 136108.27, -33711.6)" xlink:href="#radial-gradient-2"/><linearGradient id="New_Gradient_Swatch_1-9" x1="28.01" y1="363.02" x2="28.01" y2="363.02" gradientTransform="matrix(1, 0, 0, 1, 0, 0)" xlink:href="#New_Gradient_Swatch_1"/><linearGradient id="New_Gradient_Swatch_1-10" x1="14.41" y1="390.46" x2="114.46" y2="390.46" gradientTransform="matrix(1, 0, 0, 1, 0, 0)" xlink:href="#New_Gradient_Swatch_1"/><linearGradient id="New_Gradient_Swatch_1-11" x1="46.32" y1="323.3" x2="203.82" y2="323.3" gradientTransform="matrix(1, 0, 0, 1, 0, 0)" xlink:href="#New_Gradient_Swatch_1"/><linearGradient id="New_Gradient_Swatch_1-12" x1="310.48" y1="208.95" x2="310.48" y2="208.95" gradientTransform="matrix(1, 0, 0, 1, 0, 0)" xlink:href="#New_Gradient_Swatch_1"/><linearGradient id="New_Gradient_Swatch_1-13" x1="244.65" y1="228.81" x2="397.95" y2="228.81" gradientTransform="matrix(1, 0, 0, 1, 0, 0)" xlink:href="#New_Gradient_Swatch_1"/><linearGradient id="New_Gradient_Swatch_1-14" x1="362.23" y1="164.67" x2="466.83" y2="164.67" gradientTransform="matrix(1, 0, 0, 1, 0, 0)" xlink:href="#New_Gradient_Swatch_1"/><linearGradient id="New_Gradient_Swatch_1-15" x1="130.37" y1="275.53" x2="303.95" y2="275.53" gradientTransform="matrix(1, 0, 0, 1, 0, 0)" xlink:href="#New_Gradient_Swatch_1"/><radialGradient id="radial-gradient-37" cx="395.62" cy="100.49" r="82.75" gradientTransform="translate(91.5 -293.1) rotate(15) scale(1 3)" xlink:href="#radial-gradient-18"/><radialGradient id="radial-gradient-38" cx="338.99" cy="123.87" r="30.86" gradientTransform="matrix(1, 0, 0, 1, 0, 0)" xlink:href="#radial-gradient-18"/><linearGradient id="New_Gradient_Swatch_1-16" x1="43.27" y1="451.44" x2="100.24" y2="411.55" gradientTransform="matrix(1, 0, 0, 1, 0, 0)" xlink:href="#New_Gradient_Swatch_1"/><linearGradient id="linear-gradient-9" x1="148.31" y1="606.56" x2="208.29" y2="564.56" gradientTransform="matrix(1, 0, 0, 1, 0, 0)" xlink:href="#New_Gradient_Swatch_1"/></defs><title>result-board</title><g class="cls-3"><g id="Layer_2" data-name="Layer 2"><g id="Layer_5" data-name="Layer 5"><path class="cls-4" d="M481.77,683.27,563,712l91.1,59.38L959.75,398.41c9.54-13.78,17.49-95.07-194.66-170.66C560.64,154.91,490.57,69.53,481.77,53.83Z"/><path class="cls-5" d="M481.77,683.27,563,712l91.1,59.38L959.75,398.41c9.54-13.78,17.49-95.07-194.66-170.66C560.64,154.91,490.57,69.53,481.77,53.83Z"/><path class="cls-6" d="M481.77,683.27,563,712l91.1,59.38L959.75,398.41c9.54-13.78,17.49-95.07-194.66-170.66C560.64,154.91,490.57,69.53,481.77,53.83Z"/><g class="cls-7"><g class="cls-7"><g class="cls-7"><g class="cls-8"><g class="cls-8"><path class="cls-4" d="M794.85,548.24A34.88,34.88,0,1,0,760,513.36a34.92,34.92,0,0,0,34.88,34.88"/><path class="cls-9" d="M794.85,481a32.4,32.4,0,1,0,32.39,32.4A32.43,32.43,0,0,0,794.85,481m0-5a37.37,37.37,0,1,1-37.37,37.37A37.37,37.37,0,0,1,794.85,476"/><g class="cls-10"><g class="cls-8"><g class="cls-11"><rect class="cls-12" x="748.56" y="467.07" width="92.57" height="92.57" transform="translate(80.64 1134.03) rotate(-73.85)"/></g></g></g></g><g class="cls-13"><path class="cls-4" d="M794.85,536a22.69,22.69,0,1,0-22.69-22.68A22.7,22.7,0,0,0,794.85,536"/><path class="cls-9" d="M794.85,492.29a21.07,21.07,0,1,0,21.07,21.07,21.09,21.09,0,0,0-21.07-21.07m0-3.24a24.31,24.31,0,1,1-24.31,24.31,24.3,24.3,0,0,1,24.31-24.31"/><g class="cls-10"><g class="cls-13"><g class="cls-14"><rect class="cls-15" x="764.74" y="483.25" width="60.21" height="60.21" transform="translate(80.64 1134.03) rotate(-73.85)"/></g></g></g></g><g class="cls-16"><path class="cls-4" d="M794.85,523.85a10.5,10.5,0,1,0-10.5-10.49,10.51,10.51,0,0,0,10.5,10.49"/><path class="cls-9" d="M794.85,503.61a9.75,9.75,0,1,0,9.74,9.75,9.76,9.76,0,0,0-9.74-9.75m0-1.49a11.24,11.24,0,1,1-11.24,11.24,11.24,11.24,0,0,1,11.24-11.24"/><g class="cls-10"><g class="cls-16"><g class="cls-17"><rect class="cls-18" x="780.92" y="499.43" width="27.85" height="27.85" transform="translate(80.64 1134.03) rotate(-73.85)"/></g></g></g></g></g></g></g></g><g class="cls-19"><g class="cls-19"><g class="cls-19"><g class="cls-20"><g class="cls-20"><path class="cls-4" d="M765.47,377.64a34.88,34.88,0,1,0-34.88-34.88,34.92,34.92,0,0,0,34.88,34.88"/><path class="cls-9" d="M765.47,310.36a32.4,32.4,0,1,0,32.39,32.4,32.43,32.43,0,0,0-32.39-32.4m0-5a37.37,37.37,0,1,1-37.37,37.37,37.37,37.37,0,0,1,37.37-37.37"/><g class="cls-10"><g class="cls-20"><g class="cls-21"><rect class="cls-22" x="719.19" y="296.47" width="92.57" height="92.57" transform="translate(223.31 982.67) rotate(-73.85)"/></g></g></g></g><g class="cls-23"><path class="cls-4" d="M765.47,365.44a22.69,22.69,0,1,0-22.69-22.68,22.72,22.72,0,0,0,22.69,22.68"/><path class="cls-9" d="M765.47,321.69a21.07,21.07,0,1,0,21.07,21.06,21.09,21.09,0,0,0-21.07-21.06m0-3.24a24.31,24.31,0,1,1-24.3,24.3,24.3,24.3,0,0,1,24.3-24.3"/><g class="cls-10"><g class="cls-23"><g class="cls-24"><rect class="cls-25" x="735.37" y="312.65" width="60.21" height="60.21" transform="translate(223.31 982.67) rotate(-73.85)"/></g></g></g></g><g class="cls-26"><path class="cls-4" d="M765.47,353.25A10.5,10.5,0,1,0,755,342.76a10.5,10.5,0,0,0,10.49,10.49"/><path class="cls-9" d="M765.47,333a9.75,9.75,0,1,0,9.75,9.75,9.75,9.75,0,0,0-9.75-9.75m0-1.5a11.25,11.25,0,1,1-11.24,11.25,11.25,11.25,0,0,1,11.24-11.25"/><g class="cls-10"><g class="cls-26"><g class="cls-27"><rect class="cls-28" x="751.55" y="328.83" width="27.85" height="27.85" transform="translate(223.31 982.67) rotate(-73.85)"/></g></g></g></g></g></g></g></g><g class="cls-29"><g class="cls-29"><g class="cls-29"><path class="cls-4" d="M780.35,465.47a50,50,0,1,0-48-36.07,49.93,49.93,0,0,0,48,36.07"/><path class="cls-9" d="M780.39,369.1a46.41,46.41,0,0,0-27.65,83.67,46.76,46.76,0,0,0,27.61,9.14,46.41,46.41,0,0,0,0-92.81h0m0-7.12a53.56,53.56,0,1,1-14.91,2.13A53.55,53.55,0,0,1,780.4,362"/><g class="cls-10"><g class="cls-29"><g class="cls-30"><rect class="cls-31" x="720.76" y="355.89" width="119.23" height="119.23"/></g></g></g><path class="cls-9" d="M804.13,461.69a47.87,47.87,0,0,1-36-4.36,47.65,47.65,0,0,1-14-11.84,47.14,47.14,0,0,1-8.4-16.17,37.15,37.15,0,0,1,6.65-34.05,36.53,36.53,0,0,1,14.07-10.68c.68-.28,1.36-.58,2.07-.81l1-.37,1.07-.32c.7-.23,1.41-.38,2.12-.56s1.43-.29,2.15-.37,1.45-.16,2.17-.23,1.45-.07,2.17-.05a27.33,27.33,0,0,1,4.33.39,28.56,28.56,0,0,1,15.2,7.67,28.26,28.26,0,0,1,5.16,6.81,27.76,27.76,0,0,1,1.74,3.9c.25.66.44,1.35.65,2l.45,2a21.78,21.78,0,0,1-3.27,15.77,21.3,21.3,0,0,1-5.66,5.81,21.62,21.62,0,0,1-7.34,3.28l-1,.21-1,.1a13.86,13.86,0,0,1-1.93.09,5.15,5.15,0,0,1-1-.05l-1-.08-.94-.18a5.83,5.83,0,0,1-.94-.21,16.19,16.19,0,0,1-11-9.76c-.11-.3-.19-.6-.29-.9a8.41,8.41,0,0,1-.28-.9L771,417c-.07-.29-.07-.59-.12-.88l0-.44c0-.15,0-.3,0-.44,0-.3,0-.59,0-.89l.07-.87c0-.3.11-.58.15-.87a12,12,0,0,1,3.27-6.1,11.78,11.78,0,0,1,2.78-2,7.12,7.12,0,0,1,.79-.37,5.56,5.56,0,0,1,.8-.32l.82-.27.78-.16a8.41,8.41,0,0,1,5.95,1.22,8.29,8.29,0,0,1,3.53,4.82,4.45,4.45,0,0,0,8.59-2.32l0-.12v0a17.33,17.33,0,0,0-2.9-5.57,17,17,0,0,0-16.73-6.18c-.5.12-1,.24-1.5.38l-1.39.49a11.43,11.43,0,0,0-1.35.58,12.49,12.49,0,0,0-1.31.68,19.77,19.77,0,0,0-9.75,13.94c-.07.48-.17,1-.2,1.44l-.08,1.46c0,.48,0,1,0,1.45,0,.25,0,.49,0,.73l.1.72c.08.48.12,1,.24,1.43l.34,1.41c.12.47.3.88.45,1.33s.3.87.48,1.3a23.93,23.93,0,0,0,6.55,8.85,23.51,23.51,0,0,0,9.8,4.84,10.37,10.37,0,0,0,1.35.26l1.36.21,1.37.08a12.53,12.53,0,0,0,1.37,0,22.81,22.81,0,0,0,2.74-.21l1.35-.2,1.33-.33a28.29,28.29,0,0,0,9.51-4.57,27.7,27.7,0,0,0,10.64-27.84c-.21-.84-.41-1.69-.64-2.52s-.53-1.61-.85-2.39a32.18,32.18,0,0,0-2.21-4.58,33.27,33.27,0,0,0-24.3-16.29,31,31,0,0,0-5-.3c-.83,0-1.67.07-2.5.13s-1.66.18-2.47.34-1.64.32-2.45.5-1.61.43-2.38.7l-1.16.39-1.15.44c-.77.28-1.52.63-2.26,1A40,40,0,0,0,743.58,430a48.71,48.71,0,0,0,60.55,31.71"/></g></g></g><g class="cls-32"><g class="cls-32"><g class="cls-32"><g class="cls-33"><g class="cls-33"><path class="cls-4" d="M822.55,508.21a34.88,34.88,0,1,0-34.88-34.88,34.91,34.91,0,0,0,34.88,34.88"/><path class="cls-9" d="M822.55,440.94a32.4,32.4,0,1,0,32.39,32.39,32.43,32.43,0,0,0-32.39-32.39m0-5a37.37,37.37,0,1,1-37.37,37.36A37.36,37.36,0,0,1,822.55,436"/><g class="cls-10"><g class="cls-33"><g class="cls-34"><rect class="cls-35" x="776.26" y="427.05" width="92.57" height="92.57" transform="translate(139.08 1131.74) rotate(-73.85)"/></g></g></g></g><g class="cls-36"><path class="cls-4" d="M822.55,496a22.69,22.69,0,1,0-22.69-22.69A22.72,22.72,0,0,0,822.55,496"/><path class="cls-9" d="M822.55,452.26a21.07,21.07,0,1,0,21.06,21.07,21.09,21.09,0,0,0-21.06-21.07m0-3.23a24.3,24.3,0,1,1-24.31,24.3A24.3,24.3,0,0,1,822.55,449"/><g class="cls-10"><g class="cls-36"><g class="cls-37"><rect class="cls-38" x="792.44" y="443.23" width="60.21" height="60.21" transform="translate(139.08 1131.74) rotate(-73.85)"/></g></g></g></g><g class="cls-39"><path class="cls-4" d="M822.55,483.82a10.49,10.49,0,1,0-10.5-10.49,10.5,10.5,0,0,0,10.5,10.49"/><path class="cls-9" d="M822.55,463.59a9.75,9.75,0,1,0,9.74,9.74,9.75,9.75,0,0,0-9.74-9.74m0-1.5a11.24,11.24,0,1,1-11.25,11.24,11.24,11.24,0,0,1,11.25-11.24"/><g class="cls-10"><g class="cls-39"><g class="cls-40"><rect class="cls-41" x="808.62" y="459.41" width="27.85" height="27.85" transform="translate(139.08 1131.74) rotate(-73.85)"/></g></g></g></g></g></g></g></g><g class="cls-42"><g class="cls-42"><g class="cls-42"><g class="cls-43"><g class="cls-43"><path class="cls-4" d="M808.13,400.21a34.88,34.88,0,1,0-34.88-34.88,34.92,34.92,0,0,0,34.88,34.88"/><path class="cls-9" d="M808.13,332.94a32.4,32.4,0,1,0,32.39,32.39,32.43,32.43,0,0,0-32.39-32.39m0-5a37.37,37.37,0,1,1-37.37,37.36A37.37,37.37,0,0,1,808.13,328"/><g class="cls-10"><g class="cls-43"><g class="cls-44"><rect class="cls-45" x="761.85" y="319.05" width="92.57" height="92.57" transform="translate(232.41 1039.94) rotate(-73.85)"/></g></g></g></g><g class="cls-46"><path class="cls-4" d="M808.13,388a22.69,22.69,0,1,0-22.69-22.69A22.72,22.72,0,0,0,808.13,388"/><path class="cls-9" d="M808.13,344.26a21.07,21.07,0,1,0,21.07,21.07,21.09,21.09,0,0,0-21.07-21.07m0-3.23a24.3,24.3,0,1,1-24.3,24.3,24.3,24.3,0,0,1,24.3-24.3"/><g class="cls-10"><g class="cls-46"><g class="cls-47"><rect class="cls-48" x="778.03" y="335.23" width="60.21" height="60.21" transform="translate(232.41 1039.94) rotate(-73.85)"/></g></g></g></g><g class="cls-49"><path class="cls-4" d="M808.13,375.82a10.49,10.49,0,1,0-10.49-10.49,10.49,10.49,0,0,0,10.49,10.49"/><path class="cls-9" d="M808.13,355.59a9.75,9.75,0,1,0,9.75,9.74,9.75,9.75,0,0,0-9.75-9.74m0-1.5a11.24,11.24,0,1,1-11.24,11.24,11.24,11.24,0,0,1,11.24-11.24"/><g class="cls-10"><g class="cls-49"><g class="cls-50"><rect class="cls-51" x="794.21" y="351.41" width="27.85" height="27.85" transform="translate(232.41 1039.94) rotate(-73.85)"/></g></g></g></g></g></g></g></g><g class="cls-52"><g class="cls-52"><g class="cls-52"><g class="cls-53"><g class="cls-53"><path class="cls-4" d="M845.51,450.39a34.88,34.88,0,1,0-34.88-34.88,34.92,34.92,0,0,0,34.88,34.88"/><path class="cls-9" d="M845.51,383.11a32.4,32.4,0,1,0,32.39,32.4,32.43,32.43,0,0,0-32.39-32.4m0-5a37.37,37.37,0,1,1-37.37,37.37,37.37,37.37,0,0,1,37.37-37.37"/><g class="cls-10"><g class="cls-53"><g class="cls-54"><rect class="cls-55" x="799.22" y="369.22" width="92.57" height="92.57" transform="translate(211.2 1112.06) rotate(-73.85)"/></g></g></g></g><g class="cls-56"><path class="cls-4" d="M845.51,438.19a22.69,22.69,0,1,0-22.69-22.68,22.71,22.71,0,0,0,22.69,22.68"/><path class="cls-9" d="M845.51,394.44a21.07,21.07,0,1,0,21.07,21.07,21.09,21.09,0,0,0-21.07-21.07m0-3.24a24.31,24.31,0,1,1-24.31,24.31,24.3,24.3,0,0,1,24.31-24.31"/><g class="cls-10"><g class="cls-56"><g class="cls-57"><rect class="cls-58" x="815.4" y="385.4" width="60.21" height="60.21" transform="translate(211.2 1112.05) rotate(-73.85)"/></g></g></g></g><g class="cls-59"><path class="cls-4" d="M845.51,426A10.5,10.5,0,1,0,835,415.51,10.51,10.51,0,0,0,845.51,426"/><path class="cls-9" d="M845.51,405.76a9.75,9.75,0,1,0,9.74,9.75,9.76,9.76,0,0,0-9.74-9.75m0-1.49a11.24,11.24,0,1,1-11.24,11.24,11.24,11.24,0,0,1,11.24-11.24"/><g class="cls-10"><g class="cls-59"><g class="cls-60"><rect class="cls-61" x="831.58" y="401.58" width="27.85" height="27.85" transform="translate(211.2 1112.06) rotate(-73.85)"/></g></g></g></g></g></g></g></g><path class="cls-9" d="M481.77,662.17c36,0,100.56,14.54,104.14,25.7s-11,20.19-7.76,28.88,20.39-2.31,67.1,26.25l8.81,28.33c-60.88-34.84-98.59-18.65-103.69-28.33s9.83-18.07,6.19-27-38.8-13.15-74.79-13.15Z"/><path class="cls-9" d="M481.77,172.52c14.55,54.39,100.07,101.12,220.33,143.26C828.42,360,902.36,439,900.87,479l58.88-80.57c9.54-13.78,17.49-95.07-194.66-170.66C560.64,154.91,490.57,69.53,481.77,53.83Z"/><path class="cls-9" d="M481.77,172.52c14.55,54.39,100.07,101.12,220.33,143.26C828.42,360,902.36,439,900.87,479l58.88-80.57c9.54-13.78,17.49-95.07-194.66-170.66C560.64,154.91,490.57,69.53,481.77,53.83Z"/><path class="cls-62" d="M935.53,363"/><path class="cls-63" d="M899.27,365.11c7.93-6.67,16.17-14.59,25.46-19.53a109.18,109.18,0,0,0-14.38-15.78c-19.58,10.36-34.22,28.3-54,38.31a181.8,181.8,0,0,1,32.73,35c17.36-10.89,29.27-28.85,46.44-40.06,6.4,13.15,8.46,26.33,9.48,40.75-11.46,14.51-22.6,29.27-34,43.79A134.16,134.16,0,0,0,901.56,424c7.41-6.31,13.83-13.72,20.44-20.83"/><path class="cls-64" d="M820.91,309.29c9.35-6.68,18.68-13.72,28.7-19.4-9.56-4.77-14.56-7.08-24.87-11.64-19.37,12.39-37.07,27.22-56.51,39.49,16,7,31.64,14.4,47,22.68,20.32-10.72,37-27.25,57.16-38.22a214.23,214.23,0,0,1,37.93,27.6c-19.58,10.36-34.22,28.3-54,38.31a201,201,0,0,0-19.67-14.62c10-5,19.1-12.42,28-19"/><path class="cls-65" d="M653.05,209"/><path class="cls-66" d="M608.51,220.36c5.82-7.76,11.67-16.35,15.7-25.2-9.45-4.72-18.81-9.74-28-15-7.59,17.93-18.08,34.21-25.66,52.15a496.89,496.89,0,0,0,45.89,25.07c10.26-17.57,26.09-31,36.59-48.45,19.5,8.65,39.18,16.78,59,24.64-14.25,16-31.61,28.83-45.72,44.92-10.21-4-15.29-6-25.29-10.2,6.09-8.44,13.52-15.85,20.71-23.32"/><path class="cls-67" d="M518.16,153.7c1.57-9.55,2.59-19.08,3.51-28.7a242.26,242.26,0,0,1-20.54-22.55c-.11,19.59-.31,39.18-.42,58.77,8.07,14.66,18.72,27.92,30.47,39.77,3.77-18.77,9.67-36.92,13.44-55.69a495.57,495.57,0,0,0,51.64,34.84c-7.59,17.93-18.08,34.21-25.66,52.15a224.56,224.56,0,0,1-20.68-14.73,146.42,146.42,0,0,1,9.84-27"/><path class="cls-68" d="M716.71,266.63c8.37-7.08,16.86-14.09,24.77-21.69q-14.72-5.64-29.39-11.39c-14.25,16-31.61,28.83-45.72,44.92,17.09,6.57,34.26,13,51.41,19.37,17.3-14.2,35.2-27.65,52.52-41.82,18.27,7.12,36.52,14.3,54.44,22.23-19.37,12.39-37.07,27.22-56.51,39.49-9.83-4.18-14.84-6.19-25-10.15,9.26-6.61,18.34-13.47,27.45-20.27"/><path class="cls-9" d="M481.77,99.46C513.7,185.45,622.21,202,666,150.71c-27,4.78-47.09,2.17-58.14-18.24-20,2.75-87.83-31.06-78-92.3C518.41,54.07,518,61.94,518,61.94S496.92,53.42,481.77,0Z"/><path class="cls-9" d="M481.77,109c29.86,75.81,131.32,90.36,172.29,45.18-25.27,4.21-44,1.92-54.37-16.08-18.7,2.43-82.12-27.37-72.94-81.36C516,69,515.64,75.89,515.64,75.89s-19.71-7.51-33.87-54.61Z"/><path class="cls-69" d="M481.77,109c29.86,75.81,131.32,90.36,172.29,45.18-25.27,4.21-44,1.92-54.37-16.08-18.7,2.43-82.12-27.37-72.94-81.36C516,69,515.64,75.89,515.64,75.89s-19.71-7.51-33.87-54.61Z"/><path class="cls-9" d="M643.72,113.17c-8.8-10.33-27.56-11.48-34.07-4.21s-8,47.1,44.41,45.18c-14.16,0-39.82,10-54.37-16.08-8.61-15.41-6.89-46.32,18.76-46.33C636.83,91.73,643.72,113.17,643.72,113.17Z"/><path class="cls-70" d="M643.72,113.17c-8.8-10.33-27.56-11.48-34.07-4.21s-8,47.1,44.41,45.18c-14.16,0-39.82,10-54.37-16.08-8.61-15.41-6.89-46.32,18.76-46.33C636.83,91.73,643.72,113.17,643.72,113.17Z"/><path class="cls-9" d="M897.82,362.68c-6.12,12,1.37,28,14.65,38.49s39.2,8.91,47.28-2.76L674.35,788.94c-6.1,8.81-25.68,10-35.71,2.09S623,771,627.58,762Z"/><path class="cls-4" d="M959.75,398.41c-8.08,11.67-34,13.23-47.28,2.76s-20.77-26.49-14.65-38.49l-55.73,82.38c-5.82,11.39,1.3,26.6,13.9,36.54s37.21,8.45,44.88-2.62Z"/><path class="cls-4" d="M959.75,398.41c-8.08,11.67-34,13.23-47.28,2.76s-20.77-26.49-14.65-38.49l-55.73,82.38c-5.82,11.39,1.3,26.6,13.9,36.54s37.21,8.45,44.88-2.62Z"/><path class="cls-4" d="M690.58,766.74c-5.23,7.16-23.81,7-33.84-.91s-17.22-19.29-12.59-28.35L627.58,762c-4.84,10.4,1.54,21.57,11.06,29.08s29.92,6.28,35.71-2.09Z"/><path class="cls-4" d="M690.58,766.74c-5.23,7.16-23.81,7-33.84-.91s-17.22-19.29-12.59-28.35L627.58,762c-4.84,10.4,1.54,21.57,11.06,29.08s29.92,6.28,35.71-2.09Z"/><path class="cls-71" d="M871.71,426.34c5.48-8.18,10.92-16.39,16.58-24.46-3.29-5.74-4.25-8.74-3.85-13.3-11,16.43-21.39,33.3-32.45,49.71-.74,10.8,7.94,18.73,14.55,25.74,11.32-16,22.1-32.46,33.4-48.51,9.76,8.26,23.09,12.51,35.4,7.41-11.56,16.12-22.93,32.38-34.5,48.49-7.13,3.3-11,3.2-18,1.36,5.69-8,11.27-16.16,16.88-24.26"/><g class="cls-72"><path class="cls-73" d="M897.82,362.68c-6.12,12,1.37,28,14.65,38.49s39.2,8.91,47.28-2.76L674.35,788.94c-6.1,8.81-25.68,10-35.71,2.09S623,771,627.58,762Z"/><path class="cls-73" d="M959.75,398.41c-8.08,11.67-34,13.23-47.28,2.76s-20.77-26.49-14.65-38.49l-55.73,82.38c-5.82,11.39,1.3,26.6,13.9,36.54s37.21,8.45,44.88-2.62Z"/><path class="cls-73" d="M897.82,362.68l-55.73,82.38c-5.82,11.39,1.3,26.6,13.9,36.54,5.69,4.48,13.82,6.64,21.74,6.64,9.63,0,18.93-3.19,23.14-9.26l58.43-80c-4.62,6-14.12,9.14-23.93,9.14-8.34,0-16.91-2.27-22.9-7-13.28-10.46-20.77-26.49-14.65-38.49m61.93,35.73-.45.62.45-.62M897,362.12l1.72,1c-5.47,10.71.58,26.38,14.38,37.26,5.46,4.31,13.59,6.78,22.28,6.78,10.11,0,19-3.35,23.13-8.74l.44-.61,1.63,1.16c-.15.22-.31.44-.47.65l-58.42,79.94c-4.13,6-13.31,9.67-23.95,9.67-8.68,0-16.83-2.5-22.36-6.86a45.76,45.76,0,0,1-14.16-18.13c-2.91-7.17-2.92-14,0-19.65l0-.05,0-.05L897,362.12Z"/><path class="cls-73" d="M959.75,398.41c-8.08,11.67-34,13.23-47.28,2.76s-20.77-26.49-14.65-38.49l-55.73,82.38c-5.82,11.39,1.3,26.6,13.9,36.54s37.21,8.45,44.88-2.62Z"/><path class="cls-73" d="M690.58,766.74c-5.23,7.16-23.81,7-33.84-.91s-17.22-19.29-12.59-28.35L627.58,762c-4.84,10.4,1.54,21.57,11.06,29.08s29.92,6.28,35.71-2.09Z"/><path class="cls-73" d="M644.15,737.48,627.58,762c-4.84,10.4,1.54,21.57,11.06,29.08,4.27,3.36,10.72,5,17.06,5,7.81,0,15.46-2.44,18.65-7.06l16.23-22.2c-2.52,3.45-8.15,5.2-14.42,5.2-6.74,0-14.23-2-19.42-6.11-10-7.91-17.22-19.29-12.59-28.35m-.83-.56,1.72,1c-4.68,9.16,3.71,20.33,12.32,27.11,4.68,3.69,11.71,5.9,18.8,5.9,6.33,0,11.42-1.79,13.61-4.79l.81.59.81.59-16.23,22.2C672,794.13,664.51,797,655.7,797c-7.05,0-13.49-1.89-17.68-5.19-9-7.09-16.7-18.77-11.35-30.28l0-.07,0-.07,16.57-24.47Z"/><path class="cls-73" d="M690.58,766.74c-5.23,7.16-23.81,7-33.84-.91s-17.22-19.29-12.59-28.35L627.58,762c-4.84,10.4,1.54,21.57,11.06,29.08s29.92,6.28,35.71-2.09Z"/><path class="cls-73" d="M871.71,426.34c5.48-8.18,10.92-16.39,16.58-24.46-3.29-5.74-4.25-8.74-3.85-13.3-11,16.43-21.39,33.3-32.45,49.71-.74,10.8,7.94,18.73,14.55,25.74,11.32-16,22.1-32.46,33.4-48.51,9.76,8.26,23.09,12.51,35.4,7.41-11.56,16.12-22.93,32.38-34.5,48.49-7.13,3.3-11,3.2-18,1.36,5.69-8,11.27-16.16,16.88-24.26"/></g><path class="cls-4" d="M481.77,683.27,400.57,712l-91.1,59.38L3.79,398.41c-9.55-13.78-17.5-95.07,194.65-170.66C402.9,154.91,473,69.53,481.77,53.83Z"/><path class="cls-74" d="M481.77,683.27,400.57,712l-91.1,59.38L3.79,398.41c-9.55-13.78-17.5-95.07,194.65-170.66C402.9,154.91,473,69.53,481.77,53.83Z"/><path class="cls-75" d="M481.77,683.27,400.57,712l-91.1,59.38L3.79,398.41c-9.55-13.78-17.5-95.07,194.65-170.66C402.9,154.91,473,69.53,481.77,53.83Z"/><g class="cls-76"><g class="cls-76"><g class="cls-76"><g class="cls-77"><g class="cls-77"><path class="cls-4" d="M168.69,548.24a34.88,34.88,0,1,1,34.88-34.88,34.92,34.92,0,0,1-34.88,34.88"/><path class="cls-9" d="M168.69,481a32.4,32.4,0,1,1-32.4,32.4,32.43,32.43,0,0,1,32.4-32.4m0-5a37.37,37.37,0,1,0,37.36,37.37A37.37,37.37,0,0,0,168.69,476"/><g class="cls-10"><g class="cls-77"><g class="cls-78"><rect class="cls-79" x="122.4" y="467.07" width="92.57" height="92.57" transform="translate(-136.15 67.19) rotate(-16.15)"/></g></g></g></g><g class="cls-80"><path class="cls-4" d="M168.69,536a22.69,22.69,0,1,1,22.69-22.68A22.71,22.71,0,0,1,168.69,536"/><path class="cls-9" d="M168.69,492.29a21.07,21.07,0,1,1-21.07,21.07,21.09,21.09,0,0,1,21.07-21.07m0-3.24A24.31,24.31,0,1,0,193,513.36a24.3,24.3,0,0,0-24.3-24.31"/><g class="cls-10"><g class="cls-80"><g class="cls-81"><rect class="cls-82" x="138.58" y="483.25" width="60.21" height="60.21" transform="matrix(0.96, -0.28, 0.28, 0.96, -136.15, 67.19)"/></g></g></g></g><g class="cls-83"><path class="cls-4" d="M168.69,523.85a10.5,10.5,0,1,1,10.49-10.49,10.5,10.5,0,0,1-10.49,10.49"/><path class="cls-9" d="M168.69,503.61a9.75,9.75,0,1,1-9.75,9.75,9.75,9.75,0,0,1,9.75-9.75m0-1.49a11.24,11.24,0,1,0,11.24,11.24,11.24,11.24,0,0,0-11.24-11.24"/><g class="cls-10"><g class="cls-83"><g class="cls-84"><rect class="cls-85" x="154.77" y="499.43" width="27.85" height="27.85" transform="translate(-136.15 67.19) rotate(-16.15)"/></g></g></g></g></g></g></g></g><g class="cls-86"><g class="cls-86"><g class="cls-86"><g class="cls-87"><g class="cls-87"><path class="cls-4" d="M198.06,377.64a34.88,34.88,0,1,1,34.88-34.88,34.92,34.92,0,0,1-34.88,34.88"/><path class="cls-9" d="M198.06,310.36a32.4,32.4,0,1,1-32.39,32.4,32.43,32.43,0,0,1,32.39-32.4m0-5a37.37,37.37,0,1,0,37.37,37.37,37.37,37.37,0,0,0-37.37-37.37"/><g class="cls-10"><g class="cls-87"><g class="cls-88"><rect class="cls-89" x="151.78" y="296.47" width="92.57" height="92.57" transform="translate(-87.53 68.63) rotate(-16.15)"/></g></g></g></g><g class="cls-90"><path class="cls-4" d="M198.06,365.44a22.69,22.69,0,1,1,22.69-22.68,22.71,22.71,0,0,1-22.69,22.68"/><path class="cls-9" d="M198.06,321.69A21.07,21.07,0,1,1,177,342.75a21.09,21.09,0,0,1,21.07-21.06m0-3.24a24.31,24.31,0,1,0,24.31,24.3,24.3,24.3,0,0,0-24.31-24.3"/><g class="cls-10"><g class="cls-90"><g class="cls-91"><rect class="cls-92" x="167.96" y="312.65" width="60.21" height="60.21" transform="translate(-87.53 68.63) rotate(-16.15)"/></g></g></g></g><g class="cls-93"><path class="cls-4" d="M198.06,353.25a10.5,10.5,0,1,1,10.5-10.49,10.51,10.51,0,0,1-10.5,10.49"/><path class="cls-9" d="M198.06,333a9.75,9.75,0,1,1-9.74,9.75,9.76,9.76,0,0,1,9.74-9.75m0-1.5a11.25,11.25,0,1,0,11.24,11.25,11.25,11.25,0,0,0-11.24-11.25"/><g class="cls-10"><g class="cls-93"><g class="cls-94"><rect class="cls-95" x="184.14" y="328.83" width="27.85" height="27.85" transform="translate(-87.53 68.63) rotate(-16.15)"/></g></g></g></g></g></g></g></g><g class="cls-96"><g class="cls-96"><g class="cls-96"><path class="cls-4" d="M183.19,465.47a50,50,0,1,1,47.95-36.07,49.93,49.93,0,0,1-47.95,36.07"/><path class="cls-9" d="M183.14,369.1a46.41,46.41,0,0,1,27.66,83.67,46.79,46.79,0,0,1-27.61,9.14,46.39,46.39,0,0,1-27.66-83.66,46.68,46.68,0,0,1,27.61-9.15h0m0-7.12a53.56,53.56,0,1,0,14.91,2.13A53.55,53.55,0,0,0,183.14,362"/><g class="cls-10"><g class="cls-96"><g class="cls-97"><rect class="cls-98" x="123.55" y="355.89" width="119.23" height="119.23"/></g></g></g><path class="cls-9" d="M159.4,461.69a48.36,48.36,0,0,0,18.5,1.36,47.86,47.86,0,0,0,31.53-17.56,47.14,47.14,0,0,0,8.4-16.17,37.15,37.15,0,0,0-6.65-34.05,36.58,36.58,0,0,0-14.06-10.68c-.69-.28-1.37-.58-2.07-.81l-1.05-.37-1.06-.32c-.71-.23-1.42-.38-2.13-.56s-1.42-.29-2.15-.37-1.44-.16-2.16-.23-1.46-.07-2.18-.05a27.1,27.1,0,0,0-4.32.39,28.49,28.49,0,0,0-15.2,7.67,28,28,0,0,0-5.16,6.81,26.65,26.65,0,0,0-1.74,3.9c-.25.66-.45,1.35-.65,2l-.45,2a21.83,21.83,0,0,0,3.26,15.77,21.46,21.46,0,0,0,13,9.09l1,.21,1,.1a13.86,13.86,0,0,0,1.93.09,5.21,5.21,0,0,0,1-.05l1-.08.95-.18a6.35,6.35,0,0,0,.94-.21,16.34,16.34,0,0,0,6.72-3.58,16.52,16.52,0,0,0,4.3-6.18c.11-.3.2-.6.3-.9s.22-.61.27-.9l.19-.87a8.81,8.81,0,0,0,.11-.88l0-.44c0-.15,0-.3,0-.44,0-.3,0-.59,0-.89l-.08-.87c0-.3-.11-.58-.15-.87a11.81,11.81,0,0,0-3.27-6.1,11.58,11.58,0,0,0-2.78-2,7,7,0,0,0-.78-.37,5.68,5.68,0,0,0-.81-.32l-.82-.27-.77-.16a8.4,8.4,0,0,0-5.95,1.22,8.25,8.25,0,0,0-3.53,4.82,4.45,4.45,0,0,1-8.6-2.32l0-.12v0a17.31,17.31,0,0,1,2.89-5.57,17.12,17.12,0,0,1,4.69-4.13,16.93,16.93,0,0,1,12-2.05c.5.12,1,.24,1.5.38l1.39.49a10.76,10.76,0,0,1,1.35.58,13.72,13.72,0,0,1,1.32.68,20,20,0,0,1,4.61,3.62,19.73,19.73,0,0,1,5.13,10.32,14.24,14.24,0,0,1,.2,1.44l.08,1.46c0,.48,0,1,0,1.45,0,.25,0,.49,0,.73l-.1.72c-.07.48-.12,1-.23,1.43l-.35,1.41c-.11.47-.3.88-.44,1.33s-.31.87-.48,1.3a24,24,0,0,1-6.56,8.85,23.47,23.47,0,0,1-9.79,4.84,10.7,10.7,0,0,1-1.35.26l-1.36.21-1.38.08a12.48,12.48,0,0,1-1.37,0,22.65,22.65,0,0,1-2.73-.21l-1.36-.2-1.32-.33a28.2,28.2,0,0,1-9.51-4.57,27.56,27.56,0,0,1-7.08-7.72,28,28,0,0,1-3.72-9.74,27.45,27.45,0,0,1,.16-10.38c.21-.84.41-1.69.64-2.52s.52-1.61.84-2.39a32.18,32.18,0,0,1,2.21-4.58,33.34,33.34,0,0,1,24.3-16.29,31,31,0,0,1,5-.3c.84,0,1.67.07,2.5.13s1.66.18,2.48.34,1.63.32,2.44.5,1.61.43,2.38.7l1.17.39,1.15.44c.77.28,1.51.63,2.26,1a40.31,40.31,0,0,1,22.74,29.87A39.63,39.63,0,0,1,220,430a48.93,48.93,0,0,1-42,33.62,48.48,48.48,0,0,1-18.56-1.91"/></g></g></g><g class="cls-99"><g class="cls-99"><g class="cls-99"><g class="cls-100"><g class="cls-100"><path class="cls-4" d="M141,508.21a34.88,34.88,0,1,1,34.88-34.88A34.92,34.92,0,0,1,141,508.21"/><path class="cls-9" d="M141,440.94a32.4,32.4,0,1,1-32.39,32.39A32.43,32.43,0,0,1,141,440.94m0-5a37.37,37.37,0,1,0,37.37,37.36A37.37,37.37,0,0,0,141,436"/><g class="cls-10"><g class="cls-100"><g class="cls-101"><rect class="cls-102" x="94.7" y="427.05" width="92.57" height="92.57" transform="translate(-126.11 57.9) rotate(-16.15)"/></g></g></g></g><g class="cls-103"><path class="cls-4" d="M141,496a22.69,22.69,0,1,1,22.69-22.69A22.72,22.72,0,0,1,141,496"/><path class="cls-9" d="M141,452.26a21.07,21.07,0,1,1-21.07,21.07A21.09,21.09,0,0,1,141,452.26m0-3.23a24.3,24.3,0,1,0,24.3,24.3A24.3,24.3,0,0,0,141,449"/><g class="cls-10"><g class="cls-103"><g class="cls-104"><rect class="cls-105" x="110.89" y="443.23" width="60.21" height="60.21" transform="matrix(0.96, -0.28, 0.28, 0.96, -126.11, 57.9)"/></g></g></g></g><g class="cls-106"><path class="cls-4" d="M141,483.82a10.49,10.49,0,1,1,10.49-10.49A10.49,10.49,0,0,1,141,483.82"/><path class="cls-9" d="M141,463.59a9.75,9.75,0,1,1-9.75,9.74,9.75,9.75,0,0,1,9.75-9.74m0-1.5a11.24,11.24,0,1,0,11.24,11.24A11.24,11.24,0,0,0,141,462.09"/><g class="cls-10"><g class="cls-106"><g class="cls-107"><rect class="cls-108" x="127.07" y="459.41" width="27.85" height="27.85" transform="translate(-126.11 57.9) rotate(-16.15)"/></g></g></g></g></g></g></g></g><g class="cls-109"><g class="cls-109"><g class="cls-109"><g class="cls-110"><g class="cls-110"><path class="cls-4" d="M155.4,400.21a34.88,34.88,0,1,1,34.88-34.88,34.92,34.92,0,0,1-34.88,34.88"/><path class="cls-9" d="M155.4,332.94A32.4,32.4,0,1,1,123,365.33a32.43,32.43,0,0,1,32.39-32.39m0-5a37.37,37.37,0,1,0,37.37,37.36A37.36,37.36,0,0,0,155.4,328"/><g class="cls-10"><g class="cls-110"><g class="cls-111"><rect class="cls-112" x="109.12" y="319.05" width="92.57" height="92.57" transform="translate(-95.49 57.65) rotate(-16.15)"/></g></g></g></g><g class="cls-113"><path class="cls-4" d="M155.4,388a22.69,22.69,0,1,1,22.69-22.69A22.71,22.71,0,0,1,155.4,388"/><path class="cls-9" d="M155.4,344.26a21.07,21.07,0,1,1-21.07,21.07,21.09,21.09,0,0,1,21.07-21.07m0-3.23a24.3,24.3,0,1,0,24.31,24.3A24.3,24.3,0,0,0,155.4,341"/><g class="cls-10"><g class="cls-113"><g class="cls-114"><rect class="cls-115" x="125.3" y="335.23" width="60.21" height="60.21" transform="translate(-95.49 57.65) rotate(-16.15)"/></g></g></g></g><g class="cls-116"><path class="cls-4" d="M155.4,375.82a10.49,10.49,0,1,1,10.5-10.49,10.5,10.5,0,0,1-10.5,10.49"/><path class="cls-9" d="M155.4,355.59a9.75,9.75,0,1,1-9.74,9.74,9.75,9.75,0,0,1,9.74-9.74m0-1.5a11.24,11.24,0,1,0,11.24,11.24,11.24,11.24,0,0,0-11.24-11.24"/><g class="cls-10"><g class="cls-116"><g class="cls-117"><rect class="cls-118" x="141.48" y="351.41" width="27.85" height="27.85" transform="translate(-95.49 57.65) rotate(-16.15)"/></g></g></g></g></g></g></g></g><g class="cls-119"><g class="cls-119"><g class="cls-119"><g class="cls-120"><g class="cls-120"><path class="cls-4" d="M118,450.39a34.88,34.88,0,1,1,34.88-34.88A34.92,34.92,0,0,1,118,450.39"/><path class="cls-9" d="M118,383.11a32.4,32.4,0,1,1-32.4,32.4,32.43,32.43,0,0,1,32.4-32.4m0-5a37.37,37.37,0,1,0,37.36,37.37A37.37,37.37,0,0,0,118,378.14"/><g class="cls-10"><g class="cls-120"><g class="cls-121"><rect class="cls-122" x="71.74" y="369.22" width="92.57" height="92.57" transform="translate(-110.93 49.23) rotate(-16.15)"/></g></g></g></g><g class="cls-123"><path class="cls-4" d="M118,438.19a22.69,22.69,0,1,1,22.68-22.68A22.72,22.72,0,0,1,118,438.19"/><path class="cls-9" d="M118,394.44A21.07,21.07,0,1,1,97,415.51,21.09,21.09,0,0,1,118,394.44m0-3.24a24.31,24.31,0,1,0,24.3,24.31A24.3,24.3,0,0,0,118,391.2"/><g class="cls-10"><g class="cls-123"><g class="cls-124"><rect class="cls-125" x="87.92" y="385.4" width="60.21" height="60.21" transform="matrix(0.96, -0.28, 0.28, 0.96, -110.93, 49.23)"/></g></g></g></g><g class="cls-126"><path class="cls-4" d="M118,426a10.5,10.5,0,1,1,10.49-10.49A10.5,10.5,0,0,1,118,426"/><path class="cls-9" d="M118,405.76a9.75,9.75,0,1,1-9.75,9.75,9.75,9.75,0,0,1,9.75-9.75m0-1.49a11.24,11.24,0,1,0,11.24,11.24A11.24,11.24,0,0,0,118,404.27"/><g class="cls-10"><g class="cls-126"><g class="cls-127"><rect class="cls-128" x="104.11" y="401.58" width="27.85" height="27.85" transform="translate(-110.93 49.23) rotate(-16.15)"/></g></g></g></g></g></g></g></g><path class="cls-9" d="M481.77,662.17c-36,0-100.57,14.54-104.14,25.7s11,20.19,7.76,28.88S365,714.44,318.28,743l-8.81,28.33c60.88-34.84,98.59-18.65,103.7-28.33s-9.83-18.07-6.19-27,38.8-13.15,74.79-13.15Z"/><path class="cls-9" d="M481.77,172.52c-14.55,54.39-100.08,101.12-220.34,143.26C135.12,360,61.17,439,62.66,479L3.79,398.41c-9.55-13.78-17.5-95.07,194.65-170.66C402.9,154.91,473,69.53,481.77,53.83Z"/><path class="cls-9" d="M481.77,172.52c-14.55,54.39-100.08,101.12-220.34,143.26C135.12,360,61.17,439,62.66,479L3.79,398.41c-9.55-13.78-17.5-95.07,194.65-170.66C402.9,154.91,473,69.53,481.77,53.83Z"/><path class="cls-129" d="M28,363"/><path class="cls-130" d="M64.26,365.11c-7.93-6.67-16.17-14.59-25.45-19.53A108,108,0,0,1,53.19,329.8c19.57,10.36,34.21,28.3,54,38.31a181.54,181.54,0,0,0-32.74,35C57.06,392.18,45.15,374.22,28,363c-6.41,13.15-8.46,26.33-9.48,40.75,11.45,14.51,22.6,29.27,34,43.79A134.93,134.93,0,0,1,62,424c-7.4-6.31-13.83-13.72-20.44-20.83"/><path class="cls-131" d="M142.63,309.29c-9.36-6.68-18.68-13.72-28.71-19.4,9.56-4.77,14.56-7.08,24.87-11.64,19.38,12.39,37.07,27.22,56.51,39.49-16,7-31.64,14.4-47,22.68-20.32-10.72-37-27.25-57.16-38.22a213.86,213.86,0,0,0-37.93,27.6c19.57,10.36,34.21,28.3,54,38.31a199.79,199.79,0,0,1,19.67-14.62c-10-5-19.11-12.42-28-19"/><path class="cls-132" d="M310.48,209"/><path class="cls-133" d="M355,220.36c-5.82-7.76-11.67-16.35-15.69-25.2,9.44-4.72,18.81-9.74,27.95-15,7.58,17.93,18.07,34.21,25.66,52.15a499.49,499.49,0,0,1-45.89,25.07c-10.26-17.57-26.1-31-36.59-48.45-19.5,8.65-39.18,16.78-59,24.64,14.24,16,31.6,28.83,45.71,44.92,10.21-4,15.29-6,25.29-10.2-6.09-8.44-13.51-15.85-20.7-23.32"/><path class="cls-134" d="M445.37,153.7c-1.56-9.55-2.58-19.08-3.5-28.7a242.15,242.15,0,0,0,20.53-22.55c.11,19.59.31,39.18.42,58.77-8.06,14.66-18.71,27.92-30.47,39.77-3.76-18.77-9.66-36.92-13.43-55.69a497.69,497.69,0,0,1-51.64,34.84c7.58,17.93,18.07,34.21,25.66,52.15a224.4,224.4,0,0,0,20.67-14.73,145.69,145.69,0,0,0-9.84-27"/><path class="cls-135" d="M246.83,266.63c-8.38-7.08-16.87-14.09-24.78-21.69q14.73-5.64,29.4-11.39c14.24,16,31.6,28.83,45.71,44.92-17.09,6.57-34.25,13-51.41,19.37-17.29-14.2-35.2-27.65-52.52-41.82-18.26,7.12-36.51,14.3-54.44,22.23,19.38,12.39,37.07,27.22,56.51,39.49,9.83-4.18,14.84-6.19,24.95-10.15C211,301,201.91,294.12,192.8,287.32"/><path class="cls-9" d="M481.77,99.46c-31.94,86-140.44,102.5-184.25,51.25,27,4.78,47.08,2.17,58.14-18.24,20,2.75,87.82-31.06,78-92.3,11.46,13.9,11.89,21.77,11.89,21.77S466.62,53.42,481.77,0Z"/><path class="cls-9" d="M481.77,109c-29.87,75.81-131.33,90.36-172.3,45.18,25.27,4.21,44,1.92,54.37-16.08,18.71,2.43,82.13-27.37,72.94-81.36C447.5,69,447.9,75.89,447.9,75.89s19.7-7.51,33.87-54.61Z"/><path class="cls-136" d="M481.77,109c-29.87,75.81-131.33,90.36-172.3,45.18,25.27,4.21,44,1.92,54.37-16.08,18.71,2.43,82.13-27.37,72.94-81.36C447.5,69,447.9,75.89,447.9,75.89s19.7-7.51,33.87-54.61Z"/><path class="cls-9" d="M319.81,113.17c8.81-10.33,27.57-11.48,34.08-4.21s8,47.1-44.42,45.18c14.17,0,39.82,10,54.37-16.08,8.61-15.41,6.9-46.32-18.76-46.33C326.7,91.73,319.81,113.17,319.81,113.17Z"/><path class="cls-137" d="M319.81,113.17c8.81-10.33,27.57-11.48,34.08-4.21s8,47.1-44.42,45.18c14.17,0,39.82,10,54.37-16.08,8.61-15.41,6.9-46.32-18.76-46.33C326.7,91.73,319.81,113.17,319.81,113.17Z"/><path class="cls-9" d="M65.71,362.68c6.13,12-1.37,28-14.64,38.49s-39.21,8.91-47.28-2.76L289.18,788.94c6.1,8.81,25.69,10,35.71,2.09S340.58,771,336,762Z"/><path class="cls-4" d="M3.79,398.41c8.07,11.67,34,13.23,47.28,2.76s20.77-26.49,14.64-38.49l55.74,82.38c5.81,11.39-1.31,26.6-13.9,36.54S70.33,490.05,62.66,479Z"/><path class="cls-4" d="M3.79,398.41c8.07,11.67,34,13.23,47.28,2.76s20.77-26.49,14.64-38.49l55.74,82.38c5.81,11.39-1.31,26.6-13.9,36.54S70.33,490.05,62.66,479Z"/><path class="cls-4" d="M273,766.74c5.23,7.16,23.81,7,33.84-.91s17.22-19.29,12.59-28.35L336,762c4.84,10.4-1.54,21.57-11.06,29.08s-29.92,6.28-35.71-2.09Z"/><path class="cls-4" d="M273,766.74c5.23,7.16,23.81,7,33.84-.91s17.22-19.29,12.59-28.35L336,762c4.84,10.4-1.54,21.57-11.06,29.08s-29.92,6.28-35.71-2.09Z"/><path class="cls-138" d="M91.83,426.34C86.34,418.16,80.9,410,75.25,401.88c3.29-5.74,4.24-8.74,3.84-13.3,11,16.43,21.4,33.3,32.45,49.71C112.28,449.09,103.6,457,97,464c-11.32-16-22.1-32.46-33.4-48.51-9.76,8.26-23.08,12.51-35.39,7.41,11.56,16.12,22.92,32.38,34.49,48.49,7.14,3.3,11,3.2,18,1.36-5.68-8-11.27-16.16-16.88-24.26"/><g class="cls-72"><path class="cls-139" d="M65.71,362.68c6.13,12-1.37,28-14.64,38.49s-39.21,8.91-47.28-2.76L289.18,788.94c6.1,8.81,25.69,10,35.71,2.09S340.58,771,336,762Z"/><path class="cls-139" d="M3.79,398.41c8.07,11.67,34,13.23,47.28,2.76s20.77-26.49,14.64-38.49l55.74,82.38c5.81,11.39-1.31,26.6-13.9,36.54S70.33,490.05,62.66,479Z"/><path class="cls-139" d="M65.71,362.68l55.74,82.38c5.81,11.39-1.31,26.6-13.9,36.54-5.69,4.48-13.83,6.64-21.75,6.64-9.62,0-18.93-3.19-23.13-9.26L4.24,399c4.62,6,14.11,9.14,23.92,9.14,8.35,0,16.92-2.27,22.91-7,13.27-10.46,20.77-26.49,14.64-38.49M3.79,398.41l.45.62c-.16-.2-.31-.41-.45-.62m62.75-36.29-1.72,1c5.47,10.71-.58,26.38-14.37,37.26-5.47,4.31-13.59,6.78-22.29,6.78-10.1,0-19-3.35-23.12-8.74l-.44-.61L3,399c.15.22.3.44.47.65l58.42,79.94c4.12,6,13.3,9.67,23.94,9.67,8.69,0,16.84-2.5,22.36-6.86a45.88,45.88,0,0,0,14.17-18.13c2.91-7.17,2.91-14,0-19.65l0-.05,0-.05L66.54,362.12Z"/><path class="cls-139" d="M3.79,398.41c8.07,11.67,34,13.23,47.28,2.76s20.77-26.49,14.64-38.49l55.74,82.38c5.81,11.39-1.31,26.6-13.9,36.54S70.33,490.05,62.66,479Z"/><path class="cls-139" d="M273,766.74c5.23,7.16,23.81,7,33.84-.91s17.22-19.29,12.59-28.35L336,762c4.84,10.4-1.54,21.57-11.06,29.08s-29.92,6.28-35.71-2.09Z"/><path class="cls-139" d="M319.39,737.48,336,762c4.84,10.4-1.54,21.57-11.06,29.08-4.26,3.36-10.72,5-17.06,5-7.81,0-15.45-2.44-18.65-7.06L273,766.74c2.52,3.45,8.14,5.2,14.42,5.2,6.73,0,14.22-2,19.42-6.11,10-7.91,17.22-19.29,12.59-28.35m.83-.56-1.72,1c4.67,9.16-3.72,20.33-12.32,27.11-4.69,3.69-11.72,5.9-18.8,5.9-6.34,0-11.42-1.79-13.62-4.79l-.8.59-.81.59,16.23,22.2c3.18,4.6,10.64,7.47,19.45,7.47,7.05,0,13.5-1.89,17.68-5.19,9-7.09,16.7-18.77,11.35-30.28l0-.07-.05-.07-16.56-24.47Z"/><path class="cls-139" d="M273,766.74c5.23,7.16,23.81,7,33.84-.91s17.22-19.29,12.59-28.35L336,762c4.84,10.4-1.54,21.57-11.06,29.08s-29.92,6.28-35.71-2.09Z"/><path class="cls-139" d="M91.83,426.34C86.34,418.16,80.9,410,75.25,401.88c3.29-5.74,4.24-8.74,3.84-13.3,11,16.43,21.4,33.3,32.45,49.71C112.28,449.09,103.6,457,97,464c-11.32-16-22.1-32.46-33.4-48.51-9.76,8.26-23.08,12.51-35.39,7.41,11.56,16.12,22.92,32.38,34.49,48.49,7.14,3.3,11,3.2,18,1.36-5.68-8-11.27-16.16-16.88-24.26"/></g></g></g></g></svg>