<svg xmlns="http://www.w3.org/2000/svg" xmlns:xlink="http://www.w3.org/1999/xlink" viewBox="0 0 963.53 797"><defs><style>.cls-1{isolation:isolate;}.cls-2{fill:#ffed4a;}.cls-11,.cls-13,.cls-3{mix-blend-mode:soft-light;}.cls-3{fill:url(#New_Gradient_Swatch_1);}.cls-10,.cls-14,.cls-17,.cls-4,.cls-6{fill:none;stroke-miterlimit:10;}.cls-4{stroke:#cc2121;stroke-width:8px;}.cls-5{mix-blend-mode:overlay;}.cls-14,.cls-6{stroke-width:3px;}.cls-6{stroke:url(#New_Gradient_Swatch_1-2);}.cls-10,.cls-15,.cls-16,.cls-17,.cls-7,.cls-8{mix-blend-mode:color-dodge;}.cls-7{fill:url(#radial-gradient);}.cls-8{fill:url(#radial-gradient-2);}.cls-9{fill:#cc2121;}.cls-10,.cls-17{stroke-width:7.71px;}.cls-10{stroke:url(#New_Gradient_Swatch_1-7);}.cls-12{fill:url(#linear-gradient);}.cls-13{fill:url(#New_Gradient_Swatch_1-8);}.cls-14{stroke:url(#New_Gradient_Swatch_1-9);}.cls-15{fill:url(#radial-gradient-3);}.cls-16{fill:url(#radial-gradient-4);}.cls-17{stroke:url(#New_Gradient_Swatch_1-14);}.cls-18{fill:url(#linear-gradient-9);}</style><linearGradient id="New_Gradient_Swatch_1" x1="20.99" y1="422.98" x2="503.62" y2="85.04" gradientTransform="matrix(-1, 0, 0, 1, 963.53, 0)" gradientUnits="userSpaceOnUse"><stop offset="0.2" stop-color="#fff"/><stop offset="0.25" stop-color="#353232"/><stop offset="0.31" stop-color="#231f20"/><stop offset="0.7" stop-color="#fff"/><stop offset="0.75"/><stop offset="1"/></linearGradient><linearGradient id="New_Gradient_Swatch_1-2" x1="24.38" y1="419.26" x2="475.11" y2="103.65" xlink:href="#New_Gradient_Swatch_1"/><radialGradient id="radial-gradient" cx="395.62" cy="100.49" r="82.75" gradientTransform="matrix(-0.97, 0.26, 0.78, 2.9, 872.03, -293.1)" gradientUnits="userSpaceOnUse"><stop offset="0.2" stop-color="#fff"/><stop offset="0.25" stop-color="#353232"/><stop offset="0.31" stop-color="#231f20"/><stop offset="0.75"/><stop offset="1" stop-color="#fff"/><stop offset="1"/></radialGradient><radialGradient id="radial-gradient-2" cx="338.99" cy="123.87" r="30.86" gradientTransform="matrix(-1, 0, 0, 1, 963.53, 0)" xlink:href="#radial-gradient"/><linearGradient id="New_Gradient_Swatch_1-7" x1="43.27" y1="451.44" x2="100.24" y2="411.55" xlink:href="#New_Gradient_Swatch_1"/><linearGradient id="linear-gradient" x1="148.31" y1="606.56" x2="208.29" y2="564.56" xlink:href="#New_Gradient_Swatch_1"/><linearGradient id="New_Gradient_Swatch_1-8" x1="20.99" y1="422.98" x2="503.62" y2="85.04" gradientTransform="matrix(1, 0, 0, 1, 0, 0)" xlink:href="#New_Gradient_Swatch_1"/><linearGradient id="New_Gradient_Swatch_1-9" x1="24.38" y1="419.26" x2="475.11" y2="103.65" gradientTransform="matrix(1, 0, 0, 1, 0, 0)" xlink:href="#New_Gradient_Swatch_1"/><radialGradient id="radial-gradient-3" cx="395.62" cy="100.49" r="82.75" gradientTransform="translate(91.5 -293.1) rotate(15) scale(1 3)" xlink:href="#radial-gradient"/><radialGradient id="radial-gradient-4" cx="338.99" cy="123.87" r="30.86" gradientTransform="matrix(1, 0, 0, 1, 0, 0)" xlink:href="#radial-gradient"/><linearGradient id="New_Gradient_Swatch_1-14" x1="43.27" y1="451.44" x2="100.24" y2="411.55" gradientTransform="matrix(1, 0, 0, 1, 0, 0)" xlink:href="#New_Gradient_Swatch_1"/><linearGradient id="linear-gradient-9" x1="148.31" y1="606.56" x2="208.29" y2="564.56" gradientTransform="matrix(1, 0, 0, 1, 0, 0)" xlink:href="#New_Gradient_Swatch_1"/></defs><title>result-board</title><g class="cls-1"><g id="Layer_2" data-name="Layer 2"><g id="Layer_5" data-name="Layer 5"><path class="cls-2" d="M481.77,662.17c36,0,100.56,14.54,104.14,25.7s-11,20.19-7.76,28.88,20.39-2.31,67.1,26.25l8.81,28.33c-60.88-34.84-98.59-18.65-103.69-28.33s9.83-18.07,6.19-27-38.8-13.15-74.79-13.15Z"/><path class="cls-2" d="M481.77,172.52c14.55,54.39,100.07,101.12,220.33,143.26C828.42,360,902.36,439,900.87,479l58.88-80.57c9.54-13.78,17.49-95.07-194.66-170.66C560.64,154.91,490.57,69.53,481.77,53.83Z"/><path class="cls-3" d="M481.77,172.52c14.55,54.39,100.07,101.12,220.33,143.26C828.42,360,902.36,439,900.87,479l58.88-80.57c9.54-13.78,17.49-95.07-194.66-170.66C560.64,154.91,490.57,69.53,481.77,53.83Z"/><path class="cls-4" d="M899.27,365.11c7.93-6.67,16.17-14.59,25.46-19.53a109.18,109.18,0,0,0-14.38-15.78c-19.58,10.36-34.22,28.3-54,38.31a181.8,181.8,0,0,1,32.73,35c17.36-10.89,29.27-28.85,46.44-40.06,6.4,13.15,8.46,26.33,9.48,40.75-11.46,14.51-22.6,29.27-34,43.79A134.16,134.16,0,0,0,901.56,424c7.41-6.31,13.83-13.72,20.44-20.83"/><path class="cls-4" d="M820.91,309.29c9.35-6.68,18.68-13.72,28.7-19.4-9.56-4.77-14.56-7.08-24.87-11.64-19.37,12.39-37.07,27.22-56.51,39.49,16,7,31.64,14.4,47,22.68,20.32-10.72,37-27.25,57.16-38.22a214.23,214.23,0,0,1,37.93,27.6c-19.58,10.36-34.22,28.3-54,38.31a201,201,0,0,0-19.67-14.62c10-5,19.1-12.42,28-19"/><path class="cls-4" d="M608.51,220.36c5.82-7.76,11.67-16.35,15.7-25.2-9.45-4.72-18.81-9.74-28-15-7.59,17.93-18.08,34.21-25.66,52.15a496.89,496.89,0,0,0,45.89,25.07c10.26-17.57,26.09-31,36.59-48.45,19.5,8.65,39.18,16.78,59,24.64-14.25,16-31.61,28.83-45.72,44.92-10.21-4-15.29-6-25.29-10.2,6.09-8.44,13.52-15.85,20.71-23.32"/><path class="cls-4" d="M518.16,153.7c1.57-9.55,2.59-19.08,3.51-28.7a242.26,242.26,0,0,1-20.54-22.55c-.11,19.59-.31,39.18-.42,58.77,8.07,14.66,18.72,27.92,30.47,39.77,3.77-18.77,9.67-36.92,13.44-55.69a495.57,495.57,0,0,0,51.64,34.84c-7.59,17.93-18.08,34.21-25.66,52.15a224.56,224.56,0,0,1-20.68-14.73,146.42,146.42,0,0,1,9.84-27"/><path class="cls-4" d="M716.71,266.63c8.37-7.08,16.86-14.09,24.77-21.69q-14.72-5.64-29.39-11.39c-14.25,16-31.61,28.83-45.72,44.92,17.09,6.57,34.26,13,51.41,19.37,17.3-14.2,35.2-27.65,52.52-41.82,18.27,7.12,36.52,14.3,54.44,22.23-19.37,12.39-37.07,27.22-56.51,39.49-9.83-4.18-14.84-6.19-25-10.15,9.26-6.61,18.34-13.47,27.45-20.27"/><g class="cls-5"><path class="cls-6" d="M899.27,365.11c7.93-6.67,16.17-14.59,25.46-19.53a109.18,109.18,0,0,0-14.38-15.78c-19.58,10.36-34.22,28.3-54,38.31a181.8,181.8,0,0,1,32.73,35c17.36-10.89,29.27-28.85,46.44-40.06,6.4,13.15,8.46,26.33,9.48,40.75-11.46,14.51-22.6,29.27-34,43.79A134.16,134.16,0,0,0,901.56,424c7.41-6.31,13.83-13.72,20.44-20.83"/><path class="cls-6" d="M820.91,309.29c9.35-6.68,18.68-13.72,28.7-19.4-9.56-4.77-14.56-7.08-24.87-11.64-19.37,12.39-37.07,27.22-56.51,39.49,16,7,31.64,14.4,47,22.68,20.32-10.72,37-27.25,57.16-38.22a214.23,214.23,0,0,1,37.93,27.6c-19.58,10.36-34.22,28.3-54,38.31a201,201,0,0,0-19.67-14.62c10-5,19.1-12.42,28-19"/><path class="cls-6" d="M608.51,220.36c5.82-7.76,11.67-16.35,15.7-25.2-9.45-4.72-18.81-9.74-28-15-7.59,17.93-18.08,34.21-25.66,52.15a496.89,496.89,0,0,0,45.89,25.07c10.26-17.57,26.09-31,36.59-48.45,19.5,8.65,39.18,16.78,59,24.64-14.25,16-31.61,28.83-45.72,44.92-10.21-4-15.29-6-25.29-10.2,6.09-8.44,13.52-15.85,20.71-23.32"/><path class="cls-6" d="M518.16,153.7c1.57-9.55,2.59-19.08,3.51-28.7a242.26,242.26,0,0,1-20.54-22.55c-.11,19.59-.31,39.18-.42,58.77,8.07,14.66,18.72,27.92,30.47,39.77,3.77-18.77,9.67-36.92,13.44-55.69a495.57,495.57,0,0,0,51.64,34.84c-7.59,17.93-18.08,34.21-25.66,52.15a224.56,224.56,0,0,1-20.68-14.73,146.42,146.42,0,0,1,9.84-27"/><path class="cls-6" d="M716.71,266.63c8.37-7.08,16.86-14.09,24.77-21.69q-14.72-5.64-29.39-11.39c-14.25,16-31.61,28.83-45.72,44.92,17.09,6.57,34.26,13,51.41,19.37,17.3-14.2,35.2-27.65,52.52-41.82,18.27,7.12,36.52,14.3,54.44,22.23-19.37,12.39-37.07,27.22-56.51,39.49-9.83-4.18-14.84-6.19-25-10.15,9.26-6.61,18.34-13.47,27.45-20.27"/></g><path class="cls-2" d="M481.77,99.46C513.7,185.45,622.21,202,666,150.71c-27,4.78-47.09,2.17-58.14-18.24-20,2.75-87.83-31.06-78-92.3C518.41,54.07,518,61.94,518,61.94S496.92,53.42,481.77,0Z"/><path class="cls-2" d="M481.77,109c29.86,75.81,131.32,90.36,172.29,45.18-25.27,4.21-44,1.92-54.37-16.08-18.7,2.43-82.12-27.37-72.94-81.36C516,69,515.64,75.89,515.64,75.89s-19.71-7.51-33.87-54.61Z"/><path class="cls-7" d="M481.77,109c29.86,75.81,131.32,90.36,172.29,45.18-25.27,4.21-44,1.92-54.37-16.08-18.7,2.43-82.12-27.37-72.94-81.36C516,69,515.64,75.89,515.64,75.89s-19.71-7.51-33.87-54.61Z"/><path class="cls-2" d="M643.72,113.17c-8.8-10.33-27.56-11.48-34.07-4.21s-8,47.1,44.41,45.18c-14.16,0-39.82,10-54.37-16.08-8.61-15.41-6.89-46.32,18.76-46.33C636.83,91.73,643.72,113.17,643.72,113.17Z"/><path class="cls-8" d="M643.72,113.17c-8.8-10.33-27.56-11.48-34.07-4.21s-8,47.1,44.41,45.18c-14.16,0-39.82,10-54.37-16.08-8.61-15.41-6.89-46.32,18.76-46.33C636.83,91.73,643.72,113.17,643.72,113.17Z"/><path class="cls-2" d="M897.82,362.68c-6.12,12,1.37,28,14.65,38.49s39.2,8.91,47.28-2.76L674.35,788.94c-6.1,8.81-25.68,10-35.71,2.09S623,771,627.58,762Z"/><path class="cls-9" d="M959.75,398.41c-8.08,11.67-34,13.23-47.28,2.76s-20.77-26.49-14.65-38.49l-55.73,82.38c-5.82,11.39,1.3,26.6,13.9,36.54s37.21,8.45,44.88-2.62Z"/><path class="cls-9" d="M959.75,398.41c-8.08,11.67-34,13.23-47.28,2.76s-20.77-26.49-14.65-38.49l-55.73,82.38c-5.82,11.39,1.3,26.6,13.9,36.54s37.21,8.45,44.88-2.62Z"/><path class="cls-9" d="M690.58,766.74c-5.23,7.16-23.81,7-33.84-.91s-17.22-19.29-12.59-28.35L627.58,762c-4.84,10.4,1.54,21.57,11.06,29.08s29.92,6.28,35.71-2.09Z"/><path class="cls-9" d="M690.58,766.74c-5.23,7.16-23.81,7-33.84-.91s-17.22-19.29-12.59-28.35L627.58,762c-4.84,10.4,1.54,21.57,11.06,29.08s29.92,6.28,35.71-2.09Z"/><path class="cls-10" d="M871.71,426.34c5.48-8.18,10.92-16.39,16.58-24.46-3.29-5.74-4.25-8.74-3.85-13.3-11,16.43-21.39,33.3-32.45,49.71-.74,10.8,7.94,18.73,14.55,25.74,11.32-16,22.1-32.46,33.4-48.51,9.76,8.26,23.09,12.51,35.4,7.41-11.56,16.12-22.93,32.38-34.5,48.49-7.13,3.3-11,3.2-18,1.36,5.69-8,11.27-16.16,16.88-24.26"/><g class="cls-11"><path class="cls-12" d="M897.82,362.68c-6.12,12,1.37,28,14.65,38.49s39.2,8.91,47.28-2.76L674.35,788.94c-6.1,8.81-25.68,10-35.71,2.09S623,771,627.58,762Z"/><path class="cls-12" d="M959.75,398.41c-8.08,11.67-34,13.23-47.28,2.76s-20.77-26.49-14.65-38.49l-55.73,82.38c-5.82,11.39,1.3,26.6,13.9,36.54s37.21,8.45,44.88-2.62Z"/><path class="cls-12" d="M897.82,362.68l-55.73,82.38c-5.82,11.39,1.3,26.6,13.9,36.54,5.69,4.48,13.82,6.64,21.74,6.64,9.63,0,18.93-3.19,23.14-9.26l58.43-80c-4.62,6-14.12,9.14-23.93,9.14-8.34,0-16.91-2.27-22.9-7-13.28-10.46-20.77-26.49-14.65-38.49m61.93,35.73-.45.62.45-.62M897,362.12l1.72,1c-5.47,10.71.58,26.38,14.38,37.26,5.46,4.31,13.59,6.78,22.28,6.78,10.11,0,19-3.35,23.13-8.74l.44-.61,1.63,1.16c-.15.22-.31.44-.47.65l-58.42,79.94c-4.13,6-13.31,9.67-23.95,9.67-8.68,0-16.83-2.5-22.36-6.86a45.76,45.76,0,0,1-14.16-18.13c-2.91-7.17-2.92-14,0-19.65l0-.05,0-.05L897,362.12Z"/><path class="cls-12" d="M959.75,398.41c-8.08,11.67-34,13.23-47.28,2.76s-20.77-26.49-14.65-38.49l-55.73,82.38c-5.82,11.39,1.3,26.6,13.9,36.54s37.21,8.45,44.88-2.62Z"/><path class="cls-12" d="M690.58,766.74c-5.23,7.16-23.81,7-33.84-.91s-17.22-19.29-12.59-28.35L627.58,762c-4.84,10.4,1.54,21.57,11.06,29.08s29.92,6.28,35.71-2.09Z"/><path class="cls-12" d="M644.15,737.48,627.58,762c-4.84,10.4,1.54,21.57,11.06,29.08,4.27,3.36,10.72,5,17.06,5,7.81,0,15.46-2.44,18.65-7.06l16.23-22.2c-2.52,3.45-8.15,5.2-14.42,5.2-6.74,0-14.23-2-19.42-6.11-10-7.91-17.22-19.29-12.59-28.35m-.83-.56,1.72,1c-4.68,9.16,3.71,20.33,12.32,27.11,4.68,3.69,11.71,5.9,18.8,5.9,6.33,0,11.42-1.79,13.61-4.79l.81.59.81.59-16.23,22.2C672,794.13,664.51,797,655.7,797c-7.05,0-13.49-1.89-17.68-5.19-9-7.09-16.7-18.77-11.35-30.28l0-.07,0-.07,16.57-24.47Z"/><path class="cls-12" d="M690.58,766.74c-5.23,7.16-23.81,7-33.84-.91s-17.22-19.29-12.59-28.35L627.58,762c-4.84,10.4,1.54,21.57,11.06,29.08s29.92,6.28,35.71-2.09Z"/><path class="cls-12" d="M871.71,426.34c5.48-8.18,10.92-16.39,16.58-24.46-3.29-5.74-4.25-8.74-3.85-13.3-11,16.43-21.39,33.3-32.45,49.71-.74,10.8,7.94,18.73,14.55,25.74,11.32-16,22.1-32.46,33.4-48.51,9.76,8.26,23.09,12.51,35.4,7.41-11.56,16.12-22.93,32.38-34.5,48.49-7.13,3.3-11,3.2-18,1.36,5.69-8,11.27-16.16,16.88-24.26"/></g><path class="cls-2" d="M481.77,662.17c-36,0-100.57,14.54-104.14,25.7s11,20.19,7.76,28.88S365,714.44,318.28,743l-8.81,28.33c60.88-34.84,98.59-18.65,103.7-28.33s-9.83-18.07-6.19-27,38.8-13.15,74.79-13.15Z"/><path class="cls-2" d="M481.77,172.52c-14.55,54.39-100.08,101.12-220.34,143.26C135.12,360,61.17,439,62.66,479L3.79,398.41c-9.55-13.78-17.5-95.07,194.65-170.66C402.9,154.91,473,69.53,481.77,53.83Z"/><path class="cls-13" d="M481.77,172.52c-14.55,54.39-100.08,101.12-220.34,143.26C135.12,360,61.17,439,62.66,479L3.79,398.41c-9.55-13.78-17.5-95.07,194.65-170.66C402.9,154.91,473,69.53,481.77,53.83Z"/><path class="cls-4" d="M64.26,365.11c-7.93-6.67-16.17-14.59-25.45-19.53A108,108,0,0,1,53.19,329.8c19.57,10.36,34.21,28.3,54,38.31a181.54,181.54,0,0,0-32.74,35C57.06,392.18,45.15,374.22,28,363c-6.41,13.15-8.46,26.33-9.48,40.75,11.45,14.51,22.6,29.27,34,43.79A134.93,134.93,0,0,1,62,424c-7.4-6.31-13.83-13.72-20.44-20.83"/><path class="cls-4" d="M142.63,309.29c-9.36-6.68-18.68-13.72-28.71-19.4,9.56-4.77,14.56-7.08,24.87-11.64,19.38,12.39,37.07,27.22,56.51,39.49-16,7-31.64,14.4-47,22.68-20.32-10.72-37-27.25-57.16-38.22a213.86,213.86,0,0,0-37.93,27.6c19.57,10.36,34.21,28.3,54,38.31a199.79,199.79,0,0,1,19.67-14.62c-10-5-19.11-12.42-28-19"/><path class="cls-4" d="M355,220.36c-5.82-7.76-11.67-16.35-15.69-25.2,9.44-4.72,18.81-9.74,27.95-15,7.58,17.93,18.07,34.21,25.66,52.15a499.49,499.49,0,0,1-45.89,25.07c-10.26-17.57-26.1-31-36.59-48.45-19.5,8.65-39.18,16.78-59,24.64,14.24,16,31.6,28.83,45.71,44.92,10.21-4,15.29-6,25.29-10.2-6.09-8.44-13.51-15.85-20.7-23.32"/><path class="cls-4" d="M445.37,153.7c-1.56-9.55-2.58-19.08-3.5-28.7a242.15,242.15,0,0,0,20.53-22.55c.11,19.59.31,39.18.42,58.77-8.06,14.66-18.71,27.92-30.47,39.77-3.76-18.77-9.66-36.92-13.43-55.69a497.69,497.69,0,0,1-51.64,34.84c7.58,17.93,18.07,34.21,25.66,52.15a224.4,224.4,0,0,0,20.67-14.73,145.69,145.69,0,0,0-9.84-27"/><path class="cls-4" d="M246.83,266.63c-8.38-7.08-16.87-14.09-24.78-21.69q14.73-5.64,29.4-11.39c14.24,16,31.6,28.83,45.71,44.92-17.09,6.57-34.25,13-51.41,19.37-17.29-14.2-35.2-27.65-52.52-41.82-18.26,7.12-36.51,14.3-54.44,22.23,19.38,12.39,37.07,27.22,56.51,39.49,9.83-4.18,14.84-6.19,24.95-10.15C211,301,201.91,294.12,192.8,287.32"/><g class="cls-5"><path class="cls-14" d="M64.26,365.11c-7.93-6.67-16.17-14.59-25.45-19.53A108,108,0,0,1,53.19,329.8c19.57,10.36,34.21,28.3,54,38.31a181.54,181.54,0,0,0-32.74,35C57.06,392.18,45.15,374.22,28,363c-6.41,13.15-8.46,26.33-9.48,40.75,11.45,14.51,22.6,29.27,34,43.79A134.93,134.93,0,0,1,62,424c-7.4-6.31-13.83-13.72-20.44-20.83"/><path class="cls-14" d="M142.63,309.29c-9.36-6.68-18.68-13.72-28.71-19.4,9.56-4.77,14.56-7.08,24.87-11.64,19.38,12.39,37.07,27.22,56.51,39.49-16,7-31.64,14.4-47,22.68-20.32-10.72-37-27.25-57.16-38.22a213.86,213.86,0,0,0-37.93,27.6c19.57,10.36,34.21,28.3,54,38.31a199.79,199.79,0,0,1,19.67-14.62c-10-5-19.11-12.42-28-19"/><path class="cls-14" d="M355,220.36c-5.82-7.76-11.67-16.35-15.69-25.2,9.44-4.72,18.81-9.74,27.95-15,7.58,17.93,18.07,34.21,25.66,52.15a499.49,499.49,0,0,1-45.89,25.07c-10.26-17.57-26.1-31-36.59-48.45-19.5,8.65-39.18,16.78-59,24.64,14.24,16,31.6,28.83,45.71,44.92,10.21-4,15.29-6,25.29-10.2-6.09-8.44-13.51-15.85-20.7-23.32"/><path class="cls-14" d="M445.37,153.7c-1.56-9.55-2.58-19.08-3.5-28.7a242.15,242.15,0,0,0,20.53-22.55c.11,19.59.31,39.18.42,58.77-8.06,14.66-18.71,27.92-30.47,39.77-3.76-18.77-9.66-36.92-13.43-55.69a497.69,497.69,0,0,1-51.64,34.84c7.58,17.93,18.07,34.21,25.66,52.15a224.4,224.4,0,0,0,20.67-14.73,145.69,145.69,0,0,0-9.84-27"/><path class="cls-14" d="M246.83,266.63c-8.38-7.08-16.87-14.09-24.78-21.69q14.73-5.64,29.4-11.39c14.24,16,31.6,28.83,45.71,44.92-17.09,6.57-34.25,13-51.41,19.37-17.29-14.2-35.2-27.65-52.52-41.82-18.26,7.12-36.51,14.3-54.44,22.23,19.38,12.39,37.07,27.22,56.51,39.49,9.83-4.18,14.84-6.19,24.95-10.15C211,301,201.91,294.12,192.8,287.32"/></g><path class="cls-2" d="M481.77,99.46c-31.94,86-140.44,102.5-184.25,51.25,27,4.78,47.08,2.17,58.14-18.24,20,2.75,87.82-31.06,78-92.3,11.46,13.9,11.89,21.77,11.89,21.77S466.62,53.42,481.77,0Z"/><path class="cls-2" d="M481.77,109c-29.87,75.81-131.33,90.36-172.3,45.18,25.27,4.21,44,1.92,54.37-16.08,18.71,2.43,82.13-27.37,72.94-81.36C447.5,69,447.9,75.89,447.9,75.89s19.7-7.51,33.87-54.61Z"/><path class="cls-15" d="M481.77,109c-29.87,75.81-131.33,90.36-172.3,45.18,25.27,4.21,44,1.92,54.37-16.08,18.71,2.43,82.13-27.37,72.94-81.36C447.5,69,447.9,75.89,447.9,75.89s19.7-7.51,33.87-54.61Z"/><path class="cls-2" d="M319.81,113.17c8.81-10.33,27.57-11.48,34.08-4.21s8,47.1-44.42,45.18c14.17,0,39.82,10,54.37-16.08,8.61-15.41,6.9-46.32-18.76-46.33C326.7,91.73,319.81,113.17,319.81,113.17Z"/><path class="cls-16" d="M319.81,113.17c8.81-10.33,27.57-11.48,34.08-4.21s8,47.1-44.42,45.18c14.17,0,39.82,10,54.37-16.08,8.61-15.41,6.9-46.32-18.76-46.33C326.7,91.73,319.81,113.17,319.81,113.17Z"/><path class="cls-2" d="M65.71,362.68c6.13,12-1.37,28-14.64,38.49s-39.21,8.91-47.28-2.76L289.18,788.94c6.1,8.81,25.69,10,35.71,2.09S340.58,771,336,762Z"/><path class="cls-9" d="M3.79,398.41c8.07,11.67,34,13.23,47.28,2.76s20.77-26.49,14.64-38.49l55.74,82.38c5.81,11.39-1.31,26.6-13.9,36.54S70.33,490.05,62.66,479Z"/><path class="cls-9" d="M3.79,398.41c8.07,11.67,34,13.23,47.28,2.76s20.77-26.49,14.64-38.49l55.74,82.38c5.81,11.39-1.31,26.6-13.9,36.54S70.33,490.05,62.66,479Z"/><path class="cls-9" d="M273,766.74c5.23,7.16,23.81,7,33.84-.91s17.22-19.29,12.59-28.35L336,762c4.84,10.4-1.54,21.57-11.06,29.08s-29.92,6.28-35.71-2.09Z"/><path class="cls-9" d="M273,766.74c5.23,7.16,23.81,7,33.84-.91s17.22-19.29,12.59-28.35L336,762c4.84,10.4-1.54,21.57-11.06,29.08s-29.92,6.28-35.71-2.09Z"/><path class="cls-17" d="M91.83,426.34C86.34,418.16,80.9,410,75.25,401.88c3.29-5.74,4.24-8.74,3.84-13.3,11,16.43,21.4,33.3,32.45,49.71C112.28,449.09,103.6,457,97,464c-11.32-16-22.1-32.46-33.4-48.51-9.76,8.26-23.08,12.51-35.39,7.41,11.56,16.12,22.92,32.38,34.49,48.49,7.14,3.3,11,3.2,18,1.36-5.68-8-11.27-16.16-16.88-24.26"/><g class="cls-11"><path class="cls-18" d="M65.71,362.68c6.13,12-1.37,28-14.64,38.49s-39.21,8.91-47.28-2.76L289.18,788.94c6.1,8.81,25.69,10,35.71,2.09S340.58,771,336,762Z"/><path class="cls-18" d="M3.79,398.41c8.07,11.67,34,13.23,47.28,2.76s20.77-26.49,14.64-38.49l55.74,82.38c5.81,11.39-1.31,26.6-13.9,36.54S70.33,490.05,62.66,479Z"/><path class="cls-18" d="M65.71,362.68l55.74,82.38c5.81,11.39-1.31,26.6-13.9,36.54-5.69,4.48-13.83,6.64-21.75,6.64-9.62,0-18.93-3.19-23.13-9.26L4.24,399c4.62,6,14.11,9.14,23.92,9.14,8.35,0,16.92-2.27,22.91-7,13.27-10.46,20.77-26.49,14.64-38.49M3.79,398.41l.45.62c-.16-.2-.31-.41-.45-.62m62.75-36.29-1.72,1c5.47,10.71-.58,26.38-14.37,37.26-5.47,4.31-13.59,6.78-22.29,6.78-10.1,0-19-3.35-23.12-8.74l-.44-.61L3,399c.15.22.3.44.47.65l58.42,79.94c4.12,6,13.3,9.67,23.94,9.67,8.69,0,16.84-2.5,22.36-6.86a45.88,45.88,0,0,0,14.17-18.13c2.91-7.17,2.91-14,0-19.65l0-.05,0-.05L66.54,362.12Z"/><path class="cls-18" d="M3.79,398.41c8.07,11.67,34,13.23,47.28,2.76s20.77-26.49,14.64-38.49l55.74,82.38c5.81,11.39-1.31,26.6-13.9,36.54S70.33,490.05,62.66,479Z"/><path class="cls-18" d="M273,766.74c5.23,7.16,23.81,7,33.84-.91s17.22-19.29,12.59-28.35L336,762c4.84,10.4-1.54,21.57-11.06,29.08s-29.92,6.28-35.71-2.09Z"/><path class="cls-18" d="M319.39,737.48,336,762c4.84,10.4-1.54,21.57-11.06,29.08-4.26,3.36-10.72,5-17.06,5-7.81,0-15.45-2.44-18.65-7.06L273,766.74c2.52,3.45,8.14,5.2,14.42,5.2,6.73,0,14.22-2,19.42-6.11,10-7.91,17.22-19.29,12.59-28.35m.83-.56-1.72,1c4.67,9.16-3.72,20.33-12.32,27.11-4.69,3.69-11.72,5.9-18.8,5.9-6.34,0-11.42-1.79-13.62-4.79l-.8.59-.81.59,16.23,22.2c3.18,4.6,10.64,7.47,19.45,7.47,7.05,0,13.5-1.89,17.68-5.19,9-7.09,16.7-18.77,11.35-30.28l0-.07-.05-.07-16.56-24.47Z"/><path class="cls-18" d="M273,766.74c5.23,7.16,23.81,7,33.84-.91s17.22-19.29,12.59-28.35L336,762c4.84,10.4-1.54,21.57-11.06,29.08s-29.92,6.28-35.71-2.09Z"/><path class="cls-18" d="M91.83,426.34C86.34,418.16,80.9,410,75.25,401.88c3.29-5.74,4.24-8.74,3.84-13.3,11,16.43,21.4,33.3,32.45,49.71C112.28,449.09,103.6,457,97,464c-11.32-16-22.1-32.46-33.4-48.51-9.76,8.26-23.08,12.51-35.39,7.41,11.56,16.12,22.92,32.38,34.49,48.49,7.14,3.3,11,3.2,18,1.36-5.68-8-11.27-16.16-16.88-24.26"/></g></g></g></g></svg>