<svg xmlns="http://www.w3.org/2000/svg" viewBox="0 0 200 200"><defs><style>.cls-1{fill:#cc2121;}.cls-2{fill:#ffed4a;}.cls-3,.cls-4{fill:none;stroke:#ffed4a;stroke-linecap:round;stroke-linejoin:round;}.cls-3{stroke-width:5.26px;}.cls-4{stroke-width:10.52px;}</style></defs><title>square motif</title><g id="Layer_2" data-name="Layer 2"><path class="cls-1" d="M6.65,100,100,6.65,193.35,100,100,193.35ZM100,54.8a45.21,45.21,0,1,0,12.59,1.79A45.42,45.42,0,0,0,100,54.8Z"/><path class="cls-2" d="M100,13.3,186.7,100,100,186.7,13.3,100,100,13.3m0,136.6a49.93,49.93,0,1,0-13.9-2,50.12,50.12,0,0,0,13.9,2M100,0,0,100,100,200,200,100,100,0Zm0,140.5a40.49,40.49,0,1,1,38.87-29.24A40.46,40.46,0,0,1,100,140.5Z"/><path class="cls-1" d="M88.74,138.89a40.49,40.49,0,1,1,50.15-27.63A40.48,40.48,0,0,1,88.74,138.89ZM100,50,50,100l50,50,50-50Z"/><path class="cls-3" d="M88.74,138.89a40.49,40.49,0,1,1,50.15-27.63A40.48,40.48,0,0,1,88.74,138.89ZM100,50,50,100l50,50,50-50Z"/><path class="cls-2" d="M100,50,89,61a40.25,40.25,0,0,1,22.09,0L100,50ZM89,61a40.45,40.45,0,0,0-27.85,27.7l-.06.21L89,61Zm22.09,0L139,89a40.45,40.45,0,0,0-27.7-27.85l-.21-.06ZM61.05,89,50,100l11,11a40.24,40.24,0,0,1,0-22.09ZM139,89a40.24,40.24,0,0,1,0,22.09L150,100,139,89ZM61,111a40.45,40.45,0,0,0,27.7,27.85L89,139,61,111Zm77.91,0L111,139a40.45,40.45,0,0,0,27.85-27.7l.06-.21ZM89,139,100,150l11-11A40.25,40.25,0,0,1,89,139Z"/><path class="cls-4" d="M88.74,138.89a40.49,40.49,0,1,1,50.15-27.63A40.48,40.48,0,0,1,88.74,138.89Z"/></g></svg>