<svg xmlns="http://www.w3.org/2000/svg" xmlns:xlink="http://www.w3.org/1999/xlink" viewBox="0 0 200 200"><defs><style>.cls-1{isolation:isolate;}.cls-2{fill:#cc2121;}.cls-3{fill:#ffed4a;}.cls-4{mix-blend-mode:color-burn;fill:url(#radial-gradient);}</style><radialGradient id="radial-gradient" cx="100" cy="100" r="100" gradientUnits="userSpaceOnUse"><stop offset="0" stop-color="#fff"/><stop offset="1" stop-color="#333"/></radialGradient></defs><title>square-motif</title><g class="cls-1"><g id="Layer_2" data-name="Layer 2"><path class="cls-2" d="M100.05,193.35A93.35,93.35,0,1,1,189.64,126,93.54,93.54,0,0,1,100.05,193.35Z"/><path class="cls-3" d="M100,13.3a86.7,86.7,0,0,1,83.29,110.81,85.83,85.83,0,0,1-31.62,45.51,86.39,86.39,0,0,1-75.74,13.63A86.68,86.68,0,0,1,48.37,30.38,87.31,87.31,0,0,1,100,13.3h0M100,0a100.05,100.05,0,1,0,27.86,4A100,100,0,0,0,100,0Z"/><circle class="cls-4" cx="100" cy="100" r="99.97"/><path class="cls-3" d="M55.61,186.29a89.51,89.51,0,0,0,67.32-8.14A88.86,88.86,0,0,0,149.08,156a87.81,87.81,0,0,0,15.7-30.22,69.4,69.4,0,0,0-12.42-63.62,68.37,68.37,0,0,0-26.28-19.95c-1.28-.53-2.55-1.08-3.87-1.52L120.26,40l-2-.59c-1.32-.43-2.65-.71-4-1s-2.67-.54-4-.7-2.7-.3-4-.43-2.71-.13-4.07-.09a50.76,50.76,0,0,0-8.07.73,53.26,53.26,0,0,0-28.4,14.33A52.53,52.53,0,0,0,56.05,65a50,50,0,0,0-3.25,7.29c-.47,1.24-.83,2.53-1.22,3.8l-.84,3.8a40.75,40.75,0,0,0,6.1,29.47,40.07,40.07,0,0,0,24.3,17l1.78.39,1.8.2a25.6,25.6,0,0,0,3.61.17,12.06,12.06,0,0,0,1.8-.09l1.8-.15,1.77-.34a11.64,11.64,0,0,0,1.75-.39,30.17,30.17,0,0,0,20.6-18.25c.2-.55.36-1.12.55-1.68a16,16,0,0,0,.51-1.68l.36-1.62c.12-.55.12-1.1.2-1.65l.1-.82c0-.28,0-.55,0-.83,0-.55,0-1.1,0-1.65l-.14-1.64c0-.55-.2-1.08-.28-1.62a22.12,22.12,0,0,0-6.11-11.38,21.71,21.71,0,0,0-5.2-3.83,10.78,10.78,0,0,0-1.46-.68,9.78,9.78,0,0,0-1.5-.6l-1.54-.5-1.44-.31A15.72,15.72,0,0,0,89,79.62a15.5,15.5,0,0,0-6.6,9,8.32,8.32,0,0,1-16.06-4.33c0-.08,0-.15.07-.23l0-.06a31.73,31.73,0,0,1,36.66-22c.94.23,1.89.45,2.81.7l2.6.93A21.53,21.53,0,0,1,111,64.76,22.65,22.65,0,0,1,113.46,66a36.94,36.94,0,0,1,18.22,26c.12.9.32,1.8.36,2.7l.16,2.72c0,.91,0,1.82-.08,2.72,0,.46,0,.91-.07,1.36l-.19,1.35c-.14.89-.22,1.8-.44,2.67l-.65,2.63c-.21.88-.55,1.65-.83,2.48s-.57,1.64-.9,2.44a44.5,44.5,0,0,1-12.24,16.52,44,44,0,0,1-18.31,9.06,21.14,21.14,0,0,1-2.52.48l-2.54.39-2.56.15a22,22,0,0,1-2.57.05,39.52,39.52,0,0,1-5.1-.39L80.67,139l-2.48-.6A52,52,0,0,1,40.25,97.24a51.4,51.4,0,0,1,.29-19.39c.4-1.57.77-3.15,1.2-4.7s1-3,1.58-4.48a59.52,59.52,0,0,1,4.12-8.55A62.25,62.25,0,0,1,92.85,29.67a59.53,59.53,0,0,1,9.34-.55c1.56,0,3.12.14,4.67.24s3.1.34,4.63.63,3.05.61,4.56.94,3,.8,4.45,1.31l2.18.73,2.14.82c1.44.53,2.83,1.18,4.23,1.81a75.3,75.3,0,0,1,42.49,55.81A74,74,0,0,1,168.75,127a91.39,91.39,0,0,1-78.47,62.82A90.42,90.42,0,0,1,55.61,186.29Z"/></g></g></svg>