<svg xmlns="http://www.w3.org/2000/svg" xmlns:xlink="http://www.w3.org/1999/xlink" viewBox="0 0 635.91 188.99"><defs><style>.cls-1{isolation:isolate;}.cls-2{fill:#ffed4a;}.cls-3,.cls-4{mix-blend-mode:color-dodge;}.cls-3{fill:url(#radial-gradient);}.cls-4{fill:url(#radial-gradient-2);}</style><radialGradient id="radial-gradient" cx="159.2" cy="94.6" r="130.12" gradientTransform="matrix(-1, 0, 0, 2, 635.91, -94.6)" gradientUnits="userSpaceOnUse"><stop offset="0.2" stop-color="#fff"/><stop offset="0.25" stop-color="#353232"/><stop offset="0.31" stop-color="#231f20"/><stop offset="0.7" stop-color="#fff"/><stop offset="0.75"/><stop offset="1"/></radialGradient><radialGradient id="radial-gradient-2" cx="159.2" cy="94.6" r="130.12" gradientTransform="translate(0 -94.6) scale(1 2)" xlink:href="#radial-gradient"/></defs><title>top-rule</title><g class="cls-1"><g id="Layer_2" data-name="Layer 2"><g id="Layer_4" data-name="Layer 4"><path class="cls-2" d="M584,116.29c19.86-34.62,63.4-1.53,47.11,30.55s-102.56,48.69-163.64,39.75c-41.75-6.11-101.16-30.17-148.72-74.38V.21c23.42,89.09,86.55,124.73,142.55,150.7s153.52,28,169.81-4.07S603.85,81.67,584,116.29Z"/><path class="cls-3" d="M584,116.29c19.86-34.62,63.4-1.53,47.11,30.55s-102.56,48.69-163.64,39.75c-41.75-6.11-101.16-30.17-148.72-74.38V.21c23.42,89.09,86.55,124.73,142.55,150.7s153.52,28,169.81-4.07S603.85,81.67,584,116.29Z"/><path class="cls-2" d="M318,.41a212.83,212.83,0,0,0,23,56.1,189.16,189.16,0,0,0,17.69,24.76A206.25,206.25,0,0,0,380,102.94a232.58,232.58,0,0,0,24.16,18.49c8.42,5.66,17.12,10.87,26,15.68s18,9.33,27.12,13.63a184.67,184.67,0,0,0,28.43,11,265.51,265.51,0,0,0,59.93,10,228.93,228.93,0,0,0,30.43-.32,135.7,135.7,0,0,0,30-5.52,65.57,65.57,0,0,0,14.08-6.26,32.7,32.7,0,0,0,11.27-10.8,33.41,33.41,0,0,0,4.4-15l.06-2-.12-2-.06-1-.16-1-.31-1.95a35.26,35.26,0,0,0-1-3.78c-.22-.62-.41-1.25-.66-1.85l-.81-1.79a33,33,0,0,0-4.2-6.6,30,30,0,0,0-5.59-5.45,29.11,29.11,0,0,0-6.76-3.93,24.94,24.94,0,0,0-7.6-1.93,18.61,18.61,0,0,0-2-.13l-2,0c-.66.05-1.31.17-2,.25-.33.05-.66.08-1,.15l-1,.25a15.29,15.29,0,0,0-1.9.54l-1.84.72c-.61.24-1.16.6-1.75.89a12.51,12.51,0,0,0-1.69,1,33.06,33.06,0,0,0-10.29,11.46l1.41.8c.83-1,1.62-1.9,2.45-2.8s1.71-1.75,2.64-2.5a23.91,23.91,0,0,1,2.85-2.12c.49-.3,1-.63,1.46-.91l1.54-.74a10.41,10.41,0,0,1,1.54-.64c.52-.17,1-.41,1.54-.54l1.57-.37a13.94,13.94,0,0,1,1.58-.21l.78-.09c.26,0,.52,0,.78,0,.53,0,1,0,1.55,0l1.54.19a13.37,13.37,0,0,1,1.5.32,21.8,21.8,0,0,1,5.64,2.3,22.29,22.29,0,0,1,4.85,3.69c.76.67,1.38,1.51,2.06,2.24s1.24,1.6,1.73,2.49a23.92,23.92,0,0,1,2.52,5.35,26.21,26.21,0,0,1,1.23,5.55l.06,1.39,0,.69,0,.69-.06,1.36-.2,1.34c-.07.89-.41,1.76-.56,2.63-.1.43-.29.85-.42,1.28a11.91,11.91,0,0,1-.46,1.26,23,23,0,0,1-1.19,2.45l-.67,1.2c-.23.41-.44.61-.65.93a23.76,23.76,0,0,1-8,6.18,60.91,60.91,0,0,1-11.74,4.24A103.44,103.44,0,0,1,588.86,156c-4.56.58-9.21,1-13.91,1.14a242.11,242.11,0,0,1-28.46-.69A277.74,277.74,0,0,1,518,152.73a242,242,0,0,1-27.73-6.52c-4.52-1.32-9-2.77-13.33-4.39-2.17-.82-4.32-1.66-6.42-2.57-1.07-.44-2.09-.92-3.14-1.38L464,136.34c-9.07-4-17.9-8.3-26.6-12.68-17.35-8.82-33.92-18.66-49-30.46L385.66,91l-2.76-2.29c-1.87-1.5-3.65-3.08-5.44-4.67-3.59-3.17-7-6.53-10.4-9.91A204.73,204.73,0,0,1,348.38,52c-11.66-15.64-20.79-33.35-28.86-52Z"/><path class="cls-2" d="M51.92,116.29c-19.86-34.62-63.4-1.53-47.11,30.55s102.56,48.69,163.64,39.75c41.75-6.11,101.17-30.17,148.72-74.38V.21c-23.42,89.09-86.55,124.73-142.55,150.7s-153.51,28-169.81-4.07S32.06,81.67,51.92,116.29Z"/><path class="cls-4" d="M51.92,116.29c-19.86-34.62-63.4-1.53-47.11,30.55s102.56,48.69,163.64,39.75c41.75-6.11,101.17-30.17,148.72-74.38V.21c-23.42,89.09-86.55,124.73-142.55,150.7s-153.51,28-169.81-4.07S32.06,81.67,51.92,116.29Z"/><path class="cls-2" d="M318,.41a213.19,213.19,0,0,1-23,56.1A189.16,189.16,0,0,1,277.3,81.27a205.28,205.28,0,0,1-21.37,21.67,233.52,233.52,0,0,1-24.15,18.49c-8.42,5.66-17.13,10.87-26,15.68s-18,9.33-27.12,13.63a184.67,184.67,0,0,1-28.43,11,265.52,265.52,0,0,1-59.92,10,229.06,229.06,0,0,1-30.44-.32,135.7,135.7,0,0,1-30-5.52,65.78,65.78,0,0,1-14.08-6.26,32.7,32.7,0,0,1-11.27-10.8,33.41,33.41,0,0,1-4.4-15l-.06-2,.12-2,.07-1,.15-1L.65,126a35.26,35.26,0,0,1,1-3.78c.22-.62.41-1.25.66-1.85l.81-1.79a33,33,0,0,1,4.2-6.6A38,38,0,0,1,10,109.11a35.85,35.85,0,0,1,3-2.54,29.11,29.11,0,0,1,6.76-3.93,24.94,24.94,0,0,1,7.6-1.93,18.61,18.61,0,0,1,2-.13l2,0c.66.05,1.31.17,2,.25.33.05.66.08,1,.15l1,.25a15.64,15.64,0,0,1,1.89.54l1.84.72c.61.24,1.17.6,1.75.89a12.51,12.51,0,0,1,1.69,1,33.06,33.06,0,0,1,10.29,11.46l-1.4.8c-.84-1-1.63-1.9-2.46-2.8s-1.71-1.75-2.64-2.5a24.64,24.64,0,0,0-2.84-2.12c-.5-.3-1-.63-1.47-.91l-1.54-.74a10.41,10.41,0,0,0-1.54-.64c-.52-.17-1-.41-1.54-.54l-1.57-.37a13.94,13.94,0,0,0-1.58-.21l-.77-.09c-.26,0-.53,0-.79,0-.52,0-1,0-1.55,0L29.4,106a13.08,13.08,0,0,0-1.51.32,21.8,21.8,0,0,0-5.64,2.3,22.29,22.29,0,0,0-4.85,3.69c-.76.67-1.38,1.51-2.06,2.24s-1.24,1.6-1.73,2.49a23.92,23.92,0,0,0-2.52,5.35,26.21,26.21,0,0,0-1.23,5.55l-.06,1.39,0,.69,0,.69.06,1.36.2,1.34c.07.89.41,1.76.56,2.63.1.43.29.85.42,1.28a11.91,11.91,0,0,0,.46,1.26A23,23,0,0,0,12.69,141l.68,1.2c.22.41.44.61.64.93a23.76,23.76,0,0,0,8,6.18,61.15,61.15,0,0,0,11.74,4.24A103.44,103.44,0,0,0,47.05,156c4.56.58,9.21,1,13.91,1.14a242.11,242.11,0,0,0,28.46-.69,277.74,277.74,0,0,0,28.45-3.71,242,242,0,0,0,27.73-6.52c4.53-1.32,9-2.77,13.33-4.39,2.17-.82,4.32-1.66,6.42-2.57,1.07-.44,2.09-.92,3.14-1.38l3.38-1.53c9.07-4,17.9-8.3,26.6-12.68,17.36-8.82,33.92-18.66,49-30.46L250.25,91,253,88.69c1.87-1.5,3.65-3.08,5.45-4.67,3.58-3.17,7-6.53,10.39-9.91A204.73,204.73,0,0,0,287.53,52c11.66-15.64,20.79-33.35,28.86-52Z"/></g></g></g></svg>