<svg xmlns="http://www.w3.org/2000/svg" xmlns:xlink="http://www.w3.org/1999/xlink" viewBox="0 0 272.51 729.44"><defs><style>.cls-1{isolation:isolate;}.cls-2{fill:url(#linear-gradient);}.cls-3{fill:url(#linear-gradient-2);}.cls-4{fill:url(#linear-gradient-3);}.cls-5{fill:url(#linear-gradient-4);}.cls-6{fill:url(#linear-gradient-5);}.cls-7{fill:url(#linear-gradient-6);}.cls-8{fill:url(#linear-gradient-7);}.cls-9{fill:url(#linear-gradient-8);}.cls-10{fill:url(#linear-gradient-9);}.cls-11{fill:url(#linear-gradient-10);}.cls-12{fill:url(#linear-gradient-11);}.cls-13{fill:url(#linear-gradient-12);}.cls-14{fill:url(#linear-gradient-13);}.cls-15{fill:url(#linear-gradient-14);}.cls-16{fill:url(#linear-gradient-15);}.cls-17{fill:url(#linear-gradient-16);}.cls-18{fill:url(#linear-gradient-17);}.cls-19{fill:url(#linear-gradient-18);}.cls-20{fill:url(#linear-gradient-19);}.cls-21{fill:url(#linear-gradient-20);}.cls-22{fill:url(#linear-gradient-21);}.cls-23{fill:url(#linear-gradient-22);}.cls-24{fill:url(#linear-gradient-23);}.cls-25{fill:url(#linear-gradient-24);}.cls-26{fill:url(#linear-gradient-25);}.cls-27{mix-blend-mode:soft-light;}.cls-28{fill:url(#New_Gradient_Swatch_1);}</style><linearGradient id="linear-gradient" x1="-29.27" y1="319.8" x2="250.07" y2="319.8" gradientTransform="translate(74.77 35.02) rotate(14.06)" gradientUnits="userSpaceOnUse"><stop offset="0" stop-color="#ffed4a"/><stop offset="0.5" stop-color="#ffed4a"/><stop offset="0.97" stop-color="#ffed4a"/></linearGradient><linearGradient id="linear-gradient-2" x1="-3098.29" y1="6861.15" x2="-3091.5" y2="6861.15" gradientTransform="matrix(0.12, 0.99, 0.99, -0.12, -6281.52, 4282.17)" xlink:href="#linear-gradient"/><linearGradient id="linear-gradient-3" x1="173.07" y1="346.82" x2="213.03" y2="346.82" xlink:href="#linear-gradient"/><linearGradient id="linear-gradient-4" x1="-3047.99" y1="6903.25" x2="-3038.46" y2="6903.25" gradientTransform="matrix(0.12, 0.99, 0.99, -0.12, -6281.52, 4282.17)" xlink:href="#linear-gradient"/><linearGradient id="linear-gradient-5" x1="222.63" y1="380.41" x2="278.74" y2="380.41" xlink:href="#linear-gradient"/><linearGradient id="linear-gradient-6" x1="-3268.36" y1="6928.67" x2="-3258.83" y2="6928.67" gradientTransform="matrix(0.12, 0.99, 0.99, -0.12, -6281.52, 4282.17)" xlink:href="#linear-gradient"/><linearGradient id="linear-gradient-7" x1="168.62" y1="165.25" x2="224.74" y2="165.25" xlink:href="#linear-gradient"/><linearGradient id="linear-gradient-8" x1="-3111.34" y1="6931.8" x2="-3104.44" y2="6931.8" gradientTransform="matrix(0.12, 0.99, 0.99, -0.12, -6281.52, 4282.17)" xlink:href="#linear-gradient"/><linearGradient id="linear-gradient-9" x1="234.23" y1="309.72" x2="274.88" y2="309.72" xlink:href="#linear-gradient"/><linearGradient id="linear-gradient-10" x1="-3189.97" y1="6717.13" x2="-3183.93" y2="6717.13" gradientTransform="matrix(0.12, 0.99, 0.99, -0.12, -6281.52, 4282.17)" xlink:href="#linear-gradient"/><linearGradient id="linear-gradient-11" x1="7.99" y1="311.51" x2="43.61" y2="311.51" xlink:href="#linear-gradient"/><linearGradient id="linear-gradient-12" x1="-3192.36" y1="6762.98" x2="-3184.83" y2="6762.98" gradientTransform="matrix(0.12, 0.99, 0.99, -0.12, -6281.52, 4282.17)" xlink:href="#linear-gradient"/><linearGradient id="linear-gradient-13" x1="45.93" y1="293.84" x2="90.31" y2="293.84" xlink:href="#linear-gradient"/><linearGradient id="linear-gradient-14" x1="-3496.57" y1="6871.84" x2="-3489.23" y2="6871.84" gradientTransform="matrix(0.12, 0.99, 0.99, -0.12, -6281.52, 4282.17)" xlink:href="#linear-gradient"/><linearGradient id="linear-gradient-15" x1="40.95" y1="-29.32" x2="84.14" y2="-29.32" xlink:href="#linear-gradient"/><linearGradient id="linear-gradient-16" x1="-3406.17" y1="6889.11" x2="-3399.62" y2="6889.11" gradientTransform="matrix(0.12, 0.99, 0.99, -0.12, -6281.52, 4282.17)" xlink:href="#linear-gradient"/><linearGradient id="linear-gradient-17" x1="91.17" y1="48.77" x2="129.76" y2="48.77" xlink:href="#linear-gradient"/><linearGradient id="linear-gradient-18" x1="-3409.22" y1="6809.68" x2="-3400.41" y2="6809.68" gradientTransform="matrix(0.12, 0.99, 0.99, -0.12, -6281.52, 4282.17)" xlink:href="#linear-gradient"/><linearGradient id="linear-gradient-19" x1="9.57" y1="75.1" x2="61.41" y2="75.1" xlink:href="#linear-gradient"/><linearGradient id="linear-gradient-20" x1="-3268.3" y1="6844.21" x2="-3260.96" y2="6844.21" gradientTransform="matrix(0.12, 0.99, 0.99, -0.12, -6281.52, 4282.17)" xlink:href="#linear-gradient"/><linearGradient id="linear-gradient-21" x1="95.68" y1="194.01" x2="138.87" y2="194.01" xlink:href="#linear-gradient"/><linearGradient id="linear-gradient-22" x1="-3375.39" y1="6732.14" x2="-3369.7" y2="6732.14" gradientTransform="matrix(0.12, 0.99, 0.99, -0.12, -6281.52, 4282.17)" xlink:href="#linear-gradient"/><linearGradient id="linear-gradient-23" x1="-42.43" y1="132.55" x2="-8.93" y2="132.55" xlink:href="#linear-gradient"/><linearGradient id="linear-gradient-24" x1="-3356.45" y1="6964.57" x2="-3349.11" y2="6964.57" gradientTransform="matrix(0.12, 0.99, 0.99, -0.12, -6281.52, 4282.17)" xlink:href="#linear-gradient"/><linearGradient id="linear-gradient-25" x1="177.17" y1="69.05" x2="220.36" y2="69.05" xlink:href="#linear-gradient"/><linearGradient id="New_Gradient_Swatch_1" x1="-265.18" y1="320.64" x2="55.99" y2="320.64" gradientTransform="translate(294.18 75.84) rotate(14.06)" gradientUnits="userSpaceOnUse"><stop offset="0.2" stop-color="#fff"/><stop offset="0.25" stop-color="#353232"/><stop offset="0.31" stop-color="#231f20"/><stop offset="0.7" stop-color="#fff"/><stop offset="0.75"/><stop offset="1"/></linearGradient></defs><title>tree-01</title><g class="cls-1"><g id="Layer_5" data-name="Layer 5"><path class="cls-2" d="M127.87,727.61c7.74-6.86,6.29-56.18,3.09-98.48-1-12.92-3-37.21-5.11-62.77,7.8-8.75,17.28-20.44,26-31.72,34.07,28.53,51.49,16.13,51.49,16.13-11.92-19.46-34.48-21.93-47.28-21.59,8.7-11.38,16.21-21.71,19.85-27.27,10.87-16.62,19.2-55.13,28.34-64.72s30.1-27.38,29.71-30.75-26.22,16.69-39.08,31c-6.83,7.6-14.78,26.43-23,44.85-3.17-26.91-16.62-29.8-16.62-29.8-4.94,17.23,6.32,31.43,12.92,38-6.05,13.17-12.2,25.19-18.1,31.52-7.09,7.59-17.27,15.72-26.12,22.24-2.48-29.67-4.77-57.13-5.44-66.37-1.4-19.46,3.61-108.78.1-139.09-.24-2-.56-4.07-.94-6.18,8.51-7.11,25.66-28,40-46.67,39.32,19.66,53.34,3.74,53.34,3.74-14.76-14.93-35-13.81-47.8-11,6.95-9.22,12.75-17.29,15.82-22,8.66-13.22,15.71-40.32,22.84-55.65,35.74,7.56,43-7.95,43-7.95-17.06-9.38-34.88.68-41.73,5.41a29.06,29.06,0,0,1,4.26-6.52c9.12-9.59,30.1-27.38,29.71-30.74s-26.22,16.69-39.07,31c-4.09,4.55-8.57,13.11-13.28,23.19-9.42-26.21-23.47-25.82-23.47-25.82-.7,16.92,12,27.84,20.17,33.05-9.17,20.38-19,44.23-28.23,54.13-12.26,13.13-33.75,27.87-41.6,33.07A367.9,367.9,0,0,0,93,264.92c-24.38-48.36,4.42-94.36,4.42-94.36,3.44-5.07,6.9-9.55,10.39-13.85,36,5.51,42.32-10.34,42.32-10.34-15.31-7.33-30.4.13-38.37,5.55,9.32-11.19,18.92-22.12,29.19-40.16C156.58,84.35,156.4,46,154.09,33.45s-7.87-1.65-7.87-1.65a134.75,134.75,0,0,1-4,55.16c-13.15-32.72-29.67-30.27-29.67-30.27,1.62,21,22.65,30.26,29,32.6-6.07,19.34-18,40.55-40.7,58.69C68,174.23,67.56,216.51,75.36,255.2A121.33,121.33,0,0,1,62,240.38c-6.88-9.57-12.32-36.13-18-49.79,21.4-29.49,10.16-42.36,10.16-42.36-14,10.59-13.81,28.18-12.52,37.55-.18-.31-.38-.67-.57-.94C34.3,175,20,160.67,19.48,162.7s11,14.64,15.86,21.26c3,4.1,5,15,7.3,25.36C14.63,191.14,2.79,202,2.79,202,15,217.31,35.48,214.8,43.52,213.09A68.1,68.1,0,0,0,47.69,226c5.25,10.83,27.47,49.05,33.5,53.09,5.09,18.12,10.94,34.31,14.55,46.1,8.76,28.61,5.4,67.22,5.37,139.16C94,457.93,83.3,447.67,76.87,438.73c-5.13-7.13-9.64-21.67-13.93-36,14.21-32.62.83-42.76.83-42.76a32.13,32.13,0,0,0-7.68,21c-1.93-5.47-3.88-10.06-5.86-12.94-8.64-12.48-26.87-30.77-27.52-28.18s14,18.64,20.21,27.07,8.86,39.43,15.72,53.54C61.18,425.68,66.87,436,73.35,447c-34.81-13-46.52,1.66-46.52,1.66,17.11,15.72,40,11.49,52,7.6,9,14.88,18.35,28.92,22.35,31.71.25,24.3,1,52,2.61,83.7,7.52,145.89-33.19,148-33.19,148S120.14,734.48,127.87,727.61Zm-66.17-329c-.41-1.39-.83-2.75-1.24-4.11,0-2.44.2-5.21.44-8a108.32,108.32,0,0,1,1.6-10.84,49.66,49.66,0,0,1,1.23-4.87s.22,2,.22,5a108.93,108.93,0,0,1-.52,10.92c-.36,3.88-1,7.75-1.52,10.72C61.84,397.85,61.77,398.2,61.7,398.58Zm15,54.1,1.15,1.91-1.11,0a141.37,141.37,0,0,1-14.7-1c-5.28-.69-10.48-1.65-14.37-2.58a66.22,66.22,0,0,1-6.43-1.83,66.24,66.24,0,0,1,6.68-.1c4,.08,9.3.48,14.53,1.14s10.3,1.59,14.24,2.47ZM43.35,212.4l.06.25c-.77-.05-2.29-.16-4.34-.47A104.24,104.24,0,0,1,28.3,209.7,107.17,107.17,0,0,1,18,206.12,47.9,47.9,0,0,1,13.4,204s2,.16,5,.71,6.83,1.44,10.62,2.53,7.44,2.38,10.26,3.49C41.18,211.44,42.6,212.05,43.35,212.4ZM43,188.23c-.11-.21-.2-.43-.31-.63.1-.85.24-2,.47-3.34a102.38,102.38,0,0,1,6.56-21,49.35,49.35,0,0,1,2.2-4.51,48.4,48.4,0,0,1-.81,5c-.59,2.93-1.6,6.79-2.78,10.57s-2.55,7.38-3.72,10.17C43.91,186.16,43.34,187.43,43,188.23ZM137.83,84.39c1.78,2.44,2.82,4.25,2.82,4.25s-1.6-1.17-3.79-3.17a105.06,105.06,0,0,1-7.52-8.09,108.19,108.19,0,0,1-6.57-8.76c-1.66-2.49-2.6-4.29-2.6-4.29a50,50,0,0,1,3.73,3.36c2.15,2.08,4.85,5,7.39,8.06S136.11,81.89,137.83,84.39Zm-28.37,70.34c.16-.19.31-.39.48-.58.79-.31,1.84-.68,3.13-1.09a102.72,102.72,0,0,1,10.77-2.48,108.68,108.68,0,0,1,10.87-1.3,47.92,47.92,0,0,1,5-.1,50.13,50.13,0,0,1-4.78,1.54c-2.87.81-6.77,1.69-10.66,2.36s-7.74,1.12-10.76,1.36C111.78,154.62,110.36,154.69,109.46,154.73Zm73.44,64.76c-.24.53-.47,1-.72,1.59l-.07-.09a103.35,103.35,0,0,1-6.52-8.91,106.59,106.59,0,0,1-5.49-9.48A48.31,48.31,0,0,1,168,198s1.44,1.45,3.3,3.79,4.22,5.56,6.38,8.87C179.71,213.74,181.52,216.9,182.9,219.49Zm19.95-20.38,0,0a46.13,46.13,0,0,1,4.64-1.41,103.85,103.85,0,0,1,10.88-1.88c4-.44,7.93-.68,10.93-.7s5,.18,5,.18-1.93.64-4.86,1.28-6.86,1.3-10.78,1.77-7.78.68-10.81.75S203,199.12,202.85,199.11ZM160,282.89l1.21-1.58h.27a139.48,139.48,0,0,1,14.62,1.74,144.33,144.33,0,0,1,14.24,3.27,66.23,66.23,0,0,1,6.34,2.13,63.29,63.29,0,0,1-6.69-.22c-4-.27-9.25-.93-14.45-1.84s-10.21-2.08-14.1-3.14C161,283.14,160.5,283,160,282.89Zm9.43,204.81-.7,1.54c-.23-.42-.45-.83-.7-1.31a102.69,102.69,0,0,1-4.24-10.21,105.86,105.86,0,0,1-3.1-10.5c-.69-2.92-.94-4.93-.94-4.93s1.05,1.74,2.31,4.46a108.8,108.8,0,0,1,4.12,10.12c1.31,3.68,2.39,7.44,3.13,10.38ZM154,531.92l.85-1.1c.67.16,1.39.35,2.17.56a137.1,137.1,0,0,1,13.84,5A140.84,140.84,0,0,1,184,542.83c3.49,1.95,5.69,3.52,5.69,3.52s-2.65-.53-6.46-1.74-8.8-3-13.66-5.08-9.46-4.35-13-6.27C155.59,532.78,154.74,532.33,154,531.92Z"/><path class="cls-3" d="M181.13,418.73a3.39,3.39,0,1,1-2.7-4A3.39,3.39,0,0,1,181.13,418.73Z"/><path class="cls-4" d="M176,407.94c-2.64-6.76-7.06-14.41-11-3.58,0,0-13.09,2.61,2.41,11.91-7.24.41-15.89,2.26-6.82,9.37,0,0-1.55,13.26,12.08,1.4-1.85,7-2.76,15.81,6.81,9.38,0,0,12.13,5.57,5-11.05,6.11,3.92,14.19,7.51,11-3.58,0,0,9.05-9.82-8.95-8.23,5.62-4.59,11.53-11.16,0-11.58C186.62,402,180.09,390.33,176,407.94Zm8.61-.45-.37.17a5,5,0,0,0-.92.49,3.89,3.89,0,0,0-.53.42,6.39,6.39,0,0,0-.49.53,6.32,6.32,0,0,0-.85,1.35,11,11,0,0,0-.61,1.52c-.17.5-.34,1-.44,1.42s-.2.75-.26,1a4.41,4.41,0,0,1,2,4.3l.27-.11a7.57,7.57,0,0,1,3.37-.35,5.16,5.16,0,0,1,1.79.58,3.26,3.26,0,0,1,.71.52,3.09,3.09,0,0,1,.53.57,3.67,3.67,0,0,1,.62,1.43s-.12-.12-.29-.32a4.66,4.66,0,0,0-.74-.71,3.3,3.3,0,0,0-.55-.37,6.67,6.67,0,0,0-.66-.31,6.9,6.9,0,0,0-1.55-.39,15.22,15.22,0,0,0-1.64-.11c-.53,0-1,0-1.48,0l-.48,0a4.39,4.39,0,0,1-4,3.31l.12.16a7.56,7.56,0,0,1,1.38,3.09,5.45,5.45,0,0,1,0,1.89,4.5,4.5,0,0,1-.66,1.51,3.81,3.81,0,0,1-1.16,1s.07-.14.2-.37a4,4,0,0,0,.46-.93,5.38,5.38,0,0,0,.18-.64c.07-.23,0-.49.09-.73a6.15,6.15,0,0,0-.12-1.58,10.38,10.38,0,0,0-.39-1.6c-.16-.5-.31-1-.48-1.4-.06-.16-.12-.29-.17-.43a4.91,4.91,0,0,1-.55,0,4.44,4.44,0,0,1-3.47-3.32,7.66,7.66,0,0,1-.47.75,7.34,7.34,0,0,1-2.52,2.27,5.29,5.29,0,0,1-1.79.58,3.24,3.24,0,0,1-.88,0,4.07,4.07,0,0,1-.76-.16,3.63,3.63,0,0,1-1.34-.79l.41.08a4.26,4.26,0,0,0,1,.15,3.86,3.86,0,0,0,.67,0c.23,0,.46-.12.71-.14a6.15,6.15,0,0,0,1.47-.6,11.42,11.42,0,0,0,1.4-.87c.44-.31.86-.61,1.19-.89l.83-.68a4.09,4.09,0,0,1,0-1.52,4.4,4.4,0,0,1,2-2.89,7.05,7.05,0,0,1-1.35-.28,7.64,7.64,0,0,1-2.94-1.7A5.4,5.4,0,0,1,170,410.9a4.17,4.17,0,0,1-.27-.85,3.54,3.54,0,0,1-.08-.77,3.72,3.72,0,0,1,.33-1.52s0,.16.05.42a4.78,4.78,0,0,0,.18,1,3.51,3.51,0,0,0,.24.63,6.47,6.47,0,0,0,.34.63,6.54,6.54,0,0,0,1,1.22,12.43,12.43,0,0,0,1.25,1.07c.44.31.85.62,1.23.85l1.17.75a4.32,4.32,0,0,1,3.11-.58,4.08,4.08,0,0,1,1.34.5,7.2,7.2,0,0,1-.08-.95,7.77,7.77,0,0,1,.71-3.32,5.48,5.48,0,0,1,1.1-1.53,4.13,4.13,0,0,1,.72-.51,3.64,3.64,0,0,1,.71-.32A3.57,3.57,0,0,1,184.65,407.49Z"/><path class="cls-5" d="M230.24,465.47a4.77,4.77,0,1,1-3.8-5.57A4.78,4.78,0,0,1,230.24,465.47Z"/><path class="cls-6" d="M223.09,450.32c-3.7-9.49-9.92-20.24-15.48-5,0,0-18.38,3.67,3.37,16.72-10.16.59-22.3,3.18-9.56,13.17,0,0-2.19,18.62,16.94,2-2.58,9.85-3.87,22.2,9.57,13.17,0,0,17,7.82,7.1-15.52,8.57,5.5,19.92,10.55,15.48-5,0,0,12.71-13.78-12.56-11.54,7.89-6.45,16.18-15.69,0-16.28C238,441.94,228.77,425.59,223.09,450.32Zm12.1-.64a5.87,5.87,0,0,1-.54.25,6.65,6.65,0,0,0-1.28.69,4.73,4.73,0,0,0-.74.57c-.26.2-.44.52-.7.75a9,9,0,0,0-1.18,1.9,15,15,0,0,0-.87,2.14c-.23.71-.47,1.39-.61,2s-.28,1-.37,1.41a6.22,6.22,0,0,1,2.77,6l.38-.15a10.47,10.47,0,0,1,4.73-.49,7.38,7.38,0,0,1,2.52.81,5,5,0,0,1,1,.73,6,6,0,0,1,.74.8,5.64,5.64,0,0,1,.87,2s-.16-.16-.4-.44a6.44,6.44,0,0,0-1-1,5.28,5.28,0,0,0-.78-.52,9.81,9.81,0,0,0-.92-.43,8.85,8.85,0,0,0-2.17-.54,15.12,15.12,0,0,0-2.31-.16c-.75,0-1.47,0-2.08,0l-.67,0a6.17,6.17,0,0,1-5.58,4.65l.17.21a10.69,10.69,0,0,1,1.94,4.35,7.61,7.61,0,0,1,0,2.65,5.18,5.18,0,0,1-.38,1.17,7,7,0,0,1-.54.95,5.52,5.52,0,0,1-1.64,1.45s.11-.21.29-.52a6.14,6.14,0,0,0,.64-1.31,5.78,5.78,0,0,0,.25-.89c.1-.32.06-.68.13-1a9.46,9.46,0,0,0-.16-2.23,16.79,16.79,0,0,0-.55-2.25c-.23-.71-.44-1.39-.68-2-.08-.21-.16-.4-.23-.6a5.12,5.12,0,0,1-.78-.06,6.17,6.17,0,0,1-4.87-4.66,11.79,11.79,0,0,1-.66,1.06,10.78,10.78,0,0,1-3.53,3.19,7.49,7.49,0,0,1-2.53.81,4.6,4.6,0,0,1-1.23,0,6.52,6.52,0,0,1-1.07-.22,4.89,4.89,0,0,1-1.88-1.11l.58.12a6.3,6.3,0,0,0,1.44.2,5.86,5.86,0,0,0,.93,0,8.89,8.89,0,0,0,3.09-1,16.08,16.08,0,0,0,1.95-1.23c.61-.43,1.2-.85,1.67-1.25l1.16-.95a6.07,6.07,0,0,1,2.77-6.19,9,9,0,0,1-1.89-.4,10.54,10.54,0,0,1-4.13-2.38,7.41,7.41,0,0,1-1.55-2.13,4.69,4.69,0,0,1-.38-1.19,6.22,6.22,0,0,1-.13-1.07,5.41,5.41,0,0,1,.47-2.14,4.63,4.63,0,0,1,.08.59,6.14,6.14,0,0,0,.25,1.43,5.9,5.9,0,0,0,.32.88,8,8,0,0,0,.5.89,9.14,9.14,0,0,0,1.43,1.72,17.35,17.35,0,0,0,1.77,1.48c.61.45,1.18.88,1.71,1.21l1.65,1.05a6.13,6.13,0,0,1,4.36-.82,6.21,6.21,0,0,1,1.89.71,10.56,10.56,0,0,1,.88-6,7.61,7.61,0,0,1,1.56-2.14,4.51,4.51,0,0,1,1-.72,5.76,5.76,0,0,1,1-.46A5.27,5.27,0,0,1,235.19,449.68Z"/><path class="cls-7" d="M230.13,243.63a4.77,4.77,0,1,1-3.8-5.56A4.77,4.77,0,0,1,230.13,243.63Z"/><path class="cls-8" d="M223,228.49c-3.7-9.49-9.92-20.24-15.48-5,0,0-18.38,3.67,3.38,16.72-10.18.58-22.31,3.18-9.58,13.17,0,0-2.18,18.62,17,2-2.59,9.86-3.87,22.2,9.56,13.18,0,0,17,7.82,7.11-15.52,8.56,5.5,19.91,10.55,15.48-5,0,0,12.71-13.79-12.57-11.55,7.89-6.45,16.18-15.69,0-16.29C237.85,220.1,228.67,203.76,223,228.49Zm12.1-.64s-.2.11-.53.25a6.83,6.83,0,0,0-1.29.68,6.24,6.24,0,0,0-.74.58c-.25.19-.44.52-.7.75a9.91,9.91,0,0,0-1.18,1.89,16.4,16.4,0,0,0-.87,2.15c-.23.71-.47,1.39-.61,2s-.28,1.05-.37,1.4a6.19,6.19,0,0,1,2.77,6l.38-.15a10.53,10.53,0,0,1,4.74-.49,7.19,7.19,0,0,1,2.51.81,4.44,4.44,0,0,1,1,.73,6,6,0,0,1,.74.8,5.28,5.28,0,0,1,.87,2s-.16-.15-.4-.43a6.44,6.44,0,0,0-1.05-1,4.93,4.93,0,0,0-.77-.52c-.28-.2-.63-.26-.94-.44a9.11,9.11,0,0,0-2.16-.53,16.54,16.54,0,0,0-2.31-.17c-.74,0-1.46,0-2.08,0l-.66,0a6.19,6.19,0,0,1-5.59,4.65,1.12,1.12,0,0,1,.17.21,10.5,10.5,0,0,1,1.94,4.35,7.37,7.37,0,0,1,0,2.65,4.28,4.28,0,0,1-.39,1.16,5.75,5.75,0,0,1-.53,1,5.57,5.57,0,0,1-1.63,1.45s.1-.2.28-.52a5.7,5.7,0,0,0,.64-1.31,4.73,4.73,0,0,0,.25-.9c.1-.31.06-.67.13-1a9,9,0,0,0-.16-2.23,15.1,15.1,0,0,0-.56-2.25c-.22-.71-.43-1.4-.67-2-.09-.21-.16-.41-.23-.6a5.12,5.12,0,0,1-.78-.06,6.22,6.22,0,0,1-4.88-4.66,11.05,11.05,0,0,1-.64,1.06,10.93,10.93,0,0,1-3.54,3.19,7.44,7.44,0,0,1-2.52.81,4.28,4.28,0,0,1-1.24,0,4.74,4.74,0,0,1-1.06-.21,4.89,4.89,0,0,1-1.88-1.11l.58.12a6.21,6.21,0,0,0,1.44.2,5.93,5.93,0,0,0,.93,0c.33,0,.66-.16,1-.19a10,10,0,0,0,2.07-.84,17,17,0,0,0,2-1.23c.6-.44,1.2-.85,1.66-1.25l1.17-1a6,6,0,0,1,0-2.12,6.16,6.16,0,0,1,2.76-4.06,8.42,8.42,0,0,1-1.89-.4,10.61,10.61,0,0,1-4.13-2.38,7.37,7.37,0,0,1-1.55-2.14,5,5,0,0,1-.38-1.17,5.5,5.5,0,0,1-.12-1.09,4.94,4.94,0,0,1,.47-2.13s0,.22.07.59a6.23,6.23,0,0,0,.25,1.43,4.34,4.34,0,0,0,.33.88,8.83,8.83,0,0,0,.49.89,9.2,9.2,0,0,0,1.44,1.72,17.57,17.57,0,0,0,1.76,1.49c.61.43,1.19.87,1.71,1.19l1.66,1.06a6.17,6.17,0,0,1,4.36-.83,6.42,6.42,0,0,1,1.88.71,9,9,0,0,1-.1-1.33,10.62,10.62,0,0,1,1-4.66,7.66,7.66,0,0,1,1.56-2.15,6,6,0,0,1,1-.72,5.75,5.75,0,0,1,1-.45A5,5,0,0,1,235.08,227.85Z"/><path class="cls-9" d="M249.87,397.69a3.45,3.45,0,1,1-2.76-4A3.48,3.48,0,0,1,249.87,397.69Z"/><path class="cls-10" d="M244.68,386.73c-2.68-6.89-7.18-14.67-11.21-3.65,0,0-13.32,2.66,2.45,12.11-7.37.43-16.17,2.31-6.94,9.54,0,0-1.58,13.49,12.28,1.42-1.87,7.14-2.8,16.08,6.93,9.55,0,0,12.34,5.66,5.15-11.25,6.21,4,14.43,7.64,11.21-3.64,0,0,9.21-10-9.1-8.37,5.72-4.67,11.72-11.36,0-11.79C255.45,380.65,248.8,368.81,244.68,386.73Zm8.77-.47a3.44,3.44,0,0,1-.39.18,4.59,4.59,0,0,0-.93.5,4.73,4.73,0,0,0-.53.41c-.19.14-.32.38-.51.55a6.09,6.09,0,0,0-.85,1.37,10.79,10.79,0,0,0-.64,1.55c-.16.52-.34,1-.44,1.45l-.27,1a4.46,4.46,0,0,1,2,4.37,1.82,1.82,0,0,1,.28-.11,7.66,7.66,0,0,1,3.43-.36,5.33,5.33,0,0,1,1.82.59,3.05,3.05,0,0,1,.72.53,4.09,4.09,0,0,1,.54.58,3.68,3.68,0,0,1,.63,1.45A3.23,3.23,0,0,1,258,400a4.13,4.13,0,0,0-.76-.72,3,3,0,0,0-.57-.38c-.19-.14-.45-.19-.67-.32a6.45,6.45,0,0,0-1.57-.39,13.4,13.4,0,0,0-1.67-.12c-.54,0-1.06,0-1.51,0l-.48,0a4.47,4.47,0,0,1-4,3.36l.12.16a7.79,7.79,0,0,1,1.41,3.15,5.56,5.56,0,0,1,0,1.91,3.53,3.53,0,0,1-.27.85,4.85,4.85,0,0,1-.39.69,3.7,3.7,0,0,1-1.19,1.05l.21-.37a4.11,4.11,0,0,0,.46-.94,4.58,4.58,0,0,0,.19-.66c.07-.22,0-.49.09-.74a6.38,6.38,0,0,0-.12-1.61,10,10,0,0,0-.4-1.63,14.58,14.58,0,0,0-.49-1.42c-.06-.16-.11-.3-.17-.44a3.88,3.88,0,0,1-.57-.05,4.48,4.48,0,0,1-3.52-3.37,7,7,0,0,1-.47.77,7.72,7.72,0,0,1-2.57,2.31,5.25,5.25,0,0,1-1.82.59,3.86,3.86,0,0,1-.9,0,3.5,3.5,0,0,1-.77-.15,4,4,0,0,1-1.37-.8s.17,0,.43.08a5,5,0,0,0,1,.14,3.92,3.92,0,0,0,.68,0,6.68,6.68,0,0,0,.73-.14,7.28,7.28,0,0,0,1.5-.61,10.92,10.92,0,0,0,1.42-.89c.44-.31.86-.61,1.2-.89l.85-.7a4.2,4.2,0,0,1,0-1.54,4.5,4.5,0,0,1,2-3,6.43,6.43,0,0,1-1.37-.28,7.7,7.7,0,0,1-3-1.73,5.16,5.16,0,0,1-1.12-1.55,3,3,0,0,1-.28-.85,4.56,4.56,0,0,1-.09-.79,3.92,3.92,0,0,1,.34-1.54,4.31,4.31,0,0,1,0,.43,5.08,5.08,0,0,0,.19,1,3.28,3.28,0,0,0,.23.64c.08.23.26.42.36.65a6.29,6.29,0,0,0,1,1.24,10.86,10.86,0,0,0,1.29,1.08c.43.32.85.63,1.23.87l1.19.76a4.51,4.51,0,0,1,3.17-.59,4.45,4.45,0,0,1,1.36.51,9.67,9.67,0,0,1-.08-1,7.85,7.85,0,0,1,.73-3.37,5.49,5.49,0,0,1,1.12-1.56,4.2,4.2,0,0,1,.73-.51,3.86,3.86,0,0,1,.72-.34A3.71,3.71,0,0,1,253.45,386.26Z"/><path class="cls-11" d="M27.11,343.8a3,3,0,1,1-2.42-3.53A3,3,0,0,1,27.11,343.8Z"/><path class="cls-12" d="M22.57,334.19c-2.35-6-6.29-12.85-9.83-3.2,0,0-11.66,2.33,2.15,10.62-6.46.37-14.16,2-6.08,8.36,0,0-1.38,11.81,10.76,1.23-1.64,6.26-2.46,14.1,6.07,8.37,0,0,10.82,5,4.51-9.85,5.44,3.49,12.64,6.69,9.83-3.19,0,0,8.07-8.75-8-7.33,5-4.1,10.27-10,0-10.34C32,328.86,26.18,318.49,22.57,334.19Zm7.69-.41-.35.16a3.82,3.82,0,0,0-.81.43,3.18,3.18,0,0,0-.47.37c-.16.12-.28.33-.45.48a6,6,0,0,0-.75,1.2,9.92,9.92,0,0,0-.55,1.36c-.15.45-.29.88-.38,1.26s-.18.67-.24.89A3.94,3.94,0,0,1,28,343.77l.24-.1a6.74,6.74,0,0,1,3-.31,4.42,4.42,0,0,1,1.6.51,4.25,4.25,0,0,1,.63.46,3.58,3.58,0,0,1,.46.52,3.31,3.31,0,0,1,.56,1.27s-.1-.1-.25-.28a5.29,5.29,0,0,0-.67-.64,3.94,3.94,0,0,0-.5-.33c-.17-.12-.39-.17-.58-.28a6.11,6.11,0,0,0-1.37-.34,9.24,9.24,0,0,0-1.47-.1c-.49,0-.94,0-1.32,0-.16,0-.29,0-.43,0a3.91,3.91,0,0,1-3.54,2.94l.1.14A6.72,6.72,0,0,1,25.73,350a4.74,4.74,0,0,1,0,1.68,2.92,2.92,0,0,1-.24.74,3.89,3.89,0,0,1-.34.61,3.43,3.43,0,0,1-1,.92l.18-.33a4,4,0,0,0,.41-.83,3.85,3.85,0,0,0,.17-.57,6.47,6.47,0,0,0,.07-.65,5.68,5.68,0,0,0-.1-1.41,9.63,9.63,0,0,0-.35-1.43c-.14-.44-.27-.88-.43-1.25-.05-.13-.11-.26-.15-.38a4,4,0,0,1-.49,0,3.93,3.93,0,0,1-3.09-3,5.76,5.76,0,0,1-.42.67,6.78,6.78,0,0,1-2.24,2,4.54,4.54,0,0,1-1.61.52,4.19,4.19,0,0,1-1.46-.14,3.1,3.1,0,0,1-1.19-.71,3.71,3.71,0,0,1,.37.08,4,4,0,0,0,.92.12,2.38,2.38,0,0,0,.59,0,5.12,5.12,0,0,0,.64-.12,6,6,0,0,0,1.31-.53,9,9,0,0,0,1.24-.78c.39-.28.77-.54,1.06-.79l.74-.61a3.61,3.61,0,0,1,0-1.35A3.87,3.87,0,0,1,22,339.94a6.53,6.53,0,0,1-1.19-.26,6.72,6.72,0,0,1-2.62-1.51,4.61,4.61,0,0,1-1-1.35,3.3,3.3,0,0,1-.25-.75,4.36,4.36,0,0,1-.07-.69,3.18,3.18,0,0,1,.3-1.35s0,.14,0,.37a5.16,5.16,0,0,0,.17.91,3.34,3.34,0,0,0,.2.55c.07.2.23.37.31.58a5.74,5.74,0,0,0,.92,1.08,10.05,10.05,0,0,0,1.12,1c.38.28.75.55,1.09.76l1,.67a3.85,3.85,0,0,1,2.77-.52,3.77,3.77,0,0,1,1.2.45A4.93,4.93,0,0,1,26,339a6.73,6.73,0,0,1,.63-3,4.67,4.67,0,0,1,1-1.36,2.92,2.92,0,0,1,.63-.45,3.56,3.56,0,0,1,.63-.3A3.44,3.44,0,0,1,30.26,333.78Z"/><path class="cls-13" d="M73.19,337a3.77,3.77,0,1,1-3-4.4A3.77,3.77,0,0,1,73.19,337Z"/><path class="cls-14" d="M67.53,325.05c-2.92-7.51-7.83-16-12.24-4,0,0-14.53,2.92,2.68,13.24-8,.46-17.65,2.52-7.58,10.41,0,0-1.72,14.72,13.41,1.55-2,7.79-3.06,17.56,7.57,10.42,0,0,13.47,6.18,5.61-12.28,6.79,4.36,15.75,8.34,12.25-4,0,0,10-10.9-9.94-9.13,6.23-5.11,12.79-12.41,0-12.88C79.3,318.41,72,305.48,67.53,325.05Zm9.57-.52a4.26,4.26,0,0,1-.42.21,5,5,0,0,0-1,.53,4.87,4.87,0,0,0-.58.46c-.21.16-.35.41-.56.6a6.56,6.56,0,0,0-.93,1.5,10.17,10.17,0,0,0-.69,1.69,14.44,14.44,0,0,0-.48,1.58c-.12.45-.23.82-.3,1.11A4.88,4.88,0,0,1,74.32,337l.31-.12a8.41,8.41,0,0,1,3.74-.39,5.55,5.55,0,0,1,2,.64,3.5,3.5,0,0,1,.8.58,4.15,4.15,0,0,1,.58.63,4.1,4.1,0,0,1,.69,1.59s-.12-.12-.31-.35a5.52,5.52,0,0,0-.84-.8,5,5,0,0,0-.61-.4,5.47,5.47,0,0,0-.73-.35,7.6,7.6,0,0,0-1.72-.43,12.46,12.46,0,0,0-1.82-.12c-.59,0-1.16,0-1.65,0-.19,0-.36,0-.52,0a4.9,4.9,0,0,1-4.42,3.67c0,.06.09.1.14.17a8.5,8.5,0,0,1,1.53,3.44,5.65,5.65,0,0,1,0,2.09,3.89,3.89,0,0,1-.29.93,4.78,4.78,0,0,1-.43.75,4.07,4.07,0,0,1-1.29,1.14l.22-.4a5.17,5.17,0,0,0,.51-1,4.91,4.91,0,0,0,.2-.71c.08-.25,0-.54.1-.81a7,7,0,0,0-.13-1.76,11.56,11.56,0,0,0-.43-1.78c-.18-.56-.35-1.11-.54-1.56-.06-.17-.13-.33-.18-.48a3.23,3.23,0,0,1-.62,0,4.91,4.91,0,0,1-3.85-3.69,6.68,6.68,0,0,1-.52.83,8.31,8.31,0,0,1-2.8,2.53,5.54,5.54,0,0,1-2,.64,4.7,4.7,0,0,1-1,0,4.76,4.76,0,0,1-.84-.18,4.36,4.36,0,0,1-1.49-.87,3.86,3.86,0,0,1,.46.09,5.09,5.09,0,0,0,1.14.16,6.36,6.36,0,0,0,.74,0c.26,0,.52-.13.79-.15a7.36,7.36,0,0,0,1.64-.67,12.63,12.63,0,0,0,1.55-1c.48-.36,1-.68,1.32-1l.92-.76a4.74,4.74,0,0,1,0-1.68,4.9,4.9,0,0,1,2.19-3.21A8.29,8.29,0,0,1,62.1,330a5.94,5.94,0,0,1-1.24-1.69,4.32,4.32,0,0,1-.29-.93,4.55,4.55,0,0,1-.1-.86,3.73,3.73,0,0,1,.38-1.68s0,.17,0,.46a4.81,4.81,0,0,0,.2,1.13,5.25,5.25,0,0,0,.25.69c.09.25.28.47.39.72a7.93,7.93,0,0,0,1.14,1.35,15.61,15.61,0,0,0,1.4,1.18c.48.34.93.69,1.35.94l1.31.84a4.88,4.88,0,0,1,3.45-.65,4.94,4.94,0,0,1,1.49.56A7.26,7.26,0,0,1,71.8,331a8.38,8.38,0,0,1,.78-3.7,5.88,5.88,0,0,1,1.23-1.68,3.81,3.81,0,0,1,.79-.58,3.9,3.9,0,0,1,.79-.36A4.45,4.45,0,0,1,77.1,324.53Z"/><path class="cls-15" d="M146.2,22.18a3.67,3.67,0,1,1-2.92-4.28A3.67,3.67,0,0,1,146.2,22.18Z"/><path class="cls-16" d="M140.7,10.53C137.85,3.22,133.07-5,128.79,6.65c0,0-14.15,2.83,2.6,12.88C123.56,20,114.22,22,124,29.66c0,0-1.68,14.33,13,1.51-2,7.58-3,17.09,7.37,10.14,0,0,13.11,6,5.46-12,6.6,4.23,15.33,8.12,11.92-3.87,0,0,9.79-10.6-9.67-8.88,6.07-5,12.45-12.08,0-12.53C152.14,4.08,145.08-8.5,140.7,10.53ZM150,10s-.15.08-.41.19a4.92,4.92,0,0,0-1,.53,3.18,3.18,0,0,0-.56.44,7.68,7.68,0,0,0-.54.58,7.27,7.27,0,0,0-.91,1.45,12.15,12.15,0,0,0-.67,1.65c-.18.55-.36,1.07-.47,1.54l-.29,1.08a4.74,4.74,0,0,1,2.13,4.64c.11,0,.19-.08.3-.11a8,8,0,0,1,3.65-.38,5.62,5.62,0,0,1,1.93.63,4.09,4.09,0,0,1,.77.55,5.28,5.28,0,0,1,.57.62,4.13,4.13,0,0,1,.67,1.54l-.31-.33a4.71,4.71,0,0,0-.81-.77,3,3,0,0,0-.6-.41c-.2-.14-.47-.2-.71-.33a7.3,7.3,0,0,0-1.67-.42,13.38,13.38,0,0,0-1.77-.12c-.58,0-1.13,0-1.61,0l-.5,0a4.77,4.77,0,0,1-4.3,3.57l.13.17a8.12,8.12,0,0,1,1.48,3.35,5.54,5.54,0,0,1,0,2,4.14,4.14,0,0,1-.3.9,4.32,4.32,0,0,1-.41.74,4.18,4.18,0,0,1-1.26,1.11l.22-.4a4.22,4.22,0,0,0,.49-1,3.79,3.79,0,0,0,.2-.7c.08-.24,0-.52.1-.78a7.2,7.2,0,0,0-.13-1.71,10.67,10.67,0,0,0-.43-1.73,15.75,15.75,0,0,0-.52-1.52c-.06-.16-.12-.31-.17-.46a4,4,0,0,1-.6,0A4.75,4.75,0,0,1,138,22.6a9.6,9.6,0,0,1-.5.82,8.39,8.39,0,0,1-2.73,2.46,5.65,5.65,0,0,1-1.94.62,3.77,3.77,0,0,1-1,0,4.74,4.74,0,0,1-.82-.17,4,4,0,0,1-1.45-.85,4,4,0,0,1,.45.09,4.87,4.87,0,0,0,1.11.15,4.42,4.42,0,0,0,.72,0c.25,0,.5-.12.77-.15a7.47,7.47,0,0,0,1.6-.65,11.47,11.47,0,0,0,1.5-.94c.48-.34.93-.65,1.29-1l.89-.74a4.31,4.31,0,0,1,0-1.64A4.74,4.74,0,0,1,140,17.5a6.76,6.76,0,0,1-1.45-.3,8.26,8.26,0,0,1-3.18-1.83,6,6,0,0,1-1.2-1.65,4.17,4.17,0,0,1-.29-.91,4.26,4.26,0,0,1-.1-.83,4,4,0,0,1,.37-1.65s0,.17.06.46a4.52,4.52,0,0,0,.19,1.1,3.54,3.54,0,0,0,.25.68,5.31,5.31,0,0,0,.38.69,6.44,6.44,0,0,0,1.11,1.31,11.25,11.25,0,0,0,1.35,1.15c.47.34.91.68,1.32.92l1.27.81a4.8,4.8,0,0,1,3.36-.63,5.06,5.06,0,0,1,1.45.55,8.21,8.21,0,0,1-.09-1,8.46,8.46,0,0,1,.77-3.59,5.78,5.78,0,0,1,1.2-1.65,4,4,0,0,1,.77-.55,3.48,3.48,0,0,1,.77-.35A3.85,3.85,0,0,1,150,10Z"/><path class="cls-17" d="M173.33,109.53a3.28,3.28,0,1,1-2.62-3.82A3.29,3.29,0,0,1,173.33,109.53Z"/><path class="cls-18" d="M168.41,99.12c-2.54-6.53-6.82-13.93-10.65-3.46,0,0-12.64,2.52,2.33,11.5-7,.4-15.35,2.19-6.59,9.06,0,0-1.5,12.8,11.66,1.34-1.78,6.78-2.66,15.27,6.58,9.06,0,0,11.72,5.38,4.88-10.68,5.9,3.79,13.71,7.26,10.65-3.45,0,0,8.75-9.48-8.64-7.94,5.42-4.44,11.13-10.79,0-11.2C178.64,93.35,172.33,82.1,168.41,99.12Zm8.32-.44s-.13.07-.37.17a4.86,4.86,0,0,0-.88.47,5.34,5.34,0,0,0-.51.39c-.18.14-.3.36-.48.52a6.78,6.78,0,0,0-.82,1.31,11.56,11.56,0,0,0-.59,1.47c-.16.49-.33.95-.42,1.37s-.19.72-.25,1a4.22,4.22,0,0,1,1.9,4.14,1.39,1.39,0,0,0,.26-.1,7.4,7.4,0,0,1,3.26-.34,5.46,5.46,0,0,1,1.74.56,3.52,3.52,0,0,1,.68.5,4.31,4.31,0,0,1,.51.56,3.85,3.85,0,0,1,.6,1.37s-.12-.11-.28-.29a4.85,4.85,0,0,0-.72-.7,3.48,3.48,0,0,0-.53-.35,4.68,4.68,0,0,0-.64-.3,6.51,6.51,0,0,0-1.49-.38,12.38,12.38,0,0,0-1.59-.11c-.52,0-1,0-1.43,0l-.46,0a4.25,4.25,0,0,1-3.84,3.2,1.58,1.58,0,0,0,.12.15,7.4,7.4,0,0,1,1.33,3,5.3,5.3,0,0,1,0,1.82,3.27,3.27,0,0,1-.27.8,4.07,4.07,0,0,1-.36.66,4.16,4.16,0,0,1-1.12,1,3.51,3.51,0,0,1,.19-.36,5,5,0,0,0,.44-.9,3.74,3.74,0,0,0,.17-.62c.07-.22,0-.47.09-.7a6.17,6.17,0,0,0-.11-1.53,13,13,0,0,0-.38-1.55,13.14,13.14,0,0,0-.47-1.35c0-.15-.11-.28-.16-.42a3.26,3.26,0,0,1-.54,0A4.29,4.29,0,0,1,166,109.9a5.22,5.22,0,0,1-.44.73,7.42,7.42,0,0,1-2.43,2.2,5.07,5.07,0,0,1-1.74.56,4,4,0,0,1-.85,0,4.69,4.69,0,0,1-.73-.15,3.48,3.48,0,0,1-1.3-.76,3.74,3.74,0,0,1,.4.08,4.19,4.19,0,0,0,1,.13,2.71,2.71,0,0,0,.63,0,6.11,6.11,0,0,0,.7-.13,6.61,6.61,0,0,0,1.43-.58,10.79,10.79,0,0,0,1.34-.84c.42-.31.82-.58,1.14-.86l.81-.66a4.15,4.15,0,0,1,1.89-4.25,6.34,6.34,0,0,1-1.29-.27,7.48,7.48,0,0,1-2.84-1.64,5.09,5.09,0,0,1-1.07-1.47,3.8,3.8,0,0,1-.26-.81,4.17,4.17,0,0,1-.08-.75,3.8,3.8,0,0,1,.32-1.47l0,.41a5.25,5.25,0,0,0,.17,1,3.82,3.82,0,0,0,.23.6,6.08,6.08,0,0,0,.33.61,6.46,6.46,0,0,0,1,1.18,13,13,0,0,0,1.22,1c.41.3.81.6,1.17.82l1.14.72a4.15,4.15,0,0,1,4.3-.07,7.07,7.07,0,0,1-.07-.92,7.25,7.25,0,0,1,.68-3.21,5.05,5.05,0,0,1,1.07-1.47,4,4,0,0,1,1.37-.81A3.42,3.42,0,0,1,176.73,98.68Z"/><path class="cls-19" d="M95.32,117a4.41,4.41,0,1,1-3.52-5.14A4.41,4.41,0,0,1,95.32,117Z"/><path class="cls-20" d="M88.71,103c-3.42-8.78-9.16-18.71-14.3-4.66,0,0-17,3.39,3.12,15.46-9.4.53-20.62,2.93-8.85,12.16,0,0-2,17.2,15.67,1.81-2.39,9.1-3.58,20.51,8.84,12.17,0,0,15.73,7.22,6.56-14.34,7.92,5.08,18.4,9.74,14.3-4.65,0,0,11.74-12.73-11.61-10.66,7.29-6,15-14.49,0-15.05C102.45,95.24,94,80.14,88.71,103Zm11.18-.6s-.19.1-.49.23a6.09,6.09,0,0,0-1.19.63,6.29,6.29,0,0,0-.68.53,8.81,8.81,0,0,0-.65.7,8.94,8.94,0,0,0-1.09,1.75,13.9,13.9,0,0,0-.8,2,17.73,17.73,0,0,0-.56,1.84c-.15.53-.26,1-.35,1.3a5.72,5.72,0,0,1,2.56,5.58,3,3,0,0,1,.36-.14,9.63,9.63,0,0,1,4.37-.46,6.52,6.52,0,0,1,2.32.75,4.36,4.36,0,0,1,.92.67,6.6,6.6,0,0,1,.69.74,5.14,5.14,0,0,1,.81,1.86l-.38-.4a6.29,6.29,0,0,0-1-.94,5,5,0,0,0-.72-.48c-.24-.17-.58-.24-.85-.4a9,9,0,0,0-2-.5,17.21,17.21,0,0,0-2.13-.15c-.7,0-1.36,0-1.93,0l-.61,0a5.73,5.73,0,0,1-5.16,4.3l.15.19a9.79,9.79,0,0,1,1.8,4,6.9,6.9,0,0,1,0,2.44A5,5,0,0,1,93,129.6a5.63,5.63,0,0,1-.5.88,5.09,5.09,0,0,1-1.5,1.34s.09-.19.25-.48a5.42,5.42,0,0,0,.6-1.21,5.21,5.21,0,0,0,.24-.82c.09-.3,0-.64.11-.95A8.11,8.11,0,0,0,92,126.3a14.35,14.35,0,0,0-.51-2.08c-.21-.65-.4-1.28-.63-1.81-.07-.21-.14-.38-.21-.56a4.37,4.37,0,0,1-.72-.06,5.7,5.7,0,0,1-4.5-4.31,11.42,11.42,0,0,1-.6,1,9.76,9.76,0,0,1-3.28,3,6.51,6.51,0,0,1-2.32.75,4.35,4.35,0,0,1-1.14,0,5.41,5.41,0,0,1-1-.2,4.8,4.8,0,0,1-1.74-1l.54.1a5.33,5.33,0,0,0,1.33.19,4.2,4.2,0,0,0,.86,0A8.6,8.6,0,0,0,79,121a9.79,9.79,0,0,0,1.91-.77,17.33,17.33,0,0,0,1.81-1.14c.56-.41,1.11-.78,1.54-1.15l1.07-.88a5.61,5.61,0,0,1,2.56-5.72,8.35,8.35,0,0,1-1.75-.37,9.8,9.8,0,0,1-3.81-2.2,6.53,6.53,0,0,1-1.44-2,4.91,4.91,0,0,1-.35-1.09,4.69,4.69,0,0,1,.32-3s0,.2.07.54a6.2,6.2,0,0,0,.23,1.32,5.14,5.14,0,0,0,.3.82,8.45,8.45,0,0,0,.46.82,8.84,8.84,0,0,0,1.32,1.59,16,16,0,0,0,1.63,1.37c.57.41,1.1.81,1.58,1.1l1.53,1a5.74,5.74,0,0,1,4-.76,5.81,5.81,0,0,1,1.73.66c0-.32-.08-.74-.1-1.24a10.14,10.14,0,0,1,.92-4.3,6.81,6.81,0,0,1,1.44-2A4.21,4.21,0,0,1,97,103a4.64,4.64,0,0,1,.92-.42A4.59,4.59,0,0,1,99.89,102.4Z"/><path class="cls-21" d="M145,252.12a3.67,3.67,0,1,1-2.92-4.28A3.67,3.67,0,0,1,145,252.12Z"/><path class="cls-22" d="M139.53,240.47c-2.85-7.31-7.64-15.58-11.93-3.88,0,0-14.14,2.83,2.61,12.88-7.83.45-17.17,2.45-7.37,10.13,0,0-1.68,14.33,13,1.51-2,7.58-3,17.08,7.36,10.13,0,0,13.11,6,5.47-11.94,6.6,4.23,15.33,8.11,11.92-3.87,0,0,9.78-10.61-9.68-8.89,6.07-5,12.46-12.07,0-12.53C151,234,143.9,221.43,139.53,240.47Zm9.31-.5-.41.19a5.18,5.18,0,0,0-1,.53,3.74,3.74,0,0,0-.57.45c-.19.14-.34.39-.54.57a7.35,7.35,0,0,0-.91,1.46,12.08,12.08,0,0,0-.66,1.65c-.18.55-.37,1.07-.47,1.53s-.22.81-.29,1.09a4.75,4.75,0,0,1,2.13,4.64c.1,0,.18-.08.29-.12a8.2,8.2,0,0,1,3.65-.37,5.59,5.59,0,0,1,1.94.62,4,4,0,0,1,.77.56,5.23,5.23,0,0,1,.56.62,3.93,3.93,0,0,1,.67,1.54l-.31-.33a5,5,0,0,0-.8-.78,4.47,4.47,0,0,0-.6-.4,7.7,7.7,0,0,0-.71-.33,7.43,7.43,0,0,0-1.67-.42,11.88,11.88,0,0,0-1.77-.12c-.59,0-1.14,0-1.61,0l-.51,0a4.76,4.76,0,0,1-4.3,3.58l.13.16a8.24,8.24,0,0,1,1.49,3.35,5.6,5.6,0,0,1,0,2,3.66,3.66,0,0,1-.3.9,3.87,3.87,0,0,1-.41.73,4.23,4.23,0,0,1-1.25,1.12,3.46,3.46,0,0,1,.22-.4,5.62,5.62,0,0,0,.49-1,4.32,4.32,0,0,0,.19-.69c.08-.24.05-.52.11-.78a7.72,7.72,0,0,0-.13-1.71,12.29,12.29,0,0,0-.43-1.74c-.18-.54-.34-1.07-.52-1.51-.07-.17-.12-.31-.18-.47a3.08,3.08,0,0,1-.6,0,4.78,4.78,0,0,1-3.75-3.6,8.68,8.68,0,0,1-.5.83,8.17,8.17,0,0,1-2.73,2.45,5.61,5.61,0,0,1-1.93.63,4.29,4.29,0,0,1-.95,0,4.07,4.07,0,0,1-.83-.16,4.26,4.26,0,0,1-1.45-.85,3.55,3.55,0,0,1,.45.09,4.87,4.87,0,0,0,1.11.15,3.53,3.53,0,0,0,.72,0,6,6,0,0,0,2.37-.79,10,10,0,0,0,1.5-1,15.51,15.51,0,0,0,1.29-.95l.89-.74a4.68,4.68,0,0,1,2.13-4.76,7.25,7.25,0,0,1-1.45-.31,8.13,8.13,0,0,1-3.18-1.83,5.65,5.65,0,0,1-1.19-1.65,4,4,0,0,1-.3-.9,5.12,5.12,0,0,1-.09-.84,4.09,4.09,0,0,1,.36-1.64s0,.17.05.46a5.18,5.18,0,0,0,.2,1.1,3.94,3.94,0,0,0,.25.67,7.87,7.87,0,0,0,.38.69,6.49,6.49,0,0,0,1.11,1.32,11.34,11.34,0,0,0,1.36,1.15c.47.34.9.67,1.31.92l1.27.81a4.75,4.75,0,0,1,3.36-.63,4.94,4.94,0,0,1,1.45.54,6.69,6.69,0,0,1-.08-1,8.29,8.29,0,0,1,.76-3.59,5.7,5.7,0,0,1,1.2-1.65,3.53,3.53,0,0,1,.77-.55,3.77,3.77,0,0,1,.77-.36A4.1,4.1,0,0,1,148.84,240Z"/><path class="cls-23" d="M20.47,157.67a2.84,2.84,0,1,1-2.26-3.32A2.84,2.84,0,0,1,20.47,157.67Z"/><path class="cls-24" d="M16.21,148.63C14,143,10.29,136.55,7,145.62c0,0-11,2.2,2,10-6.08.35-13.32,1.9-5.72,7.86,0,0-1.3,11.11,10.12,1.17-1.55,5.88-2.31,13.25,5.71,7.86,0,0,10.17,4.67,4.23-9.26,5.12,3.28,11.9,6.29,9.25-3,0,0,7.59-8.23-7.5-6.9,4.71-3.85,9.66-9.36,0-9.72C25.08,143.62,19.6,133.87,16.21,148.63Zm7.22-.38-.32.15a3.46,3.46,0,0,0-.77.41,2.6,2.6,0,0,0-.43.33c-.16.13-.27.32-.42.45a6.46,6.46,0,0,0-.71,1.14,11.31,11.31,0,0,0-.52,1.27c-.14.43-.28.84-.36,1.2s-.17.62-.23.84a3.65,3.65,0,0,1,1.66,3.6l.23-.1a6.27,6.27,0,0,1,2.83-.28,4.33,4.33,0,0,1,1.5.48,3,3,0,0,1,.59.43,4.86,4.86,0,0,1,.45.48,3.42,3.42,0,0,1,.52,1.2l-.25-.26a4,4,0,0,0-.62-.6,2.73,2.73,0,0,0-.47-.31,4,4,0,0,0-.55-.26,5.81,5.81,0,0,0-1.29-.33,10.89,10.89,0,0,0-1.38-.09c-.45,0-.87,0-1.24,0l-.4,0a3.67,3.67,0,0,1-3.33,2.78l.1.13a6.34,6.34,0,0,1,1.16,2.59,4.41,4.41,0,0,1,0,1.58,3.59,3.59,0,0,1-.23.7,3.31,3.31,0,0,1-.33.56,3,3,0,0,1-1,.87s.05-.11.16-.31a3.43,3.43,0,0,0,.38-.77,4.26,4.26,0,0,0,.16-.54,6,6,0,0,0,.07-.61,5.54,5.54,0,0,0-.1-1.33,8.74,8.74,0,0,0-.33-1.34c-.13-.43-.26-.84-.4-1.18-.06-.13-.09-.24-.14-.35a3.57,3.57,0,0,1-.46,0A3.71,3.71,0,0,1,14.09,158a5.48,5.48,0,0,1-.39.63,6.45,6.45,0,0,1-2.12,1.91,4.29,4.29,0,0,1-1.49.49,2.68,2.68,0,0,1-.75,0,2.79,2.79,0,0,1-1.75-.78l.34.07a4.21,4.21,0,0,0,.86.11,2.56,2.56,0,0,0,.55,0,4.62,4.62,0,0,0,.61-.11,6.08,6.08,0,0,0,1.24-.5,11.51,11.51,0,0,0,1.17-.73c.36-.26.71-.51,1-.75l.69-.57a3.39,3.39,0,0,1,0-1.27A3.64,3.64,0,0,1,15.69,154a5.35,5.35,0,0,1-1.12-.24,6.52,6.52,0,0,1-2.47-1.42,4.25,4.25,0,0,1-.92-1.28,2.39,2.39,0,0,1-.23-.7,3,3,0,0,1-.08-.64,3.22,3.22,0,0,1,.29-1.28s0,.13,0,.35a4.32,4.32,0,0,0,.15.86,3.07,3.07,0,0,0,.2.52,3.84,3.84,0,0,0,.28.53,5.54,5.54,0,0,0,.86,1,11,11,0,0,0,1.06.9c.36.26.7.52,1,.71l1,.64a3.64,3.64,0,0,1,2.6-.5,3.94,3.94,0,0,1,1.12.42,7.69,7.69,0,0,1-.05-.79,6.49,6.49,0,0,1,.58-2.79,4.72,4.72,0,0,1,.93-1.28,4.12,4.12,0,0,1,.6-.43,3.86,3.86,0,0,1,.6-.27A3.26,3.26,0,0,1,23.43,148.25Z"/><path class="cls-25" d="M254.44,150.7a3.67,3.67,0,1,1-2.93-4.28A3.68,3.68,0,0,1,254.44,150.7Z"/><path class="cls-26" d="M248.93,139.06c-2.84-7.32-7.62-15.59-11.91-3.88,0,0-14.15,2.82,2.6,12.87-7.83.45-17.17,2.45-7.37,10.14,0,0-1.68,14.32,13.05,1.5-2,7.58-3,17.08,7.36,10.14,0,0,13.11,6,5.46-11.94,6.61,4.23,15.34,8.11,11.93-3.87,0,0,9.78-10.61-9.68-8.89,6.07-5,12.46-12.08,0-12.54C260.38,132.59,253.31,120,248.93,139.06Zm9.32-.5-.41.19a4.67,4.67,0,0,0-1,.53,3.23,3.23,0,0,0-.57.44,7.68,7.68,0,0,0-.54.58,6.85,6.85,0,0,0-.91,1.45,12.08,12.08,0,0,0-.66,1.65c-.18.55-.37,1.08-.48,1.54s-.21.81-.28,1.08a4.76,4.76,0,0,1,2.13,4.64l.29-.11a8.19,8.19,0,0,1,3.65-.38,5.6,5.6,0,0,1,1.94.63,3.12,3.12,0,0,1,.76.56,3.61,3.61,0,0,1,.57.62,3.81,3.81,0,0,1,.67,1.54s-.12-.12-.31-.34a5.12,5.12,0,0,0-.81-.78,4.64,4.64,0,0,0-.59-.39,6,6,0,0,0-.72-.34,6.7,6.7,0,0,0-1.67-.41,11.71,11.71,0,0,0-1.77-.13c-.57,0-1.13,0-1.6,0l-.51,0a4.76,4.76,0,0,1-4.3,3.58l.13.16a8.12,8.12,0,0,1,1.49,3.35,5.54,5.54,0,0,1,0,2,4,4,0,0,1-.29.9,4.64,4.64,0,0,1-.41.74,4.18,4.18,0,0,1-1.26,1.11s.07-.15.22-.4a5.48,5.48,0,0,0,.49-1,4.45,4.45,0,0,0,.19-.7,6.39,6.39,0,0,0,.1-.78,7.18,7.18,0,0,0-.12-1.71,12.15,12.15,0,0,0-.43-1.73c-.18-.55-.34-1.08-.52-1.51-.06-.17-.12-.32-.18-.47a4,4,0,0,1-.6,0,4.77,4.77,0,0,1-3.75-3.59,7.57,7.57,0,0,1-.5.82A8.19,8.19,0,0,1,243,154.4,5.82,5.82,0,0,1,241,155a3.77,3.77,0,0,1-.95,0,4.67,4.67,0,0,1-.83-.17,3.69,3.69,0,0,1-1.44-.85,3.64,3.64,0,0,1,.44.09,4.43,4.43,0,0,0,1.11.15,3.52,3.52,0,0,0,.72,0c.25,0,.51-.12.77-.15a7,7,0,0,0,1.6-.65,11.59,11.59,0,0,0,1.51-.94c.47-.34.92-.65,1.28-1s.68-.56.9-.73a4.57,4.57,0,0,1,0-1.65,4.74,4.74,0,0,1,2.12-3.12,7,7,0,0,1-1.45-.3,8.26,8.26,0,0,1-3.18-1.83,6,6,0,0,1-1.2-1.65,4.12,4.12,0,0,1-.28-.91,3.62,3.62,0,0,1-.1-.84,3.94,3.94,0,0,1,.36-1.63,2.87,2.87,0,0,1,.06.45,4.53,4.53,0,0,0,.2,1.1,3.48,3.48,0,0,0,.24.68c.08.23.27.45.38.69a6.71,6.71,0,0,0,1.1,1.31,12.27,12.27,0,0,0,1.37,1.15c.46.34.91.67,1.31.92l1.27.82a4.75,4.75,0,0,1,3.36-.64,4.69,4.69,0,0,1,1.45.55,8.48,8.48,0,0,1-.08-1,8.17,8.17,0,0,1,.77-3.59,5.76,5.76,0,0,1,1.19-1.64,4,4,0,0,1,.77-.56,4.3,4.3,0,0,1,.77-.35A3.89,3.89,0,0,1,258.25,138.56Z"/><g class="cls-27"><path class="cls-28" d="M127.87,727.61c7.74-6.86,6.29-56.18,3.09-98.48-1-12.92-3-37.21-5.11-62.77,7.8-8.75,17.28-20.44,26-31.72,34.07,28.53,51.49,16.13,51.49,16.13-11.92-19.46-34.48-21.93-47.28-21.59,8.7-11.38,16.21-21.71,19.85-27.27,10.87-16.62,19.2-55.13,28.34-64.72s30.1-27.38,29.71-30.75-26.22,16.69-39.08,31c-6.83,7.6-14.78,26.43-23,44.85-3.17-26.91-16.62-29.8-16.62-29.8-4.94,17.23,6.32,31.43,12.92,38-6.05,13.17-12.2,25.19-18.1,31.52-7.09,7.59-17.27,15.72-26.12,22.24-2.48-29.67-4.77-57.13-5.44-66.37-1.4-19.46,3.61-108.78.1-139.09-.24-2-.56-4.07-.94-6.18,8.51-7.11,25.66-28,40-46.67,39.32,19.66,53.34,3.74,53.34,3.74-14.76-14.93-35-13.81-47.8-11,6.95-9.22,12.75-17.29,15.82-22,8.66-13.22,15.71-40.32,22.84-55.65,35.74,7.56,43-7.95,43-7.95-17.06-9.38-34.88.68-41.73,5.41a29.06,29.06,0,0,1,4.26-6.52c9.12-9.59,30.1-27.38,29.71-30.74s-26.22,16.69-39.07,31c-4.09,4.55-8.57,13.11-13.28,23.19-9.42-26.21-23.47-25.82-23.47-25.82-.7,16.92,12,27.84,20.17,33.05-9.17,20.38-19,44.23-28.23,54.13-12.26,13.13-33.75,27.87-41.6,33.07A367.9,367.9,0,0,0,93,264.92c-24.38-48.36,4.42-94.36,4.42-94.36,3.44-5.07,6.9-9.55,10.39-13.85,36,5.51,42.32-10.34,42.32-10.34-15.31-7.33-30.4.13-38.37,5.55,9.32-11.19,18.92-22.12,29.19-40.16C156.58,84.35,156.4,46,154.09,33.45s-7.87-1.65-7.87-1.65a134.75,134.75,0,0,1-4,55.16c-13.15-32.72-29.67-30.27-29.67-30.27,1.62,21,22.65,30.26,29,32.6-6.07,19.34-18,40.55-40.7,58.69C68,174.23,67.56,216.51,75.36,255.2A121.33,121.33,0,0,1,62,240.38c-6.88-9.57-12.32-36.13-18-49.79,21.4-29.49,10.16-42.36,10.16-42.36-14,10.59-13.81,28.18-12.52,37.55-.18-.31-.38-.67-.57-.94C34.3,175,20,160.67,19.48,162.7s11,14.64,15.86,21.26c3,4.1,5,15,7.3,25.36C14.63,191.14,2.79,202,2.79,202,15,217.31,35.48,214.8,43.52,213.09A68.1,68.1,0,0,0,47.69,226c5.25,10.83,27.47,49.05,33.5,53.09,5.09,18.12,10.94,34.31,14.55,46.1,8.76,28.61,5.4,67.22,5.37,139.16C94,457.93,83.3,447.67,76.87,438.73c-5.13-7.13-9.64-21.67-13.93-36,14.21-32.62.83-42.76.83-42.76a32.13,32.13,0,0,0-7.68,21c-1.93-5.47-3.88-10.06-5.86-12.94-8.64-12.48-26.87-30.77-27.52-28.18s14,18.64,20.21,27.07,8.86,39.43,15.72,53.54C61.18,425.68,66.87,436,73.35,447c-34.81-13-46.52,1.66-46.52,1.66,17.11,15.72,40,11.49,52,7.6,9,14.88,18.35,28.92,22.35,31.71.25,24.3,1,52,2.61,83.7,7.52,145.89-33.19,148-33.19,148S120.14,734.48,127.87,727.61Zm-66.17-329c-.41-1.39-.83-2.75-1.24-4.11,0-2.44.2-5.21.44-8a108.32,108.32,0,0,1,1.6-10.84,49.66,49.66,0,0,1,1.23-4.87s.22,2,.22,5a108.93,108.93,0,0,1-.52,10.92c-.36,3.88-1,7.75-1.52,10.72C61.84,397.85,61.77,398.2,61.7,398.58Zm15,54.1,1.15,1.91-1.11,0a141.37,141.37,0,0,1-14.7-1c-5.28-.69-10.48-1.65-14.37-2.58a66.22,66.22,0,0,1-6.43-1.83,66.24,66.24,0,0,1,6.68-.1c4,.08,9.3.48,14.53,1.14s10.3,1.59,14.24,2.47ZM43.35,212.4l.06.25c-.77-.05-2.29-.16-4.34-.47A104.24,104.24,0,0,1,28.3,209.7,107.17,107.17,0,0,1,18,206.12,47.9,47.9,0,0,1,13.4,204s2,.16,5,.71,6.83,1.44,10.62,2.53,7.44,2.38,10.26,3.49C41.18,211.44,42.6,212.05,43.35,212.4ZM43,188.23c-.11-.21-.2-.43-.31-.63.1-.85.24-2,.47-3.34a102.38,102.38,0,0,1,6.56-21,49.35,49.35,0,0,1,2.2-4.51,48.4,48.4,0,0,1-.81,5c-.59,2.93-1.6,6.79-2.78,10.57s-2.55,7.38-3.72,10.17C43.91,186.16,43.34,187.43,43,188.23ZM137.83,84.39c1.78,2.44,2.82,4.25,2.82,4.25s-1.6-1.17-3.79-3.17a105.06,105.06,0,0,1-7.52-8.09,108.19,108.19,0,0,1-6.57-8.76c-1.66-2.49-2.6-4.29-2.6-4.29a50,50,0,0,1,3.73,3.36c2.15,2.08,4.85,5,7.39,8.06S136.11,81.89,137.83,84.39Zm-28.37,70.34c.16-.19.31-.39.48-.58.79-.31,1.84-.68,3.13-1.09a102.72,102.72,0,0,1,10.77-2.48,108.68,108.68,0,0,1,10.87-1.3,47.92,47.92,0,0,1,5-.1,50.13,50.13,0,0,1-4.78,1.54c-2.87.81-6.77,1.69-10.66,2.36s-7.74,1.12-10.76,1.36C111.78,154.62,110.36,154.69,109.46,154.73Zm73.44,64.76c-.24.53-.47,1-.72,1.59l-.07-.09a103.35,103.35,0,0,1-6.52-8.91,106.59,106.59,0,0,1-5.49-9.48A48.31,48.31,0,0,1,168,198s1.44,1.45,3.3,3.79,4.22,5.56,6.38,8.87C179.71,213.74,181.52,216.9,182.9,219.49Zm19.95-20.38,0,0a46.13,46.13,0,0,1,4.64-1.41,103.85,103.85,0,0,1,10.88-1.88c4-.44,7.93-.68,10.93-.7s5,.18,5,.18-1.93.64-4.86,1.28-6.86,1.3-10.78,1.77-7.78.68-10.81.75S203,199.12,202.85,199.11ZM160,282.89l1.21-1.58h.27a139.48,139.48,0,0,1,14.62,1.74,144.33,144.33,0,0,1,14.24,3.27,66.23,66.23,0,0,1,6.34,2.13,63.29,63.29,0,0,1-6.69-.22c-4-.27-9.25-.93-14.45-1.84s-10.21-2.08-14.1-3.14C161,283.14,160.5,283,160,282.89Zm9.43,204.81-.7,1.54c-.23-.42-.45-.83-.7-1.31a102.69,102.69,0,0,1-4.24-10.21,105.86,105.86,0,0,1-3.1-10.5c-.69-2.92-.94-4.93-.94-4.93s1.05,1.74,2.31,4.46a108.8,108.8,0,0,1,4.12,10.12c1.31,3.68,2.39,7.44,3.13,10.38ZM154,531.92l.85-1.1c.67.16,1.39.35,2.17.56a137.1,137.1,0,0,1,13.84,5A140.84,140.84,0,0,1,184,542.83c3.49,1.95,5.69,3.52,5.69,3.52s-2.65-.53-6.46-1.74-8.8-3-13.66-5.08-9.46-4.35-13-6.27C155.59,532.78,154.74,532.33,154,531.92Z"/><path class="cls-28" d="M181.13,418.73a3.39,3.39,0,1,1-2.7-4A3.39,3.39,0,0,1,181.13,418.73Z"/><path class="cls-28" d="M176,407.94c-2.64-6.76-7.06-14.41-11-3.58,0,0-13.09,2.61,2.41,11.91-7.24.41-15.89,2.26-6.82,9.37,0,0-1.55,13.26,12.08,1.4-1.85,7-2.76,15.81,6.81,9.38,0,0,12.13,5.57,5-11.05,6.11,3.92,14.19,7.51,11-3.58,0,0,9.05-9.82-8.95-8.23,5.62-4.59,11.53-11.16,0-11.58C186.62,402,180.09,390.33,176,407.94Zm8.61-.45-.37.17a5,5,0,0,0-.92.49,3.89,3.89,0,0,0-.53.42,6.39,6.39,0,0,0-.49.53,6.32,6.32,0,0,0-.85,1.35,11,11,0,0,0-.61,1.52c-.17.5-.34,1-.44,1.42s-.2.75-.26,1a4.41,4.41,0,0,1,2,4.3l.27-.11a7.57,7.57,0,0,1,3.37-.35,5.16,5.16,0,0,1,1.79.58,3.26,3.26,0,0,1,.71.52,3.09,3.09,0,0,1,.53.57,3.67,3.67,0,0,1,.62,1.43s-.12-.12-.29-.32a4.66,4.66,0,0,0-.74-.71,3.3,3.3,0,0,0-.55-.37,6.67,6.67,0,0,0-.66-.31,6.9,6.9,0,0,0-1.55-.39,15.22,15.22,0,0,0-1.64-.11c-.53,0-1,0-1.48,0l-.48,0a4.39,4.39,0,0,1-4,3.31l.12.16a7.56,7.56,0,0,1,1.38,3.09,5.45,5.45,0,0,1,0,1.89,4.5,4.5,0,0,1-.66,1.51,3.81,3.81,0,0,1-1.16,1s.07-.14.2-.37a4,4,0,0,0,.46-.93,5.38,5.38,0,0,0,.18-.64c.07-.23,0-.49.09-.73a6.15,6.15,0,0,0-.12-1.58,10.38,10.38,0,0,0-.39-1.6c-.16-.5-.31-1-.48-1.4-.06-.16-.12-.29-.17-.43a4.91,4.91,0,0,1-.55,0,4.44,4.44,0,0,1-3.47-3.32,7.66,7.66,0,0,1-.47.75,7.34,7.34,0,0,1-2.52,2.27,5.29,5.29,0,0,1-1.79.58,3.24,3.24,0,0,1-.88,0,4.07,4.07,0,0,1-.76-.16,3.63,3.63,0,0,1-1.34-.79l.41.08a4.26,4.26,0,0,0,1,.15,3.86,3.86,0,0,0,.67,0c.23,0,.46-.12.71-.14a6.15,6.15,0,0,0,1.47-.6,11.42,11.42,0,0,0,1.4-.87c.44-.31.86-.61,1.19-.89l.83-.68a4.09,4.09,0,0,1,0-1.52,4.4,4.4,0,0,1,2-2.89,7.05,7.05,0,0,1-1.35-.28,7.64,7.64,0,0,1-2.94-1.7A5.4,5.4,0,0,1,170,410.9a4.17,4.17,0,0,1-.27-.85,3.54,3.54,0,0,1-.08-.77,3.72,3.72,0,0,1,.33-1.52s0,.16.05.42a4.78,4.78,0,0,0,.18,1,3.51,3.51,0,0,0,.24.63,6.47,6.47,0,0,0,.34.63,6.54,6.54,0,0,0,1,1.22,12.43,12.43,0,0,0,1.25,1.07c.44.31.85.62,1.23.85l1.17.75a4.32,4.32,0,0,1,3.11-.58,4.08,4.08,0,0,1,1.34.5,7.2,7.2,0,0,1-.08-.95,7.77,7.77,0,0,1,.71-3.32,5.48,5.48,0,0,1,1.1-1.53,4.13,4.13,0,0,1,.72-.51,3.64,3.64,0,0,1,.71-.32A3.57,3.57,0,0,1,184.65,407.49Z"/><path class="cls-28" d="M230.24,465.47a4.77,4.77,0,1,1-3.8-5.57A4.78,4.78,0,0,1,230.24,465.47Z"/><path class="cls-28" d="M223.09,450.32c-3.7-9.49-9.92-20.24-15.48-5,0,0-18.38,3.67,3.37,16.72-10.16.59-22.3,3.18-9.56,13.17,0,0-2.19,18.62,16.94,2-2.58,9.85-3.87,22.2,9.57,13.17,0,0,17,7.82,7.1-15.52,8.57,5.5,19.92,10.55,15.48-5,0,0,12.71-13.78-12.56-11.54,7.89-6.45,16.18-15.69,0-16.28C238,441.94,228.77,425.59,223.09,450.32Zm12.1-.64a5.87,5.87,0,0,1-.54.25,6.65,6.65,0,0,0-1.28.69,4.73,4.73,0,0,0-.74.57c-.26.2-.44.52-.7.75a9,9,0,0,0-1.18,1.9,15,15,0,0,0-.87,2.14c-.23.71-.47,1.39-.61,2s-.28,1-.37,1.41a6.22,6.22,0,0,1,2.77,6l.38-.15a10.47,10.47,0,0,1,4.73-.49,7.38,7.38,0,0,1,2.52.81,5,5,0,0,1,1,.73,6,6,0,0,1,.74.8,5.64,5.64,0,0,1,.87,2s-.16-.16-.4-.44a6.44,6.44,0,0,0-1-1,5.28,5.28,0,0,0-.78-.52,9.81,9.81,0,0,0-.92-.43,8.85,8.85,0,0,0-2.17-.54,15.12,15.12,0,0,0-2.31-.16c-.75,0-1.47,0-2.08,0l-.67,0a6.17,6.17,0,0,1-5.58,4.65l.17.21a10.69,10.69,0,0,1,1.94,4.35,7.61,7.61,0,0,1,0,2.65,5.18,5.18,0,0,1-.38,1.17,7,7,0,0,1-.54.95,5.52,5.52,0,0,1-1.64,1.45s.11-.21.29-.52a6.14,6.14,0,0,0,.64-1.31,5.78,5.78,0,0,0,.25-.89c.1-.32.06-.68.13-1a9.46,9.46,0,0,0-.16-2.23,16.79,16.79,0,0,0-.55-2.25c-.23-.71-.44-1.39-.68-2-.08-.21-.16-.4-.23-.6a5.12,5.12,0,0,1-.78-.06,6.17,6.17,0,0,1-4.87-4.66,11.79,11.79,0,0,1-.66,1.06,10.78,10.78,0,0,1-3.53,3.19,7.49,7.49,0,0,1-2.53.81,4.6,4.6,0,0,1-1.23,0,6.52,6.52,0,0,1-1.07-.22,4.89,4.89,0,0,1-1.88-1.11l.58.12a6.3,6.3,0,0,0,1.44.2,5.86,5.86,0,0,0,.93,0,8.89,8.89,0,0,0,3.09-1,16.08,16.08,0,0,0,1.95-1.23c.61-.43,1.2-.85,1.67-1.25l1.16-.95a6.07,6.07,0,0,1,2.77-6.19,9,9,0,0,1-1.89-.4,10.54,10.54,0,0,1-4.13-2.38,7.41,7.41,0,0,1-1.55-2.13,4.69,4.69,0,0,1-.38-1.19,6.22,6.22,0,0,1-.13-1.07,5.41,5.41,0,0,1,.47-2.14,4.63,4.63,0,0,1,.08.59,6.14,6.14,0,0,0,.25,1.43,5.9,5.9,0,0,0,.32.88,8,8,0,0,0,.5.89,9.14,9.14,0,0,0,1.43,1.72,17.35,17.35,0,0,0,1.77,1.48c.61.45,1.18.88,1.71,1.21l1.65,1.05a6.13,6.13,0,0,1,4.36-.82,6.21,6.21,0,0,1,1.89.71,10.56,10.56,0,0,1,.88-6,7.61,7.61,0,0,1,1.56-2.14,4.51,4.51,0,0,1,1-.72,5.76,5.76,0,0,1,1-.46A5.27,5.27,0,0,1,235.19,449.68Z"/><path class="cls-28" d="M230.13,243.63a4.77,4.77,0,1,1-3.8-5.56A4.77,4.77,0,0,1,230.13,243.63Z"/><path class="cls-28" d="M223,228.49c-3.7-9.49-9.92-20.24-15.48-5,0,0-18.38,3.67,3.38,16.72-10.18.58-22.31,3.18-9.58,13.17,0,0-2.18,18.62,17,2-2.59,9.86-3.87,22.2,9.56,13.18,0,0,17,7.82,7.11-15.52,8.56,5.5,19.91,10.55,15.48-5,0,0,12.71-13.79-12.57-11.55,7.89-6.45,16.18-15.69,0-16.29C237.85,220.1,228.67,203.76,223,228.49Zm12.1-.64s-.2.11-.53.25a6.83,6.83,0,0,0-1.29.68,6.24,6.24,0,0,0-.74.58c-.25.19-.44.52-.7.75a9.91,9.91,0,0,0-1.18,1.89,16.4,16.4,0,0,0-.87,2.15c-.23.71-.47,1.39-.61,2s-.28,1.05-.37,1.4a6.19,6.19,0,0,1,2.77,6l.38-.15a10.53,10.53,0,0,1,4.74-.49,7.19,7.19,0,0,1,2.51.81,4.44,4.44,0,0,1,1,.73,6,6,0,0,1,.74.8,5.28,5.28,0,0,1,.87,2s-.16-.15-.4-.43a6.44,6.44,0,0,0-1.05-1,4.93,4.93,0,0,0-.77-.52c-.28-.2-.63-.26-.94-.44a9.11,9.11,0,0,0-2.16-.53,16.54,16.54,0,0,0-2.31-.17c-.74,0-1.46,0-2.08,0l-.66,0a6.19,6.19,0,0,1-5.59,4.65,1.12,1.12,0,0,1,.17.21,10.5,10.5,0,0,1,1.94,4.35,7.37,7.37,0,0,1,0,2.65,4.28,4.28,0,0,1-.39,1.16,5.75,5.75,0,0,1-.53,1,5.57,5.57,0,0,1-1.63,1.45s.1-.2.28-.52a5.7,5.7,0,0,0,.64-1.31,4.73,4.73,0,0,0,.25-.9c.1-.31.06-.67.13-1a9,9,0,0,0-.16-2.23,15.1,15.1,0,0,0-.56-2.25c-.22-.71-.43-1.4-.67-2-.09-.21-.16-.41-.23-.6a5.12,5.12,0,0,1-.78-.06,6.22,6.22,0,0,1-4.88-4.66,11.05,11.05,0,0,1-.64,1.06,10.93,10.93,0,0,1-3.54,3.19,7.44,7.44,0,0,1-2.52.81,4.28,4.28,0,0,1-1.24,0,4.74,4.74,0,0,1-1.06-.21,4.89,4.89,0,0,1-1.88-1.11l.58.12a6.21,6.21,0,0,0,1.44.2,5.93,5.93,0,0,0,.93,0c.33,0,.66-.16,1-.19a10,10,0,0,0,2.07-.84,17,17,0,0,0,2-1.23c.6-.44,1.2-.85,1.66-1.25l1.17-1a6,6,0,0,1,0-2.12,6.16,6.16,0,0,1,2.76-4.06,8.42,8.42,0,0,1-1.89-.4,10.61,10.61,0,0,1-4.13-2.38,7.37,7.37,0,0,1-1.55-2.14,5,5,0,0,1-.38-1.17,5.5,5.5,0,0,1-.12-1.09,4.94,4.94,0,0,1,.47-2.13s0,.22.07.59a6.23,6.23,0,0,0,.25,1.43,4.34,4.34,0,0,0,.33.88,8.83,8.83,0,0,0,.49.89,9.2,9.2,0,0,0,1.44,1.72,17.57,17.57,0,0,0,1.76,1.49c.61.43,1.19.87,1.71,1.19l1.66,1.06a6.17,6.17,0,0,1,4.36-.83,6.42,6.42,0,0,1,1.88.71,9,9,0,0,1-.1-1.33,10.62,10.62,0,0,1,1-4.66,7.66,7.66,0,0,1,1.56-2.15,6,6,0,0,1,1-.72,5.75,5.75,0,0,1,1-.45A5,5,0,0,1,235.08,227.85Z"/><path class="cls-28" d="M249.87,397.69a3.45,3.45,0,1,1-2.76-4A3.48,3.48,0,0,1,249.87,397.69Z"/><path class="cls-28" d="M244.68,386.73c-2.68-6.89-7.18-14.67-11.21-3.65,0,0-13.32,2.66,2.45,12.11-7.37.43-16.17,2.31-6.94,9.54,0,0-1.58,13.49,12.28,1.42-1.87,7.14-2.8,16.08,6.93,9.55,0,0,12.34,5.66,5.15-11.25,6.21,4,14.43,7.64,11.21-3.64,0,0,9.21-10-9.1-8.37,5.72-4.67,11.72-11.36,0-11.79C255.45,380.65,248.8,368.81,244.68,386.73Zm8.77-.47a3.44,3.44,0,0,1-.39.18,4.59,4.59,0,0,0-.93.5,4.73,4.73,0,0,0-.53.41c-.19.14-.32.38-.51.55a6.09,6.09,0,0,0-.85,1.37,10.79,10.79,0,0,0-.64,1.55c-.16.52-.34,1-.44,1.45l-.27,1a4.46,4.46,0,0,1,2,4.37,1.82,1.82,0,0,1,.28-.11,7.66,7.66,0,0,1,3.43-.36,5.33,5.33,0,0,1,1.82.59,3.05,3.05,0,0,1,.72.53,4.09,4.09,0,0,1,.54.58,3.68,3.68,0,0,1,.63,1.45A3.23,3.23,0,0,1,258,400a4.13,4.13,0,0,0-.76-.72,3,3,0,0,0-.57-.38c-.19-.14-.45-.19-.67-.32a6.45,6.45,0,0,0-1.57-.39,13.4,13.4,0,0,0-1.67-.12c-.54,0-1.06,0-1.51,0l-.48,0a4.47,4.47,0,0,1-4,3.36l.12.16a7.79,7.79,0,0,1,1.41,3.15,5.56,5.56,0,0,1,0,1.91,3.53,3.53,0,0,1-.27.85,4.85,4.85,0,0,1-.39.69,3.7,3.7,0,0,1-1.19,1.05l.21-.37a4.11,4.11,0,0,0,.46-.94,4.58,4.58,0,0,0,.19-.66c.07-.22,0-.49.09-.74a6.38,6.38,0,0,0-.12-1.61,10,10,0,0,0-.4-1.63,14.58,14.58,0,0,0-.49-1.42c-.06-.16-.11-.3-.17-.44a3.88,3.88,0,0,1-.57-.05,4.48,4.48,0,0,1-3.52-3.37,7,7,0,0,1-.47.77,7.72,7.72,0,0,1-2.57,2.31,5.25,5.25,0,0,1-1.82.59,3.86,3.86,0,0,1-.9,0,3.5,3.5,0,0,1-.77-.15,4,4,0,0,1-1.37-.8s.17,0,.43.08a5,5,0,0,0,1,.14,3.92,3.92,0,0,0,.68,0,6.68,6.68,0,0,0,.73-.14,7.28,7.28,0,0,0,1.5-.61,10.92,10.92,0,0,0,1.42-.89c.44-.31.86-.61,1.2-.89l.85-.7a4.2,4.2,0,0,1,0-1.54,4.5,4.5,0,0,1,2-3,6.43,6.43,0,0,1-1.37-.28,7.7,7.7,0,0,1-3-1.73,5.16,5.16,0,0,1-1.12-1.55,3,3,0,0,1-.28-.85,4.56,4.56,0,0,1-.09-.79,3.92,3.92,0,0,1,.34-1.54,4.31,4.31,0,0,1,0,.43,5.08,5.08,0,0,0,.19,1,3.28,3.28,0,0,0,.23.64c.08.23.26.42.36.65a6.29,6.29,0,0,0,1,1.24,10.86,10.86,0,0,0,1.29,1.08c.43.32.85.63,1.23.87l1.19.76a4.51,4.51,0,0,1,3.17-.59,4.45,4.45,0,0,1,1.36.51,9.67,9.67,0,0,1-.08-1,7.85,7.85,0,0,1,.73-3.37,5.49,5.49,0,0,1,1.12-1.56,4.2,4.2,0,0,1,.73-.51,3.86,3.86,0,0,1,.72-.34A3.71,3.71,0,0,1,253.45,386.26Z"/><path class="cls-28" d="M27.11,343.8a3,3,0,1,1-2.42-3.53A3,3,0,0,1,27.11,343.8Z"/><path class="cls-28" d="M22.57,334.19c-2.35-6-6.29-12.85-9.83-3.2,0,0-11.66,2.33,2.15,10.62-6.46.37-14.16,2-6.08,8.36,0,0-1.38,11.81,10.76,1.23-1.64,6.26-2.46,14.1,6.07,8.37,0,0,10.82,5,4.51-9.85,5.44,3.49,12.64,6.69,9.83-3.19,0,0,8.07-8.75-8-7.33,5-4.1,10.27-10,0-10.34C32,328.86,26.18,318.49,22.57,334.19Zm7.69-.41-.35.16a3.82,3.82,0,0,0-.81.43,3.18,3.18,0,0,0-.47.37c-.16.12-.28.33-.45.48a6,6,0,0,0-.75,1.2,9.92,9.92,0,0,0-.55,1.36c-.15.45-.29.88-.38,1.26s-.18.67-.24.89A3.94,3.94,0,0,1,28,343.77l.24-.1a6.74,6.74,0,0,1,3-.31,4.42,4.42,0,0,1,1.6.51,4.25,4.25,0,0,1,.63.46,3.58,3.58,0,0,1,.46.52,3.31,3.31,0,0,1,.56,1.27s-.1-.1-.25-.28a5.29,5.29,0,0,0-.67-.64,3.94,3.94,0,0,0-.5-.33c-.17-.12-.39-.17-.58-.28a6.11,6.11,0,0,0-1.37-.34,9.24,9.24,0,0,0-1.47-.1c-.49,0-.94,0-1.32,0-.16,0-.29,0-.43,0a3.91,3.91,0,0,1-3.54,2.94l.1.14A6.72,6.72,0,0,1,25.73,350a4.74,4.74,0,0,1,0,1.68,2.92,2.92,0,0,1-.24.74,3.89,3.89,0,0,1-.34.61,3.43,3.43,0,0,1-1,.92l.18-.33a4,4,0,0,0,.41-.83,3.85,3.85,0,0,0,.17-.57,6.47,6.47,0,0,0,.07-.65,5.68,5.68,0,0,0-.1-1.41,9.63,9.63,0,0,0-.35-1.43c-.14-.44-.27-.88-.43-1.25-.05-.13-.11-.26-.15-.38a4,4,0,0,1-.49,0,3.93,3.93,0,0,1-3.09-3,5.76,5.76,0,0,1-.42.67,6.78,6.78,0,0,1-2.24,2,4.54,4.54,0,0,1-1.61.52,4.19,4.19,0,0,1-1.46-.14,3.1,3.1,0,0,1-1.19-.71,3.71,3.71,0,0,1,.37.08,4,4,0,0,0,.92.12,2.38,2.38,0,0,0,.59,0,5.12,5.12,0,0,0,.64-.12,6,6,0,0,0,1.31-.53,9,9,0,0,0,1.24-.78c.39-.28.77-.54,1.06-.79l.74-.61a3.61,3.61,0,0,1,0-1.35A3.87,3.87,0,0,1,22,339.94a6.53,6.53,0,0,1-1.19-.26,6.72,6.72,0,0,1-2.62-1.51,4.61,4.61,0,0,1-1-1.35,3.3,3.3,0,0,1-.25-.75,4.36,4.36,0,0,1-.07-.69,3.18,3.18,0,0,1,.3-1.35s0,.14,0,.37a5.16,5.16,0,0,0,.17.91,3.34,3.34,0,0,0,.2.55c.07.2.23.37.31.58a5.74,5.74,0,0,0,.92,1.08,10.05,10.05,0,0,0,1.12,1c.38.28.75.55,1.09.76l1,.67a3.85,3.85,0,0,1,2.77-.52,3.77,3.77,0,0,1,1.2.45A4.93,4.93,0,0,1,26,339a6.73,6.73,0,0,1,.63-3,4.67,4.67,0,0,1,1-1.36,2.92,2.92,0,0,1,.63-.45,3.56,3.56,0,0,1,.63-.3A3.44,3.44,0,0,1,30.26,333.78Z"/><path class="cls-28" d="M73.19,337a3.77,3.77,0,1,1-3-4.4A3.77,3.77,0,0,1,73.19,337Z"/><path class="cls-28" d="M67.53,325.05c-2.92-7.51-7.83-16-12.24-4,0,0-14.53,2.92,2.68,13.24-8,.46-17.65,2.52-7.58,10.41,0,0-1.72,14.72,13.41,1.55-2,7.79-3.06,17.56,7.57,10.42,0,0,13.47,6.18,5.61-12.28,6.79,4.36,15.75,8.34,12.25-4,0,0,10-10.9-9.94-9.13,6.23-5.11,12.79-12.41,0-12.88C79.3,318.41,72,305.48,67.53,325.05Zm9.57-.52a4.26,4.26,0,0,1-.42.21,5,5,0,0,0-1,.53,4.87,4.87,0,0,0-.58.46c-.21.16-.35.41-.56.6a6.56,6.56,0,0,0-.93,1.5,10.17,10.17,0,0,0-.69,1.69,14.44,14.44,0,0,0-.48,1.58c-.12.45-.23.82-.3,1.11A4.88,4.88,0,0,1,74.32,337l.31-.12a8.41,8.41,0,0,1,3.74-.39,5.55,5.55,0,0,1,2,.64,3.5,3.5,0,0,1,.8.58,4.15,4.15,0,0,1,.58.63,4.1,4.1,0,0,1,.69,1.59s-.12-.12-.31-.35a5.52,5.52,0,0,0-.84-.8,5,5,0,0,0-.61-.4,5.47,5.47,0,0,0-.73-.35,7.6,7.6,0,0,0-1.72-.43,12.46,12.46,0,0,0-1.82-.12c-.59,0-1.16,0-1.65,0-.19,0-.36,0-.52,0a4.9,4.9,0,0,1-4.42,3.67c0,.06.09.1.14.17a8.5,8.5,0,0,1,1.53,3.44,5.65,5.65,0,0,1,0,2.09,3.89,3.89,0,0,1-.29.93,4.78,4.78,0,0,1-.43.75,4.07,4.07,0,0,1-1.29,1.14l.22-.4a5.17,5.17,0,0,0,.51-1,4.91,4.91,0,0,0,.2-.71c.08-.25,0-.54.1-.81a7,7,0,0,0-.13-1.76,11.56,11.56,0,0,0-.43-1.78c-.18-.56-.35-1.11-.54-1.56-.06-.17-.13-.33-.18-.48a3.23,3.23,0,0,1-.62,0,4.91,4.91,0,0,1-3.85-3.69,6.68,6.68,0,0,1-.52.83,8.31,8.31,0,0,1-2.8,2.53,5.54,5.54,0,0,1-2,.64,4.7,4.7,0,0,1-1,0,4.76,4.76,0,0,1-.84-.18,4.36,4.36,0,0,1-1.49-.87,3.86,3.86,0,0,1,.46.09,5.09,5.09,0,0,0,1.14.16,6.36,6.36,0,0,0,.74,0c.26,0,.52-.13.79-.15a7.36,7.36,0,0,0,1.64-.67,12.63,12.63,0,0,0,1.55-1c.48-.36,1-.68,1.32-1l.92-.76a4.74,4.74,0,0,1,0-1.68,4.9,4.9,0,0,1,2.19-3.21A8.29,8.29,0,0,1,62.1,330a5.94,5.94,0,0,1-1.24-1.69,4.32,4.32,0,0,1-.29-.93,4.55,4.55,0,0,1-.1-.86,3.73,3.73,0,0,1,.38-1.68s0,.17,0,.46a4.81,4.81,0,0,0,.2,1.13,5.25,5.25,0,0,0,.25.69c.09.25.28.47.39.72a7.93,7.93,0,0,0,1.14,1.35,15.61,15.61,0,0,0,1.4,1.18c.48.34.93.69,1.35.94l1.31.84a4.88,4.88,0,0,1,3.45-.65,4.94,4.94,0,0,1,1.49.56A7.26,7.26,0,0,1,71.8,331a8.38,8.38,0,0,1,.78-3.7,5.88,5.88,0,0,1,1.23-1.68,3.81,3.81,0,0,1,.79-.58,3.9,3.9,0,0,1,.79-.36A4.45,4.45,0,0,1,77.1,324.53Z"/><path class="cls-28" d="M146.2,22.18a3.67,3.67,0,1,1-2.92-4.28A3.67,3.67,0,0,1,146.2,22.18Z"/><path class="cls-28" d="M140.7,10.53C137.85,3.22,133.07-5,128.79,6.65c0,0-14.15,2.83,2.6,12.88C123.56,20,114.22,22,124,29.66c0,0-1.68,14.33,13,1.51-2,7.58-3,17.09,7.37,10.14,0,0,13.11,6,5.46-12,6.6,4.23,15.33,8.12,11.92-3.87,0,0,9.79-10.6-9.67-8.88,6.07-5,12.45-12.08,0-12.53C152.14,4.08,145.08-8.5,140.7,10.53ZM150,10s-.15.08-.41.19a4.92,4.92,0,0,0-1,.53,3.18,3.18,0,0,0-.56.44,7.68,7.68,0,0,0-.54.58,7.27,7.27,0,0,0-.91,1.45,12.15,12.15,0,0,0-.67,1.65c-.18.55-.36,1.07-.47,1.54l-.29,1.08a4.74,4.74,0,0,1,2.13,4.64c.11,0,.19-.08.3-.11a8,8,0,0,1,3.65-.38,5.62,5.62,0,0,1,1.93.63,4.09,4.09,0,0,1,.77.55,5.28,5.28,0,0,1,.57.62,4.13,4.13,0,0,1,.67,1.54l-.31-.33a4.71,4.71,0,0,0-.81-.77,3,3,0,0,0-.6-.41c-.2-.14-.47-.2-.71-.33a7.3,7.3,0,0,0-1.67-.42,13.38,13.38,0,0,0-1.77-.12c-.58,0-1.13,0-1.61,0l-.5,0a4.77,4.77,0,0,1-4.3,3.57l.13.17a8.12,8.12,0,0,1,1.48,3.35,5.54,5.54,0,0,1,0,2,4.14,4.14,0,0,1-.3.9,4.32,4.32,0,0,1-.41.74,4.18,4.18,0,0,1-1.26,1.11l.22-.4a4.22,4.22,0,0,0,.49-1,3.79,3.79,0,0,0,.2-.7c.08-.24,0-.52.1-.78a7.2,7.2,0,0,0-.13-1.71,10.67,10.67,0,0,0-.43-1.73,15.75,15.75,0,0,0-.52-1.52c-.06-.16-.12-.31-.17-.46a4,4,0,0,1-.6,0A4.75,4.75,0,0,1,138,22.6a9.6,9.6,0,0,1-.5.82,8.39,8.39,0,0,1-2.73,2.46,5.65,5.65,0,0,1-1.94.62,3.77,3.77,0,0,1-1,0,4.74,4.74,0,0,1-.82-.17,4,4,0,0,1-1.45-.85,4,4,0,0,1,.45.09,4.87,4.87,0,0,0,1.11.15,4.42,4.42,0,0,0,.72,0c.25,0,.5-.12.77-.15a7.47,7.47,0,0,0,1.6-.65,11.47,11.47,0,0,0,1.5-.94c.48-.34.93-.65,1.29-1l.89-.74a4.31,4.31,0,0,1,0-1.64A4.74,4.74,0,0,1,140,17.5a6.76,6.76,0,0,1-1.45-.3,8.26,8.26,0,0,1-3.18-1.83,6,6,0,0,1-1.2-1.65,4.17,4.17,0,0,1-.29-.91,4.26,4.26,0,0,1-.1-.83,4,4,0,0,1,.37-1.65s0,.17.06.46a4.52,4.52,0,0,0,.19,1.1,3.54,3.54,0,0,0,.25.68,5.31,5.31,0,0,0,.38.69,6.44,6.44,0,0,0,1.11,1.31,11.25,11.25,0,0,0,1.35,1.15c.47.34.91.68,1.32.92l1.27.81a4.8,4.8,0,0,1,3.36-.63,5.06,5.06,0,0,1,1.45.55,8.21,8.21,0,0,1-.09-1,8.46,8.46,0,0,1,.77-3.59,5.78,5.78,0,0,1,1.2-1.65,4,4,0,0,1,.77-.55,3.48,3.48,0,0,1,.77-.35A3.85,3.85,0,0,1,150,10Z"/><path class="cls-28" d="M173.33,109.53a3.28,3.28,0,1,1-2.62-3.82A3.29,3.29,0,0,1,173.33,109.53Z"/><path class="cls-28" d="M168.41,99.12c-2.54-6.53-6.82-13.93-10.65-3.46,0,0-12.64,2.52,2.33,11.5-7,.4-15.35,2.19-6.59,9.06,0,0-1.5,12.8,11.66,1.34-1.78,6.78-2.66,15.27,6.58,9.06,0,0,11.72,5.38,4.88-10.68,5.9,3.79,13.71,7.26,10.65-3.45,0,0,8.75-9.48-8.64-7.94,5.42-4.44,11.13-10.79,0-11.2C178.64,93.35,172.33,82.1,168.41,99.12Zm8.32-.44s-.13.07-.37.17a4.86,4.86,0,0,0-.88.47,5.34,5.34,0,0,0-.51.39c-.18.14-.3.36-.48.52a6.78,6.78,0,0,0-.82,1.31,11.56,11.56,0,0,0-.59,1.47c-.16.49-.33.95-.42,1.37s-.19.72-.25,1a4.22,4.22,0,0,1,1.9,4.14,1.39,1.39,0,0,0,.26-.1,7.4,7.4,0,0,1,3.26-.34,5.46,5.46,0,0,1,1.74.56,3.52,3.52,0,0,1,.68.5,4.31,4.31,0,0,1,.51.56,3.85,3.85,0,0,1,.6,1.37s-.12-.11-.28-.29a4.85,4.85,0,0,0-.72-.7,3.48,3.48,0,0,0-.53-.35,4.68,4.68,0,0,0-.64-.3,6.51,6.51,0,0,0-1.49-.38,12.38,12.38,0,0,0-1.59-.11c-.52,0-1,0-1.43,0l-.46,0a4.25,4.25,0,0,1-3.84,3.2,1.58,1.58,0,0,0,.12.15,7.4,7.4,0,0,1,1.33,3,5.3,5.3,0,0,1,0,1.82,3.27,3.27,0,0,1-.27.8,4.07,4.07,0,0,1-.36.66,4.16,4.16,0,0,1-1.12,1,3.51,3.51,0,0,1,.19-.36,5,5,0,0,0,.44-.9,3.74,3.74,0,0,0,.17-.62c.07-.22,0-.47.09-.7a6.17,6.17,0,0,0-.11-1.53,13,13,0,0,0-.38-1.55,13.14,13.14,0,0,0-.47-1.35c0-.15-.11-.28-.16-.42a3.26,3.26,0,0,1-.54,0A4.29,4.29,0,0,1,166,109.9a5.22,5.22,0,0,1-.44.73,7.42,7.42,0,0,1-2.43,2.2,5.07,5.07,0,0,1-1.74.56,4,4,0,0,1-.85,0,4.69,4.69,0,0,1-.73-.15,3.48,3.48,0,0,1-1.3-.76,3.74,3.74,0,0,1,.4.08,4.19,4.19,0,0,0,1,.13,2.71,2.71,0,0,0,.63,0,6.11,6.11,0,0,0,.7-.13,6.61,6.61,0,0,0,1.43-.58,10.79,10.79,0,0,0,1.34-.84c.42-.31.82-.58,1.14-.86l.81-.66a4.15,4.15,0,0,1,1.89-4.25,6.34,6.34,0,0,1-1.29-.27,7.48,7.48,0,0,1-2.84-1.64,5.09,5.09,0,0,1-1.07-1.47,3.8,3.8,0,0,1-.26-.81,4.17,4.17,0,0,1-.08-.75,3.8,3.8,0,0,1,.32-1.47l0,.41a5.25,5.25,0,0,0,.17,1,3.82,3.82,0,0,0,.23.6,6.08,6.08,0,0,0,.33.61,6.46,6.46,0,0,0,1,1.18,13,13,0,0,0,1.22,1c.41.3.81.6,1.17.82l1.14.72a4.15,4.15,0,0,1,4.3-.07,7.07,7.07,0,0,1-.07-.92,7.25,7.25,0,0,1,.68-3.21,5.05,5.05,0,0,1,1.07-1.47,4,4,0,0,1,1.37-.81A3.42,3.42,0,0,1,176.73,98.68Z"/><path class="cls-28" d="M95.32,117a4.41,4.41,0,1,1-3.52-5.14A4.41,4.41,0,0,1,95.32,117Z"/><path class="cls-28" d="M88.71,103c-3.42-8.78-9.16-18.71-14.3-4.66,0,0-17,3.39,3.12,15.46-9.4.53-20.62,2.93-8.85,12.16,0,0-2,17.2,15.67,1.81-2.39,9.1-3.58,20.51,8.84,12.17,0,0,15.73,7.22,6.56-14.34,7.92,5.08,18.4,9.74,14.3-4.65,0,0,11.74-12.73-11.61-10.66,7.29-6,15-14.49,0-15.05C102.45,95.24,94,80.14,88.71,103Zm11.18-.6s-.19.1-.49.23a6.09,6.09,0,0,0-1.19.63,6.29,6.29,0,0,0-.68.53,8.81,8.81,0,0,0-.65.7,8.94,8.94,0,0,0-1.09,1.75,13.9,13.9,0,0,0-.8,2,17.73,17.73,0,0,0-.56,1.84c-.15.53-.26,1-.35,1.3a5.72,5.72,0,0,1,2.56,5.58,3,3,0,0,1,.36-.14,9.63,9.63,0,0,1,4.37-.46,6.52,6.52,0,0,1,2.32.75,4.36,4.36,0,0,1,.92.67,6.6,6.6,0,0,1,.69.74,5.14,5.14,0,0,1,.81,1.86l-.38-.4a6.29,6.29,0,0,0-1-.94,5,5,0,0,0-.72-.48c-.24-.17-.58-.24-.85-.4a9,9,0,0,0-2-.5,17.21,17.21,0,0,0-2.13-.15c-.7,0-1.36,0-1.93,0l-.61,0a5.73,5.73,0,0,1-5.16,4.3l.15.19a9.79,9.79,0,0,1,1.8,4,6.9,6.9,0,0,1,0,2.44A5,5,0,0,1,93,129.6a5.63,5.63,0,0,1-.5.88,5.09,5.09,0,0,1-1.5,1.34s.09-.19.25-.48a5.42,5.42,0,0,0,.6-1.21,5.21,5.21,0,0,0,.24-.82c.09-.3,0-.64.11-.95A8.11,8.11,0,0,0,92,126.3a14.35,14.35,0,0,0-.51-2.08c-.21-.65-.4-1.28-.63-1.81-.07-.21-.14-.38-.21-.56a4.37,4.37,0,0,1-.72-.06,5.7,5.7,0,0,1-4.5-4.31,11.42,11.42,0,0,1-.6,1,9.76,9.76,0,0,1-3.28,3,6.51,6.51,0,0,1-2.32.75,4.35,4.35,0,0,1-1.14,0,5.41,5.41,0,0,1-1-.2,4.8,4.8,0,0,1-1.74-1l.54.1a5.33,5.33,0,0,0,1.33.19,4.2,4.2,0,0,0,.86,0A8.6,8.6,0,0,0,79,121a9.79,9.79,0,0,0,1.91-.77,17.33,17.33,0,0,0,1.81-1.14c.56-.41,1.11-.78,1.54-1.15l1.07-.88a5.61,5.61,0,0,1,2.56-5.72,8.35,8.35,0,0,1-1.75-.37,9.8,9.8,0,0,1-3.81-2.2,6.53,6.53,0,0,1-1.44-2,4.91,4.91,0,0,1-.35-1.09,4.69,4.69,0,0,1,.32-3s0,.2.07.54a6.2,6.2,0,0,0,.23,1.32,5.14,5.14,0,0,0,.3.82,8.45,8.45,0,0,0,.46.82,8.84,8.84,0,0,0,1.32,1.59,16,16,0,0,0,1.63,1.37c.57.41,1.1.81,1.58,1.1l1.53,1a5.74,5.74,0,0,1,4-.76,5.81,5.81,0,0,1,1.73.66c0-.32-.08-.74-.1-1.24a10.14,10.14,0,0,1,.92-4.3,6.81,6.81,0,0,1,1.44-2A4.21,4.21,0,0,1,97,103a4.64,4.64,0,0,1,.92-.42A4.59,4.59,0,0,1,99.89,102.4Z"/><path class="cls-28" d="M145,252.12a3.67,3.67,0,1,1-2.92-4.28A3.67,3.67,0,0,1,145,252.12Z"/><path class="cls-28" d="M139.53,240.47c-2.85-7.31-7.64-15.58-11.93-3.88,0,0-14.14,2.83,2.61,12.88-7.83.45-17.17,2.45-7.37,10.13,0,0-1.68,14.33,13,1.51-2,7.58-3,17.08,7.36,10.13,0,0,13.11,6,5.47-11.94,6.6,4.23,15.33,8.11,11.92-3.87,0,0,9.78-10.61-9.68-8.89,6.07-5,12.46-12.07,0-12.53C151,234,143.9,221.43,139.53,240.47Zm9.31-.5-.41.19a5.18,5.18,0,0,0-1,.53,3.74,3.74,0,0,0-.57.45c-.19.14-.34.39-.54.57a7.35,7.35,0,0,0-.91,1.46,12.08,12.08,0,0,0-.66,1.65c-.18.55-.37,1.07-.47,1.53s-.22.81-.29,1.09a4.75,4.75,0,0,1,2.13,4.64c.1,0,.18-.08.29-.12a8.2,8.2,0,0,1,3.65-.37,5.59,5.59,0,0,1,1.94.62,4,4,0,0,1,.77.56,5.23,5.23,0,0,1,.56.62,3.93,3.93,0,0,1,.67,1.54l-.31-.33a5,5,0,0,0-.8-.78,4.47,4.47,0,0,0-.6-.4,7.7,7.7,0,0,0-.71-.33,7.43,7.43,0,0,0-1.67-.42,11.88,11.88,0,0,0-1.77-.12c-.59,0-1.14,0-1.61,0l-.51,0a4.76,4.76,0,0,1-4.3,3.58l.13.16a8.24,8.24,0,0,1,1.49,3.35,5.6,5.6,0,0,1,0,2,3.66,3.66,0,0,1-.3.9,3.87,3.87,0,0,1-.41.73,4.23,4.23,0,0,1-1.25,1.12,3.46,3.46,0,0,1,.22-.4,5.62,5.62,0,0,0,.49-1,4.32,4.32,0,0,0,.19-.69c.08-.24.05-.52.11-.78a7.72,7.72,0,0,0-.13-1.71,12.29,12.29,0,0,0-.43-1.74c-.18-.54-.34-1.07-.52-1.51-.07-.17-.12-.31-.18-.47a3.08,3.08,0,0,1-.6,0,4.78,4.78,0,0,1-3.75-3.6,8.68,8.68,0,0,1-.5.83,8.17,8.17,0,0,1-2.73,2.45,5.61,5.61,0,0,1-1.93.63,4.29,4.29,0,0,1-.95,0,4.07,4.07,0,0,1-.83-.16,4.26,4.26,0,0,1-1.45-.85,3.55,3.55,0,0,1,.45.09,4.87,4.87,0,0,0,1.11.15,3.53,3.53,0,0,0,.72,0,6,6,0,0,0,2.37-.79,10,10,0,0,0,1.5-1,15.51,15.51,0,0,0,1.29-.95l.89-.74a4.68,4.68,0,0,1,2.13-4.76,7.25,7.25,0,0,1-1.45-.31,8.13,8.13,0,0,1-3.18-1.83,5.65,5.65,0,0,1-1.19-1.65,4,4,0,0,1-.3-.9,5.12,5.12,0,0,1-.09-.84,4.09,4.09,0,0,1,.36-1.64s0,.17.05.46a5.18,5.18,0,0,0,.2,1.1,3.94,3.94,0,0,0,.25.67,7.87,7.87,0,0,0,.38.69,6.49,6.49,0,0,0,1.11,1.32,11.34,11.34,0,0,0,1.36,1.15c.47.34.9.67,1.31.92l1.27.81a4.75,4.75,0,0,1,3.36-.63,4.94,4.94,0,0,1,1.45.54,6.69,6.69,0,0,1-.08-1,8.29,8.29,0,0,1,.76-3.59,5.7,5.7,0,0,1,1.2-1.65,3.53,3.53,0,0,1,.77-.55,3.77,3.77,0,0,1,.77-.36A4.1,4.1,0,0,1,148.84,240Z"/><path class="cls-28" d="M20.47,157.67a2.84,2.84,0,1,1-2.26-3.32A2.84,2.84,0,0,1,20.47,157.67Z"/><path class="cls-28" d="M16.21,148.63C14,143,10.29,136.55,7,145.62c0,0-11,2.2,2,10-6.08.35-13.32,1.9-5.72,7.86,0,0-1.3,11.11,10.12,1.17-1.55,5.88-2.31,13.25,5.71,7.86,0,0,10.17,4.67,4.23-9.26,5.12,3.28,11.9,6.29,9.25-3,0,0,7.59-8.23-7.5-6.9,4.71-3.85,9.66-9.36,0-9.72C25.08,143.62,19.6,133.87,16.21,148.63Zm7.22-.38-.32.15a3.46,3.46,0,0,0-.77.41,2.6,2.6,0,0,0-.43.33c-.16.13-.27.32-.42.45a6.46,6.46,0,0,0-.71,1.14,11.31,11.31,0,0,0-.52,1.27c-.14.43-.28.84-.36,1.2s-.17.62-.23.84a3.65,3.65,0,0,1,1.66,3.6l.23-.1a6.27,6.27,0,0,1,2.83-.28,4.33,4.33,0,0,1,1.5.48,3,3,0,0,1,.59.43,4.86,4.86,0,0,1,.45.48,3.42,3.42,0,0,1,.52,1.2l-.25-.26a4,4,0,0,0-.62-.6,2.73,2.73,0,0,0-.47-.31,4,4,0,0,0-.55-.26,5.81,5.81,0,0,0-1.29-.33,10.89,10.89,0,0,0-1.38-.09c-.45,0-.87,0-1.24,0l-.4,0a3.67,3.67,0,0,1-3.33,2.78l.1.13a6.34,6.34,0,0,1,1.16,2.59,4.41,4.41,0,0,1,0,1.58,3.59,3.59,0,0,1-.23.7,3.31,3.31,0,0,1-.33.56,3,3,0,0,1-1,.87s.05-.11.16-.31a3.43,3.43,0,0,0,.38-.77,4.26,4.26,0,0,0,.16-.54,6,6,0,0,0,.07-.61,5.54,5.54,0,0,0-.1-1.33,8.74,8.74,0,0,0-.33-1.34c-.13-.43-.26-.84-.4-1.18-.06-.13-.09-.24-.14-.35a3.57,3.57,0,0,1-.46,0A3.71,3.71,0,0,1,14.09,158a5.48,5.48,0,0,1-.39.63,6.45,6.45,0,0,1-2.12,1.91,4.29,4.29,0,0,1-1.49.49,2.68,2.68,0,0,1-.75,0,2.79,2.79,0,0,1-1.75-.78l.34.07a4.21,4.21,0,0,0,.86.11,2.56,2.56,0,0,0,.55,0,4.62,4.62,0,0,0,.61-.11,6.08,6.08,0,0,0,1.24-.5,11.51,11.51,0,0,0,1.17-.73c.36-.26.71-.51,1-.75l.69-.57a3.39,3.39,0,0,1,0-1.27A3.64,3.64,0,0,1,15.69,154a5.35,5.35,0,0,1-1.12-.24,6.52,6.52,0,0,1-2.47-1.42,4.25,4.25,0,0,1-.92-1.28,2.39,2.39,0,0,1-.23-.7,3,3,0,0,1-.08-.64,3.22,3.22,0,0,1,.29-1.28s0,.13,0,.35a4.32,4.32,0,0,0,.15.86,3.07,3.07,0,0,0,.2.52,3.84,3.84,0,0,0,.28.53,5.54,5.54,0,0,0,.86,1,11,11,0,0,0,1.06.9c.36.26.7.52,1,.71l1,.64a3.64,3.64,0,0,1,2.6-.5,3.94,3.94,0,0,1,1.12.42,7.69,7.69,0,0,1-.05-.79,6.49,6.49,0,0,1,.58-2.79,4.72,4.72,0,0,1,.93-1.28,4.12,4.12,0,0,1,.6-.43,3.86,3.86,0,0,1,.6-.27A3.26,3.26,0,0,1,23.43,148.25Z"/><path class="cls-28" d="M254.44,150.7a3.67,3.67,0,1,1-2.93-4.28A3.68,3.68,0,0,1,254.44,150.7Z"/><path class="cls-28" d="M248.93,139.06c-2.84-7.32-7.62-15.59-11.91-3.88,0,0-14.15,2.82,2.6,12.87-7.83.45-17.17,2.45-7.37,10.14,0,0-1.68,14.32,13.05,1.5-2,7.58-3,17.08,7.36,10.14,0,0,13.11,6,5.46-11.94,6.61,4.23,15.34,8.11,11.93-3.87,0,0,9.78-10.61-9.68-8.89,6.07-5,12.46-12.08,0-12.54C260.38,132.59,253.31,120,248.93,139.06Zm9.32-.5-.41.19a4.67,4.67,0,0,0-1,.53,3.23,3.23,0,0,0-.57.44,7.68,7.68,0,0,0-.54.58,6.85,6.85,0,0,0-.91,1.45,12.08,12.08,0,0,0-.66,1.65c-.18.55-.37,1.08-.48,1.54s-.21.81-.28,1.08a4.76,4.76,0,0,1,2.13,4.64l.29-.11a8.19,8.19,0,0,1,3.65-.38,5.6,5.6,0,0,1,1.94.63,3.12,3.12,0,0,1,.76.56,3.61,3.61,0,0,1,.57.62,3.81,3.81,0,0,1,.67,1.54s-.12-.12-.31-.34a5.12,5.12,0,0,0-.81-.78,4.64,4.64,0,0,0-.59-.39,6,6,0,0,0-.72-.34,6.7,6.7,0,0,0-1.67-.41,11.71,11.71,0,0,0-1.77-.13c-.57,0-1.13,0-1.6,0l-.51,0a4.76,4.76,0,0,1-4.3,3.58l.13.16a8.12,8.12,0,0,1,1.49,3.35,5.54,5.54,0,0,1,0,2,4,4,0,0,1-.29.9,4.64,4.64,0,0,1-.41.74,4.18,4.18,0,0,1-1.26,1.11s.07-.15.22-.4a5.48,5.48,0,0,0,.49-1,4.45,4.45,0,0,0,.19-.7,6.39,6.39,0,0,0,.1-.78,7.18,7.18,0,0,0-.12-1.71,12.15,12.15,0,0,0-.43-1.73c-.18-.55-.34-1.08-.52-1.51-.06-.17-.12-.32-.18-.47a4,4,0,0,1-.6,0,4.77,4.77,0,0,1-3.75-3.59,7.57,7.57,0,0,1-.5.82A8.19,8.19,0,0,1,243,154.4,5.82,5.82,0,0,1,241,155a3.77,3.77,0,0,1-.95,0,4.67,4.67,0,0,1-.83-.17,3.69,3.69,0,0,1-1.44-.85,3.64,3.64,0,0,1,.44.09,4.43,4.43,0,0,0,1.11.15,3.52,3.52,0,0,0,.72,0c.25,0,.51-.12.77-.15a7,7,0,0,0,1.6-.65,11.59,11.59,0,0,0,1.51-.94c.47-.34.92-.65,1.28-1s.68-.56.9-.73a4.57,4.57,0,0,1,0-1.65,4.74,4.74,0,0,1,2.12-3.12,7,7,0,0,1-1.45-.3,8.26,8.26,0,0,1-3.18-1.83,6,6,0,0,1-1.2-1.65,4.12,4.12,0,0,1-.28-.91,3.62,3.62,0,0,1-.1-.84,3.94,3.94,0,0,1,.36-1.63,2.87,2.87,0,0,1,.06.45,4.53,4.53,0,0,0,.2,1.1,3.48,3.48,0,0,0,.24.68c.08.23.27.45.38.69a6.71,6.71,0,0,0,1.1,1.31,12.27,12.27,0,0,0,1.37,1.15c.46.34.91.67,1.31.92l1.27.82a4.75,4.75,0,0,1,3.36-.64,4.69,4.69,0,0,1,1.45.55,8.48,8.48,0,0,1-.08-1,8.17,8.17,0,0,1,.77-3.59,5.76,5.76,0,0,1,1.19-1.64,4,4,0,0,1,.77-.56,4.3,4.3,0,0,1,.77-.35A3.89,3.89,0,0,1,258.25,138.56Z"/></g></g></g></svg>