<svg xmlns="http://www.w3.org/2000/svg" xmlns:xlink="http://www.w3.org/1999/xlink" viewBox="0 0 169.31 447"><defs><style>.cls-1{isolation:isolate;}.cls-2{fill:url(#linear-gradient);}.cls-3{fill:url(#linear-gradient-2);}.cls-4{fill:url(#linear-gradient-3);}.cls-5{fill:url(#linear-gradient-4);}.cls-6{fill:url(#linear-gradient-5);}.cls-7{fill:url(#linear-gradient-6);}.cls-8{fill:url(#linear-gradient-7);}.cls-9{fill:url(#linear-gradient-8);}.cls-10{fill:url(#linear-gradient-9);}.cls-11{fill:url(#linear-gradient-10);}.cls-12{fill:url(#linear-gradient-11);}.cls-13{fill:url(#linear-gradient-12);}.cls-14{fill:url(#linear-gradient-13);}.cls-15{fill:url(#linear-gradient-14);}.cls-16{fill:url(#linear-gradient-15);}.cls-17{fill:url(#linear-gradient-16);}.cls-18{fill:url(#linear-gradient-17);}.cls-19{fill:url(#linear-gradient-18);}.cls-20{fill:url(#linear-gradient-19);}.cls-21{fill:url(#linear-gradient-20);}.cls-22{fill:url(#linear-gradient-21);}.cls-23{fill:url(#linear-gradient-22);}.cls-24{fill:url(#linear-gradient-23);}.cls-25{fill:url(#linear-gradient-24);}.cls-26{fill:url(#linear-gradient-25);}.cls-27{mix-blend-mode:soft-light;}.cls-28{fill:url(#New_Gradient_Swatch_1);}</style><linearGradient id="linear-gradient" x1="18.12" y1="234.2" x2="169.79" y2="234.2" gradientTransform="translate(-27.38 12.15) rotate(-7.09)" gradientUnits="userSpaceOnUse"><stop offset="0" stop-color="#ffed4a"/><stop offset="0.5" stop-color="#ffed4a"/><stop offset="0.97" stop-color="#ffed4a"/></linearGradient><linearGradient id="linear-gradient-2" x1="-6047.28" y1="-3542.78" x2="-6043.23" y2="-3542.78" gradientTransform="matrix(-0.05, 1, -1, -0.05, -3795.18, 6114.92)" xlink:href="#linear-gradient"/><linearGradient id="linear-gradient-3" x1="39.36" y1="257.01" x2="63.69" y2="257.01" xlink:href="#linear-gradient"/><linearGradient id="linear-gradient-4" x1="-6012.68" y1="-3523.79" x2="-6006.99" y2="-3523.79" gradientTransform="matrix(-0.05, 1, -1, -0.05, -3795.18, 6114.92)" xlink:href="#linear-gradient"/><linearGradient id="linear-gradient-5" x1="9.66" y1="288.61" x2="43.82" y2="288.61" xlink:href="#linear-gradient"/><linearGradient id="linear-gradient-6" x1="-6150.03" y1="-3511.19" x2="-6144.36" y2="-3511.19" gradientTransform="matrix(-0.05, 1, -1, -0.05, -3795.18, 6114.92)" xlink:href="#linear-gradient"/><linearGradient id="linear-gradient-7" x1="21.22" y1="151.16" x2="55.09" y2="151.16" xlink:href="#linear-gradient"/><linearGradient id="linear-gradient-8" x1="-6046.97" y1="-3499.45" x2="-6042.85" y2="-3499.45" gradientTransform="matrix(-0.05, 1, -1, -0.05, -3795.18, 6114.92)" xlink:href="#linear-gradient"/><linearGradient id="linear-gradient-9" x1="-3.57" y1="249.79" x2="21.18" y2="249.79" xlink:href="#linear-gradient"/><linearGradient id="linear-gradient-10" x1="-6100.4" y1="-3643.25" x2="-6096.81" y2="-3643.25" gradientTransform="matrix(-0.05, 1, -1, -0.05, -3795.18, 6114.92)" xlink:href="#linear-gradient"/><linearGradient id="linear-gradient-11" x1="148.9" y1="221.94" x2="170.21" y2="221.94" xlink:href="#linear-gradient"/><linearGradient id="linear-gradient-12" x1="-6104.78" y1="-3614.38" x2="-6100.44" y2="-3614.38" gradientTransform="matrix(-0.05, 1, -1, -0.05, -3795.18, 6114.92)" xlink:href="#linear-gradient"/><linearGradient id="linear-gradient-13" x1="117.41" y1="212.98" x2="146.05" y2="212.98" xlink:href="#linear-gradient"/><linearGradient id="linear-gradient-14" x1="-6299" y1="-3605.7" x2="-6294.63" y2="-3605.7" gradientTransform="matrix(-0.05, 1, -1, -0.05, -3795.18, 6114.92)" xlink:href="#linear-gradient"/><linearGradient id="linear-gradient-15" x1="144.38" y1="20.18" x2="170.45" y2="20.18" xlink:href="#linear-gradient"/><linearGradient id="linear-gradient-16" x1="-6260.93" y1="-3565.47" x2="-6257.03" y2="-3565.47" gradientTransform="matrix(-0.05, 1, -1, -0.05, -3795.18, 6114.92)" xlink:href="#linear-gradient"/><linearGradient id="linear-gradient-17" x1="99.52" y1="50.42" x2="122.81" y2="50.42" xlink:href="#linear-gradient"/><linearGradient id="linear-gradient-18" x1="-6234.4" y1="-3604.93" x2="-6229.16" y2="-3604.93" gradientTransform="matrix(-0.05, 1, -1, -0.05, -3795.18, 6114.92)" xlink:href="#linear-gradient"/><linearGradient id="linear-gradient-19" x1="129.72" y1="84.08" x2="161.01" y2="84.08" xlink:href="#linear-gradient"/><linearGradient id="linear-gradient-20" x1="-6144.57" y1="-3559.76" x2="-6140.27" y2="-3559.76" gradientTransform="matrix(-0.05, 1, -1, -0.05, -3795.18, 6114.92)" xlink:href="#linear-gradient"/><linearGradient id="linear-gradient-21" x1="72.31" y1="164.08" x2="97.76" y2="164.08" xlink:href="#linear-gradient"/><linearGradient id="linear-gradient-22" x1="-6214.62" y1="-3625.84" x2="-6211.24" y2="-3625.84" gradientTransform="matrix(-0.05, 1, -1, -0.05, -3795.18, 6114.92)" xlink:href="#linear-gradient"/><linearGradient id="linear-gradient-23" x1="152.31" y1="106.39" x2="172.57" y2="106.39" xlink:href="#linear-gradient"/><linearGradient id="linear-gradient-24" x1="-6214.35" y1="-3502.83" x2="-6209.99" y2="-3502.83" gradientTransform="matrix(-0.05, 1, -1, -0.05, -3795.18, 6114.92)" xlink:href="#linear-gradient"/><linearGradient id="linear-gradient-25" x1="28.26" y1="85.58" x2="54" y2="85.58" xlink:href="#linear-gradient"/><linearGradient id="New_Gradient_Swatch_1" x1="-3.57" y1="228.14" x2="172.57" y2="228.14" gradientTransform="translate(-27.38 12.15) rotate(-7.09)" gradientUnits="userSpaceOnUse"><stop offset="0.2" stop-color="#fff"/><stop offset="0.25" stop-color="#353232"/><stop offset="0.31" stop-color="#231f20"/><stop offset="0.7" stop-color="#fff"/><stop offset="0.75"/><stop offset="1"/></linearGradient></defs><title>tree-02</title><g class="cls-1"><g id="Layer_5" data-name="Layer 5"><path class="cls-2" d="M140.42,439c-23.44-4.79-25.2-76.38-26.8-95.57-.35-4.17-6.14-39.34-6.87-47.91,5.2-6.2,9.14-12.16,13.39-18.31,11.26,4.38,20.89,4.71,31.43-1.64-6.47-8.05-19.32-5.05-27.63-3.58,2.51-3.72,8.19-11.21,10-14.53,4.88-8.93,7.82-24.14,11.63-30.49s14-11.62,12.64-15.35S142.91,224,141.38,226.72c-.35.62-3.62,5.73-3.75,7.13-.21-4.63-1.21-8.88-4.28-12.64-7.23,5.94-2.72,18.29-.63,25.37-2.77,6.35-6.35,15.15-10.47,20.16-5.17,6.29-10,9.35-15.69,14.31,1.74-24.83.24-56.24,5.1-80,2-9.79,2.29-17.69,3-27.4,6.7-9.55,11.68-22.84,16.61-33.25,1.53-3.24,1.49-5,2.29-8.14,9.68,1.12,17.44-.87,24.08-8.27C150,119,140,126.15,134,129.9c.07-3.76,1.93-12.49,3.17-15.05,2-4.14,9.59-10.58,8.13-13.09s-10.73,11.62-11.33,13.39c0,0-.41.63-.35.63.26-9.09-1.94-16.13-9.09-22.08-5.07,8.36,3.33,18.81,7.84,25.11-2.79,9.79-4.28,22.26-10,30.36-2.93,4.14-4.37,5.82-7,9.62-3.13-23,1.34-47.65-3.83-68.13-3.57-14.15-5.5-28.26-1.67-42.91,9.9,1.71,18,.07,25.23-7.3-7.82-5.41-18.44,1.85-24.87,5.88,3.75-11,8.28-20.28,15.84-29.64-1.94-1.11,1.2-8.22-5.59-.24s-17.3,28.64-17.54,43a180,180,0,0,0,1.92,29.8c-3.9-8-8.93-13.14-17.79-15.15-.73,9.67,11.38,15.44,18.26,18.83.27,4.57.9,5.63.8,10.78-.38,19.87,3.19,41.94-.09,62.64-.73,4.64-5.15,20.07-6.36,26.56-10.91-5.58-22-6.26-31.34-16-7-7.33-8.7-23.61-11.68-33.7,8.19-3.89,13.41-8.55,15.76-17.39-7.8-1.07-13,7.45-17,12.43,0-2.87-4.18-13.33-4.82-14.55-2-3.86-17.41-25.53-19-22.36s10.55,16.25,13.21,20.58a19,19,0,0,1,1.76,4.31c-7-6.63-14.3-9.84-24-8,3.35,9.18,16.79,9.3,24.51,9.66,2.69,12.07,2.89,23.77,7.44,35.69,1.61,4.22,5.07,9.93,7.58,14.09-10.77-3.46-20.44-3.79-30.58,1.73,7.62,10.18,24.12,5.11,33.91,2.72,9.54,9.26,20.71,16.35,32,23.12a24.92,24.92,0,0,0,0,3.35c3.16,26.5-.45,53.22-1.19,80.26-.35,12.85,1.33,27.22,3.59,40.25A165.22,165.22,0,0,1,85,317.23c-4.46-4-9.22-10.72-13.25-15.62,4.5-8.13,5.61-15.55,1.8-24.15-6.6,3.93-5.3,13.79-5.42,19.73-2.77-5.13-16.53-19.83-19-21.72-4.7-3.57-27.41-16.23-27-12.13s14.16,7.71,21.32,13.45S60.79,300.3,69,309.51c2.74,3.09,10.19,9.29,13.47,12.77-11.09,2.81-18.91,8.23-23.73,18.91,11.25,3.41,20.56-8.74,26.44-16.12,5.12,6.39,9.86,11.95,15.48,18.5.6,8.27.35,34.27.47,39.53.39,17.24-3.92,51.58,5.57,60.85S130.93,438.35,140.42,439Zm-6.87-195.54c-.28-2-.51-4.38-.62-6.38s-.1-4.74,0-6.37.13-1.76.28-3.15a31.34,31.34,0,0,1,.63,3.13,62.28,62.28,0,0,1,.64,6.37,37,37,0,0,1,0,4.71c-.09.85-.66,1.58-.82,2.4A7.06,7.06,0,0,1,133.55,243.43ZM121.92,275.1c1.62-.53,5.88-.59,8.3-.57s6.42,0,8.52.12,2.43.17,4.25.43c-1.85.37-2,.48-4.21.78s-5.83.64-8.55.71-6,0-8.73-.25l-.68-.06a9.15,9.15,0,0,1,.88-1.09Zm14.16-144.41c1.66-.77,4.11-1.8,6-2.47s4.58-1.51,6.17-1.91,1.77-.41,3.15-.67c-1.22.69-1.35.81-2.83,1.52s-4.1,1.84-6,2.5a64.76,64.76,0,0,1-6.3,1.9,25.65,25.65,0,0,1-2.66.47c-.11,0-.07-.1,0-.15C134.5,131.39,135,131.21,136.08,130.69Zm-4.37-15.63c-.82-1.65-1.9-4.06-2.62-5.89s-1.63-4.55-2.07-6.12-.45-1.76-.75-3.13c.72,1.21.84,1.33,1.6,2.8s1.93,4,2.65,5.91a63.37,63.37,0,0,1,2.06,6.25,17,17,0,0,1,.42,2c0,.17-.05.52-.15.36A22.3,22.3,0,0,1,131.71,115.06ZM119.38,44.12c1.81-.59,4.63-1.36,6.21-1.7s1.79-.35,3.16-.56a30.76,30.76,0,0,1-2.87,1.42c-1.48.66-4.21,1.71-6,2.3s-4.7,1.35-6.29,1.66a30.76,30.76,0,0,1-3.14.45c1.26-.62,1.49-.7,3-1.33S117.56,44.7,119.38,44.12Zm-16.32,45.8c-1.48-1.11-3.51-2.78-5-4.11s-3.48-3.33-4.58-4.54-1.19-1.36-2.08-2.46A31.19,31.19,0,0,1,94.1,80.6c1.33,1,3.53,2.73,5,4.09a61.84,61.84,0,0,1,4.63,4.68A16,16,0,0,1,105,91c.1.15.21.51,0,.41A24.39,24.39,0,0,1,103.06,89.92Zm-42.8,46.52C61.62,135,63.7,133.07,65,132s1.4-1.14,2.53-2c-.81,1.17-.85,1.31-1.88,2.62s-2.83,3.42-4.27,4.89a61.33,61.33,0,0,1-4.86,4.5s0,.14-.06,0-.18-.75-.23-1C57.44,139.49,58.89,137.87,60.26,136.44ZM43.59,126c-1.54-.34-4.37-1.08-6.18-1.66s-4.56-1.6-6-2.24-1.67-.75-2.9-1.39c1.37.2,1.58.19,3.17.52s4.42,1.06,6.25,1.65,4.65,1.65,6.08,2.31a25.79,25.79,0,0,1,2.7,1.41c.11.07.14,0,0,0A30.41,30.41,0,0,1,43.59,126Zm19.3,54.45c-2.91.28-6.32.51-9.2.62a75.68,75.68,0,0,1-9.18-.18c-2.32-.24-2.4-.3-4.36-.62,2-.3,2.05-.39,4.36-.6s6.21-.49,9.11-.56a77.71,77.71,0,0,1,9.37.25c.06,0,.07-.09.19.05s.46.73.62,1C63.47,180.44,63.27,180.44,62.89,180.48ZM70.67,299.9c0-2.1.08-4.48.24-6.51s.55-4.78.85-6.41.36-1.76.7-3.15c.11,1.42.17,1.56.2,3.22s0,4.44-.23,6.48-.51,4.5-.92,6.55a8.61,8.61,0,0,1-.23.88c-.13-.21-.51-.59-.59-.76S70.67,300,70.67,299.9Zm12,24.91c-1.92,1.73-4.2,3.67-6.22,5.28a76.78,76.78,0,0,1-6.9,4.68c-1.83,1.1-2,1.17-3.68,2a42.05,42.05,0,0,1,3-3c1.6-1.46,4.45-3.82,6.54-5.39a68,68,0,0,1,6.8-4.64,4.48,4.48,0,0,1,1.12-.56c.26-.06.36.45.6.48C83.49,324.13,83.2,324.36,82.7,324.81Z"/><path class="cls-3" d="M53.39,261.64a2,2,0,1,0,1-2.68A2,2,0,0,0,53.39,261.64Z"/><path class="cls-4" d="M47.6,252.7c-5.76,2.37-2.19,4.8,1.77,6.77-3.5.89-8.74,2.73-4,6.16.48,6.21,3.87,3.6,7,.43-.24,3.59-.1,9.17,4.64,5.69,6.06,1.47,4.59-2.58,2.54-6.51,3.35,1.34,8.69,2.93,6.84-2.65,3.26-5.3-1-5.17-5.41-4.44,2.31-2.77,5.47-7.36-.41-7.33-4-4.75-5.24-.63-5.89,3.77C52.77,251.54,49.38,247.09,47.6,252.7Zm2.94,2.78c.06,0,.3,0,.45.08a3.69,3.69,0,0,1,.51.2,4.64,4.64,0,0,1,.85.71,6.05,6.05,0,0,1,.91,1.76c.13.34,0,.57.12.58s.42-.34.7-.45A4.13,4.13,0,0,1,56,258.2c.13,0,.38-.44.56-.58a7,7,0,0,0,.58-.68,8.15,8.15,0,0,0,.57-.8,4.61,4.61,0,0,0,.4-.85,2.8,2.8,0,0,0,.11-.44,3.05,3.05,0,0,0,.05-.41c0-.15-.05-.51,0-.59s-.07-.32,0-.23a2.46,2.46,0,0,1,.4.8c0,.07.06.3.07.46a3,3,0,0,1,0,.55,4,4,0,0,1-.41,1,5,5,0,0,1-1.42,1.4,4.63,4.63,0,0,1-.79.41,2.89,2.89,0,0,1,1.6,1.37c.16.27.13.66.25.87s.37.16.58.3a5.61,5.61,0,0,0,.82.34,7.89,7.89,0,0,0,.94.3,4.74,4.74,0,0,0,.93.12,3.1,3.1,0,0,0,.46,0c.16,0,.25-.06.4-.09s.47-.2.55-.22.28-.17.22-.08a2.6,2.6,0,0,1-.65.62c-.06,0-.27.15-.41.21a2.92,2.92,0,0,1-.53.13,4.65,4.65,0,0,1-1.1-.07,5.18,5.18,0,0,1-1.77-.91,5.09,5.09,0,0,1-.45-.42,2.8,2.8,0,0,1-1.51,2.48c-.1.06-.24,0-.3.12s0,.1,0,.29a7.13,7.13,0,0,0-.06.87,8,8,0,0,0,0,1,4.17,4.17,0,0,0,.17.93,4.27,4.27,0,0,0,.16.42,3.1,3.1,0,0,0,.21.36,5.18,5.18,0,0,0,.38.46c.05.07.24.23.15.18a3.11,3.11,0,0,1-.8-.42,2.78,2.78,0,0,1-.32-.34,2.32,2.32,0,0,1-.29-.46,3.36,3.36,0,0,1-.27-1.07,5.05,5.05,0,0,1,.32-2c0-.06.09-.11,0-.11a2.93,2.93,0,0,1-2.82-1.32c-.06-.08-.13,0-.3,0a7.4,7.4,0,0,0-.85.21,7.24,7.24,0,0,0-.93.31,4,4,0,0,0-.82.45,2,2,0,0,0-.36.29,3.85,3.85,0,0,0-.27.3c-.1.11-.26.43-.32.5s-.13.3-.12.2a2.56,2.56,0,0,1,.15-.89,2.47,2.47,0,0,1,.22-.41,1.91,1.91,0,0,1,.35-.41,3.9,3.9,0,0,1,.94-.6,5.3,5.3,0,0,1,2-.31c.08,0,.19.07.17,0a3.15,3.15,0,0,1,.48-2.81c.09-.14-.22-.34-.29-.55a4.61,4.61,0,0,0-.46-.75,5.53,5.53,0,0,0-.58-.79,4.1,4.1,0,0,0-.68-.65c-.19-.13-.24-.17-.38-.25a4.07,4.07,0,0,0-.38-.17c-.14-.05-.5-.11-.58-.14s-.32,0-.22-.06A2.53,2.53,0,0,1,50.54,255.48Z"/><path class="cls-5" d="M31.87,296.38a2.82,2.82,0,1,0,1.34-3.76A2.78,2.78,0,0,0,31.87,296.38Z"/><path class="cls-6" d="M23.73,283.82c-8.09,3.33-3.08,6.73,2.49,9.51-4.93,1.24-12.28,3.84-5.57,8.65.67,8.72,5.43,5,9.8.59-.34,5.05-.14,12.89,6.5,8,8.51,2.08,6.46-3.62,3.58-9.14,4.71,1.89,12.2,4.13,9.59-3.71,4.59-7.44-1.44-7.27-7.59-6.24,3.25-3.89,7.68-10.33-.57-10.28-5.67-6.68-7.36-.89-8.27,5.28C31,282.19,26.23,275.94,23.73,283.82Zm4.13,3.9a5.12,5.12,0,0,1,.64.12,3,3,0,0,1,.71.29,5.94,5.94,0,0,1,1.2,1,8.15,8.15,0,0,1,1.29,2.52c.11.33,0,.78.16.77s.59-.48,1-.63a5.37,5.37,0,0,1,2.68-.23c.19,0,.54-.62.79-.83a7.86,7.86,0,0,0,.81-.94,11.47,11.47,0,0,0,.8-1.13,6.1,6.1,0,0,0,.57-1.19,4.76,4.76,0,0,0,.16-.62,3.81,3.81,0,0,0,.06-.57c0-.21-.06-.72-.06-.84s-.09-.45,0-.33a4.62,4.62,0,0,1,.56,1.14,5.43,5.43,0,0,1,.08.65,2.68,2.68,0,0,1-.05.76,5.2,5.2,0,0,1-.57,1.44,7.19,7.19,0,0,1-2,2,5.88,5.88,0,0,1-1.11.57,4,4,0,0,1,2.24,1.94c.23.37.18.91.36,1.21s.51.22.81.42a9.47,9.47,0,0,0,1.15.48,11.92,11.92,0,0,0,1.32.42,6.45,6.45,0,0,0,1.31.17,3.82,3.82,0,0,0,.64,0,3.07,3.07,0,0,0,.56-.12,7.92,7.92,0,0,0,.78-.31c.12,0,.39-.23.3-.11a3.41,3.41,0,0,1-.9.87,3.59,3.59,0,0,1-.59.29,3.31,3.31,0,0,1-.74.18,5.2,5.2,0,0,1-1.55-.09,7.24,7.24,0,0,1-2.54-1.32c-.28-.23-.33-.32-.56-.53A3.94,3.94,0,0,1,36,298.56c-.14.09-.33.05-.43.17s0,.15-.06.41-.07.83-.09,1.22a10.77,10.77,0,0,0,0,1.39,6.73,6.73,0,0,0,.24,1.29,4.94,4.94,0,0,0,.24.6,3.41,3.41,0,0,0,.28.5c.11.18.47.54.54.64s.34.31.21.26a3.77,3.77,0,0,1-1.12-.6,3.49,3.49,0,0,1-.45-.47,2.53,2.53,0,0,1-.41-.65,5,5,0,0,1-.38-1.51,7,7,0,0,1,.46-2.83l.07-.15a3.92,3.92,0,0,1-4-1.87l-.44.09c-.29.05-.81.18-1.19.29a13.35,13.35,0,0,0-1.31.43,6.29,6.29,0,0,0-1.16.64,3.3,3.3,0,0,0-.49.4,5.06,5.06,0,0,0-.39.43c-.14.15-.37.61-.45.71s-.19.42-.17.27a4.55,4.55,0,0,1,.21-1.24,5,5,0,0,1,.31-.58,3.19,3.19,0,0,1,.5-.59A5.07,5.07,0,0,1,27.9,297a7,7,0,0,1,2.83-.42,1,1,0,0,1,.25,0,4,4,0,0,1,.7-3.95l-.44-.78c-.18-.32-.43-.71-.66-1.06a11.36,11.36,0,0,0-.82-1.11,6.18,6.18,0,0,0-1-.91,4.69,4.69,0,0,0-.54-.35,3.1,3.1,0,0,0-.53-.24c-.19-.08-.69-.16-.81-.2s-.46-.05-.31-.09A3.9,3.9,0,0,1,27.86,287.72Z"/><path class="cls-7" d="M26.2,158.05a2.83,2.83,0,1,0,2-3.43A2.78,2.78,0,0,0,26.2,158.05Z"/><path class="cls-8" d="M20.61,144.2c-8.58,1.73-4.32,6,.63,9.8-5.06.28-12.8,1.44-7.12,7.43-1,8.69,4.38,6,9.5,2.43-1.29,4.9-2.58,12.6,4.88,9.06,8,3.64,7-2.33,5.24-8.29,4.26,2.74,11.2,6.36,10.13-1.83,5.92-6.43,0-7.4-6.27-7.55,3.92-3.2,9.51-8.69,1.4-10.19-4.3-7.63-7.06-2.25-9.13,3.62C28,144,24.55,137,20.61,144.2Zm3.3,4.6a5.64,5.64,0,0,1,.61.24,3.24,3.24,0,0,1,.64.42,5.24,5.24,0,0,1,1,1.2,8,8,0,0,1,.78,2.72c.05.33-.12.76,0,.77s.67-.35,1.08-.43a5.46,5.46,0,0,1,2.67.28c.18.06.65-.5.94-.66a8.6,8.6,0,0,0,1-.77,11,11,0,0,0,1-.95,6.51,6.51,0,0,0,.79-1.07,3.94,3.94,0,0,0,.27-.57,3.14,3.14,0,0,0,.17-.55c.06-.2.08-.71.11-.83s0-.46,0-.33a3.63,3.63,0,0,1,.33,1.22,4,4,0,0,1,0,.65,3.32,3.32,0,0,1-.2.74,5.52,5.52,0,0,1-.83,1.31,7.42,7.42,0,0,1-2.33,1.57,6,6,0,0,1-1.2.34,4.05,4.05,0,0,1,1.83,2.32c.15.42,0,.93.12,1.26s.46.31.72.56a7,7,0,0,0,1,.69,10.05,10.05,0,0,0,1.21.66,5.93,5.93,0,0,0,1.25.42,4.29,4.29,0,0,0,1.21.07c.21,0,.7-.15.82-.16s.43-.16.33,0a3.72,3.72,0,0,1-1.06.69,4.69,4.69,0,0,1-.63.16,2.84,2.84,0,0,1-.77.05,5.32,5.32,0,0,1-1.5-.4,7.06,7.06,0,0,1-2.24-1.76,6.87,6.87,0,0,1-.45-.63,4,4,0,0,1-2.75,3c-.15.05-.34,0-.45.09s0,.14-.14.38A15.7,15.7,0,0,0,28.7,164a5.85,5.85,0,0,0,0,1.32,5,5,0,0,0,.11.63c.06.22.12.34.19.54s.36.62.4.74.28.36.16.28a3.44,3.44,0,0,1-1-.79,3.07,3.07,0,0,1-.36-.55,3.47,3.47,0,0,1-.28-.71,4.87,4.87,0,0,1-.08-1.55,7,7,0,0,1,1-2.69,1.1,1.1,0,0,0,.09-.14,3.91,3.91,0,0,1-3.53-2.58H25c-.29,0-.83,0-1.23.06s-1,.11-1.37.18a6.33,6.33,0,0,0-1.25.4,4.07,4.07,0,0,0-.57.31,4.22,4.22,0,0,0-.46.34c-.16.13-.48.54-.57.62s-.27.37-.23.23a4.49,4.49,0,0,1,.45-1.18,4.18,4.18,0,0,1,.42-.51,2.71,2.71,0,0,1,.59-.48,5,5,0,0,1,1.45-.56,7.07,7.07,0,0,1,2.86.11l.24.08a3.94,3.94,0,0,1,1.44-3.74l-.29-.85c-.11-.34-.28-.78-.44-1.17a11.78,11.78,0,0,0-.6-1.24,5.78,5.78,0,0,0-.77-1.07,3.76,3.76,0,0,0-.46-.45,4.48,4.48,0,0,0-.47-.33c-.18-.11-.66-.29-.76-.35s-.44-.13-.29-.14A4,4,0,0,1,23.91,148.8Z"/><path class="cls-9" d="M10.08,259.76a2,2,0,1,0,1-2.72A2,2,0,0,0,10.08,259.76Z"/><path class="cls-10" d="M4.19,250.66C-1.68,253.07,2,255.54,6,257.55c-3.56.9-8.89,2.78-4,6.27.48,6.32,3.94,3.65,7.1.43-.24,3.65-.1,9.34,4.72,5.79,6.16,1.5,4.67-2.63,2.58-6.63,3.41,1.37,8.85,3,7-2.68,3.32-5.4-1.06-5.27-5.51-4.53,2.35-2.82,5.57-7.48-.41-7.45-4.11-4.84-5.33-.63-6,3.83C9.45,249.48,6,245,4.19,250.66Zm3,2.83a3.34,3.34,0,0,1,.47.09,3.69,3.69,0,0,1,.51.2,4.75,4.75,0,0,1,.87.72,6.23,6.23,0,0,1,.92,1.79c.13.35,0,.58.13.58s.43-.33.71-.44a3.88,3.88,0,0,1,2-.17c.13,0,.38-.45.57-.6a5.13,5.13,0,0,0,.58-.68,6,6,0,0,0,.58-.82,4.43,4.43,0,0,0,.41-.86,2.35,2.35,0,0,0,.12-.45c0-.17,0-.27,0-.42s0-.51,0-.6-.08-.33,0-.24a2.7,2.7,0,0,1,.41.82,3.68,3.68,0,0,1,.06.47,2.39,2.39,0,0,1,0,.56,3.87,3.87,0,0,1-.41,1,5.32,5.32,0,0,1-1.44,1.44,4.75,4.75,0,0,1-.81.41,3,3,0,0,1,1.63,1.4c.16.28.13.67.26.88s.37.16.59.3a5.31,5.31,0,0,0,.83.35,6.17,6.17,0,0,0,1,.3,4.23,4.23,0,0,0,.95.13,2,2,0,0,0,.46,0,2.26,2.26,0,0,0,.41-.09,5.74,5.74,0,0,0,.57-.22c.08,0,.29-.17.22-.08a2.88,2.88,0,0,1-.66.63,2.31,2.31,0,0,1-.42.21,2.37,2.37,0,0,1-.54.13,3.93,3.93,0,0,1-1.12-.07,5.25,5.25,0,0,1-1.8-.92,3.37,3.37,0,0,1-.46-.43,2.83,2.83,0,0,1-1.53,2.52c-.1.06-.24,0-.31.13s0,.1,0,.29-.05.6-.07.89,0,.7,0,1a5.06,5.06,0,0,0,.18.94A2.74,2.74,0,0,0,13,265a3.1,3.1,0,0,0,.21.36,5.71,5.71,0,0,0,.39.47c.05.07.25.22.14.18a2.68,2.68,0,0,1-.81-.43,3.86,3.86,0,0,1-.32-.34,1.84,1.84,0,0,1-.29-.47,3.78,3.78,0,0,1-.29-1.09,5.29,5.29,0,0,1,.34-2.05s.08-.11,0-.1a3,3,0,0,1-2.88-1.35c-.06-.07-.12.05-.3.05a7,7,0,0,0-.86.21,9.54,9.54,0,0,0-1,.31,4.3,4.3,0,0,0-.83.46,3.42,3.42,0,0,0-.36.29,2.61,2.61,0,0,0-.28.31,6.05,6.05,0,0,0-.33.52c0,.07-.13.3-.13.19a2.94,2.94,0,0,1,.16-.9,4.56,4.56,0,0,1,.22-.42,2.31,2.31,0,0,1,.36-.42,3.68,3.68,0,0,1,1-.6,5.52,5.52,0,0,1,2-.32c.08,0,.2.07.18,0A3.15,3.15,0,0,1,9.9,257c.1-.14-.23-.34-.29-.56a4.38,4.38,0,0,0-.47-.76,6.42,6.42,0,0,0-.59-.81,4.12,4.12,0,0,0-.69-.65,2.64,2.64,0,0,0-.4-.26,3.17,3.17,0,0,0-.38-.17c-.14-.06-.5-.12-.59-.15s-.32,0-.22-.06A2.38,2.38,0,0,1,7.17,253.49Z"/><path class="cls-11" d="M156.49,212.91a1.79,1.79,0,0,0,2,1.57,1.79,1.79,0,1,0-2-1.57Z"/><path class="cls-12" d="M154.2,203.7c-5.58.37-3.43,3.4-.54,6.24-3.19-.24-8.33-.2-5.18,4.09-1.38,5.42,2.36,4.09,5.87,2.32-1.25,3-2.63,7.69,2.37,6.1,4.71,2.93,4.67-.82,4-4.77,2.48,2.06,6.54,5,6.61-.28,4.34-3.56.59-4.68-3.33-5.29,2.75-1.66,6.86-4.65,1.83-6.31-2.07-5.19-4.3-2-6.17,1.51C159,204.05,157.39,199.52,154.2,203.7Zm1.66,3.19a2.62,2.62,0,0,1,.37.21,2,2,0,0,1,.38.31,4.13,4.13,0,0,1,.53.87,6.57,6.57,0,0,1,.23,1.72c0,.32-.18.45,0,.52s.36-.18.76-.18a3.9,3.9,0,0,1,1.64.4c.09.06.47-.26.66-.33a5.91,5.91,0,0,0,.69-.41,7.34,7.34,0,0,0,.73-.51,4.39,4.39,0,0,0,.61-.61c.12-.17.16-.22.23-.34a1.74,1.74,0,0,0,.16-.34c.06-.12.12-.44.15-.51s0-.29.06-.2a2,2,0,0,1,.09.8,2.57,2.57,0,0,1-.08.41,2.15,2.15,0,0,1-.2.45,3.77,3.77,0,0,1-.68.78,6.88,6.88,0,0,1-1.6.77c-.28.1-.79,0-.72.12a3.29,3.29,0,0,1,.88,1.6c0,.27-.06.58,0,.8s.27.24.41.42a5.5,5.5,0,0,0,.61.52,6.21,6.21,0,0,0,.72.51,3.77,3.77,0,0,0,.76.37l.4.11c.15,0,.24,0,.37,0s.46,0,.54,0,.29-.06.21,0a2.38,2.38,0,0,1-.73.34,2,2,0,0,1-.42,0,1.52,1.52,0,0,1-.5,0,3.51,3.51,0,0,1-1-.39,5.4,5.4,0,0,1-1.23-1.25c-.18-.33-.13-.22-.25-.47a2.57,2.57,0,0,1-2,1.66c-.1,0-.21-.05-.3,0s0,.09-.12.23a6.45,6.45,0,0,0-.31.72,7.35,7.35,0,0,0-.28.83,4.37,4.37,0,0,0-.12.83,2.3,2.3,0,0,0,0,.4,3.21,3.21,0,0,0,.08.36c0,.13.17.42.19.5s.15.26.08.19a2.4,2.4,0,0,1-.56-.58,1.5,1.5,0,0,1-.18-.38,1.56,1.56,0,0,1-.12-.47,3,3,0,0,1,.08-1,4.83,4.83,0,0,1,.86-1.56s.1-.07.06-.08a2.62,2.62,0,0,1-2.05-1.91c0-.08-.12,0-.27,0a7.55,7.55,0,0,0-.78-.06,9,9,0,0,0-.9,0,4.74,4.74,0,0,0-.83.15,2.8,2.8,0,0,0-.39.14,1.93,1.93,0,0,0-.32.19,4.43,4.43,0,0,0-.42.33c-.07.05-.2.22-.16.13a2.47,2.47,0,0,1,.38-.7,1.81,1.81,0,0,1,.31-.29,1.42,1.42,0,0,1,.43-.25,2.87,2.87,0,0,1,1-.24,5.12,5.12,0,0,1,1.77.31c.06,0,.15.11.15.06a2.72,2.72,0,0,1,1.22-2.23c.12-.1-.1-.36-.09-.55a4.24,4.24,0,0,0-.17-.76,4.51,4.51,0,0,0-.26-.84,4,4,0,0,0-.39-.74,2.57,2.57,0,0,0-.25-.32,3.08,3.08,0,0,0-.27-.25c-.1-.09-.39-.24-.46-.29s-.27-.12-.17-.11A2.53,2.53,0,0,1,155.86,206.89Z"/><path class="cls-13" d="M127.32,207.56a2.46,2.46,0,0,0,2.84,1.79,2.05,2.05,0,0,0,1.88-2.48,2.47,2.47,0,0,0-2.84-1.81A2.07,2.07,0,0,0,127.32,207.56Z"/><path class="cls-14" d="M122.83,196.71c-7.67,1-4,4.36.43,7.42-3.63,0-11.74.37-6.33,5.22-1,6.68,3.76,4.59,8,2.45-1.56,4.3-2.3,9.07,3.73,7.19,6,3.42,6-.78,4.75-5.82,3.11,2.29,8.74,6.07,8.53-.54,5.67-4.7.1-5.81-4.75-6.39,3.64-2.25,8.18-6,1.69-7.74-3.1-6.1-5.75-2.49-8,2.15C129.33,196,127,191.48,122.83,196.71Zm2.92,3.61a3.14,3.14,0,0,1,.52.22,3.32,3.32,0,0,1,.53.36,5.86,5.86,0,0,1,.79,1,6.24,6.24,0,0,1,.55,2.1c.05.4-.14.61,0,.64s.59-.22.94-.25a5.46,5.46,0,0,1,2.27.41c.15.06.58-.34.82-.43a10.82,10.82,0,0,0,1.75-1.17,4.18,4.18,0,0,0,.72-.75,4.93,4.93,0,0,0,.26-.43,2.56,2.56,0,0,0,.16-.4c.06-.15.1-.54.13-.63s0-.35.06-.25a2.61,2.61,0,0,1,.22,1,2.86,2.86,0,0,1-.06.5,2.25,2.25,0,0,1-.19.55,4.36,4.36,0,0,1-.77.94,6.24,6.24,0,0,1-2.05,1,5.73,5.73,0,0,1-1,.17,3.4,3.4,0,0,1,1.47,1.91c.11.34-.05.7,0,1s.38.27.59.48a7.62,7.62,0,0,0,.86.61,9.89,9.89,0,0,0,1,.6,5.47,5.47,0,0,0,1,.43,4.14,4.14,0,0,0,.53.12c.19,0,.31,0,.48,0s.6-.06.7,0,.37-.09.27,0a2.92,2.92,0,0,1-.92.44,3.74,3.74,0,0,1-.54.08,3.12,3.12,0,0,1-.65,0A4.7,4.7,0,0,1,135,210a6.58,6.58,0,0,1-1.81-1.54,4,4,0,0,1-.36-.51,3,3,0,0,1-2.47,2.09c-.12,0-.29,0-.39,0s0,.11-.13.29a8.6,8.6,0,0,0-.33.89,6.67,6.67,0,0,0-.26,1,4.39,4.39,0,0,0-.07,1c0,.25,0,.32.07.49a4.13,4.13,0,0,0,.14.42c.06.15.28.5.32.59s.2.3.1.22a4.06,4.06,0,0,1-.79-.67,4.45,4.45,0,0,1-.28-.44,2.23,2.23,0,0,1-.2-.55,3.3,3.3,0,0,1,0-1.18,5.3,5.3,0,0,1,.95-2s.13-.08.08-.09a3.57,3.57,0,0,1-2.9-2.2c0-.1-.16,0-.36,0a10.37,10.37,0,0,0-1,0,11.57,11.57,0,0,0-1.17.05,6.36,6.36,0,0,0-1.09.22,4.4,4.4,0,0,0-.49.2c-.17.08-.26.15-.4.23s-.44.37-.52.43-.24.27-.2.16a2.63,2.63,0,0,1,.43-.86,3.17,3.17,0,0,1,.37-.37,2.94,2.94,0,0,1,.53-.33,4.92,4.92,0,0,1,1.26-.34,7.18,7.18,0,0,1,2.41.27c.09,0,.21.13.2.06a3.1,3.1,0,0,1,1.35-2.77c.15-.12-.16-.42-.17-.65a4.61,4.61,0,0,0-.32-.92,8.67,8.67,0,0,0-.45-1,5.1,5.1,0,0,0-.61-.87,3.18,3.18,0,0,0-.38-.37,2.63,2.63,0,0,0-.39-.29c-.16-.09-.6-.24-.69-.29s-.4-.12-.26-.12A4.54,4.54,0,0,1,125.75,200.32Z"/><path class="cls-15" d="M129,12a2.17,2.17,0,1,0,2.82-1.22A2.14,2.14,0,0,0,129,12Z"/><path class="cls-16" d="M131.79.85c-6.13-2.8-5.4,1.81-4,6.39-3.28-2.1-8.62-4.88-7.79,1.42-4.54,5,0,5.7,4.83,5.81-3,2.47-7.29,6.69-1,7.85,3.31,5.87,5.43,1.73,7-2.79,1.42,3.62,4.11,9,7.14,3.43,6.6-1.33,3.3-4.63-.5-7.54,3.9-.22,9.84-1.12,5.47-5.72.76-6.69-3.38-4.59-7.33-1.87C136.53,4.07,137.52-1.88,131.79.85Zm0,4.36a3,3,0,0,1,.27.43,2.69,2.69,0,0,1,.22.54,5.21,5.21,0,0,1,.07,1.2,6.65,6.65,0,0,1-.71,2c-.18.35-.44.44-.37.52s.58.09.87.23a4.26,4.26,0,0,1,1.54,1.39c.09.11.64,0,.88,0a8.2,8.2,0,0,0,1,0,9.48,9.48,0,0,0,1.05-.15,4.82,4.82,0,0,0,1-.3,3.16,3.16,0,0,0,.43-.24,3.32,3.32,0,0,0,.36-.26c.12-.11.36-.41.43-.48s.21-.29.18-.18a3,3,0,0,1-.35.91,2.58,2.58,0,0,1-.31.39,3,3,0,0,1-.46.38,4.28,4.28,0,0,1-1.11.43,5.52,5.52,0,0,1-2.16-.08,4.66,4.66,0,0,1-.9-.32,3.13,3.13,0,0,1,.1,2.27c-.1.33-.42.58-.49.84s.14.4.19.68a6.66,6.66,0,0,0,.33.9,9.21,9.21,0,0,0,.46.95,4.66,4.66,0,0,0,.59.83,3.45,3.45,0,0,0,.36.34,3.38,3.38,0,0,0,.36.25c.14.1.51.23.59.28s.34.09.23.11a2.56,2.56,0,0,1-1-.05,4.58,4.58,0,0,1-.47-.18,3,3,0,0,1-.5-.32,4.72,4.72,0,0,1-.76-.92,5.77,5.77,0,0,1-.59-2.07,3.46,3.46,0,0,1,0-.65,3,3,0,0,1-3.07.63c-.12,0-.2-.16-.32-.15s-.09.07-.26.18-.51.4-.74.59a8.81,8.81,0,0,0-.76.74,4.64,4.64,0,0,0-.61.81c-.11.22-.14.28-.21.45a4,4,0,0,0-.13.42c0,.16-.06.55-.08.64s0,.36,0,.25a3.08,3.08,0,0,1-.26-.94,3.41,3.41,0,0,1,0-.5,2.55,2.55,0,0,1,.15-.57,4,4,0,0,1,.64-1,5.59,5.59,0,0,1,1.83-1.22s.14,0,.11,0a3.17,3.17,0,0,1-1-3.21c0-.09-.12-.06-.26-.19a8.07,8.07,0,0,0-.78-.52c-.25-.16-.65-.37-.93-.51a4.52,4.52,0,0,0-1-.31,2.63,2.63,0,0,0-.48-.07,3.3,3.3,0,0,0-.45,0c-.16,0-.54.11-.63.12s-.34.11-.25,0a3.53,3.53,0,0,1,.81-.53,3.65,3.65,0,0,1,.49-.13,2.48,2.48,0,0,1,.59,0,4.14,4.14,0,0,1,1.16.3,6,6,0,0,1,1.73,1.35c0,.07.08.21.11.15A3.38,3.38,0,0,1,131,9.9c.18,0,.11-.42.22-.62a6.16,6.16,0,0,0,.26-.93,8.68,8.68,0,0,0,.19-1,4.26,4.26,0,0,0,0-1,3.57,3.57,0,0,0-.08-.49,4.11,4.11,0,0,0-.15-.42c-.06-.15-.27-.47-.31-.56s-.22-.28-.12-.22A2.72,2.72,0,0,1,131.77,5.21Z"/><path class="cls-17" d="M87.11,47.8a1.94,1.94,0,1,0,2.52-1.09A1.92,1.92,0,0,0,87.11,47.8Z"/><path class="cls-18" d="M89.57,37.83c-5.47-2.5-4.82,1.62-3.59,5.71-2.93-1.88-7.71-4.36-7,1.27-4.07,4.43,0,5.09,4.32,5.19-2.7,2.21-6.52,6-1,7,3,5.23,4.85,1.54,6.27-2.5,1.26,3.24,3.67,8.06,6.38,3.07,5.89-1.19,2.95-4.14-.45-6.74,3.48-.2,8.79-1,4.88-5.12.69-6-3-4.1-6.54-1.66C93.81,40.7,94.7,35.38,89.57,37.83Zm0,3.9a3.46,3.46,0,0,1,.24.37,3.41,3.41,0,0,1,.2.5,4.55,4.55,0,0,1,.06,1.06,5.84,5.84,0,0,1-.64,1.8c-.14.32-.41.38-.32.47s.41,0,.82.22a4.09,4.09,0,0,1,1.33,1.22c.06.09.58,0,.79,0a6.49,6.49,0,0,0,.85,0,7.55,7.55,0,0,0,.94-.12,4.45,4.45,0,0,0,.87-.28,1.84,1.84,0,0,0,.38-.21,2.05,2.05,0,0,0,.32-.24c.11-.09.33-.36.39-.42s.19-.26.16-.16a2.71,2.71,0,0,1-.31.81,2.1,2.1,0,0,1-.28.35,2.14,2.14,0,0,1-.42.34,3.45,3.45,0,0,1-1,.39,5.28,5.28,0,0,1-1.9-.07,4,4,0,0,1-.79-.3,2.82,2.82,0,0,1,.08,2c-.09.29-.38.52-.44.75s.13.36.17.6a4.69,4.69,0,0,0,.31.8,5.59,5.59,0,0,0,.4.86,5,5,0,0,0,.53.74,2.73,2.73,0,0,0,.32.3,2.13,2.13,0,0,0,.32.23,5.64,5.64,0,0,0,.53.24c.07,0,.3.08.2.1a2.22,2.22,0,0,1-.87,0,3.61,3.61,0,0,1-.42-.16,2.7,2.7,0,0,1-.44-.29,4,4,0,0,1-.68-.82,5.11,5.11,0,0,1-.53-1.85,3.67,3.67,0,0,1,0-.58,2.72,2.72,0,0,1-2.74.57c-.11,0-.18-.15-.29-.14s-.07.06-.23.16a5.27,5.27,0,0,0-.66.53,8.31,8.31,0,0,0-.68.65,4.54,4.54,0,0,0-.54.73,4.41,4.41,0,0,0-.19.4c-.06.15-.07.24-.12.38s-.05.49-.07.57,0,.32,0,.22a3.16,3.16,0,0,1-.23-.83c0-.07,0-.3,0-.45a1.81,1.81,0,0,1,.13-.51,3.35,3.35,0,0,1,.58-.9,5,5,0,0,1,1.63-1.1s.13,0,.1,0a2.81,2.81,0,0,1-.94-2.86c0-.09-.11-.06-.23-.18a5.32,5.32,0,0,0-.7-.46,6.72,6.72,0,0,0-.84-.46,4.76,4.76,0,0,0-.86-.28,2.74,2.74,0,0,0-.43-.06,2.64,2.64,0,0,0-.4,0,5.05,5.05,0,0,0-.56.11c-.09,0-.3.1-.22,0a3,3,0,0,1,.72-.48,2.14,2.14,0,0,1,.44-.11,1.6,1.6,0,0,1,.52,0,3.34,3.34,0,0,1,1,.27,5.07,5.07,0,0,1,1.54,1.21s.08.17.11.12a3,3,0,0,1,2.28-1.51c.16,0,.1-.38.2-.56a4,4,0,0,0,.23-.82,5.65,5.65,0,0,0,.17-.93,4,4,0,0,0,0-.91c0-.22,0-.28-.08-.44a2,2,0,0,0-.14-.37c-.05-.14-.24-.43-.27-.51s-.2-.24-.11-.19A2.23,2.23,0,0,1,89.56,41.73Z"/><path class="cls-19" d="M124.49,76.75a2.62,2.62,0,1,0,3.39-1.46A2.56,2.56,0,0,0,124.49,76.75Z"/><path class="cls-20" d="M127.81,63.36C120.45,60,121.32,65.52,123,71c-3.93-2.53-10.35-5.87-9.35,1.69-5.45,6,.06,6.85,5.8,7-3.62,3-8.75,8-1.26,9.42,4,7,6.51,2.08,8.42-3.35,1.7,4.35,4.93,10.83,8.56,4.12,7.92-1.6,4-5.57-.6-9.05,4.68-.27,11.82-1.35,6.57-6.88.91-8-4.06-5.51-8.79-2.23C133.5,67.22,134.69,60.07,127.81,63.36Zm0,5.23a4.61,4.61,0,0,1,.33.51,3.22,3.22,0,0,1,.26.66,5.07,5.07,0,0,1,.09,1.43,7.65,7.65,0,0,1-.88,2.46c-.15.28-.51.51-.42.59s.69.1,1.05.27a5,5,0,0,1,1.85,1.66c.1.13.76,0,1.06,0a9.12,9.12,0,0,0,1.14,0,10.88,10.88,0,0,0,1.26-.17,6.43,6.43,0,0,0,1.17-.38,2.71,2.71,0,0,0,.52-.28,3.56,3.56,0,0,0,.42-.32c.15-.12.44-.49.53-.56s.22-.35.21-.22A3.1,3.1,0,0,1,136,75.3a3.32,3.32,0,0,1-.37.47,3.79,3.79,0,0,1-.55.45,5.06,5.06,0,0,1-1.34.52,6.67,6.67,0,0,1-2.58-.09,5.9,5.9,0,0,1-1.09-.39,3.74,3.74,0,0,1,.12,2.73c-.12.39-.51.69-.59,1s.17.49.22.81a7.63,7.63,0,0,0,.41,1.08,9.34,9.34,0,0,0,.55,1.15,5.74,5.74,0,0,0,.71,1,5.34,5.34,0,0,0,.43.42c.17.13.28.19.44.3s.6.27.7.33.4.11.27.13a3.25,3.25,0,0,1-1.17-.06,3.12,3.12,0,0,1-.56-.22,2.81,2.81,0,0,1-.59-.38,4.5,4.5,0,0,1-.92-1.11,6.58,6.58,0,0,1-.71-2.54c0-.32,0-.42,0-.71a3.65,3.65,0,0,1-3.68.75c-.15,0-.24-.19-.39-.18s-.1.09-.31.22a10.26,10.26,0,0,0-.88.7,10.89,10.89,0,0,0-.92.88,5.48,5.48,0,0,0-.72,1,5,5,0,0,0-.26.53,3.72,3.72,0,0,0-.16.51c-.05.18-.06.66-.09.77s0,.42,0,.29a3.65,3.65,0,0,1-.31-1.12,3.8,3.8,0,0,1,0-.61,2.46,2.46,0,0,1,.18-.68,4.74,4.74,0,0,1,.76-1.21,6.74,6.74,0,0,1,2.2-1.47c.06,0,.18,0,.13,0a3.81,3.81,0,0,1-1.26-3.85c0-.12-.15-.08-.31-.24a8.07,8.07,0,0,0-.94-.62,11.93,11.93,0,0,0-1.12-.61,6.17,6.17,0,0,0-1.15-.38l-.59-.08c-.21,0-.34,0-.53,0s-.65.14-.76.15-.41.13-.3.05a3.75,3.75,0,0,1,1-.64,4.72,4.72,0,0,1,.58-.16,3,3,0,0,1,.71,0,4.48,4.48,0,0,1,1.38.36,6.29,6.29,0,0,1,2.08,1.64,2.31,2.31,0,0,1,.14.19,3.66,3.66,0,0,1,3.1-2c.1-.29.15-.47.25-.79s.21-.74.3-1.11a11,11,0,0,0,.23-1.25,6.19,6.19,0,0,0,0-1.22,3.29,3.29,0,0,0-.11-.59,3.25,3.25,0,0,0-.17-.5c-.07-.18-.33-.58-.37-.68s-.26-.34-.15-.27A3.47,3.47,0,0,1,127.78,68.59Z"/><path class="cls-21" d="M75,164.61a2.15,2.15,0,0,0,2.17,2.17,2.08,2.08,0,0,0,2.15-2.12,2.16,2.16,0,0,0-2.17-2.18A2.08,2.08,0,0,0,75,164.61Z"/><path class="cls-22" d="M73.42,153.33c-6.75-.4-4.32,3.64-1.3,7.32-3.72-.72-9.94-1.41-6.69,4.1-2.28,6.11,2.29,5.17,6.65,3.61-1.85,3.47-3.48,8.26,2.28,7.36,5.11,4.17,5.37-.09,5.11-4.84,2.59,2.72,7.09,6.92,7.81.66,5.63-3.59,1.19-5.45-3.27-6.75,3.55-1.62,8.65-4.58,2.95-7.25-1.74-6.43-4.8-3.09-7.46.89C79,154.59,77.74,148.73,73.42,153.33Zm1.64,4a4.92,4.92,0,0,1,.41.29,3.55,3.55,0,0,1,.4.43,5.39,5.39,0,0,1,.51,1.08,6.68,6.68,0,0,1,.08,2.11c0,.39-.24.56-.14.62s.56-.13.88-.1a4.16,4.16,0,0,1,1.93.73c.12.08.57-.24.81-.3a6.23,6.23,0,0,0,.87-.38,9,9,0,0,0,.91-.5,4.28,4.28,0,0,0,.78-.63,2.74,2.74,0,0,0,.31-.37A2.49,2.49,0,0,0,83,160c.08-.14.19-.51.23-.59s.08-.35.1-.23a3,3,0,0,1,0,1,3.14,3.14,0,0,1-.14.47,2.59,2.59,0,0,1-.29.51,4.09,4.09,0,0,1-.85.8,5.58,5.58,0,0,1-2,.69,5.18,5.18,0,0,1-1,0,3.09,3.09,0,0,1,.92,2.07c0,.33-.17.69-.14,1s.28.32.43.56a5.88,5.88,0,0,0,.65.69,7.56,7.56,0,0,0,.78.72,4.64,4.64,0,0,0,.86.54,3.5,3.5,0,0,0,.46.19,2.41,2.41,0,0,0,.43.1c.16,0,.54,0,.64.05s.34,0,.25,0a2.83,2.83,0,0,1-.91.3,2.92,2.92,0,0,1-.5,0,2.83,2.83,0,0,1-.58-.11,4.87,4.87,0,0,1-1-.57,5.92,5.92,0,0,1-1.33-1.68,3.58,3.58,0,0,1-.25-.61,2.94,2.94,0,0,1-2.57,1.67c-.13,0-.25-.08-.36,0s-.05.09-.17.25a8.84,8.84,0,0,0-.45.8,8.12,8.12,0,0,0-.43.94,5.39,5.39,0,0,0-.24,1,4.36,4.36,0,0,0,0,.48,3,3,0,0,0,0,.43c0,.15.16.52.17.61s.14.33.07.24a3.37,3.37,0,0,1-.6-.77,3.54,3.54,0,0,1-.16-.47,1.93,1.93,0,0,1-.08-.57,3.87,3.87,0,0,1,.2-1.15,5.38,5.38,0,0,1,1.21-1.75s.13-.07.09-.08a3.17,3.17,0,0,1-2.16-2.59c0-.09-.14,0-.31-.09a8.61,8.61,0,0,0-.91-.2,8.86,8.86,0,0,0-1.05-.13,4.59,4.59,0,0,0-1,0,2,2,0,0,0-.47.11,3.89,3.89,0,0,0-.41.16c-.14.06-.45.3-.53.34s-.27.23-.22.13a3.23,3.23,0,0,1,.55-.78,3.71,3.71,0,0,1,.4-.3,2.4,2.4,0,0,1,.54-.23,3.59,3.59,0,0,1,1.17-.13,5.71,5.71,0,0,1,2.09.63c.08,0,.16.16.16.09A3.26,3.26,0,0,1,76.08,162c.16-.1-.06-.44,0-.67a4.69,4.69,0,0,0-.1-.93,9.35,9.35,0,0,0-.2-1,5,5,0,0,0-.38-1,3.77,3.77,0,0,0-.26-.41,2.46,2.46,0,0,0-.29-.34c-.1-.12-.43-.34-.5-.41s-.31-.18-.2-.16A3.12,3.12,0,0,1,75.06,157.35Z"/><path class="cls-23" d="M145.19,98.05a1.69,1.69,0,1,0,1.21-2A1.66,1.66,0,0,0,145.19,98.05Z"/><path class="cls-24" d="M141.81,89.79c-5.12,1-2.56,3.6.4,5.84-3,.18-7.64.88-4.23,4.44-.59,5.19,2.63,3.56,5.69,1.45-.77,2.93-1.52,7.52,2.93,5.4,4.75,2.17,4.19-1.39,3.12-5,2.54,1.62,6.7,3.79,6.05-1.1,3.53-3.86-.06-4.42-3.77-4.5,2.35-1.93,5.66-5.2.81-6.09-2.58-4.54-4.22-1.34-5.45,2.17C146.26,89.64,144.16,85.45,141.81,89.79Zm2,2.73a3.73,3.73,0,0,1,.38.15,1.75,1.75,0,0,1,.39.25,3.24,3.24,0,0,1,.61.74,6.05,6.05,0,0,1,.46,1.57c0,.3-.12.44,0,.49s.3-.22.67-.27a3.46,3.46,0,0,1,1.55.18c.09,0,.4-.31.56-.4a4.48,4.48,0,0,0,.58-.46,6.43,6.43,0,0,0,.6-.57,3.46,3.46,0,0,0,.46-.63,1.82,1.82,0,0,0,.17-.35,2.44,2.44,0,0,0,.1-.33c0-.12,0-.42.06-.49s0-.27,0-.2a2.73,2.73,0,0,1,.21.71,2.93,2.93,0,0,1,0,.41,1.28,1.28,0,0,1-.11.44,3.32,3.32,0,0,1-.51.81,5.88,5.88,0,0,1-1.36.91c-.24.12-.72.16-.65.21A3.4,3.4,0,0,1,149,97c.11.4,0,.56.08.79s.28.18.44.34a3.2,3.2,0,0,0,.62.42,6.23,6.23,0,0,0,.72.39,3.79,3.79,0,0,0,.75.24,2.18,2.18,0,0,0,.39,0c.13,0,.21,0,.34,0s.41-.09.49-.09.23-.1.19,0a2.15,2.15,0,0,1-.61.41,2.48,2.48,0,0,1-.39.1,1.63,1.63,0,0,1-.47,0,3.3,3.3,0,0,1-.92-.24,5.07,5.07,0,0,1-1.3-1c-.21-.28-.14-.19-.29-.41a2.34,2.34,0,0,1-1.63,1.8c-.09,0-.2,0-.27,0s0,.09-.09.23-.13.48-.19.71a6.84,6.84,0,0,0-.14.81,4.21,4.21,0,0,0,0,.79c0,.19,0,.24.07.37a2.53,2.53,0,0,0,.12.33c0,.12.21.36.24.43s.16.21.09.18a2.44,2.44,0,0,1-.57-.46,1.52,1.52,0,0,1-.22-.34,1.15,1.15,0,0,1-.17-.44,2.32,2.32,0,0,1-.06-1,4.37,4.37,0,0,1,.58-1.56s.08-.08,0-.08a2.46,2.46,0,0,1-2.12-1.53c0-.08-.11,0-.26,0a4.87,4.87,0,0,0-.73,0,5.82,5.82,0,0,0-.81.11,4.14,4.14,0,0,0-.75.24,2.54,2.54,0,0,0-.34.18,2.78,2.78,0,0,0-.27.21c-.1.08-.29.31-.34.36s-.16.22-.14.14a3.2,3.2,0,0,1,.25-.68,2,2,0,0,1,.26-.32,1.28,1.28,0,0,1,.36-.29,2.76,2.76,0,0,1,.9-.35,4.47,4.47,0,0,1,1.66.07c.06,0,.15.09.14,0a2.6,2.6,0,0,1,.84-2.23c.09-.1-.13-.31-.15-.49a4.39,4.39,0,0,0-.26-.7,5.49,5.49,0,0,0-.36-.73,4.35,4.35,0,0,0-.46-.65L144,93a2.51,2.51,0,0,0-.29-.2c-.1-.07-.38-.17-.45-.21s-.25-.06-.18-.08A2.08,2.08,0,0,1,143.78,92.52Z"/><path class="cls-25" d="M21.77,92A2.18,2.18,0,1,0,24,89.85,2.14,2.14,0,0,0,21.77,92Z"/><path class="cls-26" d="M20.29,80.59c-6.72-.38-4.38,3.65-1.43,7.43-3.83-.77-9.81-1.42-6.75,4.16-2.43,6.28,2.1,5.3,6.61,3.67-1.91,3.39-4.38,8.9,1.86,7.71,5.22,4.26,5.69-.38,5.53-5.17,2.63,2.88,7.1,6.93,7.89.62,5.66-3.65,1.41-5.53-3.19-6.86,3.54-1.62,8.76-4.62,3-7.33-1.72-6.52-4.82-3.06-7.5.92C25.88,81.88,24.65,76,20.29,80.59Zm1.57,4.08a3.62,3.62,0,0,1,.41.3,3.66,3.66,0,0,1,.39.43,4.88,4.88,0,0,1,.5,1.08,6.29,6.29,0,0,1,.07,2.14c0,.4-.25.57-.15.63s.57-.14.89-.11a4.31,4.31,0,0,1,1.94.73c.12.08.58-.25.82-.31a5.85,5.85,0,0,0,.88-.38,7.81,7.81,0,0,0,.93-.52,4.39,4.39,0,0,0,.79-.64,4.11,4.11,0,0,0,.32-.37,3.21,3.21,0,0,0,.23-.38c.08-.14.19-.52.24-.6s.08-.35.1-.23a3.37,3.37,0,0,1,0,1,4.4,4.4,0,0,1-.16.48,2.16,2.16,0,0,1-.29.51,4.36,4.36,0,0,1-.88.82,5.68,5.68,0,0,1-2,.71,4.52,4.52,0,0,1-1,0A3.15,3.15,0,0,1,26.82,92c0,.34-.18.7-.16,1s.29.33.43.56a5.91,5.91,0,0,0,.64.72,8.86,8.86,0,0,0,.77.73,5.34,5.34,0,0,0,.86.55,3,3,0,0,0,.45.19,2.63,2.63,0,0,0,.43.1c.16,0,.55,0,.65.05s.34,0,.25,0a2.79,2.79,0,0,1-.92.31,4.26,4.26,0,0,1-.51,0,2.78,2.78,0,0,1-.57-.12,4.15,4.15,0,0,1-1-.58,5.75,5.75,0,0,1-1.31-1.71,5.65,5.65,0,0,1-.24-.62,3,3,0,0,1-2.62,1.71c-.13,0-.25-.08-.36,0s-.05.1-.18.26-.33.56-.47.82a7.66,7.66,0,0,0-.45,1,5.53,5.53,0,0,0-.26,1,3.41,3.41,0,0,0,0,.5c0,.17,0,.28,0,.44s.15.53.16.63.14.33.06.24a3.48,3.48,0,0,1-.58-.78,4.07,4.07,0,0,1-.15-.48,1.82,1.82,0,0,1-.07-.59,4,4,0,0,1,.23-1.17,5.61,5.61,0,0,1,1.26-1.81s.13-.07.09-.08a3.15,3.15,0,0,1-2.14-2.61c0-.1-.14,0-.31-.09a6.85,6.85,0,0,0-.92-.2,8.86,8.86,0,0,0-1-.13,4.2,4.2,0,0,0-1,0,3.16,3.16,0,0,0-.48.11l-.41.17c-.14.07-.46.3-.54.35s-.27.23-.22.13a3.15,3.15,0,0,1,.57-.79,2.73,2.73,0,0,1,.4-.3,2.35,2.35,0,0,1,.54-.24,3.45,3.45,0,0,1,1.19-.14,5.63,5.63,0,0,1,2.1.63c.07,0,.15.15.16.09a3.35,3.35,0,0,1,1.77-2.51c.15-.1-.05-.44,0-.67a5.7,5.7,0,0,0-.09-1,9.53,9.53,0,0,0-.2-1,5,5,0,0,0-.37-1,3,3,0,0,0-.26-.43c-.1-.14-.18-.21-.28-.33s-.44-.35-.5-.42-.3-.18-.19-.16A2.81,2.81,0,0,1,21.86,84.67Z"/><g class="cls-27"><path class="cls-28" d="M140.42,439c-23.44-4.79-25.2-76.38-26.8-95.57-.35-4.17-6.14-39.34-6.87-47.91,5.2-6.2,9.14-12.16,13.39-18.31,11.26,4.38,20.89,4.71,31.43-1.64-6.47-8.05-19.32-5.05-27.63-3.58,2.51-3.72,8.19-11.21,10-14.53,4.88-8.93,7.82-24.14,11.63-30.49s14-11.62,12.64-15.35S142.91,224,141.38,226.72c-.35.62-3.62,5.73-3.75,7.13-.21-4.63-1.21-8.88-4.28-12.64-7.23,5.94-2.72,18.29-.63,25.37-2.77,6.35-6.35,15.15-10.47,20.16-5.17,6.29-10,9.35-15.69,14.31,1.74-24.83.24-56.24,5.1-80,2-9.79,2.29-17.69,3-27.4,6.7-9.55,11.68-22.84,16.61-33.25,1.53-3.24,1.49-5,2.29-8.14,9.68,1.12,17.44-.87,24.08-8.27C150,119,140,126.15,134,129.9c.07-3.76,1.93-12.49,3.17-15.05,2-4.14,9.59-10.58,8.13-13.09s-10.73,11.62-11.33,13.39c0,0-.41.63-.35.63.26-9.09-1.94-16.13-9.09-22.08-5.07,8.36,3.33,18.81,7.84,25.11-2.79,9.79-4.28,22.26-10,30.36-2.93,4.14-4.37,5.82-7,9.62-3.13-23,1.34-47.65-3.83-68.13-3.57-14.15-5.5-28.26-1.67-42.91,9.9,1.71,18,.07,25.23-7.3-7.82-5.41-18.44,1.85-24.87,5.88,3.75-11,8.28-20.28,15.84-29.64-1.94-1.11,1.2-8.22-5.59-.24s-17.3,28.64-17.54,43a180,180,0,0,0,1.92,29.8c-3.9-8-8.93-13.14-17.79-15.15-.73,9.67,11.38,15.44,18.26,18.83.27,4.57.9,5.63.8,10.78-.38,19.87,3.19,41.94-.09,62.64-.73,4.64-5.15,20.07-6.36,26.56-10.91-5.58-22-6.26-31.34-16-7-7.33-8.7-23.61-11.68-33.7,8.19-3.89,13.41-8.55,15.76-17.39-7.8-1.07-13,7.45-17,12.43,0-2.87-4.18-13.33-4.82-14.55-2-3.86-17.41-25.53-19-22.36s10.55,16.25,13.21,20.58a19,19,0,0,1,1.76,4.31c-7-6.63-14.3-9.84-24-8,3.35,9.18,16.79,9.3,24.51,9.66,2.69,12.07,2.89,23.77,7.44,35.69,1.61,4.22,5.07,9.93,7.58,14.09-10.77-3.46-20.44-3.79-30.58,1.73,7.62,10.18,24.12,5.11,33.91,2.72,9.54,9.26,20.71,16.35,32,23.12a24.92,24.92,0,0,0,0,3.35c3.16,26.5-.45,53.22-1.19,80.26-.35,12.85,1.33,27.22,3.59,40.25A165.22,165.22,0,0,1,85,317.23c-4.46-4-9.22-10.72-13.25-15.62,4.5-8.13,5.61-15.55,1.8-24.15-6.6,3.93-5.3,13.79-5.42,19.73-2.77-5.13-16.53-19.83-19-21.72-4.7-3.57-27.41-16.23-27-12.13s14.16,7.71,21.32,13.45S60.79,300.3,69,309.51c2.74,3.09,10.19,9.29,13.47,12.77-11.09,2.81-18.91,8.23-23.73,18.91,11.25,3.41,20.56-8.74,26.44-16.12,5.12,6.39,9.86,11.95,15.48,18.5.6,8.27.35,34.27.47,39.53.39,17.24-3.92,51.58,5.57,60.85S130.93,438.35,140.42,439Zm-6.87-195.54c-.28-2-.51-4.38-.62-6.38s-.1-4.74,0-6.37.13-1.76.28-3.15a31.34,31.34,0,0,1,.63,3.13,62.28,62.28,0,0,1,.64,6.37,37,37,0,0,1,0,4.71c-.09.85-.66,1.58-.82,2.4A7.06,7.06,0,0,1,133.55,243.43ZM121.92,275.1c1.62-.53,5.88-.59,8.3-.57s6.42,0,8.52.12,2.43.17,4.25.43c-1.85.37-2,.48-4.21.78s-5.83.64-8.55.71-6,0-8.73-.25l-.68-.06a9.15,9.15,0,0,1,.88-1.09Zm14.16-144.41c1.66-.77,4.11-1.8,6-2.47s4.58-1.51,6.17-1.91,1.77-.41,3.15-.67c-1.22.69-1.35.81-2.83,1.52s-4.1,1.84-6,2.5a64.76,64.76,0,0,1-6.3,1.9,25.65,25.65,0,0,1-2.66.47c-.11,0-.07-.1,0-.15C134.5,131.39,135,131.21,136.08,130.69Zm-4.37-15.63c-.82-1.65-1.9-4.06-2.62-5.89s-1.63-4.55-2.07-6.12-.45-1.76-.75-3.13c.72,1.21.84,1.33,1.6,2.8s1.93,4,2.65,5.91a63.37,63.37,0,0,1,2.06,6.25,17,17,0,0,1,.42,2c0,.17-.05.52-.15.36A22.3,22.3,0,0,1,131.71,115.06ZM119.38,44.12c1.81-.59,4.63-1.36,6.21-1.7s1.79-.35,3.16-.56a30.76,30.76,0,0,1-2.87,1.42c-1.48.66-4.21,1.71-6,2.3s-4.7,1.35-6.29,1.66a30.76,30.76,0,0,1-3.14.45c1.26-.62,1.49-.7,3-1.33S117.56,44.7,119.38,44.12Zm-16.32,45.8c-1.48-1.11-3.51-2.78-5-4.11s-3.48-3.33-4.58-4.54-1.19-1.36-2.08-2.46A31.19,31.19,0,0,1,94.1,80.6c1.33,1,3.53,2.73,5,4.09a61.84,61.84,0,0,1,4.63,4.68A16,16,0,0,1,105,91c.1.15.21.51,0,.41A24.39,24.39,0,0,1,103.06,89.92Zm-42.8,46.52C61.62,135,63.7,133.07,65,132s1.4-1.14,2.53-2c-.81,1.17-.85,1.31-1.88,2.62s-2.83,3.42-4.27,4.89a61.33,61.33,0,0,1-4.86,4.5s0,.14-.06,0-.18-.75-.23-1C57.44,139.49,58.89,137.87,60.26,136.44ZM43.59,126c-1.54-.34-4.37-1.08-6.18-1.66s-4.56-1.6-6-2.24-1.67-.75-2.9-1.39c1.37.2,1.58.19,3.17.52s4.42,1.06,6.25,1.65,4.65,1.65,6.08,2.31a25.79,25.79,0,0,1,2.7,1.41c.11.07.14,0,0,0A30.41,30.41,0,0,1,43.59,126Zm19.3,54.45c-2.91.28-6.32.51-9.2.62a75.68,75.68,0,0,1-9.18-.18c-2.32-.24-2.4-.3-4.36-.62,2-.3,2.05-.39,4.36-.6s6.21-.49,9.11-.56a77.71,77.71,0,0,1,9.37.25c.06,0,.07-.09.19.05s.46.73.62,1C63.47,180.44,63.27,180.44,62.89,180.48ZM70.67,299.9c0-2.1.08-4.48.24-6.51s.55-4.78.85-6.41.36-1.76.7-3.15c.11,1.42.17,1.56.2,3.22s0,4.44-.23,6.48-.51,4.5-.92,6.55a8.61,8.61,0,0,1-.23.88c-.13-.21-.51-.59-.59-.76S70.67,300,70.67,299.9Zm12,24.91c-1.92,1.73-4.2,3.67-6.22,5.28a76.78,76.78,0,0,1-6.9,4.68c-1.83,1.1-2,1.17-3.68,2a42.05,42.05,0,0,1,3-3c1.6-1.46,4.45-3.82,6.54-5.39a68,68,0,0,1,6.8-4.64,4.48,4.48,0,0,1,1.12-.56c.26-.06.36.45.6.48C83.49,324.13,83.2,324.36,82.7,324.81Z"/><path class="cls-28" d="M53.39,261.64a2,2,0,1,0,1-2.68A2,2,0,0,0,53.39,261.64Z"/><path class="cls-28" d="M47.6,252.7c-5.76,2.37-2.19,4.8,1.77,6.77-3.5.89-8.74,2.73-4,6.16.48,6.21,3.87,3.6,7,.43-.24,3.59-.1,9.17,4.64,5.69,6.06,1.47,4.59-2.58,2.54-6.51,3.35,1.34,8.69,2.93,6.84-2.65,3.26-5.3-1-5.17-5.41-4.44,2.31-2.77,5.47-7.36-.41-7.33-4-4.75-5.24-.63-5.89,3.77C52.77,251.54,49.38,247.09,47.6,252.7Zm2.94,2.78c.06,0,.3,0,.45.08a3.69,3.69,0,0,1,.51.2,4.64,4.64,0,0,1,.85.71,6.05,6.05,0,0,1,.91,1.76c.13.34,0,.57.12.58s.42-.34.7-.45A4.13,4.13,0,0,1,56,258.2c.13,0,.38-.44.56-.58a7,7,0,0,0,.58-.68,8.15,8.15,0,0,0,.57-.8,4.61,4.61,0,0,0,.4-.85,2.8,2.8,0,0,0,.11-.44,3.05,3.05,0,0,0,.05-.41c0-.15-.05-.51,0-.59s-.07-.32,0-.23a2.46,2.46,0,0,1,.4.8c0,.07.06.3.07.46a3,3,0,0,1,0,.55,4,4,0,0,1-.41,1,5,5,0,0,1-1.42,1.4,4.63,4.63,0,0,1-.79.41,2.89,2.89,0,0,1,1.6,1.37c.16.27.13.66.25.87s.37.16.58.3a5.61,5.61,0,0,0,.82.34,7.89,7.89,0,0,0,.94.3,4.74,4.74,0,0,0,.93.12,3.1,3.1,0,0,0,.46,0c.16,0,.25-.06.4-.09s.47-.2.55-.22.28-.17.22-.08a2.6,2.6,0,0,1-.65.62c-.06,0-.27.15-.41.21a2.92,2.92,0,0,1-.53.13,4.65,4.65,0,0,1-1.1-.07,5.18,5.18,0,0,1-1.77-.91,5.09,5.09,0,0,1-.45-.42,2.8,2.8,0,0,1-1.51,2.48c-.1.06-.24,0-.3.12s0,.1,0,.29a7.13,7.13,0,0,0-.06.87,8,8,0,0,0,0,1,4.17,4.17,0,0,0,.17.93,4.27,4.27,0,0,0,.16.42,3.1,3.1,0,0,0,.21.36,5.18,5.18,0,0,0,.38.46c.05.07.24.23.15.18a3.11,3.11,0,0,1-.8-.42,2.78,2.78,0,0,1-.32-.34,2.32,2.32,0,0,1-.29-.46,3.36,3.36,0,0,1-.27-1.07,5.05,5.05,0,0,1,.32-2c0-.06.09-.11,0-.11a2.93,2.93,0,0,1-2.82-1.32c-.06-.08-.13,0-.3,0a7.4,7.4,0,0,0-.85.21,7.24,7.24,0,0,0-.93.31,4,4,0,0,0-.82.45,2,2,0,0,0-.36.29,3.85,3.85,0,0,0-.27.3c-.1.11-.26.43-.32.5s-.13.3-.12.2a2.56,2.56,0,0,1,.15-.89,2.47,2.47,0,0,1,.22-.41,1.91,1.91,0,0,1,.35-.41,3.9,3.9,0,0,1,.94-.6,5.3,5.3,0,0,1,2-.31c.08,0,.19.07.17,0a3.15,3.15,0,0,1,.48-2.81c.09-.14-.22-.34-.29-.55a4.61,4.61,0,0,0-.46-.75,5.53,5.53,0,0,0-.58-.79,4.1,4.1,0,0,0-.68-.65c-.19-.13-.24-.17-.38-.25a4.07,4.07,0,0,0-.38-.17c-.14-.05-.5-.11-.58-.14s-.32,0-.22-.06A2.53,2.53,0,0,1,50.54,255.48Z"/><path class="cls-28" d="M31.87,296.38a2.82,2.82,0,1,0,1.34-3.76A2.78,2.78,0,0,0,31.87,296.38Z"/><path class="cls-28" d="M23.73,283.82c-8.09,3.33-3.08,6.73,2.49,9.51-4.93,1.24-12.28,3.84-5.57,8.65.67,8.72,5.43,5,9.8.59-.34,5.05-.14,12.89,6.5,8,8.51,2.08,6.46-3.62,3.58-9.14,4.71,1.89,12.2,4.13,9.59-3.71,4.59-7.44-1.44-7.27-7.59-6.24,3.25-3.89,7.68-10.33-.57-10.28-5.67-6.68-7.36-.89-8.27,5.28C31,282.19,26.23,275.94,23.73,283.82Zm4.13,3.9a5.12,5.12,0,0,1,.64.12,3,3,0,0,1,.71.29,5.94,5.94,0,0,1,1.2,1,8.15,8.15,0,0,1,1.29,2.52c.11.33,0,.78.16.77s.59-.48,1-.63a5.37,5.37,0,0,1,2.68-.23c.19,0,.54-.62.79-.83a7.86,7.86,0,0,0,.81-.94,11.47,11.47,0,0,0,.8-1.13,6.1,6.1,0,0,0,.57-1.19,4.76,4.76,0,0,0,.16-.62,3.81,3.81,0,0,0,.06-.57c0-.21-.06-.72-.06-.84s-.09-.45,0-.33a4.62,4.62,0,0,1,.56,1.14,5.43,5.43,0,0,1,.08.65,2.68,2.68,0,0,1-.05.76,5.2,5.2,0,0,1-.57,1.44,7.19,7.19,0,0,1-2,2,5.88,5.88,0,0,1-1.11.57,4,4,0,0,1,2.24,1.94c.23.37.18.91.36,1.21s.51.22.81.42a9.47,9.47,0,0,0,1.15.48,11.92,11.92,0,0,0,1.32.42,6.45,6.45,0,0,0,1.31.17,3.82,3.82,0,0,0,.64,0,3.07,3.07,0,0,0,.56-.12,7.92,7.92,0,0,0,.78-.31c.12,0,.39-.23.3-.11a3.41,3.41,0,0,1-.9.87,3.59,3.59,0,0,1-.59.29,3.31,3.31,0,0,1-.74.18,5.2,5.2,0,0,1-1.55-.09,7.24,7.24,0,0,1-2.54-1.32c-.28-.23-.33-.32-.56-.53A3.94,3.94,0,0,1,36,298.56c-.14.09-.33.05-.43.17s0,.15-.06.41-.07.83-.09,1.22a10.77,10.77,0,0,0,0,1.39,6.73,6.73,0,0,0,.24,1.29,4.94,4.94,0,0,0,.24.6,3.41,3.41,0,0,0,.28.5c.11.18.47.54.54.64s.34.31.21.26a3.77,3.77,0,0,1-1.12-.6,3.49,3.49,0,0,1-.45-.47,2.53,2.53,0,0,1-.41-.65,5,5,0,0,1-.38-1.51,7,7,0,0,1,.46-2.83l.07-.15a3.92,3.92,0,0,1-4-1.87l-.44.09c-.29.05-.81.18-1.19.29a13.35,13.35,0,0,0-1.31.43,6.29,6.29,0,0,0-1.16.64,3.3,3.3,0,0,0-.49.4,5.06,5.06,0,0,0-.39.43c-.14.15-.37.61-.45.71s-.19.42-.17.27a4.55,4.55,0,0,1,.21-1.24,5,5,0,0,1,.31-.58,3.19,3.19,0,0,1,.5-.59A5.07,5.07,0,0,1,27.9,297a7,7,0,0,1,2.83-.42,1,1,0,0,1,.25,0,4,4,0,0,1,.7-3.95l-.44-.78c-.18-.32-.43-.71-.66-1.06a11.36,11.36,0,0,0-.82-1.11,6.18,6.18,0,0,0-1-.91,4.69,4.69,0,0,0-.54-.35,3.1,3.1,0,0,0-.53-.24c-.19-.08-.69-.16-.81-.2s-.46-.05-.31-.09A3.9,3.9,0,0,1,27.86,287.72Z"/><path class="cls-28" d="M26.2,158.05a2.83,2.83,0,1,0,2-3.43A2.78,2.78,0,0,0,26.2,158.05Z"/><path class="cls-28" d="M20.61,144.2c-8.58,1.73-4.32,6,.63,9.8-5.06.28-12.8,1.44-7.12,7.43-1,8.69,4.38,6,9.5,2.43-1.29,4.9-2.58,12.6,4.88,9.06,8,3.64,7-2.33,5.24-8.29,4.26,2.74,11.2,6.36,10.13-1.83,5.92-6.43,0-7.4-6.27-7.55,3.92-3.2,9.51-8.69,1.4-10.19-4.3-7.63-7.06-2.25-9.13,3.62C28,144,24.55,137,20.61,144.2Zm3.3,4.6a5.64,5.64,0,0,1,.61.24,3.24,3.24,0,0,1,.64.42,5.24,5.24,0,0,1,1,1.2,8,8,0,0,1,.78,2.72c.05.33-.12.76,0,.77s.67-.35,1.08-.43a5.46,5.46,0,0,1,2.67.28c.18.06.65-.5.94-.66a8.6,8.6,0,0,0,1-.77,11,11,0,0,0,1-.95,6.51,6.51,0,0,0,.79-1.07,3.94,3.94,0,0,0,.27-.57,3.14,3.14,0,0,0,.17-.55c.06-.2.08-.71.11-.83s0-.46,0-.33a3.63,3.63,0,0,1,.33,1.22,4,4,0,0,1,0,.65,3.32,3.32,0,0,1-.2.74,5.52,5.52,0,0,1-.83,1.31,7.42,7.42,0,0,1-2.33,1.57,6,6,0,0,1-1.2.34,4.05,4.05,0,0,1,1.83,2.32c.15.42,0,.93.12,1.26s.46.31.72.56a7,7,0,0,0,1,.69,10.05,10.05,0,0,0,1.21.66,5.93,5.93,0,0,0,1.25.42,4.29,4.29,0,0,0,1.21.07c.21,0,.7-.15.82-.16s.43-.16.33,0a3.72,3.72,0,0,1-1.06.69,4.69,4.69,0,0,1-.63.16,2.84,2.84,0,0,1-.77.05,5.32,5.32,0,0,1-1.5-.4,7.06,7.06,0,0,1-2.24-1.76,6.87,6.87,0,0,1-.45-.63,4,4,0,0,1-2.75,3c-.15.05-.34,0-.45.09s0,.14-.14.38A15.7,15.7,0,0,0,28.7,164a5.85,5.85,0,0,0,0,1.32,5,5,0,0,0,.11.63c.06.22.12.34.19.54s.36.62.4.74.28.36.16.28a3.44,3.44,0,0,1-1-.79,3.07,3.07,0,0,1-.36-.55,3.47,3.47,0,0,1-.28-.71,4.87,4.87,0,0,1-.08-1.55,7,7,0,0,1,1-2.69,1.1,1.1,0,0,0,.09-.14,3.91,3.91,0,0,1-3.53-2.58H25c-.29,0-.83,0-1.23.06s-1,.11-1.37.18a6.33,6.33,0,0,0-1.25.4,4.07,4.07,0,0,0-.57.31,4.22,4.22,0,0,0-.46.34c-.16.13-.48.54-.57.62s-.27.37-.23.23a4.49,4.49,0,0,1,.45-1.18,4.18,4.18,0,0,1,.42-.51,2.71,2.71,0,0,1,.59-.48,5,5,0,0,1,1.45-.56,7.07,7.07,0,0,1,2.86.11l.24.08a3.94,3.94,0,0,1,1.44-3.74l-.29-.85c-.11-.34-.28-.78-.44-1.17a11.78,11.78,0,0,0-.6-1.24,5.78,5.78,0,0,0-.77-1.07,3.76,3.76,0,0,0-.46-.45,4.48,4.48,0,0,0-.47-.33c-.18-.11-.66-.29-.76-.35s-.44-.13-.29-.14A4,4,0,0,1,23.91,148.8Z"/><path class="cls-28" d="M10.08,259.76a2,2,0,1,0,1-2.72A2,2,0,0,0,10.08,259.76Z"/><path class="cls-28" d="M4.19,250.66C-1.68,253.07,2,255.54,6,257.55c-3.56.9-8.89,2.78-4,6.27.48,6.32,3.94,3.65,7.1.43-.24,3.65-.1,9.34,4.72,5.79,6.16,1.5,4.67-2.63,2.58-6.63,3.41,1.37,8.85,3,7-2.68,3.32-5.4-1.06-5.27-5.51-4.53,2.35-2.82,5.57-7.48-.41-7.45-4.11-4.84-5.33-.63-6,3.83C9.45,249.48,6,245,4.19,250.66Zm3,2.83a3.34,3.34,0,0,1,.47.09,3.69,3.69,0,0,1,.51.2,4.75,4.75,0,0,1,.87.72,6.23,6.23,0,0,1,.92,1.79c.13.35,0,.58.13.58s.43-.33.71-.44a3.88,3.88,0,0,1,2-.17c.13,0,.38-.45.57-.6a5.13,5.13,0,0,0,.58-.68,6,6,0,0,0,.58-.82,4.43,4.43,0,0,0,.41-.86,2.35,2.35,0,0,0,.12-.45c0-.17,0-.27,0-.42s0-.51,0-.6-.08-.33,0-.24a2.7,2.7,0,0,1,.41.82,3.68,3.68,0,0,1,.06.47,2.39,2.39,0,0,1,0,.56,3.87,3.87,0,0,1-.41,1,5.32,5.32,0,0,1-1.44,1.44,4.75,4.75,0,0,1-.81.41,3,3,0,0,1,1.63,1.4c.16.28.13.67.26.88s.37.16.59.3a5.31,5.31,0,0,0,.83.35,6.17,6.17,0,0,0,1,.3,4.23,4.23,0,0,0,.95.13,2,2,0,0,0,.46,0,2.26,2.26,0,0,0,.41-.09,5.74,5.74,0,0,0,.57-.22c.08,0,.29-.17.22-.08a2.88,2.88,0,0,1-.66.63,2.31,2.31,0,0,1-.42.21,2.37,2.37,0,0,1-.54.13,3.93,3.93,0,0,1-1.12-.07,5.25,5.25,0,0,1-1.8-.92,3.37,3.37,0,0,1-.46-.43,2.83,2.83,0,0,1-1.53,2.52c-.1.06-.24,0-.31.13s0,.1,0,.29-.05.6-.07.89,0,.7,0,1a5.06,5.06,0,0,0,.18.94A2.74,2.74,0,0,0,13,265a3.1,3.1,0,0,0,.21.36,5.71,5.71,0,0,0,.39.47c.05.07.25.22.14.18a2.68,2.68,0,0,1-.81-.43,3.86,3.86,0,0,1-.32-.34,1.84,1.84,0,0,1-.29-.47,3.78,3.78,0,0,1-.29-1.09,5.29,5.29,0,0,1,.34-2.05s.08-.11,0-.1a3,3,0,0,1-2.88-1.35c-.06-.07-.12.05-.3.05a7,7,0,0,0-.86.21,9.54,9.54,0,0,0-1,.31,4.3,4.3,0,0,0-.83.46,3.42,3.42,0,0,0-.36.29,2.61,2.61,0,0,0-.28.31,6.05,6.05,0,0,0-.33.52c0,.07-.13.3-.13.19a2.94,2.94,0,0,1,.16-.9,4.56,4.56,0,0,1,.22-.42,2.31,2.31,0,0,1,.36-.42,3.68,3.68,0,0,1,1-.6,5.52,5.52,0,0,1,2-.32c.08,0,.2.07.18,0A3.15,3.15,0,0,1,9.9,257c.1-.14-.23-.34-.29-.56a4.38,4.38,0,0,0-.47-.76,6.42,6.42,0,0,0-.59-.81,4.12,4.12,0,0,0-.69-.65,2.64,2.64,0,0,0-.4-.26,3.17,3.17,0,0,0-.38-.17c-.14-.06-.5-.12-.59-.15s-.32,0-.22-.06A2.38,2.38,0,0,1,7.17,253.49Z"/><path class="cls-28" d="M156.49,212.91a1.79,1.79,0,0,0,2,1.57,1.79,1.79,0,1,0-2-1.57Z"/><path class="cls-28" d="M154.2,203.7c-5.58.37-3.43,3.4-.54,6.24-3.19-.24-8.33-.2-5.18,4.09-1.38,5.42,2.36,4.09,5.87,2.32-1.25,3-2.63,7.69,2.37,6.1,4.71,2.93,4.67-.82,4-4.77,2.48,2.06,6.54,5,6.61-.28,4.34-3.56.59-4.68-3.33-5.29,2.75-1.66,6.86-4.65,1.83-6.31-2.07-5.19-4.3-2-6.17,1.51C159,204.05,157.39,199.52,154.2,203.7Zm1.66,3.19a2.62,2.62,0,0,1,.37.21,2,2,0,0,1,.38.31,4.13,4.13,0,0,1,.53.87,6.57,6.57,0,0,1,.23,1.72c0,.32-.18.45,0,.52s.36-.18.76-.18a3.9,3.9,0,0,1,1.64.4c.09.06.47-.26.66-.33a5.91,5.91,0,0,0,.69-.41,7.34,7.34,0,0,0,.73-.51,4.39,4.39,0,0,0,.61-.61c.12-.17.16-.22.23-.34a1.74,1.74,0,0,0,.16-.34c.06-.12.12-.44.15-.51s0-.29.06-.2a2,2,0,0,1,.09.8,2.57,2.57,0,0,1-.08.41,2.15,2.15,0,0,1-.2.45,3.77,3.77,0,0,1-.68.78,6.88,6.88,0,0,1-1.6.77c-.28.1-.79,0-.72.12a3.29,3.29,0,0,1,.88,1.6c0,.27-.06.58,0,.8s.27.24.41.42a5.5,5.5,0,0,0,.61.52,6.21,6.21,0,0,0,.72.51,3.77,3.77,0,0,0,.76.37l.4.11c.15,0,.24,0,.37,0s.46,0,.54,0,.29-.06.21,0a2.38,2.38,0,0,1-.73.34,2,2,0,0,1-.42,0,1.52,1.52,0,0,1-.5,0,3.51,3.51,0,0,1-1-.39,5.4,5.4,0,0,1-1.23-1.25c-.18-.33-.13-.22-.25-.47a2.57,2.57,0,0,1-2,1.66c-.1,0-.21-.05-.3,0s0,.09-.12.23a6.45,6.45,0,0,0-.31.72,7.35,7.35,0,0,0-.28.83,4.37,4.37,0,0,0-.12.83,2.3,2.3,0,0,0,0,.4,3.21,3.21,0,0,0,.08.36c0,.13.17.42.19.5s.15.26.08.19a2.4,2.4,0,0,1-.56-.58,1.5,1.5,0,0,1-.18-.38,1.56,1.56,0,0,1-.12-.47,3,3,0,0,1,.08-1,4.83,4.83,0,0,1,.86-1.56s.1-.07.06-.08a2.62,2.62,0,0,1-2.05-1.91c0-.08-.12,0-.27,0a7.55,7.55,0,0,0-.78-.06,9,9,0,0,0-.9,0,4.74,4.74,0,0,0-.83.15,2.8,2.8,0,0,0-.39.14,1.93,1.93,0,0,0-.32.19,4.43,4.43,0,0,0-.42.33c-.07.05-.2.22-.16.13a2.47,2.47,0,0,1,.38-.7,1.81,1.81,0,0,1,.31-.29,1.42,1.42,0,0,1,.43-.25,2.87,2.87,0,0,1,1-.24,5.12,5.12,0,0,1,1.77.31c.06,0,.15.11.15.06a2.72,2.72,0,0,1,1.22-2.23c.12-.1-.1-.36-.09-.55a4.24,4.24,0,0,0-.17-.76,4.51,4.51,0,0,0-.26-.84,4,4,0,0,0-.39-.74,2.57,2.57,0,0,0-.25-.32,3.08,3.08,0,0,0-.27-.25c-.1-.09-.39-.24-.46-.29s-.27-.12-.17-.11A2.53,2.53,0,0,1,155.86,206.89Z"/><path class="cls-28" d="M127.32,207.56a2.46,2.46,0,0,0,2.84,1.79,2.05,2.05,0,0,0,1.88-2.48,2.47,2.47,0,0,0-2.84-1.81A2.07,2.07,0,0,0,127.32,207.56Z"/><path class="cls-28" d="M122.83,196.71c-7.67,1-4,4.36.43,7.42-3.63,0-11.74.37-6.33,5.22-1,6.68,3.76,4.59,8,2.45-1.56,4.3-2.3,9.07,3.73,7.19,6,3.42,6-.78,4.75-5.82,3.11,2.29,8.74,6.07,8.53-.54,5.67-4.7.1-5.81-4.75-6.39,3.64-2.25,8.18-6,1.69-7.74-3.1-6.1-5.75-2.49-8,2.15C129.33,196,127,191.48,122.83,196.71Zm2.92,3.61a3.14,3.14,0,0,1,.52.22,3.32,3.32,0,0,1,.53.36,5.86,5.86,0,0,1,.79,1,6.24,6.24,0,0,1,.55,2.1c.05.4-.14.61,0,.64s.59-.22.94-.25a5.46,5.46,0,0,1,2.27.41c.15.06.58-.34.82-.43a10.82,10.82,0,0,0,1.75-1.17,4.18,4.18,0,0,0,.72-.75,4.93,4.93,0,0,0,.26-.43,2.56,2.56,0,0,0,.16-.4c.06-.15.1-.54.13-.63s0-.35.06-.25a2.61,2.61,0,0,1,.22,1,2.86,2.86,0,0,1-.06.5,2.25,2.25,0,0,1-.19.55,4.36,4.36,0,0,1-.77.94,6.24,6.24,0,0,1-2.05,1,5.73,5.73,0,0,1-1,.17,3.4,3.4,0,0,1,1.47,1.91c.11.34-.05.7,0,1s.38.27.59.48a7.62,7.62,0,0,0,.86.61,9.89,9.89,0,0,0,1,.6,5.47,5.47,0,0,0,1,.43,4.14,4.14,0,0,0,.53.12c.19,0,.31,0,.48,0s.6-.06.7,0,.37-.09.27,0a2.92,2.92,0,0,1-.92.44,3.74,3.74,0,0,1-.54.08,3.12,3.12,0,0,1-.65,0A4.7,4.7,0,0,1,135,210a6.58,6.58,0,0,1-1.81-1.54,4,4,0,0,1-.36-.51,3,3,0,0,1-2.47,2.09c-.12,0-.29,0-.39,0s0,.11-.13.29a8.6,8.6,0,0,0-.33.89,6.67,6.67,0,0,0-.26,1,4.39,4.39,0,0,0-.07,1c0,.25,0,.32.07.49a4.13,4.13,0,0,0,.14.42c.06.15.28.5.32.59s.2.3.1.22a4.06,4.06,0,0,1-.79-.67,4.45,4.45,0,0,1-.28-.44,2.23,2.23,0,0,1-.2-.55,3.3,3.3,0,0,1,0-1.18,5.3,5.3,0,0,1,.95-2s.13-.08.08-.09a3.57,3.57,0,0,1-2.9-2.2c0-.1-.16,0-.36,0a10.37,10.37,0,0,0-1,0,11.57,11.57,0,0,0-1.17.05,6.36,6.36,0,0,0-1.09.22,4.4,4.4,0,0,0-.49.2c-.17.08-.26.15-.4.23s-.44.37-.52.43-.24.27-.2.16a2.63,2.63,0,0,1,.43-.86,3.17,3.17,0,0,1,.37-.37,2.94,2.94,0,0,1,.53-.33,4.92,4.92,0,0,1,1.26-.34,7.18,7.18,0,0,1,2.41.27c.09,0,.21.13.2.06a3.1,3.1,0,0,1,1.35-2.77c.15-.12-.16-.42-.17-.65a4.61,4.61,0,0,0-.32-.92,8.67,8.67,0,0,0-.45-1,5.1,5.1,0,0,0-.61-.87,3.18,3.18,0,0,0-.38-.37,2.63,2.63,0,0,0-.39-.29c-.16-.09-.6-.24-.69-.29s-.4-.12-.26-.12A4.54,4.54,0,0,1,125.75,200.32Z"/><path class="cls-28" d="M129,12a2.17,2.17,0,1,0,2.82-1.22A2.14,2.14,0,0,0,129,12Z"/><path class="cls-28" d="M131.79.85c-6.13-2.8-5.4,1.81-4,6.39-3.28-2.1-8.62-4.88-7.79,1.42-4.54,5,0,5.7,4.83,5.81-3,2.47-7.29,6.69-1,7.85,3.31,5.87,5.43,1.73,7-2.79,1.42,3.62,4.11,9,7.14,3.43,6.6-1.33,3.3-4.63-.5-7.54,3.9-.22,9.84-1.12,5.47-5.72.76-6.69-3.38-4.59-7.33-1.87C136.53,4.07,137.52-1.88,131.79.85Zm0,4.36a3,3,0,0,1,.27.43,2.69,2.69,0,0,1,.22.54,5.21,5.21,0,0,1,.07,1.2,6.65,6.65,0,0,1-.71,2c-.18.35-.44.44-.37.52s.58.09.87.23a4.26,4.26,0,0,1,1.54,1.39c.09.11.64,0,.88,0a8.2,8.2,0,0,0,1,0,9.48,9.48,0,0,0,1.05-.15,4.82,4.82,0,0,0,1-.3,3.16,3.16,0,0,0,.43-.24,3.32,3.32,0,0,0,.36-.26c.12-.11.36-.41.43-.48s.21-.29.18-.18a3,3,0,0,1-.35.91,2.58,2.58,0,0,1-.31.39,3,3,0,0,1-.46.38,4.28,4.28,0,0,1-1.11.43,5.52,5.52,0,0,1-2.16-.08,4.66,4.66,0,0,1-.9-.32,3.13,3.13,0,0,1,.1,2.27c-.1.33-.42.58-.49.84s.14.4.19.68a6.66,6.66,0,0,0,.33.9,9.21,9.21,0,0,0,.46.95,4.66,4.66,0,0,0,.59.83,3.45,3.45,0,0,0,.36.34,3.38,3.38,0,0,0,.36.25c.14.1.51.23.59.28s.34.09.23.11a2.56,2.56,0,0,1-1-.05,4.58,4.58,0,0,1-.47-.18,3,3,0,0,1-.5-.32,4.72,4.72,0,0,1-.76-.92,5.77,5.77,0,0,1-.59-2.07,3.46,3.46,0,0,1,0-.65,3,3,0,0,1-3.07.63c-.12,0-.2-.16-.32-.15s-.09.07-.26.18-.51.4-.74.59a8.81,8.81,0,0,0-.76.74,4.64,4.64,0,0,0-.61.81c-.11.22-.14.28-.21.45a4,4,0,0,0-.13.42c0,.16-.06.55-.08.64s0,.36,0,.25a3.08,3.08,0,0,1-.26-.94,3.41,3.41,0,0,1,0-.5,2.55,2.55,0,0,1,.15-.57,4,4,0,0,1,.64-1,5.59,5.59,0,0,1,1.83-1.22s.14,0,.11,0a3.17,3.17,0,0,1-1-3.21c0-.09-.12-.06-.26-.19a8.07,8.07,0,0,0-.78-.52c-.25-.16-.65-.37-.93-.51a4.52,4.52,0,0,0-1-.31,2.63,2.63,0,0,0-.48-.07,3.3,3.3,0,0,0-.45,0c-.16,0-.54.11-.63.12s-.34.11-.25,0a3.53,3.53,0,0,1,.81-.53,3.65,3.65,0,0,1,.49-.13,2.48,2.48,0,0,1,.59,0,4.14,4.14,0,0,1,1.16.3,6,6,0,0,1,1.73,1.35c0,.07.08.21.11.15A3.38,3.38,0,0,1,131,9.9c.18,0,.11-.42.22-.62a6.16,6.16,0,0,0,.26-.93,8.68,8.68,0,0,0,.19-1,4.26,4.26,0,0,0,0-1,3.57,3.57,0,0,0-.08-.49,4.11,4.11,0,0,0-.15-.42c-.06-.15-.27-.47-.31-.56s-.22-.28-.12-.22A2.72,2.72,0,0,1,131.77,5.21Z"/><path class="cls-28" d="M87.11,47.8a1.94,1.94,0,1,0,2.52-1.09A1.92,1.92,0,0,0,87.11,47.8Z"/><path class="cls-28" d="M89.57,37.83c-5.47-2.5-4.82,1.62-3.59,5.71-2.93-1.88-7.71-4.36-7,1.27-4.07,4.43,0,5.09,4.32,5.19-2.7,2.21-6.52,6-1,7,3,5.23,4.85,1.54,6.27-2.5,1.26,3.24,3.67,8.06,6.38,3.07,5.89-1.19,2.95-4.14-.45-6.74,3.48-.2,8.79-1,4.88-5.12.69-6-3-4.1-6.54-1.66C93.81,40.7,94.7,35.38,89.57,37.83Zm0,3.9a3.46,3.46,0,0,1,.24.37,3.41,3.41,0,0,1,.2.5,4.55,4.55,0,0,1,.06,1.06,5.84,5.84,0,0,1-.64,1.8c-.14.32-.41.38-.32.47s.41,0,.82.22a4.09,4.09,0,0,1,1.33,1.22c.06.09.58,0,.79,0a6.49,6.49,0,0,0,.85,0,7.55,7.55,0,0,0,.94-.12,4.45,4.45,0,0,0,.87-.28,1.84,1.84,0,0,0,.38-.21,2.05,2.05,0,0,0,.32-.24c.11-.09.33-.36.39-.42s.19-.26.16-.16a2.71,2.71,0,0,1-.31.81,2.1,2.1,0,0,1-.28.35,2.14,2.14,0,0,1-.42.34,3.45,3.45,0,0,1-1,.39,5.28,5.28,0,0,1-1.9-.07,4,4,0,0,1-.79-.3,2.82,2.82,0,0,1,.08,2c-.09.29-.38.52-.44.75s.13.36.17.6a4.69,4.69,0,0,0,.31.8,5.59,5.59,0,0,0,.4.86,5,5,0,0,0,.53.74,2.73,2.73,0,0,0,.32.3,2.13,2.13,0,0,0,.32.23,5.64,5.64,0,0,0,.53.24c.07,0,.3.08.2.1a2.22,2.22,0,0,1-.87,0,3.61,3.61,0,0,1-.42-.16,2.7,2.7,0,0,1-.44-.29,4,4,0,0,1-.68-.82,5.11,5.11,0,0,1-.53-1.85,3.67,3.67,0,0,1,0-.58,2.72,2.72,0,0,1-2.74.57c-.11,0-.18-.15-.29-.14s-.07.06-.23.16a5.27,5.27,0,0,0-.66.53,8.31,8.31,0,0,0-.68.65,4.54,4.54,0,0,0-.54.73,4.41,4.41,0,0,0-.19.4c-.06.15-.07.24-.12.38s-.05.49-.07.57,0,.32,0,.22a3.16,3.16,0,0,1-.23-.83c0-.07,0-.3,0-.45a1.81,1.81,0,0,1,.13-.51,3.35,3.35,0,0,1,.58-.9,5,5,0,0,1,1.63-1.1s.13,0,.1,0a2.81,2.81,0,0,1-.94-2.86c0-.09-.11-.06-.23-.18a5.32,5.32,0,0,0-.7-.46,6.72,6.72,0,0,0-.84-.46,4.76,4.76,0,0,0-.86-.28,2.74,2.74,0,0,0-.43-.06,2.64,2.64,0,0,0-.4,0,5.05,5.05,0,0,0-.56.11c-.09,0-.3.1-.22,0a3,3,0,0,1,.72-.48,2.14,2.14,0,0,1,.44-.11,1.6,1.6,0,0,1,.52,0,3.34,3.34,0,0,1,1,.27,5.07,5.07,0,0,1,1.54,1.21s.08.17.11.12a3,3,0,0,1,2.28-1.51c.16,0,.1-.38.2-.56a4,4,0,0,0,.23-.82,5.65,5.65,0,0,0,.17-.93,4,4,0,0,0,0-.91c0-.22,0-.28-.08-.44a2,2,0,0,0-.14-.37c-.05-.14-.24-.43-.27-.51s-.2-.24-.11-.19A2.23,2.23,0,0,1,89.56,41.73Z"/><path class="cls-28" d="M124.49,76.75a2.62,2.62,0,1,0,3.39-1.46A2.56,2.56,0,0,0,124.49,76.75Z"/><path class="cls-28" d="M127.81,63.36C120.45,60,121.32,65.52,123,71c-3.93-2.53-10.35-5.87-9.35,1.69-5.45,6,.06,6.85,5.8,7-3.62,3-8.75,8-1.26,9.42,4,7,6.51,2.08,8.42-3.35,1.7,4.35,4.93,10.83,8.56,4.12,7.92-1.6,4-5.57-.6-9.05,4.68-.27,11.82-1.35,6.57-6.88.91-8-4.06-5.51-8.79-2.23C133.5,67.22,134.69,60.07,127.81,63.36Zm0,5.23a4.61,4.61,0,0,1,.33.51,3.22,3.22,0,0,1,.26.66,5.07,5.07,0,0,1,.09,1.43,7.65,7.65,0,0,1-.88,2.46c-.15.28-.51.51-.42.59s.69.1,1.05.27a5,5,0,0,1,1.85,1.66c.1.13.76,0,1.06,0a9.12,9.12,0,0,0,1.14,0,10.88,10.88,0,0,0,1.26-.17,6.43,6.43,0,0,0,1.17-.38,2.71,2.71,0,0,0,.52-.28,3.56,3.56,0,0,0,.42-.32c.15-.12.44-.49.53-.56s.22-.35.21-.22A3.1,3.1,0,0,1,136,75.3a3.32,3.32,0,0,1-.37.47,3.79,3.79,0,0,1-.55.45,5.06,5.06,0,0,1-1.34.52,6.67,6.67,0,0,1-2.58-.09,5.9,5.9,0,0,1-1.09-.39,3.74,3.74,0,0,1,.12,2.73c-.12.39-.51.69-.59,1s.17.49.22.81a7.63,7.63,0,0,0,.41,1.08,9.34,9.34,0,0,0,.55,1.15,5.74,5.74,0,0,0,.71,1,5.34,5.34,0,0,0,.43.42c.17.13.28.19.44.3s.6.27.7.33.4.11.27.13a3.25,3.25,0,0,1-1.17-.06,3.12,3.12,0,0,1-.56-.22,2.81,2.81,0,0,1-.59-.38,4.5,4.5,0,0,1-.92-1.11,6.58,6.58,0,0,1-.71-2.54c0-.32,0-.42,0-.71a3.65,3.65,0,0,1-3.68.75c-.15,0-.24-.19-.39-.18s-.1.09-.31.22a10.26,10.26,0,0,0-.88.7,10.89,10.89,0,0,0-.92.88,5.48,5.48,0,0,0-.72,1,5,5,0,0,0-.26.53,3.72,3.72,0,0,0-.16.51c-.05.18-.06.66-.09.77s0,.42,0,.29a3.65,3.65,0,0,1-.31-1.12,3.8,3.8,0,0,1,0-.61,2.46,2.46,0,0,1,.18-.68,4.74,4.74,0,0,1,.76-1.21,6.74,6.74,0,0,1,2.2-1.47c.06,0,.18,0,.13,0a3.81,3.81,0,0,1-1.26-3.85c0-.12-.15-.08-.31-.24a8.07,8.07,0,0,0-.94-.62,11.93,11.93,0,0,0-1.12-.61,6.17,6.17,0,0,0-1.15-.38l-.59-.08c-.21,0-.34,0-.53,0s-.65.14-.76.15-.41.13-.3.05a3.75,3.75,0,0,1,1-.64,4.72,4.72,0,0,1,.58-.16,3,3,0,0,1,.71,0,4.48,4.48,0,0,1,1.38.36,6.29,6.29,0,0,1,2.08,1.64,2.31,2.31,0,0,1,.14.19,3.66,3.66,0,0,1,3.1-2c.1-.29.15-.47.25-.79s.21-.74.3-1.11a11,11,0,0,0,.23-1.25,6.19,6.19,0,0,0,0-1.22,3.29,3.29,0,0,0-.11-.59,3.25,3.25,0,0,0-.17-.5c-.07-.18-.33-.58-.37-.68s-.26-.34-.15-.27A3.47,3.47,0,0,1,127.78,68.59Z"/><path class="cls-28" d="M75,164.61a2.15,2.15,0,0,0,2.17,2.17,2.08,2.08,0,0,0,2.15-2.12,2.16,2.16,0,0,0-2.17-2.18A2.08,2.08,0,0,0,75,164.61Z"/><path class="cls-28" d="M73.42,153.33c-6.75-.4-4.32,3.64-1.3,7.32-3.72-.72-9.94-1.41-6.69,4.1-2.28,6.11,2.29,5.17,6.65,3.61-1.85,3.47-3.48,8.26,2.28,7.36,5.11,4.17,5.37-.09,5.11-4.84,2.59,2.72,7.09,6.92,7.81.66,5.63-3.59,1.19-5.45-3.27-6.75,3.55-1.62,8.65-4.58,2.95-7.25-1.74-6.43-4.8-3.09-7.46.89C79,154.59,77.74,148.73,73.42,153.33Zm1.64,4a4.92,4.92,0,0,1,.41.29,3.55,3.55,0,0,1,.4.43,5.39,5.39,0,0,1,.51,1.08,6.68,6.68,0,0,1,.08,2.11c0,.39-.24.56-.14.62s.56-.13.88-.1a4.16,4.16,0,0,1,1.93.73c.12.08.57-.24.81-.3a6.23,6.23,0,0,0,.87-.38,9,9,0,0,0,.91-.5,4.28,4.28,0,0,0,.78-.63,2.74,2.74,0,0,0,.31-.37A2.49,2.49,0,0,0,83,160c.08-.14.19-.51.23-.59s.08-.35.1-.23a3,3,0,0,1,0,1,3.14,3.14,0,0,1-.14.47,2.59,2.59,0,0,1-.29.51,4.09,4.09,0,0,1-.85.8,5.58,5.58,0,0,1-2,.69,5.18,5.18,0,0,1-1,0,3.09,3.09,0,0,1,.92,2.07c0,.33-.17.69-.14,1s.28.32.43.56a5.88,5.88,0,0,0,.65.69,7.56,7.56,0,0,0,.78.72,4.64,4.64,0,0,0,.86.54,3.5,3.5,0,0,0,.46.19,2.41,2.41,0,0,0,.43.1c.16,0,.54,0,.64.05s.34,0,.25,0a2.83,2.83,0,0,1-.91.3,2.92,2.92,0,0,1-.5,0,2.83,2.83,0,0,1-.58-.11,4.87,4.87,0,0,1-1-.57,5.92,5.92,0,0,1-1.33-1.68,3.58,3.58,0,0,1-.25-.61,2.94,2.94,0,0,1-2.57,1.67c-.13,0-.25-.08-.36,0s-.05.09-.17.25a8.84,8.84,0,0,0-.45.8,8.12,8.12,0,0,0-.43.94,5.39,5.39,0,0,0-.24,1,4.36,4.36,0,0,0,0,.48,3,3,0,0,0,0,.43c0,.15.16.52.17.61s.14.33.07.24a3.37,3.37,0,0,1-.6-.77,3.54,3.54,0,0,1-.16-.47,1.93,1.93,0,0,1-.08-.57,3.87,3.87,0,0,1,.2-1.15,5.38,5.38,0,0,1,1.21-1.75s.13-.07.09-.08a3.17,3.17,0,0,1-2.16-2.59c0-.09-.14,0-.31-.09a8.61,8.61,0,0,0-.91-.2,8.86,8.86,0,0,0-1.05-.13,4.59,4.59,0,0,0-1,0,2,2,0,0,0-.47.11,3.89,3.89,0,0,0-.41.16c-.14.06-.45.3-.53.34s-.27.23-.22.13a3.23,3.23,0,0,1,.55-.78,3.71,3.71,0,0,1,.4-.3,2.4,2.4,0,0,1,.54-.23,3.59,3.59,0,0,1,1.17-.13,5.71,5.71,0,0,1,2.09.63c.08,0,.16.16.16.09A3.26,3.26,0,0,1,76.08,162c.16-.1-.06-.44,0-.67a4.69,4.69,0,0,0-.1-.93,9.35,9.35,0,0,0-.2-1,5,5,0,0,0-.38-1,3.77,3.77,0,0,0-.26-.41,2.46,2.46,0,0,0-.29-.34c-.1-.12-.43-.34-.5-.41s-.31-.18-.2-.16A3.12,3.12,0,0,1,75.06,157.35Z"/><path class="cls-28" d="M145.19,98.05a1.69,1.69,0,1,0,1.21-2A1.66,1.66,0,0,0,145.19,98.05Z"/><path class="cls-28" d="M141.81,89.79c-5.12,1-2.56,3.6.4,5.84-3,.18-7.64.88-4.23,4.44-.59,5.19,2.63,3.56,5.69,1.45-.77,2.93-1.52,7.52,2.93,5.4,4.75,2.17,4.19-1.39,3.12-5,2.54,1.62,6.7,3.79,6.05-1.1,3.53-3.86-.06-4.42-3.77-4.5,2.35-1.93,5.66-5.2.81-6.09-2.58-4.54-4.22-1.34-5.45,2.17C146.26,89.64,144.16,85.45,141.81,89.79Zm2,2.73a3.73,3.73,0,0,1,.38.15,1.75,1.75,0,0,1,.39.25,3.24,3.24,0,0,1,.61.74,6.05,6.05,0,0,1,.46,1.57c0,.3-.12.44,0,.49s.3-.22.67-.27a3.46,3.46,0,0,1,1.55.18c.09,0,.4-.31.56-.4a4.48,4.48,0,0,0,.58-.46,6.43,6.43,0,0,0,.6-.57,3.46,3.46,0,0,0,.46-.63,1.82,1.82,0,0,0,.17-.35,2.44,2.44,0,0,0,.1-.33c0-.12,0-.42.06-.49s0-.27,0-.2a2.73,2.73,0,0,1,.21.71,2.93,2.93,0,0,1,0,.41,1.28,1.28,0,0,1-.11.44,3.32,3.32,0,0,1-.51.81,5.88,5.88,0,0,1-1.36.91c-.24.12-.72.16-.65.21A3.4,3.4,0,0,1,149,97c.11.4,0,.56.08.79s.28.18.44.34a3.2,3.2,0,0,0,.62.42,6.23,6.23,0,0,0,.72.39,3.79,3.79,0,0,0,.75.24,2.18,2.18,0,0,0,.39,0c.13,0,.21,0,.34,0s.41-.09.49-.09.23-.1.19,0a2.15,2.15,0,0,1-.61.41,2.48,2.48,0,0,1-.39.1,1.63,1.63,0,0,1-.47,0,3.3,3.3,0,0,1-.92-.24,5.07,5.07,0,0,1-1.3-1c-.21-.28-.14-.19-.29-.41a2.34,2.34,0,0,1-1.63,1.8c-.09,0-.2,0-.27,0s0,.09-.09.23-.13.48-.19.71a6.84,6.84,0,0,0-.14.81,4.21,4.21,0,0,0,0,.79c0,.19,0,.24.07.37a2.53,2.53,0,0,0,.12.33c0,.12.21.36.24.43s.16.21.09.18a2.44,2.44,0,0,1-.57-.46,1.52,1.52,0,0,1-.22-.34,1.15,1.15,0,0,1-.17-.44,2.32,2.32,0,0,1-.06-1,4.37,4.37,0,0,1,.58-1.56s.08-.08,0-.08a2.46,2.46,0,0,1-2.12-1.53c0-.08-.11,0-.26,0a4.87,4.87,0,0,0-.73,0,5.82,5.82,0,0,0-.81.11,4.14,4.14,0,0,0-.75.24,2.54,2.54,0,0,0-.34.18,2.78,2.78,0,0,0-.27.21c-.1.08-.29.31-.34.36s-.16.22-.14.14a3.2,3.2,0,0,1,.25-.68,2,2,0,0,1,.26-.32,1.28,1.28,0,0,1,.36-.29,2.76,2.76,0,0,1,.9-.35,4.47,4.47,0,0,1,1.66.07c.06,0,.15.09.14,0a2.6,2.6,0,0,1,.84-2.23c.09-.1-.13-.31-.15-.49a4.39,4.39,0,0,0-.26-.7,5.49,5.49,0,0,0-.36-.73,4.35,4.35,0,0,0-.46-.65L144,93a2.51,2.51,0,0,0-.29-.2c-.1-.07-.38-.17-.45-.21s-.25-.06-.18-.08A2.08,2.08,0,0,1,143.78,92.52Z"/><path class="cls-28" d="M21.77,92A2.18,2.18,0,1,0,24,89.85,2.14,2.14,0,0,0,21.77,92Z"/><path class="cls-28" d="M20.29,80.59c-6.72-.38-4.38,3.65-1.43,7.43-3.83-.77-9.81-1.42-6.75,4.16-2.43,6.28,2.1,5.3,6.61,3.67-1.91,3.39-4.38,8.9,1.86,7.71,5.22,4.26,5.69-.38,5.53-5.17,2.63,2.88,7.1,6.93,7.89.62,5.66-3.65,1.41-5.53-3.19-6.86,3.54-1.62,8.76-4.62,3-7.33-1.72-6.52-4.82-3.06-7.5.92C25.88,81.88,24.65,76,20.29,80.59Zm1.57,4.08a3.62,3.62,0,0,1,.41.3,3.66,3.66,0,0,1,.39.43,4.88,4.88,0,0,1,.5,1.08,6.29,6.29,0,0,1,.07,2.14c0,.4-.25.57-.15.63s.57-.14.89-.11a4.31,4.31,0,0,1,1.94.73c.12.08.58-.25.82-.31a5.85,5.85,0,0,0,.88-.38,7.81,7.81,0,0,0,.93-.52,4.39,4.39,0,0,0,.79-.64,4.11,4.11,0,0,0,.32-.37,3.21,3.21,0,0,0,.23-.38c.08-.14.19-.52.24-.6s.08-.35.1-.23a3.37,3.37,0,0,1,0,1,4.4,4.4,0,0,1-.16.48,2.16,2.16,0,0,1-.29.51,4.36,4.36,0,0,1-.88.82,5.68,5.68,0,0,1-2,.71,4.52,4.52,0,0,1-1,0A3.15,3.15,0,0,1,26.82,92c0,.34-.18.7-.16,1s.29.33.43.56a5.91,5.91,0,0,0,.64.72,8.86,8.86,0,0,0,.77.73,5.34,5.34,0,0,0,.86.55,3,3,0,0,0,.45.19,2.63,2.63,0,0,0,.43.1c.16,0,.55,0,.65.05s.34,0,.25,0a2.79,2.79,0,0,1-.92.31,4.26,4.26,0,0,1-.51,0,2.78,2.78,0,0,1-.57-.12,4.15,4.15,0,0,1-1-.58,5.75,5.75,0,0,1-1.31-1.71,5.65,5.65,0,0,1-.24-.62,3,3,0,0,1-2.62,1.71c-.13,0-.25-.08-.36,0s-.05.1-.18.26-.33.56-.47.82a7.66,7.66,0,0,0-.45,1,5.53,5.53,0,0,0-.26,1,3.41,3.41,0,0,0,0,.5c0,.17,0,.28,0,.44s.15.53.16.63.14.33.06.24a3.48,3.48,0,0,1-.58-.78,4.07,4.07,0,0,1-.15-.48,1.82,1.82,0,0,1-.07-.59,4,4,0,0,1,.23-1.17,5.61,5.61,0,0,1,1.26-1.81s.13-.07.09-.08a3.15,3.15,0,0,1-2.14-2.61c0-.1-.14,0-.31-.09a6.85,6.85,0,0,0-.92-.2,8.86,8.86,0,0,0-1-.13,4.2,4.2,0,0,0-1,0,3.16,3.16,0,0,0-.48.11l-.41.17c-.14.07-.46.3-.54.35s-.27.23-.22.13a3.15,3.15,0,0,1,.57-.79,2.73,2.73,0,0,1,.4-.3,2.35,2.35,0,0,1,.54-.24,3.45,3.45,0,0,1,1.19-.14,5.63,5.63,0,0,1,2.1.63c.07,0,.15.15.16.09a3.35,3.35,0,0,1,1.77-2.51c.15-.1-.05-.44,0-.67a5.7,5.7,0,0,0-.09-1,9.53,9.53,0,0,0-.2-1,5,5,0,0,0-.37-1,3,3,0,0,0-.26-.43c-.1-.14-.18-.21-.28-.33s-.44-.35-.5-.42-.3-.18-.19-.16A2.81,2.81,0,0,1,21.86,84.67Z"/></g></g></g></svg>