<svg id="Layer_1" data-name="Layer 1" xmlns="http://www.w3.org/2000/svg" viewBox="0 0 310.2187 61.3882"><title>vina_logo_white</title><path d="M100.5928,377.9683a23.06461,23.06461,0,1,1,5.6855-5.166l5.4649,5.4609a30.96876,30.96876,0,1,0-5.6348,5.2168Z" transform="translate(-57.4893 -327.9023)" style="fill:#fff"/><path d="M88.1846,343.2481a15.34835,15.34835,0,1,0,15.3476,15.3471A15.35195,15.35195,0,0,0,88.1846,343.2481Zm-4.6055,19.9526H80.5107v-3.0703h3.0684v3.0703Zm6.1387,0H86.6514V357.064h3.0664v6.1367Zm6.1406,0H92.7881v-9.209h3.0703v9.209Z" transform="translate(-57.4893 -327.9023)" style="fill:#fff"/><path d="M143.7539,371.4644v-1.0215h5.7256v1.0215h-2.3291v9.4277h-1.0645v-9.4277h-2.332Z" transform="translate(-57.4893 -327.9023)" style="fill:#fff"/><path d="M154.4834,372.9644a3.82266,3.82266,0,0,1,2.958,1.2949,4.14515,4.14515,0,0,1-.0586,5.6191,4.08466,4.08466,0,0,1-5.8057,0,4.12443,4.12443,0,0,1-.0605-5.6133A3.81781,3.81781,0,0,1,154.4834,372.9644Zm-0.0039.9726a2.85175,2.85175,0,0,0-2.1318.918,3.059,3.059,0,0,0-.8946,2.2129,3.13995,3.13995,0,0,0,.4102,1.5644,2.84133,2.84133,0,0,0,1.0947,1.1172,3.0964,3.0964,0,0,0,3.0391,0,2.87751,2.87751,0,0,0,1.0986-1.1172,3.159,3.159,0,0,0,.4082-1.5644,3.048,3.048,0,0,0-.8994-2.2129A2.84948,2.84948,0,0,0,154.4795,373.937Z" transform="translate(-57.4893 -327.9023)" style="fill:#fff"/><path d="M160.3633,373.1636h0.9941v1.4179a3.99568,3.99568,0,0,1,1.3565-1.2109,3.60817,3.60817,0,0,1,1.7119-.4062,3.81984,3.81984,0,0,1,2.8164,1.1875,3.91942,3.91942,0,0,1,1.1689,2.8554,3.9922,3.9922,0,0,1-1.1592,2.8946,3.91021,3.91021,0,0,1-4.4941.8046,4.26143,4.26143,0,0,1-1.4004-1.1425v4.1543h-0.9941V373.1636Zm3.9775,0.7597a2.92221,2.92221,0,0,0-2.1699.8985,3.08126,3.08126,0,0,0-.8848,2.2441,3.18728,3.18728,0,0,0,.3946,1.584,2.86834,2.86834,0,0,0,1.1269,1.1113,3.111,3.111,0,0,0,1.5488.4121,2.89189,2.89189,0,0,0,1.5059-.416,3.00246,3.00246,0,0,0,1.124-1.1582,3.13536,3.13536,0,0,0,.003-3.123A2.985,2.985,0,0,0,164.3408,373.9233Z" transform="translate(-57.4893 -327.9023)" style="fill:#fff"/><path d="M179.4424,370.1773a5.41646,5.41646,0,0,1,3.9717,1.5859,5.49374,5.49374,0,0,1-3.8868,9.3926,5.34922,5.34922,0,0,1-3.9238-1.5918,5.2345,5.2345,0,0,1-1.5996-3.8516,5.58884,5.58884,0,0,1,.7275-2.791A5.38514,5.38514,0,0,1,179.4424,370.1773Zm0.0459,1.0175a4.28793,4.28793,0,0,0-2.1983.6035,4.38064,4.38064,0,0,0-1.623,1.629,4.51956,4.51956,0,0,0-.585,2.2832,4.39634,4.39634,0,0,0,4.4063,4.4277,4.46907,4.46907,0,0,0,2.251-.5899,4.18926,4.18926,0,0,0,1.6132-1.6152,4.50129,4.50129,0,0,0,.5811-2.2734,4.40182,4.40182,0,0,0-.5811-2.252,4.32835,4.32835,0,0,0-1.6298-1.6094A4.409,4.409,0,0,0,179.4883,371.1948Z" transform="translate(-57.4893 -327.9023)" style="fill:#fff"/><path d="M186.9463,373.1636h0.9941v1.3847a4.16752,4.16752,0,0,1,1.3203-1.1894,3.24908,3.24908,0,0,1,1.5791-.3945,2.74094,2.74094,0,0,1,1.5381.4394,2.62384,2.62384,0,0,1,.9912,1.1875,6.31746,6.31746,0,0,1,.3184,2.3223v3.9785h-0.9932v-3.6875a9.06167,9.06167,0,0,0-.1103-1.7832,1.96205,1.96205,0,0,0-.6641-1.1543,1.99992,1.99992,0,0,0-1.2763-.3867,2.45256,2.45256,0,0,0-1.6172.5957,2.79676,2.79676,0,0,0-.9434,1.4785,10.32662,10.32662,0,0,0-.1426,2.1016v2.8359h-0.9941v-7.7285Z" transform="translate(-57.4893 -327.9023)" style="fill:#fff"/><path d="M195.6699,370.1773h0.9951v10.7148h-0.9951V370.1773Z" transform="translate(-57.4893 -327.9023)" style="fill:#fff"/><path d="M199.0781,369.98a0.80657,0.80657,0,0,1,.583.2402,0.81751,0.81751,0,0,1,.2344.584,0.81359,0.81359,0,0,1-.8174.8164,0.82718,0.82718,0,0,1-.8154-0.8164,0.79347,0.79347,0,0,1,.2422-0.584A0.78156,0.78156,0,0,1,199.0781,369.98Zm-0.497,3.1836h0.996v7.7285h-0.996v-7.7285Z" transform="translate(-57.4893 -327.9023)" style="fill:#fff"/><path d="M201.6445,373.1636h0.9942v1.3847a4.193,4.193,0,0,1,1.3222-1.1894,3.23453,3.23453,0,0,1,1.5782-.3945,2.7346,2.7346,0,0,1,1.5361.4394,2.59784,2.59784,0,0,1,.9902,1.1875,6.22735,6.22735,0,0,1,.3203,2.3223v3.9785h-0.9941v-3.6875a9.15916,9.15916,0,0,0-.1094-1.7832,1.96361,1.96361,0,0,0-.6611-1.1543,2.00877,2.00877,0,0,0-1.2793-.3867,2.46,2.46,0,0,0-1.6172.5957,2.78317,2.78317,0,0,0-.9424,1.4785,10.30727,10.30727,0,0,0-.1435,2.1016v2.8359h-0.9942v-7.7285Z" transform="translate(-57.4893 -327.9023)" style="fill:#fff"/><path d="M217.0264,378.3276l0.8349,0.4395a4.57647,4.57647,0,0,1-.9482,1.3086,3.78972,3.78972,0,0,1-1.2188.7578,4.25622,4.25622,0,0,1-1.5273.2559,3.69963,3.69963,0,0,1-2.959-1.2364,4.18867,4.18867,0,0,1-1.0664-2.8027,4.13728,4.13728,0,0,1,.9023-2.625,3.6966,3.6966,0,0,1,3.0674-1.4609,3.82159,3.82159,0,0,1,3.1563,1.498,4.18451,4.18451,0,0,1,.8496,2.6426h-6.9531a3.13663,3.13663,0,0,0,.8632,2.209,2.73428,2.73428,0,0,0,2.0557.8593,3.31071,3.31071,0,0,0,1.1465-.205,3.01048,3.01048,0,0,0,.9512-0.545A4.64316,4.64316,0,0,0,217.0264,378.3276Zm0-2.082a3.35721,3.35721,0,0,0-.5801-1.2715,2.78514,2.78514,0,0,0-1.0078-.7676,3.09041,3.09041,0,0,0-1.3135-.291,2.84517,2.84517,0,0,0-1.957.7305,3.30429,3.30429,0,0,0-.9043,1.5996h5.7627Z" transform="translate(-57.4893 -327.9023)" style="fill:#fff"/><path d="M224.2197,370.4429h2.083a12.76014,12.76014,0,0,1,2.3584.1406,2.67094,2.67094,0,0,1,1.5127.916,2.59657,2.59657,0,0,1,.583,1.7246,2.76256,2.76256,0,0,1-.4013,1.5,2.50109,2.50109,0,0,1-1.1465.9766,5.22914,5.22914,0,0,1-2.0615.3379l3.7578,4.8535h-1.291l-3.7588-4.8535h-0.5928v4.8535h-1.043V370.4429Zm1.043,1.0215v3.5527l1.8027,0.0137a4.427,4.427,0,0,0,1.5489-.2012,1.58066,1.58066,0,0,0,.7812-0.6328,1.75982,1.75982,0,0,0,.2832-0.9766,1.70794,1.70794,0,0,0-.2851-0.957,1.57012,1.57012,0,0,0-.7481-0.6133,4.53139,4.53139,0,0,0-1.5371-.1855h-1.8457Z" transform="translate(-57.4893 -327.9023)" style="fill:#fff"/><path d="M239.3389,378.3276l0.8379,0.4395a4.58625,4.58625,0,0,1-.9532,1.3086,3.80492,3.80492,0,0,1-1.2129.7578,4.28744,4.28744,0,0,1-1.5302.2559,3.69217,3.69217,0,0,1-2.9561-1.2364,4.22863,4.22863,0,0,1-.1641-5.4277,3.68615,3.68615,0,0,1,3.0625-1.4609,3.82157,3.82157,0,0,1,3.1583,1.498,4.20943,4.20943,0,0,1,.8525,2.6426h-6.9551a3.13565,3.13565,0,0,0,.8613,2.209,2.74027,2.74027,0,0,0,2.0557.8593,3.32774,3.32774,0,0,0,1.1504-.205,3.00239,3.00239,0,0,0,.9473-0.545A4.61957,4.61957,0,0,0,239.3389,378.3276Zm0-2.082a3.297,3.297,0,0,0-.5791-1.2715,2.78811,2.78811,0,0,0-1.0088-.7676,3.08168,3.08168,0,0,0-1.3145-.291,2.84575,2.84575,0,0,0-1.9551.7305,3.31379,3.31379,0,0,0-.9043,1.5996h5.7618Z" transform="translate(-57.4893 -327.9023)" style="fill:#fff"/><path d="M246.1748,374.0073l-0.6426.6621a2.291,2.291,0,0,0-1.5576-.7754,1.18635,1.18635,0,0,0-.8301.3184,0.986,0.986,0,0,0-.3447.75,1.09946,1.09946,0,0,0,.2852.7149,3.9105,3.9105,0,0,0,1.1953.8144,4.51967,4.51967,0,0,1,1.5097,1.1113,2.01991,2.01991,0,0,1,.3877,1.2149,2.18608,2.18608,0,0,1-.666,1.6133,2.28389,2.28389,0,0,1-1.6719.6582,2.93,2.93,0,0,1-1.2763-.2911,2.76361,2.76361,0,0,1-1.0088-.8007l0.626-.7129a2.17724,2.17724,0,0,0,1.6171.8633,1.46307,1.46307,0,0,0,1.0186-.3868,1.184,1.184,0,0,0,.4199-0.9004,1.15379,1.15379,0,0,0-.2793-0.7597,4.41717,4.41717,0,0,0-1.2529-.8262,4.01732,4.01732,0,0,1-1.4229-1.0664,2.00236,2.00236,0,0,1-.3798-1.1992,1.94464,1.94464,0,0,1,.6035-1.4629,2.097,2.097,0,0,1,1.5195-.582A3.15906,3.15906,0,0,1,246.1748,374.0073Z" transform="translate(-57.4893 -327.9023)" style="fill:#fff"/><path d="M254.4414,378.3276l0.8379,0.4395a4.58232,4.58232,0,0,1-.9512,1.3086,3.79168,3.79168,0,0,1-1.2168.7578,4.25416,4.25416,0,0,1-1.5283.2559,3.69419,3.69419,0,0,1-2.957-1.2364,4.19273,4.19273,0,0,1-1.0703-2.8027,4.14093,4.14093,0,0,1,.9062-2.625,3.691,3.691,0,0,1,3.0645-1.4609,3.82177,3.82177,0,0,1,3.1591,1.498,4.19638,4.19638,0,0,1,.8506,2.6426h-6.955a3.15589,3.15589,0,0,0,.8603,2.209,2.7489,2.7489,0,0,0,2.0576.8593,3.30243,3.30243,0,0,0,1.1465-.205,2.99423,2.99423,0,0,0,.9502-0.545A4.56549,4.56549,0,0,0,254.4414,378.3276Zm0-2.082a3.32575,3.32575,0,0,0-.5771-1.2715,2.81066,2.81066,0,0,0-1.0059-.7676,3.10876,3.10876,0,0,0-1.3154-.291,2.84662,2.84662,0,0,0-1.959.7305,3.31931,3.31931,0,0,0-.9033,1.5996h5.7607Z" transform="translate(-57.4893 -327.9023)" style="fill:#fff"/><path d="M265.0928,373.1636v7.7285h-0.9805V379.564a4.27974,4.27974,0,0,1-1.4033,1.1425,3.92678,3.92678,0,0,1-4.5049-.8046,3.99349,3.99349,0,0,1-1.1602-2.8946,3.90469,3.90469,0,0,1,1.17-2.8554,3.82266,3.82266,0,0,1,2.8213-1.1875,3.65305,3.65305,0,0,1,1.7236.4062,3.93388,3.93388,0,0,1,1.3535,1.2109v-1.4179h0.9805Zm-3.9766.7597a2.99078,2.99078,0,0,0-2.6484,1.5528,3.14157,3.14157,0,0,0,.0009,3.123,3.03107,3.03107,0,0,0,1.1241,1.1582,2.92755,2.92755,0,0,0,1.5175.416,3.09409,3.09409,0,0,0,1.545-.4121,2.851,2.851,0,0,0,1.125-1.1113,3.16732,3.16732,0,0,0,.3945-1.584,3.08,3.08,0,0,0-.8838-2.2441A2.92994,2.92994,0,0,0,261.1162,373.9233Z" transform="translate(-57.4893 -327.9023)" style="fill:#fff"/><path d="M266.9531,373.1636h1.0127v1.1269a3.63209,3.63209,0,0,1,.961-0.9961,1.88459,1.88459,0,0,1,1.0527-.33,1.827,1.827,0,0,1,.8818.2617l-0.5205.8398a1.402,1.402,0,0,0-.5244-0.1367,1.44612,1.44612,0,0,0-.9609.4082,2.573,2.573,0,0,0-.7022,1.2695,12.04308,12.04308,0,0,0-.1875,2.67v2.6152h-1.0127v-7.7285Z" transform="translate(-57.4893 -327.9023)" style="fill:#fff"/><path d="M279.2041,374.769l-0.7861.4883a3.30378,3.30378,0,0,0-2.7881-1.3554,3.21784,3.21784,0,0,0-2.3457.9082,2.96468,2.96468,0,0,0-.9317,2.207,3.119,3.119,0,0,0,.4287,1.5898,2.992,2.992,0,0,0,1.1768,1.1543,3.56281,3.56281,0,0,0,4.46-.9433l0.7861,0.5176a3.67991,3.67991,0,0,1-1.4844,1.2949,4.73914,4.73914,0,0,1-2.1289.459,4.21444,4.21444,0,0,1-3.04-1.1621,3.78956,3.78956,0,0,1-1.209-2.836,4.043,4.043,0,0,1,.5664-2.0859,3.96244,3.96244,0,0,1,1.5508-1.5,4.518,4.518,0,0,1,2.2119-.541,4.78486,4.78486,0,0,1,1.4805.2324,4.19216,4.19216,0,0,1,1.2109.6133A3.26452,3.26452,0,0,1,279.2041,374.769Z" transform="translate(-57.4893 -327.9023)" style="fill:#fff"/><path d="M281.1172,370.1773h0.9931v4.371a4.24726,4.24726,0,0,1,1.3301-1.1894,3.21815,3.21815,0,0,1,1.5703-.3945,2.73535,2.73535,0,0,1,1.5371.4394,2.63287,2.63287,0,0,1,.9922,1.1856,6.20365,6.20365,0,0,1,.3203,2.3242v3.9785h-0.998v-3.6875a9.5002,9.5002,0,0,0-.1064-1.7832,1.81765,1.81765,0,0,0-1.9444-1.541,2.45291,2.45291,0,0,0-1.6152.5957,2.8324,2.8324,0,0,0-.9434,1.4785,10.26013,10.26013,0,0,0-.1426,2.1016v2.8359h-0.9931V370.1773Z" transform="translate(-57.4893 -327.9023)" style="fill:#fff"/><path d="M294.3623,369.98a0.79634,0.79634,0,0,1,.582.2402,0.80607,0.80607,0,0,1,.2393.584,0.822,0.822,0,0,1-.8213.8164,0.77012,0.77012,0,0,1-.5713-0.2422,0.789,0.789,0,0,1-.2422-0.5742,0.80478,0.80478,0,0,1,.2422-0.584A0.77576,0.77576,0,0,1,294.3623,369.98Zm-0.4922,3.1836h0.9951v7.7285h-0.9951v-7.7285Z" transform="translate(-57.4893 -327.9023)" style="fill:#fff"/><path d="M296.9287,373.1636h0.9971v1.3847a4.17322,4.17322,0,0,1,1.3193-1.1894,3.24247,3.24247,0,0,1,1.5781-.3945,2.75779,2.75779,0,0,1,1.5411.4394,2.63621,2.63621,0,0,1,.9882,1.1875,6.24831,6.24831,0,0,1,.3203,2.3223v3.9785h-0.9951v-3.6875a8.98117,8.98117,0,0,0-.1103-1.7832,1.96053,1.96053,0,0,0-.6621-1.1543,2.00876,2.00876,0,0,0-1.2774-.3867,2.46418,2.46418,0,0,0-1.6181.5957,2.79444,2.79444,0,0,0-.9424,1.4785,10.1998,10.1998,0,0,0-.1416,2.1016v2.8359h-0.9971v-7.7285Z" transform="translate(-57.4893 -327.9023)" style="fill:#fff"/><path d="M309.1982,370.4429h1.1377l3.4649,8.0742,3.5185-8.0742h1.1368l-4.5469,10.4492h-0.2276Z" transform="translate(-57.4893 -327.9023)" style="fill:#fff"/><path d="M320.3936,369.98a0.79018,0.79018,0,0,1,.5791.2402,0.8003,0.8003,0,0,1,.2412.584,0.82532,0.82532,0,0,1-.8203.8164,0.82367,0.82367,0,0,1-.8135-0.8164,0.79548,0.79548,0,0,1,.2402-0.584A0.78178,0.78178,0,0,1,320.3936,369.98Zm-0.4942,3.1836h0.9942v7.7285h-0.9942v-7.7285Z" transform="translate(-57.4893 -327.9023)" style="fill:#fff"/><path d="M329.4687,378.3276l0.8379,0.4395a4.62426,4.62426,0,0,1-.9541,1.3086,3.80346,3.80346,0,0,1-1.2148.7578,4.25984,4.25984,0,0,1-1.5274.2559,3.6968,3.6968,0,0,1-2.9589-1.2364,4.24328,4.24328,0,0,1-.1651-5.4277,3.69292,3.69292,0,0,1,3.0655-1.4609,3.8065,3.8065,0,0,1,3.1543,1.498,4.17656,4.17656,0,0,1,.8564,2.6426h-6.957a3.13813,3.13813,0,0,0,.8652,2.209,2.73283,2.73283,0,0,0,2.0537.8593,3.29418,3.29418,0,0,0,1.1465-.205,2.99533,2.99533,0,0,0,.9502-0.545A4.63943,4.63943,0,0,0,329.4687,378.3276Zm0-2.082a3.31114,3.31114,0,0,0-.581-1.2715,2.777,2.777,0,0,0-1.0059-.7676,3.09633,3.09633,0,0,0-1.3164-.291,2.85136,2.85136,0,0,0-1.956.7305,3.31135,3.31135,0,0,0-.9033,1.5996h5.7626Z" transform="translate(-57.4893 -327.9023)" style="fill:#fff"/><path d="M333.2812,370.2905h0.9952v2.8731h1.5781v0.8594h-1.5781v6.8691h-0.9952V374.023h-1.3574v-0.8594h1.3574v-2.8731Z" transform="translate(-57.4893 -327.9023)" style="fill:#fff"/><path d="M337.3477,373.1636h0.9912v1.3847a4.1894,4.1894,0,0,1,1.3213-1.1894,3.24853,3.24853,0,0,1,1.5791-.3945,2.74854,2.74854,0,0,1,1.539.4394,2.63227,2.63227,0,0,1,.9893,1.1875,6.24655,6.24655,0,0,1,.3213,2.3223v3.9785h-0.9971v-3.6875a9.11119,9.11119,0,0,0-.1084-1.7832,1.95384,1.95384,0,0,0-.666-1.1543,2.00143,2.00143,0,0,0-1.2774-.3867,2.46586,2.46586,0,0,0-1.6172.5957,2.815,2.815,0,0,0-.9404,1.4785,10.37493,10.37493,0,0,0-.1435,2.1016v2.8359h-0.9912v-7.7285Z" transform="translate(-57.4893 -327.9023)" style="fill:#fff"/><path d="M353.9189,373.1636v7.7285h-0.9804V379.564a4.21879,4.21879,0,0,1-1.4024,1.1425,3.92529,3.92529,0,0,1-4.5039-.8046,3.9992,3.9992,0,0,1-1.1621-2.8946,3.90642,3.90642,0,0,1,1.1719-2.8554,3.82486,3.82486,0,0,1,2.8223-1.1875,3.66861,3.66861,0,0,1,1.7246.4062,3.9151,3.9151,0,0,1,1.3496,1.2109v-1.4179h0.9804Zm-3.9736.7597a2.99088,2.99088,0,0,0-2.6514,1.5528,3.16957,3.16957,0,0,0-.413,1.5625,3.134,3.134,0,0,0,.4189,1.5605,3.00707,3.00707,0,0,0,1.123,1.1582,2.918,2.918,0,0,0,1.5147.416,3.09885,3.09885,0,0,0,1.5478-.4121,2.87411,2.87411,0,0,0,1.1241-1.1113,3.18721,3.18721,0,0,0,.3945-1.584,3.08809,3.08809,0,0,0-.8838-2.2441A2.93608,2.93608,0,0,0,349.9453,373.9233Z" transform="translate(-57.4893 -327.9023)" style="fill:#fff"/><path d="M356.1494,373.1636h0.9942v1.334a3.90584,3.90584,0,0,1,1.0683-1.0821,3.05319,3.05319,0,0,1,1.5859-.4511,2.62873,2.62873,0,0,1,1.0655.2207,2.28378,2.28378,0,0,1,.8271.5839,3.1867,3.1867,0,0,1,.5547,1.0489,3.6774,3.6774,0,0,1,1.2383-1.3809,2.93291,2.93291,0,0,1,1.6025-.4726,2.49943,2.49943,0,0,1,1.4131.4062,2.39129,2.39129,0,0,1,.9121,1.127,6.03511,6.03511,0,0,1,.2969,2.1738v4.2207h-1.0156v-4.2207a5.432,5.432,0,0,0-.1778-1.707,1.53161,1.53161,0,0,0-.6035-0.752,1.82746,1.82746,0,0,0-1.0234-.2832,2.23058,2.23058,0,0,0-1.3213.4258,2.46362,2.46362,0,0,0-.876,1.1387,7.27848,7.27848,0,0,0-.2754,2.373v3.0254h-0.9931V376.937a6.7795,6.7795,0,0,0-.1748-1.9023,1.587,1.587,0,0,0-.6084-0.8047,1.75989,1.75989,0,0,0-1.0284-.3008,2.2129,2.2129,0,0,0-1.29.418,2.46923,2.46923,0,0,0-.8877,1.1172,6.05382,6.05382,0,0,0-.289,2.1523v3.2754h-0.9942v-7.7285Z" transform="translate(-57.4893 -327.9023)" style="fill:#fff"/><path d="M161.249,333.4756a3.29061,3.29061,0,0,1,2.4219,1.0195,3.39411,3.39411,0,0,1,1.0039,2.4746,3.3334,3.3334,0,0,1-.9971,2.4434,3.22414,3.22414,0,0,1-2.3916,1.0176,3.29438,3.29438,0,0,1-2.4394-1.0293,3.45829,3.45829,0,0,1-1.0078-2.5117A3.40248,3.40248,0,0,1,161.249,333.4756Zm-2.6836,8.8008h5.3643v21.3833h-5.3643V342.2764Z" transform="translate(-57.4893 -327.9023)" style="fill:#fff"/><path d="M134.6055,342.2764h5.4658l5.4014,12.6235,5.3916-12.6235h5.4365l-9.0977,21.3833h-3.4804Z" transform="translate(-57.4893 -327.9023)" style="fill:#fff"/><path d="M166.3164,342.2764h5.3643v2.1953a12.86005,12.86005,0,0,1,3.3086-2.1406,7.892,7.892,0,0,1,3.0332-.6055,7.33613,7.33613,0,0,1,5.3964,2.2246,7.62184,7.62184,0,0,1,1.8653,5.582v14.1275h-5.3096v-9.3614a23.62323,23.62323,0,0,0-.3428-5.0883,3.47063,3.47063,0,0,0-1.1943-1.9102,3.346,3.346,0,0,0-2.1074-.6601,3.99094,3.99094,0,0,0-2.7979,1.0878,5.84235,5.84235,0,0,0-1.6142,3.0157,24.136,24.136,0,0,0-.2373,4.3383v8.5782h-5.3643V342.2764Z" transform="translate(-57.4893 -327.9023)" style="fill:#fff"/><path d="M203.5703,342.2764h5.3643v21.3833h-5.3643v-2.2578a10.49761,10.49761,0,0,1-3.1514,2.1523,8.80732,8.80732,0,0,1-3.4248.6602,9.52178,9.52178,0,0,1-7.167-3.2149,11.2256,11.2256,0,0,1-3.0224-7.9883,11.5,11.5,0,0,1,2.9248-8.1215,9.32683,9.32683,0,0,1,7.1074-3.1641,9.104,9.104,0,0,1,3.6133.7285,9.91388,9.91388,0,0,1,3.1201,2.1816v-2.3593Zm-5.6445,4.4004a5.41854,5.41854,0,0,0-4.1299,1.7636,6.3391,6.3391,0,0,0-1.6436,4.5103,6.40843,6.40843,0,0,0,1.6739,4.5586,5.42376,5.42376,0,0,0,4.123,1.791,5.51013,5.51013,0,0,0,4.1914-1.7617,6.43137,6.43137,0,0,0,1.6651-4.6094,6.24653,6.24653,0,0,0-1.6651-4.52A5.6085,5.6085,0,0,0,197.9258,346.6768Z" transform="translate(-57.4893 -327.9023)" style="fill:#fff"/><path d="M210.4512,342.2764h4.5957v2.6933a5.77,5.77,0,0,1,1.9892-2.4179,4.803,4.803,0,0,1,2.708-.8262,5.05307,5.05307,0,0,1,2.1817.5508l-1.669,4.6211a3.66014,3.66014,0,0,0-1.5547-.4746,2.4502,2.4502,0,0,0-2.0898,1.5332c-0.5703,1.0214-.8535,3.0293-0.8535,6.0122l0.0166,1.0449v8.6465h-5.3242V342.2764Z" transform="translate(-57.4893 -327.9023)" style="fill:#fff"/><path d="M246.0186,354.523H228.7793a5.71958,5.71958,0,0,0,1.999,3.625,6.246,6.246,0,0,0,4.1348,1.3476,7.15907,7.15907,0,0,0,5.1719-2.1055l4.5195,2.127a10.707,10.707,0,0,1-4.0498,3.5449,12.64964,12.64964,0,0,1-5.6016,1.1524,11.05725,11.05725,0,0,1-8.1943-3.1778,10.78321,10.78321,0,0,1-3.1641-7.9453,11.15621,11.15621,0,0,1,3.1553-8.1294,10.58479,10.58479,0,0,1,7.9082-3.2363,10.9964,10.9964,0,0,1,8.2178,3.2363,11.67789,11.67789,0,0,1,3.1601,8.5396Zm-5.3663-4.2271a5.37348,5.37348,0,0,0-2.0947-2.9102,6.08891,6.08891,0,0,0-3.6328-1.1191,6.39833,6.39833,0,0,0-3.9385,1.2578,7.0543,7.0543,0,0,0-1.9697,2.7715h11.6357Z" transform="translate(-57.4893 -327.9023)" style="fill:#fff"/><path d="M262.3896,345.2666l-3.3222,3.3223q-2.0244-2.00985-3.6748-2.0078a2.29287,2.29287,0,0,0-1.4151.3847,1.14439,1.14439,0,0,0-.5117.9531,1.17834,1.17834,0,0,0,.3252.7969,6.15153,6.15153,0,0,0,1.6016.9903l1.9658,0.9824a11.66451,11.66451,0,0,1,4.2646,3.1235,6.52184,6.52184,0,0,1-.9336,8.4922,7.99333,7.99333,0,0,1-5.6103,1.9102,8.92649,8.92649,0,0,1-7.4678-3.6563l3.2998-3.5957a7.72648,7.72648,0,0,0,2.211,1.7754,4.88789,4.88789,0,0,0,2.2519.6777,2.69248,2.69248,0,0,0,1.709-.5136,1.4761,1.4761,0,0,0,.6475-1.1778q0-1.23045-2.3379-2.4179l-1.8086-.8985q-5.18415-2.61615-5.1865-6.5473a5.68938,5.68938,0,0,1,1.957-4.3379,7.0975,7.0975,0,0,1,5-1.7969A8.69124,8.69124,0,0,1,262.3896,345.2666Z" transform="translate(-57.4893 -327.9023)" style="fill:#fff"/><path d="M286.8047,354.523H269.5654a5.72414,5.72414,0,0,0,1.9951,3.625,6.25424,6.25424,0,0,0,4.1358,1.3476,7.15123,7.15123,0,0,0,5.1699-2.1055l4.5244,2.127a10.72408,10.72408,0,0,1-4.0537,3.5449,12.64337,12.64337,0,0,1-5.5996,1.1524,11.06031,11.06031,0,0,1-8.1963-3.1778,10.793,10.793,0,0,1-3.167-7.9453,11.15482,11.15482,0,0,1,3.1582-8.1294,10.5984,10.5984,0,0,1,7.9102-3.2363,10.99964,10.99964,0,0,1,8.2178,3.2363,11.68687,11.68687,0,0,1,3.1621,8.5396Zm-5.3682-4.2271a5.3987,5.3987,0,0,0-2.0947-2.9102,6.09341,6.09341,0,0,0-3.6328-1.1191,6.40839,6.40839,0,0,0-3.9385,1.2578,7.01321,7.01321,0,0,0-1.9678,2.7715h11.6338Z" transform="translate(-57.4893 -327.9023)" style="fill:#fff"/><path d="M305.1924,342.2764h5.3642v21.3833h-5.3642v-2.2578a10.48093,10.48093,0,0,1-3.1533,2.1523,8.79407,8.79407,0,0,1-3.4248.6602,9.51783,9.51783,0,0,1-7.1651-3.2149,11.217,11.217,0,0,1-3.0224-7.9883,11.48807,11.48807,0,0,1,2.9257-8.1215,9.31852,9.31852,0,0,1,7.1055-3.1641,9.07511,9.07511,0,0,1,3.6123.7285,9.943,9.943,0,0,1,3.1221,2.1816v-2.3593Zm-5.6416,4.4004a5.40683,5.40683,0,0,0-4.1299,1.7636,6.31233,6.31233,0,0,0-1.6484,4.5103,6.41665,6.41665,0,0,0,1.6738,4.5586,5.42784,5.42784,0,0,0,4.125,1.791,5.49861,5.49861,0,0,0,4.1894-1.7617,6.43137,6.43137,0,0,0,1.6651-4.6094,6.24653,6.24653,0,0,0-1.6651-4.52A5.59766,5.59766,0,0,0,299.5508,346.6768Z" transform="translate(-57.4893 -327.9023)" style="fill:#fff"/><path d="M312.0801,342.2764h4.5976v2.6933a5.78621,5.78621,0,0,1,1.9864-2.4179,4.81565,4.81565,0,0,1,2.7128-.8262,5.07641,5.07641,0,0,1,2.1817.5508l-1.6729,4.6211a3.67317,3.67317,0,0,0-1.5507-.4746,2.4633,2.4633,0,0,0-2.0967,1.5332c-0.5674,1.0214-.8506,3.0293-0.8506,6.0122l0.0166,1.0449v8.6465h-5.3242V342.2764Z" transform="translate(-57.4893 -327.9023)" style="fill:#fff"/><path d="M347.1797,346.6006l-4.4668,2.457a7.47526,7.47526,0,0,0-2.4883-1.8242,7.34913,7.34913,0,0,0-2.8828-.5137,6.70863,6.70863,0,0,0-4.8711,1.7969,6.108,6.108,0,0,0-1.8594,4.604,5.9043,5.9043,0,0,0,1.792,4.4512,6.48339,6.48339,0,0,0,4.7012,1.7285,6.83013,6.83013,0,0,0,5.6084-2.457l4.2314,2.8945a11.53753,11.53753,0,0,1-9.708,4.4766q-5.64255,0-8.832-3.3418a11.10976,11.10976,0,0,1,2.6894-17.6509,12.93287,12.93287,0,0,1,6.2188-1.4961,12.59611,12.59611,0,0,1,5.7217,1.2715A10.78416,10.78416,0,0,1,347.1797,346.6006Z" transform="translate(-57.4893 -327.9023)" style="fill:#fff"/><path d="M348.7617,334.0205h5.3262v10.416a12.27539,12.27539,0,0,1,3.166-2.0332,8.199,8.199,0,0,1,3.2236-.6777,7.26118,7.26118,0,0,1,5.3643,2.1992,7.71711,7.71711,0,0,1,1.8662,5.6074v14.1275h-5.2861v-9.375a22.96493,22.96493,0,0,0-.3555-5.0279,3.4788,3.4788,0,0,0-1.208-1.9648,3.37411,3.37411,0,0,0-2.1152-.6523,3.9615,3.9615,0,0,0-2.7979,1.0839,5.733,5.733,0,0,0-1.6221,2.9434,24.47945,24.47945,0,0,0-.2353,4.4067v8.586h-5.3262V334.0205Z" transform="translate(-57.4893 -327.9023)" style="fill:#fff"/></svg>